<svg width="319" height="56" viewBox="0 0 319 56" fill="none" xmlns="http://www.w3.org/2000/svg">
<path d="M284.727 36.8408V53.2954L290.727 47.2954V30.8408L284.727 36.8408Z" fill="#9C0101" stroke="#9C0101" stroke-width="1.5" stroke-linejoin="round"/>
<path d="M284.727 53.2954H294.5L300.5 47.2954H290.727L284.727 53.2954Z" fill="#9C0101" stroke="#9C0101" stroke-width="1.5" stroke-linejoin="round"/>
<path d="M267.75 6.75L284.727 36.8409L290.727 30.8409L273.75 0.75L267.75 6.75Z" fill="#9C0101" stroke="#9C0101" stroke-width="1.5" stroke-linejoin="round"/>
<path d="M273.75 0.75H284.773L295.386 20.7955H295.841L306.455 0.75H317.477L300.5 30.8409V47.2955H290.727V30.8409L273.75 0.75Z" fill="white" stroke="#9C0101" stroke-width="1.5" stroke-linejoin="round"/>
<path fill-rule="evenodd" clip-rule="evenodd" d="M300.455 6.75L294.202 18.5587L295.386 20.7955H295.841L306.455 0.75L300.455 6.75Z" fill="#9C0101" stroke="#9C0101" stroke-width="1.5" stroke-linejoin="round"/>
<path fill-rule="evenodd" clip-rule="evenodd" d="M230.75 53.2955V6.75L236.75 0.75V47.2955L230.75 53.2955Z" fill="#9C0101" stroke="#9C0101" stroke-width="1.5" stroke-linejoin="round"/>
<path fill-rule="evenodd" clip-rule="evenodd" d="M236.75 47.2955V0.75H255.114C258.629 0.75 261.629 1.37879 264.114 2.63636C266.614 3.87879 268.515 5.64394 269.818 7.93182C271.136 10.2045 271.795 12.8788 271.795 15.9545C271.795 19.0455 271.129 21.7045 269.795 23.9318C268.462 26.1439 266.53 27.8409 264 29.0227C263.861 29.0879 263.721 29.1513 263.579 29.2129L273.455 47.2955H262.591L256.382 35.6764L253.774 30.7955H246.591V36.7955V47.2955H236.75ZM257.955 22.1136C259.197 21.5985 260.121 20.8258 260.727 19.7955C261.348 18.7652 261.659 17.4848 261.659 15.9545C261.659 14.4091 261.348 13.1061 260.727 12.0455C260.121 10.9848 259.189 10.1818 257.932 9.63636C256.689 9.07576 255.121 8.79546 253.227 8.79546H246.591V14.7955V22.8864H253.273C254.124 22.8864 254.91 22.8335 255.631 22.7276C256.501 22.6 257.275 22.3953 257.955 22.1136Z" fill="white" stroke="#9C0101" stroke-width="1.5" stroke-linejoin="round"/>
<path fill-rule="evenodd" clip-rule="evenodd" d="M260.727 19.7954C260.121 20.8257 259.197 21.5984 257.954 22.1136C257.275 22.3953 256.501 22.5999 255.631 22.7276C255.65 22.4774 255.659 22.2197 255.659 21.9545C255.659 20.409 255.348 19.106 254.727 18.0454C254.121 16.9848 253.189 16.1818 251.932 15.6363C250.689 15.0757 249.121 14.7954 247.227 14.7954H246.591V8.79541H253.227C255.121 8.79541 256.689 9.07571 257.932 9.63632C259.189 10.1818 260.121 10.9848 260.727 12.0454C261.348 13.106 261.659 14.409 261.659 15.9545C261.659 17.4848 261.348 18.7651 260.727 19.7954Z" fill="#9C0101" stroke="#9C0101" stroke-width="1.5" stroke-linejoin="round"/>
<path fill-rule="evenodd" clip-rule="evenodd" d="M246.591 30.7954H253.774L247.774 36.7954H246.591V30.7954Z" fill="#9C0101" stroke="#9C0101" stroke-width="1.5" stroke-linejoin="round"/>
<path fill-rule="evenodd" clip-rule="evenodd" d="M230.75 53.2954L236.75 47.2954H246.591L240.591 53.2954H230.75Z" fill="#9C0101" stroke="#9C0101" stroke-width="1.5" stroke-linejoin="round"/>
<path fill-rule="evenodd" clip-rule="evenodd" d="M256.382 35.6763L262.591 47.2954L256.591 53.2954L247.774 36.7954L253.774 30.7954L256.382 35.6763Z" fill="#9C0101" stroke="#9C0101" stroke-width="1.5" stroke-linejoin="round"/>
<path fill-rule="evenodd" clip-rule="evenodd" d="M262.591 47.2954H273.454L267.454 53.2954H256.591L262.591 47.2954Z" fill="#9C0101" stroke="#9C0101" stroke-width="1.5" stroke-linejoin="round"/>
<path fill-rule="evenodd" clip-rule="evenodd" d="M184.75 16.9319L190.75 10.9319H204.75L198.75 16.9319H184.75Z" fill="#9C0101"/>
<path fill-rule="evenodd" clip-rule="evenodd" d="M184.75 16.9319L190.75 10.9319H204.75L198.75 16.9319H184.75Z" stroke="#9C0101" stroke-width="1.5" stroke-linejoin="round"/>
<path fill-rule="evenodd" clip-rule="evenodd" d="M217.205 10.9319H231.205L225.205 16.9319H217.205V10.9319Z" fill="#9C0101"/>
<path fill-rule="evenodd" clip-rule="evenodd" d="M217.205 10.9319H231.205L225.205 16.9319H217.205V10.9319Z" stroke="#9C0101" stroke-width="1.5" stroke-linejoin="round"/>
<path fill-rule="evenodd" clip-rule="evenodd" d="M211.205 47.2954H217.205L211.205 53.2954H198.75L204.75 47.2954H211.205Z" fill="#9C0101"/>
<path fill-rule="evenodd" clip-rule="evenodd" d="M211.205 47.2954H217.205L211.205 53.2954H198.75L204.75 47.2954H211.205Z" stroke="#9C0101" stroke-width="1.5" stroke-linejoin="round"/>
<path fill-rule="evenodd" clip-rule="evenodd" d="M204.75 10.9319V47.2955L198.75 53.2955V16.9319L204.75 10.9319Z" fill="#9C0101" stroke="#9C0101" stroke-width="1.5" stroke-linejoin="round"/>
<path fill-rule="evenodd" clip-rule="evenodd" d="M184.75 16.9318V6.75L190.75 0.75V10.9318L184.75 16.9318Z" fill="#9C0101" stroke="#9C0101" stroke-width="1.5" stroke-linejoin="round"/>
<path fill-rule="evenodd" clip-rule="evenodd" d="M190.75 10.9318V0.75H231.205V10.9318H217.205V16.9318V47.2955H211.205H204.75V10.9318H190.75Z" fill="white"/>
<path fill-rule="evenodd" clip-rule="evenodd" d="M190.75 10.9318V0.75H231.205V10.9318H217.205V16.9318V47.2955H211.205H204.75V10.9318H190.75Z" stroke="#9C0101" stroke-width="1.5" stroke-linejoin="round"/>
<path d="M188.636 17.6818H178.682C178.5 16.3939 178.129 15.25 177.568 14.25C177.008 13.2348 176.288 12.3712 175.409 11.6591C174.53 10.947 173.515 10.4015 172.364 10.0227C171.227 9.64394 169.992 9.45455 168.659 9.45455C166.25 9.45455 164.152 10.053 162.364 11.25C160.576 12.4318 159.189 14.1591 158.205 16.4318C157.22 18.6894 156.727 21.4318 156.727 24.6591C156.727 27.9773 157.22 30.7652 158.205 33.0227C159.205 35.2803 160.598 36.9848 162.386 38.1364C164.174 39.2879 166.242 39.8636 168.591 39.8636C169.909 39.8636 171.129 39.6894 172.25 39.3409C173.386 38.9924 174.394 38.4849 175.273 37.8182C176.152 37.1364 176.879 36.3106 177.455 35.3409C178.045 34.3712 178.455 33.2652 178.682 32.0227L188.636 32.0682C188.379 34.2045 187.735 36.2652 186.705 38.25C185.689 40.2197 184.318 41.9848 182.591 43.5455C180.879 45.0909 178.833 46.3182 176.455 47.2273C174.091 48.1212 171.417 48.5682 168.432 48.5682C164.28 48.5682 160.568 47.6288 157.295 45.75C154.038 43.8712 151.462 41.1515 149.568 37.5909C147.689 34.0303 146.75 29.7197 146.75 24.6591C146.75 19.5833 147.705 15.2652 149.614 11.7045C151.523 8.14394 154.114 5.43182 157.386 3.56818C160.659 1.68939 164.341 0.75 168.432 0.75C171.129 0.75 173.629 1.12879 175.932 1.88636C178.25 2.64394 180.303 3.75 182.091 5.20454C183.879 6.64394 185.333 8.40909 186.455 10.5C187.591 12.5909 188.318 14.9848 188.636 17.6818Z" fill="white" stroke="#9C0101" stroke-width="1.5" stroke-linejoin="round"/>
<path fill-rule="evenodd" clip-rule="evenodd" d="M171.568 20.25C172.129 21.25 172.5 22.394 172.682 23.6819L178.682 17.6819C178.5 16.394 178.129 15.25 177.568 14.25C177.008 13.2349 176.288 12.3713 175.409 11.6591C174.53 10.947 173.515 10.4016 172.364 10.0228C171.227 9.64398 169.992 9.45459 168.659 9.45459C166.25 9.45459 164.152 10.0531 162.364 11.25C160.627 12.3982 159.269 14.0611 158.29 16.2387C159.611 15.716 161.067 15.4546 162.659 15.4546C163.992 15.4546 165.227 15.644 166.364 16.0228C167.515 16.4016 168.53 16.947 169.409 17.6591C170.288 18.3713 171.008 19.2349 171.568 20.25Z" fill="#9C0101" stroke="#9C0101" stroke-width="1.5" stroke-linejoin="round"/>
<path d="M178.682 17.6816H181.039H188.636L182.636 23.6816H172.682L178.682 17.6816Z" fill="#9C0101" stroke="#9C0101" stroke-width="1.5" stroke-linejoin="round"/>
<path d="M174.977 38.0329C174.202 38.5728 173.332 38.9964 172.368 39.3037C172.496 38.8941 172.601 38.467 172.682 38.0225L178.682 32.0225C178.455 33.2649 178.046 34.3709 177.455 35.3406C176.879 36.3103 176.152 37.1361 175.273 37.8179C175.176 37.8915 175.077 37.9632 174.977 38.0329Z" fill="#9C0101" stroke="#9C0101" stroke-width="1.5" stroke-linejoin="round"/>
<path d="M176.455 47.2274C177.735 46.738 178.919 46.1564 180.006 45.4826C179.088 46.9635 177.95 48.3178 176.591 49.5455C174.879 51.0909 172.833 52.3182 170.455 53.2274C168.091 54.1213 165.417 54.5682 162.432 54.5682C158.28 54.5682 154.568 53.6288 151.295 51.7501C148.038 49.8713 145.462 47.1516 143.568 43.591C141.689 40.0304 140.75 35.7198 140.75 30.6592C140.75 25.5834 141.705 21.2652 143.614 17.7046C145.366 14.4371 147.692 11.8841 150.592 10.0457C150.248 10.5765 149.922 11.1295 149.614 11.7046C147.705 15.2652 146.75 19.5834 146.75 24.6592C146.75 29.7198 147.689 34.0304 149.568 37.591C151.462 41.1516 154.038 43.8713 157.295 45.7501C160.568 47.6288 164.28 48.5682 168.432 48.5682C171.417 48.5682 174.091 48.1213 176.455 47.2274Z" fill="#9C0101" stroke="#9C0101" stroke-width="1.5" stroke-linejoin="round"/>
<path d="M122.591 34.0681H136.5L142.5 28.0682L122.591 28.0681V34.0681Z" fill="#9C0101" stroke="#9C0101" stroke-width="1.5" stroke-linejoin="round"/>
<path d="M138.114 14.8636L144.114 8.86365H122.591V14.8636H138.114Z" fill="#9C0101" stroke="#9C0101" stroke-width="1.5" stroke-linejoin="round"/>
<path d="M106.75 53.2954L112.75 47.2954H144.205L138.205 53.2954H106.75Z" fill="#9C0101" stroke="#9C0101" stroke-width="1.5" stroke-linejoin="round"/>
<path d="M112.75 47.2955V0.75H144.114V8.86365H122.591V19.9546H142.5V28.0682L136.5 28.0682H122.591V39.1818H144.205V47.2954L112.75 47.2955Z" fill="white" stroke="#9C0101" stroke-width="1.5" stroke-linejoin="round"/>
<path fill-rule="evenodd" clip-rule="evenodd" d="M106.75 6.75L112.75 0.75V47.2955L106.75 53.2955V6.75Z" fill="#9C0101" stroke="#9C0101" stroke-width="1.5" stroke-linejoin="round"/>
<path fill-rule="evenodd" clip-rule="evenodd" d="M63.75 53.2955V6.75L69.75 0.75V47.2955L63.75 53.2955Z" fill="#9C0101" stroke="#9C0101" stroke-width="1.5" stroke-linejoin="round"/>
<path fill-rule="evenodd" clip-rule="evenodd" d="M69.75 47.2955V0.75H88.1136C91.6288 0.75 94.6288 1.37879 97.1136 2.63636C99.6136 3.87879 101.515 5.64394 102.818 7.93182C104.136 10.2045 104.795 12.8788 104.795 15.9545C104.795 19.0455 104.129 21.7045 102.795 23.9318C101.462 26.1439 99.5303 27.8409 97 29.0227C96.8613 29.0879 96.7209 29.1513 96.579 29.2129L106.455 47.2955H95.5909L89.3824 35.6764L86.7744 30.7955H79.5909V36.7955V47.2955H69.75ZM90.9545 22.1136C92.197 21.5985 93.1212 20.8258 93.7273 19.7955C94.3485 18.7652 94.6591 17.4848 94.6591 15.9545C94.6591 14.4091 94.3485 13.1061 93.7273 12.0455C93.1212 10.9848 92.1894 10.1818 90.9318 9.63636C89.6894 9.07576 88.1212 8.79546 86.2273 8.79546H79.5909V14.7955V22.8864H86.2727C87.1242 22.8864 87.9103 22.8335 88.6311 22.7276C89.5007 22.6 90.2752 22.3953 90.9545 22.1136Z" fill="white" stroke="#9C0101" stroke-width="1.5" stroke-linejoin="round"/>
<path fill-rule="evenodd" clip-rule="evenodd" d="M93.7272 19.7954C93.1211 20.8257 92.1969 21.5984 90.9545 22.1136C90.2751 22.3953 89.5006 22.5999 88.631 22.7276C88.6497 22.4774 88.659 22.2197 88.659 21.9545C88.659 20.409 88.3484 19.106 87.7272 18.0454C87.1211 16.9848 86.1893 16.1818 84.9317 15.6363C83.6893 15.0757 82.1211 14.7954 80.2272 14.7954H79.5908V8.79541H86.2272C88.1211 8.79541 89.6893 9.07571 90.9317 9.63632C92.1893 10.1818 93.1211 10.9848 93.7272 12.0454C94.3484 13.106 94.659 14.409 94.659 15.9545C94.659 17.4848 94.3484 18.7651 93.7272 19.7954Z" fill="#9C0101" stroke="#9C0101" stroke-width="1.5" stroke-linejoin="round"/>
<path fill-rule="evenodd" clip-rule="evenodd" d="M79.5908 30.7954H86.7743L80.7743 36.7954H79.5908V30.7954Z" fill="#9C0101" stroke="#9C0101" stroke-width="1.5" stroke-linejoin="round"/>
<path fill-rule="evenodd" clip-rule="evenodd" d="M63.75 53.2954L69.75 47.2954H79.5909L73.5909 53.2954H63.75Z" fill="#9C0101" stroke="#9C0101" stroke-width="1.5" stroke-linejoin="round"/>
<path fill-rule="evenodd" clip-rule="evenodd" d="M89.3825 35.6763L95.5909 47.2954L89.5909 53.2954L80.7744 36.7954L86.7744 30.7954L89.3825 35.6763Z" fill="#9C0101" stroke="#9C0101" stroke-width="1.5" stroke-linejoin="round"/>
<path fill-rule="evenodd" clip-rule="evenodd" d="M95.5908 47.2954H106.454L100.454 53.2954H89.5908L95.5908 47.2954Z" fill="#9C0101" stroke="#9C0101" stroke-width="1.5" stroke-linejoin="round"/>
<path fill-rule="evenodd" clip-rule="evenodd" d="M51.75 47.2954H55.5909H61.5909L55.5909 53.2954H45.75L51.75 47.2954Z" fill="#9C0101" stroke="#9C0101" stroke-width="1.5" stroke-linejoin="round"/>
<path fill-rule="evenodd" clip-rule="evenodd" d="M55.5909 47.2955H51.75V6.75V0.75H61.5909V47.2955H55.5909Z" fill="white" stroke="#9C0101" stroke-width="1.5" stroke-linejoin="round"/>
<path fill-rule="evenodd" clip-rule="evenodd" d="M51.75 47.2954L45.75 53.2954V6.75L51.75 0.75V6.75V47.2954Z" fill="#9C0101" stroke="#9C0101" stroke-width="1.5" stroke-linejoin="round"/>
<path fill-rule="evenodd" clip-rule="evenodd" d="M6.75 0.75V6.75V47.2954L0.75 53.2954V6.75L6.75 0.75Z" fill="#9C0101" stroke="#9C0101" stroke-width="1.5" stroke-linejoin="round"/>
<path fill-rule="evenodd" clip-rule="evenodd" d="M16.8635 15.1819H16.5908V9.18188H22.8635C25.7726 9.18188 28.2196 9.69702 30.2045 10.7274C32.1893 11.7576 33.6817 13.3637 34.6817 15.5455C35.6969 17.7274 36.2045 20.538 36.2045 23.9774C36.2045 27.447 35.6969 30.2803 34.6817 32.4774C33.6817 34.6592 32.1817 36.2728 30.1817 37.3182C29.7868 37.5233 29.3736 37.7078 28.9422 37.872C29.7837 35.768 30.2045 33.1364 30.2045 29.9774C30.2045 26.538 29.6969 23.7274 28.6817 21.5455C27.6817 19.3637 26.1893 17.7576 24.2045 16.7274C22.2196 15.697 19.7726 15.1819 16.8635 15.1819Z" fill="#9C0101" stroke="#9C0101" stroke-width="1.5" stroke-linejoin="round"/>
<path fill-rule="evenodd" clip-rule="evenodd" d="M17.25 53.2954H0.75L6.75 47.2954H23.25C27.9773 47.2954 32.0379 46.3636 35.4318 44.5C35.7825 44.3083 36.1248 44.108 36.4586 43.8992C34.7039 46.6981 32.3616 48.8984 29.4318 50.5C26.0379 52.3636 21.9773 53.2954 17.25 53.2954Z" fill="#9C0101" stroke="#9C0101" stroke-width="1.5" stroke-linejoin="round"/>
<path fill-rule="evenodd" clip-rule="evenodd" d="M23.25 47.2954H6.75V6.75V0.75H23.3864C28.0682 0.75 32.0985 1.68182 35.4773 3.54547C38.8561 5.39392 41.4545 8.05304 43.2727 11.5227C45.1061 14.9924 46.0227 19.1439 46.0227 23.9773C46.0227 28.8257 45.1061 32.9924 43.2727 36.4773C41.6416 39.6036 39.3702 42.0776 36.4586 43.8992C36.1248 44.108 35.7825 44.3083 35.4318 44.5C32.0379 46.3636 27.9773 47.2954 23.25 47.2954ZM16.5909 38.8636H22.8409C25.1712 38.8636 27.205 38.5331 28.9422 37.8719C29.3737 37.7078 29.7869 37.5232 30.1818 37.3182C32.1818 36.2727 33.6818 34.6591 34.6818 32.4773C35.697 30.2803 36.2045 27.447 36.2045 23.9773C36.2045 20.5379 35.697 17.7273 34.6818 15.5455C33.6818 13.3636 32.1894 11.7576 30.2045 10.7273C28.2197 9.69696 25.7727 9.18182 22.8636 9.18182H16.5909V15.1818V38.8636Z" fill="white" stroke="#9C0101" stroke-width="1.5" stroke-linejoin="round"/>
</svg>
