<svg width="361" height="57" viewBox="0 0 361 57" fill="none" xmlns="http://www.w3.org/2000/svg">
<path fill-rule="evenodd" clip-rule="evenodd" d="M185 18.2177L191 12.2177H205L199 18.2177H185Z" fill="#9C0101"/>
<path fill-rule="evenodd" clip-rule="evenodd" d="M185 18.2177L191 12.2177H205L199 18.2177H185Z" stroke="#9C0101" stroke-width="2" stroke-linejoin="round"/>
<path fill-rule="evenodd" clip-rule="evenodd" d="M217.455 12.2177H231.455L225.455 18.2177H217.455V12.2177Z" fill="#9C0101"/>
<path fill-rule="evenodd" clip-rule="evenodd" d="M217.455 12.2177H231.455L225.455 18.2177H217.455V12.2177Z" stroke="#9C0101" stroke-width="2" stroke-linejoin="round"/>
<path fill-rule="evenodd" clip-rule="evenodd" d="M211.455 48.5812H217.455L211.455 54.5812H199L205 48.5812H211.455Z" fill="#9C0101"/>
<path fill-rule="evenodd" clip-rule="evenodd" d="M211.455 48.5812H217.455L211.455 54.5812H199L205 48.5812H211.455Z" stroke="#9C0101" stroke-width="2" stroke-linejoin="round"/>
<path fill-rule="evenodd" clip-rule="evenodd" d="M205 12.2177V48.5813L199 54.5813V18.2177L205 12.2177Z" fill="#9C0101" stroke="#9C0101" stroke-width="2" stroke-linejoin="round"/>
<path fill-rule="evenodd" clip-rule="evenodd" d="M185 18.2176V8.03577L191 2.03577V12.2176L185 18.2176Z" fill="#9C0101" stroke="#9C0101" stroke-width="2" stroke-linejoin="round"/>
<path fill-rule="evenodd" clip-rule="evenodd" d="M191 12.2176V2.03577H231.455V12.2176H217.455V18.2176V48.5812H211.455H205V12.2176H191Z" fill="white"/>
<path fill-rule="evenodd" clip-rule="evenodd" d="M191 12.2176V2.03577H231.455V12.2176H217.455V18.2176V48.5812H211.455H205V12.2176H191Z" stroke="#9C0101" stroke-width="2" stroke-linejoin="round"/>
<path d="M188.886 18.9676H178.932C178.75 17.6797 178.379 16.5358 177.818 15.5358C177.258 14.5206 176.538 13.657 175.659 12.9449C174.78 12.2327 173.765 11.6873 172.614 11.3085C171.477 10.9297 170.242 10.7403 168.909 10.7403C166.5 10.7403 164.402 11.3388 162.614 12.5358C160.826 13.7176 159.439 15.4449 158.455 17.7176C157.47 19.9752 156.977 22.7176 156.977 25.9449C156.977 29.263 157.47 32.0509 158.455 34.3085C159.455 36.5661 160.848 38.2706 162.636 39.4221C164.424 40.5736 166.492 41.1494 168.841 41.1494C170.159 41.1494 171.379 40.9752 172.5 40.6267C173.636 40.2782 174.644 39.7706 175.523 39.104C176.402 38.4221 177.129 37.5964 177.705 36.6267C178.295 35.657 178.705 34.5509 178.932 33.3085L188.886 33.354C188.629 35.4903 187.985 37.5509 186.955 39.5358C185.939 41.5055 184.568 43.2706 182.841 44.8312C181.129 46.3767 179.083 47.604 176.705 48.513C174.341 49.407 171.667 49.854 168.682 49.854C164.53 49.854 160.818 48.9146 157.545 47.0358C154.288 45.157 151.712 42.4373 149.818 38.8767C147.939 35.3161 147 31.0055 147 25.9449C147 20.8691 147.955 16.5509 149.864 12.9903C151.773 9.42971 154.364 6.71759 157.636 4.85395C160.909 2.97516 164.591 2.03577 168.682 2.03577C171.379 2.03577 173.879 2.41455 176.182 3.17213C178.5 3.92971 180.553 5.03577 182.341 6.49031C184.129 7.92971 185.583 9.69486 186.705 11.7858C187.841 13.8767 188.568 16.2706 188.886 18.9676Z" fill="white" stroke="#9C0101" stroke-width="2" stroke-linejoin="round"/>
<path fill-rule="evenodd" clip-rule="evenodd" d="M171.818 21.5358C172.379 22.5358 172.75 23.6797 172.932 24.9676L178.932 18.9676C178.75 17.6797 178.379 16.5358 177.818 15.5358C177.258 14.5207 176.538 13.657 175.659 12.9449C174.78 12.2328 173.765 11.6873 172.614 11.3085C171.477 10.9297 170.242 10.7404 168.909 10.7404C166.5 10.7404 164.402 11.3388 162.614 12.5358C160.877 13.6839 159.519 15.3468 158.54 17.5245C159.861 17.0017 161.317 16.7404 162.909 16.7404C164.242 16.7404 165.477 16.9297 166.614 17.3085C167.765 17.6873 168.78 18.2328 169.659 18.9449C170.538 19.657 171.258 20.5207 171.818 21.5358Z" fill="#9C0101" stroke="#9C0101" stroke-width="2" stroke-linejoin="round"/>
<path d="M178.932 18.9674H181.289H188.886L182.886 24.9674H172.932L178.932 18.9674Z" fill="#9C0101" stroke="#9C0101" stroke-width="2" stroke-linejoin="round"/>
<path d="M175.227 39.3187C174.452 39.8586 173.582 40.2822 172.618 40.5895C172.746 40.1799 172.851 39.7528 172.932 39.3082L178.932 33.3082C178.705 34.5507 178.296 35.6567 177.705 36.6264C177.129 37.5961 176.402 38.4219 175.523 39.1037C175.426 39.1773 175.327 39.249 175.227 39.3187Z" fill="#9C0101" stroke="#9C0101" stroke-width="2" stroke-linejoin="round"/>
<path d="M176.705 48.5131C177.985 48.0237 179.169 47.4421 180.256 46.7684C179.338 48.2493 178.2 49.6036 176.841 50.8313C175.129 52.3767 173.083 53.604 170.705 54.5131C168.341 55.407 165.667 55.854 162.682 55.854C158.53 55.854 154.818 54.9146 151.545 53.0358C148.288 51.157 145.712 48.4373 143.818 44.8768C141.939 41.3162 141 37.0056 141 31.9449C141 26.8691 141.955 22.551 143.864 18.9904C145.616 15.7228 147.942 13.1699 150.842 11.3314C150.498 11.8622 150.172 12.4152 149.864 12.9904C147.955 16.551 147 20.8691 147 25.9449C147 31.0056 147.939 35.3162 149.818 38.8768C151.712 42.4373 154.288 45.157 157.545 47.0358C160.818 48.9146 164.53 49.854 168.682 49.854C171.667 49.854 174.341 49.407 176.705 48.5131Z" fill="#9C0101" stroke="#9C0101" stroke-width="2" stroke-linejoin="round"/>
<path d="M122.841 35.3539H136.75L142.75 29.3539L122.841 29.3539V35.3539Z" fill="#9C0101" stroke="#9C0101" stroke-width="2" stroke-linejoin="round"/>
<path d="M138.364 16.1494L144.364 10.1494H122.841V16.1494H138.364Z" fill="#9C0101" stroke="#9C0101" stroke-width="2" stroke-linejoin="round"/>
<path d="M107 54.5812L113 48.5812H144.455L138.455 54.5812H107Z" fill="#9C0101" stroke="#9C0101" stroke-width="2" stroke-linejoin="round"/>
<path d="M113 48.5812V2.03577H144.364V10.1494H122.841V21.2404H142.75V29.354L136.75 29.3539H122.841V40.4675H144.455V48.5812L113 48.5812Z" fill="white" stroke="#9C0101" stroke-width="2" stroke-linejoin="round"/>
<path fill-rule="evenodd" clip-rule="evenodd" d="M107 8.03577L113 2.03577V48.5812L107 54.5812V8.03577Z" fill="#9C0101" stroke="#9C0101" stroke-width="2" stroke-linejoin="round"/>
<path fill-rule="evenodd" clip-rule="evenodd" d="M64 54.5812V8.03577L70 2.03577V48.5812L64 54.5812Z" fill="#9C0101" stroke="#9C0101" stroke-width="2" stroke-linejoin="round"/>
<path fill-rule="evenodd" clip-rule="evenodd" d="M70 48.5812V2.03577H88.3636C91.8788 2.03577 94.8788 2.66455 97.3636 3.92213C99.8636 5.16455 101.765 6.92971 103.068 9.21759C104.386 11.4903 105.045 14.1646 105.045 17.2403C105.045 20.3312 104.379 22.9903 103.045 25.2176C101.712 27.4297 99.7803 29.1267 97.25 30.3085C97.1113 30.3737 96.9709 30.4371 96.829 30.4987L106.705 48.5812H95.8409L89.6324 36.9621L87.0244 32.0812H79.8409V38.0812V48.5812H70ZM91.2045 23.3994C92.447 22.8843 93.3712 22.1115 93.9773 21.0812C94.5985 20.0509 94.9091 18.7706 94.9091 17.2403C94.9091 15.6949 94.5985 14.3918 93.9773 13.3312C93.3712 12.2706 92.4394 11.4676 91.1818 10.9221C89.9394 10.3615 88.3712 10.0812 86.4773 10.0812H79.8409V16.0812V24.1721H86.5227C87.3742 24.1721 88.1603 24.1192 88.8811 24.0134C89.7507 23.8858 90.5252 23.6811 91.2045 23.3994Z" fill="white" stroke="#9C0101" stroke-width="2" stroke-linejoin="round"/>
<path fill-rule="evenodd" clip-rule="evenodd" d="M93.9772 21.0812C93.3711 22.1115 92.4469 22.8842 91.2045 23.3994C90.5251 23.681 89.7506 23.8857 88.881 24.0134C88.8997 23.7632 88.909 23.5055 88.909 23.2403C88.909 21.6948 88.5984 20.3918 87.9772 19.3312C87.3711 18.2706 86.4393 17.4675 85.1817 16.9221C83.9393 16.3615 82.3711 16.0812 80.4772 16.0812H79.8408V10.0812H86.4772C88.3711 10.0812 89.9393 10.3615 91.1817 10.9221C92.4393 11.4675 93.3711 12.2706 93.9772 13.3312C94.5984 14.3918 94.909 15.6948 94.909 17.2403C94.909 18.7706 94.5984 20.0509 93.9772 21.0812Z" fill="#9C0101" stroke="#9C0101" stroke-width="2" stroke-linejoin="round"/>
<path fill-rule="evenodd" clip-rule="evenodd" d="M79.8408 32.0812H87.0243L81.0243 38.0812H79.8408V32.0812Z" fill="#9C0101" stroke="#9C0101" stroke-width="2" stroke-linejoin="round"/>
<path fill-rule="evenodd" clip-rule="evenodd" d="M64 54.5812L70 48.5812H79.8409L73.8409 54.5812H64Z" fill="#9C0101" stroke="#9C0101" stroke-width="2" stroke-linejoin="round"/>
<path fill-rule="evenodd" clip-rule="evenodd" d="M89.6325 36.9621L95.8409 48.5812L89.8409 54.5812L81.0244 38.0812L87.0244 32.0812L89.6325 36.9621Z" fill="#9C0101" stroke="#9C0101" stroke-width="2" stroke-linejoin="round"/>
<path fill-rule="evenodd" clip-rule="evenodd" d="M95.8408 48.5812H106.704L100.704 54.5812H89.8408L95.8408 48.5812Z" fill="#9C0101" stroke="#9C0101" stroke-width="2" stroke-linejoin="round"/>
<path d="M326.841 38.1266V54.5811L332.841 48.5811V32.1266L326.841 38.1266Z" fill="#9C0101" stroke="#9C0101" stroke-width="2" stroke-linejoin="round"/>
<path d="M326.841 54.5812H336.614L342.614 48.5812H332.841L326.841 54.5812Z" fill="#9C0101" stroke="#9C0101" stroke-width="2" stroke-linejoin="round"/>
<path d="M309.864 8.03577L326.841 38.1267L332.841 32.1267L315.864 2.03577L309.864 8.03577Z" fill="#9C0101" stroke="#9C0101" stroke-width="2" stroke-linejoin="round"/>
<path d="M315.864 2.03577H326.886L337.5 22.0812H337.954L348.568 2.03577H359.591L342.614 32.1267V48.5812H332.841V32.1267L315.864 2.03577Z" fill="white" stroke="#9C0101" stroke-width="2" stroke-linejoin="round"/>
<path fill-rule="evenodd" clip-rule="evenodd" d="M342.568 8.03577L336.316 19.8445L337.5 22.0812H337.955L348.568 2.03577L342.568 8.03577Z" fill="#9C0101" stroke="#9C0101" stroke-width="2" stroke-linejoin="round"/>
<path fill-rule="evenodd" clip-rule="evenodd" d="M273.647 54.5812V8.03577L279.647 2.03577V48.5812L273.647 54.5812Z" fill="#9C0101" stroke="#9C0101" stroke-width="2" stroke-linejoin="round"/>
<path fill-rule="evenodd" clip-rule="evenodd" d="M279.647 48.5812V2.03577H298.011C301.526 2.03577 304.526 2.66455 307.011 3.92213C309.511 5.16455 311.413 6.92971 312.716 9.21759C314.034 11.4903 314.693 14.1646 314.693 17.2403C314.693 20.3312 314.026 22.9903 312.693 25.2176C311.36 27.4297 309.428 29.1267 306.897 30.3085C306.759 30.3737 306.618 30.4371 306.476 30.4987L316.352 48.5812H305.488L299.28 36.9621L296.672 32.0812H289.488V38.0812V48.5812H279.647ZM300.852 23.3994C302.094 22.8843 303.019 22.1115 303.625 21.0812C304.246 20.0509 304.557 18.7706 304.557 17.2403C304.557 15.6949 304.246 14.3918 303.625 13.3312C303.019 12.2706 302.087 11.4676 300.829 10.9221C299.587 10.3615 298.019 10.0812 296.125 10.0812H289.488V16.0812V24.1721H296.17C297.022 24.1721 297.808 24.1192 298.529 24.0134C299.398 23.8858 300.173 23.6811 300.852 23.3994Z" fill="white" stroke="#9C0101" stroke-width="2" stroke-linejoin="round"/>
<path fill-rule="evenodd" clip-rule="evenodd" d="M303.625 21.0812C303.019 22.1115 302.094 22.8842 300.852 23.3994C300.173 23.681 299.398 23.8857 298.528 24.0134C298.547 23.7632 298.556 23.5055 298.556 23.2403C298.556 21.6948 298.246 20.3918 297.625 19.3312C297.019 18.2706 296.087 17.4675 294.829 16.9221C293.587 16.3615 292.019 16.0812 290.125 16.0812H289.488V10.0812H296.125C298.019 10.0812 299.587 10.3615 300.829 10.9221C302.087 11.4675 303.019 12.2706 303.625 13.3312C304.246 14.3918 304.556 15.6948 304.556 17.2403C304.556 18.7706 304.246 20.0509 303.625 21.0812Z" fill="#9C0101" stroke="#9C0101" stroke-width="2" stroke-linejoin="round"/>
<path fill-rule="evenodd" clip-rule="evenodd" d="M289.488 32.0812H296.672L290.672 38.0812H289.488V32.0812Z" fill="#9C0101" stroke="#9C0101" stroke-width="2" stroke-linejoin="round"/>
<path fill-rule="evenodd" clip-rule="evenodd" d="M273.647 54.5812L279.647 48.5812H289.488L283.488 54.5812H273.647Z" fill="#9C0101" stroke="#9C0101" stroke-width="2" stroke-linejoin="round"/>
<path fill-rule="evenodd" clip-rule="evenodd" d="M299.28 36.9621L305.488 48.5812L299.488 54.5812L290.672 38.0812L296.672 32.0812L299.28 36.9621Z" fill="#9C0101" stroke="#9C0101" stroke-width="2" stroke-linejoin="round"/>
<path fill-rule="evenodd" clip-rule="evenodd" d="M305.488 48.5812H316.352L310.352 54.5812H299.488L305.488 48.5812Z" fill="#9C0101" stroke="#9C0101" stroke-width="2" stroke-linejoin="round"/>
<path d="M274.248 24.9091C274.248 29.9848 273.286 34.303 271.361 37.8636C269.452 41.4242 266.846 44.1439 263.543 46.0227C260.255 47.8864 256.558 48.8182 252.452 48.8182C248.316 48.8182 244.604 47.8788 241.316 46C238.028 44.1212 235.429 41.4015 233.52 37.8409C231.611 34.2803 230.657 29.9697 230.657 24.9091C230.657 19.8333 231.611 15.5152 233.52 11.9545C235.429 8.39394 238.028 5.68182 241.316 3.81818C244.604 1.93939 248.316 1 252.452 1C256.558 1 260.255 1.93939 263.543 3.81818C266.846 5.68182 269.452 8.39394 271.361 11.9545C273.286 15.5152 274.248 19.8333 274.248 24.9091ZM264.27 24.9091C264.27 21.6212 263.778 18.8485 262.793 16.5909C261.823 14.3333 260.452 12.6212 258.68 11.4545C256.907 10.2879 254.831 9.70455 252.452 9.70455C250.073 9.70455 247.998 10.2879 246.225 11.4545C244.452 12.6212 243.073 14.3333 242.089 16.5909C241.119 18.8485 240.634 21.6212 240.634 24.9091C240.634 28.197 241.119 30.9697 242.089 33.2273C243.073 35.4848 244.452 37.197 246.225 38.3636C247.998 39.5303 250.073 40.1136 252.452 40.1136C254.831 40.1136 256.907 39.5303 258.68 38.3636C260.452 37.197 261.823 35.4848 262.793 33.2273C263.778 30.9697 264.27 28.197 264.27 24.9091Z" fill="white" stroke="#9C0101" stroke-width="2" stroke-linejoin="round"/>
<path d="M256.793 39.2274C256.774 39.2731 256.754 39.3187 256.734 39.3641C257.419 39.1003 258.067 38.7668 258.68 38.3637C260.452 37.197 261.824 35.4849 262.793 33.2274C263.778 30.9698 264.271 28.197 264.271 24.9092C264.271 21.6213 263.778 18.8486 262.793 16.5909C261.824 14.3334 260.452 12.6213 258.68 11.4546C256.907 10.288 254.831 9.70459 252.452 9.70459C250.074 9.70459 247.998 10.288 246.225 11.4546C244.486 12.5994 243.125 14.2693 242.145 16.4645C243.449 15.9579 244.885 15.7046 246.452 15.7046C248.831 15.7046 250.907 16.288 252.68 17.4546C254.452 18.6213 255.824 20.3334 256.793 22.5909C257.778 24.8486 258.271 27.6213 258.271 30.9092C258.271 34.197 257.778 36.9698 256.793 39.2274Z" fill="#9C0101" stroke="#9C0101" stroke-width="2" stroke-linejoin="round"/>
<path d="M256.793 39.2274C256.773 39.2731 256.754 39.3187 256.734 39.3641C257.418 39.1003 258.067 38.7668 258.68 38.3637C260.452 37.197 261.823 35.4849 262.793 33.2274C263.778 30.9698 264.27 28.197 264.27 24.9092C264.27 21.6213 263.778 18.8486 262.793 16.5909C261.823 14.3334 260.452 12.6213 258.68 11.4546C256.907 10.288 254.831 9.70459 252.452 9.70459C250.074 9.70459 247.998 10.288 246.225 11.4546C244.486 12.5994 243.125 14.2693 242.144 16.4645L242.121 16.5179L242.089 16.5909" stroke="#9C0101" stroke-width="2" stroke-linejoin="round"/>
<path d="M237.125 7.02032C237.134 7.01159 237.148 7.00872 237.157 7" stroke="#9C0101" stroke-width="2" stroke-linejoin="round"/>
<path d="M237.157 7L237.125 7.02032C236.152 8.00323 235.272 9.10168 234.487 10.3156C234.147 10.8403 233.825 11.3866 233.521 11.9545" stroke="#9C0101" stroke-width="2" stroke-linejoin="round"/>
<path fill-rule="evenodd" clip-rule="evenodd" d="M264.216 45.6219C264.274 45.5864 264.331 45.5506 264.387 45.5145C262.597 48.2764 260.315 50.4457 257.543 52.0226C254.255 53.8863 250.558 54.8181 246.452 54.8181C242.316 54.8181 238.604 53.8787 235.316 51.9999C232.028 50.1212 229.429 47.4014 227.52 43.8409C225.611 40.2803 224.657 35.9697 224.657 30.9091C224.657 25.8333 225.611 21.5151 227.52 17.9545C229.26 14.7106 234.222 8.8797 237.125 7.02026C236.152 8.00317 235.272 9.10162 234.487 10.3156C234.147 10.8403 233.825 11.3865 233.52 11.9545C231.611 15.5151 230.657 19.8333 230.657 24.9091C230.657 29.9697 231.611 34.2803 233.52 37.8409C235.429 41.4014 238.028 44.1212 241.316 45.9999C244.604 47.8787 248.316 48.8181 252.452 48.8181C256.558 48.8181 260.255 47.8863 263.543 46.0226C263.698 45.9346 263.851 45.8447 264.003 45.753C264.074 45.7097 264.146 45.666 264.216 45.6219Z" fill="#9C0101" stroke="#9C0101" stroke-width="2" stroke-linejoin="round"/>
<path fill-rule="evenodd" clip-rule="evenodd" d="M52 48.5812H55.8409H61.8409L55.8409 54.5812H46L52 48.5812Z" fill="#9C0101" stroke="#9C0101" stroke-width="2" stroke-linejoin="round"/>
<path fill-rule="evenodd" clip-rule="evenodd" d="M55.8409 48.5812H52V8.03577V2.03577H61.8409V48.5812H55.8409Z" fill="white" stroke="#9C0101" stroke-width="2" stroke-linejoin="round"/>
<path fill-rule="evenodd" clip-rule="evenodd" d="M52 48.5812L46 54.5812V8.03577L52 2.03577V8.03577V48.5812Z" fill="#9C0101" stroke="#9C0101" stroke-width="2" stroke-linejoin="round"/>
<path fill-rule="evenodd" clip-rule="evenodd" d="M7 2.03577V8.03577V48.5812L1 54.5812V8.03577L7 2.03577Z" fill="#9C0101" stroke="#9C0101" stroke-width="2" stroke-linejoin="round"/>
<path fill-rule="evenodd" clip-rule="evenodd" d="M17.1135 16.4677H16.8408V10.4677H23.1135C26.0226 10.4677 28.4696 10.9828 30.4545 12.0131C32.4393 13.0434 33.9317 14.6495 34.9317 16.8313C35.9469 19.0131 36.4545 21.8237 36.4545 25.2631C36.4545 28.7328 35.9469 31.5661 34.9317 33.7631C33.9317 35.9449 32.4317 37.5585 30.4317 38.604C30.0368 38.809 29.6236 38.9936 29.1922 39.1578C30.0337 37.0538 30.4545 34.4222 30.4545 31.2631C30.4545 27.8237 29.9469 25.0131 28.9317 22.8313C27.9317 20.6495 26.4393 19.0434 24.4545 18.0131C22.4696 16.9828 20.0226 16.4677 17.1135 16.4677Z" fill="#9C0101" stroke="#9C0101" stroke-width="2" stroke-linejoin="round"/>
<path fill-rule="evenodd" clip-rule="evenodd" d="M17.5 54.5812H1L7 48.5812H23.5C28.2273 48.5812 32.2879 47.6494 35.6818 45.7858C36.0325 45.5941 36.3748 45.3938 36.7086 45.1849C34.9539 47.9839 32.6116 50.1842 29.6818 51.7858C26.2879 53.6494 22.2273 54.5812 17.5 54.5812Z" fill="#9C0101" stroke="#9C0101" stroke-width="2" stroke-linejoin="round"/>
<path fill-rule="evenodd" clip-rule="evenodd" d="M23.5 48.5812H7V8.03577V2.03577H23.6364C28.3182 2.03577 32.3485 2.96759 35.7273 4.83124C39.1061 6.67969 41.7045 9.33881 43.5227 12.8085C45.3561 16.2782 46.2727 20.4297 46.2727 25.2631C46.2727 30.1115 45.3561 34.2782 43.5227 37.7631C41.8916 40.8894 39.6202 43.3634 36.7086 45.1849C36.3748 45.3938 36.0325 45.5941 35.6818 45.7858C32.2879 47.6494 28.2273 48.5812 23.5 48.5812ZM16.8409 40.1494H23.0909C25.4212 40.1494 27.455 39.8188 29.1922 39.1577C29.6237 38.9935 30.0369 38.809 30.4318 38.6039C32.4318 37.5585 33.9318 35.9449 34.9318 33.7631C35.947 31.566 36.4545 28.7327 36.4545 25.2631C36.4545 21.8237 35.947 19.0131 34.9318 16.8312C33.9318 14.6494 32.4394 13.0433 30.4545 12.0131C28.4697 10.9827 26.0227 10.4676 23.1136 10.4676H16.8409V16.4676V40.1494Z" fill="white" stroke="#9C0101" stroke-width="2" stroke-linejoin="round"/>
</svg>
