<svg width="363" height="60" viewBox="0 0 363 60" fill="none" xmlns="http://www.w3.org/2000/svg">
<rect width="363" height="60" fill="white"/>
<path fill-rule="evenodd" clip-rule="evenodd" d="M186 19.3561L192 13.3561H206L200 19.3561H186Z" fill="#9C0101"/>
<path fill-rule="evenodd" clip-rule="evenodd" d="M186 19.3561L192 13.3561H206L200 19.3561H186Z" stroke="#9C0101" stroke-width="2" stroke-linejoin="round"/>
<path fill-rule="evenodd" clip-rule="evenodd" d="M218.455 13.3561H232.455L226.455 19.3561H218.455V13.3561Z" fill="#9C0101"/>
<path fill-rule="evenodd" clip-rule="evenodd" d="M218.455 13.3561H232.455L226.455 19.3561H218.455V13.3561Z" stroke="#9C0101" stroke-width="2" stroke-linejoin="round"/>
<path fill-rule="evenodd" clip-rule="evenodd" d="M212.455 49.7196H218.455L212.455 55.7196H200L206 49.7196H212.455Z" fill="#9C0101"/>
<path fill-rule="evenodd" clip-rule="evenodd" d="M212.455 49.7196H218.455L212.455 55.7196H200L206 49.7196H212.455Z" stroke="#9C0101" stroke-width="2" stroke-linejoin="round"/>
<path fill-rule="evenodd" clip-rule="evenodd" d="M206 13.3561V49.7197L200 55.7197V19.3561L206 13.3561Z" fill="#9C0101" stroke="#9C0101" stroke-width="2" stroke-linejoin="round"/>
<path fill-rule="evenodd" clip-rule="evenodd" d="M186 19.356V9.17419L192 3.17419V13.356L186 19.356Z" fill="#9C0101" stroke="#9C0101" stroke-width="2" stroke-linejoin="round"/>
<path fill-rule="evenodd" clip-rule="evenodd" d="M192 13.356V3.17419H232.455V13.356H218.455V19.356V49.7197H212.455H206V13.356H192Z" fill="white"/>
<path fill-rule="evenodd" clip-rule="evenodd" d="M192 13.356V3.17419H232.455V13.356H218.455V19.356V49.7197H212.455H206V13.356H192Z" stroke="#9C0101" stroke-width="2" stroke-linejoin="round"/>
<path d="M189.886 19.7095H179.932C179.75 18.373 179.379 17.1858 178.818 16.1481C178.258 15.0946 177.538 14.1984 176.659 13.4594C175.78 12.7204 174.765 12.1543 173.614 11.7612C172.477 11.3681 171.242 11.1716 169.909 11.1716C167.5 11.1716 165.402 11.7927 163.614 13.0348C161.826 14.2613 160.439 16.0537 159.455 18.4123C158.47 20.7551 157.977 23.601 157.977 26.9501C157.977 30.3936 158.47 33.2867 159.455 35.6295C160.455 37.9723 161.848 39.7412 163.636 40.9362C165.424 42.1312 167.492 42.7287 169.841 42.7287C171.159 42.7287 172.379 42.5479 173.5 42.1862C174.636 41.8246 175.644 41.2979 176.523 40.606C177.402 39.8985 178.129 39.0415 178.705 38.0352C179.295 37.0289 179.705 35.8811 179.932 34.5918L189.886 34.6389C189.629 36.856 188.985 38.9944 187.955 41.0541C186.939 43.0982 185.568 44.93 183.841 46.5495C182.129 48.1533 180.083 49.4269 177.705 50.3703C175.341 51.298 172.667 51.7619 169.682 51.7619C165.53 51.7619 161.818 50.787 158.545 48.8373C155.288 46.8876 152.712 44.0652 150.818 40.3702C148.939 36.6751 148 32.2018 148 26.9501C148 21.6828 148.955 17.2016 150.864 13.5065C152.773 9.81151 155.364 6.997 158.636 5.063C161.909 3.11329 165.591 2.13843 169.682 2.13843C172.379 2.13843 174.879 2.53152 177.182 3.31769C179.5 4.10387 181.553 5.25168 183.341 6.76114C185.129 8.25488 186.583 10.0867 187.705 12.2565C188.841 14.4264 189.568 16.9107 189.886 19.7095Z" fill="white" stroke="#9C0101" stroke-width="2" stroke-linejoin="round"/>
<path fill-rule="evenodd" clip-rule="evenodd" d="M172.818 22.3746C173.379 23.4124 173.75 24.5995 173.932 25.936L179.932 19.7095C179.75 18.373 179.379 17.1859 178.818 16.1481C178.258 15.0946 177.538 14.1984 176.659 13.4594C175.781 12.7204 174.765 12.1543 173.614 11.7613C172.478 11.3682 171.243 11.1716 169.909 11.1716C167.5 11.1716 165.402 11.7927 163.614 13.0349C161.877 14.2263 160.519 15.952 159.54 18.2119C160.861 17.6694 162.317 17.3981 163.909 17.3981C165.243 17.3981 166.478 17.5947 167.614 17.9878C168.765 18.3809 169.781 18.9469 170.659 19.6859C171.538 20.4249 172.258 21.3212 172.818 22.3746Z" fill="#9C0101" stroke="#9C0101" stroke-width="2" stroke-linejoin="round"/>
<path d="M179.932 19.7092H182.289H189.886L183.886 25.9357H173.932L179.932 19.7092Z" fill="#9C0101" stroke="#9C0101" stroke-width="2" stroke-linejoin="round"/>
<path d="M176.227 40.8288C175.452 41.389 174.582 41.8286 173.618 42.1476C173.746 41.7225 173.851 41.2793 173.932 40.8179L179.932 34.5914C179.705 35.8808 179.296 37.0286 178.705 38.0349C178.129 39.0412 177.402 39.8981 176.523 40.6057C176.426 40.6821 176.327 40.7565 176.227 40.8288Z" fill="#9C0101" stroke="#9C0101" stroke-width="2" stroke-linejoin="round"/>
<path d="M177.705 50.3704C178.985 49.8626 180.169 49.259 181.256 48.5598C180.338 50.0966 179.2 51.5021 177.841 52.7761C176.129 54.3799 174.083 55.6535 171.705 56.5969C169.341 57.5246 166.667 57.9884 163.682 57.9884C159.53 57.9884 155.818 57.0136 152.545 55.0639C149.288 53.1142 146.712 50.2918 144.818 46.5968C142.939 42.9018 142 38.4284 142 33.1768C142 27.9093 142.955 23.4281 144.864 19.7331C146.616 16.3422 148.942 13.6929 151.842 11.785C151.498 12.3359 151.172 12.9098 150.864 13.5066C148.955 17.2016 148 21.6828 148 26.9503C148 32.2019 148.939 36.6753 150.818 40.3703C152.712 44.0652 155.288 46.8877 158.545 48.8374C161.818 50.7871 165.53 51.7619 169.682 51.7619C172.667 51.7619 175.341 51.2981 177.705 50.3704Z" fill="#9C0101" stroke="#9C0101" stroke-width="2" stroke-linejoin="round"/>
<path d="M123.841 36.4923H137.75L143.75 30.4924L123.841 30.4923V36.4923Z" fill="#9C0101" stroke="#9C0101" stroke-width="2" stroke-linejoin="round"/>
<path d="M139.364 17.2878L145.364 11.2878H123.841V17.2878H139.364Z" fill="#9C0101" stroke="#9C0101" stroke-width="2" stroke-linejoin="round"/>
<path d="M108 55.7196L114 49.7196H145.455L139.455 55.7196H108Z" fill="#9C0101" stroke="#9C0101" stroke-width="2" stroke-linejoin="round"/>
<path d="M114 49.7197V3.17419H145.364V11.2878H123.841V22.3788H143.75V30.4924L137.75 30.4924H123.841V41.606H145.455V49.7196L114 49.7197Z" fill="white" stroke="#9C0101" stroke-width="2" stroke-linejoin="round"/>
<path fill-rule="evenodd" clip-rule="evenodd" d="M108 9.17419L114 3.17419V49.7197L108 55.7197V9.17419Z" fill="#9C0101" stroke="#9C0101" stroke-width="2" stroke-linejoin="round"/>
<path fill-rule="evenodd" clip-rule="evenodd" d="M65 55.7197V9.17419L71 3.17419V49.7197L65 55.7197Z" fill="#9C0101" stroke="#9C0101" stroke-width="2" stroke-linejoin="round"/>
<path fill-rule="evenodd" clip-rule="evenodd" d="M71 49.7197V3.17419H89.3636C92.8788 3.17419 95.8788 3.80298 98.3636 5.06056C100.864 6.30298 102.765 8.06813 104.068 10.356C105.386 12.6287 106.045 15.303 106.045 18.3787C106.045 21.4697 105.379 24.1287 104.045 26.356C102.712 28.5681 100.78 30.2651 98.25 31.4469C98.1113 31.5121 97.9709 31.5755 97.829 31.6371L107.705 49.7197H96.8409L90.6324 38.1006L88.0244 33.2197H80.8409V39.2197V49.7197H71ZM92.2045 24.5378C93.447 24.0227 94.3712 23.25 94.9773 22.2197C95.5985 21.1893 95.9091 19.909 95.9091 18.3787C95.9091 16.8333 95.5985 15.5303 94.9773 14.4697C94.3712 13.409 93.4394 12.606 92.1818 12.0606C90.9394 11.5 89.3712 11.2197 87.4773 11.2197H80.8409V17.2197V25.3106H87.5227C88.3742 25.3106 89.1603 25.2577 89.8811 25.1518C90.7507 25.0242 91.5252 24.8195 92.2045 24.5378Z" fill="white" stroke="#9C0101" stroke-width="2" stroke-linejoin="round"/>
<path fill-rule="evenodd" clip-rule="evenodd" d="M94.9772 22.2196C94.3711 23.2499 93.4469 24.0226 92.2045 24.5378C91.5251 24.8195 90.7506 25.0241 89.881 25.1518C89.8997 24.9016 89.909 24.6439 89.909 24.3787C89.909 22.8332 89.5984 21.5302 88.9772 20.4696C88.3711 19.409 87.4393 18.606 86.1817 18.0605C84.9393 17.4999 83.3711 17.2196 81.4772 17.2196H80.8408V11.2196H87.4772C89.3711 11.2196 90.9393 11.4999 92.1817 12.0605C93.4393 12.606 94.3711 13.409 94.9772 14.4696C95.5984 15.5302 95.909 16.8332 95.909 18.3787C95.909 19.909 95.5984 21.1893 94.9772 22.2196Z" fill="#9C0101" stroke="#9C0101" stroke-width="2" stroke-linejoin="round"/>
<path fill-rule="evenodd" clip-rule="evenodd" d="M80.8408 33.2196H88.0243L82.0243 39.2196H80.8408V33.2196Z" fill="#9C0101" stroke="#9C0101" stroke-width="2" stroke-linejoin="round"/>
<path fill-rule="evenodd" clip-rule="evenodd" d="M65 55.7196L71 49.7196H80.8409L74.8409 55.7196H65Z" fill="#9C0101" stroke="#9C0101" stroke-width="2" stroke-linejoin="round"/>
<path fill-rule="evenodd" clip-rule="evenodd" d="M90.6325 38.1005L96.8409 49.7196L90.8409 55.7196L82.0244 39.2196L88.0244 33.2196L90.6325 38.1005Z" fill="#9C0101" stroke="#9C0101" stroke-width="2" stroke-linejoin="round"/>
<path fill-rule="evenodd" clip-rule="evenodd" d="M96.8408 49.7196H107.704L101.704 55.7196H90.8408L96.8408 49.7196Z" fill="#9C0101" stroke="#9C0101" stroke-width="2" stroke-linejoin="round"/>
<path d="M327.841 39.265V55.7196L333.841 49.7196V33.265L327.841 39.265Z" fill="#9C0101" stroke="#9C0101" stroke-width="2" stroke-linejoin="round"/>
<path d="M327.841 55.7196H337.614L343.614 49.7196H333.841L327.841 55.7196Z" fill="#9C0101" stroke="#9C0101" stroke-width="2" stroke-linejoin="round"/>
<path d="M310.863 9.17419L327.841 39.2651L333.841 33.2651L316.863 3.17419L310.863 9.17419Z" fill="#9C0101" stroke="#9C0101" stroke-width="2" stroke-linejoin="round"/>
<path d="M316.863 3.17419H327.886L338.5 23.2197H338.954L349.568 3.17419H360.591L343.613 33.2651V49.7197H333.841V33.2651L316.863 3.17419Z" fill="white" stroke="#9C0101" stroke-width="2" stroke-linejoin="round"/>
<path fill-rule="evenodd" clip-rule="evenodd" d="M343.568 9.17419L337.315 20.9829L338.5 23.2197H338.954L349.568 3.17419L343.568 9.17419Z" fill="#9C0101" stroke="#9C0101" stroke-width="2" stroke-linejoin="round"/>
<path fill-rule="evenodd" clip-rule="evenodd" d="M274.647 55.7197V9.17419L280.647 3.17419V49.7197L274.647 55.7197Z" fill="#9C0101" stroke="#9C0101" stroke-width="2" stroke-linejoin="round"/>
<path fill-rule="evenodd" clip-rule="evenodd" d="M280.647 49.7197V3.17419H299.011C302.526 3.17419 305.526 3.80298 308.011 5.06056C310.511 6.30298 312.413 8.06813 313.716 10.356C315.034 12.6287 315.693 15.303 315.693 18.3787C315.693 21.4697 315.026 24.1287 313.693 26.356C312.36 28.5681 310.428 30.2651 307.897 31.4469C307.759 31.5121 307.618 31.5755 307.476 31.6371L317.352 49.7197H306.488L300.28 38.1006L297.672 33.2197H290.488V39.2197V49.7197H280.647ZM301.852 24.5378C303.094 24.0227 304.019 23.25 304.625 22.2197C305.246 21.1893 305.557 19.909 305.557 18.3787C305.557 16.8333 305.246 15.5303 304.625 14.4697C304.019 13.409 303.087 12.606 301.829 12.0606C300.587 11.5 299.019 11.2197 297.125 11.2197H290.488V17.2197V25.3106H297.17C298.022 25.3106 298.808 25.2577 299.529 25.1518C300.398 25.0242 301.173 24.8195 301.852 24.5378Z" fill="white" stroke="#9C0101" stroke-width="2" stroke-linejoin="round"/>
<path fill-rule="evenodd" clip-rule="evenodd" d="M304.625 22.2196C304.019 23.2499 303.094 24.0226 301.852 24.5378C301.173 24.8195 300.398 25.0241 299.528 25.1518C299.547 24.9016 299.556 24.6439 299.556 24.3787C299.556 22.8332 299.246 21.5302 298.625 20.4696C298.019 19.409 297.087 18.606 295.829 18.0605C294.587 17.4999 293.019 17.2196 291.125 17.2196H290.488V11.2196H297.125C299.019 11.2196 300.587 11.4999 301.829 12.0605C303.087 12.606 304.019 13.409 304.625 14.4696C305.246 15.5302 305.556 16.8332 305.556 18.3787C305.556 19.909 305.246 21.1893 304.625 22.2196Z" fill="#9C0101" stroke="#9C0101" stroke-width="2" stroke-linejoin="round"/>
<path fill-rule="evenodd" clip-rule="evenodd" d="M290.488 33.2196H297.672L291.672 39.2196H290.488V33.2196Z" fill="#9C0101" stroke="#9C0101" stroke-width="2" stroke-linejoin="round"/>
<path fill-rule="evenodd" clip-rule="evenodd" d="M274.647 55.7196L280.647 49.7196H290.488L284.488 55.7196H274.647Z" fill="#9C0101" stroke="#9C0101" stroke-width="2" stroke-linejoin="round"/>
<path fill-rule="evenodd" clip-rule="evenodd" d="M300.28 38.1005L306.488 49.7196L300.488 55.7196L291.672 39.2196L297.672 33.2196L300.28 38.1005Z" fill="#9C0101" stroke="#9C0101" stroke-width="2" stroke-linejoin="round"/>
<path fill-rule="evenodd" clip-rule="evenodd" d="M306.488 49.7196H317.352L311.352 55.7196H300.488L306.488 49.7196Z" fill="#9C0101" stroke="#9C0101" stroke-width="2" stroke-linejoin="round"/>
<path d="M275.248 26.9369C275.248 32.2014 274.286 36.6802 272.361 40.3733C270.452 44.0663 267.846 46.8872 264.543 48.8359C261.255 50.7688 257.558 51.7353 253.452 51.7353C249.316 51.7353 245.604 50.761 242.316 48.8123C239.028 46.8636 236.429 44.0428 234.52 40.3497C232.611 36.6567 231.657 32.1857 231.657 26.9369C231.657 21.6723 232.611 17.1935 234.52 13.5005C236.429 9.8074 239.028 6.9944 242.316 5.06144C245.604 3.11277 249.316 2.13843 253.452 2.13843C257.558 2.13843 261.255 3.11277 264.543 5.06144C267.846 6.9944 270.452 9.8074 272.361 13.5005C274.286 17.1935 275.248 21.6723 275.248 26.9369ZM265.27 26.9369C265.27 23.5267 264.778 20.6508 263.793 18.3093C262.823 15.9677 261.452 14.1919 259.68 12.9819C257.907 11.7718 255.831 11.1668 253.452 11.1668C251.073 11.1668 248.998 11.7718 247.225 12.9819C245.452 14.1919 244.073 15.9677 243.089 18.3093C242.119 20.6508 241.634 23.5267 241.634 26.9369C241.634 30.3471 242.119 33.2229 243.089 35.5645C244.073 37.906 245.452 39.6818 247.225 40.8919C248.998 42.102 251.073 42.707 253.452 42.707C255.831 42.707 257.907 42.102 259.68 40.8919C261.452 39.6818 262.823 37.906 263.793 35.5645C264.778 33.2229 265.27 30.3471 265.27 26.9369Z" fill="white" stroke="#9C0101" stroke-width="2" stroke-linejoin="round"/>
<path d="M257.793 41.7877C257.774 41.8352 257.754 41.8824 257.734 41.9295C258.419 41.6559 259.067 41.31 259.68 40.8919C261.452 39.6818 262.824 37.906 263.793 35.5645C264.778 33.223 265.271 30.347 265.271 26.9369C265.271 23.5267 264.778 20.6509 263.793 18.3093C262.824 15.9677 261.452 14.1919 259.68 12.9818C257.907 11.7718 255.831 11.1667 253.452 11.1667C251.074 11.1667 248.998 11.7718 247.225 12.9818C245.486 14.1693 244.125 15.9013 243.145 18.1781C244.449 17.6526 245.885 17.3899 247.452 17.3899C249.831 17.3899 251.907 17.995 253.68 19.205C255.452 20.4151 256.824 22.1909 257.793 24.5324C258.778 26.874 259.271 29.7499 259.271 33.1601C259.271 36.5702 258.778 39.4461 257.793 41.7877Z" fill="#9C0101" stroke="#9C0101" stroke-width="2" stroke-linejoin="round"/>
<path d="M257.793 41.7877C257.774 41.8352 257.754 41.8824 257.734 41.9295C258.419 41.6559 259.067 41.31 259.68 40.8919C261.453 39.6818 262.824 37.906 263.793 35.5645C264.778 33.223 265.271 30.347 265.271 26.9369C265.271 23.5267 264.778 20.6509 263.793 18.3093C262.824 15.9677 261.453 14.1919 259.68 12.9818C257.907 11.7718 255.831 11.1667 253.453 11.1667C251.074 11.1667 248.998 11.7718 247.225 12.9818C245.486 14.1693 244.126 15.9013 243.145 18.1781L243.121 18.2335L243.089 18.3093" stroke="#9C0101" stroke-width="2" stroke-linejoin="round"/>
<path d="M238.125 8.3819C238.134 8.37316 238.148 8.37029 238.157 8.36157" stroke="#9C0101" stroke-width="2" stroke-linejoin="round"/>
<path d="M238.157 8.36157L238.125 8.38265C237.152 9.40212 236.272 10.5414 235.487 11.8005C235.147 12.3448 234.825 12.9113 234.521 13.5004" stroke="#9C0101" stroke-width="2" stroke-linejoin="round"/>
<path fill-rule="evenodd" clip-rule="evenodd" d="M265.216 48.4201C265.274 48.3833 265.331 48.3461 265.387 48.3087C263.597 51.1733 261.315 53.4233 258.543 55.0589C255.255 56.9919 251.558 57.9584 247.452 57.9584C243.316 57.9584 239.604 56.984 236.316 55.0354C233.028 53.0867 230.429 50.2658 228.52 46.5728C226.611 42.8798 225.657 38.4088 225.657 33.16C225.657 27.8953 226.611 23.4165 228.52 19.7235C230.26 16.359 235.222 10.3112 238.125 8.38257C237.152 9.40204 236.272 10.5413 235.487 11.8004C235.147 12.3447 234.825 12.9113 234.52 13.5003C232.611 17.1934 231.657 21.6722 231.657 26.9368C231.657 32.1856 232.611 36.6566 234.52 40.3496C236.429 44.0426 239.028 46.8635 242.316 48.8122C245.604 50.7608 249.316 51.7352 253.452 51.7352C257.558 51.7352 261.255 50.7687 264.543 48.8357C264.698 48.7444 264.851 48.6512 265.003 48.556C265.074 48.5112 265.146 48.4658 265.216 48.4201Z" fill="#9C0101" stroke="#9C0101" stroke-width="2" stroke-linejoin="round"/>
<path fill-rule="evenodd" clip-rule="evenodd" d="M53 49.7196H56.8409H62.8409L56.8409 55.7196H47L53 49.7196Z" fill="#9C0101" stroke="#9C0101" stroke-width="2" stroke-linejoin="round"/>
<path fill-rule="evenodd" clip-rule="evenodd" d="M56.8409 49.7197H53V9.17419V3.17419H62.8409V49.7197H56.8409Z" fill="white" stroke="#9C0101" stroke-width="2" stroke-linejoin="round"/>
<path fill-rule="evenodd" clip-rule="evenodd" d="M53 49.7196L47 55.7196V9.17419L53 3.17419V9.17419V49.7196Z" fill="#9C0101" stroke="#9C0101" stroke-width="2" stroke-linejoin="round"/>
<path fill-rule="evenodd" clip-rule="evenodd" d="M8 3.17419V9.17419V49.7196L2 55.7196V9.17419L8 3.17419Z" fill="#9C0101" stroke="#9C0101" stroke-width="2" stroke-linejoin="round"/>
<path fill-rule="evenodd" clip-rule="evenodd" d="M18.1135 17.6061H17.8408V11.6061H24.1135C27.0226 11.6061 29.4696 12.1212 31.4545 13.1516C33.4393 14.1818 34.9317 15.7879 35.9317 17.9697C36.9469 20.1516 37.4545 22.9622 37.4545 26.4016C37.4545 29.8712 36.9469 32.7045 35.9317 34.9016C34.9317 37.0834 33.4317 38.697 31.4317 39.7424C31.0368 39.9474 30.6236 40.132 30.1922 40.2962C31.0337 38.1922 31.4545 35.5606 31.4545 32.4016C31.4545 28.9622 30.9469 26.1516 29.9317 23.9697C28.9317 21.7879 27.4393 20.1818 25.4545 19.1516C23.4696 18.1212 21.0226 17.6061 18.1135 17.6061Z" fill="#9C0101" stroke="#9C0101" stroke-width="2" stroke-linejoin="round"/>
<path fill-rule="evenodd" clip-rule="evenodd" d="M18.5 55.7196H2L8 49.7196H24.5C29.2273 49.7196 33.2879 48.7878 36.6818 46.9242C37.0325 46.7325 37.3748 46.5322 37.7086 46.3234C35.9539 49.1223 33.6116 51.3226 30.6818 52.9242C27.2879 54.7878 23.2273 55.7196 18.5 55.7196Z" fill="#9C0101" stroke="#9C0101" stroke-width="2" stroke-linejoin="round"/>
<path fill-rule="evenodd" clip-rule="evenodd" d="M24.5 49.7196H8V9.17419V3.17419H24.6364C29.3182 3.17419 33.3485 4.10602 36.7273 5.96967C40.1061 7.81812 42.7045 10.4772 44.5227 13.9469C46.3561 17.4166 47.2727 21.5681 47.2727 26.4015C47.2727 31.2499 46.3561 35.4166 44.5227 38.9015C42.8916 42.0278 40.6202 44.5018 37.7086 46.3234C37.3748 46.5322 37.0325 46.7325 36.6818 46.9242C33.2879 48.7878 29.2273 49.7196 24.5 49.7196ZM17.8409 41.2878H24.0909C26.4212 41.2878 28.455 40.9573 30.1922 40.2961C30.6237 40.132 31.0369 39.9474 31.4318 39.7424C33.4318 38.6969 34.9318 37.0833 35.9318 34.9015C36.947 32.7045 37.4545 29.8712 37.4545 26.4015C37.4545 22.9621 36.947 20.1515 35.9318 17.9697C34.9318 15.7878 33.4394 14.1818 31.4545 13.1515C29.4697 12.1212 27.0227 11.606 24.1136 11.606H17.8409V17.606V41.2878Z" fill="white" stroke="#9C0101" stroke-width="2" stroke-linejoin="round"/>
</svg>
