<svg width="498" height="57" viewBox="0 0 498 57" fill="none" xmlns="http://www.w3.org/2000/svg">
<path d="M463.727 37.8408V54.2954L469.727 48.2954V31.8408L463.727 37.8408Z" fill="#9C0101" stroke="#9C0101" stroke-width="1.5" stroke-linejoin="round"/>
<path d="M463.727 54.2954H473.5L479.5 48.2954H469.727L463.727 54.2954Z" fill="#9C0101" stroke="#9C0101" stroke-width="1.5" stroke-linejoin="round"/>
<path d="M446.75 7.75L463.727 37.8409L469.727 31.8409L452.75 1.75L446.75 7.75Z" fill="#9C0101" stroke="#9C0101" stroke-width="1.5" stroke-linejoin="round"/>
<path d="M452.75 1.75H463.773L474.386 21.7955H474.841L485.455 1.75H496.477L479.5 31.8409V48.2955H469.727V31.8409L452.75 1.75Z" fill="white" stroke="#9C0101" stroke-width="1.5" stroke-linejoin="round"/>
<path fill-rule="evenodd" clip-rule="evenodd" d="M479.455 7.75L473.202 19.5587L474.386 21.7955H474.841L485.455 1.75L479.455 7.75Z" fill="#9C0101" stroke="#9C0101" stroke-width="1.5" stroke-linejoin="round"/>
<path fill-rule="evenodd" clip-rule="evenodd" d="M409.75 54.2955V7.75L415.75 1.75V48.2955L409.75 54.2955Z" fill="#9C0101" stroke="#9C0101" stroke-width="1.5" stroke-linejoin="round"/>
<path fill-rule="evenodd" clip-rule="evenodd" d="M415.75 48.2955V1.75H434.114C437.629 1.75 440.629 2.37879 443.114 3.63636C445.614 4.87879 447.515 6.64394 448.818 8.93182C450.136 11.2045 450.795 13.8788 450.795 16.9545C450.795 20.0455 450.129 22.7045 448.795 24.9318C447.462 27.1439 445.53 28.8409 443 30.0227C442.861 30.0879 442.721 30.1513 442.579 30.2129L452.455 48.2955H441.591L435.382 36.6764L432.774 31.7955H425.591V37.7955V48.2955H415.75ZM436.955 23.1136C438.197 22.5985 439.121 21.8258 439.727 20.7955C440.348 19.7652 440.659 18.4848 440.659 16.9545C440.659 15.4091 440.348 14.1061 439.727 13.0455C439.121 11.9848 438.189 11.1818 436.932 10.6364C435.689 10.0758 434.121 9.79546 432.227 9.79546H425.591V15.7955V23.8864H432.273C433.124 23.8864 433.91 23.8335 434.631 23.7276C435.501 23.6 436.275 23.3953 436.955 23.1136Z" fill="white" stroke="#9C0101" stroke-width="1.5" stroke-linejoin="round"/>
<path fill-rule="evenodd" clip-rule="evenodd" d="M439.727 20.7954C439.121 21.8257 438.197 22.5984 436.954 23.1136C436.275 23.3953 435.501 23.5999 434.631 23.7276C434.65 23.4774 434.659 23.2197 434.659 22.9545C434.659 21.409 434.348 20.106 433.727 19.0454C433.121 17.9848 432.189 17.1818 430.932 16.6363C429.689 16.0757 428.121 15.7954 426.227 15.7954H425.591V9.79541H432.227C434.121 9.79541 435.689 10.0757 436.932 10.6363C438.189 11.1818 439.121 11.9848 439.727 13.0454C440.348 14.106 440.659 15.409 440.659 16.9545C440.659 18.4848 440.348 19.7651 439.727 20.7954Z" fill="#9C0101" stroke="#9C0101" stroke-width="1.5" stroke-linejoin="round"/>
<path fill-rule="evenodd" clip-rule="evenodd" d="M425.591 31.7954H432.774L426.774 37.7954H425.591V31.7954Z" fill="#9C0101" stroke="#9C0101" stroke-width="1.5" stroke-linejoin="round"/>
<path fill-rule="evenodd" clip-rule="evenodd" d="M409.75 54.2954L415.75 48.2954H425.591L419.591 54.2954H409.75Z" fill="#9C0101" stroke="#9C0101" stroke-width="1.5" stroke-linejoin="round"/>
<path fill-rule="evenodd" clip-rule="evenodd" d="M435.382 36.6763L441.591 48.2954L435.591 54.2954L426.774 37.7954L432.774 31.7954L435.382 36.6763Z" fill="#9C0101" stroke="#9C0101" stroke-width="1.5" stroke-linejoin="round"/>
<path fill-rule="evenodd" clip-rule="evenodd" d="M441.591 48.2954H452.454L446.454 54.2954H435.591L441.591 48.2954Z" fill="#9C0101" stroke="#9C0101" stroke-width="1.5" stroke-linejoin="round"/>
<path fill-rule="evenodd" clip-rule="evenodd" d="M363.75 17.9319L369.75 11.9319H383.75L377.75 17.9319H363.75Z" fill="#9C0101"/>
<path fill-rule="evenodd" clip-rule="evenodd" d="M363.75 17.9319L369.75 11.9319H383.75L377.75 17.9319H363.75Z" stroke="#9C0101" stroke-width="1.5" stroke-linejoin="round"/>
<path fill-rule="evenodd" clip-rule="evenodd" d="M396.205 11.9319H410.205L404.205 17.9319H396.205V11.9319Z" fill="#9C0101"/>
<path fill-rule="evenodd" clip-rule="evenodd" d="M396.205 11.9319H410.205L404.205 17.9319H396.205V11.9319Z" stroke="#9C0101" stroke-width="1.5" stroke-linejoin="round"/>
<path fill-rule="evenodd" clip-rule="evenodd" d="M390.205 48.2954H396.205L390.205 54.2954H377.75L383.75 48.2954H390.205Z" fill="#9C0101"/>
<path fill-rule="evenodd" clip-rule="evenodd" d="M390.205 48.2954H396.205L390.205 54.2954H377.75L383.75 48.2954H390.205Z" stroke="#9C0101" stroke-width="1.5" stroke-linejoin="round"/>
<path fill-rule="evenodd" clip-rule="evenodd" d="M383.75 11.9319V48.2955L377.75 54.2955V17.9319L383.75 11.9319Z" fill="#9C0101" stroke="#9C0101" stroke-width="1.5" stroke-linejoin="round"/>
<path fill-rule="evenodd" clip-rule="evenodd" d="M363.75 17.9318V7.75L369.75 1.75V11.9318L363.75 17.9318Z" fill="#9C0101" stroke="#9C0101" stroke-width="1.5" stroke-linejoin="round"/>
<path fill-rule="evenodd" clip-rule="evenodd" d="M369.75 11.9318V1.75H410.205V11.9318H396.205V17.9318V48.2955H390.205H383.75V11.9318H369.75Z" fill="white"/>
<path fill-rule="evenodd" clip-rule="evenodd" d="M369.75 11.9318V1.75H410.205V11.9318H396.205V17.9318V48.2955H390.205H383.75V11.9318H369.75Z" stroke="#9C0101" stroke-width="1.5" stroke-linejoin="round"/>
<path d="M367.636 18.6818H357.682C357.5 17.3939 357.129 16.25 356.568 15.25C356.008 14.2348 355.288 13.3712 354.409 12.6591C353.53 11.947 352.515 11.4015 351.364 11.0227C350.227 10.6439 348.992 10.4545 347.659 10.4545C345.25 10.4545 343.152 11.053 341.364 12.25C339.576 13.4318 338.189 15.1591 337.205 17.4318C336.22 19.6894 335.727 22.4318 335.727 25.6591C335.727 28.9773 336.22 31.7652 337.205 34.0227C338.205 36.2803 339.598 37.9848 341.386 39.1364C343.174 40.2879 345.242 40.8636 347.591 40.8636C348.909 40.8636 350.129 40.6894 351.25 40.3409C352.386 39.9924 353.394 39.4849 354.273 38.8182C355.152 38.1364 355.879 37.3106 356.455 36.3409C357.045 35.3712 357.455 34.2652 357.682 33.0227L367.636 33.0682C367.379 35.2045 366.735 37.2652 365.705 39.25C364.689 41.2197 363.318 42.9848 361.591 44.5455C359.879 46.0909 357.833 47.3182 355.455 48.2273C353.091 49.1212 350.417 49.5682 347.432 49.5682C343.28 49.5682 339.568 48.6288 336.295 46.75C333.038 44.8712 330.462 42.1515 328.568 38.5909C326.689 35.0303 325.75 30.7197 325.75 25.6591C325.75 20.5833 326.705 16.2652 328.614 12.7045C330.523 9.14394 333.114 6.43182 336.386 4.56818C339.659 2.68939 343.341 1.75 347.432 1.75C350.129 1.75 352.629 2.12879 354.932 2.88636C357.25 3.64394 359.303 4.75 361.091 6.20454C362.879 7.64394 364.333 9.40909 365.455 11.5C366.591 13.5909 367.318 15.9848 367.636 18.6818Z" fill="white" stroke="#9C0101" stroke-width="1.5" stroke-linejoin="round"/>
<path fill-rule="evenodd" clip-rule="evenodd" d="M350.568 21.25C351.129 22.25 351.5 23.394 351.682 24.6819L357.682 18.6819C357.5 17.394 357.129 16.25 356.568 15.25C356.008 14.2349 355.288 13.3713 354.409 12.6591C353.53 11.947 352.515 11.4016 351.364 11.0228C350.227 10.644 348.992 10.4546 347.659 10.4546C345.25 10.4546 343.152 11.0531 341.364 12.25C339.627 13.3982 338.269 15.0611 337.29 17.2387C338.611 16.716 340.067 16.4546 341.659 16.4546C342.992 16.4546 344.227 16.644 345.364 17.0228C346.515 17.4016 347.53 17.947 348.409 18.6591C349.288 19.3713 350.008 20.2349 350.568 21.25Z" fill="#9C0101" stroke="#9C0101" stroke-width="1.5" stroke-linejoin="round"/>
<path d="M357.682 18.6816H360.039H367.636L361.636 24.6816H351.682L357.682 18.6816Z" fill="#9C0101" stroke="#9C0101" stroke-width="1.5" stroke-linejoin="round"/>
<path d="M353.977 39.0329C353.202 39.5728 352.332 39.9964 351.368 40.3037C351.496 39.8941 351.601 39.467 351.682 39.0225L357.682 33.0225C357.455 34.2649 357.046 35.3709 356.455 36.3406C355.879 37.3103 355.152 38.1361 354.273 38.8179C354.176 38.8915 354.077 38.9632 353.977 39.0329Z" fill="#9C0101" stroke="#9C0101" stroke-width="1.5" stroke-linejoin="round"/>
<path d="M355.455 48.2274C356.735 47.738 357.919 47.1564 359.006 46.4826C358.088 47.9635 356.95 49.3178 355.591 50.5455C353.879 52.0909 351.833 53.3182 349.455 54.2274C347.091 55.1213 344.417 55.5682 341.432 55.5682C337.28 55.5682 333.568 54.6288 330.295 52.7501C327.038 50.8713 324.462 48.1516 322.568 44.591C320.689 41.0304 319.75 36.7198 319.75 31.6592C319.75 26.5834 320.705 22.2652 322.614 18.7046C324.366 15.4371 326.692 12.8841 329.592 11.0457C329.248 11.5765 328.922 12.1295 328.614 12.7046C326.705 16.2652 325.75 20.5834 325.75 25.6592C325.75 30.7198 326.689 35.0304 328.568 38.591C330.462 42.1516 333.038 44.8713 336.295 46.7501C339.568 48.6288 343.28 49.5682 347.432 49.5682C350.417 49.5682 353.091 49.1213 355.455 48.2274Z" fill="#9C0101" stroke="#9C0101" stroke-width="1.5" stroke-linejoin="round"/>
<path d="M301.591 35.0681H315.5L321.5 29.0682L301.591 29.0681V35.0681Z" fill="#9C0101" stroke="#9C0101" stroke-width="1.5" stroke-linejoin="round"/>
<path d="M317.114 15.8636L323.114 9.86365H301.591V15.8636H317.114Z" fill="#9C0101" stroke="#9C0101" stroke-width="1.5" stroke-linejoin="round"/>
<path d="M285.75 54.2954L291.75 48.2954H323.205L317.205 54.2954H285.75Z" fill="#9C0101" stroke="#9C0101" stroke-width="1.5" stroke-linejoin="round"/>
<path d="M291.75 48.2955V1.75H323.114V9.86365H301.591V20.9546H321.5V29.0682L315.5 29.0682H301.591V40.1818H323.205V48.2954L291.75 48.2955Z" fill="white" stroke="#9C0101" stroke-width="1.5" stroke-linejoin="round"/>
<path fill-rule="evenodd" clip-rule="evenodd" d="M285.75 7.75L291.75 1.75V48.2955L285.75 54.2955V7.75Z" fill="#9C0101" stroke="#9C0101" stroke-width="1.5" stroke-linejoin="round"/>
<path fill-rule="evenodd" clip-rule="evenodd" d="M242.75 54.2955V7.75L248.75 1.75V48.2955L242.75 54.2955Z" fill="#9C0101" stroke="#9C0101" stroke-width="1.5" stroke-linejoin="round"/>
<path fill-rule="evenodd" clip-rule="evenodd" d="M248.75 48.2955V1.75H267.114C270.629 1.75 273.629 2.37879 276.114 3.63636C278.614 4.87879 280.515 6.64394 281.818 8.93182C283.136 11.2045 283.795 13.8788 283.795 16.9545C283.795 20.0455 283.129 22.7045 281.795 24.9318C280.462 27.1439 278.53 28.8409 276 30.0227C275.861 30.0879 275.721 30.1513 275.579 30.2129L285.455 48.2955H274.591L268.382 36.6764L265.774 31.7955H258.591V37.7955V48.2955H248.75ZM269.955 23.1136C271.197 22.5985 272.121 21.8258 272.727 20.7955C273.348 19.7652 273.659 18.4848 273.659 16.9545C273.659 15.4091 273.348 14.1061 272.727 13.0455C272.121 11.9848 271.189 11.1818 269.932 10.6364C268.689 10.0758 267.121 9.79546 265.227 9.79546H258.591V15.7955V23.8864H265.273C266.124 23.8864 266.91 23.8335 267.631 23.7276C268.501 23.6 269.275 23.3953 269.955 23.1136Z" fill="white" stroke="#9C0101" stroke-width="1.5" stroke-linejoin="round"/>
<path fill-rule="evenodd" clip-rule="evenodd" d="M272.727 20.7954C272.121 21.8257 271.197 22.5984 269.954 23.1136C269.275 23.3953 268.501 23.5999 267.631 23.7276C267.65 23.4774 267.659 23.2197 267.659 22.9545C267.659 21.409 267.348 20.106 266.727 19.0454C266.121 17.9848 265.189 17.1818 263.932 16.6363C262.689 16.0757 261.121 15.7954 259.227 15.7954H258.591V9.79541H265.227C267.121 9.79541 268.689 10.0757 269.932 10.6363C271.189 11.1818 272.121 11.9848 272.727 13.0454C273.348 14.106 273.659 15.409 273.659 16.9545C273.659 18.4848 273.348 19.7651 272.727 20.7954Z" fill="#9C0101" stroke="#9C0101" stroke-width="1.5" stroke-linejoin="round"/>
<path fill-rule="evenodd" clip-rule="evenodd" d="M258.591 31.7954H265.774L259.774 37.7954H258.591V31.7954Z" fill="#9C0101" stroke="#9C0101" stroke-width="1.5" stroke-linejoin="round"/>
<path fill-rule="evenodd" clip-rule="evenodd" d="M242.75 54.2954L248.75 48.2954H258.591L252.591 54.2954H242.75Z" fill="#9C0101" stroke="#9C0101" stroke-width="1.5" stroke-linejoin="round"/>
<path fill-rule="evenodd" clip-rule="evenodd" d="M268.382 36.6763L274.591 48.2954L268.591 54.2954L259.774 37.7954L265.774 31.7954L268.382 36.6763Z" fill="#9C0101" stroke="#9C0101" stroke-width="1.5" stroke-linejoin="round"/>
<path fill-rule="evenodd" clip-rule="evenodd" d="M274.591 48.2954H285.454L279.454 54.2954H268.591L274.591 48.2954Z" fill="#9C0101" stroke="#9C0101" stroke-width="1.5" stroke-linejoin="round"/>
<path fill-rule="evenodd" clip-rule="evenodd" d="M230.75 48.2954H234.591H240.591L234.591 54.2954H224.75L230.75 48.2954Z" fill="#9C0101" stroke="#9C0101" stroke-width="1.5" stroke-linejoin="round"/>
<path fill-rule="evenodd" clip-rule="evenodd" d="M234.591 48.2955H230.75V7.75V1.75H240.591V48.2955H234.591Z" fill="white" stroke="#9C0101" stroke-width="1.5" stroke-linejoin="round"/>
<path fill-rule="evenodd" clip-rule="evenodd" d="M230.75 48.2954L224.75 54.2954V7.75L230.75 1.75V7.75V48.2954Z" fill="#9C0101" stroke="#9C0101" stroke-width="1.5" stroke-linejoin="round"/>
<path fill-rule="evenodd" clip-rule="evenodd" d="M185.75 1.75V7.75V48.2954L179.75 54.2954V7.75L185.75 1.75Z" fill="#9C0101" stroke="#9C0101" stroke-width="1.5" stroke-linejoin="round"/>
<path fill-rule="evenodd" clip-rule="evenodd" d="M195.864 16.1819H195.591V10.1819H201.864C204.773 10.1819 207.22 10.697 209.204 11.7274C211.189 12.7576 212.682 14.3637 213.682 16.5455C214.697 18.7274 215.204 21.538 215.204 24.9774C215.204 28.447 214.697 31.2803 213.682 33.4774C212.682 35.6592 211.182 37.2728 209.182 38.3182C208.787 38.5233 208.374 38.7078 207.942 38.872C208.784 36.768 209.204 34.1364 209.204 30.9774C209.204 27.538 208.697 24.7274 207.682 22.5455C206.682 20.3637 205.189 18.7576 203.204 17.7274C201.22 16.697 198.773 16.1819 195.864 16.1819Z" fill="#9C0101" stroke="#9C0101" stroke-width="1.5" stroke-linejoin="round"/>
<path fill-rule="evenodd" clip-rule="evenodd" d="M196.25 54.2954H179.75L185.75 48.2954H202.25C206.977 48.2954 211.038 47.3636 214.432 45.5C214.783 45.3083 215.125 45.108 215.459 44.8992C213.704 47.6981 211.362 49.8984 208.432 51.5C205.038 53.3636 200.977 54.2954 196.25 54.2954Z" fill="#9C0101" stroke="#9C0101" stroke-width="1.5" stroke-linejoin="round"/>
<path fill-rule="evenodd" clip-rule="evenodd" d="M202.25 48.2954H185.75V7.75V1.75H202.386C207.068 1.75 211.098 2.68182 214.477 4.54547C217.856 6.39392 220.455 9.05304 222.273 12.5227C224.106 15.9924 225.023 20.1439 225.023 24.9773C225.023 29.8257 224.106 33.9924 222.273 37.4773C220.642 40.6036 218.37 43.0776 215.459 44.8992C215.125 45.108 214.783 45.3083 214.432 45.5C211.038 47.3636 206.977 48.2954 202.25 48.2954ZM195.591 39.8636H201.841C204.171 39.8636 206.205 39.5331 207.942 38.8719C208.374 38.7078 208.787 38.5232 209.182 38.3182C211.182 37.2727 212.682 35.6591 213.682 33.4773C214.697 31.2803 215.205 28.447 215.205 24.9773C215.205 21.5379 214.697 18.7273 213.682 16.5455C212.682 14.3636 211.189 12.7576 209.205 11.7273C207.22 10.697 204.773 10.1818 201.864 10.1818H195.591V16.1818V39.8636Z" fill="white" stroke="#9C0101" stroke-width="1.5" stroke-linejoin="round"/>
<path fill-rule="evenodd" clip-rule="evenodd" d="M129.75 0.75V6.75V47.2954L123.75 53.2954V6.75L129.75 0.75Z" fill="#9C0101" stroke="#9C0101" stroke-width="1.5" stroke-linejoin="round"/>
<path fill-rule="evenodd" clip-rule="evenodd" d="M139.864 15.1819H139.591V9.18188H145.864C148.773 9.18188 151.22 9.69702 153.204 10.7274C155.189 11.7576 156.682 13.3637 157.682 15.5455C158.697 17.7274 159.204 20.538 159.204 23.9774C159.204 27.447 158.697 30.2803 157.682 32.4774C156.682 34.6592 155.182 36.2728 153.182 37.3182C152.787 37.5233 152.374 37.7078 151.942 37.872C152.784 35.768 153.204 33.1364 153.204 29.9774C153.204 26.538 152.697 23.7274 151.682 21.5455C150.682 19.3637 149.189 17.7576 147.204 16.7274C145.22 15.697 142.773 15.1819 139.864 15.1819Z" fill="#9C0101" stroke="#9C0101" stroke-width="1.5" stroke-linejoin="round"/>
<path fill-rule="evenodd" clip-rule="evenodd" d="M140.25 53.2954H123.75L129.75 47.2954H146.25C150.977 47.2954 155.038 46.3636 158.432 44.5C158.783 44.3083 159.125 44.108 159.459 43.8992C157.704 46.6981 155.362 48.8984 152.432 50.5C149.038 52.3636 144.977 53.2954 140.25 53.2954Z" fill="#9C0101" stroke="#9C0101" stroke-width="1.5" stroke-linejoin="round"/>
<path fill-rule="evenodd" clip-rule="evenodd" d="M146.25 47.2954H129.75V6.75V0.75H146.386C151.068 0.75 155.098 1.68182 158.477 3.54547C161.856 5.39392 164.455 8.05304 166.273 11.5227C168.106 14.9924 169.023 19.1439 169.023 23.9773C169.023 28.8257 168.106 32.9924 166.273 36.4773C164.642 39.6036 162.37 42.0776 159.459 43.8992C159.125 44.108 158.783 44.3083 158.432 44.5C155.038 46.3636 150.977 47.2954 146.25 47.2954ZM139.591 38.8636H145.841C148.171 38.8636 150.205 38.5331 151.942 37.8719C152.374 37.7078 152.787 37.5232 153.182 37.3182C155.182 36.2727 156.682 34.6591 157.682 32.4773C158.697 30.2803 159.205 27.447 159.205 23.9773C159.205 20.5379 158.697 17.7273 157.682 15.5455C156.682 13.3636 155.189 11.7576 153.205 10.7273C151.22 9.69696 148.773 9.18182 145.864 9.18182H139.591V15.1818V38.8636Z" fill="white" stroke="#9C0101" stroke-width="1.5" stroke-linejoin="round"/>
<path fill-rule="evenodd" clip-rule="evenodd" d="M84.75 47.2955L78.75 53.2955L94.8182 6.75L100.818 0.75L98.7469 6.75L88.9946 35L88.6364 36.0377L84.75 47.2955Z" fill="#9C0101" stroke="#9C0101" stroke-width="1.5" stroke-linejoin="round"/>
<path fill-rule="evenodd" clip-rule="evenodd" d="M105.111 28.9999L103.181 23.0546L106.977 11.3862H107.341L113.06 28.9999H105.111Z" fill="#9C0101" stroke="#9C0101" stroke-width="1.5" stroke-linejoin="round"/>
<path fill-rule="evenodd" clip-rule="evenodd" d="M98.7483 36.6816L96.7964 42.6816L95.2955 47.2955H91.2474H84.75L88.6364 36.0377L88.9946 35L98.7469 6.75L100.818 0.75H113.5L129.545 47.2955H121.477L119 47.2953L115.554 36.6816H98.7483ZM106.977 11.3864L103.181 23.0548L101.247 29H105.112H113.06L107.341 11.3864H106.977Z" fill="white"/>
<path d="M119 47.2953L115.554 36.6816H98.7483L96.7964 42.6816L95.2955 47.2955H91.2474H84.75L88.6364 36.0377L88.9946 35L98.7469 6.75L100.818 0.75H113.5L129.545 47.2955H121.477L119 47.2953ZM119 47.2953L113 53.2953M105.112 29H101.247L103.181 23.0548L106.977 11.3864H107.341L113.06 29H105.112Z" stroke="#9C0101" stroke-width="1.5" stroke-linejoin="round"/>
<path fill-rule="evenodd" clip-rule="evenodd" d="M121.477 47.2954H129.545L123.545 53.2954H113L119 47.2954H121.477Z" fill="#9C0101" stroke="#9C0101" stroke-width="1.5" stroke-linejoin="round"/>
<path fill-rule="evenodd" clip-rule="evenodd" d="M78.75 53.2954L84.75 47.2954H91.2474H95.2955L89.2955 53.2954H78.75Z" fill="#9C0101" stroke="#9C0101" stroke-width="1.5" stroke-linejoin="round"/>
<path d="M96.7964 42.6816L98.7483 36.6816H115.554L109.554 42.6816H96.7964Z" fill="#9C0101" stroke="#9C0101" stroke-width="1.5" stroke-linejoin="round"/>
<path d="M115.554 36.6816L119 47.2953L113 53.2953L109.554 42.6816L115.554 36.6816Z" fill="#9C0101" stroke="#9C0101" stroke-width="1.5" stroke-linejoin="round"/>
<path d="M119 47.2954L113 53.2954" stroke="#9C0101" stroke-width="1.5" stroke-linejoin="round"/>
<path fill-rule="evenodd" clip-rule="evenodd" d="M41.75 53.2955V6.75L47.75 0.75V47.2955L41.75 53.2955Z" fill="#9C0101" stroke="#9C0101" stroke-width="1.5" stroke-linejoin="round"/>
<path fill-rule="evenodd" clip-rule="evenodd" d="M47.75 47.2955V0.75H66.1136C69.6288 0.75 72.6288 1.37879 75.1136 2.63636C77.6136 3.87879 79.5152 5.64394 80.8182 7.93182C82.1364 10.2045 82.7955 12.8788 82.7955 15.9545C82.7955 19.0455 82.1288 21.7045 80.7955 23.9318C79.4621 26.1439 77.5303 27.8409 75 29.0227C74.8613 29.0879 74.7209 29.1513 74.579 29.2129L84.4545 47.2955H73.5909L67.3824 35.6764L64.7744 30.7955H57.5909V36.7955V47.2955H47.75ZM68.9545 22.1136C70.197 21.5985 71.1212 20.8258 71.7273 19.7955C72.3485 18.7652 72.6591 17.4848 72.6591 15.9545C72.6591 14.4091 72.3485 13.1061 71.7273 12.0455C71.1212 10.9848 70.1894 10.1818 68.9318 9.63636C67.6894 9.07576 66.1212 8.79546 64.2273 8.79546H57.5909V14.7955V22.8864H64.2727C65.1242 22.8864 65.9103 22.8335 66.6311 22.7276C67.5007 22.6 68.2752 22.3953 68.9545 22.1136Z" fill="white" stroke="#9C0101" stroke-width="1.5" stroke-linejoin="round"/>
<path fill-rule="evenodd" clip-rule="evenodd" d="M71.7272 19.7954C71.1211 20.8257 70.1969 21.5984 68.9545 22.1136C68.2751 22.3953 67.5006 22.5999 66.631 22.7276C66.6497 22.4774 66.659 22.2197 66.659 21.9545C66.659 20.409 66.3484 19.106 65.7272 18.0454C65.1211 16.9848 64.1893 16.1818 62.9317 15.6363C61.6893 15.0757 60.1211 14.7954 58.2272 14.7954H57.5908V8.79541H64.2272C66.1211 8.79541 67.6893 9.07571 68.9317 9.63632C70.1893 10.1818 71.1211 10.9848 71.7272 12.0454C72.3484 13.106 72.659 14.409 72.659 15.9545C72.659 17.4848 72.3484 18.7651 71.7272 19.7954Z" fill="#9C0101" stroke="#9C0101" stroke-width="1.5" stroke-linejoin="round"/>
<path fill-rule="evenodd" clip-rule="evenodd" d="M57.5908 30.7954H64.7743L58.7743 36.7954H57.5908V30.7954Z" fill="#9C0101" stroke="#9C0101" stroke-width="1.5" stroke-linejoin="round"/>
<path fill-rule="evenodd" clip-rule="evenodd" d="M41.75 53.2954L47.75 47.2954H57.5909L51.5909 53.2954H41.75Z" fill="#9C0101" stroke="#9C0101" stroke-width="1.5" stroke-linejoin="round"/>
<path fill-rule="evenodd" clip-rule="evenodd" d="M67.3825 35.6763L73.5909 47.2954L67.5909 53.2954L58.7744 36.7954L64.7744 30.7954L67.3825 35.6763Z" fill="#9C0101" stroke="#9C0101" stroke-width="1.5" stroke-linejoin="round"/>
<path fill-rule="evenodd" clip-rule="evenodd" d="M73.5908 47.2954H84.4545L78.4545 53.2954H67.5908L73.5908 47.2954Z" fill="#9C0101" stroke="#9C0101" stroke-width="1.5" stroke-linejoin="round"/>
<path fill-rule="evenodd" clip-rule="evenodd" d="M0.75 16.9319L6.75 10.9319H20.75L14.75 16.9319H0.75Z" fill="#9C0101"/>
<path fill-rule="evenodd" clip-rule="evenodd" d="M0.75 16.9319L6.75 10.9319H20.75L14.75 16.9319H0.75Z" stroke="#9C0101" stroke-width="1.5" stroke-linejoin="round"/>
<path fill-rule="evenodd" clip-rule="evenodd" d="M33.2046 10.9319H47.2046L41.2046 16.9319H33.2046V10.9319Z" fill="#9C0101"/>
<path fill-rule="evenodd" clip-rule="evenodd" d="M33.2046 10.9319H47.2046L41.2046 16.9319H33.2046V10.9319Z" stroke="#9C0101" stroke-width="1.5" stroke-linejoin="round"/>
<path fill-rule="evenodd" clip-rule="evenodd" d="M27.2045 47.2954H33.2045L27.2045 53.2954H14.75L20.75 47.2954H27.2045Z" fill="#9C0101"/>
<path fill-rule="evenodd" clip-rule="evenodd" d="M27.2045 47.2954H33.2045L27.2045 53.2954H14.75L20.75 47.2954H27.2045Z" stroke="#9C0101" stroke-width="1.5" stroke-linejoin="round"/>
<path fill-rule="evenodd" clip-rule="evenodd" d="M20.75 10.9319V47.2955L14.75 53.2955V16.9319L20.75 10.9319Z" fill="#9C0101" stroke="#9C0101" stroke-width="1.5" stroke-linejoin="round"/>
<path fill-rule="evenodd" clip-rule="evenodd" d="M0.75 16.9318V6.75L6.75 0.75V10.9318L0.75 16.9318Z" fill="#9C0101" stroke="#9C0101" stroke-width="1.5" stroke-linejoin="round"/>
<path fill-rule="evenodd" clip-rule="evenodd" d="M6.75 10.9318V0.75H47.2045V10.9318H33.2045V16.9318V47.2955H27.2045H20.75V10.9318H6.75Z" fill="white"/>
<path fill-rule="evenodd" clip-rule="evenodd" d="M6.75 10.9318V0.75H47.2045V10.9318H33.2045V16.9318V47.2955H27.2045H20.75V10.9318H6.75Z" stroke="#9C0101" stroke-width="1.5" stroke-linejoin="round"/>
</svg>
