<svg width="1059" height="1040" viewBox="0 0 1059 1040" fill="none" xmlns="http://www.w3.org/2000/svg">
<path fill-rule="evenodd" clip-rule="evenodd" d="M466.733 0.165542C416.55 2.63246 377.57 8.13129 353.471 16.144C323.004 26.2727 294.489 49.248 267.328 85.5498C249.827 108.943 240.798 119.083 207.23 153.048C148.438 212.535 130.133 235.952 122.893 260.944C119.213 273.648 117.973 287.797 119.285 302.133C121.94 331.135 127.393 348.982 140.187 370.541C152.583 391.428 166.28 420.499 171.517 437.039C174.004 444.891 178.247 466.538 177.299 466.538C176.893 466.538 173.92 465.319 170.692 463.83C158.703 458.298 138.526 459.886 122.877 467.592C111.445 473.221 100.355 484.912 92.4077 499.713C84.4051 514.617 81.518 525.656 80.6862 544.535C80.3533 552.089 79.5016 559.488 78.7508 561.334C76.9443 565.78 68.9387 569.319 51.357 573.443C34.416 577.417 25.5507 581.662 17.4721 589.669C5.21076 601.819 -1.81314 620.142 0.407196 634.187C3.62523 654.552 26.7963 674.232 54.3911 680.038C75.5887 684.499 93.3414 680.201 118.269 664.573C132.731 655.509 138.837 653.776 150.018 655.563C159.16 657.022 165.95 659.445 186.449 668.562C196.154 672.879 213.029 680.016 223.947 684.423C234.866 688.828 252.122 696.311 262.294 701.05C284.793 711.532 317.605 726.326 325.775 729.671C329.074 731.023 331.773 732.638 331.773 733.261C331.773 734.34 320.611 743.381 284.175 771.812C275.164 778.843 262.941 788.576 257.012 793.443C244.583 803.643 230.034 813.837 223.987 816.583C218.784 818.947 208.605 819.09 195.314 816.988C171.885 813.282 145.9 814.123 128.442 819.152C99.4596 827.502 70.4393 850.827 59.7195 874.391C45.3718 905.927 62.4836 945.199 91.8449 948.119C95.5588 948.489 101.27 948.109 106.84 947.122C121.119 944.593 125.559 944.902 129.917 948.73C136.935 954.894 140.18 961.964 147.347 986.712C150.104 996.232 153.891 1007.25 155.763 1011.21C163.495 1027.54 175.979 1035.48 193.959 1035.51C211.794 1035.54 230.012 1024.11 243.23 1004.62C251.444 992.497 254.955 982.676 257.743 964.022C259.551 951.928 261.541 944.97 265.469 937.023C273.845 920.073 292.282 901.954 336.772 866.949C349.968 856.566 364.171 845.321 368.335 841.962C376.284 835.548 392.254 824.732 400.785 819.985L405.814 817.186L413.281 824.611C429.267 840.51 447.675 845.076 470.873 838.902C476.293 837.459 485.677 834.974 491.725 833.38C506.563 829.47 518.851 828.742 532.241 830.982C552.133 834.309 561.083 838.085 576.763 849.766C610.018 874.54 625.166 880.415 652.799 879.261C669.072 878.581 673.815 877.093 685.802 868.907C691.046 865.326 695.926 862.17 696.649 861.892C699.4 860.836 732.234 873.975 765.144 889.3C798.74 904.945 808.77 911.692 811.018 920.16C811.584 922.291 811.976 932.992 811.893 944.022C811.743 963.981 811.749 964.041 814.858 973.097C823.547 998.411 841.05 1018.48 864.817 1030.39C872.311 1034.15 885.426 1038.05 893.605 1038.95C916.143 1041.44 938.319 1023.76 942.375 1000.07C943.336 994.456 943.172 991.864 941.146 980.616C938.207 964.306 938.598 957.438 942.989 948.235C944.723 944.6 948.375 939.182 951.103 936.197C955.882 930.966 959.31 928.489 980.862 914.69C1004.03 899.86 1015.84 886.704 1022.29 868.547C1024.81 861.472 1025.82 842.458 1024.12 834.263C1021.25 820.466 1011.09 806.664 997.17 797.667C986.527 790.786 981.078 789.118 969.583 789.219C959.222 789.311 954.171 790.339 921.597 798.984C908.571 802.441 906.839 802.669 896.604 802.271C887.616 801.922 883.873 801.259 876.111 798.641C863.771 794.48 845.722 785.748 830.099 776.382C823.24 772.269 815.154 767.443 812.13 765.656L806.631 762.408V751.218C806.631 740.977 806.393 739.544 803.821 734.305C802.276 731.156 799.178 727.012 796.939 725.094L792.867 721.608L792.948 712.32C792.993 707.21 792.491 701.017 791.833 698.556C790.758 694.538 790.862 693.62 792.854 689.556C794.351 686.506 795.632 680.633 796.786 671.531C797.857 663.092 798.989 657.733 799.806 657.237C800.526 656.8 802.805 653.386 804.873 649.649C809.19 641.846 814.762 636.627 832.371 623.896C838.899 619.175 849.273 611.421 855.427 606.664C887.602 581.789 918.251 560.585 931.094 554.313C947.261 546.417 960.169 543.444 986.578 541.534C1007.92 539.99 1021.6 538.051 1029.19 535.493C1043.59 530.642 1054.02 519.881 1057.69 506.082C1060.29 496.316 1058.67 483.243 1053.05 468.663C1043.82 444.728 1029.41 433.151 1004.32 429.507C996.551 428.378 994.719 427.495 997.096 426.025C998.749 425.004 1003.89 414.174 1006.46 406.284C1013.09 385.953 1011.91 364.736 1002.99 344.318C991.418 317.824 972.496 302.244 951.92 302.269C945.433 302.277 943.224 302.76 937.566 305.408C925.463 311.074 914.495 325.283 908.519 343.042C906.11 350.201 905.748 353.142 905.073 371.041C904.259 392.607 903.576 395.965 897.753 407.01C892.934 416.148 875.011 432.772 872.588 430.349C872.257 430.017 871.333 427.337 870.535 424.392C869.18 419.391 868.608 413.496 866.223 379.949C864.693 358.412 858.95 346.005 844.23 332.439C836.668 325.469 836.656 325.45 835.404 318.251C833.817 309.141 834.705 300.354 840.119 271.545C845.602 242.376 846.474 233.905 845.83 216.142C845.257 200.396 843.784 192.458 838.563 176.968C834.56 165.093 825.186 146.357 817.339 134.548C809.514 122.772 790.906 101.939 779.307 91.9676C757.022 72.8112 727.79 59.1017 696.664 53.2088C683.34 50.6869 682.274 50.5699 658.584 49.056C626.708 47.018 623.478 45.9591 602.192 30.5716C581.735 15.782 566.566 9.38425 536.712 2.95145C525.87 0.615527 522.262 0.340537 499.223 0.0945453C485.202 -0.0554499 470.582 -0.0234517 466.733 0.165542ZM516.873 12.5351C527.924 13.5321 546.073 17.311 558.705 21.2439C570.835 25.0197 583.461 31.7085 596.194 41.1012C615.995 55.7088 624.641 58.9837 647.679 60.5996C689.028 63.5025 698.436 64.9305 717.158 71.1513C738.038 78.088 756.807 88.5207 771.642 101.433C782.287 110.7 800.525 130.974 807.279 141.048C814.898 152.413 823.994 171.166 828.011 183.788C836.092 209.184 836.214 227.301 828.575 267.224C824.456 288.75 822.171 304.237 822.145 310.793C822.135 313.405 821.779 315.542 821.354 315.542C820.015 315.542 809.775 308.519 806.293 305.212C797.703 297.053 789.636 284.689 785.552 273.422C784.679 271.014 782.002 261.432 779.602 252.129C777.203 242.827 774.583 234.559 773.78 233.755C771.993 231.967 767.68 231.854 765.646 233.542C764.82 234.229 764.144 236.263 764.144 238.063C764.144 242.726 771.718 271.642 775.271 280.544C782.716 299.199 794.939 313.487 813.457 325.183C835.25 338.947 843.134 346.204 849.043 357.938C853.079 365.958 853.824 370.471 855.063 394.435C856.598 424.153 858.498 431.887 870.563 457.538C874.572 466.063 878.397 475.365 879.063 478.211C881.526 488.746 878.001 502.424 869.535 515.178C863.093 524.883 856.006 531.603 845.995 537.502C822.306 551.462 809.684 562.553 803.772 574.608C798.715 584.922 797.977 589.689 797.261 616.702C796.916 629.718 796.263 640.74 795.81 641.192C795.356 641.645 794.558 641.253 794.037 640.321C788.651 630.694 779.707 624.586 769.854 623.803C761.95 623.175 756.606 624.638 750.91 628.987C745.957 632.77 737.461 643.428 735.926 647.782C734.548 651.693 733.005 651.203 730.231 645.97C726.933 639.753 719.225 633.047 712.995 630.978C705.838 628.6 695.982 629.408 688.706 632.969C682.583 635.965 673.805 643.511 670.083 648.978C668.758 650.925 667.169 652.521 666.552 652.525C665.935 652.529 664.361 650.966 663.053 649.051C660.075 644.693 653.062 639.393 647.179 637.055C640.629 634.453 630.021 634.616 623.686 637.417C618.307 639.796 610.925 646.329 608.584 650.782C606.906 653.976 605.568 654.294 604.744 651.694C603.705 648.423 595.188 640.417 590.576 638.376C578.131 632.869 559.982 639.102 549.006 652.653C543.484 659.469 538.231 671.513 538.196 677.438C538.172 681.55 536.836 683.012 534.884 681.06C532.527 678.702 531.451 673.645 530.194 659.031C527.766 630.809 522.982 616.955 511.933 606.152C508.492 602.787 502.987 598.694 499.7 597.057C494.124 594.279 492.823 594.057 480.204 593.716C463.748 593.273 451.31 595.263 427.745 602.112C408.566 607.687 397.969 608.755 388.673 606.052C380.171 603.58 370.778 593.763 363.264 579.501C355.763 565.262 345.5 554.766 333.273 548.827C323.111 543.892 317.077 542.529 305.482 542.552C294.692 542.574 284.75 544.614 278.289 548.132C271.374 551.896 264.658 558.598 263.776 562.612C263.154 565.447 263.437 566.26 265.726 568.23C269.206 571.224 270.83 571.135 273.906 567.784C279.707 561.467 280.976 560.39 284.822 558.523C292.625 554.735 305.542 553.515 316.392 555.54C330.149 558.109 344.339 569.29 351.616 583.298C353.692 587.293 357.343 593.475 359.73 597.035L364.07 603.508L359.988 604.608C357.742 605.212 354.696 607.002 353.219 608.584C345.56 616.785 350.646 628.754 367.75 642.786C379.21 652.186 387.203 660.735 390.268 666.871C391.911 670.16 393.255 673.402 393.255 674.077C393.255 677.056 369.368 677.59 348.92 675.069C324.212 672.023 302.639 666.622 284.708 658.995C244.429 641.861 220.161 619.661 206.423 587.383C198.649 569.117 197.411 560.909 195.363 514.036C194.381 491.573 190.072 460.41 185.288 441.182C181.001 423.955 164.366 387.111 150.707 364.593C137.536 342.879 131.345 319.599 131.337 291.751C131.325 253.251 142.619 235.839 215.779 161.547C250.822 125.963 258.887 116.91 276.298 93.6115C306.925 52.6289 334.924 32.2175 372.261 23.6548C395.075 18.424 432.141 13.5821 449.523 13.5631C458.886 13.5521 459.261 13.6351 458.27 15.486C456.341 19.0929 457.223 20.7459 466.072 30.0976C477.613 42.2952 481.941 48.69 483.207 55.4088C484.361 61.5306 483.938 65.4105 480.741 78.05C477.49 90.9046 477.111 94.5315 478.325 101.166C481.122 116.432 495.257 132.573 511.108 138.597C524.308 143.615 534.614 142.967 547.709 136.297C561.099 129.476 563.067 128.548 564.147 128.548C565.172 128.548 571.329 132.876 578.252 138.463C580.205 140.039 583.331 144.191 585.199 147.688C589.726 156.164 589.742 163.112 585.267 176.479C579.415 193.961 579.943 198.429 589.575 212.955C593.516 218.899 598.101 228.046 602.817 239.378C606.785 248.912 610.811 257.573 611.765 258.627C613.835 260.915 618.446 261.142 620.19 259.041C622.771 255.929 622.142 253.856 609.676 224.411C607.899 220.213 603.693 212.53 600.33 207.336C596.966 202.143 593.956 196.578 593.641 194.97C593.26 193.03 594.32 188.178 596.792 180.547C599.832 171.161 600.533 167.484 600.603 160.547C600.681 152.745 600.389 151.422 597.048 144.419C595.047 140.223 591.733 134.936 589.686 132.669C587.005 129.7 586.422 128.548 587.603 128.548C589.987 128.548 600.959 133.697 607.518 137.894C623.345 148.022 633.509 151.535 647.111 151.579C660.082 151.621 670.748 153.125 675.447 155.575C677.594 156.695 682.47 160.295 686.283 163.578C693.489 169.782 696.242 170.692 699.334 167.892C702.669 164.873 701.625 161.558 695.516 155.782C681.992 142.987 675.978 140.691 653.177 139.615C634.245 138.722 630.703 137.718 617.06 129.381C599.135 118.427 588.128 114.549 574.958 114.549C565.425 114.549 559.631 116.38 544.738 124.097L533.769 129.779L526.243 129.329C516.354 128.737 508.657 125.116 500.956 117.429C490.47 106.963 487.972 96.9254 492.187 82.1829C496.97 65.4535 496.93 53.7728 492.056 43.7011C489.408 38.2303 477.486 23.7518 470.349 17.342L465.105 12.6321L473.917 12.2972C492.858 11.5792 507.151 11.6582 516.873 12.5351ZM328.268 152.419C319.875 155.185 314.278 160.658 314.278 166.101C314.278 168.606 314.923 169.924 316.729 171.107C319.82 173.133 322.61 172.29 325.292 168.523C327.964 164.769 332.524 163.551 343.77 163.587C367.772 163.666 385.034 171.081 401.339 188.318C413.247 200.905 419.065 212.612 421.213 228.302C422.573 238.24 421.171 251.468 417.531 263.044C411.52 282.155 403.633 292.9 379.59 314.73C363.847 329.024 357.594 336.538 352.705 347.041C346.956 359.389 345.956 364.982 345.732 386.04C345.621 396.49 345.084 406.394 344.538 408.048C340.422 420.546 329.101 433.969 315.278 442.745C306.506 448.315 297.244 451.497 284.989 453.153C258.437 456.739 251.505 459.281 242.972 468.563C237.04 475.014 230.642 486.371 231.572 488.796C231.915 489.689 233.345 491.173 234.748 492.094C237.107 493.64 237.489 493.644 239.773 492.147C241.132 491.256 243.88 487.942 245.879 484.782C254.404 471.303 258.751 469.034 281.808 466.019C295.976 464.167 302.878 462.49 310.878 458.956C329.203 450.861 347.271 433.014 353.994 416.362C357.501 407.676 358.276 401.678 358.024 385.179C357.77 368.613 358.648 363.24 363.31 352.846C367.473 343.561 371.833 338.381 388.02 323.487C414.516 299.106 424.283 284.95 430.409 262.044C438.642 231.259 432.033 203.383 411.249 181.228C398.357 167.485 383.804 158.17 368.762 154.035C362.06 152.192 332.531 151.014 328.268 152.419ZM528.214 314.046C519.652 316.388 509.545 321.937 499.742 329.678C494.804 333.577 489.631 337.221 488.245 337.775C486.861 338.33 479.879 339.156 472.731 339.611C465.096 340.097 456.642 341.299 452.237 342.525C440.949 345.667 425.573 353.648 418.535 360.018C405.432 371.879 401.694 381.935 399.758 410.539C398.792 424.809 397.589 433.928 395.27 444.538C391.301 462.699 390.393 477.27 392.635 486.787C396.014 501.124 405.107 513.383 416.501 518.959C419.457 520.406 425.398 522.308 429.704 523.186C440.581 525.405 447.259 524.161 462.111 517.152C468.502 514.136 475.53 511.146 477.73 510.508C479.929 509.87 491.4 509.009 503.222 508.595C522.866 507.906 525.403 507.607 532.713 505.123C548.396 499.793 563.289 488.251 572.588 474.221C581.794 460.332 585.646 447.685 588.179 423.039C588.8 416.989 590.902 404.84 592.848 396.04C596.13 381.204 596.349 379.167 595.861 368.041C594.609 339.524 584.659 323.991 562.383 315.781C553.787 312.614 536.636 311.743 528.214 314.046ZM698.664 313.892C685.519 317.316 674.017 326.938 667.773 339.731C657.057 361.682 659.319 381.242 674.547 398.313C677.623 401.762 680.77 405.811 681.54 407.31C683.935 411.977 685.145 420.374 686.114 439.038C687.079 457.643 687.741 460.818 692.687 470.581C703.543 492.01 737.695 504.735 758.666 495.166C761.954 493.666 768.027 490.222 772.161 487.513C782.656 480.636 789.162 478.629 804.133 477.65C818.105 476.735 822.799 475.076 827.663 469.332C833.963 461.89 839.122 444.875 839.122 431.539C839.122 423.113 836.396 410.1 833.118 402.868C826.338 387.912 810.282 369.284 799.806 364.22C796.602 362.671 788.996 360.127 782.902 358.567L771.825 355.731L758.238 341.722C743.373 326.396 733.6 319.185 722.832 315.601C714.751 312.911 705.06 312.226 698.664 313.892ZM964.584 317.424C972.235 321.097 978.113 326.228 983.117 333.597C995.337 351.598 1000.22 369.427 997.983 387.852C996.003 404.142 990.557 416.685 981.323 426.231C975.273 432.484 973.754 435.098 974.483 438.003C975.466 441.919 978.085 442.735 985.749 441.511C990.501 440.751 995.008 440.747 1001.16 441.496C1024.11 444.286 1035.6 454.089 1043.44 477.562C1049.86 496.752 1047.08 509.811 1034.59 519.244C1027.15 524.862 1018.81 526.604 987.577 529.073C957.685 531.435 940.558 535.533 923.596 544.381C912.167 550.343 888.916 566.234 863.091 585.735C829.151 611.364 811.152 624.533 810.062 624.533C808.821 624.533 808.89 607.281 810.177 596.039C811.27 586.492 813.98 579.218 818.797 572.902C822.594 567.921 836.437 557.4 849.539 549.535C855.496 545.96 862.419 541.236 864.925 539.037C876.919 528.516 887.768 510.452 890.574 496.329C893.5 481.601 892.274 474.959 883.071 455.717C879.784 448.843 877.211 443.139 877.353 443.041C877.494 442.943 879.859 441.358 882.609 439.519C895.946 430.598 904.739 420.791 910.581 408.32C915.348 398.148 917.098 388.32 917.098 371.743C917.098 350.717 921.367 337.364 932.243 324.366C940.548 314.439 952.864 311.797 964.584 317.424ZM553.571 326.031C565.191 328.494 574.562 335.396 578.944 344.723C583.897 355.26 585.481 372.966 582.644 386.04C578.416 405.516 577.245 412.18 575.77 425.122C574.888 432.868 573.242 442.542 572.113 446.621C566.455 467.065 554.772 481.168 535.712 490.563C525.867 495.415 519.243 496.52 499.92 496.529C481.318 496.539 474.425 498.018 458.735 505.368C448.35 510.234 445.771 511.04 439.535 511.37C416.567 512.583 401.518 494.707 403.579 468.656C403.91 464.466 405.52 454.738 407.158 447.038C410.341 432.07 412.249 416.528 412.249 405.571C412.249 381.818 422.364 367.127 445.022 357.973C455.516 353.733 462.354 352.357 474.231 352.096C488.92 351.772 493.646 350.002 506.089 340.159C524.152 325.869 536.071 322.322 553.571 326.031ZM718.872 327.146C727.666 330.096 735.432 335.662 746.399 346.876C754.661 355.325 757.146 358.486 757.146 360.548C757.146 364.992 760.18 366.638 772.872 369.078C793.424 373.029 798.671 375.806 809.115 388.272C822.257 403.96 826.524 414.552 826.548 431.539C826.559 439.59 826.05 443.67 824.367 449.038C820.032 462.857 816.647 465.526 803.414 465.555C789.089 465.587 777.437 469.196 765.476 477.304C752.164 486.326 746.006 487.815 733.483 485.037C716.221 481.207 704.504 471.842 700.478 458.659C699.702 456.118 698.622 445.938 698.077 436.039C696.586 408.941 694.675 402.638 684.52 391.325C681.417 387.868 677.763 382.628 676.4 379.679C668.223 361.984 677.694 336.258 695.427 328C701.745 325.058 711.579 324.7 718.872 327.146ZM625.888 470.92C619.278 473.382 614.577 477.203 610.33 483.565C604.933 491.65 603.275 497.497 602.257 512.036C601.794 518.636 600.964 525.179 600.41 526.575C599.856 527.972 596.665 532.921 593.318 537.574C581.458 554.063 575.888 569.152 575.799 585.034C575.731 597.292 577.876 603.339 584.719 610.185C593.902 619.37 605.159 620.82 617.519 614.409C620.911 612.65 625.829 610.098 628.448 608.737C634.995 605.338 644.468 604.758 656.199 607.037C677.051 611.089 689.788 605.26 697.887 587.964C700.277 582.858 700.663 580.783 700.663 573.034C700.663 564.394 700.499 563.734 696.571 556.5C694.321 552.355 689.329 544.705 685.478 539.5C676.351 527.161 676.226 526.894 674.616 516.185C672.099 499.451 667.375 489.522 657.82 480.882C647.986 471.99 634.397 467.751 625.888 470.92ZM168.204 476.314C171.813 478.207 175.587 479.475 177.136 479.314C179.719 479.047 179.865 479.299 181.048 486.037C181.724 489.887 182.73 504.061 183.284 517.536C185.021 559.862 186.585 570.361 193.902 588.85C208.661 626.138 239.176 654.267 284.123 672.015C309.033 681.852 343.909 688.624 371.01 688.89C378.845 688.967 385.255 689.34 385.256 689.719C385.26 691.932 345.87 724.529 343.193 724.529C342.507 724.529 340.071 723.429 337.777 722.086C335.485 720.742 330.273 718.316 326.194 716.693C322.114 715.071 309.78 709.596 298.783 704.527C287.786 699.458 270.652 691.562 260.708 686.982C250.764 682.401 234.794 675.521 225.219 671.694C215.644 667.866 199.713 661.148 189.816 656.766C169.687 647.85 162 645.146 151.934 643.443C138.47 641.165 129.084 643.617 112.808 653.664C107.326 657.047 99.9175 661.279 96.3435 663.067C73.0895 674.704 42.6466 669.652 23.8192 651.032C14.446 641.762 12.8595 638.345 12.9035 627.532C12.9335 620.129 13.3453 618.161 16.0965 612.267C20.0803 603.734 28.4808 594.779 35.9196 591.137C38.9817 589.637 45.3938 587.501 50.1703 586.389C75.7257 580.441 85.0719 575.889 89.5146 567.226C91.293 563.759 91.8139 560.317 92.5277 547.318C93.1765 535.5 94.0082 529.47 95.8787 523.011C101.786 502.621 114.833 484.742 128.442 478.389C133.156 476.188 137.002 474.956 144.829 473.138C145.929 472.882 150.231 472.755 154.391 472.855C160.792 473.009 162.914 473.54 168.204 476.314ZM642.402 484.687C654.055 490.518 660.594 501.281 662.095 517.104C663.069 527.361 665.688 533.04 675.67 546.535C686.254 560.844 689.599 568.045 688.884 574.977C688.217 581.449 684.204 589.66 680.376 592.387C674.653 596.462 669.524 596.939 655.997 594.651C638.96 591.769 633.378 592.585 618.779 600.092C610.597 604.299 606.818 605.7 603.645 605.7C591.906 605.7 586.219 596.024 588.246 579.499C589.911 565.908 593.166 558.91 607.376 538.369C612.548 530.893 614.189 525.155 614.189 514.536C614.189 497.676 620.303 485.347 630.054 482.544C633.403 481.582 637.678 482.324 642.402 484.687ZM496.079 609.017C510.099 616.738 515.481 629.464 518.242 661.426C519.525 676.264 520.892 681.93 524.507 687.395C526.606 690.567 528.703 692.027 536.123 695.479C536.898 695.84 538.128 698.177 538.855 700.673C539.583 703.17 541.92 707.196 544.05 709.621C547.026 713.01 547.74 714.493 547.136 716.03C546.703 717.13 546.318 720.842 546.279 724.279L546.209 730.529H541.699C539.22 730.529 533.034 731.468 527.954 732.617C517.675 734.94 510.302 734.722 503.051 731.88C492.182 727.62 480.205 717.411 475.832 708.677C470.34 697.71 470.049 687.064 474.639 665.031C478.565 646.19 479.6 635.485 478.246 627.685C476.796 619.323 474.372 613.873 470.395 610.033C468.686 608.383 467.276 606.648 467.261 606.178C467.245 605.707 472.519 605.49 478.979 605.695C489.742 606.037 491.175 606.315 496.079 609.017ZM447.648 613.033C449.474 614.86 451.215 615.533 454.115 615.533C459.05 615.533 463.565 619.051 465.385 624.316C467.581 630.667 466.778 643.636 463.143 660.531C460.331 673.606 459.809 678.065 459.807 689.03C459.806 700.224 460.123 702.827 462.086 707.766C467.506 721.396 479.483 733.951 493.725 740.928C506.224 747.052 516.362 747.863 533.196 744.084C538.002 743.006 542.36 742.637 545.387 743.053C549.614 743.635 550.511 744.248 554.115 749.023C561.246 758.469 573.81 762.528 585.449 759.143C591.782 757.302 600.459 750.162 603.716 744.115C604.778 742.143 606.137 740.529 606.737 740.529C610.207 740.529 618.581 744.043 623.49 747.56C633.438 754.685 641.653 757.949 649.678 757.965C659.629 757.986 665.144 754.813 671.247 745.558L672.822 743.169L680.499 747.955C690.367 754.107 698.159 756.528 708.09 756.528C714.74 756.528 716.711 756.092 721.983 753.457C728.481 750.21 733.426 745.158 735.377 739.779C736.562 736.508 737.947 735.758 739.701 737.438C741.37 739.035 751.032 741.435 758.529 742.115C767.42 742.921 774.641 741.076 782.009 736.117C787.084 732.7 787.085 732.7 789.515 734.612C794.974 738.907 796.615 751.576 793.15 762.673C788.733 776.821 781.478 784.339 755.646 801.54C739.36 812.383 730.303 819.192 717.195 830.446C707.926 838.404 683.566 856.277 673.671 862.381C670.219 864.511 666.352 865.822 661.175 866.618C652.071 868.019 635.948 867.236 627.685 864.992C616.288 861.897 601.442 853.34 582.571 838.992C572.175 831.086 565.552 827.374 556.206 824.214C544.118 820.126 534.568 818.416 520.717 817.857C506.095 817.268 497.892 818.567 475.23 825.059C459.556 829.55 450.97 830.346 442.265 828.113C433.959 825.982 428.031 822.481 421.6 815.907C412.686 806.798 409.096 796.883 407.229 776.218C406.134 764.106 406.309 759.534 409.237 723.683C410.323 710.397 409.213 690.303 406.693 677.613C404.769 667.926 398.604 655.465 392.511 648.945C389.896 646.148 383.157 639.946 377.535 635.163C366.848 626.07 362.264 620.976 362.264 618.189C362.264 616.757 363.629 616.533 372.327 616.533C377.861 616.533 383.207 616.971 384.207 617.506C385.206 618.041 389.213 618.974 393.111 619.579C402.109 620.975 410.514 619.773 428.466 614.522C435.767 612.386 442.507 610.615 443.445 610.586C444.382 610.557 446.273 611.658 447.648 613.033ZM774.862 637.639C780.142 640.196 783.684 645.144 785.253 652.157C786.212 656.443 786.115 659.752 784.723 670.218C783.785 677.265 782.475 683.585 781.812 684.263C778.502 687.639 755.538 688.655 744.606 685.909L738.152 684.288L738.143 679.159C738.139 676.339 737.858 671.731 737.521 668.92C736.935 664.046 737.025 663.78 739.48 663.163C741.415 662.678 742.817 660.92 745.12 656.094C748.951 648.064 755.951 639.369 760.318 637.217C764.848 634.984 769.668 635.124 774.862 637.639ZM710.753 643.143C718.479 646.81 723.516 656.568 725.409 671.531C726.915 683.436 726.038 687.258 721.347 689.244C716.692 691.215 700.041 693.48 689.993 693.508C683.416 693.527 681.919 693.198 679.496 691.2C677.942 689.919 675.95 688.609 675.07 688.289C673.817 687.833 673.321 685.553 672.785 677.783C672.144 668.475 672.252 667.593 674.506 663.624C677.897 657.652 685.713 648.841 690.019 646.137C697.601 641.374 704.828 640.33 710.753 643.143ZM644.68 649.432C654.488 653.984 659.912 664.903 660.883 682.051C661.425 691.631 661.34 692.226 659.044 694.896C656.016 698.417 644.94 701.298 630.954 702.201C621.466 702.814 621.128 702.761 617.208 700.044C614.998 698.512 613.189 696.609 613.189 695.816C613.189 695.023 612.698 688.994 612.098 682.419L611.008 670.462L613.561 668.453C615.006 667.316 616.395 664.942 616.763 662.983C617.588 658.588 622.296 652.045 626.465 649.503C630.66 646.944 639.248 646.911 644.68 649.432ZM590.228 653.282C596.997 660.057 599.724 670.438 600.408 692.03L600.693 701.03L597.077 702.799C591.23 705.659 577.45 707.006 567.088 705.73C556.245 704.394 553.245 703.061 550.887 698.529C549.387 695.648 549.151 693.44 549.549 686.031C550.33 671.492 555.428 660.869 564.813 654.231C570.664 650.091 574.563 648.702 580.592 648.608C585.136 648.537 585.819 648.869 590.228 653.282ZM743.15 698.257C748.177 699.919 763.269 700.405 772.832 699.215L779.022 698.444L780.075 702.237C783.069 713.023 780.172 723.456 773.077 727.445C767.226 730.734 754.076 730.486 745.558 726.926C743.745 726.169 741.563 725.818 740.707 726.146C739.456 726.626 739.151 725.945 739.151 722.671C739.151 720.432 738.253 713.972 737.155 708.315C734.685 695.591 734.676 695.118 736.902 696.043C737.864 696.443 740.676 697.44 743.15 698.257ZM397.5 705.53C397.745 709.655 397.381 719.779 396.688 728.029C393.583 765.012 393.951 780.564 398.339 797.904C399.435 802.236 400.202 805.883 400.043 806.008C399.883 806.134 394.318 809.66 387.677 813.844C374.45 822.178 368.264 826.77 332.197 855.025C275.377 899.538 257.005 919.52 249.416 945.057C248.277 948.888 246.422 957.551 245.293 964.309C242.977 978.166 240.115 986.896 235.179 995.151C231.35 1001.56 220.811 1012.72 214.735 1016.81C201.725 1025.56 184.644 1025.63 174.526 1016.96C168.894 1012.14 164.604 1002.86 158.849 983.041C151.491 957.701 147.356 948.616 139.693 940.951C132.268 933.525 124.578 931.699 110.77 934.083C105.31 935.026 98.2699 935.783 95.1269 935.765C82.0398 935.692 72.3197 926.161 67.895 909.063C63.5903 892.431 69.2706 875.797 84.768 859.652C100.403 843.363 121.089 832.153 142.33 828.46C154.162 826.403 177.325 826.826 196.679 829.453C222.452 832.95 226.374 831.711 254.052 811.325C256.942 809.197 265.009 802.701 271.98 796.889C278.951 791.077 289.183 782.91 294.717 778.74C300.253 774.569 311.079 766.153 318.777 760.038C326.475 753.923 341.095 742.456 351.267 734.554C370.217 719.833 386.088 706.481 392.203 700.115C394.099 698.141 395.965 696.864 396.351 697.278C396.736 697.692 397.253 701.405 397.5 705.53ZM689.884 705.527C695.263 705.526 703.712 704.994 708.661 704.346C724.667 702.249 723.383 701.698 725.398 711.53C726.826 718.495 726.953 721.29 726.102 727.015C724.778 735.929 722.703 739.475 717.173 742.279C709.32 746.26 698.53 744.705 687.389 737.984C684.243 736.087 680.319 734.533 678.669 734.533L675.67 734.531L676.016 724.47C676.266 717.178 675.922 713.069 674.767 709.532C672.549 702.751 672.662 702.42 676.638 704.081C678.865 705.012 683.6 705.529 689.884 705.527ZM663.788 715.284C664.867 721.035 663.638 732.714 661.431 737.695C656.532 748.747 646.093 748.6 629.955 737.252C622.881 732.278 616.557 729.529 612.188 729.529C609.257 729.529 609.234 729.486 609.843 725.043C610.196 722.471 609.916 718.621 609.186 716.016C608.486 713.517 608.12 711.267 608.37 711.016C608.621 710.766 610.578 711.453 612.719 712.545C619.508 716.008 644.103 714.678 656.676 710.169C661.357 708.49 662.693 709.452 663.788 715.284ZM597.492 719.279C598.204 722.969 596.445 732.117 594.163 736.592C587.809 749.051 572.107 751.923 564.035 742.105C561.313 738.793 558.037 727.396 558.389 722.462L558.705 718.03L570.702 718.313C577.3 718.469 584.948 718.185 587.697 717.681C596.195 716.124 596.905 716.24 597.492 719.279ZM820.526 784.711C860.783 808.692 885.535 817.29 906.671 814.639C911.1 814.084 923.243 811.341 933.656 808.544C944.068 805.746 956.687 802.756 961.698 801.899C970.032 800.474 971.352 800.48 977.193 801.971C985.287 804.038 992.866 808.524 1000.1 815.528C1009.28 824.426 1013.04 833.849 1013.06 848.065C1013.08 866.024 1005.96 880.126 990.309 893.08C986.607 896.145 976.381 903.193 967.583 908.742C931.855 931.282 922.704 948.876 929.157 982.616C930.858 991.51 931.036 994.382 930.176 999.036C928.114 1010.19 921.142 1019.13 910.6 1024.13C898.406 1029.91 876.754 1025.18 858.419 1012.73C845.223 1003.76 831.938 985.945 826.607 970.062C824.072 962.509 823.938 961.087 823.786 940.077C823.636 919.359 823.487 917.72 821.326 913.023C818.395 906.654 814.316 902.368 806.012 896.93C792.985 888.399 750.923 868.53 724.656 858.498C716.958 855.558 710.435 852.973 710.16 852.753C709.885 852.533 711.444 850.929 713.624 849.189C715.804 847.449 722.777 841.596 729.119 836.18C735.462 830.765 748.571 821.006 758.251 814.494C784.867 796.587 794.084 788.465 799.767 777.91C800.768 776.05 802.003 774.528 802.51 774.528C803.016 774.528 811.124 779.111 820.526 784.711Z" fill="black"/>
</svg>
