<svg width="112" height="112" viewBox="0 0 112 112" fill="none" xmlns="http://www.w3.org/2000/svg">
<rect x="1.5" y="1.5" width="109" height="109" rx="6.5" fill="#FF0000"/>
<rect x="1.5" y="1.5" width="109" height="109" rx="6.5" stroke="#9C0101" stroke-width="3"/>
<path fill-rule="evenodd" clip-rule="evenodd" d="M60.7302 24V30.4567V74.0887L54.2734 80.5454V30.4567L60.7302 24Z" fill="#9C0101" stroke="#9C0101" stroke-width="1.5" stroke-linejoin="round"/>
<path fill-rule="evenodd" clip-rule="evenodd" d="M71.6136 39.5305H71.3201V33.0737H78.0703C81.2009 33.0737 83.8341 33.6281 85.97 34.7368C88.106 35.8456 89.712 37.5739 90.7881 39.9218C91.8806 42.2697 92.4268 45.2943 92.4268 48.9955C92.4268 52.7293 91.8806 55.7783 90.7881 58.1426C89.712 60.4905 88.0978 62.2269 85.9456 63.3519C85.5206 63.5726 85.076 63.7712 84.6116 63.9479C85.5172 61.6837 85.97 58.8518 85.97 55.4522C85.97 51.751 85.4238 48.7265 84.3314 46.3786C83.2553 44.0306 81.6492 42.3023 79.5133 41.1936C77.3773 40.0848 74.7441 39.5305 71.6136 39.5305Z" fill="#9C0101" stroke="#9C0101" stroke-width="1.5" stroke-linejoin="round"/>
<path fill-rule="evenodd" clip-rule="evenodd" d="M72.0295 80.5454H54.2734L60.7302 74.0887H78.4862C83.5734 74.0887 87.9431 73.086 91.5954 71.0805C91.9728 70.8742 92.3411 70.6587 92.7004 70.4339C90.812 73.4459 88.2914 75.8137 85.1386 77.5372C81.4863 79.5427 77.1166 80.5454 72.0295 80.5454Z" fill="#9C0101" stroke="#9C0101" stroke-width="1.5" stroke-linejoin="round"/>
<path fill-rule="evenodd" clip-rule="evenodd" d="M78.486 74.0887H60.73V30.4567V24H78.6328C83.671 24 88.0081 25.0028 91.6441 27.0083C95.2801 28.9974 98.0764 31.859 100.033 35.5928C102.006 39.3266 102.992 43.7941 102.992 48.9955C102.992 54.213 102.006 58.6969 100.033 62.447C98.2777 65.8113 95.8334 68.4737 92.7002 70.4339C92.3409 70.6586 91.9726 70.8742 91.5952 71.0804C87.9429 73.086 83.5732 74.0887 78.486 74.0887ZM71.32 65.015H78.0458C80.5535 65.015 82.7421 64.6593 84.6116 63.9478C85.0759 63.7712 85.5206 63.5725 85.9455 63.3519C88.0978 62.2269 89.712 60.4904 90.7881 58.1425C91.8805 55.7782 92.4267 52.7293 92.4267 48.9955C92.4267 45.2942 91.8805 42.2697 90.7881 39.9218C89.712 37.5739 88.1059 35.8455 85.97 34.7368C83.834 33.628 81.2008 33.0737 78.0703 33.0737H71.32V39.5304V65.015Z" fill="white" stroke="#9C0101" stroke-width="1.5" stroke-linejoin="round"/>
<path fill-rule="evenodd" clip-rule="evenodd" d="M9 41.4137L15.4567 34.957H30.5225L24.0657 41.4137H9Z" fill="#9C0101"/>
<path fill-rule="evenodd" clip-rule="evenodd" d="M9 41.4137L15.4567 34.957H30.5225L24.0657 41.4137H9Z" stroke="#9C0101" stroke-width="1.5" stroke-linejoin="round"/>
<path fill-rule="evenodd" clip-rule="evenodd" d="M43.9253 34.957H58.991L52.5343 41.4137H43.9253V34.957Z" fill="#9C0101"/>
<path fill-rule="evenodd" clip-rule="evenodd" d="M43.9253 34.957H58.991L52.5343 41.4137H43.9253V34.957Z" stroke="#9C0101" stroke-width="1.5" stroke-linejoin="round"/>
<path fill-rule="evenodd" clip-rule="evenodd" d="M37.4683 74.0886H43.9251L37.4683 80.5454H24.0657L30.5224 74.0886H37.4683Z" fill="#9C0101"/>
<path fill-rule="evenodd" clip-rule="evenodd" d="M37.4683 74.0886H43.9251L37.4683 80.5454H24.0657L30.5224 74.0886H37.4683Z" stroke="#9C0101" stroke-width="1.5" stroke-linejoin="round"/>
<path fill-rule="evenodd" clip-rule="evenodd" d="M30.5224 34.957V74.0888L24.0657 80.5455V41.4137L30.5224 34.957Z" fill="#9C0101" stroke="#9C0101" stroke-width="1.5" stroke-linejoin="round"/>
<path fill-rule="evenodd" clip-rule="evenodd" d="M9 41.4137V30.4567L15.4567 24V34.9569L9 41.4137Z" fill="#9C0101" stroke="#9C0101" stroke-width="1.5" stroke-linejoin="round"/>
<path fill-rule="evenodd" clip-rule="evenodd" d="M15.4568 34.9569V24H58.9909V34.9569H43.9252V41.4137V74.0887H37.4684H30.5225V34.9569H15.4568Z" fill="white"/>
<path fill-rule="evenodd" clip-rule="evenodd" d="M15.4568 34.9569V24H58.9909V34.9569H43.9252V41.4137V74.0887H37.4684H30.5225V34.9569H15.4568Z" stroke="#9C0101" stroke-width="1.5" stroke-linejoin="round"/>
</svg>
