<svg width="90" height="57" viewBox="0 0 90 57" fill="none" xmlns="http://www.w3.org/2000/svg">
<path fill-rule="evenodd" clip-rule="evenodd" d="M49 2V8V48.5454L43 54.5454V8L49 2Z" fill="#9C0101" stroke="#9C0101" stroke-width="1.5" stroke-linejoin="round"/>
<path fill-rule="evenodd" clip-rule="evenodd" d="M59.1135 16.4319H58.8408V10.4319H65.1135C68.0226 10.4319 70.4696 10.947 72.4545 11.9774C74.4393 13.0076 75.9317 14.6137 76.9317 16.7955C77.9469 18.9774 78.4545 21.788 78.4545 25.2274C78.4545 28.697 77.9469 31.5303 76.9317 33.7274C75.9317 35.9092 74.4317 37.5228 72.4317 38.5682C72.0368 38.7733 71.6236 38.9578 71.1922 39.122C72.0337 37.018 72.4545 34.3864 72.4545 31.2274C72.4545 27.788 71.9469 24.9774 70.9317 22.7955C69.9317 20.6137 68.4393 19.0076 66.4545 17.9774C64.4696 16.947 62.0226 16.4319 59.1135 16.4319Z" fill="#9C0101" stroke="#9C0101" stroke-width="1.5" stroke-linejoin="round"/>
<path fill-rule="evenodd" clip-rule="evenodd" d="M59.5 54.5454H43L49 48.5454H65.5C70.2273 48.5454 74.2879 47.6136 77.6818 45.75C78.0325 45.5583 78.3748 45.358 78.7086 45.1492C76.9539 47.9481 74.6116 50.1484 71.6818 51.75C68.2879 53.6136 64.2273 54.5454 59.5 54.5454Z" fill="#9C0101" stroke="#9C0101" stroke-width="1.5" stroke-linejoin="round"/>
<path fill-rule="evenodd" clip-rule="evenodd" d="M65.5 48.5454H49V8V2H65.6364C70.3182 2 74.3485 2.93182 77.7273 4.79547C81.1061 6.64392 83.7045 9.30304 85.5227 12.7727C87.3561 16.2424 88.2727 20.3939 88.2727 25.2273C88.2727 30.0757 87.3561 34.2424 85.5227 37.7273C83.8916 40.8536 81.6202 43.3276 78.7086 45.1492C78.3748 45.358 78.0325 45.5583 77.6818 45.75C74.2879 47.6136 70.2273 48.5454 65.5 48.5454ZM58.8409 40.1136H65.0909C67.4212 40.1136 69.455 39.7831 71.1922 39.1219C71.6237 38.9578 72.0369 38.7732 72.4318 38.5682C74.4318 37.5227 75.9318 35.9091 76.9318 33.7273C77.947 31.5303 78.4545 28.697 78.4545 25.2273C78.4545 21.7879 77.947 18.9773 76.9318 16.7955C75.9318 14.6136 74.4394 13.0076 72.4545 11.9773C70.4697 10.947 68.0227 10.4318 65.1136 10.4318H58.8409V16.4318V40.1136Z" fill="white" stroke="#9C0101" stroke-width="1.5" stroke-linejoin="round"/>
<path fill-rule="evenodd" clip-rule="evenodd" d="M2 18.1819L8 12.1819H22L16 18.1819H2Z" fill="#9C0101"/>
<path fill-rule="evenodd" clip-rule="evenodd" d="M2 18.1819L8 12.1819H22L16 18.1819H2Z" stroke="#9C0101" stroke-width="1.5" stroke-linejoin="round"/>
<path fill-rule="evenodd" clip-rule="evenodd" d="M34.4546 12.1819H48.4546L42.4546 18.1819H34.4546V12.1819Z" fill="#9C0101"/>
<path fill-rule="evenodd" clip-rule="evenodd" d="M34.4546 12.1819H48.4546L42.4546 18.1819H34.4546V12.1819Z" stroke="#9C0101" stroke-width="1.5" stroke-linejoin="round"/>
<path fill-rule="evenodd" clip-rule="evenodd" d="M28.4545 48.5454H34.4545L28.4545 54.5454H16L22 48.5454H28.4545Z" fill="#9C0101"/>
<path fill-rule="evenodd" clip-rule="evenodd" d="M28.4545 48.5454H34.4545L28.4545 54.5454H16L22 48.5454H28.4545Z" stroke="#9C0101" stroke-width="1.5" stroke-linejoin="round"/>
<path fill-rule="evenodd" clip-rule="evenodd" d="M22 12.1819V48.5455L16 54.5455V18.1819L22 12.1819Z" fill="#9C0101" stroke="#9C0101" stroke-width="1.5" stroke-linejoin="round"/>
<path fill-rule="evenodd" clip-rule="evenodd" d="M2 18.1818V8L8 2V12.1818L2 18.1818Z" fill="#9C0101" stroke="#9C0101" stroke-width="1.5" stroke-linejoin="round"/>
<path fill-rule="evenodd" clip-rule="evenodd" d="M8 12.1818V2H48.4545V12.1818H34.4545V18.1818V48.5455H28.4545H22V12.1818H8Z" fill="white"/>
<path fill-rule="evenodd" clip-rule="evenodd" d="M8 12.1818V2H48.4545V12.1818H34.4545V18.1818V48.5455H28.4545H22V12.1818H8Z" stroke="#9C0101" stroke-width="1.5" stroke-linejoin="round"/>
</svg>
