<svg width="172" height="60" viewBox="0 0 172 60" fill="none" xmlns="http://www.w3.org/2000/svg">
<rect width="172" height="60" fill="white"/>
<path fill-rule="evenodd" clip-rule="evenodd" d="M131 2.17419V8.17419V48.7196L125 54.7196V8.17419L131 2.17419Z" fill="#9C0101" stroke="#9C0101" stroke-width="2" stroke-linejoin="round"/>
<path fill-rule="evenodd" clip-rule="evenodd" d="M141.114 16.6061H140.841V10.6061H147.114C150.023 10.6061 152.47 11.1212 154.454 12.1516C156.439 13.1818 157.932 14.7879 158.932 16.9697C159.947 19.1516 160.454 21.9622 160.454 25.4016C160.454 28.8712 159.947 31.7045 158.932 33.9016C157.932 36.0834 156.432 37.697 154.432 38.7424C154.037 38.9474 153.624 39.132 153.192 39.2962C154.034 37.1922 154.454 34.5606 154.454 31.4016C154.454 27.9622 153.947 25.1516 152.932 22.9697C151.932 20.7879 150.439 19.1818 148.454 18.1516C146.47 17.1212 144.023 16.6061 141.114 16.6061Z" fill="#9C0101" stroke="#9C0101" stroke-width="2" stroke-linejoin="round"/>
<path fill-rule="evenodd" clip-rule="evenodd" d="M141.5 54.7196H125L131 48.7196H147.5C152.227 48.7196 156.288 47.7878 159.682 45.9242C160.033 45.7325 160.375 45.5322 160.709 45.3234C158.954 48.1223 156.612 50.3226 153.682 51.9242C150.288 53.7878 146.227 54.7196 141.5 54.7196Z" fill="#9C0101" stroke="#9C0101" stroke-width="2" stroke-linejoin="round"/>
<path fill-rule="evenodd" clip-rule="evenodd" d="M147.5 48.7196H131V8.17419V2.17419H147.636C152.318 2.17419 156.348 3.10602 159.727 4.96967C163.106 6.81812 165.705 9.47723 167.523 12.9469C169.356 16.4166 170.273 20.5681 170.273 25.4015C170.273 30.2499 169.356 34.4166 167.523 37.9015C165.892 41.0278 163.62 43.5018 160.709 45.3234C160.375 45.5322 160.033 45.7325 159.682 45.9242C156.288 47.7878 152.227 48.7196 147.5 48.7196ZM140.841 40.2878H147.091C149.421 40.2878 151.455 39.9573 153.192 39.2961C153.624 39.132 154.037 38.9474 154.432 38.7424C156.432 37.6969 157.932 36.0833 158.932 33.9015C159.947 31.7045 160.455 28.8712 160.455 25.4015C160.455 21.9621 159.947 19.1515 158.932 16.9697C157.932 14.7878 156.439 13.1818 154.455 12.1515C152.47 11.1212 150.023 10.606 147.114 10.606H140.841V16.606V40.2878Z" fill="white" stroke="#9C0101" stroke-width="2" stroke-linejoin="round"/>
<path fill-rule="evenodd" clip-rule="evenodd" d="M86 48.7197L80 54.7197L96.0682 8.17419L102.068 2.17419L99.9969 8.17419L90.2446 36.4242L89.8864 37.4618L86 48.7197Z" fill="#9C0101" stroke="#9C0101" stroke-width="2" stroke-linejoin="round"/>
<path fill-rule="evenodd" clip-rule="evenodd" d="M106.361 30.4241L104.431 24.4788L108.227 12.8104H108.591L114.31 30.4241H106.361Z" fill="#9C0101" stroke="#9C0101" stroke-width="2" stroke-linejoin="round"/>
<path fill-rule="evenodd" clip-rule="evenodd" d="M99.9983 38.1058L98.0464 44.1058L96.5455 48.7197H92.4974H86L89.8864 37.4618L90.2446 36.4242L99.9969 8.17419L102.068 2.17419H114.75L130.795 48.7197H122.727L120.25 48.7195L116.804 38.1058H99.9983ZM108.227 12.8106L104.431 24.479L102.497 30.4242H106.362H114.31L108.591 12.8106H108.227Z" fill="white"/>
<path d="M120.25 48.7195L116.804 38.1058H99.9983L98.0464 44.1058L96.5455 48.7197H92.4974H86L89.8864 37.4618L90.2446 36.4242L99.9969 8.17419L102.068 2.17419H114.75L130.795 48.7197H122.727L120.25 48.7195ZM120.25 48.7195L114.25 54.7195M106.362 30.4242H102.497L104.431 24.479L108.227 12.8106H108.591L114.31 30.4242H106.362Z" stroke="#9C0101" stroke-width="2" stroke-linejoin="round"/>
<path fill-rule="evenodd" clip-rule="evenodd" d="M122.727 48.7196H130.795L124.795 54.7196H114.25L120.25 48.7196H122.727Z" fill="#9C0101" stroke="#9C0101" stroke-width="2" stroke-linejoin="round"/>
<path fill-rule="evenodd" clip-rule="evenodd" d="M80 54.7196L86 48.7196H92.4974H96.5455L90.5455 54.7196H80Z" fill="#9C0101" stroke="#9C0101" stroke-width="2" stroke-linejoin="round"/>
<path d="M98.0464 44.1058L99.9983 38.1058H116.804L110.804 44.1058H98.0464Z" fill="#9C0101" stroke="#9C0101" stroke-width="2" stroke-linejoin="round"/>
<path d="M116.804 38.1058L120.25 48.7195L114.25 54.7195L110.804 44.1058L116.804 38.1058Z" fill="#9C0101" stroke="#9C0101" stroke-width="2" stroke-linejoin="round"/>
<path d="M120.25 48.7196L114.25 54.7196" stroke="#9C0101" stroke-width="2" stroke-linejoin="round"/>
<path fill-rule="evenodd" clip-rule="evenodd" d="M43 54.7197V8.17419L49 2.17419V48.7197L43 54.7197Z" fill="#9C0101" stroke="#9C0101" stroke-width="2" stroke-linejoin="round"/>
<path fill-rule="evenodd" clip-rule="evenodd" d="M49 48.7197V2.17419H67.3636C70.8788 2.17419 73.8788 2.80298 76.3636 4.06056C78.8636 5.30298 80.7652 7.06813 82.0682 9.35601C83.3864 11.6287 84.0455 14.303 84.0455 17.3787C84.0455 20.4697 83.3788 23.1287 82.0455 25.356C80.7121 27.5681 78.7803 29.2651 76.25 30.4469C76.1113 30.5121 75.9709 30.5755 75.829 30.6371L85.7045 48.7197H74.8409L68.6324 37.1006L66.0244 32.2197H58.8409V38.2197V48.7197H49ZM70.2045 23.5378C71.447 23.0227 72.3712 22.25 72.9773 21.2197C73.5985 20.1893 73.9091 18.909 73.9091 17.3787C73.9091 15.8333 73.5985 14.5303 72.9773 13.4697C72.3712 12.409 71.4394 11.606 70.1818 11.0606C68.9394 10.5 67.3712 10.2197 65.4773 10.2197H58.8409V16.2197V24.3106H65.5227C66.3742 24.3106 67.1603 24.2577 67.8811 24.1518C68.7507 24.0242 69.5252 23.8195 70.2045 23.5378Z" fill="white" stroke="#9C0101" stroke-width="2" stroke-linejoin="round"/>
<path fill-rule="evenodd" clip-rule="evenodd" d="M72.9772 21.2196C72.3711 22.2499 71.4469 23.0226 70.2045 23.5378C69.5251 23.8195 68.7506 24.0241 67.881 24.1518C67.8997 23.9016 67.909 23.6439 67.909 23.3787C67.909 21.8332 67.5984 20.5302 66.9772 19.4696C66.3711 18.409 65.4393 17.606 64.1817 17.0605C62.9393 16.4999 61.3711 16.2196 59.4772 16.2196H58.8408V10.2196H65.4772C67.3711 10.2196 68.9393 10.4999 70.1817 11.0605C71.4393 11.606 72.3711 12.409 72.9772 13.4696C73.5984 14.5302 73.909 15.8332 73.909 17.3787C73.909 18.909 73.5984 20.1893 72.9772 21.2196Z" fill="#9C0101" stroke="#9C0101" stroke-width="2" stroke-linejoin="round"/>
<path fill-rule="evenodd" clip-rule="evenodd" d="M58.8408 32.2196H66.0243L60.0243 38.2196H58.8408V32.2196Z" fill="#9C0101" stroke="#9C0101" stroke-width="2" stroke-linejoin="round"/>
<path fill-rule="evenodd" clip-rule="evenodd" d="M43 54.7196L49 48.7196H58.8409L52.8409 54.7196H43Z" fill="#9C0101" stroke="#9C0101" stroke-width="2" stroke-linejoin="round"/>
<path fill-rule="evenodd" clip-rule="evenodd" d="M68.6325 37.1005L74.8409 48.7196L68.8409 54.7196L60.0244 38.2196L66.0244 32.2196L68.6325 37.1005Z" fill="#9C0101" stroke="#9C0101" stroke-width="2" stroke-linejoin="round"/>
<path fill-rule="evenodd" clip-rule="evenodd" d="M74.8408 48.7196H85.7045L79.7045 54.7196H68.8408L74.8408 48.7196Z" fill="#9C0101" stroke="#9C0101" stroke-width="2" stroke-linejoin="round"/>
<path fill-rule="evenodd" clip-rule="evenodd" d="M2 18.3561L8 12.3561H22L16 18.3561H2Z" fill="#9C0101"/>
<path fill-rule="evenodd" clip-rule="evenodd" d="M2 18.3561L8 12.3561H22L16 18.3561H2Z" stroke="#9C0101" stroke-width="2" stroke-linejoin="round"/>
<path fill-rule="evenodd" clip-rule="evenodd" d="M34.4546 12.3561H48.4546L42.4546 18.3561H34.4546V12.3561Z" fill="#9C0101"/>
<path fill-rule="evenodd" clip-rule="evenodd" d="M34.4546 12.3561H48.4546L42.4546 18.3561H34.4546V12.3561Z" stroke="#9C0101" stroke-width="2" stroke-linejoin="round"/>
<path fill-rule="evenodd" clip-rule="evenodd" d="M28.4545 48.7196H34.4545L28.4545 54.7196H16L22 48.7196H28.4545Z" fill="#9C0101"/>
<path fill-rule="evenodd" clip-rule="evenodd" d="M28.4545 48.7196H34.4545L28.4545 54.7196H16L22 48.7196H28.4545Z" stroke="#9C0101" stroke-width="2" stroke-linejoin="round"/>
<path fill-rule="evenodd" clip-rule="evenodd" d="M22 12.3561V48.7197L16 54.7197V18.3561L22 12.3561Z" fill="#9C0101" stroke="#9C0101" stroke-width="2" stroke-linejoin="round"/>
<path fill-rule="evenodd" clip-rule="evenodd" d="M2 18.356V8.17419L8 2.17419V12.356L2 18.356Z" fill="#9C0101" stroke="#9C0101" stroke-width="2" stroke-linejoin="round"/>
<path fill-rule="evenodd" clip-rule="evenodd" d="M8 12.356V2.17419H48.4545V12.356H34.4545V18.356V48.7197H28.4545H22V12.356H8Z" fill="white"/>
<path fill-rule="evenodd" clip-rule="evenodd" d="M8 12.356V2.17419H48.4545V12.356H34.4545V18.356V48.7197H28.4545H22V12.356H8Z" stroke="#9C0101" stroke-width="2" stroke-linejoin="round"/>
</svg>
