<svg width="171" height="55" viewBox="0 0 171 55" fill="none" xmlns="http://www.w3.org/2000/svg">
<path fill-rule="evenodd" clip-rule="evenodd" d="M130 1V7V47.5454L124 53.5454V7L130 1Z" fill="#9C0101" stroke="#9C0101" stroke-width="2" stroke-linejoin="round"/>
<path fill-rule="evenodd" clip-rule="evenodd" d="M140.114 15.4319H139.841V9.43188H146.114C149.023 9.43188 151.47 9.94702 153.454 10.9774C155.439 12.0076 156.932 13.6137 157.932 15.7955C158.947 17.9774 159.454 20.788 159.454 24.2274C159.454 27.697 158.947 30.5303 157.932 32.7274C156.932 34.9092 155.432 36.5228 153.432 37.5682C153.037 37.7733 152.624 37.9578 152.192 38.122C153.034 36.018 153.454 33.3864 153.454 30.2274C153.454 26.788 152.947 23.9774 151.932 21.7955C150.932 19.6137 149.439 18.0076 147.454 16.9774C145.47 15.947 143.023 15.4319 140.114 15.4319Z" fill="#9C0101" stroke="#9C0101" stroke-width="2" stroke-linejoin="round"/>
<path fill-rule="evenodd" clip-rule="evenodd" d="M140.5 53.5454H124L130 47.5454H146.5C151.227 47.5454 155.288 46.6136 158.682 44.75C159.033 44.5583 159.375 44.358 159.709 44.1492C157.954 46.9481 155.612 49.1484 152.682 50.75C149.288 52.6136 145.227 53.5454 140.5 53.5454Z" fill="#9C0101" stroke="#9C0101" stroke-width="2" stroke-linejoin="round"/>
<path fill-rule="evenodd" clip-rule="evenodd" d="M146.5 47.5454H130V7V1H146.636C151.318 1 155.348 1.93182 158.727 3.79547C162.106 5.64392 164.705 8.30304 166.523 11.7727C168.356 15.2424 169.273 19.3939 169.273 24.2273C169.273 29.0757 168.356 33.2424 166.523 36.7273C164.892 39.8536 162.62 42.3276 159.709 44.1492C159.375 44.358 159.033 44.5583 158.682 44.75C155.288 46.6136 151.227 47.5454 146.5 47.5454ZM139.841 39.1136H146.091C148.421 39.1136 150.455 38.7831 152.192 38.1219C152.624 37.9578 153.037 37.7732 153.432 37.5682C155.432 36.5227 156.932 34.9091 157.932 32.7273C158.947 30.5303 159.455 27.697 159.455 24.2273C159.455 20.7879 158.947 17.9773 157.932 15.7955C156.932 13.6136 155.439 12.0076 153.455 10.9773C151.47 9.94696 149.023 9.43182 146.114 9.43182H139.841V15.4318V39.1136Z" fill="white" stroke="#9C0101" stroke-width="2" stroke-linejoin="round"/>
<path fill-rule="evenodd" clip-rule="evenodd" d="M85 47.5455L79 53.5455L95.0682 7L101.068 1L98.9969 7L89.2446 35.25L88.8864 36.2877L85 47.5455Z" fill="#9C0101" stroke="#9C0101" stroke-width="2" stroke-linejoin="round"/>
<path fill-rule="evenodd" clip-rule="evenodd" d="M105.361 29.2499L103.431 23.3046L107.227 11.6362H107.591L113.31 29.2499H105.361Z" fill="#9C0101" stroke="#9C0101" stroke-width="2" stroke-linejoin="round"/>
<path fill-rule="evenodd" clip-rule="evenodd" d="M98.9983 36.9316L97.0464 42.9316L95.5455 47.5455H91.4974H85L88.8864 36.2877L89.2446 35.25L98.9969 7L101.068 1H113.75L129.795 47.5455H121.727L119.25 47.5453L115.804 36.9316H98.9983ZM107.227 11.6364L103.431 23.3048L101.497 29.25H105.362H113.31L107.591 11.6364H107.227Z" fill="white"/>
<path d="M119.25 47.5453L115.804 36.9316H98.9983L97.0464 42.9316L95.5455 47.5455H91.4974H85L88.8864 36.2877L89.2446 35.25L98.9969 7L101.068 1H113.75L129.795 47.5455H121.727L119.25 47.5453ZM119.25 47.5453L113.25 53.5453M105.362 29.25H101.497L103.431 23.3048L107.227 11.6364H107.591L113.31 29.25H105.362Z" stroke="#9C0101" stroke-width="2" stroke-linejoin="round"/>
<path fill-rule="evenodd" clip-rule="evenodd" d="M121.727 47.5454H129.795L123.795 53.5454H113.25L119.25 47.5454H121.727Z" fill="#9C0101" stroke="#9C0101" stroke-width="2" stroke-linejoin="round"/>
<path fill-rule="evenodd" clip-rule="evenodd" d="M79 53.5454L85 47.5454H91.4974H95.5455L89.5455 53.5454H79Z" fill="#9C0101" stroke="#9C0101" stroke-width="2" stroke-linejoin="round"/>
<path d="M97.0464 42.9316L98.9983 36.9316H115.804L109.804 42.9316H97.0464Z" fill="#9C0101" stroke="#9C0101" stroke-width="2" stroke-linejoin="round"/>
<path d="M115.804 36.9316L119.25 47.5453L113.25 53.5453L109.804 42.9316L115.804 36.9316Z" fill="#9C0101" stroke="#9C0101" stroke-width="2" stroke-linejoin="round"/>
<path d="M119.25 47.5454L113.25 53.5454" stroke="#9C0101" stroke-width="2" stroke-linejoin="round"/>
<path fill-rule="evenodd" clip-rule="evenodd" d="M42 53.5455V7L48 1V47.5455L42 53.5455Z" fill="#9C0101" stroke="#9C0101" stroke-width="2" stroke-linejoin="round"/>
<path fill-rule="evenodd" clip-rule="evenodd" d="M48 47.5455V1H66.3636C69.8788 1 72.8788 1.62879 75.3636 2.88636C77.8636 4.12879 79.7652 5.89394 81.0682 8.18182C82.3864 10.4545 83.0455 13.1288 83.0455 16.2045C83.0455 19.2955 82.3788 21.9545 81.0455 24.1818C79.7121 26.3939 77.7803 28.0909 75.25 29.2727C75.1113 29.3379 74.9709 29.4013 74.829 29.4629L84.7045 47.5455H73.8409L67.6324 35.9264L65.0244 31.0455H57.8409V37.0455V47.5455H48ZM69.2045 22.3636C70.447 21.8485 71.3712 21.0758 71.9773 20.0455C72.5985 19.0152 72.9091 17.7348 72.9091 16.2045C72.9091 14.6591 72.5985 13.3561 71.9773 12.2955C71.3712 11.2348 70.4394 10.4318 69.1818 9.88636C67.9394 9.32576 66.3712 9.04546 64.4773 9.04546H57.8409V15.0455V23.1364H64.5227C65.3742 23.1364 66.1603 23.0835 66.8811 22.9776C67.7507 22.85 68.5252 22.6453 69.2045 22.3636Z" fill="white" stroke="#9C0101" stroke-width="2" stroke-linejoin="round"/>
<path fill-rule="evenodd" clip-rule="evenodd" d="M71.9772 20.0454C71.3711 21.0757 70.4469 21.8484 69.2045 22.3636C68.5251 22.6453 67.7506 22.8499 66.881 22.9776C66.8997 22.7274 66.909 22.4697 66.909 22.2045C66.909 20.659 66.5984 19.356 65.9772 18.2954C65.3711 17.2348 64.4393 16.4318 63.1817 15.8863C61.9393 15.3257 60.3711 15.0454 58.4772 15.0454H57.8408V9.04541H64.4772C66.3711 9.04541 67.9393 9.32571 69.1817 9.88632C70.4393 10.4318 71.3711 11.2348 71.9772 12.2954C72.5984 13.356 72.909 14.659 72.909 16.2045C72.909 17.7348 72.5984 19.0151 71.9772 20.0454Z" fill="#9C0101" stroke="#9C0101" stroke-width="2" stroke-linejoin="round"/>
<path fill-rule="evenodd" clip-rule="evenodd" d="M57.8408 31.0454H65.0243L59.0243 37.0454H57.8408V31.0454Z" fill="#9C0101" stroke="#9C0101" stroke-width="2" stroke-linejoin="round"/>
<path fill-rule="evenodd" clip-rule="evenodd" d="M42 53.5454L48 47.5454H57.8409L51.8409 53.5454H42Z" fill="#9C0101" stroke="#9C0101" stroke-width="2" stroke-linejoin="round"/>
<path fill-rule="evenodd" clip-rule="evenodd" d="M67.6325 35.9263L73.8409 47.5454L67.8409 53.5454L59.0244 37.0454L65.0244 31.0454L67.6325 35.9263Z" fill="#9C0101" stroke="#9C0101" stroke-width="2" stroke-linejoin="round"/>
<path fill-rule="evenodd" clip-rule="evenodd" d="M73.8408 47.5454H84.7045L78.7045 53.5454H67.8408L73.8408 47.5454Z" fill="#9C0101" stroke="#9C0101" stroke-width="2" stroke-linejoin="round"/>
<path fill-rule="evenodd" clip-rule="evenodd" d="M1 17.1819L7 11.1819H21L15 17.1819H1Z" fill="#9C0101"/>
<path fill-rule="evenodd" clip-rule="evenodd" d="M1 17.1819L7 11.1819H21L15 17.1819H1Z" stroke="#9C0101" stroke-width="2" stroke-linejoin="round"/>
<path fill-rule="evenodd" clip-rule="evenodd" d="M33.4546 11.1819H47.4546L41.4546 17.1819H33.4546V11.1819Z" fill="#9C0101"/>
<path fill-rule="evenodd" clip-rule="evenodd" d="M33.4546 11.1819H47.4546L41.4546 17.1819H33.4546V11.1819Z" stroke="#9C0101" stroke-width="2" stroke-linejoin="round"/>
<path fill-rule="evenodd" clip-rule="evenodd" d="M27.4545 47.5454H33.4545L27.4545 53.5454H15L21 47.5454H27.4545Z" fill="#9C0101"/>
<path fill-rule="evenodd" clip-rule="evenodd" d="M27.4545 47.5454H33.4545L27.4545 53.5454H15L21 47.5454H27.4545Z" stroke="#9C0101" stroke-width="2" stroke-linejoin="round"/>
<path fill-rule="evenodd" clip-rule="evenodd" d="M21 11.1819V47.5455L15 53.5455V17.1819L21 11.1819Z" fill="#9C0101" stroke="#9C0101" stroke-width="2" stroke-linejoin="round"/>
<path fill-rule="evenodd" clip-rule="evenodd" d="M1 17.1818V7L7 1V11.1818L1 17.1818Z" fill="#9C0101" stroke="#9C0101" stroke-width="2" stroke-linejoin="round"/>
<path fill-rule="evenodd" clip-rule="evenodd" d="M7 11.1818V1H47.4545V11.1818H33.4545V17.1818V47.5455H27.4545H21V11.1818H7Z" fill="white"/>
<path fill-rule="evenodd" clip-rule="evenodd" d="M7 11.1818V1H47.4545V11.1818H33.4545V17.1818V47.5455H27.4545H21V11.1818H7Z" stroke="#9C0101" stroke-width="2" stroke-linejoin="round"/>
</svg>
