<svg width="90" height="60" viewBox="0 0 90 60" fill="none" xmlns="http://www.w3.org/2000/svg">
<rect width="90" height="60" fill="white"/>
<path fill-rule="evenodd" clip-rule="evenodd" d="M48.8169 2.17419V8.17419V48.7196L42.8169 54.7196V8.17419L48.8169 2.17419Z" fill="#9C0101" stroke="#9C0101" stroke-width="2" stroke-linejoin="round"/>
<path fill-rule="evenodd" clip-rule="evenodd" d="M58.9304 16.6061H58.6577V10.6061H64.9304C67.8395 10.6061 70.2865 11.1212 72.2713 12.1516C74.2562 13.1818 75.7486 14.7879 76.7486 16.9697C77.7638 19.1516 78.2713 21.9622 78.2713 25.4016C78.2713 28.8712 77.7638 31.7045 76.7486 33.9016C75.7486 36.0834 74.2486 37.697 72.2486 38.7424C71.8537 38.9474 71.4405 39.132 71.009 39.2962C71.8506 37.1922 72.2713 34.5606 72.2713 31.4016C72.2713 27.9622 71.7638 25.1516 70.7486 22.9697C69.7486 20.7879 68.2562 19.1818 66.2713 18.1516C64.2865 17.1212 61.8395 16.6061 58.9304 16.6061Z" fill="#9C0101" stroke="#9C0101" stroke-width="2" stroke-linejoin="round"/>
<path fill-rule="evenodd" clip-rule="evenodd" d="M59.3169 54.7196H42.8169L48.8169 48.7196H65.3169C70.0442 48.7196 74.1048 47.7878 77.4987 45.9242C77.8494 45.7325 78.1917 45.5322 78.5255 45.3234C76.7708 48.1223 74.4285 50.3226 71.4987 51.9242C68.1048 53.7878 64.0442 54.7196 59.3169 54.7196Z" fill="#9C0101" stroke="#9C0101" stroke-width="2" stroke-linejoin="round"/>
<path fill-rule="evenodd" clip-rule="evenodd" d="M65.3169 48.7196H48.8169V8.17419V2.17419H65.4533C70.1351 2.17419 74.1654 3.10602 77.5442 4.96967C80.923 6.81812 83.5214 9.47723 85.3396 12.9469C87.173 16.4166 88.0896 20.5681 88.0896 25.4015C88.0896 30.2499 87.173 34.4166 85.3396 37.9015C83.7085 41.0278 81.4371 43.5018 78.5255 45.3234C78.1917 45.5322 77.8494 45.7325 77.4987 45.9242C74.1048 47.7878 70.0442 48.7196 65.3169 48.7196ZM58.6578 40.2878H64.9078C67.2381 40.2878 69.2719 39.9573 71.0091 39.2961C71.4406 39.132 71.8538 38.9474 72.2487 38.7424C74.2487 37.6969 75.7487 36.0833 76.7487 33.9015C77.7639 31.7045 78.2714 28.8712 78.2714 25.4015C78.2714 21.9621 77.7639 19.1515 76.7487 16.9697C75.7487 14.7878 74.2563 13.1818 72.2714 12.1515C70.2866 11.1212 67.8396 10.606 64.9305 10.606H58.6578V16.606V40.2878Z" fill="white" stroke="#9C0101" stroke-width="2" stroke-linejoin="round"/>
<path fill-rule="evenodd" clip-rule="evenodd" d="M2 18.3561L8 12.3561H22L16 18.3561H2Z" fill="#9C0101"/>
<path fill-rule="evenodd" clip-rule="evenodd" d="M2 18.3561L8 12.3561H22L16 18.3561H2Z" stroke="#9C0101" stroke-width="2" stroke-linejoin="round"/>
<path fill-rule="evenodd" clip-rule="evenodd" d="M34.4546 12.3561H48.4546L42.4546 18.3561H34.4546V12.3561Z" fill="#9C0101"/>
<path fill-rule="evenodd" clip-rule="evenodd" d="M34.4546 12.3561H48.4546L42.4546 18.3561H34.4546V12.3561Z" stroke="#9C0101" stroke-width="2" stroke-linejoin="round"/>
<path fill-rule="evenodd" clip-rule="evenodd" d="M28.4545 48.7196H34.4545L28.4545 54.7196H16L22 48.7196H28.4545Z" fill="#9C0101"/>
<path fill-rule="evenodd" clip-rule="evenodd" d="M28.4545 48.7196H34.4545L28.4545 54.7196H16L22 48.7196H28.4545Z" stroke="#9C0101" stroke-width="2" stroke-linejoin="round"/>
<path fill-rule="evenodd" clip-rule="evenodd" d="M22 12.3561V48.7197L16 54.7197V18.3561L22 12.3561Z" fill="#9C0101" stroke="#9C0101" stroke-width="2" stroke-linejoin="round"/>
<path fill-rule="evenodd" clip-rule="evenodd" d="M2 18.356V8.17419L8 2.17419V12.356L2 18.356Z" fill="#9C0101" stroke="#9C0101" stroke-width="2" stroke-linejoin="round"/>
<path fill-rule="evenodd" clip-rule="evenodd" d="M8 12.356V2.17419H48.4545V12.356H34.4545V18.356V48.7197H28.4545H22V12.356H8Z" fill="white"/>
<path fill-rule="evenodd" clip-rule="evenodd" d="M8 12.356V2.17419H48.4545V12.356H34.4545V18.356V48.7197H28.4545H22V12.356H8Z" stroke="#9C0101" stroke-width="2" stroke-linejoin="round"/>
</svg>
