<svg width="170" height="55" viewBox="0 0 170 55" fill="none" xmlns="http://www.w3.org/2000/svg">
<path fill-rule="evenodd" clip-rule="evenodd" d="M129.75 0.75V6.75V47.2954L123.75 53.2954V6.75L129.75 0.75Z" fill="#FF0000" stroke="#9C0101" stroke-width="1.5" stroke-linejoin="round"/>
<path fill-rule="evenodd" clip-rule="evenodd" d="M139.864 15.1819H139.591V9.18188H145.864C148.773 9.18188 151.22 9.69702 153.204 10.7274C155.189 11.7576 156.682 13.3637 157.682 15.5455C158.697 17.7274 159.204 20.538 159.204 23.9774C159.204 27.447 158.697 30.2803 157.682 32.4774C156.682 34.6592 155.182 36.2728 153.182 37.3182C152.787 37.5233 152.374 37.7078 151.942 37.872C152.784 35.768 153.204 33.1364 153.204 29.9774C153.204 26.538 152.697 23.7274 151.682 21.5455C150.682 19.3637 149.189 17.7576 147.204 16.7274C145.22 15.697 142.773 15.1819 139.864 15.1819Z" fill="#9C0101" stroke="#9C0101" stroke-width="1.5" stroke-linejoin="round"/>
<path fill-rule="evenodd" clip-rule="evenodd" d="M140.25 53.2954H123.75L129.75 47.2954H146.25C150.977 47.2954 155.038 46.3636 158.432 44.5C158.783 44.3083 159.125 44.108 159.459 43.8992C157.704 46.6981 155.362 48.8984 152.432 50.5C149.038 52.3636 144.977 53.2954 140.25 53.2954Z" fill="#9C0101" stroke="#9C0101" stroke-width="1.5" stroke-linejoin="round"/>
<path fill-rule="evenodd" clip-rule="evenodd" d="M146.25 47.2954H129.75V6.75V0.75H146.386C151.068 0.75 155.098 1.68182 158.477 3.54547C161.856 5.39392 164.455 8.05304 166.273 11.5227C168.106 14.9924 169.023 19.1439 169.023 23.9773C169.023 28.8257 168.106 32.9924 166.273 36.4773C164.642 39.6036 162.37 42.0776 159.459 43.8992C159.125 44.108 158.783 44.3083 158.432 44.5C155.038 46.3636 150.977 47.2954 146.25 47.2954ZM139.591 38.8636H145.841C148.171 38.8636 150.205 38.5331 151.942 37.8719C152.374 37.7078 152.787 37.5232 153.182 37.3182C155.182 36.2727 156.682 34.6591 157.682 32.4773C158.697 30.2803 159.205 27.447 159.205 23.9773C159.205 20.5379 158.697 17.7273 157.682 15.5455C156.682 13.3636 155.189 11.7576 153.205 10.7273C151.22 9.69696 148.773 9.18182 145.864 9.18182H139.591V15.1818V38.8636Z" fill="white" stroke="#9C0101" stroke-width="1.5" stroke-linejoin="round"/>
<path fill-rule="evenodd" clip-rule="evenodd" d="M84.75 47.2955L78.75 53.2955L94.8182 6.75L100.818 0.75L98.7469 6.75L88.9946 35L88.6364 36.0377L84.75 47.2955Z" fill="#FF0000" stroke="#9C0101" stroke-width="1.5" stroke-linejoin="round"/>
<path fill-rule="evenodd" clip-rule="evenodd" d="M105.111 28.9999L103.181 23.0546L106.977 11.3862H107.341L113.06 28.9999H105.111Z" fill="#FF0000" stroke="#9C0101" stroke-width="1.5" stroke-linejoin="round"/>
<path fill-rule="evenodd" clip-rule="evenodd" d="M98.7483 36.6816L96.7964 42.6816L95.2955 47.2955H91.2474H84.75L88.6364 36.0377L88.9946 35L98.7469 6.75L100.818 0.75H113.5L129.545 47.2955H121.477L119 47.2953L115.554 36.6816H98.7483ZM106.977 11.3864L103.181 23.0548L101.247 29H105.112H113.06L107.341 11.3864H106.977Z" fill="white"/>
<path d="M119 47.2953L115.554 36.6816H98.7483L96.7964 42.6816L95.2955 47.2955H91.2474H84.75L88.6364 36.0377L88.9946 35L98.7469 6.75L100.818 0.75H113.5L129.545 47.2955H121.477L119 47.2953ZM119 47.2953L113 53.2953M105.112 29H101.247L103.181 23.0548L106.977 11.3864H107.341L113.06 29H105.112Z" stroke="#9C0101" stroke-width="1.5" stroke-linejoin="round"/>
<path fill-rule="evenodd" clip-rule="evenodd" d="M121.477 47.2954H129.545L123.545 53.2954H113L119 47.2954H121.477Z" fill="#9C0101" stroke="#9C0101" stroke-width="1.5" stroke-linejoin="round"/>
<path fill-rule="evenodd" clip-rule="evenodd" d="M78.75 53.2954L84.75 47.2954H91.2474H95.2955L89.2955 53.2954H78.75Z" fill="#9C0101" stroke="#9C0101" stroke-width="1.5" stroke-linejoin="round"/>
<path d="M96.7964 42.6816L98.7483 36.6816H115.554L109.554 42.6816H96.7964Z" fill="#9C0101" stroke="#9C0101" stroke-width="1.5" stroke-linejoin="round"/>
<path d="M115.554 36.6816L119 47.2953L113 53.2953L109.554 42.6816L115.554 36.6816Z" fill="#FF0000" stroke="#9C0101" stroke-width="1.5" stroke-linejoin="round"/>
<path d="M119 47.2954L113 53.2954" stroke="#9C0101" stroke-width="1.5" stroke-linejoin="round"/>
<path fill-rule="evenodd" clip-rule="evenodd" d="M41.75 53.2955V6.75L47.75 0.75V47.2955L41.75 53.2955Z" fill="#FF0000" stroke="#9C0101" stroke-width="1.5" stroke-linejoin="round"/>
<path fill-rule="evenodd" clip-rule="evenodd" d="M47.75 47.2955V0.75H66.1136C69.6288 0.75 72.6288 1.37879 75.1136 2.63636C77.6136 3.87879 79.5152 5.64394 80.8182 7.93182C82.1364 10.2045 82.7955 12.8788 82.7955 15.9545C82.7955 19.0455 82.1288 21.7045 80.7955 23.9318C79.4621 26.1439 77.5303 27.8409 75 29.0227C74.8613 29.0879 74.7209 29.1513 74.579 29.2129L84.4545 47.2955H73.5909L67.3824 35.6764L64.7744 30.7955H57.5909V36.7955V47.2955H47.75ZM68.9545 22.1136C70.197 21.5985 71.1212 20.8258 71.7273 19.7955C72.3485 18.7652 72.6591 17.4848 72.6591 15.9545C72.6591 14.4091 72.3485 13.1061 71.7273 12.0455C71.1212 10.9848 70.1894 10.1818 68.9318 9.63636C67.6894 9.07576 66.1212 8.79546 64.2273 8.79546H57.5909V14.7955V22.8864H64.2727C65.1242 22.8864 65.9103 22.8335 66.6311 22.7276C67.5007 22.6 68.2752 22.3953 68.9545 22.1136Z" fill="white" stroke="#9C0101" stroke-width="1.5" stroke-linejoin="round"/>
<path fill-rule="evenodd" clip-rule="evenodd" d="M71.7272 19.7954C71.1211 20.8257 70.1969 21.5984 68.9545 22.1136C68.2751 22.3953 67.5006 22.5999 66.631 22.7276C66.6497 22.4774 66.659 22.2197 66.659 21.9545C66.659 20.409 66.3484 19.106 65.7272 18.0454C65.1211 16.9848 64.1893 16.1818 62.9317 15.6363C61.6893 15.0757 60.1211 14.7954 58.2272 14.7954H57.5908V8.79541H64.2272C66.1211 8.79541 67.6893 9.07571 68.9317 9.63632C70.1893 10.1818 71.1211 10.9848 71.7272 12.0454C72.3484 13.106 72.659 14.409 72.659 15.9545C72.659 17.4848 72.3484 18.7651 71.7272 19.7954Z" fill="#9C0101" stroke="#9C0101" stroke-width="1.5" stroke-linejoin="round"/>
<path fill-rule="evenodd" clip-rule="evenodd" d="M57.5908 30.7954H64.7743L58.7743 36.7954H57.5908V30.7954Z" fill="#9C0101" stroke="#9C0101" stroke-width="1.5" stroke-linejoin="round"/>
<path fill-rule="evenodd" clip-rule="evenodd" d="M41.75 53.2954L47.75 47.2954H57.5909L51.5909 53.2954H41.75Z" fill="#9C0101" stroke="#9C0101" stroke-width="1.5" stroke-linejoin="round"/>
<path fill-rule="evenodd" clip-rule="evenodd" d="M67.3825 35.6763L73.5909 47.2954L67.5909 53.2954L58.7744 36.7954L64.7744 30.7954L67.3825 35.6763Z" fill="#FF0000" stroke="#9C0101" stroke-width="1.5" stroke-linejoin="round"/>
<path fill-rule="evenodd" clip-rule="evenodd" d="M73.5908 47.2954H84.4545L78.4545 53.2954H67.5908L73.5908 47.2954Z" fill="#9C0101" stroke="#9C0101" stroke-width="1.5" stroke-linejoin="round"/>
<path fill-rule="evenodd" clip-rule="evenodd" d="M0.75 16.9319L6.75 10.9319H20.75L14.75 16.9319H0.75Z" fill="#9C0101"/>
<path fill-rule="evenodd" clip-rule="evenodd" d="M0.75 16.9319L6.75 10.9319H20.75L14.75 16.9319H0.75Z" stroke="#9C0101" stroke-width="1.5" stroke-linejoin="round"/>
<path fill-rule="evenodd" clip-rule="evenodd" d="M33.2046 10.9319H47.2046L41.2046 16.9319H33.2046V10.9319Z" fill="#9C0101"/>
<path fill-rule="evenodd" clip-rule="evenodd" d="M33.2046 10.9319H47.2046L41.2046 16.9319H33.2046V10.9319Z" stroke="#9C0101" stroke-width="1.5" stroke-linejoin="round"/>
<path fill-rule="evenodd" clip-rule="evenodd" d="M27.2045 47.2954H33.2045L27.2045 53.2954H14.75L20.75 47.2954H27.2045Z" fill="#9C0101"/>
<path fill-rule="evenodd" clip-rule="evenodd" d="M27.2045 47.2954H33.2045L27.2045 53.2954H14.75L20.75 47.2954H27.2045Z" stroke="#9C0101" stroke-width="1.5" stroke-linejoin="round"/>
<path fill-rule="evenodd" clip-rule="evenodd" d="M20.75 10.9319V47.2955L14.75 53.2955V16.9319L20.75 10.9319Z" fill="#FF0000" stroke="#9C0101" stroke-width="1.5" stroke-linejoin="round"/>
<path fill-rule="evenodd" clip-rule="evenodd" d="M0.75 16.9318V6.75L6.75 0.75V10.9318L0.75 16.9318Z" fill="#FF0000" stroke="#9C0101" stroke-width="1.5" stroke-linejoin="round"/>
<path fill-rule="evenodd" clip-rule="evenodd" d="M6.75 10.9318V0.75H47.2045V10.9318H33.2045V16.9318V47.2955H27.2045H20.75V10.9318H6.75Z" fill="white"/>
<path fill-rule="evenodd" clip-rule="evenodd" d="M6.75 10.9318V0.75H47.2045V10.9318H33.2045V16.9318V47.2955H27.2045H20.75V10.9318H6.75Z" stroke="#9C0101" stroke-width="1.5" stroke-linejoin="round"/>
</svg>
