<svg width="453" height="532" viewBox="0 0 453 532" fill="none" xmlns="http://www.w3.org/2000/svg">
<path fill-rule="evenodd" clip-rule="evenodd" d="M233.35 2.43729C230.6 3.72929 227.58 5.65326 226.638 6.71426C223.967 9.72226 221.85 15.6143 221.85 20.0373C221.85 23.6883 221.61 24.0692 219.31 24.0692C217.913 24.0692 215.037 24.9532 212.918 26.0352C196.801 34.2572 192.047 64.3832 204.327 80.4712L207.609 84.7703L194.071 85.4202C186.626 85.7772 174.799 86.0692 167.79 86.0692H155.046L153.129 82.3192C147.909 72.1052 131.294 73.1643 125.012 84.1103C123.54 86.6743 122.885 86.8852 114.397 87.5182C94.8318 88.9792 87.0518 90.9552 84.8798 95.0142C82.3438 99.7512 84.9298 107.931 89.9238 110.968C94.1068 113.511 103.914 115.163 115.239 115.23C123.839 115.281 124.518 115.443 127.35 118.121C129 119.681 132.15 121.35 134.35 121.829C138.321 122.695 145.554 121.765 147.133 120.186C147.582 119.737 149.615 120.186 151.65 121.185C156.478 123.553 181.155 128.453 201.35 131.052C210.837 132.273 217.509 133.581 217.742 134.265C217.957 134.9 219.645 136.93 221.492 138.777C224.64 141.926 224.849 142.555 224.836 148.852C224.829 152.546 224.562 156.539 224.244 157.724L223.666 159.88L216.838 157.064C198.124 149.347 174.575 149.095 160.081 156.458C145.241 163.995 135.85 181.322 135.85 201.165V206.893L131.6 207.566C126.788 208.328 120.389 211.293 117.206 214.236L115.062 216.218L110.206 212.761C99.2728 204.977 85.4208 200.107 68.4498 198.081C58.1698 196.854 50.6028 197.363 45.0318 199.657C43.2068 200.409 41.4068 200.981 41.0318 200.928C38.8418 200.62 37.8498 201.307 37.8498 203.132C37.8498 206.338 42.6118 215.293 47.4568 221.2C49.8728 224.145 51.8498 226.896 51.8498 227.312C51.8498 227.728 50.5818 228.069 49.0318 228.069C41.7308 228.069 31.4408 232.522 16.7418 242.042C11.5768 245.387 5.64079 248.64 3.55279 249.269C-2.10621 250.975 -1.12221 253.575 7.34979 259.296C21.2398 268.675 35.1378 272.535 50.7308 271.345C54.9268 271.025 57.9388 271.167 57.7108 271.675C57.4898 272.167 55.8908 275.494 54.1568 279.069C52.4238 282.644 49.1798 289.394 46.9498 294.069C44.7188 298.744 42.3218 303.383 41.6218 304.378C39.2748 307.715 42.7078 308.846 55.6488 308.998C76.1578 309.24 85.8788 306.244 104.569 293.923L113.789 287.845L118.309 291.824C126.958 299.438 136.505 299.66 148.356 292.523C151.511 290.623 154.652 289.069 155.336 289.069C157.657 289.069 161.729 293.108 165.247 298.9C169.586 306.042 171.43 307.739 177.178 309.88C182.428 311.835 197.7 326.034 207.04 337.645C210.262 341.65 215.197 346.994 218.006 349.52L223.115 354.113L222.924 363.607C222.6 379.67 218.596 390.338 209.548 399.245C197.054 411.545 173.203 415.742 157.805 408.351C150.712 404.946 144.96 400.642 146.043 399.549C146.424 399.165 153.164 397.081 161.02 394.919C178.708 390.051 181.246 388.696 181.652 383.903C181.993 379.891 179.603 377.302 171.012 372.378C168.448 370.908 159.15 364.936 150.35 359.107C141.55 353.278 130.594 346.272 126.003 343.539C117.352 338.388 106.856 328.915 104.28 323.933C103.465 322.358 102.112 321.069 101.273 321.069C94.9908 321.069 90.3568 368.987 92.7148 409.569C93.8698 429.442 95.5608 437.178 99.2838 439.618C103.001 442.053 106.471 440.452 114.88 432.418C119.111 428.376 122.972 425.071 123.461 425.074C123.95 425.076 126.252 428.789 128.576 433.324C138.692 453.059 151.319 463.018 192.871 484.033C202.508 488.907 213.169 494.938 216.561 497.435C223.648 502.652 232.797 513.288 236.461 520.569C237.845 523.319 239.366 526.244 239.841 527.069C240.317 527.894 240.962 529.39 241.275 530.393C242.146 533.186 245.182 531.984 245.893 528.563C246.778 524.304 249.374 519.558 254.992 511.925C262.259 502.052 272.141 493.272 284.936 485.321C310.66 469.335 321.051 460.805 334.986 444.234C345.012 432.311 353.557 419.536 357.39 410.738C358.988 407.07 360.594 404.069 360.959 404.069C363.072 404.069 374.516 413.111 381.675 420.438C389.327 428.269 390.192 428.87 392.371 427.878C399.319 424.712 402.94 393.374 399.397 367.069C396.88 348.383 393.483 336.455 385.876 319.591C381.418 309.707 379.449 308.811 375.385 314.819C366.661 327.716 335.376 358.095 316.561 371.94C307.224 378.81 303.604 383.223 305.636 385.255C306.109 385.728 310.963 386.783 316.423 387.599C327.248 389.218 336.85 391.694 336.85 392.867C336.85 393.93 324.273 401.378 318.271 403.869C305.162 409.311 297.352 411.356 289.279 411.463C282.22 411.556 280.744 411.255 277.515 409.069C272.471 405.653 269.535 400.918 266.305 390.986C263.956 383.766 263.551 380.791 263.458 370.069C263.397 363.017 262.914 357.254 262.35 356.846C261.776 356.431 263.517 354.223 266.435 351.662C276.118 343.17 295.514 318.158 300.435 307.819C301.417 305.757 302.895 304.069 303.719 304.069C306.755 304.069 313.979 299.766 316.506 296.454C318.22 294.206 319.143 291.69 319.211 289.073C319.299 285.718 319.727 284.959 321.973 284.176C323.435 283.666 325.017 283.586 325.49 283.998C325.963 284.41 328.912 285.335 332.042 286.054C338.784 287.602 346.906 286.964 352.121 284.477L355.865 282.691L359.108 285.772C365.119 291.484 378.453 296.561 391.201 297.99C404.452 299.477 419.649 296.642 421.285 292.379C421.661 291.398 419.417 287.9 415.08 282.706C404.894 270.506 405.287 271.612 411.016 271.282C416.705 270.955 426.802 267.401 434.85 262.893C442.937 258.363 452.85 250.887 452.85 249.317C452.85 247.178 446.832 240.226 441.753 236.498C432.315 229.57 418.029 224.069 409.475 224.069H405.888L409.321 217.819C413.939 209.413 418.021 198.33 417.651 195.2C417.405 193.117 416.614 192.488 413.35 191.782C411.15 191.306 405.982 191.204 401.867 191.555C385.809 192.927 373.073 197.011 362.64 204.133L356.522 208.308L352.159 206.189C349.76 205.023 347.246 204.068 346.573 204.068C345.686 204.066 345.328 200.974 345.269 192.818C345.2 183.173 344.814 180.605 342.56 174.809C337.685 162.269 332.561 156.618 321.308 151.37C315.783 148.794 314.441 148.593 302.85 148.609C291.598 148.625 289.659 148.901 283.429 151.368C279.622 152.875 274.352 155.435 271.718 157.055L266.928 160.002L266.265 156.466C265.189 150.73 266.32 137.527 268.123 134.775C269.313 132.96 270.998 132.131 274.543 131.618C285.356 130.055 308.79 123.447 324.099 117.645L330.849 115.087L336.099 118.323C340.637 121.119 342.255 121.559 348.017 121.564C353.641 121.568 355.075 121.202 357.186 119.22C358.563 117.928 360.202 115.634 360.828 114.123C361.858 111.635 362.936 111.158 372.158 109.107C386.707 105.871 393.234 102.157 396.859 95.0513C399.496 89.8833 399.384 85.8013 396.513 82.4643C394.197 79.7713 394.027 79.7403 376.453 78.8813L358.728 78.0142L355.355 74.6403C347.925 67.2113 332.064 69.5252 328.276 78.5912L326.823 82.0692L316.087 82.1253C310.181 82.1563 300.625 82.5462 294.85 82.9912C289.075 83.4372 284.194 83.6683 284.003 83.5053C283.812 83.3423 285.162 80.1503 287.003 76.4123C290.212 69.8963 290.35 69.1423 290.35 58.0933C290.35 47.3993 290.144 46.1633 287.493 40.9323C284.398 34.8243 275.458 25.3913 269.853 22.3183C267.213 20.8703 266.216 19.5643 265.782 16.9853C264.717 10.6543 259.938 4.15719 254.166 1.19119C250.203 -0.844809 238.897 -0.167715 233.35 2.43729ZM253.652 7.77127C258.666 11.5143 260.318 14.7713 260.298 20.8703C260.265 30.5933 254.666 35.9163 243.538 36.8023C238.146 37.2323 237.105 37.0233 235.445 35.1823C234.397 34.0203 232.909 33.0692 232.139 33.0692C231.368 33.0692 229.819 30.9932 228.697 28.4562C226.249 22.9212 226.779 16.9672 230.173 11.8922C234.383 5.59924 247.629 3.27427 253.652 7.77127ZM273.754 32.6413C287.597 45.4563 289.48 63.3322 278.662 79.2062L275.35 84.0652L267.6 84.0673L259.85 84.0692L259.835 80.3192C259.826 78.2572 259.414 75.9292 258.919 75.1472C258.28 74.1372 258.756 73.1443 260.56 71.7253C266.918 66.7243 268.703 54.5912 264.431 45.4152C262.97 42.2792 261.176 39.9903 259.847 39.5683L257.662 38.8753L260.142 36.2222C261.506 34.7632 263.36 32.1062 264.262 30.3192C265.163 28.5322 266.314 27.0692 266.819 27.0692C267.323 27.0692 270.444 29.5763 273.754 32.6413ZM222.85 29.9292C222.85 30.4032 224.007 32.4943 225.42 34.5773C226.834 36.6603 227.571 38.6352 227.06 38.9672C223.676 41.1572 221.082 53.4603 222.296 61.5583C223.041 66.5243 226.748 71.7002 230.613 73.1692C232.4 73.8492 232.866 74.5613 232.353 75.8333C231.968 76.7883 231.413 79.2572 231.12 81.3192L230.587 85.0692H222.718C218.391 85.0692 214.85 84.7153 214.85 84.2823C214.85 83.8493 212.9 81.4312 210.517 78.9092C203.535 71.5172 201.101 59.2293 204.265 47.3443C206.699 38.2003 210.888 32.8882 217.534 30.5182C222.11 28.8862 222.85 28.8042 222.85 29.9292ZM254.85 41.3953C254.85 42.1243 255.931 43.7362 257.252 44.9772C262.801 50.1902 262.558 61.7373 256.786 67.1293C254.297 69.4543 253.278 69.7593 249.443 69.3273C246.994 69.0513 243.647 69.2933 242.007 69.8643C239.581 70.7103 238.248 70.5203 234.87 68.8493C228.597 65.7453 227.514 63.4352 228.043 54.2882C228.542 45.6772 230.905 40.4412 233.748 41.6492C237.229 43.1292 245.46 43.1903 249.35 41.7663C254.581 39.8523 254.85 39.8333 254.85 41.3953ZM252.85 77.0692C254.99 79.2092 255.195 80.0062 254.243 82.4872C253.756 83.7562 251.974 84.0692 245.243 84.0692C237.105 84.0692 236.85 83.9983 236.85 81.7243C236.85 75.9083 248.345 72.5642 252.85 77.0692ZM351.238 78.3662C356.661 83.7902 358.884 109.059 354.376 114.041C351.751 116.941 344.226 116.825 339.933 113.819C336.762 111.598 336.717 111.453 336.465 102.569C336.266 95.5312 335.718 92.6192 333.954 89.2102C331.999 85.4322 331.86 84.4602 332.912 81.9202C334.684 77.6412 337.56 76.0692 343.618 76.0692C347.837 76.0692 349.417 76.5452 351.238 78.3662ZM147.194 84.2253C149.395 86.6143 149.893 87.9032 149.399 89.9392C149.048 91.3862 148.495 97.2253 148.17 102.916C147.585 113.158 147.548 113.283 144.465 115.219C140.434 117.749 134.46 117.133 131.175 113.848C128.368 111.041 126.369 100.961 127.271 94.1602C128.31 86.3192 135.799 79.3642 141.85 80.6212C143.225 80.9072 145.63 82.5293 147.194 84.2253ZM392.1 85.7412C393.417 86.5242 392.906 91.0543 391.208 93.6453C388.128 98.3463 380.374 101.732 366.252 104.544L363.154 105.161L362.483 97.3653C362.114 93.0773 361.533 88.2782 361.191 86.6992L360.571 83.8293L375.96 84.5623C384.425 84.9653 391.687 85.4952 392.1 85.7412ZM328.363 91.0943C330.374 94.9823 332.148 104.554 331.334 107.119C330.603 109.422 328.119 110.549 311.55 116.089C300.579 119.756 277.027 126.058 274.258 126.066C273.658 126.068 272.625 124.262 271.964 122.054C269.59 114.131 259.499 110.419 242.906 111.365C227.582 112.239 220.891 115.249 217.357 122.861L215.365 127.152L209.857 126.537C186.039 123.879 156.166 117.813 154.004 115.197C152.982 113.96 152.809 111.319 153.283 104.2C153.626 99.0472 154.331 94.0382 154.85 93.0702C155.726 91.4332 159.791 91.2613 212.571 90.6253C243.799 90.2483 275.425 89.5853 282.85 89.1503C290.275 88.7153 303.201 88.2943 311.574 88.2143L326.799 88.0692L328.363 91.0943ZM121.864 99.3192C121.871 102.757 122.149 106.582 122.48 107.819C123.053 109.954 122.801 110.069 117.539 110.069C109.728 110.069 96.9268 108.16 93.7618 106.524C89.0598 104.092 88.2048 97.6452 92.3748 96.0592C95.3928 94.9122 108.086 93.3822 116.1 93.2002L121.85 93.0692L121.864 99.3192ZM260.611 118.721C266.754 120.915 268.471 124.849 265.1 129.004C263.414 131.082 263.19 131.104 258.974 129.615C251.321 126.911 237.935 128.434 228.916 133.035C225.757 134.647 224.845 134.768 223.954 133.694C222.186 131.564 221.56 126.48 222.783 124.194C226.454 117.336 248.005 114.217 260.611 118.721ZM258.759 135.718C260.99 137.28 261.08 137.765 260.476 145.004C260.12 149.266 260.316 155.225 260.919 158.486L262 164.331L258.604 167.95C256.736 169.941 254.026 173.038 252.581 174.834L249.954 178.099L246.652 175.201C244.836 173.606 240.2 170.112 236.35 167.436L229.35 162.569L229.632 150.828L229.913 139.088L232.849 137.569C239.903 133.922 254.686 132.865 258.759 135.718ZM317.619 156.104C327.868 159.657 334.09 166.748 338.019 179.355C339.894 185.372 340.859 199.627 339.536 201.767C339.194 202.321 336.053 203.041 332.556 203.368C329.059 203.694 323.846 204.888 320.971 206.021C317.636 207.336 314.77 207.846 313.048 207.431C308.403 206.312 298.769 201.124 287.35 193.591C281.3 189.6 274.676 185.795 272.63 185.134C267.964 183.628 260.564 183.316 255.35 184.404C251.495 185.208 251.413 185.172 253.083 183.404C254.037 182.395 257.03 178.829 259.735 175.481C274.796 156.838 297.658 149.185 317.619 156.104ZM203.619 158.681C216.824 162.121 232.423 170.294 241.672 178.619C244.795 181.43 248.166 184.177 249.163 184.724C250.778 185.611 250.539 186.009 246.97 188.371C244.766 189.829 241.368 192.618 239.419 194.567L235.874 198.112L212.978 198.615C197.302 198.96 188.26 199.592 184.308 200.622C177.365 202.43 166.795 207.872 161.474 212.376L157.598 215.658L150.474 212.258C146.556 210.388 143.019 208.343 142.615 207.714C140.968 205.147 141.866 192.094 144.194 184.764C148.168 172.25 153.781 165.737 165.03 160.587C175.032 156.008 190.435 155.247 203.619 158.681ZM274.895 192.402C277.548 193.779 282.111 196.705 285.034 198.905C291.658 203.889 303.931 210.485 309.746 212.187C312.919 213.115 316.145 215.434 321.34 220.521C330.076 229.075 334.225 236.871 333.259 242.915C332.87 245.345 333.251 248.937 334.269 252.439L335.903 258.06L331.898 263.127C329.695 265.914 327.382 269.9 326.757 271.983C325.456 276.329 321.648 279.069 316.912 279.069C309.161 279.069 296.656 269.014 288.254 256.027C283.654 248.916 275.85 233.504 275.85 231.53C275.85 230.901 277.597 229.862 279.731 229.223C284.945 227.661 286.727 225.518 284.59 223.38C283.138 221.929 282.647 221.933 278.905 223.43C272.775 225.883 264.886 225.53 257.635 222.478L251.48 219.888L248.134 223.916C246.293 226.132 243.313 228.856 241.511 229.969C236.563 233.028 227.069 235.21 221.992 234.456L217.634 233.81L221.596 230.189C226.697 225.527 229.543 221.465 234.755 211.404C239.646 201.961 246.231 194.879 253.35 191.403C259.697 188.304 267.712 188.676 274.895 192.402ZM411.334 199.319C410.977 200.556 408.503 206.1 405.837 211.638C401.865 219.891 399.843 222.778 394.63 227.638C391.132 230.9 386.02 234.783 383.271 236.267C377.82 239.208 369.85 241.405 369.85 239.966C369.85 239.476 368.275 237.331 366.35 235.201C364.425 233.07 362.876 230.931 362.907 230.448C363.032 228.53 373.667 220.88 381.587 217.01C387.721 214.014 389.882 212.468 389.648 211.243C388.918 207.407 380.779 209.69 370.232 216.691C367.226 218.686 364.659 220.15 364.529 219.944C364.398 219.738 363.53 217.894 362.6 215.847L360.909 212.125L365.597 208.899C368.175 207.125 373.264 204.461 376.906 202.979C382.646 200.643 385.983 199.736 396.35 197.695C397.45 197.478 401.418 197.249 405.167 197.185C411.786 197.072 411.966 197.135 411.334 199.319ZM81.3498 206.059C90.6478 208.489 103.927 214.552 108.6 218.5C111.259 220.747 111.85 221.968 111.85 225.215V229.182L107.6 226.543C95.2188 218.854 80.4288 214.633 77.1958 217.866C75.0028 220.059 77.1198 221.561 84.3498 222.946C91.4388 224.303 102.758 229.517 108.284 233.971C110.447 235.715 112.829 236.907 113.578 236.62C114.326 236.333 113.456 237.89 111.644 240.08L108.35 244.063L102.35 243.434C86.6398 241.788 71.4468 235.456 60.0638 225.812C51.7278 218.75 43.9588 208.32 45.3528 206.064C47.5118 202.57 67.9898 202.567 81.3498 206.059ZM231.85 204.569C231.85 204.844 229.937 208.534 227.6 212.77C222.392 222.208 217.262 227.566 211.895 229.174C205.191 231.182 204.166 234.767 209.672 236.945C223.964 242.599 239.85 240.06 249.85 230.524L253.35 227.187L258.85 229.095C261.875 230.145 265.346 231.018 266.564 231.036C268.396 231.063 269.861 233.269 275.05 243.819C285.219 264.49 295.893 276.886 308.6 282.78C313.24 284.933 313.85 285.567 313.85 288.241C313.85 294.521 304.549 299.748 296.198 298.162C287.729 296.553 276.029 288.805 270.314 281.02C266.328 275.59 262.85 274.372 262.85 278.405C262.85 281.671 269.097 289.334 275.973 294.502L281.77 298.86L278.56 300.214C273.754 302.243 266.055 301.789 261.01 299.181C254.531 295.83 247.639 290.631 245.07 287.154C242.668 283.904 239.44 283.089 238.515 285.499C237.24 288.822 249.569 300.582 257.35 303.466C259.202 304.153 259.078 304.457 255.68 307.578C249.118 313.606 238.148 314.612 229.849 309.949L225.925 307.743L226.535 298.454L227.145 289.164L223.598 285.617C220.824 282.843 219.25 282.069 216.384 282.069C214.368 282.069 211.823 282.548 210.728 283.134C209.065 284.024 208.092 283.617 204.819 280.66C198.575 275.019 193.795 274.72 187.987 279.608L184.969 282.147L180.434 278.685C174.704 274.311 166.398 272.243 160.685 273.767C157.02 274.746 156.357 274.586 152.081 271.698C149.366 269.865 146.25 266.516 144.556 263.611C141.8 258.886 141.739 258.527 143.257 255.957C145.324 252.457 145.268 251.319 142.797 246.709C140.204 241.87 140.033 242.143 155.476 226.461C169.704 212.012 177.225 207.468 190.85 205.09C195.8 204.226 231.85 203.768 231.85 204.569ZM349.85 211.889C356.638 215.197 359.516 219.705 358.454 225.366L357.759 229.069L351.555 229.113C348.142 229.137 343.567 229.792 341.388 230.568C339.209 231.344 337.375 231.887 337.312 231.774C334.34 226.461 331.374 222.448 327.014 217.843L321.592 212.118L324.471 210.997C333.285 207.568 341.583 207.86 349.85 211.889ZM145.462 216.177C149.25 217.887 152.515 219.439 152.716 219.627C152.917 219.814 149.348 224.163 144.783 229.29L136.485 238.612L131.998 236.341C129.53 235.091 126.045 234.069 124.253 234.069C120.046 234.069 116.432 229.896 117.363 226.112C118.54 221.332 121.375 217.717 125.77 215.393C131.827 212.19 137.089 212.399 145.462 216.177ZM422.574 232.722C430.161 235.38 443.03 243.669 444.85 247.069C445.804 248.852 445.12 249.586 438.424 253.957C427.83 260.873 416.852 265.246 408.567 265.849L401.783 266.342L394.567 259.445C390.598 255.651 385.775 251.335 383.85 249.855L380.35 247.163L388.35 247.143C392.75 247.132 400.625 247.539 405.85 248.048C413.712 248.813 415.603 248.722 416.814 247.521C418.1 246.246 418.08 245.871 416.655 244.446C415.37 243.161 411.963 242.692 400.307 242.196L385.581 241.569L390.466 238.399C393.152 236.656 396.612 233.906 398.155 232.287C400.849 229.462 401.248 229.361 408.155 229.767C412.25 230.008 418.463 231.281 422.574 232.722ZM63.4638 235.588C65.2798 236.974 69.8698 239.595 73.6638 241.413L80.5608 244.718L67.4558 245.863C52.8898 247.135 46.0868 248.747 44.4718 251.307C42.3668 254.644 45.0258 255.463 52.0118 253.629C59.9158 251.554 86.5108 250.19 85.4448 251.914C85.0528 252.549 84.1918 253.069 83.5328 253.069C81.5898 253.069 72.6748 258.058 68.3198 261.581C64.4018 264.752 63.9438 264.862 51.7688 265.564C41.6568 266.148 38.0068 265.971 32.7988 264.644C25.5698 262.803 15.5708 258.365 11.9708 255.401L9.59179 253.442L18.9708 247.383C35.5128 236.698 44.1378 233.264 54.7558 233.135C59.0558 233.082 60.8368 233.584 63.4638 235.588ZM361.017 237.69C365.783 241.936 367.099 249.508 363.964 254.649C358.485 263.635 343.716 262.617 340.247 253.014C336.866 243.658 340.194 235.495 347.64 234.877C353.159 234.419 358.638 235.571 361.017 237.69ZM130.973 242.258C138.202 246.321 139.256 250.877 134.738 258.534C131.588 263.873 125.963 265.396 119.449 262.675C115.25 260.92 112.85 257.551 112.85 253.412C112.85 242.416 121.634 237.01 130.973 242.258ZM378.404 253.192C381.124 254.909 386.725 259.747 390.85 263.942C397.955 271.167 413.85 289.504 413.85 290.475C413.85 290.724 411.263 291.466 408.1 292.124C394.095 295.039 369.725 289.031 362.014 280.762C359.994 278.596 359.844 277.949 360.902 275.972C361.575 274.714 362.401 272.658 362.738 271.402C363.347 269.13 363.372 269.136 367.672 272.54C373.688 277.301 379.718 280.029 385.824 280.752C390.874 281.35 391.018 281.298 390.689 278.989C390.456 277.35 389.416 276.332 387.35 275.717C379.013 273.238 375.871 271.706 370.554 267.525L364.758 262.967L367.304 259.941C368.705 258.277 370.138 255.712 370.489 254.242C371.725 249.063 371.84 249.047 378.404 253.192ZM107.983 257.565L109.6 262.062L100.548 267.242C89.9058 273.332 78.1648 283.842 79.1458 286.399C80.1778 289.087 83.2018 288.336 86.9038 284.472C90.9568 280.241 100.681 273.153 106.35 270.298L110.35 268.283L110.285 275.661L110.219 283.038L104.765 286.944C97.0998 292.432 89.6708 296.702 82.5018 299.738C77.2188 301.976 74.4778 302.412 63.0998 302.822C55.8128 303.085 49.8498 303.034 49.8498 302.707C49.8498 302.38 50.9418 299.741 52.2768 296.841C53.6118 293.941 56.2758 288.11 58.1968 283.883C65.4118 268.008 77.6118 259.029 97.9628 254.614C101.476 253.852 104.804 253.192 105.358 253.148C105.912 253.105 107.093 255.092 107.983 257.565ZM342.597 264.216C343.228 264.847 346.581 265.635 350.047 265.966C356.247 266.559 356.355 266.621 356.657 269.739C357.377 277.159 346.147 283.184 335.753 280.955C331.711 280.088 330.851 279.523 330.856 277.736C330.863 275.2 332.977 270.902 336.468 266.326C339.09 262.888 340.711 262.33 342.597 264.216ZM148.315 276.045C154.67 280.417 154.228 282.434 145.853 287.298C135.412 293.361 128.715 293.524 122.278 287.871C117.752 283.898 115.85 280.161 115.85 275.241C115.85 270.271 117.699 268.631 122.324 269.498C126.503 270.282 132.781 268.755 135.959 266.182L138.258 264.32L140.961 268.583C142.447 270.927 145.757 274.285 148.315 276.045ZM172.632 280.622C177.67 282.727 181.668 286.751 182.803 290.861C183.794 294.449 182.279 305.069 180.777 305.069C177.633 305.069 174.326 302.202 169.893 295.633C167.097 291.489 163.468 287.107 161.83 285.896C158.752 283.621 157.909 280.615 160.1 279.731C162.711 278.678 169.058 279.129 172.632 280.622ZM200.082 284.037C201.728 285.332 202.816 287.453 203.261 290.238C204.085 295.389 201.197 315.248 199.255 317.783C197.99 319.436 197.468 319.138 192.265 313.799C187.322 308.726 186.733 307.7 187.387 305.299C187.796 303.798 188.406 299.174 188.741 295.024C189.7 283.167 193.856 279.14 200.082 284.037ZM218.548 288.57C219.727 289.396 220.952 291.308 221.27 292.82C222.011 296.347 218.479 313.461 216.333 316.735C214.618 319.353 209.32 322.069 205.926 322.069C204.053 322.069 204.017 321.848 205.292 318.234C206.995 313.407 208.85 301.613 208.85 295.613C208.85 291.526 209.196 290.829 212.1 289.058C216 286.68 215.865 286.691 218.548 288.57ZM292.158 303.138L295.966 304.195L293.221 308.882C282.826 326.629 266.469 345.367 251.579 356.589L245.809 360.937L239.838 357.562C225.665 349.551 219.665 344.462 209.985 332.24L206.818 328.24L211.672 326.628C217.109 324.822 221.267 321.038 222.871 316.439L223.942 313.366L228.146 315.454C233.156 317.942 245.272 318.858 250.895 317.174C252.965 316.553 256.906 314.026 259.652 311.557C264.454 307.239 264.885 307.069 270.997 307.056C275.639 307.047 278.697 306.395 282.35 304.635C288.394 301.724 287.538 301.855 292.158 303.138ZM387.464 338.516C395.759 362.518 397.586 401.365 391.292 419.924C390.995 420.798 387.661 418.262 381.905 412.784C376.996 408.112 370.557 402.904 367.597 401.21L362.215 398.131L363.493 390.85C365.867 377.323 364.882 369.759 360.682 369.264C358.459 369.003 357.317 370.063 352.605 376.764C349.587 381.057 346.142 385.44 344.95 386.504C342.876 388.357 342.58 388.369 338.066 386.791C332.119 384.711 320.493 382.069 317.288 382.069C315.947 382.069 314.85 381.666 314.85 381.173C314.85 380.681 318.494 377.559 322.948 374.237C338.762 362.439 365.431 336.774 376.395 322.803L379.35 319.036L382.206 325.303C383.778 328.749 386.143 334.695 387.464 338.516ZM122.492 348.007C127.364 350.998 137.875 357.763 145.85 363.041C153.825 368.319 163.588 374.572 167.545 376.935C171.503 379.299 175.226 381.817 175.82 382.532C177.204 384.2 173.373 385.767 157.7 389.94C151.293 391.646 144.925 393.47 143.549 393.993C141.611 394.73 140.712 394.564 139.562 393.257C136.524 389.804 131.85 379.679 131.85 376.551C131.85 369.879 126.187 369.527 122.888 375.994C118.657 384.287 117.76 402.631 121.004 414.485C122.156 418.693 122.145 419.47 120.927 419.876C120.144 420.137 115.962 423.663 111.634 427.71C107.307 431.758 103.369 435.069 102.885 435.069C99.6548 435.069 97.8598 417.291 97.8878 385.569C97.9108 360.766 98.3968 353.121 100.927 337.77L102.047 330.971L107.84 336.77C111.026 339.959 117.619 345.016 122.492 348.007ZM237.113 362.586C245.455 367.601 246.671 367.596 253.325 362.521L256.663 359.975L257.274 368.772C258.787 390.523 262.791 403.17 270.551 410.712C276.32 416.319 280.1 417.437 291.254 416.833C312.712 415.672 341.823 400.642 354.042 384.416L358.35 378.695L358.662 382.417C359.147 388.186 355.34 401.631 350.363 411.735C343.48 425.704 326.737 447.117 315.037 456.912L310.019 461.114L301.684 456.81C287.735 449.607 261.616 429.918 251.11 418.687C247.815 415.165 244.2 411.792 243.077 411.191C240.429 409.773 238.917 411.065 230.345 422.069C221.407 433.542 201.587 455.055 191.178 464.581L182.68 472.359L179.333 470.762C174.066 468.251 158.664 458.532 151.938 453.476C136.488 441.862 124.85 417.828 124.85 397.534C124.85 388.445 125.64 383.069 126.975 383.069C127.456 383.069 127.85 383.652 127.85 384.365C127.85 385.078 130.096 389.083 132.842 393.265C141.974 407.176 152.963 414.746 167.658 417.251C183.407 419.935 203.388 413.576 214.416 402.37C223.385 393.257 228.792 378.986 228.833 364.319C228.842 360.882 229.018 358.069 229.223 358.069C229.429 358.069 232.979 360.102 237.113 362.586ZM247.529 423.175C258.162 434.329 287.161 456.139 300.031 462.661L305.213 465.287L302.781 467.21C297.114 471.692 295.131 472.265 291.6 470.443C278.825 463.85 257.02 448.409 247.785 439.416C243.304 435.053 241.821 434.15 240.175 434.783C239.051 435.215 234.592 440.294 230.266 446.069C222.497 456.439 205.875 474.481 200.668 478.195C198.011 480.091 197.942 480.088 193.418 477.89C190.905 476.669 188.85 475.34 188.85 474.937C188.85 474.533 190.946 472.485 193.508 470.386C200.143 464.949 224.292 438.828 233.529 427.097C237.831 421.634 241.431 417.143 241.529 417.117C241.628 417.09 244.328 419.817 247.529 423.175ZM262.35 458.569C267.789 462.419 276.028 467.888 280.659 470.721L289.078 475.874L286.214 477.649C267.594 489.193 254.854 500.781 247.266 513.074C245.231 516.371 243.292 519.047 242.958 519.021C242.624 518.995 240.775 516.485 238.85 513.443C231.744 502.216 222.562 493.576 210.35 486.623C207.6 485.057 205.169 483.624 204.948 483.437C204.727 483.251 209.683 477.804 215.962 471.334C222.241 464.863 230.474 455.418 234.259 450.346L241.14 441.122L246.8 446.346C249.914 449.218 256.911 454.719 262.35 458.569Z" fill="#FFC4C4"/>
</svg>
