<svg width="277" height="545" viewBox="0 0 277 545" fill="none" xmlns="http://www.w3.org/2000/svg">
<path fill-rule="evenodd" clip-rule="evenodd" d="M94.57 0.44547C85.143 2.93147 80.1351 9.60251 82.1681 16.9645C84.5711 25.6685 96.092 33.3975 109.762 35.4775C113.717 36.0795 125.346 36.5714 135.604 36.5714H154.254L152.412 39.5844C150.172 43.2504 135.454 64.9444 124.723 80.3974C120.398 86.6274 114.157 94.6125 110.855 98.1425C104.848 104.563 103.9 107.571 107.883 107.571C112.003 107.571 121.482 95.6944 144.07 62.2304C149.845 53.6744 154.718 47.0955 154.899 47.6105C155.33 48.8365 151.014 62.0924 147.096 71.5714C143.506 80.2604 133.682 104.915 125.78 125.071C122.762 132.771 118.254 144.921 115.764 152.071C113.273 159.221 109.073 171.296 106.429 178.904L101.623 192.738L98.096 192.214C96.157 191.926 89.8161 191.154 84.0061 190.501C74.0671 189.383 73.166 189.435 68.773 191.378C54.663 197.62 48.954 208.602 47.447 232.403L46.7711 243.071L41.67 248.619C30.326 260.955 13.5891 293.635 5.19406 319.841C-2.39694 343.541 -1.51691 381.283 6.84909 390.825C8.13909 392.296 8.18406 393.022 7.12606 395.325C3.73206 402.712 5.06204 423.948 9.70004 436.433C17.887 458.467 39.113 475.098 65.408 480.085C80.126 482.876 92.3971 481.555 108.13 475.487C112.572 473.775 116.306 472.53 116.429 472.722C116.553 472.914 117.641 476.221 118.849 480.071C121.604 488.852 130.238 504.542 137.62 514.179C150.638 531.175 163.491 539.221 183.908 543.157C202.9 546.817 225.003 542.348 239.053 532.006C251.167 523.088 262.402 503.284 270.565 476.458C275.644 459.771 276.512 453.241 276.464 432.071C276.396 402.362 273.532 389.032 259.638 353.773C251.742 333.734 250.558 328.694 252.074 321.554C253.516 314.757 252.188 302.208 248.53 288.071C245.918 277.977 240.741 263.854 238.596 260.97C237.242 259.151 237.065 259.145 234.376 260.809C226.365 265.766 211.185 270.57 199.385 271.884L194.2 272.461L193.605 267.267C187.08 210.295 183.593 176.263 181.086 145.071C176.507 88.1134 175.154 72.9465 174.479 71.0505C173.16 67.3405 175.694 70.8764 183.094 83.0714C187.098 89.6714 193.206 99.6994 196.665 105.356C200.125 111.012 203.829 117.987 204.895 120.856C206.234 124.455 207.451 126.165 208.825 126.374C214.275 127.203 211.383 118.338 200.396 100.53C179.052 65.9374 169.497 48.8685 167.597 41.9455C166.814 39.0895 168.944 38.6024 182.286 38.5854C203.938 38.5574 228.345 33.2464 238.738 26.3004C245.196 21.9844 247.774 16.8645 246.175 11.5275C243.774 3.5125 234.802 0.39645 220.326 2.55045C208.09 4.37045 181.716 12.3584 177.57 15.4994C177.02 15.9164 173.531 17.4515 169.818 18.9115L163.065 21.5644L158.318 18.1835C145.067 8.74751 123.256 1.43748 104.458 0.132481C100.67 -0.130519 96.22 0.0104697 94.57 0.44547ZM116.77 7.55948C133.004 10.8135 149.115 17.4403 156.67 23.9713C159.956 26.8123 160.231 27.4024 159.18 29.3664C158.056 31.4654 157.389 31.5693 145.285 31.5343C113.787 31.4423 100.949 29.2245 92.744 22.4565C87.98 18.5265 86.574 15.1844 88.117 11.4574C90.562 5.55543 100.219 4.24148 116.77 7.55948ZM236.567 9.00553C240.781 10.7665 242.038 14.4454 239.662 18.0714C234.961 25.2464 211.694 31.6885 185.044 33.1945L173.406 33.8525L171.238 30.8075C170.046 29.1325 169.07 27.3124 169.07 26.7614C169.07 23.7094 203.898 10.8265 219.07 8.26554C224.779 7.30254 233.358 7.66553 236.567 9.00553ZM162.949 52.8214C168.814 67.2894 170.081 75.1544 173.057 115.571C175.538 149.273 179.422 190.612 183.603 227.817C186.06 249.676 188.07 268.757 188.07 270.218V272.876L176.32 272.277C165.589 271.73 154.259 269.332 150.333 266.776C149.395 266.165 149.802 264.291 152.015 259.02C158.58 243.39 159.775 227.803 155.115 218.571C151.85 212.103 144.03 205.076 137.258 202.527C134.13 201.349 126.031 199.02 119.262 197.352C108.943 194.809 107.059 194.056 107.607 192.695C108.22 191.173 121.372 153.449 124.733 143.571C125.575 141.096 133.152 121.746 141.57 100.571C157.271 61.0784 160.07 53.5825 160.07 51.0365C160.07 48.5045 161.578 49.4394 162.949 52.8214ZM92.144 197.184C107.54 199.816 132.169 206.328 138.041 209.319C145.017 212.873 150.603 220.007 152.116 227.292C153.369 233.33 151.734 244.183 148.157 253.571C144.815 262.341 144.942 262.267 139.572 258.573C128.799 251.16 108.964 244.503 90.404 242.07C75.9 240.169 65.7241 240.166 59.4791 242.06C56.7791 242.879 54.166 243.554 53.671 243.56C52.357 243.576 53.735 222.019 55.446 215.808C57.788 207.308 61.5011 201.938 67.3661 198.575C73.5411 195.033 78.079 194.779 92.144 197.184ZM93.07 248.235C111.311 250.908 130.932 258.388 139.82 266.059C143.277 269.043 144.07 270.365 144.07 273.149C144.07 275.031 143.814 276.571 143.5 276.571C143.187 276.571 139.699 274.611 135.75 272.216C120.562 263.003 114.839 260.932 93.57 256.95C77.493 253.939 61.345 253.382 50.775 255.471C47.038 256.21 43.6991 256.533 43.3541 256.189C42.2741 255.108 47.1071 250.792 49.3911 250.797C50.5891 250.8 53.595 250.029 56.07 249.085C65.507 245.487 73.13 245.313 93.07 248.235ZM84.07 261.071C89.295 261.876 93.908 262.543 94.32 262.553C94.732 262.563 95.07 263.537 95.07 264.718C95.07 265.899 96.5691 268.711 98.4021 270.968C103.197 276.874 109.07 285.842 109.07 287.258C109.07 287.926 104.743 292.285 99.4541 296.944L89.8391 305.416L84.629 299.819C80.915 295.829 78.9401 294.407 77.7451 294.865C74.9831 295.925 75.816 298.495 80.674 303.898L85.278 309.019L81.424 312.279C79.304 314.072 77.12 315.403 76.57 315.236C76.02 315.069 75.1471 312.58 74.6301 309.707C73.8271 305.242 73.3901 304.526 71.6301 304.777C68.8321 305.178 68.529 308.899 70.567 317.856C72.749 327.452 72.841 347.75 70.744 357.071C67.645 370.849 58.681 388.308 51.968 393.643C46.647 397.871 38.293 401.792 33.44 402.34C28.098 402.942 22.543 399.923 15.878 392.798C7.39502 383.728 6.72605 381.552 6.26205 361.517C6.02205 351.154 6.32301 340.913 6.99801 336.517C8.82201 324.637 15.49 306.627 26.139 284.821C34.771 267.144 36.3231 264.571 38.3491 264.571C39.6261 264.571 41.0971 264.145 41.6201 263.625C43.1381 262.113 57.85 259.797 66.57 259.698C70.97 259.648 78.845 260.266 84.07 261.071ZM120.216 270.145C122.869 271.489 128.894 274.866 133.606 277.649C144.228 283.923 145.248 285.847 141.642 292.799C138.181 299.469 130.005 309.915 129.038 308.902C128.602 308.445 125.685 303.678 122.555 298.308L116.863 288.542L120.513 284.503C125.664 278.801 126.847 275.919 124.854 273.927C123.115 272.188 122.955 272.305 117.445 279.321C116.041 281.108 114.565 282.571 114.165 282.571C113.765 282.571 111.577 279.759 109.302 276.321C107.028 272.884 103.993 268.647 102.557 266.907L99.947 263.745L107.669 265.722C111.917 266.81 117.563 268.8 120.216 270.145ZM238.94 276.321C242.038 285.023 246.05 300.498 246.063 303.801C246.074 306.461 236.669 311.266 227.078 313.499C210.087 317.456 166.346 318.687 153.57 315.567L148.57 314.345L148.829 298.208C149.064 283.602 149.732 273.571 150.471 273.571C150.625 273.571 154.31 274.536 158.66 275.715C165.216 277.491 169.395 277.864 183.07 277.89C192.145 277.907 202.495 277.371 206.07 276.699C214.596 275.098 231.802 269.815 232.578 268.559C234.19 265.95 236.059 268.229 238.94 276.321ZM119.899 305.19C122.743 310.205 125.07 314.796 125.07 315.391C125.07 316.611 109.974 334.571 108.949 334.571C108.034 334.571 93.8441 312.691 93.6931 311.047C93.6251 310.315 97.845 305.928 103.07 301.298C111.191 294.102 112.727 293.111 113.649 294.475C114.242 295.353 117.055 300.174 119.899 305.19ZM142.07 317.071C140.472 328.326 139.946 328.784 136.211 322.167C134.483 319.106 133.07 316.339 133.07 316.016C133.07 315.694 135.208 312.427 137.82 308.757L142.57 302.085L142.897 305.512C143.077 307.397 142.705 312.599 142.07 317.071ZM247.07 315.823C247.07 318.804 246.592 319.297 241.32 321.751C235.733 324.353 218.577 327.695 195.57 330.665C182.423 332.362 166.244 331.341 157.57 328.265C147.164 324.574 147.07 324.52 147.07 322.332C147.07 320.561 147.539 320.377 150.82 320.863C152.883 321.168 158.17 321.955 162.57 322.611C170.959 323.861 190.492 323.425 212.07 321.505C224.392 320.409 235.983 317.724 241.907 314.594C246.815 312.002 247.07 312.062 247.07 315.823ZM96.32 326.555C100.583 333.122 104.07 338.923 104.07 339.448C104.07 342.048 87.7171 352.377 80.1721 354.542L77.57 355.289L77.788 338.727L78.0061 322.164L82.788 318.421C85.418 316.361 87.795 314.662 88.07 314.646C88.345 314.63 92.057 319.989 96.32 326.555ZM132.893 327.546C134.699 330.832 136.603 333.782 137.123 334.104C138.66 335.054 138.229 338.275 135.51 346.152C132.934 353.615 132.962 355.571 135.644 355.571C138.01 355.571 140.763 349.915 143.134 340.185C144.355 335.172 145.486 330.913 145.646 330.72C145.807 330.527 148.555 331.275 151.754 332.381C160.142 335.281 172.083 337.571 178.808 337.571C191.193 337.571 234.71 331.002 241.717 328.074C246.301 326.159 246.07 326.09 246.07 329.39C246.07 333.488 248.427 340.817 255.614 359.069C259.119 367.972 263.15 379.265 264.571 384.164C271.481 407.995 273.205 436.847 269.077 459.571C267.268 469.532 259.748 491.403 254.207 502.819C248.304 514.983 241.551 523.683 234.041 528.799C227.952 532.947 215.977 537.026 205.564 538.5C193.483 540.211 176.786 536.964 163.57 530.331C156.194 526.629 144.485 515.024 137.705 504.696C130.883 494.306 123.749 479.169 123.858 475.319C123.908 473.565 123.526 471.621 123.01 470.999C122.369 470.227 123.774 468.51 127.438 465.586C134.08 460.286 139.847 452.994 145.111 443.234C149.023 435.98 149.297 435.717 154.124 434.559C159.824 433.192 175.569 434.538 185.07 437.206C191.94 439.135 201.947 444.341 208.84 449.572C214.676 454 218.07 454.741 218.07 451.586C218.07 447.572 200.483 436.06 188.321 432.114L183.071 430.412L189.321 427.323C198.095 422.987 208.479 412.251 213.272 402.559C218.409 392.173 224.871 372.343 226.185 362.935C227.492 353.583 226.499 348.071 223.506 348.071C221.771 348.071 221.498 349.085 220.872 357.866C220.316 365.663 219.229 370.455 215.544 381.366C209.867 398.175 205.45 406.326 197.94 413.85C187.921 423.89 172.866 428.952 165.139 424.88C159.821 422.078 158.009 417.452 157.916 406.438C157.807 393.601 160.383 387.531 173.306 370.186C179.866 361.381 180.257 357.26 174.225 360.488C171.799 361.786 161.369 376.528 156.996 384.838L153.313 391.838L152.143 388.292C150.494 383.296 141.942 371.431 137.394 367.829C135.291 366.163 130.532 363.301 126.82 361.47C122.892 359.533 120.064 357.5 120.056 356.606C120.048 355.762 118.251 351.786 116.062 347.77L112.083 340.47L120.165 331.02C124.61 325.823 128.554 321.571 128.928 321.571C129.302 321.571 131.086 324.26 132.893 327.546ZM111.109 350.781C113.594 355.483 113.568 355.867 110.82 354.977C109.583 354.576 105.974 353.983 102.801 353.659L97.0321 353.071L102.301 348.936C107.957 344.497 107.765 344.457 111.109 350.781ZM108.16 360.468C119.314 363.324 130.79 369.16 136.235 374.745C152.393 391.32 154.418 412.141 142.236 436.478C132.086 456.757 124.015 463.907 102.57 471.611C90.295 476.021 74.564 476.85 62.252 473.736C39.247 467.919 20.265 451.383 13.931 431.64C11.742 424.82 10.2041 405.159 11.4651 400.135L12.106 397.579L17.576 402.032C26.982 409.694 34.236 410.05 47.239 403.486C56.387 398.868 62.175 392.302 68.587 379.268C71.597 373.151 74.3371 366.663 74.6781 364.85C75.0991 362.602 75.9761 361.388 77.4331 361.034C89.2921 358.16 98.483 357.991 108.16 360.468ZM155.863 428.392C152.036 428.802 151.867 428.57 153.283 424.819L154.461 421.698L156.655 424.884L158.849 428.071L155.863 428.392Z" fill="#FFC4C4"/>
</svg>
