<svg width="518" height="578" viewBox="0 0 518 578" fill="none" xmlns="http://www.w3.org/2000/svg">
<path fill-rule="evenodd" clip-rule="evenodd" d="M369.63 0.566514C367.021 2.02651 367.383 6.22137 370.151 6.61437C371.809 6.85037 373.322 8.77046 375.901 13.9125C379.299 20.6875 379.401 21.2304 379.401 32.4894C379.401 43.5024 379.535 44.2634 382.058 47.5724C385.116 51.5824 393.833 56.4783 402.133 58.8453C409.556 60.9623 415.901 66.6815 415.901 71.2565C415.901 75.4425 413.645 76.7305 401.583 79.4315C392.06 81.5635 391.722 81.5743 390.364 79.7823C389.595 78.7653 388.95 77.0644 388.933 76.0004C388.822 69.2764 375.013 54.0435 363.976 48.4725C352.921 42.8925 343.986 40.9765 328.901 40.9545L315.401 40.9344L299.455 47.3434L283.509 53.7525L268.455 54.4964C252.411 55.2894 245.872 56.8835 233.901 62.9195C221.552 69.1455 204.901 82.6635 204.901 86.4615C204.901 87.7775 203.836 88.4385 200.925 88.9305C192.79 90.3045 169.93 103.59 168.273 107.906C167.864 108.972 167.12 109.089 165.251 108.378C158.221 105.705 148.886 108.125 137.376 115.604C127.718 121.879 127.141 122.142 117.174 124.809C112.309 126.111 106.33 128.196 103.888 129.442C92.9443 135.025 80.3273 146.562 75.5343 155.368C71.4463 162.879 66.9572 176.98 66.2572 184.511C64.5712 202.654 73.4922 221.101 86.1512 225.644C89.2942 226.772 89.3082 226.809 87.7262 229.75C85.5202 233.851 85.0422 239.929 86.0982 250.47C86.8932 258.405 86.8492 262.813 85.9212 268.318C84.7852 275.05 84.5193 275.582 82.5443 275.062C81.3663 274.752 74.7762 272.634 67.9012 270.357C49.3592 264.215 43.4463 262.435 41.5813 262.435C39.1343 262.435 39.5132 265.52 42.4472 269.49C43.8472 271.384 48.3302 279.01 52.4102 286.435C56.4902 293.86 60.6971 301.225 61.7601 302.801L63.6932 305.666L60.1812 313.061C57.7322 318.218 56.5131 322.393 56.1551 326.859C55.6421 333.253 55.6361 333.262 52.1451 333.917C50.2221 334.278 44.9934 335.613 40.5254 336.885C36.0574 338.157 26.1013 340.885 18.4013 342.948C-0.0816669 347.899 -0.303758 347.991 0.0822417 350.58C0.327242 352.223 5.97933 355.857 24.4013 366.216C37.6013 373.638 49.9483 380.272 51.8393 380.958C55.0923 382.138 55.4002 382.673 57.5912 390.926C58.8642 395.722 62.4113 404.604 65.4723 410.664L71.0392 421.682L68.2203 424.8C66.6693 426.515 58.9893 434.534 51.1513 442.619C30.1133 464.322 30.1971 464.429 65.4991 460.974C79.6971 459.584 91.5872 458.782 91.9232 459.191C111.705 483.335 120.162 490.991 139.152 501.955C143.821 504.65 145.762 506.327 145.446 507.393C145.195 508.241 144.297 512.985 143.451 517.935C142.606 522.885 141.244 530.085 140.425 533.935C138.497 543 138.553 545.425 140.76 548.295C142.509 550.569 142.688 550.597 145.677 549.051C147.383 548.169 156.244 542.719 165.368 536.941C174.492 531.163 182.156 526.435 182.398 526.435C182.641 526.435 189.266 528.957 197.12 532.039C217.678 540.106 235.059 544.177 251.322 544.733L257.243 544.935L267.094 560.435C275.467 573.609 277.414 576.057 280.07 576.751C282.258 577.322 283.578 577.172 284.469 576.251C285.169 575.527 287.982 568.41 290.719 560.435C293.456 552.46 296.142 544.797 296.689 543.406C297.549 541.218 298.664 540.711 304.978 539.629C321.264 536.836 338.592 529.976 352.211 520.931L358.022 517.072L379.711 524.382C398.57 530.738 401.76 531.548 404.151 530.588C405.808 529.923 406.901 528.724 406.901 527.572C406.901 526.52 402.817 517.172 397.825 506.797C390.698 491.986 388.986 487.613 389.854 486.435C392.497 482.848 396.84 472.347 397.997 466.75L399.253 460.668L404.744 460.024C411.073 459.28 419.215 455.208 421.893 451.447C425.678 446.13 428.496 429.439 427.073 420.762L426.224 415.591L430.331 414.557C438.773 412.431 445.789 403.565 447.922 392.328C449.435 384.362 448.306 379.087 442.647 367.688C439.85 362.052 437.75 357.266 437.981 357.052C438.992 356.117 458.965 346.435 459.883 346.435C460.443 346.435 460.915 347.222 460.933 348.185C461.02 352.958 467.947 356.088 474.449 354.293C477.047 353.576 478.734 352.036 481.278 348.06C483.556 344.499 485.917 342.202 488.529 341.008C499.299 336.083 501.041 335.04 503.857 331.832C507.806 327.334 507.817 323.193 503.901 315.435C502.251 312.166 500.901 308.535 500.901 307.364C500.901 306.194 502.589 302.502 504.651 299.161C507.843 293.99 508.401 292.23 508.401 287.345C508.401 276.746 501.145 270.122 486.077 266.966C477.298 265.127 464.804 260.09 462.382 257.414C460.706 255.562 460.742 255.446 463.294 254.476C464.756 253.92 468.978 252.993 472.676 252.418C489.191 249.848 495.584 246.258 500.685 236.688C503.873 230.706 506.115 228.002 513.094 221.713C517.638 217.618 518.375 214.579 516.441 207.925C514.335 200.681 508.263 193.358 499.64 187.661C491.758 182.454 490.212 179.923 491.316 174.038C491.832 171.284 493.814 168.496 499.067 163.136C506.249 155.805 509.84 149.927 509.878 145.435C509.914 141.207 504.459 131.17 499.802 126.895C497.381 124.673 493.362 121.868 490.869 120.662C485.917 118.265 467.598 114.286 453.401 112.525C440.581 110.935 431.324 108.56 429.323 106.348C427.017 103.801 427.282 98.9604 429.939 95.0904C431.13 93.3544 436.088 89.0645 440.956 85.5565C452.022 77.5815 455.137 73.3245 455.71 65.3915C456.485 54.6875 450.426 47.8965 435.725 42.9945C431.503 41.5865 427.228 40.4304 426.225 40.4244C422.882 40.4064 414.355 35.7624 411.555 32.4344C410.034 30.6274 407.662 26.9225 406.283 24.2015C401.173 14.1185 391.268 6.27452 381.844 4.84752C379.4 4.47752 376.501 3.39948 375.401 2.45348C372.308 -0.208523 371.492 -0.475486 369.63 0.566514ZM388.401 13.1754C393.193 15.5514 396.785 19.4324 401.137 26.9344C408.537 39.6934 412.694 42.6024 430.401 47.4144C441.577 50.4514 446.645 53.6025 449.031 58.9955C452.448 66.7205 449.449 72.7314 438.352 80.4034C429.634 86.4294 426.521 89.4834 423.833 94.6444C419.845 102.301 422.546 110.063 430.408 113.541C432.858 114.625 441.058 116.404 448.631 117.495C470.705 120.674 483.028 123.3 488.615 126.014C497.936 130.542 505.175 141.224 503.485 147.958C503.111 149.445 499.484 154.148 495.425 158.41C487.062 167.189 484.537 172.017 485.178 178C485.792 183.724 488.309 187.03 495.524 191.587C504.787 197.437 511.808 206.585 511.879 212.895C511.892 214.017 509.196 217.438 505.576 220.895C501.751 224.547 497.897 229.501 495.826 233.428C491.492 241.645 487.792 243.798 473.265 246.551C458.382 249.373 455.901 250.858 455.901 256.944C455.901 261.981 468.469 268.903 483.246 272.004C496.614 274.81 502.889 279.641 502.897 287.136C502.899 288.957 501.139 293.686 498.817 298.094C494.154 306.948 494.161 308.234 498.922 318.122C500.56 321.525 501.901 324.703 501.901 325.185C501.901 327.154 495.948 331.491 488.778 334.746C482.433 337.625 480.6 339.021 477.844 343.07C476.023 345.746 474.053 348.266 473.467 348.67C471.175 350.249 467.976 349.349 465.996 346.569L463.955 343.702L468.928 339.509C473.032 336.049 473.901 334.742 473.901 332.03C473.901 323.797 464.668 322.636 451.607 329.229C450.516 329.78 451.783 325.07 454.571 318.208C459.419 306.279 457.802 302.148 443.99 291.172C432.677 282.182 432.333 281.579 432.762 271.458C433.107 263.335 433.289 262.752 436.641 259.04C443.379 251.578 449.598 233.481 450.596 218.435C451.613 203.095 446.064 187.791 434.622 174.381C429.218 168.048 428.357 166.527 428.985 164.421C429.393 163.054 429.98 160.772 430.291 159.35L430.856 156.765L436.7 157.968C439.914 158.63 443.519 159.694 444.712 160.333C448.124 162.159 449.9 166.709 449.907 173.635C449.917 185.018 453.183 191.497 460.893 195.431C471.076 200.626 473.822 206.317 467.433 208.986C465.526 209.783 462.578 210.435 460.883 210.435C456.553 210.435 451.901 213.053 451.901 215.491C451.901 217.956 454.566 219.125 456.886 217.676C457.833 217.085 460.811 216.28 463.504 215.887C466.197 215.495 469.631 214.551 471.134 213.788C474.008 212.33 476.904 207.78 476.897 204.735C476.89 201.138 472.759 196.303 465.906 191.87C462.054 189.378 458.283 186.122 457.525 184.636C456.767 183.15 455.952 178.075 455.712 173.358C455.377 166.746 454.765 163.949 453.039 161.157C450.326 156.768 445.772 153.819 440.401 152.972C433.285 151.85 428.27 148.535 425.286 142.982C420.052 133.242 416.873 129.513 410.026 125.083C397.998 117.302 394.449 112.638 391.347 100.531C388.983 91.3025 389.512 89.3275 394.901 87.2765C397.376 86.3335 402.776 84.8164 406.901 83.9054C416 81.8934 418.628 80.3324 420.513 75.8204C422.379 71.3544 420.99 65.7443 416.853 61.0323C413.617 57.3473 411.273 56.1125 399.729 52.0135C394.775 50.2535 390.789 48.0564 388.477 45.8104L384.896 42.3334L385.029 32.1334C385.131 24.3094 384.7 20.5904 383.18 16.1644L381.198 10.3934L383.299 11.0404C384.455 11.3964 386.751 12.3574 388.401 13.1754ZM329.306 47.5524C327.17 49.9264 309.984 62.4834 290.401 75.9764C283.251 80.9034 274.026 88.3144 269.901 92.4464C262.572 99.7864 253.832 112.871 252.374 118.685C251.995 120.197 251.395 121.424 251.043 121.411C250.69 121.398 248.478 118.586 246.128 115.161C243.778 111.737 239.83 106.717 237.355 104.007L232.854 99.0776L235.981 95.8524C240.149 91.5514 263.926 78.1324 281.901 69.9364C299.934 61.7134 302.701 60.0815 311.358 52.5665C318.279 46.5595 319.852 45.8703 327.306 45.5843L331.211 45.4344L329.306 47.5524ZM346.715 48.3695C348.916 48.9495 348.716 49.3463 342.638 56.4693C334.747 65.7173 329.39 70.4704 316.473 79.6854C303.795 88.7284 298.618 93.4886 293.904 100.434C288.234 108.786 281.019 123.78 280.34 128.621C280.007 130.994 279.578 133.451 279.388 134.083C279.142 134.898 276.244 134.573 269.426 132.966C259.02 130.512 254.305 127.589 255.881 124.57C256.35 123.671 257.314 121.38 258.023 119.48C260.373 113.185 270.472 98.9765 276.27 93.8085C279.411 91.0095 290.992 82.4834 302.004 74.8624C313.017 67.2424 325.936 57.7665 330.714 53.8055C339.764 46.3025 339.376 46.4345 346.715 48.3695ZM359.541 52.6114C363.953 54.8144 364.723 55.8083 362.894 56.9393C362.34 57.2813 359.46 61.2464 356.493 65.7504C351.265 73.6904 345.51 79.7225 333.574 89.7735C327.179 95.1595 319.44 105.537 314.389 115.501C310.549 123.076 309.407 127.988 310.335 132.935C310.863 135.752 311.449 136.435 313.333 136.435C315.519 136.435 315.701 135.985 316.068 129.685C316.421 123.61 317.027 121.974 322.125 113.333C328.048 103.297 332.835 97.8955 346.818 85.4745C351.9 80.9595 357.074 75.1685 359.92 70.8075C362.508 66.8445 365.6 62.3603 366.793 60.8443L368.962 58.0875L372.967 61.9994C375.17 64.1504 376.533 66.0574 375.995 66.2364C375.457 66.4154 374.001 68.6614 372.759 71.2274C371.517 73.7934 366.122 80.4504 360.772 86.0204C344.881 102.561 335.928 118.327 335.101 131.224L334.626 138.628L315.831 137.906C305.494 137.51 294.418 136.904 291.219 136.56L285.401 135.935L285.746 131.435C286.105 126.762 292.236 113.436 298.376 103.985C302.617 97.4576 306.936 93.5275 320.401 83.9435C331.229 76.2365 349.118 59.2615 352.569 53.4195C353.539 51.7775 354.523 50.4344 354.757 50.4344C354.991 50.4344 357.144 51.4144 359.541 52.6114ZM298.429 55.4064C296.795 56.4834 289.82 59.9225 282.929 63.0475C260.151 73.3795 240.267 84.5614 232.802 91.2364C228.076 95.4624 227.945 95.5094 225.446 93.8714C224.046 92.9544 222.901 91.8544 222.901 91.4274C222.901 89.8674 235.036 79.4715 243.193 74.0445C252.208 68.0465 261.696 63.4344 265.023 63.4344C266.199 63.4344 267.299 62.6293 267.577 61.5643C268 59.9483 269.383 59.6223 277.734 59.1673C285.028 58.7703 288.874 58.0124 293.401 56.0804C300.62 52.9984 302.455 52.7524 298.429 55.4064ZM247.901 63.7713C247.901 63.9563 244.263 66.5023 239.818 69.4283C235.372 72.3533 228.222 78.0515 223.93 82.0885C216.776 88.8195 215.862 89.3763 212.946 88.7933L209.766 88.1573L213.583 84.2015C215.683 82.0265 220.233 78.2105 223.694 75.7225C232.328 69.5145 247.901 61.8263 247.901 63.7713ZM383.875 78.1153C383.911 79.7613 380.729 84.6465 371.124 97.6925C366.571 103.875 361.547 111.635 359.959 114.935C356.779 121.543 354.429 131.763 355.076 136.171L355.491 139.004L348.946 138.654C339.466 138.147 339.532 138.194 340.214 132.439C341.651 120.302 350.523 104.955 364.527 90.3834C370.507 84.1604 375.806 77.5964 377.444 74.3834L380.223 68.9344L382.036 72.9344C383.033 75.1344 383.86 77.4653 383.875 78.1153ZM382.75 107.222C376.778 114.102 370.901 128.692 370.901 136.636V141.526L367.151 140.902C360.4 139.78 360.597 140.068 361.108 132.109C361.688 123.078 366.196 113.194 374.363 103.048C377.413 99.2596 380.919 94.5345 382.154 92.5475L384.401 88.9344L385.002 96.4344C385.58 103.644 385.493 104.062 382.75 107.222ZM199.684 97.5895C196.418 99.3615 190.431 104.279 185.716 109.062C181.178 113.667 177 117.421 176.433 117.404C175.865 117.386 174.576 116.239 173.568 114.855C171.309 111.752 171.818 111.022 180.617 104.743C187.626 99.7417 199.041 94.4884 202.901 94.4884C204.876 94.4874 204.201 95.1395 199.684 97.5895ZM216.002 95.6014C217.871 96.2434 221.15 97.8637 223.288 99.2007L227.175 101.633L223.008 103.498C217.818 105.822 209.845 111.94 199.176 121.786C190.49 129.801 181.149 135.516 180.498 133.212C180.3 132.51 179.747 130.147 179.269 127.963L178.401 123.989L186.401 116.052C195.511 107.014 203.737 100.85 207.908 99.9326C211.157 99.2196 213.384 97.0244 212.428 95.4784C211.617 94.1664 211.845 94.1744 216.002 95.6014ZM235.374 110.404C240.196 116.314 240.637 117.435 238.139 117.435C234.816 117.435 224.69 124.806 217.401 132.53C212.868 137.333 208.712 143.118 205.61 148.942C202.975 153.888 199.695 159.218 198.322 160.786L195.824 163.635L190.612 158.8C182.757 151.509 181.901 150.157 181.901 145.041V140.464L187.748 137.511C190.964 135.888 197.313 131.148 201.856 126.977C213.392 116.385 217.539 113.099 224.416 109.097C227.708 107.181 230.626 105.595 230.901 105.573C231.176 105.551 233.189 107.726 235.374 110.404ZM391.523 115.901C394.623 121.254 394.635 121.33 393.219 126.614C392.391 129.705 391.93 135.002 392.12 139.254L392.447 146.572L389.252 145.973C387.496 145.644 383.867 144.722 381.189 143.927L376.319 142.482L376.946 135.708C377.291 131.983 378.57 126.685 379.79 123.935C382.662 117.458 386.791 110.425 387.693 110.472C388.082 110.493 389.806 112.936 391.523 115.901ZM166.759 115.819C171.812 120.353 175.037 131.025 176.465 147.935C177.115 155.623 178.258 158.95 179.902 157.935C180.327 157.671 183.942 160.385 187.933 163.964C206.033 180.194 223.523 189.664 246.901 195.896C258.924 199.102 269.631 199.2 294.882 196.332C316.883 193.833 324.004 194.17 336.909 198.318C347.939 201.863 354.465 205.566 365.477 214.529C378.77 225.348 385.944 230.048 399.688 236.941C414.26 244.249 422.449 250.772 425.773 257.719C427.635 261.611 427.722 262.894 426.894 274.435C426.401 281.31 425.722 291.435 425.386 296.935C424.513 311.186 424.553 311.071 420.165 311.749C418.095 312.069 415.389 312.632 414.151 313C412.45 313.505 411.901 313.26 411.901 312.001C411.901 311.085 411.187 308.955 410.315 307.269C408.737 304.218 408.749 304.185 412.444 301.139C421.975 293.283 422.433 278.306 413.467 267.685C411.958 265.898 409.751 264.418 408.562 264.396C407.236 264.373 405.628 263.117 404.401 261.146C403.301 259.38 400.376 256.891 397.901 255.616C393.621 253.411 392.717 253.328 379.401 253.916C363.652 254.61 359.654 253.568 357.052 248.091C354.127 241.932 360.524 234.435 368.705 234.435C371.592 234.435 371.997 234.132 371.721 232.185C371.249 228.865 363.845 228.58 358.505 231.676C346.832 238.444 349.176 255.705 362.212 258.977C364.554 259.565 364.901 260.152 364.901 263.542C364.901 265.683 364.658 267.435 364.361 267.435C364.063 267.435 362.539 266.488 360.974 265.331C359.049 263.907 355.314 262.852 349.437 262.074C344.657 261.44 341.021 260.648 341.357 260.312C342.633 259.036 340.511 251.125 338.135 248.301C334.805 244.344 335.372 238.817 340.327 226.935C345.207 215.235 345.432 214.381 343.885 213.425C341.587 212.005 339.817 213.571 337.225 219.32C329.116 237.31 328.094 244.886 332.95 250.996C335.293 253.945 335.929 255.653 335.7 258.384C335.413 261.791 335.218 261.955 330.901 262.46C325.448 263.097 323.687 264.088 324.11 266.278C324.39 267.734 326.271 267.935 339.586 267.935C353.392 267.935 354.996 268.121 357.572 270.025C359.128 271.174 361.011 273.359 361.755 274.879C362.863 277.14 363.595 277.546 365.773 277.111C367.768 276.712 369.059 277.227 370.919 279.168C377.134 285.656 390.665 288.677 397.555 285.114C402.057 282.786 405.808 277.867 406.532 273.343C407.057 270.056 407.4 269.604 408.604 270.604C411.399 272.923 414.246 279.916 414.266 284.512C414.29 290.121 411.549 295.152 407.033 297.79C404.08 299.515 403.174 299.591 398.369 298.515C392.591 297.222 382.148 298.418 380.848 300.521C379.935 301.998 370.183 292.901 367.893 288.438C363.4 279.679 355.736 277.345 349.884 282.951L346.993 285.72L341.773 283.475C332.786 279.609 326.972 282.022 319.789 292.6C316.318 297.711 314.757 299.032 309.288 301.486C305.755 303.071 302.639 304.952 302.365 305.668C302.09 306.383 300.186 307.021 298.133 307.085C296.081 307.148 291.789 308.127 288.597 309.26L282.794 311.321L285.849 307.841C292.67 300.073 296.901 287.804 296.901 275.796C296.901 270.567 296.468 268.145 295.33 267.006C292.031 263.708 289.772 266.09 291.129 271.436C293.556 280.996 286.739 300.155 278.512 306.896C273.197 311.252 258.192 318.989 250.98 321.094C243.698 323.218 234.021 322.248 227.901 318.779C225.426 317.376 221.251 313.963 218.622 311.194L213.843 306.161L208.122 306.985C197.066 308.577 189.856 308.066 183.901 305.268C172.111 299.729 165.901 291.438 165.901 281.235C165.901 276.72 166.672 274.125 169.978 267.521C175.998 255.492 181.158 250.84 193.742 246.095C207.119 241.05 214.76 235.467 218.364 228.1C221.295 222.11 221.404 218.147 218.654 217.622C217.353 217.375 216.245 218.816 214.315 223.267C210.679 231.651 205.585 235.56 191.283 240.943C180.911 244.847 176.449 247.874 171.405 254.43C159.394 270.039 156.907 285.13 164.448 296.646L166.879 300.358L164.64 304.146C162.764 307.32 162.401 309.406 162.401 317.012C162.401 326.96 161.988 325.969 172.401 341C176.307 346.638 176.401 346.977 176.401 355.341C176.401 362.929 176.616 363.947 178.281 364.269C180.795 364.754 181.62 363.162 182.418 356.29C183.293 348.753 181.307 342.8 175.296 334.935C172.774 331.635 170.079 327.487 169.306 325.717C167.465 321.501 167.513 312.3 169.399 307.786C170.883 304.233 170.919 304.217 173.44 305.868C178.963 309.487 185.037 312.281 188.738 312.906C192.197 313.491 192.753 313.996 193.805 317.509C195.535 323.282 205.953 334.086 211.258 335.607C213.537 336.261 215.525 336.876 215.676 336.974C215.828 337.072 214.815 339.353 213.425 342.043C211.895 345.005 210.516 349.976 209.929 354.646C208.727 364.21 206.827 368.884 202.218 373.614C199.945 375.947 198.853 377.869 199.236 378.864C200.189 381.349 202.581 380.719 206.855 376.857C211.487 372.673 214.309 365.895 215.34 356.478C216.982 341.48 224.055 334.324 239.609 331.923C242.522 331.473 244.005 330.683 244.427 329.354C244.837 328.062 245.953 327.435 247.843 327.435C251.395 327.435 256.967 325.472 265.885 321.079C272.989 317.579 274.628 317.562 270.797 321.029C267.51 324.004 263.904 330.805 263.092 335.563C262.392 339.661 261.998 340.082 255.876 343.246C242.817 349.995 233.728 359.122 229.816 369.416C227.715 374.946 227.246 385.581 228.91 389.959C229.787 392.264 229.543 392.967 227.059 395.287C222.345 399.691 220.537 404.191 220.512 411.583C220.492 417.336 220.988 419.184 224.195 425.306C229.098 434.666 228.994 438.262 223.65 444.134C221.181 446.847 221.993 449.705 225.105 449.255C228.28 448.796 233.028 441.538 233.582 436.298C233.969 432.641 233.385 430.651 229.972 424C223.804 411.978 224.602 405.186 233.121 397.229C235.424 395.077 235.97 393.893 235.448 392.177C233.392 385.425 232.891 381.67 233.492 377.535C235.236 365.535 244.739 355.048 261.507 346.621C267.394 343.662 267.636 343.388 268.238 338.99C268.582 336.481 269.734 332.721 270.798 330.636C274.92 322.557 288.557 313.269 296.644 313.034C299.727 312.944 300.174 313.299 301.395 316.798C304.246 324.969 313.676 331.096 321.9 330.122L326.675 329.556L328.379 334.017C329.485 336.913 331.085 338.996 332.942 339.956C338.458 342.809 345.93 341.375 350.212 336.643C351.867 334.815 352.263 334.769 354.915 336.092C358.816 338.038 364.526 336.48 368.431 332.403C370.813 329.917 371.398 328.385 371.535 324.271C371.697 319.409 371.861 319.131 375.573 317.47C379.721 315.612 381.901 312.167 381.901 307.468C381.901 304.67 382.072 304.576 388.378 303.901C396.365 303.045 399.015 303.669 403.159 307.382C406.316 310.211 406.396 310.487 406.223 317.883L406.045 325.479L411.401 329.522C417.919 334.443 419.901 337.304 419.901 341.787C419.901 345.067 419.495 345.441 410.151 350.803L400.401 356.4L399.762 349.167C399.094 341.595 396.158 332.589 393.047 328.568C390.095 324.752 387.281 326.405 385.964 332.729C384.378 340.349 379.654 353.599 378.842 352.705C378.457 352.281 377.615 350.283 376.971 348.265C376.326 346.246 375.168 344.072 374.398 343.432C372.378 341.756 369.397 343.043 367.98 346.204C367.306 347.706 365.618 350.892 364.228 353.284L361.7 357.634L359.873 354.63C356.342 348.822 349.066 349.658 347.46 356.056C346.843 358.513 346.808 358.499 342.421 354.113C339.991 351.683 337.047 349.445 335.878 349.139C333.113 348.416 329.901 351.593 329.901 355.052C329.901 357.324 329.605 357.567 327.651 356.907C326.413 356.489 323.746 356.05 321.722 355.932C319.33 355.792 316.643 354.606 314.037 352.542C308.898 348.471 291.969 340.435 288.535 340.435C284.936 340.435 285.117 342.524 289.418 350.623C292.787 356.969 296.936 370.453 296.869 374.844C296.849 376.225 295.346 377.84 292.438 379.604C286.647 383.117 281.947 389.768 278.567 399.235C261.724 446.408 256.913 454.503 243.636 458.005C238.995 459.229 237.688 459.168 230.769 457.401C226.533 456.32 221.51 455.435 219.607 455.435C214.556 455.435 208.901 458.052 208.901 460.389C208.901 463.325 210.536 463.739 215.175 461.977C219.147 460.469 219.877 460.495 227.311 462.404C241.692 466.097 249.748 464.462 258.162 456.147C265.712 448.685 270.89 437.944 281.459 407.816C286.164 394.403 289.309 388.705 293.75 385.542C295.378 384.383 296.927 383.435 297.192 383.435C297.457 383.435 297.904 384.898 298.186 386.685C298.629 389.498 298.105 390.546 294.288 394.48C285.64 403.395 286.856 409.435 297.299 409.435C301.395 409.435 304.11 408.691 308.549 406.355C313.127 403.946 315.163 403.408 317.901 403.88C326.606 405.381 333.897 405.592 337.382 404.441C339.405 403.774 344.512 400.115 348.731 396.311C356.649 389.172 362.856 385.435 366.799 385.435C368.046 385.435 372.291 386.861 376.233 388.604C385.135 392.54 392.937 393.408 397.464 390.97L400.695 389.23L407.865 396.583C412.441 401.274 416.188 406.287 418.218 410.435C421.159 416.442 421.399 417.694 421.372 426.935C421.331 440.755 419.219 447.534 413.847 451.089C411.351 452.741 407.944 453.917 404.768 454.222C399.829 454.696 399.716 454.649 400.825 452.576C403.488 447.601 404.047 439.746 402.419 430.189C399.435 412.67 396.047 404.889 392.813 408.123C391.956 408.98 392.323 411.741 394.282 419.167C397.318 430.677 398.445 439.722 397.483 444.85C396.646 449.31 392.297 454.401 385.428 458.96C382.567 460.859 377.341 465.377 373.814 468.999C364.922 478.13 361.367 479.834 351.572 479.659C341.177 479.474 339.56 478.94 341.033 476.188C341.654 475.026 344.993 471.064 348.452 467.381C359.313 455.817 362.911 445.994 362.886 427.975C362.869 416.227 362.276 414.025 359.281 414.598C357.572 414.924 357.355 416.277 356.901 429.446C356.427 443.187 356.234 444.287 353.174 450.747C351.251 454.808 347.58 460.058 344.084 463.747C340.859 467.15 336.754 472.105 334.961 474.76C330.304 481.652 326.913 483.428 318.401 483.426C310.49 483.424 304.708 482.112 302.877 479.905C301.863 478.684 302.189 477.36 304.659 472.673C306.321 469.517 309.597 461.535 311.937 454.935C317.076 440.443 317.807 438.932 322.294 433.563C325.904 429.241 326.132 426.435 322.872 426.435C320.624 426.435 314.67 433.259 312.083 438.799C311.021 441.074 308.464 447.66 306.401 453.435C301.166 468.087 297.803 474.349 292.584 479.159C287.147 484.171 283.18 485.104 273.858 483.564C264.068 481.947 261.282 482.126 251.827 484.969C243.587 487.446 243.247 487.468 236.391 485.954C228.955 484.311 223.224 481.44 222.235 478.862C221.905 478.003 222.205 476.236 222.901 474.935C224.321 472.282 223.658 469.435 221.621 469.435C219.904 469.435 215.901 473.135 215.9 474.724C215.899 476.125 203.091 479.477 197.901 479.434C195.976 479.419 193.29 478.843 191.931 478.156C185.028 474.663 182.542 463.391 187.401 457.616C190.197 454.294 190.617 451.647 188.479 450.827C186.074 449.903 183.196 452.194 180.961 456.811C179.682 459.454 177.939 461.458 176.614 461.814C162.831 465.509 144.939 452.285 144.91 438.381C144.895 430.846 148.567 425.139 161.629 412.405C173.759 400.578 179.965 391.65 178.574 388.026C177.4 384.965 174.627 386.772 171.04 392.936C168.876 396.655 163.341 402.989 156.475 409.604C146 419.697 142.412 424.624 139.121 433.435L138.188 435.935L135.099 432.636C133.399 430.823 130.635 426.589 128.955 423.228C126.249 417.812 125.901 416.12 125.901 408.378C125.901 400.277 126.172 399.105 129.623 392.288C132.48 386.644 135.733 382.544 143.623 374.647C149.276 368.99 153.901 363.976 153.901 363.505C153.901 363.034 153.175 362.37 152.288 362.03C146.644 359.864 123.514 386.118 121.296 397.208C120.547 400.956 119.187 401.234 115.558 398.38C110.19 394.157 106.103 379.348 107.257 368.302C108.08 360.432 112.973 348.105 118.799 339.226C123.335 332.314 138.726 316.435 140.89 316.435C142.546 316.435 142.036 312.701 140.288 312.03C137.936 311.128 133.345 314.364 125.249 322.631C117.595 330.447 109.665 341.59 107.855 347.073C107.245 348.921 106.167 350.435 105.458 350.435C103.657 350.435 93.5041 343.409 86.8851 337.583C79.6091 331.179 74.4012 321.285 74.4012 313.866C74.4012 309.752 75.2102 307.185 78.3582 301.314C91.6092 276.6 92.4023 273.681 91.5553 252.754C91.0613 240.542 91.2383 236.732 92.4603 233.269C94.1393 228.509 97.9392 224.02 102.151 221.82C106.646 219.472 105.306 215.614 100.421 216.841C99.1202 217.167 96.7262 218.553 95.1002 219.921L92.1463 222.406L87.2733 219.83C80.4713 216.233 79.3251 215.012 75.7291 207.529C73.0641 201.984 72.4882 199.464 72.1112 191.688C71.7212 183.649 72.0192 181.302 74.3902 173.697C78.5812 160.255 81.8251 154.711 90.1021 146.849C99.4711 137.949 107.777 132.899 116.291 130.924C125.592 128.767 132.097 126.052 138.731 121.562C152.417 112.296 160.897 110.56 166.759 115.819ZM245.95 124.497C249.142 128.527 249.151 128.571 247.108 130.003C241.225 134.123 221.901 169.783 221.901 176.517C221.901 178.672 221.551 180.435 221.122 180.435C219.904 180.435 202.262 168.829 201.428 167.479C200.993 166.775 201.725 165.161 203.187 163.604C204.564 162.136 207.845 156.885 210.478 151.935C217.413 138.897 229.325 127.235 242.567 120.519C242.658 120.473 244.181 122.263 245.95 124.497ZM404.93 128.454C409.15 131.161 409.7 131.948 410.268 136.093C410.954 141.101 411.139 154.435 410.522 154.435C410.313 154.435 407.671 153.303 404.649 151.92C399.222 149.435 399.142 149.335 398.033 143.67C397.253 139.682 397.213 136.107 397.901 131.935C398.444 128.635 398.892 125.822 398.895 125.685C398.913 124.925 400.73 125.759 404.93 128.454ZM260.936 137.435C262.549 137.435 261.871 139.401 256.196 151.185C247.472 169.3 244.959 176.571 244.927 183.791C244.908 188.048 244.559 189.522 243.651 189.187C242.964 188.934 239.476 187.755 235.901 186.566C226.069 183.296 226.261 183.525 227.673 176.74C229.65 167.238 243.171 142.3 249.911 135.723L253.203 132.51L256.129 134.973C257.738 136.327 259.901 137.435 260.936 137.435ZM275.606 140.118C277.968 140.442 279.901 140.998 279.901 141.355C279.901 141.712 278.303 145.925 276.35 150.716C272.484 160.199 269.946 170.586 269.918 177.038C269.909 179.295 269.612 183.908 269.259 187.288C268.522 194.334 268.582 194.309 257.354 192.353L251.143 191.271L250.636 186.779C249.892 180.174 252.138 173.071 260.457 155.719C264.551 147.18 267.901 139.75 267.901 139.207C267.901 138.665 268.668 138.514 269.606 138.874C270.543 139.234 273.243 139.794 275.606 140.118ZM422.377 149.145C424.61 153.302 425.063 155.188 424.622 158.477C424.318 160.745 423.836 162.833 423.551 163.119C423.266 163.404 421.396 162.389 419.395 160.863C416.659 158.776 415.896 157.574 416.316 156.011C416.623 154.869 416.88 150.797 416.887 146.962C416.903 139.15 417.037 139.203 422.377 149.145ZM300.368 144.27C298.049 149.939 294.605 171.019 294.508 180.135C294.385 191.867 295.381 190.88 282.493 192.032L274.585 192.739L275.203 181.837C275.887 169.774 278.354 159.783 283.326 148.935L286.535 141.935L293.792 142.27C300.099 142.561 300.96 142.823 300.368 144.27ZM317.428 145.185C316.204 148.302 315.577 180.706 316.666 184.594L317.69 188.256L309.546 189.143C305.066 189.631 301.063 189.87 300.651 189.674C298.161 188.489 302.05 155.72 305.674 147.355C307.348 143.491 307.451 143.435 312.744 143.435C317.454 143.435 318.03 143.65 317.428 145.185ZM338.649 157.685C338.287 167.131 337.367 175.053 335.919 181.185C333.837 190.001 333.609 190.434 331.068 190.421C322.396 190.377 321.257 187.479 321.843 166.935C322.078 158.685 322.299 150.023 322.335 147.685L322.401 143.435H330.798H339.195L338.649 157.685ZM357.177 152.435C358.124 161.588 357.232 183.756 355.587 191.935C354.726 196.215 353.953 197.883 352.891 197.754C351.585 197.596 339.941 193.458 339.074 192.844C338.894 192.717 339.686 189.266 340.834 185.174C342.936 177.683 345.46 152.697 344.663 147.269L344.235 144.348L350.318 144.642L356.401 144.935L357.177 152.435ZM156.735 148.185C155.337 149.697 153.809 151.835 153.338 152.935C152.868 154.035 152.464 163.935 152.442 174.935L152.401 194.935L149.312 201.435C146.001 208.402 138.846 215.909 134.47 217.007C130.138 218.094 124.775 216.864 115.169 212.581C110.091 210.317 104.241 208.218 102.169 207.916C97.5603 207.246 93.5201 209.157 93.0811 212.215C92.7131 214.774 95.4103 216.326 97.1683 214.568C99.1333 212.603 102.508 213.306 113.347 217.935C119.142 220.41 124.337 222.435 124.892 222.435C126.339 222.435 126.178 223.027 123.593 227.205C118.517 235.406 116.673 241.4 117.07 248.417C117.389 254.063 118.074 256.108 121.673 262.167C127.457 271.902 128.577 277.185 126.651 285.63C125.045 292.672 125.515 294.844 128.521 294.277C129.929 294.011 130.84 292.166 132.152 286.928C134.471 277.664 133.38 271.842 127.208 260.553C120.812 248.857 120.783 245.081 126.99 232.917C131.153 224.76 131.835 223.957 135.68 222.675C140.835 220.957 149.092 213.671 152.528 207.809C157.572 199.201 158.227 195.414 158.317 174.295C158.391 157.076 158.617 154.415 160.149 152.718C161.375 151.36 162.796 150.912 164.899 151.22C167.343 151.579 167.901 151.306 167.901 149.748C167.901 144.758 160.817 143.766 156.735 148.185ZM374.315 148.04C375.953 148.669 376.47 151.226 377.934 165.935C379.524 181.896 378.046 192.266 372.345 205.157L369.904 210.677L365.152 206.885C362.539 204.799 360.095 202.833 359.722 202.514C359.348 202.196 359.739 199.46 360.59 196.435C361.683 192.547 362.285 184.381 362.64 168.572L363.144 146.209L368.035 146.858C370.724 147.215 373.551 147.747 374.315 148.04ZM391.724 152.874C400.813 155.965 401.394 156.33 399.57 157.781C398.486 158.643 397.944 162.582 397.432 173.328C397.018 182.018 395.983 190.736 394.821 195.328C392.594 204.128 385.795 221.434 384.564 221.434C384.104 221.435 381.714 219.989 379.254 218.222C376.355 216.14 374.956 214.467 375.28 213.472C375.555 212.627 377.48 207.66 379.558 202.435L383.335 192.935L383.368 177.435C383.386 168.91 383.06 159.347 382.642 156.185C381.745 149.384 381.608 149.433 391.724 152.874ZM410.664 161.962C416.596 165.956 416.449 165.313 414.882 180.435C413.552 193.268 411.26 204.299 407.893 214.072C404.986 222.51 400.984 230.413 399.611 230.426C398.404 230.438 391.107 226.577 390.509 225.61C390.219 225.141 391.546 221.139 393.458 216.717C399.803 202.041 401.819 193.454 402.901 176.496C403.447 167.938 403.896 160.373 403.897 159.685C403.903 157.772 404.984 158.136 410.664 161.962ZM427.536 174.914C429.897 177.378 432.582 180.545 433.504 181.952C435.031 184.282 435.039 184.618 433.593 185.723C432.472 186.58 431.683 190.013 430.903 197.435C430.297 203.21 428.925 211.672 427.856 216.241C425.915 224.532 420.452 238.975 418.892 239.939C418.213 240.359 405.901 233.742 405.901 232.957C405.901 232.822 407.682 228.911 409.86 224.265C415.047 213.195 418.59 198.942 420.071 183.185C420.73 176.173 421.714 170.435 422.257 170.435C422.8 170.435 425.175 172.451 427.536 174.914ZM208.52 191.986C204.571 196.71 200.604 199.532 185.401 208.439C173.367 215.489 163.501 223.533 160.545 228.702C157.303 234.372 156.386 239.761 158.382 241.418C160.321 243.028 162.901 241.163 162.901 238.15C162.901 231.329 173.849 221.337 193.543 210.187C204.381 204.05 213.057 196.967 215.483 192.276C218.77 185.92 213.765 185.712 208.52 191.986ZM441.805 196.906C442.891 199.808 444.011 206.286 444.41 211.967C444.993 220.283 444.765 223.379 443.034 230.644C440.933 239.459 436.502 250.274 433.492 253.935C431.859 255.92 431.834 255.915 430.124 253.458C429.176 252.096 427.133 249.527 425.584 247.75L422.768 244.519L425.276 240.227C430.88 230.635 436.832 206.17 436.933 192.307C436.962 188.246 437.069 188.072 438.432 189.874C439.239 190.941 440.757 194.106 441.805 196.906ZM295.568 206.102C293.878 207.791 295.323 209.576 300.277 211.92C306.638 214.929 313.631 222.065 317.553 229.551C320.002 234.226 320.373 236.052 320.375 243.435C320.377 253.938 318.481 258.077 309.378 267.435C304.927 272.012 302.734 275.161 301.969 278.078C300.634 283.163 301.43 285.645 304.265 285.238C305.846 285.011 306.526 283.995 306.981 281.177C307.443 278.319 309.189 275.761 314.265 270.503C318.135 266.495 321.984 261.311 323.42 258.175C329.866 244.094 326.476 228.448 314.115 215.232C307.255 207.899 298.219 203.45 295.568 206.102ZM290.48 225.09C290.101 226.077 290.645 227.598 291.825 228.854C294.628 231.838 296.901 237.74 296.901 242.035C296.901 248.67 290.994 255.094 281.901 258.347C279.976 259.035 272.865 259.947 266.1 260.373C254.637 261.095 253.3 261.401 246.48 264.862C242.182 267.044 235.338 271.953 229.897 276.756C212.234 292.35 209.373 293.749 200.894 290.933C195.888 289.27 188.901 282.861 188.901 279.932C188.901 278.249 185.363 277.877 184.386 279.458C183.191 281.392 185.064 286.444 188.103 289.483C194.751 296.131 207.06 299.56 212.952 296.407C214.494 295.582 215.859 296.061 219.903 298.842C228.953 305.068 234.987 306.832 247.401 306.88C257.458 306.92 258.937 306.676 264.648 304.043C276.741 298.469 282.92 288.163 283.679 272.302C284.071 264.098 284.223 263.611 286.746 262.485C299.426 256.825 305.408 245.451 301.46 234.504C298.329 225.823 292.211 220.578 290.48 225.09ZM389.331 259.322C390.084 260.54 387.236 262.76 385.945 261.962C384.174 260.867 384.792 258.435 386.842 258.435C387.91 258.435 389.03 258.834 389.331 259.322ZM378.901 260.979C378.901 263.861 383.565 267.435 387.326 267.435C390.072 267.435 391.326 266.779 393.059 264.435C394.279 262.785 395.62 261.435 396.038 261.435C397.337 261.435 393.885 268.838 391.726 270.685C389.478 272.607 384.79 272.981 381.956 271.464C378.949 269.855 375.437 259.435 377.901 259.435C378.451 259.435 378.901 260.129 378.901 260.979ZM375.88 273.406C379.561 278.574 388.642 279.8 394.555 275.926C395.898 275.046 397.873 272.888 398.945 271.131L400.894 267.935L400.897 271.168C400.903 275.857 396.524 280.408 391.335 281.104C383.337 282.176 371.886 274.837 370.58 267.802C369.743 263.293 371.116 262.693 372.582 266.927C373.266 268.904 374.751 271.819 375.88 273.406ZM263.458 277.063C263.095 278.508 261.506 280.984 259.927 282.562C257.504 284.986 256.245 285.435 251.879 285.435C245.699 285.435 240.129 283.029 238.614 279.705C236.97 276.097 239.425 275.05 242.445 278.07C248.186 283.811 258.683 279.034 261.127 269.568L262.324 264.935L263.221 269.686C263.714 272.298 263.821 275.617 263.458 277.063ZM278.398 269.42C278.879 272.263 278.413 275.628 276.773 281.17C273.808 291.183 268.374 297.081 259.566 299.844C248.472 303.325 232.401 301.105 224.375 294.983L220.91 292.34L226.655 286.944L232.401 281.549L234.26 284.027C236.8 287.413 243.04 290.427 248.963 291.129C261.637 292.63 271.105 282.81 269.627 269.695L269.147 265.435H273.436C277.658 265.435 277.736 265.497 278.398 269.42ZM255.901 268.3C255.901 270.558 251.579 274.434 249.078 274.42C243.535 274.388 243.319 272.773 248.498 270.078C253.65 267.399 255.901 266.858 255.901 268.3ZM66.4632 275.534C73.2432 277.789 79.5432 280.184 80.4632 280.857C82.3742 282.254 82.0882 282.994 74.7232 295.694C71.3582 301.494 70.5442 302.314 68.9762 301.475C66.8032 300.312 63.0322 294.431 55.9662 281.185C51.8292 273.43 51.1093 271.435 52.4513 271.435C53.3783 271.435 59.6842 273.28 66.4632 275.534ZM363.025 291.435C365.043 294.46 368.765 298.888 371.297 301.275C376.351 306.039 377.098 309.042 373.94 311.899C372.382 313.309 371.046 313.533 367.433 312.991C361.899 312.161 360.601 313.967 363.805 318.04C366.823 321.877 366.565 326.767 363.206 329.41C361.656 330.629 359.425 331.404 357.956 331.233C355.891 330.992 355.451 330.456 355.663 328.435C357.417 311.683 356.858 305.611 352.77 296.997C350.41 292.026 350.43 291.303 353.016 288.015C356.106 284.088 358.72 284.981 363.025 291.435ZM340.888 289.167C343.734 290.4 344.74 291.364 344.377 292.51C344.096 293.395 344.788 295.294 345.916 296.727C350.974 303.158 352.602 320.091 348.937 328.164C347.119 332.17 342.061 336.423 339.106 336.431C336.64 336.438 332.901 331.632 332.901 328.456C332.901 324.49 329.901 323.263 322.132 324.051C316.84 324.588 316.073 324.393 312.114 321.5C303.841 315.457 304.075 309.432 312.707 306.225C316.858 304.683 318.817 303.161 321.707 299.235C330.706 287.009 333.056 285.774 340.888 289.167ZM444.744 299.261C452.524 305.794 452.733 306.657 449.025 316.906C447.307 321.654 445.901 327.001 445.901 328.788C445.901 331.65 445.363 332.298 441.374 334.236C438.885 335.445 436.635 336.435 436.374 336.435C436.114 336.435 435.901 334.041 435.901 331.116C435.901 324.839 433.543 316.213 431.325 314.372C429.991 313.265 429.86 311.412 430.453 302.001C430.836 295.914 431.359 290.575 431.615 290.135C432.119 289.269 436.327 292.193 444.744 299.261ZM325.23 308.893C321.091 310.693 319.364 313.745 321.488 315.507C322.757 316.56 323.538 316.49 325.871 315.112C329.903 312.73 337.109 312.902 339.401 315.435C341.552 317.812 344.727 318.05 345.554 315.897C346.246 314.092 343.528 310.81 339.703 308.833C336.291 307.068 329.358 307.097 325.23 308.893ZM72.3172 327.854C73.8452 330.976 77.5071 336.136 80.4561 339.321L85.8172 345.111L87.4173 356.022C89.8613 372.684 93.6573 385.126 100.294 398.223C104.809 407.134 115.734 422.151 124.819 431.935C126.862 434.135 129.351 437.185 130.35 438.712C131.853 441.01 132.779 441.441 135.721 441.212C138.949 440.96 139.335 441.211 139.915 443.935C142.8 457.487 160.86 470.018 174.548 467.965L178.795 467.328L179.944 471.594C182.224 480.062 192.127 486.471 200.765 485.07C203.185 484.677 204.969 485.054 206.801 486.347C211.379 489.578 221.193 494.141 228.401 496.39C238.318 499.484 271.314 501.255 288.901 499.637C302.768 498.361 340.64 489.465 342.417 487.066C343.107 486.134 346.472 485.552 352.917 485.25C364.613 484.702 367.957 483.118 376.901 473.895C383.783 466.798 391.621 460.821 392.67 461.871C393.669 462.87 391.124 471.364 387.733 478.343C380.601 493.024 353.192 516.225 331.965 525.55C322.363 529.768 300.584 535.762 300.062 534.33C299.875 533.818 300.717 532.595 301.931 531.612L304.14 529.823L302.108 525.879C297.194 516.34 287.857 511.098 275.746 511.079C266.191 511.064 259.914 513.917 255.41 520.324C252.712 524.163 252.401 525.383 252.401 532.109V539.612L245.901 538.945C237.43 538.075 218.885 534.065 211.901 531.593C206.045 529.52 190.925 523.513 189.62 522.74C189.19 522.486 190.315 521.285 192.12 520.071C195.257 517.961 195.414 517.55 195.694 510.683C196.029 502.472 195.188 500.302 188.903 493.168C180.647 483.799 169.696 479.899 159.76 482.788C152.97 484.762 149.122 488.617 148.056 494.514C147.503 497.577 146.819 498.833 145.829 498.605C142.116 497.749 128.847 489.269 122.017 483.387C114.907 477.264 98.9461 459.852 98.9151 458.185C98.9071 457.773 101.038 457.428 103.651 457.42C110.703 457.397 111.263 456.723 111.616 447.822C111.885 441.025 111.574 439.336 109.071 434.007C102.983 421.04 97.1302 417.113 83.7332 417.005L75.0663 416.935L71.3463 409.935C66.7933 401.364 63.0893 391.7 61.8453 385.141C60.9133 380.227 60.9202 380.207 65.4112 375.212C75.7162 363.751 74.9133 345.372 63.7503 337.183C60.7753 335.001 60.7032 334.761 61.2962 329.008C61.6512 325.563 63.2671 320.124 65.1541 316.02L68.4012 308.959L68.9713 315.569C69.3383 319.825 70.5292 324.197 72.3172 327.854ZM213.97 314.83C216.468 318.476 224.031 323.887 229.096 325.653L232.208 326.738L227.805 329.041C223.014 331.547 217.636 332.039 213.216 330.375C208.081 328.443 197.548 316.478 199.356 314.632C199.89 314.088 206.203 312.418 211.022 311.547C211.364 311.485 212.69 312.963 213.97 314.83ZM425.282 317.39C428.651 318.671 430.115 323.964 429.716 333.424C429.465 339.391 429.07 340.977 427.772 341.224C426.592 341.449 425.95 340.509 425.446 337.824C424.944 335.147 423.226 332.627 419.281 328.775C416.273 325.838 413.382 323.435 412.856 323.435C412.331 323.435 411.901 322.324 411.901 320.966C411.901 319.174 412.315 318.657 413.414 319.078C414.246 319.398 415.483 319.202 416.164 318.643C416.844 318.084 418.526 317.42 419.901 317.167C421.276 316.914 422.484 316.646 422.586 316.571C422.688 316.496 423.901 316.865 425.282 317.39ZM468.351 331.354C468.859 332.176 462.264 338.435 460.889 338.435C460.583 338.435 459.557 337.123 458.611 335.52C456.897 332.62 456.902 332.601 459.645 331.599C463.196 330.303 467.624 330.177 468.351 331.354ZM454.879 340.952C454.891 341.512 448.714 345.034 441.151 348.781C424.653 356.955 402.097 369.181 399.608 371.298C397.914 372.738 397.85 372.578 398.442 368.379C399.321 362.141 399.626 361.435 401.451 361.435C402.339 361.435 405.84 359.781 409.233 357.759C412.625 355.737 423.501 349.906 433.401 344.801L451.401 335.52L453.129 337.727C454.079 338.942 454.867 340.393 454.879 340.952ZM393.357 344.895C394.477 350.25 394.548 353.438 393.701 360.323L392.632 369.004L386.017 367.277C382.378 366.327 379.21 365.524 378.977 365.493C378.743 365.461 379.473 364.423 380.599 363.185C382.451 361.148 386.697 351.05 389.878 341.118C390.55 339.019 391.29 337.491 391.523 337.723C391.755 337.956 392.58 341.183 393.357 344.895ZM60.2943 341.53C63.9273 344.387 66.9012 350.553 66.9012 355.228V359.1L49.6513 356.818C40.1633 355.563 27.5633 353.974 21.6513 353.285C15.7393 352.597 10.9013 351.745 10.9013 351.391C10.9013 351.037 17.9893 348.878 26.6513 346.592C35.3133 344.306 44.4263 341.79 46.9013 341.001C53.3083 338.96 57.2253 339.115 60.2943 341.53ZM304.901 353.498C308.476 355.56 312.341 358.302 313.489 359.591C316.512 362.984 319.901 368.909 319.901 370.802C319.901 371.7 320.733 373.267 321.75 374.284C323.549 376.083 323.345 376.26 314.237 380.784C309.088 383.342 304.431 385.435 303.888 385.435C303.345 385.435 302.893 382.847 302.884 379.685C302.862 372.435 300.738 362.31 297.619 354.589C294.827 347.677 294.815 347.679 304.901 353.498ZM99.2081 353.435C103.177 355.461 103.901 356.242 103.361 357.912C101.986 362.164 101.686 378.665 102.874 384.705C104.995 395.483 110.168 403.377 116.473 405.458C119.491 406.454 119.742 406.888 120.118 411.732C120.341 414.594 120.413 417.092 120.279 417.284C120.146 417.476 117.734 414.551 114.92 410.784C108.87 402.684 99.9682 384.784 97.0912 374.935C93.6222 363.06 91.7342 349.714 93.6512 350.625C94.0632 350.821 96.5641 352.086 99.2081 353.435ZM373.424 357.185C373.779 359.798 374.287 362.722 374.552 363.685C374.892 364.914 374.461 365.435 373.108 365.435C372.048 365.435 369.092 365.721 366.541 366.071C363.371 366.505 361.901 366.347 361.901 365.571C361.901 364.946 362.546 364.435 363.333 364.435C364.121 364.435 366.25 361.735 368.064 358.435C369.878 355.135 371.681 352.435 372.071 352.435C372.46 352.435 373.069 354.572 373.424 357.185ZM340.041 359.631C341.293 361.389 343.053 364.272 343.953 366.037C345.578 369.224 345.571 369.251 342.995 369.771C341.568 370.059 339.703 370.565 338.851 370.895C336.726 371.718 333.682 365.274 334.478 361.636C335.878 355.23 336.697 354.936 340.041 359.631ZM355.848 360.185C357.553 366.322 357.273 367.173 353.401 367.625C350.321 367.984 349.901 367.764 349.901 365.792C349.901 364.56 350.293 363.311 350.772 363.015C351.251 362.719 351.915 361.117 352.247 359.456C353.068 355.349 354.591 355.657 355.848 360.185ZM49.4013 362.475C57.6513 363.552 64.7501 364.433 65.1771 364.434C66.6311 364.436 62.9822 370.189 59.8602 372.816C58.1482 374.256 55.8593 375.435 54.7733 375.435C53.0963 375.435 26.4244 361.402 24.9174 359.727C24.6334 359.411 26.6513 359.459 29.4013 359.834C32.1513 360.209 41.1513 361.398 49.4013 362.475ZM437.282 369.307C444.495 383.783 444.61 393.014 437.696 402.56C432.678 409.486 424.183 411.049 422.383 405.378C422.004 404.183 417.69 398.91 412.797 393.66C405.535 385.868 403.873 383.501 403.751 380.775C403.668 378.938 403.556 376.908 403.501 376.264C403.423 375.35 429.793 359.857 431.901 359.579C432.176 359.543 434.597 363.92 437.282 369.307ZM326.61 363.685C328.691 365.961 332.321 372.448 331.725 372.824C331.222 373.142 325.832 375.435 325.604 375.428C325.492 375.425 325.346 373.409 325.278 370.947C325.21 368.485 324.412 365.338 323.505 363.953C321.338 360.646 323.649 360.447 326.61 363.685ZM391.151 375.164C396.727 377.779 397.901 378.747 397.901 380.727C397.901 383.215 395.75 385.649 392.544 386.792C390.215 387.622 384.041 386.004 376.901 382.691C366.178 377.716 358.205 380.004 345.165 391.802C335.969 400.122 332.393 401.261 322.819 398.915C315.477 397.116 312.158 397.61 305.482 401.495C303.788 402.481 300.714 403.596 298.651 403.973C293.24 404.961 293.742 402.822 300.396 396.528C304.414 392.728 309.456 389.604 319.146 384.912C338.859 375.365 355.828 371.372 374.901 371.79C383.233 371.972 385.231 372.387 391.151 375.164ZM93.7723 424.369C100.415 427.758 105.901 436.82 105.901 444.403C105.901 450.711 103.867 452.026 92.7911 452.875C87.6261 453.272 75.0762 454.419 64.9012 455.424C54.7262 456.43 46.2314 457.086 46.0234 456.883C45.4384 456.309 76.8391 424.023 78.7281 423.255C82.1491 421.865 90.0043 422.447 93.7723 424.369ZM220.901 485.587L225.401 489.657L218.625 486.319C213.411 483.75 212.258 482.818 213.625 482.278C216.209 481.256 216.015 481.168 220.901 485.587ZM308.491 488.435C313.628 488.435 311.365 490.251 304.119 491.943C295.082 494.053 255.092 495.203 245.901 493.618C241.348 492.832 241.01 492.649 243.936 492.552C245.88 492.488 250.031 491.535 253.161 490.435C259.398 488.243 266.23 487.927 275.297 489.412C282.381 490.572 288.559 489.419 293.596 485.996L297.115 483.604L301.657 486.02C304.155 487.348 307.23 488.435 308.491 488.435ZM173.285 488.646C178.545 490.194 188.108 499.501 189.845 504.765C190.535 506.855 190.83 509.999 190.502 511.75C189.959 514.64 187.857 516.214 167.801 528.75C155.644 536.348 145.481 542.348 145.216 542.083C144.952 541.819 145.426 538.077 146.27 533.769C147.114 529.46 149.222 518.51 150.954 509.435C152.686 500.36 154.62 492.303 155.252 491.531C158.346 487.751 166.053 486.518 173.285 488.646ZM392.446 508.659C396.546 517.032 399.901 524.204 399.901 524.597C399.901 524.991 391.799 522.556 381.897 519.187L363.893 513.062L374.147 503.299C379.787 497.928 384.534 493.512 384.696 493.485C384.858 493.457 388.345 500.286 392.446 508.659ZM284.11 517.615C286.278 518.264 289.922 520.457 292.209 522.486L296.366 526.175L289.101 547.537C285.106 559.287 281.478 569.258 281.041 569.695C280.603 570.133 274.968 562.176 268.518 552.014C257.828 535.17 256.848 533.233 257.435 530.104C259.482 519.192 271.146 513.731 284.11 517.615Z" fill="#FFC4C4"/>
</svg>
