<svg width="461" height="413" viewBox="0 0 461 413" fill="none" xmlns="http://www.w3.org/2000/svg">
<path fill-rule="evenodd" clip-rule="evenodd" d="M37.3527 0.863638C31.6737 1.98764 23.7508 6.15073 18.8048 10.6097C11.1098 17.5467 8.13175 28.5658 11.0818 39.1888C12.0598 42.7118 11.9328 43.2838 9.62979 45.6888C2.61979 53.0088 0.390783 66.4728 3.81478 80.8248C5.54778 88.0908 5.64079 89.5477 4.45779 90.8617C3.69679 91.7067 2.38179 94.0547 1.53579 96.0787C-1.72821 103.893 0.171775 111.365 7.60677 119.951C12.6098 125.729 12.8138 126.176 11.4138 128.314C9.01578 131.973 8.55776 139.801 10.3758 146.055C12.2488 152.495 17.9167 160.505 23.8057 165.031C27.7257 168.044 27.8838 168.376 27.3288 172.429C26.0158 182.005 29.9707 188.661 40.8607 195.205C46.2677 198.454 60.2468 203.825 63.2958 203.825C64.4518 203.825 64.8998 206.179 65.4338 215.075C66.0628 225.537 65.9308 226.832 63.5538 233.556C60.0128 243.574 60.1488 249.812 64.0588 256.63C66.1098 260.207 68.6308 262.876 71.7988 264.827C81.8348 271.005 81.2148 269.943 80.4698 279.672C79.4328 293.203 83.2558 301.527 92.2298 305.276C94.2668 306.128 97.4108 306.831 99.2158 306.839C104.672 306.863 107.152 308.8 108.739 314.273C111.84 324.967 119.295 332.434 137.345 342.926C146.54 348.272 147.406 350.05 146.589 361.914C145.781 373.646 147.014 381.715 150.921 390.273C157.76 405.252 169.962 414.002 181.579 412.26C189.854 411.019 195.358 405.657 196.911 397.324C198.192 390.445 196.845 384.281 191.564 372.872C185.78 360.375 183.998 353.954 183.998 345.61C183.998 337.459 185.173 334.377 192.448 323.443C195.479 318.888 199.529 311.716 201.448 307.504C209.857 289.052 210.066 278.333 202.447 256.325C198.087 243.732 197.584 241.371 197.441 232.825C197.298 224.359 197.555 222.835 199.802 218.825C204.789 209.923 213.148 199.789 217.214 197.715C219.402 196.599 221.341 195.835 221.524 196.018C221.707 196.201 220.202 199.72 218.179 203.838C214.65 211.02 214.5 211.753 214.499 221.825L214.498 232.325L220.789 244.39C226.422 255.194 227.112 257.159 227.386 263.187C227.734 270.847 228.988 273.005 231.724 270.653C232.7 269.815 234.286 268.85 235.248 268.508C236.21 268.167 236.998 266.978 236.998 265.866C236.998 264.754 239.878 258.102 243.398 251.085C250.681 236.564 253.477 226.739 253.459 215.736C253.448 209.242 252.99 207.226 250.281 201.761C248.54 198.248 247.226 195.264 247.361 195.129C247.496 194.994 250.546 196.855 254.139 199.266C270.938 210.535 273.09 219.868 264.563 244.472C257.228 265.639 255.581 273 255.537 284.825C255.482 299.651 257.655 305.066 268.232 316.454C277.547 326.484 280.154 331.658 280.764 341.325C281.309 349.958 279.443 357.596 273.388 371.515C265.602 389.413 265.318 398.361 272.305 405.659C276.929 410.489 280.121 411.824 287.047 411.824C294.699 411.824 298.591 410.035 304.359 403.869C313.615 393.974 317.392 382.372 317.234 364.325C317.176 357.725 317.586 350.858 318.145 349.064C319.366 345.144 323.502 341.925 331.258 338.86C344.089 333.79 349.851 327.814 352.316 317.018C354.172 308.89 356.699 306.277 365.198 303.696C374.319 300.925 378.032 298.261 380.932 292.411C382.959 288.322 383.338 286.177 383.198 279.583C382.989 269.758 384.09 267.457 391.955 261.278C402.632 252.89 404.524 245.271 400.053 228.677L397.723 220.03L399.623 212.33C401.418 205.054 401.714 204.564 405.01 203.418C410.883 201.376 421.701 193.949 426.378 188.747C431.136 183.455 433.998 176.714 433.998 170.799C433.998 167.448 434.367 166.963 438.239 165.227C452.245 158.946 457.708 144.463 451.051 131.263L448.103 125.42L452.61 120.601C455.089 117.951 457.825 114.105 458.689 112.054C461.687 104.941 460.254 95.3259 455.362 89.7289C454.152 88.3449 454.334 87.4809 456.732 83.2289C459.215 78.8269 459.498 77.3528 459.498 68.8248C459.498 60.3478 459.213 58.8398 456.849 54.8248C455.392 52.3498 452.974 49.0038 451.475 47.3898L448.75 44.4537L450.374 39.3019C454.845 25.1179 449.054 12.4967 435.065 5.93566C429.733 3.43466 428.781 3.32679 412.498 3.36779C397.756 3.40479 393.772 3.78166 382.498 6.20666C360.438 10.9497 347.134 16.6949 326.457 30.4059C310.832 40.7659 281.998 67.2127 281.998 71.1847C281.998 72.0137 279.548 75.9488 276.554 79.9288C270.742 87.6548 255.225 117.093 249.99 130.325C248.249 134.725 246.682 138.469 246.508 138.644C246.335 138.82 245.283 138.395 244.17 137.7C242.317 136.543 242.267 136.206 243.573 133.681C245.425 130.099 245.385 125.823 243.475 123.095C242.078 121.101 242.114 120.833 243.913 119.87C246.789 118.331 251.762 107.331 253.054 99.6488C254.223 92.7048 253.553 85.9347 250.647 75.3287C249.207 70.0727 249.874 65.1558 252.23 63.6608C252.927 63.2178 254.912 62.8487 256.641 62.8397C260.286 62.8227 261.639 60.6089 259.384 58.3539C257.017 55.9869 251.696 56.4477 248.634 59.2867C243.5 64.0447 242.952 68.4158 245.998 80.3248C247.098 84.6258 247.998 90.2278 247.998 92.7748C247.998 98.6868 245.703 107.515 242.957 112.171C241.081 115.35 240.562 115.662 238.761 114.698C237.631 114.093 234.527 113.808 231.864 114.064C222.168 114.996 220.245 110.418 222.443 91.6317C224.592 73.2557 223.035 64.9927 216.199 58.4947C211.851 54.3627 206.315 53.8458 202.329 57.1998C198.888 60.0948 196.47 65.0068 197.353 67.3068C198.354 69.9168 200.63 68.9798 203.379 64.8248C206.68 59.8378 209.744 59.5457 213.383 63.8697C217.118 68.3087 218.34 73.9908 217.57 83.3248C217.206 87.7248 216.647 94.5507 216.327 98.4947C215.564 107.9 216.455 112.137 220.061 116.244C222.62 119.158 222.887 119.986 222.012 122.288C220.574 126.07 220.753 129.45 222.576 132.976C224.072 135.868 224.045 136.104 222.058 137.496C218.163 140.224 215.055 148.079 214.527 156.526C214.172 162.212 213.696 164.218 212.769 163.928C212.07 163.71 207.673 163.338 202.998 163.102C195.575 162.727 192.723 163.139 180.498 166.355C157.913 172.297 157.795 172.317 154.494 170.73C149.553 168.354 146.998 163.445 146.998 156.326C146.998 148.489 148.536 143.825 151.121 143.825C153.636 143.825 155.539 139.182 153.855 137.153C153.203 136.368 151.731 135.797 150.584 135.886C147.016 136.161 146.347 135.902 143.646 133.201C141.659 131.214 141.175 129.966 141.653 128.063C142.131 126.158 141.732 125.133 140.003 123.829C134.839 119.934 140.996 109.466 150.555 105.89C153.59 104.754 156.886 103.825 157.881 103.825C160.138 103.825 163.424 100.323 162.528 98.8727C162.161 98.2797 160.314 97.1478 158.423 96.3578C153.535 94.3158 152.376 90.7588 154.442 84.1368C156.179 78.5708 160.557 73.9357 164.325 73.6737C172.258 73.1237 176.166 74.9079 182.242 81.8539C187.751 88.1519 191.036 94.0348 203.482 119.889C213.101 139.871 214.455 142.118 216.498 141.48C219.258 140.619 217.204 135.027 205.159 110.612C191.17 82.2547 186.835 75.9729 177.144 70.0099C173.69 67.8839 171.385 65.4008 169.084 61.3238C165.175 54.3958 150.718 39.1637 142.498 33.3107C134.083 27.3187 119.113 19.6068 108.498 15.7958C103.548 14.0188 94.9978 10.8417 89.4978 8.73571C76.6398 3.81171 69.7268 2.08287 57.9978 0.853873C47.0968 -0.287127 43.1607 -0.285362 37.3527 0.863638ZM69.0318 8.21764C73.1748 9.09664 81.3908 11.7568 87.2878 14.1278L98.0118 18.4388L95.0478 20.6298C90.3068 24.1348 86.6598 31.2698 86.5728 37.2108C86.5318 40.0238 86.8168 43.4557 87.2078 44.8387C87.8228 47.0167 87.4248 47.6167 84.2238 49.3387C78.8858 52.2087 75.7888 58.3976 75.2148 67.3426C74.9458 71.5446 75.2488 76.0568 75.9438 78.1608C77.0668 81.5648 76.9478 82.0038 73.8608 85.8458C71.1208 89.2548 70.5218 90.9348 70.1908 96.1388C69.7198 103.532 71.0748 109.186 74.5428 114.297C76.9258 117.808 76.9868 118.193 75.5148 120.44C72.8848 124.453 71.8118 132.611 73.0978 138.807C73.9728 143.022 75.1488 145.211 78.1468 148.21C81.8938 151.957 82.0088 152.262 80.9108 155.59C79.2958 160.483 82.0508 170.177 87.0338 177.136C92.6008 184.91 106.277 194.825 111.433 194.825C114.324 194.825 112.189 196.439 107.498 197.8C102.523 199.243 70.0428 200.822 67.9978 199.721C67.1728 199.276 63.7978 198.179 60.4978 197.283C40.7208 191.913 28.8808 180.78 33.3718 171.778C35.8748 166.76 35.4418 165.092 31.0538 162.854C18.5698 156.485 11.1088 139.218 16.9978 130.325C18.0908 128.675 18.9877 126.627 18.9907 125.775C18.9947 124.922 16.8337 121.772 14.1887 118.775C6.74975 110.344 5.99777 108.912 5.99777 103.179C5.99777 99.0908 6.53277 97.3427 8.49777 95.0067C11.3668 91.5967 11.5618 88.7908 9.51779 80.3248C6.30579 67.0228 8.23678 54.8928 14.5388 48.7858C18.4108 45.0328 18.6448 43.5008 16.4408 36.3248C12.7508 24.3098 20.1198 12.8629 35.0568 7.40685C40.5518 5.39985 57.6758 5.80864 69.0318 8.21764ZM433.579 11.7897C442.637 16.2487 448.133 25.3799 446.43 33.1359C445.531 37.2279 442.864 42.8248 441.813 42.8248C441.365 42.8248 440.998 43.8947 440.998 45.2037C440.998 46.8777 441.845 47.9327 443.856 48.7657C449.804 51.2297 454.005 59.4328 453.976 68.5248C453.949 76.9998 451.452 83.0218 447.013 85.3168C443.42 87.1748 443.499 88.7658 447.277 90.6078C453.955 93.8638 456.652 102.836 453.109 110.006C450.926 114.422 444.662 121.825 443.107 121.825C442.632 121.825 441.73 122.443 441.103 123.199C440.215 124.268 440.738 125.723 443.461 129.771C448.351 137.036 449.352 141.33 447.553 147.309C445.314 154.747 439.292 159.787 429.807 162.16C427.147 162.826 427.121 162.913 427.643 169.579C428.132 175.831 427.95 176.667 425.158 180.993C421.782 186.225 414.156 192.646 406.557 196.653C399.415 200.419 388.903 200.171 372.544 195.849C365.97 194.112 360.209 192.455 359.742 192.167C359.276 191.879 360.847 190.404 363.234 188.89C368.426 185.597 374.237 179.028 376.993 173.335C378.47 170.284 378.998 167.156 378.998 161.455C378.998 154.237 379.2 153.502 381.994 150.521C388.641 143.429 392.237 131.141 390.046 123.003C388.994 119.096 389.134 118.247 391.697 113.029C394.009 108.321 394.498 106.016 394.498 99.8248C394.498 93.4598 394.074 91.5737 391.699 87.3617C389.065 82.6907 388.97 82.1107 390.074 77.5077C390.72 74.8167 391.041 69.3949 390.788 65.4589C390.284 57.5979 387.662 52.2388 382.962 49.4628C380.552 48.0388 380.42 47.5568 380.803 41.5528C381.317 33.4818 379.367 29.3559 371.545 21.9579C368.432 19.0139 366.056 16.4337 366.265 16.2247C367.002 15.4877 382.604 11.8867 391.498 10.4017C405.289 8.09772 406.777 7.98178 417.469 8.38878C426.099 8.71678 428.266 9.17466 433.579 11.7897ZM50.5398 20.5538C41.5368 22.8408 36.7168 37.6559 42.2848 45.9269C45.2948 50.3979 49.3428 52.3177 55.6478 52.2657C68.6188 52.1577 76.4158 37.9819 68.8178 28.3229C66.8978 25.8819 55.3968 19.6558 53.3358 19.9408C52.8748 20.0048 51.6168 20.2808 50.5398 20.5538ZM361.094 21.4589C366.472 24.0409 373.917 31.8108 375.052 36.0248C376.744 42.3078 375.591 44.4678 370.172 45.1688C367.601 45.5018 364.549 46.0458 363.389 46.3788C361.536 46.9108 361.196 46.4567 360.593 42.6547C359.618 36.5027 355.649 31.2757 349.913 28.5887C347.255 27.3437 345.062 26.0809 345.039 25.7819C344.989 25.1149 355.072 19.9699 356.594 19.8859C357.197 19.8519 359.222 20.5599 361.094 21.4589ZM121.739 27.6537C134.84 34.3057 140.893 38.5559 150.28 47.6979C158.397 55.6019 164.998 64.0507 164.998 66.5377C164.998 67.1077 163.588 67.8568 161.865 68.2018C160.068 68.5608 156.86 70.6996 154.342 73.2176L149.952 77.6068L145.225 73.6888C138.103 67.7858 128.127 62.0577 116.733 57.3297L106.498 53.0829L106.715 49.4777C107.134 42.5247 113.454 32.8248 117.565 32.8248C118.786 32.8248 120.016 32.2218 120.298 31.4838C121.183 29.1788 119.319 27.5118 115.964 27.6068C109.504 27.7908 102.537 37.9537 100.888 49.6007C100.202 54.4417 99.4028 56.5047 97.6948 57.8487C91.7488 62.5257 87.3788 76.7407 89.7738 83.6117C90.6398 86.0957 90.3938 87.4278 88.2788 91.7008C84.6338 99.0648 84.6668 107.608 88.3638 114.402C90.6658 118.631 90.9328 119.866 90.0488 122.191C88.5508 126.13 88.7498 136.295 90.4008 140.247C91.1718 142.093 93.3418 145.341 95.2218 147.465C97.9248 150.518 98.8998 152.786 99.8878 158.317C102.118 170.802 106.911 177.083 118.232 182.354C126.243 186.083 133.998 185.314 133.998 180.79C133.998 179.103 133.302 178.825 129.081 178.825C117.727 178.825 107.967 170.676 105.546 159.175L104.883 156.026L110.191 155.635C113.11 155.421 121.103 155.263 127.953 155.285L140.409 155.325L141.523 160.825C142.913 167.684 144.031 169.769 148.356 173.566L151.789 176.581L146.718 178.953C143.928 180.258 137.797 183.675 133.094 186.547C127.557 189.928 124.199 191.426 123.57 190.797C123.035 190.262 120.332 189.825 117.562 189.825C110.395 189.825 103.259 185.905 95.5488 177.732C87.3408 169.031 85.1228 163.139 87.0438 155.135L88.3418 149.722L83.7608 145.516C80.4688 142.493 78.9788 140.239 78.4658 137.504C77.4628 132.16 78.4848 126.011 80.9228 122.712C83.5328 119.183 83.5448 116.79 80.9708 113.518C77.5728 109.198 75.9978 104.189 75.9978 97.7037C75.9978 91.7187 76.1348 91.3919 80.2038 87.6349C84.2988 83.8539 84.3748 83.6677 83.1118 80.5387C80.0288 72.8997 79.7678 70.2728 81.4398 63.7428C83.2838 56.5458 84.9888 54.2058 89.0328 53.3168C93.5908 52.3158 94.5698 50.4108 93.1848 45.2328C91.5068 38.9598 91.7038 35.3207 93.9628 30.8937C97.0338 24.8727 100.321 23.0129 107.453 23.2599C112.319 23.4289 115.106 24.2857 121.739 27.6537ZM404.911 27.1048C397.391 32.1718 394.695 43.0979 399.279 49.9269C405.851 59.7179 418.098 58.4197 423.102 47.4037C425.503 42.1167 425.473 38.1818 422.998 33.5638C421.898 31.5108 420.998 29.1706 420.998 28.3636C420.998 24.3326 410.269 23.4938 404.911 27.1048ZM55.9808 27.5257C57.3158 28.4607 59.2908 29.2907 60.3688 29.3707C64.7488 29.6927 67.1278 35.7228 65.0408 41.2118C62.9768 46.6408 52.6078 48.4968 47.9398 44.2718C43.9888 40.6968 45.0338 30.6078 49.7218 27.0748C51.9258 25.4138 53.0848 25.4967 55.9808 27.5257ZM346.498 32.9237C351.699 35.0887 354.998 39.9686 354.998 45.4986C354.998 49.6216 354.829 49.8378 348.248 54.0968C344.536 56.4998 337.266 62.0339 332.093 66.3959C321 75.7479 313.322 81.8248 312.598 81.8248C312.312 81.8248 311.553 80.0709 310.91 77.9269C308.782 70.8219 303.502 66.8248 296.246 66.8248H292.624L295.561 63.6927C301.513 57.3457 318.574 42.6768 325.861 37.6388C335.309 31.1078 339.714 30.1007 346.498 32.9237ZM414.498 33.6488C418.959 36.7238 419.972 40.0588 417.937 44.9718C415.647 50.5008 409.026 52.7239 405.723 49.0729C401.36 44.2519 401.8 36.6987 406.667 32.8697C409.888 30.3367 409.661 30.3148 414.498 33.6488ZM376.788 52.7189C381.776 55.2649 383.588 57.4858 385 62.7828C386.213 67.3358 385.79 72.8867 383.808 78.4347C382.826 81.1847 382.07 81.6587 377.272 82.5277C372.022 83.4797 371.868 83.4438 372.514 81.4178C372.881 80.2668 373.419 76.7397 373.709 73.5797C374.155 68.7297 373.824 66.9887 371.581 62.4047C370.007 59.1877 367.623 56.1508 365.731 54.9528L362.537 52.9308L365.018 51.9408C368.881 50.3998 372.745 50.6549 376.788 52.7189ZM363.629 60.9518C368.035 65.2218 369.41 71.0726 367.511 77.4676C366.712 80.1576 365.483 83.0698 364.778 83.9388C364.074 84.8068 359.448 86.5458 354.498 87.8028C341.775 91.0338 331.162 95.0307 324.89 98.9547L319.498 102.329L314.765 100.827C310.781 99.5628 310.125 99.0078 310.626 97.3248C312.062 92.4928 314.467 88.6418 317.947 85.5978C328.612 76.2718 343.86 63.8888 348.85 60.5018C355.5 55.9888 358.606 56.0828 363.629 60.9518ZM113.317 61.9747C122.64 65.6397 131.81 70.7759 139.863 76.8439L147.998 82.9737V88.6769C147.998 92.2889 148.585 95.2179 149.6 96.6669C150.481 97.9249 151.044 99.0589 150.85 99.1869C150.656 99.3149 149.213 99.9728 147.642 100.649C145.069 101.757 144.177 101.545 138.642 98.5099C129.947 93.7419 123.307 91.3316 108.998 87.7486C102.123 86.0266 96.1668 84.1028 95.7628 83.4718C94.6278 81.6998 94.8648 74.9997 96.2238 70.4647C97.7568 65.3487 104.432 58.3658 106.825 59.3758C107.745 59.7628 110.666 60.9327 113.317 61.9747ZM302.861 74.9088C305.489 77.7288 307.259 85.2759 306.46 90.2499C306.099 92.4909 304.723 96.2938 303.401 98.7008C299.446 105.902 299.87 106.659 307.748 106.479C314.412 106.327 314.502 106.36 314.814 109.075C315.068 111.28 315.641 111.825 317.701 111.825C320.249 111.825 320.267 111.883 319.757 118.244C319.262 124.406 317.428 128.436 310.746 138.039C309.753 139.466 310.048 140.268 312.514 142.841C314.929 145.362 315.475 146.795 315.486 150.628C315.492 153.211 315.822 155.823 316.219 156.433C317.873 158.973 313.553 168.487 309.884 170.384C307.438 171.649 305.697 171.47 292.829 168.635C280.949 166.018 276.232 165.465 265.248 165.402L251.999 165.325L251.998 158.818C251.998 155.24 251.587 150.879 251.085 149.128C249.871 144.896 254.319 133.031 265.448 110.813C276.809 88.1309 282.082 80.1938 288.998 75.3658C293.58 72.1668 300.107 71.9518 302.861 74.9088ZM36.4978 75.2357C27.8678 79.0207 25.7508 90.3389 32.6568 95.7709C36.7198 98.9669 43.3898 98.5868 47.0238 94.9528C52.2638 89.7128 52.1768 84.8077 46.7358 78.6757C42.8388 74.2837 40.4768 73.4897 36.4978 75.2357ZM419.748 76.8798C414.695 79.8958 413.453 89.3706 417.571 93.4886C420.999 96.9166 426.294 96.2299 430.248 91.8439C433.382 88.3669 433.745 85.3068 431.337 82.6468C430.423 81.6368 429.175 79.8017 428.564 78.5677C427.32 76.0577 422.63 75.1598 419.748 76.8798ZM43.7478 84.0878C46.7788 86.4688 43.5257 92.8248 39.2747 92.8248C35.5077 92.8248 32.4978 85.7247 35.1438 83.0787C36.3828 81.8397 41.6758 82.4608 43.7478 84.0878ZM426.008 88.3129C423.98 90.7559 420.998 90.2169 420.998 87.4069C420.998 82.5579 421.9 81.8298 424.696 84.4208C426.823 86.3918 427.048 87.0599 426.008 88.3129ZM386.931 90.3368C387.728 91.9808 388.57 95.8727 388.803 98.9867C389.14 103.508 388.723 105.747 386.728 110.103C384.509 114.951 383.816 115.636 380.512 116.256C378.467 116.64 376.604 116.764 376.371 116.532C376.139 116.3 376.637 113.47 377.477 110.244C379.26 103.398 378.725 98.9878 375.405 93.1798L373.036 89.0338L377.767 88.0377C384.284 86.6637 385.271 86.9118 386.931 90.3368ZM109.498 93.6937C120.252 96.4547 133.918 101.583 137.496 104.2C139.203 105.448 139.181 105.658 137.04 108.554C135.803 110.227 134.05 113.808 133.144 116.51L131.498 121.424L121.998 120.18C116.773 119.496 108.999 118.911 104.723 118.88C97.6638 118.83 96.8518 118.618 95.9038 116.575C95.3288 115.338 93.9908 112.75 92.9298 110.825C91.8688 108.9 91.0098 105.525 91.0218 103.325C91.0478 98.0428 94.3358 90.8178 96.6988 90.8468C97.6878 90.8588 103.448 92.1397 109.498 93.6937ZM368.222 92.5748C373.434 98.5188 374.303 105.914 370.602 112.84C368.241 117.261 368.115 117.335 361.852 118.049C358.357 118.447 348.684 120.275 340.356 122.112L325.213 125.452L325.356 118.388C325.434 114.504 325.127 110.15 324.674 108.713C323.929 106.35 324.273 105.854 328.292 103.499C333.822 100.258 341.721 97.2519 353.998 93.7189C365.476 90.4149 366.272 90.3508 368.222 92.5748ZM279.399 100.383C269.667 110.35 265.449 120.391 269.975 122.813C275.912 125.99 289.998 111.366 289.998 102.024C289.998 97.9228 288.44 94.8248 286.376 94.8248C285.523 94.8248 282.383 97.3257 279.399 100.383ZM173.998 101.113C172.362 101.936 171.382 103.383 171.162 105.297C170.869 107.853 171.985 109.328 179.998 116.983C189.67 126.224 192.185 127.745 194.546 125.785C199.159 121.957 190.867 105.911 181.873 101.26C178.493 99.5119 177.225 99.4887 173.998 101.113ZM282.312 107.87C280.476 110.979 274.032 117.55 275.492 114.825C277.129 111.771 282.524 104.886 283.305 104.856C283.748 104.839 283.302 106.195 282.312 107.87ZM183.742 110.419C189.894 116.839 188.082 117.385 181.724 111.027C178.863 108.166 177.156 105.825 177.931 105.825C178.707 105.825 181.322 107.892 183.742 110.419ZM41.4468 108.351C34.9978 111.587 33.4308 119.159 38.2998 123.561C41.4038 126.369 44.7788 126.943 48.6528 125.325C53.2598 123.4 54.4508 120.329 53.3728 113.153L52.4978 107.325L48.4978 107.073C46.2978 106.934 43.1248 107.51 41.4468 108.351ZM415.355 112.779C412.547 113.962 409.998 117.679 409.998 120.593C409.998 121.871 411.103 124.02 412.453 125.37C415.518 128.435 421.835 128.768 424.343 125.996C426.378 123.747 426.589 115.56 424.653 113.953C422.713 112.344 417.847 111.729 415.355 112.779ZM47.7998 115.291C48.7038 117.274 48.6138 118.066 47.3398 119.341C43.8938 122.786 39.1788 118.493 42.4448 114.884C44.9018 112.169 46.4308 112.285 47.7998 115.291ZM420.81 120.09C421.208 122.156 418.322 123.549 416.798 122.025C415.274 120.501 416.667 117.615 418.733 118.013C419.691 118.197 420.626 119.132 420.81 120.09ZM237.131 123.576C239.26 127.418 239.564 128.759 238.718 130.597C236.3 135.853 227.765 133.998 227.188 128.09C226.719 123.291 229.568 119.442 233.998 118.889C234.273 118.855 235.683 120.964 237.131 123.576ZM164.019 121.941C160.212 123.46 157.998 125.889 157.998 128.546C157.998 132.619 159.772 134.597 165.244 136.628C172.336 139.26 186.503 142.229 188.435 141.487C193.095 139.699 186.941 130.878 178.098 126.669C175.568 125.464 172.425 123.657 171.113 122.652C168.444 120.608 167.578 120.521 164.019 121.941ZM285.206 123.957C273.204 130.147 269.463 135.148 273.681 139.365C275.081 140.765 276.884 140.976 284.431 140.621C293.92 140.175 299.529 138.216 303.323 134.02C306.16 130.883 305.193 126.631 301.248 124.895C299.46 124.108 297.998 122.87 297.998 122.145C297.998 119.783 291.52 120.701 285.206 123.957ZM384.368 124.075C386.236 131.046 383.174 141.012 377.323 147.004C374.318 150.082 372.867 150.825 369.863 150.825H366.133L369.506 145.813C374.031 139.089 375.113 131.428 372.495 124.662C371.751 122.742 373.392 122.116 379.631 121.941C383.122 121.843 383.858 122.175 384.368 124.075ZM368.295 129.597C369.274 134.719 366.92 140.975 362.34 145.427L357.905 149.737L340.471 150.031L323.036 150.325L320.1 144.399L317.165 138.473L319.611 135.265C321.741 132.473 323.25 131.787 331.278 129.963C342.849 127.335 358.709 124.039 361.998 123.579C364.797 123.188 367.578 125.845 368.295 129.597ZM117.825 125.463C131.345 127.037 132.243 127.278 133.751 129.728C134.63 131.156 137.269 134.35 139.615 136.825C143.843 141.286 143.871 141.362 142.744 145.534L141.607 149.742L123.382 150.034L105.157 150.325L100.552 144.825C95.5238 138.818 93.4968 133.31 94.4478 128.239C95.3978 123.177 96.7808 123.013 117.825 125.463ZM176.841 132.243C180.942 134.365 180.547 135.077 175.942 133.862C174.048 133.362 170.585 132.457 168.248 131.85C165.851 131.229 163.998 130.15 163.998 129.377C163.998 128.232 164.782 128.213 168.748 129.26C171.36 129.949 175.002 131.292 176.841 132.243ZM297.484 129.835C299.203 130.448 298.902 130.833 295.246 132.698C290.52 135.109 278.998 136.777 278.998 135.05C278.998 134.467 281.347 132.634 284.218 130.976C289.423 127.971 291.707 127.775 297.484 129.835ZM52.7258 142.166C48.7208 145.843 47.9978 147.073 47.9978 150.211C47.9978 159.368 60.8398 162.454 63.7848 154.005C65.5528 148.935 61.9948 137.825 58.6038 137.825C57.9718 137.825 55.3268 139.778 52.7258 142.166ZM246.344 159.325C246.33 164.61 245.742 168.678 244.613 171.311C242.938 175.216 239.333 179.825 237.954 179.825C235.674 179.825 233.874 153.651 235.464 143.628C236.576 136.618 238.693 136.958 242.891 144.819C246.033 150.705 246.363 152.088 246.344 159.325ZM229.581 156.575C229.634 167.877 230.098 175.374 230.859 177.214C232.405 180.951 231.808 181.416 228.2 179.285C218.662 173.651 217.23 146.306 226.248 142.022C227.761 141.304 228.998 140.29 228.998 139.77C228.998 139.25 229.11 138.825 229.248 138.825C229.386 138.826 229.535 146.813 229.581 156.575ZM405.498 140.77C397.991 143.843 397.322 153.853 404.399 157.211C408.305 159.065 411.59 158.396 415.248 155.002C419.11 151.419 419.168 144.89 415.363 141.898C412.645 139.76 408.988 139.342 405.498 140.77ZM58.5248 148.95C59.2108 152.071 57.7908 154.196 55.4978 153.48C53.9848 153.008 53.6848 148.907 55.0438 147.27C56.8638 145.076 57.7708 145.513 58.5248 148.95ZM168.319 149.304C164.407 153.216 164.142 155.673 167.312 158.651C169.081 160.312 170.863 160.825 174.87 160.825C185.71 160.825 192.521 157.545 191.828 152.657C191.383 149.512 186.144 147.171 178.069 146.509C171.825 145.997 171.545 146.078 168.319 149.304ZM412.668 147.408C413.574 149.768 409.734 153.193 407.116 152.362C404.788 151.624 404.32 148.903 406.198 147.025C407.918 145.305 411.953 145.545 412.668 147.408ZM274.998 149.825C272.458 152.365 272.488 153.137 275.248 156.258C276.723 157.926 279.666 159.347 283.793 160.383C291.665 162.36 295.759 161.626 296.649 158.08C297.188 155.931 296.603 154.847 293.187 151.66C289.36 148.091 288.657 147.825 283.037 147.825C278.331 147.825 276.556 148.267 274.998 149.825ZM183.998 153.727C181.622 155.06 175.099 155.992 172.94 155.307C169.135 154.099 172.183 152.825 178.807 152.855C182.963 152.874 184.93 153.205 183.998 153.727ZM287.557 154.293C290.116 156.229 287.666 156.27 283.498 154.361C280.507 152.991 280.506 152.987 283.057 152.906C284.464 152.862 286.489 153.486 287.557 154.293ZM351.248 155.678C357.601 155.816 357.998 155.962 357.998 158.147C357.998 162.421 354.768 170.291 351.617 173.694C348.278 177.301 342.55 180.284 340.91 179.271C339.496 178.396 336.804 180.876 337.421 182.485C338.141 184.362 338.069 184.339 327.551 179.325C322.36 176.85 317.637 174.825 317.055 174.825C315.615 174.825 315.65 174.7 318.535 169.537C319.931 167.04 321.404 163.046 321.808 160.661L322.543 156.325L328.021 155.784C331.033 155.486 335.973 155.308 338.998 155.387C342.023 155.467 347.536 155.598 351.248 155.678ZM373.296 158.225C374.927 160.474 373.093 169.003 369.912 173.959C366.562 179.179 359.513 185.825 357.326 185.825C356.605 185.825 355.453 186.725 354.766 187.825C353.196 190.339 352.298 190.325 346.331 187.693L341.498 185.561L344.902 184.625C354.446 181.999 361.71 172.596 363.52 160.526L364.193 156.041L368.345 156.583C370.629 156.881 372.857 157.62 373.296 158.225ZM394.376 171.158C391.417 177.364 395.197 181.08 399.794 176.484L402.416 173.862L400.396 171.156C397.47 167.238 396.246 167.238 394.376 171.158ZM197.985 170.181C186.116 172.738 176.958 182.103 172.035 196.715C169.391 204.565 169.476 209.162 172.382 215.404C175.104 221.249 178.748 224.5 183.599 225.41C185.469 225.761 186.998 226.339 186.998 226.696C186.998 228.503 176.349 232.786 171.795 232.81C164.079 232.852 160.998 227.562 160.998 214.273C160.998 199.505 165.835 188.586 177.196 177.706C184.731 170.489 188.075 169.094 197.998 169.029L203.498 168.993L197.985 170.181ZM297.498 175.43C311.067 178.168 312.182 178.529 324.172 184.073L332.846 188.084L333.528 193.041C334.518 200.239 332.587 206.06 327.765 210.416C325.311 212.634 323.164 213.797 322.146 213.46C313.269 210.528 312.998 210.357 312.998 207.669C312.998 197.305 300.516 181.835 286.842 175.252C282.803 173.308 280.848 172.007 282.498 172.363C284.148 172.718 290.898 174.098 297.498 175.43ZM264.533 174.916C275.521 176.947 281.916 182.036 286.751 192.596C289.896 199.467 289.264 205.713 284.989 209.988C281.25 213.727 274.702 214.045 272.901 210.575C270.235 205.437 264.371 199.478 256.422 193.828C251.777 190.527 247.53 187.825 246.987 187.825C245.221 187.825 245.943 181.033 248.097 177.382C249.974 174.2 250.64 173.825 254.413 173.825C256.733 173.825 261.287 174.316 264.533 174.916ZM219.439 178.626C220.58 181.016 220.736 182.446 220.006 183.81C219.452 184.846 218.998 186.736 218.998 188.011C218.998 189.745 217.839 190.943 214.395 192.77C209.228 195.511 203.39 202.215 196.391 213.445L191.665 221.027L187.581 220.376C182.164 219.511 179.135 217.397 177.414 213.279C174.339 205.919 176.794 195.495 183.741 186.414C190.812 177.171 196.247 174.753 209.181 175.095L217.864 175.325L219.439 178.626ZM164.48 183.075C163.032 185.413 160.925 189.454 159.797 192.056C158.67 194.659 157.369 196.554 156.907 196.269C155.319 195.287 148.055 199.84 141.653 205.829C138.128 209.127 134.816 211.825 134.295 211.825C133.773 211.825 132.293 210.704 131.006 209.333C128.243 206.392 127.934 201.659 130.331 199.009C131.248 197.996 131.998 196.456 131.998 195.586C131.998 191.498 154.609 180.523 166.305 178.935C166.748 178.874 165.927 180.737 164.48 183.075ZM295.903 188.397C303.893 195.795 307.37 202.827 307.444 211.735C307.507 219.403 305.366 223.987 300.046 227.572C293.565 231.939 281.827 229.262 278.4 222.635C276.534 219.027 276.448 219.169 280.921 218.453C292.645 216.579 297.765 201.575 291.153 188.466C289.588 185.363 288.662 182.825 289.096 182.825C289.529 182.825 292.592 185.333 295.903 188.397ZM240.998 187.076C240.998 187.573 239.683 189.294 238.075 190.902C233.204 195.772 224.998 194.113 224.998 188.258C224.998 186.096 225.335 186.004 232.998 186.087C237.398 186.135 240.998 186.58 240.998 187.076ZM345.397 195.936C344.058 197.417 343.967 198.298 344.884 200.929C346.434 205.373 346.274 210.391 344.472 213.875C343.041 216.642 342.577 216.825 336.972 216.825C330.526 216.825 329.837 216.185 333.104 213.23C337.019 209.689 339.387 203.724 339.444 197.255L339.498 191.185L343.261 192.662C346.798 194.05 346.926 194.247 345.397 195.936ZM364.183 199.419C370.61 201.323 379.61 203.373 384.183 203.975C395.56 205.471 395.346 205.376 394.533 208.587C392.662 215.977 392.807 225.469 394.898 232.491C396.053 236.368 396.998 240.721 396.998 242.163C396.998 247.455 393.978 252.6 388.397 256.814C385.412 259.068 381.764 262.733 380.291 264.959C377.874 268.611 377.604 269.947 377.521 278.665C377.39 292.324 375.511 294.801 362.288 298.739C353.061 301.487 348.717 305.959 347.004 314.477C345.005 324.421 342.555 327.069 329.595 333.3C312.924 341.314 310.602 344.93 311.665 361.232C312.741 377.749 307.797 393.146 298.735 401.499C291.181 408.463 282.265 408.309 275.941 401.107C272.987 397.742 272.813 397.121 273.224 391.418C273.542 386.999 275.077 382 278.808 373.232C285.278 358.027 287.371 349.411 286.679 340.824C285.81 330.022 282.938 324.072 273.889 314.329C267.055 306.971 261.998 299.08 261.998 295.776C261.998 295.29 263.617 295.848 265.596 297.015C268.053 298.465 271.461 299.274 276.346 299.568C286.011 300.149 290.598 297.726 297.742 288.268C302.916 281.419 303.064 281.315 308.711 280.584C319.715 279.158 328.511 270.829 331.066 259.413C332.062 254.963 333.039 253.378 336.65 250.36C343.212 244.875 346.339 238.037 346.497 228.825C346.597 223.037 347.119 220.533 348.783 217.858C352.441 211.979 352.602 204.774 349.269 196.089C348.784 194.826 349.066 194.638 350.574 195.217C351.632 195.624 357.756 197.515 364.183 199.419ZM243.297 200.325L244.966 203.825H236.45C229.471 203.825 227.821 204.122 227.304 205.47C226.1 208.608 229.825 209.964 238.74 209.632C244.538 209.416 247.119 209.686 247.446 210.543C248.057 212.144 247.551 212.386 240.615 213.813C237.199 214.515 232.479 214.741 229.361 214.351C224.967 213.802 223.88 213.968 223.383 215.265C223.048 216.137 223.362 217.559 224.081 218.425C225.151 219.714 227.125 219.927 234.943 219.597C240.198 219.375 245.286 218.838 246.248 218.402C247.671 217.759 247.998 218.101 247.998 220.233C247.998 222.117 247.084 223.411 244.748 224.836C240.858 227.208 236.407 227.343 228.659 225.325C221.15 223.369 220.998 223.389 220.998 226.35C220.998 228.136 221.744 229.158 223.547 229.844C228.042 231.553 236.98 232.56 241.048 231.816C245.185 231.059 245.49 231.389 244.403 235.441C243.623 238.345 236.908 240.41 234.048 238.624C232.356 237.568 231.748 237.647 230.281 239.113C227.519 241.875 229.711 244.26 235.35 244.63C237.907 244.797 239.998 245.136 239.998 245.382C239.998 245.628 238.555 248.497 236.791 251.758C233.712 257.451 232.005 258.609 231.992 255.016C231.988 254.086 230.411 250.4 228.487 246.825C220.386 231.771 219.667 229.749 219.603 221.825C219.55 215.266 219.979 213.405 223.02 206.989L226.498 199.652L231.814 199.373C234.738 199.219 237.64 198.583 238.264 197.959C240.187 196.036 241.559 196.681 243.297 200.325ZM123.185 202.347C122.638 207.035 124.475 211.159 128.805 214.96C131.83 217.616 132.486 218.971 133.17 223.973C133.613 227.21 134.847 231.57 135.914 233.66C138.018 237.785 143.799 243.319 148.833 246.028C150.912 247.147 151.998 248.487 151.998 249.933C151.998 255.013 162.805 261.825 170.864 261.825C173.182 261.825 175.029 262.856 177.957 265.784C183.717 271.544 188.792 273.825 195.847 273.825H201.775L202.441 277.372C203.119 280.986 202.357 288.745 201.159 290.418C199.869 292.22 190.421 294.834 185.216 294.829C182.311 294.826 178.479 294.217 176.7 293.474C172.161 291.577 167.214 285.569 165.903 280.36C164.396 274.376 162.657 273.166 154.714 272.564C143.258 271.696 138.145 266.782 135.874 254.458C134.649 247.809 134.548 247.653 130.086 245.508C123.307 242.25 121.455 238.366 121.676 227.867C121.851 219.574 121.789 219.336 118.509 215.705C113.891 210.594 112.919 208.47 113.613 205.002C114.061 202.76 115.118 201.643 117.854 200.518C123.246 198.301 123.642 198.436 123.185 202.347ZM155.527 214.575C155.549 223.418 155.953 227.055 157.16 229.274C158.814 232.319 158.646 232.819 153.322 240.71C152.637 241.723 146.669 238.215 144.099 235.288C138.339 228.727 137.41 218.262 142.132 213.129C144.924 210.094 153.888 202.825 154.838 202.825C155.201 202.826 155.511 208.113 155.527 214.575ZM106.998 206.09C106.998 208.887 110.391 215.461 113.6 218.88C115.703 221.12 115.998 222.384 115.998 229.162C115.998 240.556 118.742 246.121 126.248 249.952C128.985 251.348 129.998 252.505 129.998 254.23C129.998 258.834 133.35 266.88 136.708 270.338C141.367 275.135 146.867 277.737 153.899 278.472C159.598 279.068 159.848 279.214 160.424 282.282C160.753 284.036 162.322 287.521 163.911 290.026C169.314 298.546 183.262 302.885 194.288 299.477C199.039 298.009 199.073 298.014 198.408 300.161C197.139 304.257 192.013 313.733 186.453 322.263C178.886 333.872 177.572 338.06 178.312 348.208C178.974 357.283 181.888 366.7 187.444 377.724C193.769 390.272 193.162 400.316 185.808 404.799C174.633 411.612 159.681 400.69 153.815 381.43C151.998 375.464 151.804 373.073 152.374 363.689C153.372 347.256 152.009 344.809 136.998 336.078C124.133 328.596 116.678 320.889 114.216 312.531C112.017 305.064 108.76 302.4 100.577 301.378C89.0908 299.943 85.7748 294.69 86.1668 278.551C86.3938 269.191 86.2938 268.666 83.7848 266.158C82.3448 264.717 79.0028 262.366 76.3578 260.932C67.0458 255.883 64.8908 247.369 69.4978 233.825C72.2868 225.625 72.5598 221.414 70.7988 213.783C69.0808 206.339 70.4308 205.506 83.2808 206.084C89.2868 206.354 95.0778 206.036 98.2808 205.259C105.995 203.39 106.998 203.486 106.998 206.09ZM318.639 226.457C318.343 234.724 317.799 235.609 311.28 238.432C306.676 240.425 304.673 240.172 301.929 237.251C299.553 234.722 299.545 234.658 301.504 233.584C305.966 231.138 310.949 225.038 312.149 220.552L313.374 215.968L316.143 217.4C318.843 218.796 318.905 219.021 318.639 226.457ZM89.3578 220.285C85.9648 222.662 84.5158 227.247 86.0138 230.865C87.7348 235.02 90.6578 236.825 95.6638 236.825C98.8918 236.825 100.251 236.302 101.441 234.602C103.582 231.547 103.405 229.562 100.481 223.792C98.2388 219.366 97.6088 218.825 94.7038 218.825C92.9098 218.825 90.5048 219.482 89.3578 220.285ZM364.075 221.902C361.735 224.242 361.006 225.859 361.03 228.652C361.081 234.544 364.817 237.825 371.478 237.825C375.522 237.825 379.998 234.25 379.998 231.02C379.998 228.242 377.943 222.589 376.201 220.575C373.652 217.627 367.698 218.279 364.075 221.902ZM340.816 226.795C341.284 233.359 339.181 239.549 334.985 243.959C332.352 246.728 330.483 247.822 328.403 247.813C325.588 247.802 315.218 245.378 314.374 244.535C314.145 244.305 315.754 242.929 317.95 241.476C323.03 238.114 325.261 233.774 325.358 227.063L325.435 221.749L332.966 222.037L340.498 222.325L340.816 226.795ZM95.6058 226.575C98.6528 230.589 96.0538 233.738 92.5688 230.254C90.9188 228.603 90.5408 226.615 91.6648 225.492C92.7978 224.358 94.2198 224.749 95.6058 226.575ZM373.368 227.075C373.699 228.313 373.977 229.835 373.984 230.458C374.008 232.386 370.098 232.732 368.072 230.982C365.465 228.731 366.91 224.825 370.349 224.825C372.009 224.825 372.953 225.529 373.368 227.075ZM283.498 233.833C285.698 234.904 288.64 235.791 290.036 235.803C291.724 235.818 294.146 237.422 297.272 240.596L301.971 245.366L300.234 248.83C298.069 253.15 291.824 256.787 286.533 256.809C282.949 256.823 282.013 256.228 276.813 250.625L271.058 244.426L272.441 239.375C273.201 236.598 274.107 233.045 274.453 231.481C275.06 228.744 275.165 228.698 277.291 230.261C278.505 231.154 281.298 232.761 283.498 233.833ZM191.448 237.575C191.822 240.737 193.931 248.679 196.134 255.222C200.596 268.468 200.449 269.259 193.675 268.451C189.444 267.947 182.596 263.668 180.223 260.046C179.36 258.728 178.486 254.535 178.224 250.448C177.661 241.678 179.366 237.534 184.4 235.43C186.245 234.66 188.06 233.533 188.435 232.927C189.869 230.607 190.792 232.031 191.448 237.575ZM170.135 238.494C173.717 239.05 173.758 239.109 172.851 242.396C172.344 244.231 172.057 248.117 172.214 251.029L172.498 256.325L169.498 256.001C164.771 255.491 159.616 252.573 158.212 249.613C157.072 247.21 157.222 246.317 159.529 241.764C161.753 237.374 162.45 236.722 164.315 237.278C165.516 237.636 168.135 238.183 170.135 238.494ZM323.248 252.799C325.577 252.821 325.997 253.246 325.988 255.575C325.983 257.087 324.892 260.659 323.564 263.511C320.715 269.63 315.364 273.641 308.285 274.964C303.898 275.783 303.23 275.619 299.027 272.68C296.536 270.938 293.05 268.159 291.279 266.503L288.061 263.493L293.647 261.223C300.13 258.588 303.72 255.581 305.575 251.231L306.894 248.138L313.696 250.456C317.437 251.73 321.735 252.785 323.248 252.799ZM273.735 255.575C279.477 262.528 279.484 262.558 275.797 264.806C272.344 266.912 267.477 267.414 265.102 265.911C263.935 265.171 264.087 263.867 266.035 257.926C267.315 254.02 268.689 250.825 269.087 250.825C269.486 250.825 271.577 252.962 273.735 255.575ZM97.9208 256.748C91.1418 263.527 97.9318 274.835 106.904 271.708C112.069 269.908 113.281 262.241 109.377 256.075C107.22 252.669 101.674 252.995 97.9208 256.748ZM353.543 256.779C351.209 259.214 350.611 260.752 350.561 264.445C350.508 268.328 350.927 269.389 353.184 271.093C355.534 272.866 356.246 272.965 358.864 271.88C363.109 270.122 365.068 265.486 364.188 259.285C363.508 254.492 363.366 254.315 359.973 254.028C357.149 253.79 355.889 254.329 353.543 256.779ZM105.983 263.516C106.002 266.289 104.344 267.357 102.454 265.789C100.474 264.145 100.619 261.136 102.736 259.951C104.761 258.818 105.959 260.133 105.983 263.516ZM358.442 262.735C359.165 263.904 358.057 266.825 356.891 266.825C356.4 266.825 355.998 265.7 355.998 264.325C355.998 261.854 357.353 260.972 358.442 262.735ZM287.386 270.585C289.648 272.653 292.819 275.295 294.434 276.458L297.369 278.571L294.072 283.709C288.805 291.918 282.393 295.391 274.761 294.171C272.631 293.83 269.451 292.487 267.693 291.186C265.936 289.884 263.71 288.543 262.748 288.206C260.875 287.549 260.351 281.31 261.631 274.909C262.254 271.795 262.338 271.753 266.673 272.404C271.401 273.113 278.787 270.989 281.042 268.272C282.676 266.303 282.722 266.32 287.386 270.585ZM331.498 286.033C328.372 287.826 327.064 290.046 327.03 293.62C326.986 298.199 331.056 302.263 334.798 301.378C339.336 300.305 341.173 297.219 340.429 291.918C339.522 285.452 336.259 283.302 331.498 286.033ZM122.148 288.165C118.617 291.924 119.44 297.549 123.966 300.589C128.419 303.58 132.63 303.227 135.297 299.638C137.275 296.978 137.276 296.9 135.389 291.638C133.5 286.37 133.446 286.322 128.959 286.029C125.235 285.786 124.028 286.164 122.148 288.165ZM130.023 293.39C130.559 294.801 130.998 296.151 130.998 296.39C130.998 297.328 128.282 296.752 126.477 295.432C124.86 294.25 124.774 293.799 125.908 292.432C127.787 290.168 128.896 290.427 130.023 293.39ZM334.535 295.62C333.655 296.5 331.986 293.653 332.702 292.494C333.017 291.985 333.704 292.335 334.228 293.272C334.752 294.208 334.891 295.265 334.535 295.62ZM155.498 310.98C152.352 312.7 150.998 314.942 150.998 318.433C150.998 323.034 151.853 324.698 155.07 326.362C161.631 329.755 168.398 326.853 168.398 320.645C168.398 318.755 167.371 315.546 166.116 313.516C164.252 310.499 163.255 309.831 160.666 309.855C158.924 309.872 156.598 310.378 155.498 310.98ZM296.45 313.471C291.945 318.332 294.171 325.826 300.599 327.44C306.21 328.848 309.998 324.609 309.998 316.92C309.998 313.846 309.525 312.93 307.451 311.985C303.152 310.026 299.14 310.568 296.45 313.471ZM161.963 317.759C162.532 318.823 162.998 320.124 162.998 320.651C162.998 322.551 160.049 322.687 157.829 320.889C155.888 319.318 155.755 318.823 156.903 317.44C158.699 315.276 160.701 315.402 161.963 317.759ZM303.998 319.398C303.998 322.681 300.653 322.389 300.178 319.065C299.936 317.364 300.357 316.825 301.928 316.825C303.485 316.825 303.998 317.463 303.998 319.398Z" fill="#FFC4C4"/>
</svg>
