<svg width="319" height="462" viewBox="0 0 319 462" fill="none" xmlns="http://www.w3.org/2000/svg">
<path fill-rule="evenodd" clip-rule="evenodd" d="M93.2872 1.18182C91.6382 2.38782 91.5042 3.53682 92.0402 11.9318C92.5532 19.9798 95.3402 32.2047 98.2302 39.0807C99.4822 42.0577 96.5732 41.1307 89.1882 36.1977C80.7312 30.5487 75.6612 26.0837 69.7522 19.0807C66.2182 14.8917 64.7152 13.8098 62.7522 14.0388C60.2862 14.3268 60.2532 14.4547 60.3192 23.3307C60.3912 33.0797 62.4972 41.4086 67.3142 51.0016C70.5912 57.5256 77.5232 67.3609 81.4942 71.1179L84.4402 73.9057L83.0332 79.1179C82.0702 82.6869 81.7492 87.9577 82.0172 95.8307C82.3652 106.049 82.7692 108.186 85.6402 115.001C89.4452 124.03 94.9522 132.278 102.097 139.647C107.074 144.778 107.148 144.937 104.252 144.241C102.602 143.844 98.8192 142.689 95.8452 141.675C89.5582 139.531 86.6262 139.357 84.9522 141.031C81.5752 144.408 85.0592 151.953 93.8992 160.405C101.355 167.534 107.099 171.056 114.938 173.305C120.094 174.784 120.825 175.35 122.771 179.371C125.386 184.772 135.778 194.506 142.395 197.752C145.066 199.063 147.394 200.246 147.567 200.382C147.741 200.518 146.523 203.323 144.861 206.616C143.198 209.909 141.315 214.68 140.676 217.217C140.037 219.755 139.286 221.831 139.006 221.831C138.726 221.831 135.742 220.478 132.375 218.825C126.271 215.827 114.946 212.894 109.252 212.835C104.878 212.789 101.752 211.771 101.752 210.392C101.752 209.728 100.457 206.513 98.8752 203.246C96.0282 197.369 90.9982 185.765 83.7402 168.331C81.6802 163.381 77.6582 153.959 74.8042 147.394C67.9112 131.537 67.1182 127.077 69.7352 118.884C70.8442 115.411 71.7522 110.644 71.7522 108.29C71.7522 102.377 68.8032 93.4598 64.3122 85.7988C59.1222 76.9428 56.9022 70.9367 55.7092 62.5297C54.5722 54.5097 53.5802 52.8189 50.9742 54.4619C47.6932 56.5319 46.7522 70.5729 49.2522 80.1699C51.5142 88.8539 51.0692 89.0268 46.8602 81.0978C43.4992 74.7668 35.9022 64.0187 29.8832 57.0807C27.6092 54.4587 24.9492 54.1528 24.0822 56.4138C23.7382 57.3088 25.6852 62.6268 28.5662 68.6638C33.6112 79.2348 36.0692 86.6117 37.1182 94.3307L37.6612 98.3307L35.5362 95.3307C30.6262 88.3997 21.0482 80.1716 13.0992 76.0536C4.40919 71.5526 1.05818 70.8707 0.0851753 73.4067C-0.313825 74.4447 0.692179 75.9808 3.03618 77.9128C7.62218 81.6938 12.9602 89.1258 15.1782 94.8188C16.1402 97.2878 17.5322 103.359 18.2712 108.311C19.5382 116.786 19.8482 117.53 23.5612 120.994C26.2792 123.529 29.6412 125.314 34.3782 126.738C42.8352 129.279 46.7112 131.599 50.2532 136.243C53.4062 140.377 75.1282 187.666 79.3532 199.595L82.1972 207.624L78.0502 212.123C69.1932 221.732 69.6562 236.271 79.0822 244.547C83.1332 248.105 89.3892 250.211 93.1212 249.275C95.3122 248.725 96.0042 249.413 99.8092 255.929C103.978 263.067 120.753 298.006 120.751 299.546C120.75 299.978 117.937 301.154 114.501 302.16C106.426 304.523 98.7402 308.942 94.6992 313.544C91.0012 317.756 86.7762 326.292 86.7622 329.581C86.7562 330.819 86.4842 331.831 86.1562 331.831C85.8292 331.831 84.1412 330.819 82.4062 329.581C77.9692 326.416 68.0722 326.489 61.7522 329.733C52.9722 334.24 46.8322 341.872 45.3302 350.146C44.3352 355.627 46.3812 364.019 49.8972 368.872L52.9302 373.06L49.4122 375.96C47.4772 377.555 44.5122 381.625 42.8232 385.005C40.1912 390.271 39.7522 392.255 39.7522 398.865C39.7522 417.343 47.9412 425.647 67.0522 426.55C75.2412 426.936 76.7462 426.727 80.7522 424.645L85.2522 422.306L88.9732 425.212C91.0192 426.811 95.0692 428.93 97.9732 429.921C101.936 431.274 103.169 432.153 102.919 433.446C102.286 436.725 105.003 443.764 108.46 447.803C116.052 456.672 126.14 461.106 138.656 461.075C150.226 461.046 157.738 457.557 168.959 446.998L172.666 443.509L176.959 447.823C184.886 455.789 199.776 460.097 211.962 457.951C223.795 455.866 234.187 447.297 237.851 436.601C239.805 430.9 239.945 430.849 246.752 433.365C252.826 435.61 264.712 434.962 270.252 432.084C274.788 429.728 279.802 424.741 282.017 420.383C283.409 417.644 283.869 417.455 288.523 417.702C291.277 417.848 295.339 417.481 297.548 416.886C303.49 415.286 311.076 407.951 314.971 400.037C318.103 393.675 318.252 392.851 318.252 381.852C318.252 370.428 318.22 370.271 314.456 363.229C306.162 347.712 295.008 339.147 284.256 340.039C280.881 340.319 278.008 341.194 276.761 342.323C274.333 344.521 274.402 344.59 272.751 338.331C270.784 330.872 265.177 320.247 260.572 315.252C254.541 308.709 245.488 304.597 235.937 304.063C230.655 303.768 226.888 304.109 223.888 305.155C219.722 306.607 219.501 306.586 219.009 304.706C218.726 303.622 216.995 299.607 215.162 295.784C212.65 290.543 211.328 288.831 209.791 288.831C206.98 288.831 207.155 291.675 210.395 298.645C214.707 307.922 216.752 317.22 216.752 327.545C216.752 337.882 217.146 337.331 209.087 338.274L203.921 338.877L203.21 335.604C202.361 331.698 199.669 326.132 193.406 315.331C190.854 310.931 188.764 307.001 188.759 306.599C188.755 306.196 190.576 302.886 192.805 299.244C196.99 292.408 197.466 289.592 194.534 289.028C193.367 288.803 191.66 290.635 189.046 294.92C183.978 303.227 179.939 307.831 177.721 307.831C176.718 307.831 174.627 306.314 173.075 304.46C171.522 302.606 167.013 298.311 163.054 294.916C157.982 290.566 155.129 287.205 153.398 283.537C150.97 278.394 148.891 268.831 150.201 268.831C150.572 268.831 153.03 269.535 155.661 270.396C159.152 271.538 163.471 271.876 171.626 271.646L182.805 271.331L182.222 273.977C180.665 281.039 187.436 287.553 195.132 286.398C200.962 285.522 202.781 285.506 206.752 286.296C208.867 286.717 211.44 286.5 213.252 285.749C215.089 284.987 219.789 284.604 225.379 284.762C239.725 285.167 257.884 279.224 266.736 271.227C271.175 267.216 275.793 259.107 277.727 251.925L278.9 247.569L282.618 251.2C286.589 255.078 288.797 255.686 290.677 253.421C291.586 252.326 291.135 248.923 288.659 238.171C286.109 227.098 285.395 221.541 285.09 210.377C284.714 196.601 284.128 194.366 281.184 195.495C280.497 195.759 279.348 197.392 278.631 199.124C274.769 208.448 258.991 225.355 245.64 234.478C240.573 237.94 238.752 239.776 238.752 241.424C238.752 244.385 240.58 244.907 244.252 242.994C247.235 241.441 258.947 240.7 260.236 241.984C260.596 242.343 259.911 244.914 258.714 247.698C256.304 253.3 249.231 260.532 243.144 263.619C238.278 266.086 227.953 269.365 227.253 268.666C226.966 268.378 227.262 264.723 227.911 260.544C228.842 254.56 228.822 251.431 227.818 245.815C225.442 232.518 214.172 214.735 203.458 207.378L197.665 203.4L206.458 199.195C215.954 194.655 229.252 184.092 229.252 181.09C229.252 177.428 225.266 178.689 218.724 184.421C214.337 188.265 208.648 191.8 201.062 195.395C190.773 200.272 189.445 200.655 184.562 200.155C178.011 199.484 171.89 201.047 168.399 204.282C165.801 206.69 164.833 211.145 166.662 212.275C168.101 213.165 170.621 211.818 171.255 209.822C172.549 205.745 183.47 204.592 191.585 207.676C202.882 211.968 211.441 220.875 218.641 235.831C222.104 243.024 222.249 243.761 222.189 253.831C222.138 262.481 221.731 265.212 219.878 269.331C215.443 279.189 207.725 283.963 204.52 278.831C203.833 277.731 202.549 276.831 201.666 276.831C200.784 276.831 199.247 277.731 198.252 278.831C195.495 281.877 190.034 281.544 188.528 278.238C186.9 274.667 188.965 271.216 194.753 267.83C197.438 266.26 199.639 264.093 200.216 262.452C201.712 258.199 198.556 248.023 191.982 235.898C188.83 230.086 185.519 223.531 184.622 221.331C183.539 218.671 182.366 217.331 181.122 217.331C177.177 217.331 178.369 221.974 186.254 237.327C191.466 247.475 194.128 253.847 194.479 257.016C194.994 261.67 194.972 261.712 191.147 263.31C185.037 265.863 168.364 267.325 161.564 265.904C153.363 264.19 149.947 261.458 147.094 254.331C142.34 242.458 134.238 234.241 124.407 231.321C118.043 229.431 102.432 229.306 100.916 231.133C100.322 231.849 100.093 233.418 100.407 234.62C100.831 236.242 100.04 237.743 97.3372 240.446C94.0432 243.74 93.3082 244.035 89.6262 243.541C82.4582 242.58 77.7522 236.353 77.7522 227.831C77.7522 216.375 86.8512 209.188 94.1172 214.904C99.1852 218.89 97.0302 224.705 88.8652 229.077C86.7412 230.214 85.7212 231.431 85.9392 232.566C86.4662 235.301 89.4152 235.219 94.3432 232.331C99.4502 229.338 102.743 224.706 102.748 220.509L102.752 217.687L108.502 218.352C117.696 219.416 125.822 221.76 131.948 225.114C136.929 227.842 137.722 228.697 138.268 231.923C139.471 239.047 146.428 242.302 155.2 239.846C157.649 239.16 160.432 237.737 161.385 236.684C162.955 234.949 162.971 234.622 161.559 233.21C160.148 231.798 159.711 231.801 156.926 233.241C152.934 235.306 146.395 235.311 144.685 233.25C142.553 230.681 144.941 220.194 150.238 208.86C152.806 203.367 154.755 198.083 154.569 197.117C154.348 195.973 152.966 195.156 150.602 194.772C145.723 193.979 138.005 188.881 132.1 182.551L127.252 177.353L133 176.628C143.127 175.351 145.676 171.967 138.915 168.774C134.825 166.843 133.787 165.271 133.767 160.981C133.756 158.492 134.626 156.757 137.152 154.231C140.102 151.281 141.207 150.831 145.495 150.831C150.823 150.831 160.002 153.601 165.579 156.892C169.643 159.289 172.024 158.77 171.572 155.585C171.355 154.059 169.699 152.524 166.444 150.831C161.956 148.498 161.68 148.131 162.296 145.331C164.364 135.949 164.669 133.784 164.708 128.217C164.767 120.029 163.311 112.621 160.173 105.139L157.576 98.9467L160.638 94.4968C164.681 88.6208 172.058 82.2148 176.453 80.7648C182.666 78.7138 187.605 80.1057 192.594 85.3117C199.768 92.7977 203.989 89.4268 197.062 81.7438C189.927 73.8308 182.119 72.0497 173.057 76.2687C165.951 79.5777 159.803 85.5136 153.376 95.2726C150.397 99.7966 146.098 105.091 143.824 107.037C135.728 113.967 122.562 115.767 117.061 110.697C111.537 105.605 110.157 95.9429 113.806 87.8989C115.498 84.1709 115.602 83.2518 114.462 82.1118C109.209 76.8598 103.625 94.9108 107.186 105.632C108.892 110.768 114.45 116.965 118.504 118.252C120.05 118.743 120.6 120.074 121.047 124.402C121.598 129.742 124.912 136.91 128.604 140.748C131.48 143.738 134.073 149.013 133.002 149.695C132.453 150.045 131.049 151.906 129.882 153.831C127.384 157.95 127.136 163.738 129.278 167.881C131.154 171.508 130.855 171.543 120.493 168.893C110.342 166.297 105.474 163.661 98.4432 156.956C93.5282 152.267 88.6832 145.831 90.0702 145.831C90.2732 145.831 93.0332 146.723 96.2032 147.814C102.879 150.111 113.65 151.341 115.575 150.027C116.489 149.402 116.691 148.023 116.229 145.559C115.726 142.879 114.837 141.695 112.649 140.788C108.794 139.191 99.6762 129.245 95.4362 122.01C89.4962 111.874 87.4962 104.63 87.5202 93.3307C87.5332 86.7867 88.0902 81.7757 89.1322 78.8307C90.0072 76.3557 90.7292 73.8228 90.7372 73.2018C90.7452 72.5808 87.9402 69.1887 84.5022 65.6647C74.9412 55.8627 65.7522 36.5566 65.7522 26.2726C65.7522 23.6116 66.0192 23.7587 72.5022 29.9777C76.2142 33.5397 81.2772 37.8287 83.7522 39.5107C89.5152 43.4247 102.237 49.8307 104.248 49.8307C106.374 49.8307 108.379 45.2968 106.999 43.6108C104.504 40.5628 97.7522 20.4927 97.7522 16.1247C97.7522 15.8047 99.3822 17.6788 101.375 20.2888C104.982 25.0118 115.08 32.3728 119.462 33.4728C121.591 34.0068 121.173 34.6718 113.846 42.4128C102.099 54.8228 96.1282 66.4948 101.958 65.6508C103.432 65.4368 105.341 63.3418 107.708 59.3398C112.122 51.8768 122.316 40.9608 128.69 36.8708C134.783 32.9608 142.498 29.9348 156.658 25.9018C179.908 19.2798 193.172 18.3157 213.752 21.7507C227.472 24.0417 234.748 26.4656 241.924 31.1376C252.07 37.7436 257.652 44.5488 265.196 59.5078C272.397 73.7848 273.861 82.9277 271.893 101.331L271.252 107.331L264.752 109.473C261.177 110.651 254.427 112.148 249.752 112.801C225.201 116.229 213.353 120.466 204.086 129.135C197.231 135.548 192.157 144.597 191.102 152.291C190.602 155.942 190.82 156.797 192.477 157.684C194.902 158.982 196.752 157.461 196.752 154.169C196.752 149.419 200.975 140.748 205.926 135.331C209.499 131.422 213.033 128.852 218.106 126.473C226.727 122.432 230.188 121.549 248.177 118.806C262.108 116.681 269.753 114.398 279.537 109.44L284.752 106.797V115.654C284.752 131.731 279.757 145.716 270.532 155.47C261.123 165.419 251.38 169.984 235.414 171.926C228.469 172.77 225.008 172.734 220.47 171.771C215.632 170.745 214.416 170.756 213.75 171.834C211.046 176.21 217.719 178.278 232.239 177.562C251.183 176.629 263.731 171.135 275.162 158.766C285.216 147.887 289.475 136.028 290.402 116.331C291.213 99.0987 288.832 94.4537 282.388 100.699C280.611 102.421 278.728 103.831 278.204 103.831C277.605 103.832 277.585 100.218 278.149 94.0807C278.866 86.2907 278.719 82.7227 277.417 76.3307C275.74 68.0907 268.419 51.5678 262.879 43.5158C249.275 23.7418 226.752 14.3867 192.752 14.3867C179.778 14.3867 176.936 14.7198 165.752 17.5488C150.973 21.2868 139.149 25.0848 132.743 28.1508L128.112 30.3666L122.55 28.3488C111.84 24.4628 103.729 16.7417 100.135 7.00971C97.3992 -0.400295 96.4982 -1.16618 93.2872 1.18182ZM46.4152 92.9457C47.4962 95.6477 49.0492 97.3528 51.4812 98.5068C57.8622 101.535 60.0602 97.8288 57.3782 88.5678C56.0402 83.9478 56.0382 83.5657 57.3592 85.3307C58.1832 86.4307 60.2622 90.1767 61.9792 93.6547C65.9312 101.664 66.5882 108.563 64.2292 117.279C61.5192 127.289 62.5772 133.491 69.8602 150.276C73.2142 158.006 78.5712 170.631 81.7652 178.331C84.9592 186.031 89.1622 195.819 91.1052 200.081C93.2362 204.755 94.1652 207.826 93.4452 207.817C88.9642 207.766 87.9192 206.533 84.6942 197.492C82.8962 192.453 78.3492 181.688 74.5892 173.569C70.8282 165.449 67.7522 158.633 67.7522 158.421C67.7522 156.262 55.8322 133.818 53.0492 130.738C48.7962 126.03 46.0612 124.479 37.1742 121.734C33.5932 120.628 29.3202 118.51 27.6782 117.027C25.0592 114.661 24.5282 113.21 23.3422 105.18C22.5972 100.141 20.8362 93.5098 19.4232 90.4228C17.1852 85.5348 17.0902 84.9418 18.6862 85.7958C21.6512 87.3828 29.6012 96.7247 33.1132 102.749C35.8242 107.398 36.8862 108.382 39.4682 108.638C42.1582 108.903 42.6492 108.573 43.1762 106.138C43.7432 103.52 42.6042 91.4707 41.1902 85.1247C40.5822 82.3957 40.6172 82.4099 42.7112 85.6909C43.8912 87.5379 45.5572 90.8027 46.4152 92.9457ZM156.213 110.081C158.605 115.842 159.404 134.602 157.523 140.831L156.164 145.331H147.373C136.832 145.331 135.682 144.496 139.162 139.369C142.043 135.123 143.206 128.896 142.494 121.525L141.992 116.331L147.622 111.126C150.718 108.263 153.521 105.901 153.85 105.876C154.179 105.851 155.243 107.743 156.213 110.081ZM271.462 119.087C268.115 121.24 262.12 123.325 251.575 126.005C243.271 128.114 233.599 131.258 230.079 132.991C219.331 138.282 208.912 151.593 211.085 157.256C212.257 160.31 214.714 158.787 217.245 153.438C222.187 142.991 231.938 136.51 248.459 132.692C270.452 127.608 283.012 121.296 280.196 116.741C279.216 115.154 276.398 115.911 271.462 119.087ZM136.752 125.325C136.752 132.45 135.489 136.831 133.436 136.831C131.692 136.831 127.131 128.468 126.233 123.626C125.614 120.288 125.78 119.87 127.899 119.406C131.808 118.55 135.208 118.208 136.002 118.589C136.415 118.787 136.752 121.818 136.752 125.325ZM281.176 228.331C282.059 233.831 283.061 239.681 283.403 241.331L284.026 244.331L281.575 242.081C280.226 240.843 278.659 239.831 278.093 239.831C276.083 239.831 274.054 243.417 272.313 250.045C270.244 257.923 266.319 264.534 261.556 268.167C251.266 276.016 222.252 283.167 222.252 277.855C222.252 277.043 223.377 276.07 224.752 275.693C243.625 270.512 248.034 268.518 254.978 262.023C262.439 255.044 267.668 244.615 266.346 239.35C265.837 237.322 264.93 236.872 260.151 236.275L254.553 235.576L262.498 228.265C266.868 224.244 272.2 218.642 274.348 215.816L278.252 210.679L278.911 214.505C279.274 216.609 280.293 222.831 281.176 228.331ZM126.559 238.456C132.913 241.542 138.433 248.089 141.744 256.464C143.02 259.691 144.399 262.714 144.809 263.182C145.219 263.65 145.204 265.255 144.776 266.748C143.81 270.117 145.291 280.038 147.356 284.032C148.72 286.67 148.727 287.204 147.412 288.672C146.596 289.584 145.44 292.992 144.843 296.244C144.247 299.496 143.62 302.296 143.45 302.467C143.279 302.637 141.528 302.332 139.559 301.788C137.12 301.115 135.814 300.088 135.461 298.565C134.325 293.665 124.618 269.395 117.396 253.398C113.192 244.086 109.752 236.036 109.752 235.511C109.752 233.8 121.05 235.779 126.559 238.456ZM112.148 255.604C115.707 263.403 120.964 275.982 123.832 283.557C126.7 291.133 129.486 297.894 130.022 298.581C130.732 299.492 130.439 299.831 128.942 299.831C127.682 299.831 126.62 298.961 126.197 297.581C124.965 293.561 108.148 258.499 104.518 252.381L100.987 246.432L103.049 243.644C104.182 242.11 105.238 240.984 105.394 241.14C105.551 241.297 108.59 247.805 112.148 255.604ZM167.998 307.309C169.54 309.324 169.569 309.738 168.248 310.834C167.425 311.517 166.752 313.496 166.752 315.232C166.752 318.261 163.209 326.246 156.766 337.735L153.735 343.14L145.745 343.235C138.294 343.325 137.754 343.191 137.753 341.255C137.752 338.505 141.173 335.427 147.002 332.934C152.013 330.79 152.651 329.822 150.325 327.892C147.941 325.913 147.432 315.335 149.197 304.448C150.077 299.013 151.046 294.164 151.349 293.673C151.937 292.723 165.067 303.477 167.998 307.309ZM140.002 307.899C142.504 309.039 142.631 309.485 142.942 318.211C143.197 325.33 142.95 327.55 141.817 328.331C135.918 332.395 132.598 336.561 132.06 340.574C131.526 344.549 131.145 344.981 125.872 347.567C119.985 350.455 104.752 364.598 104.752 367.177C104.752 367.952 105.429 369.148 106.257 369.835C107.525 370.888 108.887 369.882 114.897 363.452C124.469 353.211 131.82 349.475 143.37 348.983C153.611 348.546 157.141 350.048 164.948 358.164C170.666 364.109 173.752 365.118 173.752 361.045C173.752 359.162 165.051 349.384 161.049 346.77L158.846 345.331L164.796 334.841C168.642 328.06 171.153 322.28 171.898 318.495C172.992 312.934 173.18 312.666 175.651 313.15C177.081 313.43 179.597 313.104 181.241 312.426L184.229 311.192L189.604 320.245C195.673 330.467 196.689 332.704 197.776 338.246C198.486 341.865 198.28 342.41 195.064 345.443C191.373 348.925 190.957 352.054 194.106 352.661C195.129 352.858 196.577 352.098 197.39 350.937C200.272 346.822 207.777 343.362 213.738 343.399C219.776 343.437 223.713 345.102 229.241 349.956C232.868 353.14 235.752 353.253 235.752 350.209C235.752 348.122 228.655 341.448 224.689 339.805C217.361 336.769 224.388 330.946 236.574 329.955C243.325 329.406 244.252 329.094 244.252 327.368C244.252 324.344 238.844 323.205 231.596 324.702C228.333 325.376 225.064 326.158 224.331 326.439C223.34 326.819 222.812 325.213 222.273 320.183C221.605 313.944 221.721 313.274 223.761 311.623C226.752 309.2 238.411 309.175 245.252 311.576C257.741 315.959 268.529 333.89 269.062 351.148C269.305 359.032 271.358 359.886 275.024 353.629C278.703 347.352 281.296 345.353 285.613 345.466C294 345.686 302.391 352.971 309.357 366.081C312.962 372.865 313.208 373.877 313.195 381.831C313.184 388.482 312.693 391.406 310.936 395.276C305.932 406.302 299.407 411.721 290.685 412.097L285.266 412.331L285.583 409.095C286.091 403.91 283.896 395.45 280.76 390.505C277.439 385.268 270.901 380.453 268.409 381.409C265.624 382.478 266.554 385.368 270.502 387.913C275.344 391.035 279.752 399.484 279.752 405.644C279.752 415.029 275.206 423.028 267.695 426.86C262.215 429.656 251.341 429.577 245.417 426.699L241.028 424.567L240.425 416.751C239.694 407.269 237.666 401.831 234.862 401.831C231.825 401.831 231.441 403.449 233.315 408.356C234.647 411.845 234.917 414.877 234.54 422.095C233.796 436.319 229.359 444.37 219.372 449.621C214.892 451.976 213.126 452.308 205.252 452.278C198.325 452.252 194.945 451.726 190.578 449.994C183.748 447.286 176.243 440.502 177.315 438.006C178.927 434.255 178.939 431.117 177.345 430.505C174.968 429.593 172.752 430.79 172.752 432.986C172.752 434.063 169.519 438.161 165.491 442.189C153.488 454.191 143.004 457.78 129.73 454.428C122.076 452.495 116.564 448.918 111.981 442.909C109.576 439.755 108.731 437.701 108.95 435.533C109.213 432.914 109.833 432.359 113.783 431.213C118.938 429.717 124.329 424.778 123.413 422.391C122.543 420.122 119.962 420.477 116.57 423.331C112.379 426.857 104.145 426.828 96.9862 423.26C88.3742 418.969 85.5532 412.058 88.1992 401.732C90.8932 391.214 94.2602 386.155 103.468 378.789C105.371 377.266 103.812 374.831 100.932 374.831C96.4732 374.831 88.4782 384.326 84.7042 394.105C81.8792 401.424 81.5782 403.177 81.9712 410.006L82.4132 417.68L78.3512 419.506C73.6392 421.623 64.2422 421.813 58.4772 419.907C53.7892 418.357 49.1992 414.573 47.0222 410.462C44.5792 405.85 44.6922 393.507 47.2242 388.374C49.3852 383.993 56.2582 376.831 58.3012 376.831C60.1732 376.831 62.7532 373.995 62.1942 372.552C61.9342 371.88 60.1712 370.273 58.2762 368.98C52.1692 364.81 49.0142 354.532 51.6852 347.507C54.5042 340.092 65.3392 332.859 73.6572 332.841C77.4742 332.832 78.5512 333.346 81.7322 336.689C83.7632 338.824 86.4232 343.277 87.6872 346.658C90.1762 353.314 91.9012 355.371 94.2392 354.474C96.2782 353.692 96.1442 351.26 93.6772 344.238C86.4912 323.784 104.26 304.849 129.32 306.255C133.757 306.504 138.564 307.244 140.002 307.899Z" fill="#FFC4C4"/>
</svg>
