<svg width="323" height="348" viewBox="0 0 323 348" fill="none" xmlns="http://www.w3.org/2000/svg">
<path fill-rule="evenodd" clip-rule="evenodd" d="M167.208 2.61108C166.454 5.61408 167.745 70.23 168.694 77C169.202 80.623 169.715 81.5 171.325 81.5C173.28 81.5 173.318 80.936 173.016 56.5C172.757 35.556 172.107 3.486 171.886 0.75C171.852 0.338 170.934 0 169.844 0C168.543 0 167.638 0.896084 167.208 2.61108ZM83.78 39.554C82.847 40.678 82.9168 41.4801 84.1008 43.2451C89.3598 51.0841 118.065 81.984 122.096 84.144C124.217 85.28 125.825 84.4789 125.825 82.2839C125.825 81.4059 121.931 76.82 117.172 72.093C112.412 67.367 103.871 58.039 98.1919 51.365C92.5129 44.69 87.2149 38.9801 86.4189 38.6741C85.6229 38.3691 84.435 38.765 83.78 39.554ZM246.611 45.75C244.74 48.363 237.862 58.6 231.328 68.5C219.632 86.218 217.483 91.0749 221.026 91.7859C222.284 92.0389 226.876 85.821 238.676 67.885C247.448 54.551 254.397 43.047 254.118 42.321C253.097 39.66 249.94 41.102 246.611 45.75ZM134.075 43.7029C131.704 44.5819 132.842 49.185 138.309 60.824C146.846 78.999 148.225 81.5 149.716 81.5C153.665 81.5 152.955 78.3861 145.268 61.9961C137.134 44.6521 136.095 42.9539 134.075 43.7029ZM205.068 48.25C202.951 50.892 186.825 86.3809 186.825 88.3989C186.825 90.3609 189.955 91.3241 191.333 89.7871C191.967 89.0791 195.106 82.65 198.309 75.5C201.511 68.35 205.573 59.575 207.336 56C210.705 49.168 210.833 47 207.864 47C206.877 47 205.619 47.563 205.068 48.25ZM219.325 102.664C213.275 102.796 179.075 103.39 143.325 103.985C107.575 104.58 77.1128 105.307 75.6318 105.6C73.6708 105.989 70.876 108.86 65.355 116.153C61.185 121.664 52.9471 132.465 47.0491 140.157C41.1511 147.848 35.6939 155.03 34.9219 156.118C33.6799 157.867 33.779 158.446 35.779 161.152C37.765 163.837 106.376 247.23 152.773 303.35C161.8 314.268 169.751 323.418 170.444 323.684C172.682 324.543 174.478 322.735 185.529 308.5C211.822 274.631 246.233 230.249 267.326 203C298.127 163.211 304.718 155 305.857 155C306.389 155 306.825 154.078 306.825 152.951C306.825 151.192 296.971 139.758 266.144 105.75L262.744 102L246.535 102.212C237.619 102.329 225.375 102.532 219.325 102.664ZM249.733 115.75C245.642 120.012 237.243 128.837 231.069 135.361C224.289 142.525 219.309 147.016 218.492 146.702C217.748 146.417 211.556 141.75 204.732 136.331C197.908 130.912 187.419 122.658 181.422 117.989L170.52 109.5L184.922 108.958C192.844 108.66 212.341 108.322 228.248 108.208L257.172 108L249.733 115.75ZM162.759 109.75C162.7 110.427 114.331 151.115 112.797 151.779C111.834 152.195 77.6349 111.856 78.3479 111.144C78.6849 110.807 93.6671 110.269 111.643 109.948C129.618 109.627 148.487 109.282 153.575 109.182C158.663 109.082 162.795 109.338 162.759 109.75ZM280.236 129.968C293.739 144.953 296.542 148.556 295.101 149.072C292.132 150.136 225.825 151.163 225.825 150.145C225.825 148.842 261.939 110.863 262.847 111.212C263.258 111.371 271.083 119.811 280.236 129.968ZM197.061 137.5L213.629 150.5L201.977 151.114C195.569 151.452 185.332 151.79 179.23 151.864L168.135 152L167.451 135.318C167.035 125.147 166.316 118.092 165.611 117.242C164.723 116.172 164.773 115.65 165.828 114.998C167.283 114.099 166.708 113.685 197.061 137.5ZM89.3389 134.144C97.8809 144.123 104.671 152.487 104.428 152.731C103.944 153.214 44.534 154.9 43.991 154.445C43.494 154.029 72.2029 116.126 73.0669 116.058C73.4739 116.026 80.7969 124.165 89.3389 134.144ZM161.218 121.582C161.552 122.452 161.825 129.585 161.825 137.433V151.703L142.222 152.415C131.441 152.807 122.384 152.892 122.097 152.605C121.809 152.317 123.062 150.826 124.882 149.291C126.701 147.756 135.195 140.564 143.757 133.309C152.32 126.054 159.614 120.091 159.968 120.059C160.322 120.026 160.884 120.712 161.218 121.582ZM296.218 156.25C295.819 156.938 292.496 161.325 288.834 166C285.173 170.675 272.782 186.65 261.3 201.5C249.817 216.35 233.425 237.516 224.874 248.536C216.322 259.555 202.8 276.98 194.825 287.257C186.85 297.534 180.175 305.507 179.993 304.974C179.81 304.441 180.556 301.192 181.652 297.753C182.747 294.314 185.982 283.625 188.841 274C191.7 264.375 195.75 250.875 197.84 244C199.931 237.125 204.879 220.7 208.836 207.5C219.091 173.289 223.97 157.575 224.514 157C224.923 156.568 243.058 156.041 286.134 155.209C294.546 155.046 296.782 155.277 296.218 156.25ZM217.475 158.75C216.586 161.959 205.676 198.328 201.8 211C199.698 217.875 197.54 225.075 197.005 227C196.471 228.925 194.396 235.9 192.395 242.5C190.394 249.1 187.608 258.325 186.204 263C184.8 267.675 181.922 277.125 179.809 284C177.696 290.875 175.456 298.458 174.83 300.851C174.205 303.244 173.52 305.028 173.308 304.816C173.096 304.604 172.452 289.146 171.878 270.465C170.132 213.737 168.872 178.004 168.257 167.808L167.673 158.116L172.499 157.738C175.153 157.53 186.468 157.279 197.642 157.18C216.559 157.012 217.926 157.121 217.475 158.75ZM163.657 191.75C164.305 210.313 165.287 241.475 165.841 261C166.394 280.525 167.016 298.452 167.223 300.837C167.43 303.222 167.266 304.797 166.859 304.337C166.453 303.877 163.069 296.075 159.341 287C155.613 277.925 151.514 268.025 150.232 265C148.95 261.975 143.818 249.6 138.827 237.5C133.837 225.4 128.891 213.475 127.837 211C119.765 192.057 106.825 160.408 106.825 159.611C106.825 159.134 108.513 159.013 110.575 159.34C112.638 159.668 115 159.508 115.825 158.984C116.66 158.453 127.339 158.024 139.902 158.015L162.48 158L163.657 191.75ZM101.765 163.25C104.871 170.475 110.375 183.712 118.291 203C122.467 213.175 126.759 223.525 127.83 226C131.258 233.922 145.984 269.374 147.353 273C148.08 274.925 150.317 280.325 152.325 285C154.333 289.675 156.626 295.3 157.42 297.5L158.864 301.5L154.661 296.626C152.35 293.946 147.053 287.592 142.892 282.506C138.73 277.421 114.513 248.009 89.0749 217.148C63.6379 186.287 42.8249 160.815 42.8249 160.544C42.8249 160.092 50.8158 159.854 87.1308 159.223L99.937 159L101.765 163.25ZM30.0898 206.513C14.5658 209.705 10.393 211.2 10.022 213.701C9.65296 216.196 12.0419 217.284 15.0869 216.008C18.8209 214.443 40.3219 210 44.1599 210C48.1759 210 50.6789 207.254 48.5779 205.153C46.9779 203.553 43.1028 203.838 30.0898 206.513ZM281.075 219.737C278.855 220.5 279.692 223.999 282.336 225.004C285.675 226.274 299.723 234.399 307.825 239.748C314.458 244.127 318.054 244.818 318.624 241.823C318.959 240.065 309.602 233.466 294.825 225.039C286.842 220.487 283.096 219.043 281.075 219.737ZM42.9451 236.579C33.9361 241.765 21.7861 248.547 15.9451 251.649C2.52505 258.778 -0.35908 260.807 0.0339201 262.844C0.80092 266.827 2.20094 266.17 47.3249 240.669C63.2939 231.644 65.0679 230.386 64.4819 228.5C63.6239 225.743 58.3021 227.739 42.9451 236.579ZM267.172 240.537C266.28 242.864 268.534 244.856 291.303 261.867C315.287 279.785 319.292 282.419 321.35 281.629C323.836 280.675 322.993 277.53 319.735 275.606C315.556 273.137 273.094 241.245 272.321 239.994C271.367 238.45 267.83 238.824 267.172 240.537ZM66.7729 263.606C53.3489 272.525 50.3088 275.213 51.1528 277.413C52.1678 280.056 54.372 279.264 63.218 273.075C67.876 269.816 74.1928 265.547 77.2558 263.587C80.3188 261.628 82.8249 259.659 82.8249 259.212C82.8249 258.033 80.608 256 79.323 256C78.717 256 73.0689 259.423 66.7729 263.606ZM250.429 271.59C250.093 272.465 250.064 273.578 250.365 274.064C251.84 276.451 273.242 293 274.854 293C277.153 293 278.193 291.462 277.129 289.636C275.791 287.342 254.019 270 252.476 270C251.686 270 250.764 270.716 250.429 271.59ZM89.6369 291.25C64.9469 317.585 62.3499 321.113 66.4809 322.698C67.6049 323.13 69.094 322.236 71.114 319.917C72.751 318.038 80.893 309.132 89.208 300.126C104.056 284.043 107.358 279 103.04 279C101.878 279 96.5909 283.832 89.6369 291.25ZM224.825 296.367C224.825 298.726 226.582 301.099 244.259 322.622C258.951 340.51 265.902 348 267.808 348C271.603 348 270.701 344.993 264.889 338.272C256.991 329.138 234.901 302.407 231.404 297.75C228.147 293.413 224.825 292.714 224.825 296.367Z" fill="#FFC4C4"/>
</svg>
