<svg width="533" height="356" viewBox="0 0 533 356" fill="none" xmlns="http://www.w3.org/2000/svg">
<path fill-rule="evenodd" clip-rule="evenodd" d="M301.446 39.904L277.617 79.809L256.103 62.694C244.271 53.281 234.367 44.999 234.095 44.29C233.514 42.775 230.285 42.626 226.213 43.926C224.619 44.435 219.039 46.01 213.814 47.425C208.589 48.84 198.464 51.597 191.314 53.552C184.164 55.507 169.989 59.379 159.814 62.156C149.639 64.934 139.11 67.812 136.415 68.552C133.721 69.292 131.083 70.331 130.552 70.862C129.004 72.41 128.65 79.677 129.534 91.75C129.987 97.938 130.224 103 130.062 103C129.899 103 126.514 100.512 122.54 97.472C114.249 91.129 98.9512 83.387 87.3142 79.646C67.4962 73.273 46.3472 71.209 38.3142 74.863C30.2612 78.527 30.1562 80.658 37.2862 95.708C43.1552 108.1 48.0952 116.125 54.5032 123.678L59.7432 129.857L57.0293 130.376C55.5363 130.661 51.3892 131.186 47.8142 131.542C35.0552 132.813 18.7483 140.095 8.42434 149.132C6.14234 151.13 3.38918 152.935 2.30618 153.144C-1.50082 153.877 -0.581737 157.025 4.96926 162.269C23.8443 180.098 60.5052 193.505 81.5642 190.279L87.8142 189.322V199.002C87.8142 210.046 90.7701 226.101 94.0731 233C97.0901 239.3 113.655 255.535 122.991 261.341C139.533 271.629 165.881 279.707 193.814 283.056C199.039 283.682 203.47 284.344 203.66 284.527C203.851 284.709 203.288 288.017 202.41 291.877C199.575 304.344 200.91 325.211 205.459 339.5C208.396 348.727 212.133 356 213.937 356C217.523 356 235.01 347.998 243.474 342.485C255.96 334.35 263.027 328.774 272.984 319.204L281.653 310.87L285.97 315.553C288.344 318.129 293.07 322.223 296.473 324.651C304.433 330.331 323.867 339.568 331.995 341.535C335.47 342.376 339.159 343.54 340.191 344.12C342.662 345.509 344.076 343.961 346.195 337.545C348.952 329.199 350.221 316.406 349.153 307.721C348.627 303.447 348.349 299.798 348.534 299.613C348.72 299.428 351.446 299.886 354.593 300.632C372.51 304.877 403.39 306.371 413.846 303.497C416.853 302.671 421.195 301.806 423.495 301.575C433.208 300.599 441.786 294.18 453.902 278.82C463.501 266.651 465.697 261.594 466.47 249.869L467.088 240.5L480.701 240.426C492.322 240.364 495.153 240.025 500.05 238.11C508.172 234.934 516.475 229.112 524.739 220.798C532.261 213.232 533.74 210.327 532.007 206.524C529.363 200.722 501.865 185.568 486.635 181.519L478.955 179.478L484.361 172.989C487.334 169.42 491.333 163.35 493.248 159.5C496.453 153.056 501.641 135.38 503.289 125.289C503.943 121.284 503.838 121.04 501.145 120.289C499.588 119.855 491.564 119.542 483.314 119.593C468.191 119.687 455.802 121.568 445.05 125.401L440.786 126.921L441.949 124.711C442.589 123.495 443.87 121.522 444.796 120.328C446.4 118.258 446.147 116.664 439.477 86.749C432.897 57.237 432.316 55.251 429.844 53.832C428.397 53.001 418.236 47.69 407.263 42.028C396.291 36.367 385.964 30.956 384.314 30.003C382.664 29.05 372.764 23.862 362.314 18.473C351.864 13.083 339.772 6.72198 335.442 4.33698C331.113 1.95198 327.054 0 326.423 0C325.792 0 314.552 17.957 301.446 39.904ZM347.398 17.081C354.777 20.975 360.814 24.304 360.814 24.478C360.814 24.652 359.368 24.729 357.6 24.647C355.212 24.538 354.29 24.972 354.01 26.339C353.333 29.645 361.018 36 365.693 36C368.379 36 371.077 33.114 370.49 30.868C370.113 29.429 370.366 29.217 371.662 29.883C372.571 30.35 385.517 37.103 400.432 44.89L427.549 59.048L429.648 68.774C430.802 74.123 433.536 86.363 435.723 95.974C437.91 105.584 439.545 113.602 439.356 113.791C439.167 113.981 435.255 112.144 430.663 109.71C426.071 107.276 414.664 101.335 405.314 96.509C395.964 91.683 381.953 84.419 374.179 80.367C366.404 76.315 359.303 73 358.397 73C356.162 73 355.218 75.855 356.927 77.445C357.69 78.155 367.764 83.582 379.314 89.504C390.864 95.427 403.914 102.174 408.314 104.498C412.714 106.821 421.039 111.106 426.814 114.02C432.589 116.934 437.47 119.44 437.661 119.59C437.852 119.739 431.867 131.433 424.361 145.576C411.004 170.742 409.216 175.5 413.117 175.5C414.937 175.5 415.876 173.917 430.604 146L436.672 134.5L445.993 131.306C451.119 129.55 459.589 127.342 464.814 126.401C475.366 124.5 495.199 123.938 496.615 125.5C497.995 127.022 492.377 148.125 488.399 156.359C481.999 169.61 465.083 186.349 450.412 193.949L443.91 197.318L438.612 193.271C413.489 174.08 386.115 164.965 353.525 164.938C340.02 164.926 311.912 167.12 302.045 168.955C299.698 169.392 297.614 169.468 297.415 169.124C297.216 168.781 296.745 164 296.368 158.5C295.991 153 295.299 144.675 294.83 140C294.361 135.325 293.17 122.139 292.184 110.697L290.391 89.895L286.151 86.42L281.911 82.946L284.113 79.693C285.323 77.904 295.081 61.716 305.797 43.72C316.512 25.724 325.572 11 325.93 11C326.288 11 326.801 12.013 327.071 13.25C327.34 14.487 329.879 25.175 332.713 37C337.973 58.943 339.583 62.659 342.548 59.694C343.648 58.594 342.931 54.476 338.32 35.435C335.265 22.821 332.566 11.938 332.321 11.25C331.528 9.02 333.764 9.88499 347.398 17.081ZM310.403 48.077C305.557 53.836 307.81 61 314.468 61C318.118 61 321.533 57.657 322.421 53.214C323.975 45.447 315.621 41.876 310.403 48.077ZM376.227 49.493C374.226 52.546 374.954 56.165 378.508 60.835C386.199 70.942 399.545 70.199 397.272 59.791C395.133 49.995 380.568 42.868 376.227 49.493ZM245.471 61.556C254.185 68.462 265.952 77.736 271.621 82.165C277.29 86.595 281.79 90.341 281.621 90.489C281.349 90.727 215.304 110.227 200.564 114.42C196.022 115.712 194.814 116.477 194.814 118.059C194.814 121.328 197.439 121.422 207.134 118.502C212.183 116.981 222.164 114.038 229.314 111.963C236.464 109.888 247.939 106.53 254.814 104.501C280.677 96.868 283.973 95.98 284.733 96.45C285.162 96.715 285.797 100.434 286.144 104.716C286.492 108.997 287.905 125.517 289.285 141.427C290.664 157.337 291.68 170.467 291.542 170.605C291.405 170.743 286.122 171.572 279.803 172.448C273.484 173.324 259.314 175.809 248.314 177.97C230.57 181.456 200.143 185.719 199.346 184.831C199.182 184.649 198.511 172.58 197.855 158.012C196.713 132.688 196.316 130.074 193.599 130.015C191.602 129.973 191.182 134.811 191.909 149.5C192.345 158.3 192.839 169.854 193.007 175.176L193.314 184.853L183.906 185.557C173.93 186.304 146.77 185.588 143.18 184.484C141.703 184.03 141.198 183.247 141.54 181.941C141.811 180.903 141.548 174.08 140.955 166.777C139.949 154.389 138.607 137.074 135.431 95.5C134.717 86.15 134.286 78.312 134.473 78.083C134.815 77.665 148.217 86.703 167.814 100.566C183.86 111.918 186.583 113.437 188.312 112.001C189.317 111.168 189.489 110.261 188.864 109.094C188.365 108.161 177.145 99.995 163.931 90.949C150.717 81.902 139.885 74.238 139.86 73.918C139.835 73.599 141.726 72.867 144.064 72.292C146.402 71.718 156.864 68.9 167.314 66.03C177.764 63.16 193.739 58.783 202.814 56.302C211.889 53.821 221.339 51.204 223.814 50.485C226.289 49.767 228.61 49.139 228.971 49.089C229.333 49.04 236.758 54.65 245.471 61.556ZM171.737 67.923C168.318 71.343 168.026 74.212 170.814 77C173.735 79.921 181.149 79.788 183.257 76.777C185.646 73.368 185.211 69.458 182.179 67.073C178.528 64.201 175.188 64.473 171.737 67.923ZM206.314 66.093C200.794 69.282 200.476 73.311 205.37 78.054C208.445 81.034 209.591 81.5 213.85 81.5C218.065 81.5 219.24 81.035 221.998 78.278C224.793 75.482 225.094 74.702 224.267 72.38C223.743 70.908 222.183 68.862 220.8 67.833C217.713 65.535 209.075 64.498 206.314 66.093ZM244.159 72.451C235.927 76.033 240.696 84 251.073 84C257.256 84 259.274 82.266 258.415 77.689C257.256 71.509 251.33 69.331 244.159 72.451ZM339.446 72.511C338.615 73.342 335.582 77.954 332.706 82.761C329.829 87.567 322.56 99.28 316.553 108.788C310.247 118.767 305.866 126.694 306.19 127.538C306.499 128.342 307.62 129 308.683 129C310.566 129 320.407 114.432 333.34 92.5C335.935 88.1 339.625 82.133 341.539 79.241C344.964 74.067 345.291 71 342.417 71C341.614 71 340.277 71.68 339.446 72.511ZM69.5293 80.918C92.5503 85.429 115.403 96.602 127.693 109.355C130.715 112.491 131.117 113.579 131.512 119.68L131.953 126.5L125.383 129.705C120.7 131.99 118.814 132.516 118.814 131.536C118.814 128.297 83.2171 103.055 73.0271 99.068C70.1191 97.931 66.1503 97 64.2073 97C61.1253 97 60.7162 97.284 60.9942 99.23C61.2062 100.708 62.3252 101.76 64.3142 102.352C73.0702 104.955 76.8603 106.846 87.1013 113.722C93.2683 117.863 102.364 124.398 107.314 128.245L116.314 135.239L109.392 142.119C103.324 148.15 102.276 148.828 100.892 147.616C100.024 146.855 95.9391 144.774 91.8141 142.991C76.4031 136.331 60.7341 124.173 53.1621 113C47.4941 104.637 37.8172 84.911 37.8152 81.718C37.8132 78.609 55.4743 78.163 69.5293 80.918ZM417.597 83.578C416.334 86.349 417.122 88.53 420.053 90.379C422.532 91.943 426.814 89.598 426.814 86.676C426.814 81.358 419.698 78.965 417.597 83.578ZM301.47 93.112C299.047 94.547 296.77 100.115 297.486 102.853C298.934 108.389 307.211 105.73 308.409 99.344C309.502 93.518 306.038 90.406 301.47 93.112ZM151.314 117.161C147.711 119.142 145.859 122.359 145.836 126.677C145.818 130.014 146.344 131.272 148.449 132.927C154.325 137.549 160.026 133.995 161.224 124.964C161.869 120.106 161.713 119.337 159.769 117.763C157.302 115.765 154.248 115.547 151.314 117.161ZM366.314 125.155C363.051 126.939 361.814 129.153 361.814 133.206C361.814 136.145 362.566 137.827 365.064 140.48C369.773 145.479 373.019 145.949 376.789 142.179C380.356 138.612 380.508 136.824 377.773 130.64C374.994 124.358 371.142 122.514 366.314 125.155ZM132.827 134.75C132.835 135.712 133.507 144.6 134.321 154.5C135.933 174.106 136.174 182 135.16 182C134.8 182 131.688 180.424 128.243 178.497C118.568 173.087 109.11 161.468 108.635 154.411C108.4 150.921 108.89 150.196 115.848 143.745C125.928 134.4 132.797 130.762 132.827 134.75ZM73.6162 139.736C76.5332 141.628 83.1251 145.169 88.2661 147.604C93.4061 150.039 97.8462 152.641 98.1322 153.385C98.4172 154.13 97.8351 156.081 96.8371 157.722L95.0231 160.704L88.6692 159.285C85.1742 158.505 76.6892 157.634 69.8142 157.351C55.3462 156.756 49.5563 158.044 48.9763 161.986C48.6463 164.226 48.7663 164.26 53.9763 163.39C61.0363 162.213 73.7621 162.444 82.3711 163.907C93.3281 165.769 92.8031 165.387 91.2951 170.396C90.5791 172.777 89.6902 177.15 89.3202 180.113L88.6482 185.5L77.9812 185.222C60.3072 184.76 44.7882 180.455 27.8142 171.305C18.6252 166.351 8.81423 159.191 8.81423 157.437C8.81423 155.699 12.6862 152.548 21.9602 146.738C33.8582 139.285 45.4062 136.169 60.8142 136.254C67.6312 136.292 68.7972 136.609 73.6162 139.736ZM239.924 144.396C231.138 149.265 234.563 163 244.563 163C250.311 163 252.818 159.936 252.799 152.936C252.782 146.921 252.327 145.833 249.13 144.15C246.287 142.653 242.904 142.744 239.924 144.396ZM458.688 147.362C444.579 153.165 421.814 170.578 421.814 175.566C421.814 178.877 424.943 178.153 429.646 173.754C439.692 164.357 454.764 154.599 464.197 151.385C469.338 149.634 470.099 148.906 469.21 146.59C468.373 144.408 465.327 144.631 458.688 147.362ZM163.143 155.455C157.619 157.863 156.164 163.632 159.887 168.365C161.568 170.503 162.795 171 166.387 171C171.618 171 174.816 168.437 174.81 164.25C174.806 161.313 171.462 155 169.91 155C169.397 155 168.378 154.791 167.646 154.536C166.913 154.282 164.887 154.695 163.143 155.455ZM112.922 173.403C115.304 176.099 119.653 179.841 122.587 181.718C136.549 190.649 149.741 192.614 185.068 191.021C215.2 189.662 228.922 188.003 254.33 182.647C260.921 181.257 272.839 179.184 280.814 178.039C288.789 176.895 299.139 175.304 303.814 174.504C315.21 172.553 343.876 169.996 354.08 170.018C385.41 170.088 420.088 183.293 441.47 203.295C455.589 216.503 461.424 230.402 460.615 248.904C460.134 259.908 458.727 263.401 450.509 274C443.19 283.439 437.912 288.862 432.868 292.124C427.265 295.748 426.665 295.725 427.988 291.93C430.495 284.74 426.924 276.604 418.887 271.188C403.865 261.065 379.554 258.29 352.314 263.587C334.088 267.131 315.458 269.611 293.238 271.452C282.746 272.321 265.646 274.127 255.238 275.466C218.794 280.152 200.682 279.799 173.815 273.88C154.495 269.624 147.736 267.448 135.314 261.486C119.832 254.055 102.546 238.784 98.4091 228.882C96.4041 224.082 92.8141 204.903 92.8141 198.989C92.8141 186.892 97.1941 167.76 101.481 161.135L103.011 158.769L105.801 163.635C107.336 166.311 110.54 170.706 112.922 173.403ZM476.314 185C476.654 185.55 478.427 186 480.254 186C489.344 186 526.814 204.838 526.814 209.409C526.814 213.09 507.496 229.063 499.11 232.316C492.441 234.903 482.009 236.202 473.702 235.479L466.091 234.816L464.423 228.816C463.505 225.516 461.533 220.495 460.04 217.658C458.547 214.821 457.191 212.218 457.028 211.873C456.864 211.529 465.46 210.92 476.131 210.52C486.802 210.119 496.09 209.447 496.772 209.026C497.453 208.605 497.846 207.414 497.646 206.38C497.322 204.712 496.323 204.505 488.797 204.544C484.131 204.568 474.125 204.974 466.561 205.446C453.986 206.231 452.637 206.15 450.811 204.497C449.713 203.503 448.814 202.35 448.814 201.935C448.814 201.52 452.076 199.369 456.064 197.156C460.052 194.942 465.786 191.076 468.807 188.565C474.61 183.742 475.326 183.402 476.314 185ZM364.852 187.454C362.502 190.286 364.361 192 369.783 192C373.496 192 374.814 192.377 374.814 193.44C374.814 195.106 391.203 219.926 393.447 221.659C394.766 222.678 394.696 223.311 392.871 226.889C391.728 229.128 390.276 234.288 389.644 238.354L388.495 245.748L382.432 246.382C376.057 247.048 373.142 248.807 374.133 251.389C374.613 252.64 375.919 252.829 381.02 252.382C385.447 251.994 388.612 252.301 391.69 253.415C394.096 254.287 397.84 255 400.009 255C403.506 255 403.917 254.75 403.634 252.794C403.388 251.1 402.269 250.332 398.814 249.488L394.314 248.389L394.622 243.945C395.636 229.315 405.324 214.307 417.249 208.89C422.299 206.596 425.685 206.521 428.702 208.634C430.775 210.086 430.966 210.8 430.406 215.02C429.707 220.29 431.435 222.237 434.284 219.388C437.716 215.955 437.375 209.332 433.555 205.239C426.66 197.853 412.695 201.581 401.903 213.69C399.104 216.83 396.814 218.901 396.814 218.291C396.814 217.682 393.214 211.87 388.814 205.376C380.695 193.393 379.361 190.413 382.564 191.41C385 192.168 387.081 190.625 386.651 188.38C386.331 186.711 385.157 186.468 376.202 186.217C368.144 185.99 365.86 186.239 364.852 187.454ZM341.557 189.084C340.591 189.647 338.844 191.982 337.675 194.273C336.506 196.564 334.597 199.738 333.432 201.326C330.877 204.809 315.23 217.083 314.401 216.254C314.078 215.931 313.814 212.15 313.814 207.852C313.814 200.132 313.847 200.031 316.564 199.469C324.258 197.876 325.314 197.393 325.314 195.463C325.314 193.772 324.69 193.529 320.814 193.709C318.339 193.824 312.293 194.076 307.378 194.268C298.31 194.623 296.372 195.557 298.752 198.425C299.371 199.172 301.776 200.072 304.096 200.425L308.314 201.068L308.547 209.284C308.675 213.803 309.477 223.258 310.328 230.295C311.891 243.209 311.775 245 309.377 245C308.652 245 307.458 245.724 306.724 246.608C304.745 248.993 307.976 251.178 311.645 249.937C313.113 249.44 317.914 248.689 322.314 248.267C329.392 247.588 330.314 247.269 330.314 245.5C330.314 243.756 329.481 243.436 323.814 243L317.314 242.5L316.663 237C315.341 225.83 315.666 223.742 319.181 220.831L322.404 218.161L329.859 219.908C333.959 220.869 338.698 222.379 340.389 223.263C343.967 225.133 350.023 231.571 352.242 235.861C354.376 239.988 359.343 243.271 363.639 243.396C369.232 243.557 369.115 240.622 363.422 237.946C360.337 236.496 358.115 234.496 356.436 231.66C351.217 222.843 342.027 216.209 332.639 214.482L328.965 213.806L334.139 208.625C336.985 205.776 340.436 201.325 341.807 198.733C343.951 194.68 344.858 193.912 348.307 193.233C351.384 192.627 352.388 191.929 352.634 190.222C352.926 188.186 352.55 188.003 348.134 188.03C345.483 188.047 342.523 188.521 341.557 189.084ZM282.893 201.25C281.898 203.587 280.782 206.365 280.414 207.423C279.77 209.271 279.685 209.261 278.218 207.167C276.023 204.032 271.537 202 266.814 202C254 202 241.814 217.181 241.814 233.144C241.814 243.067 248.539 254.316 256.446 257.62C261.802 259.858 271.746 259.398 276.907 256.674C282.274 253.841 287.814 246.911 287.814 243.029C287.814 238.805 285.149 238.403 282.79 242.271C281.707 244.047 280.82 245.835 280.818 246.244C280.809 247.983 272.3 252.955 268.306 253.553C255.918 255.411 246.971 245.024 248.044 230.03C248.617 222.021 251.689 216.265 258.117 211.156C266.038 204.862 271.597 206.143 276.134 215.307C278.423 219.931 279.433 221.051 281.092 220.807C282.78 220.558 283.512 219.132 284.94 213.308C285.91 209.352 287.4 204.768 288.251 203.121C290.072 199.601 289.391 197 286.651 197C285.308 197 284.139 198.322 282.893 201.25ZM119.779 199.542C118.034 201.644 119.684 203.176 125.096 204.482L129.314 205.5L129.322 222.25L129.33 239L123.822 239.015C117.487 239.033 115.467 239.962 115.98 242.62C116.297 244.259 117.305 244.502 123.829 244.516C131.579 244.532 135.32 245.881 148.721 253.496C154.65 256.864 160.067 256.838 163.481 253.424C165.702 251.203 165.987 250.224 165.547 246.321C164.981 241.3 162.821 238.399 160.355 239.346C159.044 239.849 158.862 240.88 159.386 244.834C160.213 251.062 158.386 252.069 152.233 248.78C149.889 247.526 145.475 245.176 142.425 243.558C139.376 241.94 136.58 239.915 136.213 239.058C135.244 236.797 134.457 215.719 135.194 211.788C135.79 208.61 136.005 208.465 139.623 208.81C142.223 209.058 143.842 208.671 144.742 207.587C146.553 205.404 144.493 203 140.811 203C139.293 203 135.063 201.875 131.41 200.5C123.698 197.597 121.541 197.419 119.779 199.542ZM176.61 210.157C173.623 211.238 172.016 214.602 173.688 216.274C174.45 217.036 175.524 216.997 177.41 216.138C180.903 214.547 183.968 216.495 187.051 222.265C189.106 226.11 189.292 227.667 189.079 239.189C188.856 251.26 188.722 252.001 186.329 254.394C183.481 257.242 183.034 260.763 185.405 261.673C186.404 262.057 187.951 261.253 189.567 259.51C192.006 256.88 192.479 256.766 198.726 257.294C202.655 257.626 208.503 259.129 213.217 261.02C222.259 264.646 225.638 264.501 230.028 260.295C233.254 257.204 233.808 253 230.988 253C229.984 253 228.106 254.125 226.814 255.5C225.522 256.875 223.981 258.001 223.39 258.001C222.65 258.002 222.405 252.234 222.606 239.555C222.88 222.255 223.02 221.069 224.856 220.487C227.587 219.62 227.38 216.153 224.564 215.58C223.326 215.328 220.964 214.837 219.314 214.489C213.42 213.246 211.382 213.434 211.017 215.254C210.792 216.38 211.764 217.633 213.734 218.754L216.801 220.5L216.821 236.5C216.832 245.3 217.124 253.557 217.47 254.849L218.099 257.199L214.781 255.483C212.956 254.539 207.604 253.002 202.888 252.066C194.386 250.379 194.315 250.34 194.485 247.432C195.54 229.316 194.744 223.132 190.566 216.993C186.464 210.965 181.327 208.449 176.61 210.157ZM392.324 267.53C401.266 269.089 413.684 273.68 417.345 276.78C420.94 279.825 422.814 283.356 422.814 287.088C422.814 300.33 401.782 303.232 359.62 295.806L346.925 293.57L344.879 288.035C343.754 284.991 341.73 280.25 340.381 277.5L337.928 272.5L345.121 270.76C364.404 266.096 378.551 265.128 392.324 267.53ZM335.993 281.276C341.814 294.291 343.22 300.805 343.27 315C343.324 330.339 341.775 337 338.152 337C331.649 337 307.412 326.019 298.157 318.879C292.8 314.746 285.814 307.395 285.814 305.891C285.814 305.479 287.541 302.522 289.653 299.321C291.764 296.119 295.225 290.179 297.345 286.12L301.198 278.74L305.22 287.62C313.713 306.375 320.294 318.496 322.17 318.844C326.412 319.629 326.095 317.215 320.527 306.326C313.933 293.431 306.571 276.909 307.158 276.323C307.504 275.976 325.699 273.546 330.814 273.164C331.772 273.092 333.644 276.025 335.993 281.276ZM294.814 278.088C294.814 279.856 287.875 291.927 282.217 300C273.843 311.948 259.565 325.006 242.381 336.431C233.563 342.294 219.887 348.964 216.636 348.988C213.521 349.01 208.678 332.994 206.792 316.431C205.844 308.11 205.907 304.845 207.153 297.622C209.515 283.935 208.782 284.44 227.484 283.624C236.19 283.245 244.784 282.672 246.58 282.351L249.846 281.768L243.465 291.311C236.314 302.007 231.996 311.783 231.588 318.202C231.348 321.966 231.586 322.539 233.509 322.812C235.346 323.074 235.883 322.423 236.807 318.812C238.888 310.678 242.25 303.49 247.988 294.906C251.148 290.18 254.426 285.737 255.273 285.034C256.121 284.33 256.814 283.184 256.814 282.486C256.814 280.857 258.913 280.395 272.314 279.074C278.364 278.477 284.664 277.834 286.314 277.644C292.608 276.921 294.814 277.036 294.814 278.088Z" fill="#FFC4C4"/>
</svg>
