<svg width="495" height="600" viewBox="0 0 495 600" fill="none" xmlns="http://www.w3.org/2000/svg">
<path fill-rule="evenodd" clip-rule="evenodd" d="M144.979 1.94507C144.402 3.02507 144.382 8.12407 144.927 15.1951C146.003 29.1491 144.551 60.232 141.791 82.332C139.95 97.066 137.925 105.354 131.734 123.48C129.894 128.866 129.653 130.649 130.568 132.113C131.486 133.584 131.145 135.862 128.888 143.325C127.331 148.476 125.078 155.166 123.881 158.191C119.809 168.48 106.721 193.683 104.406 195.691C103.138 196.791 101.539 199.491 100.852 201.691C98.6883 208.629 95.6934 213.191 93.3034 213.191C91.6454 213.191 89.3193 215.873 83.5483 224.441C73.5523 239.281 68.8894 249.262 67.5244 258.735C66.1694 268.136 67.5204 275.401 71.7724 281.58C75.8404 287.494 80.2044 290.785 93.8484 298.231C103.219 303.346 106.856 306.038 113.491 312.774C124.085 323.528 131.111 334.231 133.314 342.971L135.008 349.691L131.526 352.691C129.611 354.341 126.691 356.48 125.036 357.445L122.027 359.198L123.426 353.945C125.092 347.684 125.23 342.773 123.813 340.125C121.538 335.875 119.27 337.882 109.325 352.941C103.968 361.053 97.2823 370.561 94.4673 374.069C86.9463 383.44 71.1753 397.098 56.0373 407.346C40.6443 417.768 34.9204 422.617 25.6694 433.071C18.4204 441.262 14.8483 447.378 14.8483 451.6C14.8483 454.416 17.3772 460.18 18.6242 460.206C19.0222 460.215 20.0003 460.634 20.7963 461.138C21.9423 461.862 20.6122 463.762 14.4362 470.227C2.15923 483.077 -3.0317 497.315 1.7773 504.95C5.3553 510.631 9.13339 512.183 19.3984 512.187C30.6584 512.192 32.8483 510.803 28.8483 506.191C25.6793 502.537 26.2043 497.773 30.0983 494.866C34.5383 491.55 40.3054 489.855 45.0044 490.485C49.9534 491.149 51.6864 492.592 54.1164 498.073C55.7254 501.704 55.9423 503.693 55.3813 509.68L54.7043 516.906L58.2964 517.489C61.9294 518.078 61.9964 518.05 72.0974 511.667C76.7024 508.758 79.3874 504.225 80.7844 497.005C81.4564 493.532 83.1344 488.745 84.5134 486.366C87.7204 480.835 98.4424 468.949 101.22 467.846C103.879 466.79 130.854 463.266 136.609 463.223C140.042 463.197 142.567 464.235 149.609 468.565C154.415 471.521 159.923 474.728 161.848 475.692C163.773 476.656 165.485 477.563 165.653 477.707C165.821 477.851 164.797 479.222 163.377 480.754C159.297 485.157 155.295 492.841 151.006 504.51C146.323 517.249 142.098 524.39 140.711 521.911C139.968 520.584 138.58 520.409 132.582 520.89C123.91 521.586 118.784 523.94 115.949 528.528C112.24 534.529 113.628 538.191 119.614 538.191C125.684 538.191 129.555 542.197 124.91 543.671C123.843 544.01 121.69 545.745 120.125 547.528C118.56 549.311 115.871 551.353 114.15 552.066C111.393 553.208 110.508 553.112 106.685 551.254C104.3 550.094 100.16 547.581 97.4853 545.668C93.6863 542.952 91.6513 542.191 88.1853 542.191C83.5823 542.191 78.8313 544.073 75.2973 547.295C73.5933 548.85 72.6654 548.999 69.8044 548.178C65.2124 546.862 59.2214 546.928 56.5324 548.327C55.3314 548.951 51.8485 551.764 48.7915 554.577C45.7355 557.39 42.2193 560.499 40.9773 561.486C37.7143 564.081 38.5894 566.631 42.8564 566.961C50.0904 567.52 50.8883 567.956 49.8193 570.768C48.4363 574.404 48.6443 586.23 50.1423 589.191C52.2943 593.444 55.8855 592.534 58.8865 586.977C60.2875 584.384 62.5113 581.114 63.8293 579.711C66.0833 577.312 66.7654 577.17 75.2954 577.319C83.2204 577.458 85.0713 577.144 89.9533 574.834C93.0263 573.381 96.1374 572.191 96.8664 572.191C97.5944 572.191 98.9423 571.511 99.8603 570.68C101.367 569.317 101.835 569.462 104.679 572.18C107.989 575.343 111.487 575.99 115.03 574.094C116.543 573.284 118.254 573.325 121.559 574.25L126.038 575.504L125.693 583.081C125.381 589.927 125.535 590.694 127.285 591.034C128.553 591.28 130.169 590.251 131.97 588.05L134.719 584.691L138.323 588.176C140.306 590.092 142.197 592.792 142.526 594.176C143.79 599.493 146.816 600.741 149.233 596.941C150.02 595.703 150.911 591.21 151.213 586.955C151.904 577.232 152.927 575.196 157.133 575.176C158.901 575.167 161.004 574.746 161.805 574.239C162.867 573.567 164.37 574.339 167.35 577.086C169.598 579.158 174.829 582.485 178.974 584.479C185.609 587.67 186.7 588.587 188.099 592.147C190.142 597.348 192.833 597.543 195.163 592.657C196.09 590.713 196.848 586.831 196.848 584.029C196.848 579.109 196.644 578.741 190.848 573.191C184.473 567.087 184.071 566.128 186.234 562.191C194.7 546.785 194.7 546.785 192.286 560.583C190.461 571.018 191.041 572.423 196.161 569.981C200.347 567.986 205.714 558.171 209.174 546.187C211.776 537.171 211.691 537.141 213.444 547.691C214.235 552.452 215.439 554.191 217.945 554.191C220.159 554.191 221.91 551.015 224.711 541.918C229.018 527.933 228.484 516.712 223.066 507.353C220.226 502.447 216.516 500.123 214.593 502.046C213.659 502.98 213.662 503.629 214.605 504.969C220.814 513.795 221.348 515.399 221.345 525.191C221.344 530.902 220.771 536.286 219.91 538.691L218.477 542.691L216.669 531.82C214.153 516.701 213.154 513.423 210.835 512.687C207.435 511.608 206.849 513.042 206.826 522.5C206.803 532.39 204.252 545.948 201.104 552.909L199.197 557.127L199.273 545.409C199.341 534.722 199.114 533.192 196.686 528.012C193.94 522.155 191.362 520.081 185.173 518.749L181.999 518.065L185.835 510.878C191.238 500.757 194.457 489.554 195.803 476.191C197.205 462.264 198.917 455.812 203.561 446.941C210.653 433.396 218.347 427.286 229.319 426.485C236.631 425.951 243.254 428.864 246.13 433.878C248.542 438.081 252.86 454.355 252.801 459.013L252.754 462.691L250.97 458.131C247.359 448.904 243.795 444.87 240.857 446.685C239.226 447.694 239.681 449.856 242.353 453.793C246.963 460.586 249.006 471.824 246.963 479.148C246.328 481.425 246.151 481.274 244.549 477.079C242.404 471.462 236.803 465.191 233.932 465.191C230.196 465.191 230.506 467.836 234.752 472.212C236.984 474.511 239.266 478.035 239.823 480.042C241.494 486.057 240.851 500.191 238.907 500.191C238.527 500.191 237.203 497.747 235.965 494.761C233.248 488.204 226.086 477.945 224.577 478.448C221.304 479.539 221.674 481.954 226.153 488.758C228.663 492.571 231.465 498.319 232.38 501.532C234.026 507.313 234.016 507.448 231.445 514.689C228.146 523.984 228.069 526.441 231.094 526.011C232.851 525.76 233.992 524.074 236.344 518.25C237.996 514.158 240.36 509.791 241.598 508.546C242.836 507.301 243.848 505.534 243.848 504.62C243.848 503.404 244.95 503.954 247.958 506.672C253.173 511.383 261.253 515.169 266.119 515.181C269.167 515.189 270.11 515.671 271.03 517.691C271.656 519.066 272.547 520.191 273.009 520.191C273.47 520.191 273.848 521.439 273.848 522.964C273.848 528.854 285.394 544.623 297.665 555.491C310.52 566.876 318.709 570.901 326.717 569.771C332.962 568.89 332.537 568.873 339.555 570.282C345.163 571.408 346.527 571.319 353.676 569.36C358.028 568.167 362.717 567.191 364.096 567.191C365.475 567.191 368.219 566.516 370.194 565.691C372.168 564.866 376.619 564.191 380.084 564.191C386.43 564.191 390.017 562.645 396.348 557.18C397.448 556.23 399.501 555.182 400.91 554.85C402.32 554.519 406.119 551.931 409.354 549.1C412.589 546.27 417.109 543.151 419.4 542.169C423.623 540.359 428.079 536.566 429.681 533.419C430.164 532.469 431.107 529.45 431.776 526.711C432.672 523.045 434.3 520.35 437.948 516.493C441.943 512.269 442.784 510.784 442.294 508.831C441.96 507.499 442.172 506.109 442.767 505.741C443.362 505.374 443.848 503.176 443.848 500.857C443.848 498.19 444.939 494.444 446.817 490.666C450.443 483.367 450.536 481.688 447.426 479.65C444.823 477.944 431.876 475.195 417.348 473.263C405.444 471.68 381.268 466.866 366.348 463.106C342.126 457.004 322.679 449.256 313.657 442.113C311.626 440.506 309.544 439.191 309.029 439.191C308.514 439.191 307.593 438.589 306.983 437.854C306.134 436.831 306.459 435.966 308.36 434.179C311.209 431.503 311.462 429.948 309.386 427.872C308.103 426.589 308.501 426.264 312.636 425.223C319.279 423.551 324.634 420.297 326.066 417.062C326.739 415.541 328.384 414.022 329.722 413.686C333.319 412.784 340.202 407.766 341.71 404.948C344.013 400.645 342.858 397.928 337.958 396.122L333.568 394.505L340.574 393.917C348.832 393.225 353.3 391.529 357.18 387.613C359.29 385.482 359.905 384.036 359.596 381.929C359.222 379.38 359.642 378.905 363.872 377.085C372.202 373.502 378.763 364.518 377.535 358.378C377.051 355.956 377.447 355.323 380.462 353.7C385.415 351.032 390.623 344.905 391.384 340.851C392.461 335.108 391.765 333.747 387.465 333.191L383.601 332.691L388.748 328.362C394.116 323.846 398.848 316.068 398.848 311.759C398.848 308.671 395.863 306.913 392.119 307.796L389.348 308.449L392.988 304.57C399.349 297.791 401.421 291.741 398.275 289.131C397.069 288.13 395.561 288.06 391.799 288.83L386.896 289.835L391.918 284.524C397.262 278.873 400.213 273.307 399.228 270.738C398.53 268.919 394.682 267.74 391.858 268.478C389.248 269.161 398.564 258.45 401.348 257.568C405.824 256.149 421.574 247.829 426.169 244.455C428.873 242.471 432.409 239.018 434.028 236.784C436.47 233.413 436.927 231.892 436.713 227.854C436.463 223.139 436.593 222.888 440.901 219.759C446.986 215.341 451.307 210.206 454.855 203.176C457.81 197.323 458.721 191.849 456.925 190.738C456.417 190.425 458.358 187.811 461.238 184.929C467.976 178.188 471.77 171.644 472.497 165.51C473.237 159.261 471.485 157.353 466.43 158.904L463.094 159.929L466.021 155.59C469.706 150.13 472.213 142.882 471.574 139.538C471.186 137.506 472.52 135.091 477.97 127.962C489.802 112.484 494.344 100.768 489.652 97.8311C487.058 96.2071 482.873 98.6641 468.3 110.366C451.959 123.486 451.896 123.523 454.956 118.126C456.339 115.687 458.342 111.683 459.407 109.228C460.548 106.6 464.463 101.669 468.936 97.228C477.965 88.266 485.625 77.66 490.995 66.691C497.816 52.757 494.896 50.659 482.995 60.943C475.885 67.088 459.015 79.191 457.561 79.191C457.252 79.191 460.253 74.321 464.23 68.368C471.579 57.368 480.466 40.35 483.122 32.191C485.401 25.189 486.002 18.051 484.554 15.191C482.211 10.561 479.636 11.971 471.78 22.191C465.015 30.99 436.953 60.6291 436.148 59.8241C435.952 59.6291 437.646 56.197 439.912 52.198C448.009 37.91 451.831 26.659 451.804 17.191C451.787 11.406 451.508 10.489 449.264 8.854C445.875 6.386 444.255 7.24608 443.509 11.9081C441.503 24.4541 411.964 60.2511 381.848 86.6331C366.194 100.345 360.707 104.228 357.988 103.517C356.049 103.01 353.48 105.239 340.87 118.372C327.953 131.824 304.037 154.191 302.571 154.191C302.293 154.191 301.782 153.066 301.437 151.691C300.979 149.865 300.141 149.191 298.329 149.191C296.375 149.191 295.263 150.269 293.098 154.262C286.424 166.568 264.184 198.86 263.117 197.793C262.875 197.551 263.226 193.947 263.898 189.784C265.266 181.303 264.756 170.1 262.812 165.941C261.948 164.091 260.761 163.191 259.187 163.191C256.421 163.191 256.456 163.541 258.331 154.691C260.964 142.258 259.843 133.199 255.57 132.376C254.62 132.193 252.459 133.426 250.768 135.117C249.077 136.808 247.616 138.191 247.521 138.19C247.426 138.19 247.302 134.927 247.246 130.94C247.122 122.067 244.544 112.634 241.85 111.192C239.573 109.973 238.001 111.325 234.333 117.658L232.036 121.625L231.394 116.658C230.635 110.785 228.295 100.498 226.862 96.7271C226.128 94.7961 225.256 94.1411 223.729 94.3721C222.149 94.6101 221.055 96.2381 219.407 100.803C217.006 107.452 212.796 115.159 210.546 117.027C209.368 118.005 208.847 117.145 207.468 111.947C206.205 107.189 205.737 100.185 205.512 82.691C205.137 53.476 204.01 38.19 202.179 37.488C199.774 36.565 197.849 39.255 197.832 43.563C197.799 52.381 192.314 72.468 187.184 82.562C185.027 86.806 185.028 86.805 183.339 84.618C182.145 83.071 181.973 80.715 182.471 72.67C183.203 60.83 181.765 43.768 178.175 21.691C175.537 5.46704 174.371 2.39302 171.298 3.57202C169.848 4.12802 169.693 5.10405 170.258 10.1021C170.678 13.8071 170.332 19.8071 169.325 26.3351C167.543 37.8761 163.898 54.261 162.839 55.49C162.46 55.929 161.878 52.329 161.546 47.49C160.779 36.343 157.826 23.009 153.349 10.484C151.424 5.09801 149.848 0.57904 149.848 0.44104C149.847 -0.69996 145.711 0.578068 144.979 1.94507ZM444.812 27.323C442.132 37.278 431.61 56.837 424.703 64.703C422.621 67.075 421.795 68.8811 422.158 70.2681C422.835 72.8561 417.641 85.941 413.06 93.191C409.481 98.855 394.27 114.641 387.559 119.656C384.152 122.202 383.523 122.355 381.318 121.175C378.025 119.413 376.818 120.069 362.348 131.476C355.748 136.68 350.239 140.847 350.105 140.738C349.971 140.628 350.703 138.773 351.732 136.615C354.455 130.899 358.652 118.271 359.417 113.487C359.935 110.246 360.591 109.221 362.449 108.755C366.953 107.625 385.417 91.7461 404.894 72.2531C423.603 53.5281 436.612 37.988 442.689 27.104C444.148 24.49 445.485 22.495 445.661 22.67C445.836 22.846 445.455 24.939 444.812 27.323ZM477.778 29.7891C474.195 41.5751 462.216 62.9531 452.227 75.3881C449.269 79.0711 446.848 82.9241 446.848 83.9501C446.848 85.9861 437.749 99.7621 429.833 109.71C420.841 121.01 405.04 134.235 389.5 143.467C383.785 146.862 381.57 147.643 378.038 147.506C375.63 147.413 373.469 147.145 373.236 146.912C373.002 146.678 374.619 142.825 376.829 138.35C379.04 133.874 380.848 129.757 380.848 129.201C380.848 128.646 381.905 128.191 383.198 128.191C386.681 128.191 393.096 123.185 404.848 111.295C415.629 100.388 420.203 93.8401 424.54 83.1021C426.768 77.5871 428.979 75.042 446.067 58.323C456.541 48.076 468.265 35.742 472.12 30.915C475.976 26.089 479.298 22.3081 479.504 22.5131C479.709 22.7191 478.933 25.9931 477.778 29.7891ZM155.461 42.644C156.473 49.531 156.852 56.19 156.469 60.327C156.04 64.972 156.275 67.974 157.254 70.327C160.036 77.017 162.166 93.966 161.502 104.119C160.526 119.032 155.803 135.191 152.419 135.191C151.661 135.191 149.447 138.329 147.498 142.165C145.549 146.001 142.868 150.74 141.539 152.696L139.122 156.252L138.396 143.471C137.997 136.442 137.265 130.201 136.77 129.602C136.212 128.926 137.029 125.338 138.923 120.149C142.973 109.05 145.514 98.166 147.317 84.191C149.068 70.621 150.774 46.746 150.998 32.691L151.157 22.691L152.498 27.144C153.235 29.593 154.569 36.568 155.461 42.644ZM176.289 62.77C176.606 82.205 176.806 84.1891 178.858 88.2101C183.386 97.0871 183.227 122.064 178.518 141.377C176.371 150.184 175.676 151.618 170.857 157.18C166.35 162.383 155.028 172.191 153.529 172.191C153.27 172.191 153.459 170.504 153.949 168.441C154.438 166.379 155.134 159.741 155.496 153.691C156.061 144.226 156.542 141.993 158.944 137.691C166.726 123.749 169.353 96.793 164.875 76.813C163.933 72.608 164.101 71.098 166.206 64.829C167.531 60.883 169.904 52.0381 171.48 45.1731C174.327 32.7661 174.349 32.718 175.144 37.191C175.585 39.666 176.1 51.176 176.289 62.77ZM199.82 86.441C199.748 101.524 200.066 106.638 201.288 110.067C203.71 116.859 203.326 130.739 200.386 142.691C196.831 157.142 191.965 169.191 189.684 169.191C189.072 169.191 186.674 170.94 184.354 173.079C182.034 175.217 179.157 177.49 177.96 178.131C175.977 179.192 175.831 179.092 176.322 176.993C176.618 175.727 177.497 170.641 178.276 165.691C179.054 160.741 180.641 153.991 181.803 150.691C185.907 139.035 188.083 123.038 187.684 107.441C187.484 99.603 187.593 93.191 187.927 93.191C188.714 93.191 195.171 79.204 197.505 72.441C198.502 69.553 199.451 67.191 199.615 67.191C199.778 67.191 199.871 75.853 199.82 86.441ZM481.742 71.941C476.98 79.813 468.451 90.382 462.562 95.712C458.123 99.729 455.82 102.767 454.204 106.74C452.977 109.756 450.37 114.863 448.41 118.088C444.715 124.171 443.949 127.187 446.098 127.196C447.899 127.203 443.013 131.038 429.456 140.258C413.482 151.121 382.087 166.191 375.427 166.191C374.009 166.191 372.848 165.959 372.848 165.676C372.848 165.393 374.222 162.727 375.901 159.752C378.421 155.286 379.696 154.09 383.214 152.891C400.294 147.072 429.576 121.809 443.348 101.012C450.03 90.9211 450.756 90.191 459.348 84.921C464.298 81.884 471.723 76.8961 475.848 73.8361C479.973 70.7761 483.497 68.2541 483.68 68.2321C483.862 68.2091 482.99 69.879 481.742 71.941ZM481.882 111.976C480.145 115.235 475.714 121.603 472.036 126.126C468.357 130.65 464.448 135.601 463.348 137.129C457.815 144.813 415.119 168.456 393.488 175.813C389.643 177.121 384.327 178.191 381.673 178.191C376.967 178.191 376.848 178.116 376.848 175.16C376.848 173.143 377.434 171.949 378.598 171.593C385.435 169.5 400.167 163.29 409.848 158.421C425.06 150.77 437.959 142.085 457.228 126.519C477.811 109.892 484.092 105.1 484.615 105.624C484.85 105.858 483.619 108.717 481.882 111.976ZM225.764 121.691C225.851 131.603 223.388 142.202 217.229 158.423C211.132 174.479 207.878 181.097 203.387 186.578C199.719 191.055 190.268 197.944 189.225 196.902C187.985 195.662 192.948 175.654 195.358 172.176C200.152 165.26 206.958 144.295 208.394 132.023C208.979 127.025 209.619 125.773 213.795 121.44C216.401 118.736 219.616 114.265 220.94 111.504L223.348 106.484L224.521 110.087C225.166 112.069 225.726 117.291 225.764 121.691ZM352.404 118.441C349.409 127.877 346.727 134.713 344.351 138.964C342.974 141.427 341.848 144.426 341.848 145.628C341.848 147.978 328.384 159.164 313.645 169.059C309.408 171.904 305.67 174.67 305.339 175.206C305.008 175.742 303.836 176.662 302.735 177.252C300.883 178.242 300.771 178.073 301.248 175.007C301.532 173.183 302.028 169.202 302.351 166.159C302.774 162.164 303.457 160.358 304.806 159.659C308.262 157.868 326.242 141.526 339.848 127.81C347.273 120.324 353.439 114.198 353.55 114.195C353.661 114.193 353.145 116.103 352.404 118.441ZM241.73 131.483C241.95 142.28 237.698 157.903 227.388 184.178C218.467 206.913 218.134 207.375 207.842 211.285C203.014 213.12 202.73 213.131 203.216 211.465C203.709 209.776 205.123 201.879 206.329 194.078C206.636 192.091 207.849 189.616 209.024 188.578C213.366 184.744 225.763 154.672 229.384 139.191C230.371 134.968 232.097 130.599 233.332 129.191C234.539 127.816 236.607 125.119 237.928 123.198L240.331 119.704L240.971 122.698C241.323 124.344 241.665 128.297 241.73 131.483ZM371.824 135.745C370.206 139.35 367.3 144.684 365.366 147.599C363.431 150.513 361.848 153.592 361.848 154.44C361.848 156.299 336.817 172.846 326.597 177.744C317.752 181.983 315.303 182.138 314.393 178.516C313.952 176.758 314.172 175.576 315.035 175.069C319.819 172.258 335.382 160.31 364.848 136.83C370.073 132.666 374.442 129.244 374.556 129.225C374.671 129.206 373.441 132.14 371.824 135.745ZM251.407 159.152C246.336 178.785 232.918 213.327 228.532 218.036C226.103 220.645 220.847 223.675 220.849 222.467C220.855 218.954 224.139 206.553 226.352 201.691C232.226 188.783 244.848 153.662 244.848 150.223C244.848 149.53 246.76 147.261 249.098 145.181L253.348 141.399L253.657 145.321C253.827 147.478 252.814 153.702 251.407 159.152ZM462.381 150.725C460.928 153.205 458.149 156.823 456.207 158.766C454.141 160.832 452.906 162.899 453.232 163.748C453.839 165.331 447.314 168.897 426.848 178.171C400.582 190.073 380.832 195.393 374.834 192.183C373.125 191.269 373.077 190.876 374.311 187.933C375.61 184.834 375.971 184.663 382.509 184.064C386.271 183.719 392.948 182.16 397.348 180.599C409.392 176.326 443.021 159.138 454.348 151.465C459.848 147.739 464.5 145.034 464.686 145.454C464.871 145.873 463.834 148.245 462.381 150.725ZM132.508 160.965C131.691 173.426 128.841 184.564 123.879 194.691C120.122 202.357 115.005 209.191 113.023 209.191C112.507 209.191 111.576 207.169 110.954 204.697L109.822 200.204L119.313 181.105C124.533 170.601 129.571 159.573 130.509 156.599C131.446 153.624 132.424 151.191 132.681 151.191C132.938 151.191 132.86 155.589 132.508 160.965ZM148.355 166.556C145.924 178.712 139.486 197.274 133.307 209.941C130.289 216.129 127.488 221.167 127.084 221.137C126.679 221.108 125.18 218.626 123.753 215.622L121.158 210.16L123.583 206.925C129.171 199.474 133.583 188.569 136.302 175.495C137.49 169.781 138.987 166.516 143.573 159.637L149.348 150.975L149.665 154.698C149.84 156.746 149.25 162.082 148.355 166.556ZM368.805 160.888C367.556 162.98 365.153 166.167 363.465 167.971C360.973 170.636 360.604 171.575 361.503 172.971C362.456 174.452 361.48 175.439 354.479 180.072C341.821 188.449 326.865 195.288 319.802 195.929L313.848 196.469V192.368C313.848 188.39 313.975 188.234 318.098 187.125C327.77 184.523 345.876 174.244 363.606 161.289C367.314 158.58 370.512 156.525 370.712 156.724C370.912 156.923 370.054 158.797 368.805 160.888ZM295.966 172.303C295.397 176.412 295.335 180.232 295.823 181.144C298.026 185.261 267.521 223.477 252.433 235.5L248.519 238.62L249.134 232.03C249.746 225.482 249.818 225.351 260.82 211.066C275.659 191.796 287.28 175.441 292.254 166.826C295.876 160.551 296.384 160.041 296.659 162.401C296.829 163.868 296.518 168.324 295.966 172.303ZM172.235 168.441C169.525 184.098 165.008 195.831 153.859 216.17C146.642 229.338 141.387 236.642 139.824 235.676C139.372 235.397 138.704 233.812 138.34 232.156C137.976 230.499 136.624 227.889 135.334 226.357L132.99 223.572L138.204 213.028C141.072 207.229 145.202 197.031 147.383 190.366C150.174 181.837 151.741 178.388 152.675 178.718C153.939 179.165 167.202 169.88 169.84 166.701C171.87 164.255 172.838 164.959 172.235 168.441ZM466.848 166.241C466.848 167.778 463.92 173.206 461.065 176.962C459.697 178.761 455.714 182.513 452.213 185.298C448.712 188.084 445.848 190.917 445.848 191.593C445.848 193.516 430.507 199.444 414.848 203.572C404.103 206.404 386.241 209.191 378.834 209.191H373.88L375.292 205.941C376.068 204.154 376.934 201.935 377.217 201.011C377.564 199.876 379.293 199.122 382.54 198.688C390.893 197.571 402.025 194.535 411.848 190.695C422.571 186.504 446.57 175.335 457.848 169.288C465.947 164.945 466.848 164.64 466.848 166.241ZM258.848 179.973C258.848 184.803 258.18 191.216 257.363 194.223C256.546 197.23 255.124 202.616 254.203 206.191C252.356 213.358 249.354 217.684 244.55 220.103C241.075 221.851 237.091 227.729 233.239 236.789C230.931 242.215 230.784 242.368 231.412 238.691C231.788 236.491 232.424 231.991 232.826 228.691C233.287 224.904 235.31 218.818 238.313 212.191C243.274 201.239 251.848 179.063 251.848 177.182C251.848 175.934 256.713 171.191 257.994 171.191C258.464 171.191 258.848 175.143 258.848 179.973ZM368.716 186.893L366.348 194.127L350.348 202.111C334.137 210.201 328.829 212.175 323.268 212.185L320.189 212.191L321.167 206.795C322.106 201.614 322.288 201.376 325.746 200.816C330.963 199.972 349.825 190.336 360.848 182.883C371.839 175.452 372.373 175.724 368.716 186.893ZM185.848 181.76C185.848 185.561 180.315 204.607 176.157 215.121C171.021 228.105 165.387 238.657 159.448 246.413C156.901 249.74 155.396 252.769 155.378 254.608C155.361 256.212 154.714 257.736 153.939 257.994C152.928 258.331 152.726 257.953 153.224 256.654C154.469 253.41 151.924 244.42 148.905 241.402L146.101 238.598L148.439 235.881C153.222 230.32 170.138 198.447 172.82 189.941C173.471 187.879 174.531 186.176 175.176 186.158C175.82 186.14 178.148 184.826 180.348 183.24C185.033 179.861 185.848 179.642 185.848 181.76ZM308.294 190.669L308.102 200.147L300.249 209.919C288.271 224.824 277.55 235.493 268.002 242.01C252.971 252.27 249.848 253.282 249.848 247.896C249.848 245.126 250.629 244.006 254.761 240.855C260.948 236.137 277.924 218.564 283.917 210.673C286.417 207.383 291.472 200.338 295.151 195.017C301.145 186.347 305.863 181.191 307.802 181.191C308.178 181.191 308.399 185.456 308.294 190.669ZM450.848 197.702C450.848 197.983 449.892 200.247 448.723 202.733C446.133 208.243 437.216 216.398 430.098 219.766C427.211 221.132 424.848 222.643 424.848 223.123C424.848 224.265 413.145 227.799 399.348 230.823C386.534 233.632 361.848 235.266 361.848 233.306C361.848 232.654 362.581 231.002 363.477 229.635C364.584 227.946 364.939 225.903 364.584 223.262C364.13 219.871 364.464 218.988 367.205 216.344C369.787 213.854 370.687 213.503 372.244 214.383C374.588 215.707 385.714 214.864 401.49 212.167C415.868 209.709 425.448 206.992 438.848 201.572C449.62 197.216 450.848 196.819 450.848 197.702ZM199.441 202.441C197.511 214.831 190.541 231.906 182.807 243.191C178.006 250.197 169.848 258.242 169.848 255.971C169.848 253.411 166.911 251.036 164.636 251.758C163.118 252.24 162.842 252.068 163.492 251.042C163.963 250.299 165.975 247.216 167.964 244.191C173.099 236.38 178.536 225.278 182.862 213.765C186.511 204.058 186.681 203.813 190.6 202.656C192.804 202.006 195.661 200.735 196.95 199.832C198.239 198.929 199.475 198.191 199.698 198.191C199.921 198.191 199.806 200.103 199.441 202.441ZM371.848 199.241C371.848 202.902 362.741 214.161 357.65 216.793C356.109 217.59 354.848 219.072 354.848 220.086C354.848 221.49 351.781 223.271 341.975 227.56C327.983 233.679 321.362 236.191 319.222 236.191C318.299 236.191 317.848 234.951 317.848 232.414C317.848 230.336 317.167 227.664 316.335 226.475C314.977 224.536 314.991 223.958 316.479 220.839C317.954 217.744 318.477 217.419 321.247 217.868C327.687 218.913 345.37 212.194 363.348 201.869C369.734 198.202 371.848 197.548 371.848 199.241ZM315.557 205.595C315.253 207.468 313.795 211.855 312.317 215.345C310.838 218.835 309.116 223.209 308.488 225.065C306.356 231.373 277.257 256.393 264.536 262.856C261.682 264.306 257.16 266.072 254.485 266.781L249.622 268.07L250.235 265.005C250.572 263.32 250.848 260.943 250.848 259.724C250.848 258.025 251.733 257.243 254.638 256.372C260.374 254.654 276.205 243.795 284.629 235.801C288.75 231.891 297.039 222.728 303.048 215.441C309.057 208.154 314.454 202.191 315.042 202.191C315.698 202.191 315.897 203.503 315.557 205.595ZM107.577 220.223C108.183 230.092 106.003 240.38 101.017 251.191L98.0193 257.691L96.7344 254.691C95.8374 252.597 95.5354 247.399 95.7324 237.483L96.0163 223.276L100.622 215.132C104.862 207.636 105.301 207.175 106.141 209.34C106.643 210.633 107.289 215.53 107.577 220.223ZM216.444 215.941C216.147 216.904 214.947 220.841 213.776 224.691C210.161 236.577 200.523 253.673 191.017 265.061C188.493 268.085 187.991 268.297 186.127 267.133C184.364 266.032 183.191 266.165 178.36 268.014C170.831 270.895 169.848 270.813 169.848 267.306C169.848 265.326 170.639 263.903 172.369 262.769C181.355 256.881 195.403 236.476 199.788 222.941C200.456 220.879 201.547 219.191 202.212 219.191C202.877 219.191 206.104 218.106 209.384 216.779C216.73 213.809 217.115 213.763 216.444 215.941ZM121.644 232.841C122.09 244.749 119.977 254.101 114.382 264.982C109.107 275.241 109.623 274.867 105.206 271.63C103.084 270.074 101.001 268.519 100.577 268.175C100.152 267.83 101.792 263.53 104.221 258.62C108.539 249.889 116.089 227.647 117.435 219.691L118.112 215.691L119.688 219.191C120.671 221.375 121.407 226.508 121.644 232.841ZM90.5525 234.441C90.2265 238.978 89.2774 244.611 88.4424 246.959C86.8374 251.473 87.1924 254.191 89.3884 254.191C91.3484 254.191 92.2745 257.83 92.3135 265.691L92.3484 272.691L95.3174 273.029C96.9494 273.214 99.4844 274.22 100.949 275.263C104.305 277.653 107.848 285.072 107.848 289.711C107.848 293.504 109.893 295.228 112.16 293.347C113.098 292.569 114.797 292.906 118.438 294.592C123.955 297.149 128.537 301.911 129.43 306.018C130.856 312.581 132.109 314.256 137.5 316.806C143.729 319.753 146.043 323.215 145.211 328.341C144.774 331.036 145.327 332.828 147.844 336.878C149.597 339.697 150.873 342.834 150.681 343.847C149.909 347.913 138.848 345.456 138.848 341.219C138.848 337.917 131.208 324.354 125.237 317.055C116.414 306.272 108.012 299.206 97.6804 293.885C85.6374 287.682 79.5462 283.202 76.1242 278.032C70.8522 270.065 72.1752 254.14 79.1032 242.191C84.1512 233.485 89.1705 226.191 90.1145 226.191C90.7875 226.191 90.9395 229.059 90.5525 234.441ZM226.848 230.509C226.848 239.07 221.535 250.702 208.094 271.567L199.156 285.443L192.502 285.674C188.842 285.801 185.859 285.632 185.872 285.298C186.056 280.747 188.44 275.965 192.876 271.249C201.718 261.849 217.848 235.509 217.848 230.469C217.848 229.766 218.86 229.184 220.098 229.176C221.336 229.167 223.023 228.724 223.848 228.191C226.307 226.602 226.848 227.02 226.848 230.509ZM352.098 233.306C348.661 236.649 345.848 240.179 345.848 241.151C345.848 242.337 343.957 243.765 340.098 245.494C334.372 248.059 318.833 253.398 313.598 254.598L310.848 255.229L314.063 248.71C316.166 244.445 317.874 242.191 319.003 242.191C321.591 242.191 333.65 237.659 345.668 232.169C351.542 229.485 356.798 227.276 357.348 227.259C357.898 227.243 355.536 229.964 352.098 233.306ZM431.848 228.741C431.848 229.043 431.163 230.616 430.325 232.236C426.532 239.571 406.152 251.092 394.848 252.292C391.273 252.671 384.073 253.508 378.848 254.151C373.623 254.795 365.973 255.179 361.848 255.006L354.348 254.691L354.684 249.039C354.947 244.621 354.665 243.188 353.396 242.478C351.919 241.651 351.936 241.421 353.585 239.929C355.168 238.497 356.338 238.427 362.788 239.385C375.159 241.221 400.932 237.455 421.848 230.756C429.655 228.255 431.848 227.813 431.848 228.741ZM243.825 266.772C243.161 269.146 241.094 273.4 239.233 276.226C235.568 281.791 234.991 284.648 237.348 285.553C238.211 285.884 238.848 287.378 238.848 289.071C238.848 293.24 235.505 303.46 232.981 307.004C230.453 310.554 230.348 312.004 232.342 315.827C237.493 325.704 228.239 342.214 213.779 348.941L207.869 351.691L207.858 356.491C207.839 365.447 203.592 370.191 195.594 370.191C187.805 370.191 188.169 366.624 197.016 356.224C219.725 329.528 224.951 316.875 230.825 274.359C233.291 256.505 236.56 243.061 240.471 234.691L243.273 228.691L244.153 245.574C244.805 258.07 244.719 263.579 243.825 266.772ZM133.849 237.195C135.272 243.125 134.112 251.52 130.293 262.929C127.989 269.813 120.6 285.802 118.949 287.478C118.523 287.911 117.031 287.831 115.635 287.3C111.257 285.636 111.594 281.662 116.896 272.412C122.539 262.567 126.524 250.92 127.433 241.614C128.064 235.156 130.104 230.613 131.881 231.711C132.302 231.972 133.188 234.439 133.849 237.195ZM312.259 235.941C311.2 241.781 308.828 247.271 305.174 252.343C301.443 257.52 290.765 264.139 271.495 273.219C260.951 278.187 244.613 283.289 243.335 282.012C242.988 281.664 243.824 279.604 245.194 277.434C247.451 273.86 248.18 273.43 252.954 272.865C263.893 271.569 283.123 259.169 301.848 241.336C307.073 236.359 311.706 232.266 312.143 232.239C312.581 232.213 312.633 233.879 312.259 235.941ZM141.348 240.191C141.688 240.741 141.489 241.191 140.907 241.191C140.325 241.191 139.848 240.741 139.848 240.191C139.848 239.641 140.046 239.191 140.289 239.191C140.532 239.191 141.008 239.641 141.348 240.191ZM228.941 252.291C227.873 256.911 226.702 263.027 226.338 265.883C225.804 270.076 225.283 271.134 223.632 271.383C222.099 271.614 221.042 273.317 219.403 278.198C216.737 286.132 213.09 292.498 207.703 298.618C203.906 302.932 203.39 303.198 199.991 302.595C197.987 302.239 195.994 301.626 195.561 301.233C194.286 300.073 196.619 295.255 199.717 292.647C204.787 288.382 224.451 257.358 228.398 247.4C229.333 245.039 230.275 243.284 230.49 243.5C230.705 243.715 230.008 247.671 228.941 252.291ZM146.873 248.756C149.895 256.705 146.198 269.193 135.121 288.456L130.656 296.22L127.411 293.456L124.166 290.691L128.38 282.191C133.549 271.766 137.289 261.521 138.883 253.421C140.091 247.28 140.162 247.199 145.123 246.327C145.549 246.252 146.336 247.345 146.873 248.756ZM348.625 250.441C347.819 251.678 345.765 253.591 344.062 254.691C342.359 255.791 340.827 257.276 340.657 257.99C339.974 260.863 308.364 272.04 306.42 270.096C306.176 269.852 306.226 267.792 306.531 265.518C307.073 261.477 307.191 261.367 311.706 260.69C317.381 259.839 334.403 254.299 341.848 250.88C349.096 247.552 350.571 247.457 348.625 250.441ZM386.959 263.105C383.925 265.824 381.868 268.414 382.25 269.033C382.646 269.674 381.974 270.354 380.639 270.665C373.404 272.346 363.583 274.101 358.348 274.648C355.048 274.993 350.993 275.481 349.337 275.733L346.326 276.192L346.554 267.941L346.781 259.691L349.564 259.931C356.406 260.522 380.73 260.072 384.348 259.288C392.397 257.543 392.69 257.971 386.959 263.105ZM164.315 264.941C162.945 276.581 157.128 290.337 148.772 301.691C140.747 312.597 136.989 313.703 135.156 305.695C134.165 301.364 134.283 300.983 139.078 293.005C145.325 282.614 148.133 277.002 150.244 270.691C151.669 266.43 152.687 265.227 157.132 262.549C164.708 257.986 165.118 258.123 164.315 264.941ZM300.848 265.448C300.848 266.139 298.822 269.175 296.345 272.194C293.869 275.214 291.08 279.528 290.147 281.782C288.459 285.864 288.401 285.897 275.9 290.021C259.979 295.272 252.415 297.191 247.638 297.191H243.848V292.854V288.516L252.313 286.426C262.634 283.878 275.895 278.157 289.861 270.226C295.629 266.951 300.461 264.253 300.598 264.231C300.735 264.209 300.848 264.757 300.848 265.448ZM341.848 267.778C341.848 269.577 340.218 271.982 336.496 275.674C331.606 280.525 330.505 281.115 323.746 282.509C313.608 284.6 296.043 286.719 295.268 285.944C294.919 285.595 295.694 283.385 296.992 281.033L299.351 276.757L308.849 275.5C318.394 274.237 325.587 272.083 335.176 267.619C341.631 264.613 341.848 264.618 341.848 267.778ZM181.415 278.4C179.941 289.51 171.937 303.053 160.327 314.081C156.21 317.991 152.281 321.172 151.595 321.149C150.909 321.125 149.325 319.504 148.075 317.545L145.802 313.984L149.132 310.298C155.72 303.006 163.8 289.162 166.705 280.19C167.747 276.972 168.346 276.559 174.094 275.091C177.533 274.212 180.743 273.425 181.227 273.342C181.712 273.259 181.796 275.527 181.415 278.4ZM391.903 276.089C390.593 278.536 382.156 285.973 378.598 287.817C377.083 288.602 375.848 290.084 375.848 291.116C375.848 292.638 374.392 293.315 368.098 294.72C359.272 296.69 344.612 297.973 337.613 297.388L332.877 296.992L336.541 292.521C339.102 289.395 340.225 287.02 340.276 284.624L340.348 281.197L346.72 281.194C354.112 281.191 369.838 278.987 381.923 276.26C393 273.761 393.15 273.759 391.903 276.089ZM222.674 290.941C221.257 300.293 216.074 317.809 212.902 323.966C207.338 334.765 207.445 334.687 198.191 334.724L190.034 334.758L195.224 329.152C200.206 323.771 207.848 310.947 207.848 307.969C207.848 307.183 209.037 305.449 210.489 304.115C213.178 301.648 221.006 290.122 222.154 286.941C223.343 283.644 223.545 285.193 222.674 290.941ZM332.88 288.131C332.309 289.198 329.818 291.524 327.345 293.301C324.872 295.077 322.848 296.836 322.848 297.209C322.848 299.123 291.577 301.284 290.547 299.441C290.316 299.029 290.716 297.289 291.435 295.576C292.733 292.487 292.831 292.452 303.546 291.259C309.487 290.598 318.398 289.24 323.348 288.241C328.298 287.242 332.701 286.373 333.133 286.308C333.565 286.244 333.451 287.064 332.88 288.131ZM191.34 293.441C189.891 298.515 182.483 312.949 178.369 318.714C173.154 326.022 164.487 334.186 159.358 336.619C157.338 337.578 155.608 338.211 155.513 338.026C155.419 337.842 154.33 336.247 153.095 334.481C149.933 329.965 150.251 328.625 155.17 325.742C163.328 320.961 179.998 301.595 182.36 294.155C182.926 292.37 184.896 291.607 189.665 291.327C191.614 291.213 191.88 291.55 191.34 293.441ZM285.839 293.941C285.833 294.353 284.371 297.113 282.589 300.073C280.806 303.033 278.908 306.287 278.369 307.304C277.1 309.701 277.493 309.583 262.027 312.198C250.262 314.188 248.073 314.3 242.799 313.181C239.526 312.486 236.848 311.811 236.848 311.68C236.848 311.55 238.025 309.337 239.464 306.763C241.773 302.632 242.388 302.151 244.714 302.66C248.616 303.515 261.989 300.817 273.348 296.884C284.018 293.189 285.853 292.757 285.839 293.941ZM392.921 296.054C391.125 299.411 384.627 304.374 378.328 307.2C374.928 308.726 371.888 310.644 371.574 311.462C370.771 313.554 360.908 315.181 344.848 315.87C333.829 316.343 330.657 316.158 327.586 314.866L323.824 313.283L326.456 307.917L329.088 302.551L339.776 302.992C352.067 303.498 364.731 301.752 380.848 297.327C394.026 293.709 394.185 293.692 392.921 296.054ZM321.848 304.778C321.848 305.1 320.422 307.35 318.678 309.778C315.567 314.111 315.398 314.194 309.428 314.373C295.182 314.801 282.848 313.248 282.848 311.026C282.848 310.528 283.582 309 284.48 307.63C286.066 305.209 286.354 305.156 294.73 305.725C299.47 306.048 306.048 305.889 309.348 305.373C316.631 304.234 321.848 303.986 321.848 304.778ZM200.098 308.167C203.257 308.268 196.116 320.858 189.226 327.338C183.945 332.304 175.566 337.378 168.348 339.979L162.348 342.141L165.295 339.916C175.063 332.541 184.031 322.103 189.384 311.879C192.195 306.509 192.227 306.487 195.779 307.313C197.742 307.77 199.686 308.154 200.098 308.167ZM391.844 314.941C391.826 318.52 382.287 327.541 377.159 328.828C374.954 329.381 374.434 330.255 374.756 332.866C375.225 336.66 332.162 336.447 319.598 332.593C316.787 331.731 317.556 329.064 321.888 324.65L325.929 320.533L332.138 321.415C340.915 322.662 361.921 320.68 376.38 317.241C389.325 314.162 391.85 313.786 391.844 314.941ZM277.284 317.441C276.221 320.866 273.123 324.859 269.561 327.396C266.635 329.479 265.336 329.669 254.78 329.56C239.353 329.399 239.269 329.366 239.675 323.454L240.003 318.691L248.675 318.95C254.417 319.121 260.221 318.566 265.848 317.308C277.568 314.687 278.137 314.694 277.284 317.441ZM304.109 319.691H318.871L314.241 323.941L309.612 328.191L298.98 328.167C289.457 328.146 281.51 327.186 280.226 325.902C279.971 325.647 280.528 323.833 281.463 321.871C283.019 318.609 283.428 318.363 286.256 318.998C287.957 319.379 295.991 319.691 304.109 319.691ZM280.848 332.328C283.323 332.927 291.423 333.703 298.848 334.054L312.348 334.691L307.977 339.062L303.606 343.433L292.875 342.737C279.369 341.862 271.222 340.087 271.687 338.122C271.874 337.335 272.181 335.566 272.368 334.191C272.556 332.816 272.741 331.579 272.779 331.441C272.93 330.894 276.579 331.296 280.848 332.328ZM256.569 335.191H267.011L264.779 338.941C260.556 346.034 260.012 346.33 253.314 345.171C242.75 343.343 233.848 341.001 233.848 340.048C233.848 339.538 234.607 337.962 235.535 336.546C237.055 334.226 237.664 334.031 241.675 334.581C244.124 334.916 250.826 335.191 256.569 335.191ZM327.435 339.685C342.14 341.902 371.368 341.364 383.598 338.652C387.147 337.865 386.399 340.979 382.05 345.096C379.961 347.073 375.204 350.213 371.478 352.073L364.704 355.454L349.526 354.888C329.193 354.13 312.455 350.34 311.6 346.302C311.282 344.801 315.63 338.191 316.935 338.191C317.258 338.191 321.983 338.863 327.435 339.685ZM202.206 339.961C202.467 340.384 199.541 344.321 195.704 348.711C182.266 364.081 180.513 372.772 190.322 375.395C193.371 376.211 194.848 377.144 194.848 378.255C194.848 383.195 206.647 393.191 212.479 393.191C213.774 393.191 215.058 394.408 216.126 396.647C218.458 401.539 224.43 407.862 229.553 410.864C233.271 413.043 234.821 413.361 239.917 412.992C243.429 412.738 246.537 411.93 247.428 411.04C248.659 409.809 249.604 409.726 252.409 410.604C254.313 411.2 256.111 412.443 256.403 413.366C256.696 414.289 259.847 417.767 263.405 421.095C270.509 427.741 282.232 434.041 292.348 436.649C295.648 437.5 299.473 439.022 300.848 440.032C304.581 442.774 307.702 449.102 308.447 455.437C309.529 464.645 309.274 464.75 298.55 459.507C291.124 455.877 288.768 454.198 287.316 451.502C285.125 447.433 278.465 441.191 276.314 441.191C273.101 441.191 273.655 444.258 277.65 448.592C283.434 454.867 285.106 458.704 285.639 466.921L286.108 474.15L281.424 473.781C277.105 473.441 276.515 473.057 273.857 468.866C270.621 463.763 266.618 460.681 264.356 461.55C262.234 462.364 262.483 464.55 264.952 466.785C268.233 469.755 271.51 476.167 272.823 482.191C273.483 485.216 274.239 488.478 274.503 489.441C274.904 490.905 274.3 491.191 270.806 491.191C267.189 491.191 265.894 490.52 261.158 486.191C258.149 483.441 254.989 481.191 254.136 481.191C251.905 481.191 253.016 474.023 255.656 471.383C259.387 467.652 259.583 459.369 256.254 446.195C251.359 426.829 245.245 420.691 230.848 420.691C221.232 420.691 214.076 423.972 207.139 431.563C198.873 440.607 190.862 458.931 190.834 468.859C190.813 476.309 190.033 478.194 186.981 478.171C180.911 478.126 157.17 467.91 152.848 463.483C151.5 462.103 152.511 462.013 162.808 462.599C169.111 462.958 177.538 463.528 181.534 463.866C187.916 464.406 188.883 464.264 189.483 462.7C190.49 460.075 188.976 458.264 180.915 452.448C176.691 449.401 174.213 447.02 174.998 446.764C175.74 446.522 178.717 445.847 181.612 445.265C189.575 443.663 193.848 441.603 193.848 439.364C193.848 436.217 191.34 435.017 182.237 433.811L173.618 432.669L179.647 429.787C186.75 426.392 191.089 422.665 190.633 420.349C190.268 418.494 187.202 418.358 173.348 419.58L165.348 420.286L173.348 416.965C186.229 411.617 196.848 403.713 196.848 399.473C196.848 396.047 195.089 395.844 185.223 398.128C175.318 400.422 164.123 402.141 158.898 402.171L155.448 402.191L161.398 397.851C169.633 391.844 179.848 380.721 179.848 377.761C179.848 373.923 177.3 374.03 169.587 378.191C161.867 382.354 157.79 384.009 146.051 387.744L138.753 390.065L145.051 383.067C159.792 366.684 164.877 359.136 162.832 356.672C161.013 354.481 160.35 354.731 153.561 360.165C147.692 364.864 131.64 375.296 131.096 374.766C130.957 374.631 133.095 370.099 135.846 364.695C138.597 359.292 140.848 354.037 140.848 353.019C140.848 351.435 141.397 351.255 144.65 351.775C147.23 352.188 149.721 351.821 152.4 350.634C154.571 349.671 156.955 348.983 157.696 349.104C158.437 349.225 164.062 347.709 170.196 345.736C176.33 343.763 185.398 341.527 190.348 340.767C201.639 339.033 201.633 339.033 202.206 339.961ZM291.598 347.922C299.436 348.222 305.848 348.855 305.848 349.329C305.848 351.15 301.656 354.331 300.062 353.72C299.027 353.323 297.817 353.906 296.755 355.314C295.125 357.475 294.854 357.503 286.81 356.366C270.807 354.103 264.354 350.852 266.798 346.284C267.762 344.484 268.083 344.461 272.583 345.878C275.375 346.757 283.25 347.603 291.598 347.922ZM240.348 348.262C244.198 349.292 249.936 350.43 253.098 350.792C256.473 351.178 258.848 351.936 258.848 352.628C258.848 354.033 250.372 360.191 248.438 360.191C244.291 360.191 224.848 351.19 224.848 349.271C224.848 347.653 229.371 345.248 231.348 345.815C232.448 346.131 236.498 347.232 240.348 348.262ZM114.949 361.114C113.291 365.01 110.34 370.286 108.391 372.838C104.418 378.042 104.287 378.48 106.221 380.086C108.349 381.852 110.011 380.659 114.466 374.164C117.256 370.098 120.574 366.875 124.75 364.176C128.141 361.984 131.168 360.191 131.477 360.191C132.445 360.191 125.769 371.49 122.203 375.889C120.331 378.198 116.941 381.855 114.67 384.016C111.89 386.661 110.743 388.476 111.163 389.568C112.153 392.15 114.044 391.556 124.505 385.377C129.919 382.18 137.048 378.035 140.348 376.166L146.348 372.768L141.451 378.51C136.177 384.693 129.898 390.22 123.056 394.701C118.63 397.6 117.813 400.368 121.191 401.019C123.06 401.379 151.669 392.483 159.665 389.055C162.121 388.002 164.337 387.347 164.589 387.598C165.525 388.534 151.063 398.396 143.098 402.253C138.561 404.45 134.848 406.423 134.848 406.638C134.848 409.086 136.514 410.191 140.205 410.19C144.052 410.19 177.227 405.902 182.848 404.679C184.469 404.326 183.59 405.2 180.348 407.163C174.325 410.811 159.778 415.657 150.272 417.183C138.703 419.04 138.687 419.046 139.033 421.409C139.494 424.555 143.41 425.339 159.596 425.526C167.433 425.617 173.846 425.791 173.846 425.913C173.847 426.035 171.26 426.894 168.098 427.821C164.613 428.843 156.834 429.74 148.348 430.099L134.348 430.691V433.691V436.691L156.596 437.772C168.832 438.367 179.09 439.1 179.391 439.4C180.87 440.879 165.243 442.675 152.534 442.486C138.889 442.284 138.725 442.307 139.034 444.445C139.458 447.369 142.202 447.973 155.598 448.091C161.786 448.146 166.848 448.577 166.848 449.049C166.848 449.521 169.548 451.573 172.848 453.61C176.148 455.647 178.848 457.398 178.848 457.502C178.847 457.606 167.26 457.711 153.098 457.736C134.101 457.768 124.389 458.227 116.064 459.486C100.87 461.782 101.848 461.976 101.848 456.66C101.848 450.975 100.776 450.525 93.2324 453.044C82.9114 456.49 55.0684 460.569 57.3484 458.301C60.3194 455.345 74.5884 450.712 82.1684 450.242C82.6184 450.214 82.8434 449.179 82.6684 447.941C82.3754 445.88 81.8413 445.698 76.2983 445.776C71.9973 445.837 68.5575 446.636 64.3965 448.54C58.1475 451.401 56.7234 451.459 59.4414 448.741C62.4964 445.686 65.8374 443.935 74.6484 440.774C81.6024 438.278 83.3484 437.254 83.3484 435.671C83.3484 432.535 79.8975 432.76 69.6975 436.563L60.3484 440.049L68.6924 432.087C74.0934 426.934 76.8383 423.607 76.4743 422.658C75.1653 419.249 71.4043 421.341 61.4533 431.011C50.4143 441.739 47.4683 444.138 35.0163 452.538C26.8523 458.045 26.6263 458.128 23.7663 456.649C21.4193 455.435 20.8483 454.481 20.8483 451.775C20.8483 444.746 37.0304 427.127 53.7724 415.928C80.2734 398.201 96.3784 382.993 109.348 363.447C113.748 356.816 117.486 351.984 117.656 352.71C117.825 353.436 116.607 357.217 114.949 361.114ZM224.893 356.628C227.763 358.519 233.655 361.324 237.985 362.863C242.315 364.401 245.709 366.117 245.527 366.676C245.345 367.234 243.43 368.072 241.272 368.538C239.114 369.005 236.673 369.737 235.848 370.165C233.514 371.378 227.238 367.661 220.673 361.177C215.397 355.966 214.954 355.227 216.555 354.295C219.094 352.818 219.116 352.824 224.893 356.628ZM324.654 357.832C333.356 359.875 338.701 360.423 353.348 360.773C363.248 361.01 371.479 361.594 371.639 362.072C372.628 365.017 359.811 374.152 354.648 374.181C353.713 374.187 352.576 374.855 352.122 375.666C351.401 376.954 349.662 376.89 338.322 375.153C314.655 371.528 303.848 367.535 303.848 362.415C303.848 358.824 309.639 353.285 312.154 354.47C313.147 354.938 318.772 356.451 324.654 357.832ZM280.883 361.078C284.439 361.639 289.598 362.392 292.348 362.75L297.348 363.402L292.848 367.322C288.795 370.854 287.951 371.186 284.348 370.671C273.297 369.089 261.043 364.933 259.349 362.192C258.883 361.439 259.675 360.107 261.411 358.723C264.214 356.487 264.253 356.485 269.324 358.267C272.126 359.252 277.328 360.517 280.883 361.078ZM227.113 373.606C229.717 375.132 231.848 376.705 231.848 377.101C231.848 377.497 230.25 378.583 228.297 379.514C223.904 381.609 222.768 381.072 216.064 373.737C211.31 368.536 211.08 368.038 212.131 365.252L213.248 362.292L217.813 366.561C220.323 368.91 224.508 372.08 227.113 373.606ZM256.417 367.303C258.292 370.337 277.116 376.191 284.997 376.191C289.355 376.191 288.163 378.161 281.791 381.49C278.822 383.041 276.126 384.741 275.8 385.269C274.648 387.132 257.999 379.713 251.996 374.662L248.845 372.011L251.097 369.156C253.492 366.119 255.297 365.49 256.417 367.303ZM315.848 376.59C318.873 377.45 328.262 379.264 336.712 380.62C345.162 381.976 352.289 383.298 352.549 383.558C352.809 383.818 351.767 384.855 350.233 385.861C348.131 387.24 345.028 387.776 337.637 388.035C329.167 388.332 327.637 388.654 326.419 390.393C325.009 392.407 325.006 392.407 318.178 390.17C314.422 388.939 307.625 386.172 303.074 384.021C294.863 380.141 294.803 380.085 295.153 376.669C295.348 374.775 296.302 372.347 297.274 371.273C299.021 369.342 299.107 369.353 304.695 372.172C307.804 373.741 312.823 375.729 315.848 376.59ZM219.848 385.805C219.848 385.91 218.481 386.472 216.811 387.054C211.966 388.743 205 385.212 201.565 379.327L199.783 376.272L203.431 374.401L207.079 372.529L213.464 379.072C216.975 382.671 219.848 385.701 219.848 385.805ZM244.475 375.662C245.387 378.038 257.633 385.323 267.292 389.235C272.212 391.227 276.406 393.365 276.613 393.987C276.821 394.609 275.721 395.39 274.169 395.723C272.617 396.057 270.373 396.722 269.181 397.201C264.843 398.945 238.848 380.872 238.848 376.111C238.848 373.763 243.601 373.383 244.475 375.662ZM247.848 392.901C250.873 395.097 255.936 398.344 259.098 400.116C262.26 401.888 264.848 403.715 264.848 404.176C264.848 405.593 257.547 406.298 253.914 405.232C252.026 404.678 250.289 404.417 250.054 404.651C249.475 405.231 231.085 389.435 229.914 387.352C229.176 386.04 229.648 385.339 232.164 384.015C235.331 382.348 235.367 382.356 238.848 385.624C240.773 387.431 244.823 390.706 247.848 392.901ZM293.998 385.647C299.101 389.114 312.455 394.46 325.348 398.195C331.398 399.948 336.511 401.539 336.709 401.731C337.778 402.764 330.779 407.446 326.161 408.788C320.889 410.321 320.677 410.299 311.58 407.254C301.658 403.934 286.837 396.365 285.796 394.086C285.446 393.319 284.592 391.61 283.9 390.289C282.871 388.325 282.888 387.744 283.994 387.107C284.739 386.679 286.248 385.636 287.348 384.791C289.937 382.802 289.782 382.782 293.998 385.647ZM226.924 392.777C228.257 394.2 232.417 397.877 236.168 400.948C241.939 405.673 242.727 406.679 241.292 407.482C236.979 409.896 224.702 402.081 221.799 395.074C220.741 392.52 220.765 391.857 221.938 391.114C223.971 389.827 224.244 389.919 226.924 392.777ZM297.668 408.018C300.792 409.489 306.828 411.818 311.082 413.192C315.336 414.566 318.823 416.013 318.832 416.406C318.868 418.022 313.958 419.565 307.93 419.832C304.4 419.989 301.198 420.624 300.816 421.244C299.532 423.321 285.825 415.235 278.098 407.841C273.59 403.528 272.724 401.211 275.598 401.159C276.561 401.142 278.177 400.499 279.191 399.731C280.827 398.491 281.649 398.728 286.511 401.839C289.524 403.766 294.545 406.546 297.668 408.018ZM281.892 418.502C283.841 419.939 289.637 423.333 294.771 426.045C303.827 430.828 304.013 430.996 300.993 431.659C294.361 433.116 277.05 425.774 268.062 417.694C265.194 415.115 262.848 412.658 262.848 412.234C262.848 411.81 264.536 410.792 266.598 409.972C270.343 408.484 270.353 408.486 274.348 412.186C276.548 414.223 279.943 417.066 281.892 418.502ZM322.348 453.834C326.748 456.103 334.398 459.389 339.348 461.136C356.694 467.257 391.765 475.396 414.848 478.659C428.736 480.621 443.848 483.27 443.848 483.742C443.848 483.931 442.723 486.201 441.348 488.787C439.875 491.557 438.848 495.141 438.848 497.511C438.848 505.63 435.457 506.567 418.505 503.134C394.76 498.326 366.438 487.19 340.348 472.403C335.948 469.91 331.376 467.001 330.187 465.94C327.884 463.883 324.783 463.881 324.099 465.936C323.375 468.111 329.003 472.581 340.748 479.158C369.06 495.013 405.103 507.862 429.144 510.67L434.94 511.346L431.453 515.207C428.274 518.726 426.913 521.902 425.402 529.33C425.056 531.031 424.021 532.182 422.49 532.566C417.795 533.744 391.129 525.632 375.219 518.185C359.082 510.632 349.873 504.178 335.148 490.1C330.376 485.538 327.424 483.416 326.398 483.81C323.269 485.011 324.893 488.48 331.598 494.918C342.927 505.796 356.758 515.547 370.006 521.997C380.851 527.277 401.054 534.566 410.598 536.643C413.452 537.264 415.271 539.191 413.004 539.191C412.539 539.191 409.588 541.441 406.445 544.191C403.303 546.941 400.195 549.235 399.54 549.289C394.019 549.741 391.212 548.985 384.21 545.158C368.347 536.489 350.647 523.433 335.639 509.33C328.914 503.011 325.848 501.95 325.848 505.941C325.848 508.125 333.962 516.14 346.848 526.684C358.634 536.328 367.504 542.337 380.181 549.265C389.651 554.44 389.94 554.698 388.012 556.259C386.666 557.349 383.007 558.093 376.842 558.531L367.673 559.182L363.011 555.45C347.388 542.948 339.471 535.994 332.68 528.806C325.447 521.152 324.912 520.787 323.275 522.381C321.67 523.944 321.66 524.256 323.145 526.521C326.624 531.831 336.296 541.156 348.215 550.691C355.09 556.191 360.745 560.922 360.781 561.204C360.934 562.384 349.855 564.618 343.677 564.653C335.748 564.698 334.742 563.964 325.809 551.619C319.719 543.202 309.551 532.975 301.587 527.256C297.49 524.313 296.798 523.267 295.814 518.529C295.2 515.568 294.854 512.672 295.047 512.094C295.24 511.515 297.411 512.806 299.873 514.962C305.92 520.259 307.932 521.191 313.314 521.191C316.492 521.191 318.09 520.725 318.491 519.68C319.249 517.704 316.97 505.465 315.187 501.941C313.849 499.295 313.894 499.191 316.354 499.191C317.76 499.191 319.136 498.604 319.412 497.886C319.687 497.168 318.12 490.347 315.93 482.727C313.415 473.978 312.249 468.287 312.766 467.282C314.345 464.214 314.855 458.551 313.977 453.85C313.489 451.24 313.373 449.241 313.719 449.407C314.065 449.573 317.948 451.565 322.348 453.834ZM49.2873 452.441C45.9293 463.301 39.3962 467.885 33.7692 463.328L31.4685 461.465L33.6962 460.272C34.9212 459.617 36.8292 459.367 37.9352 459.719C40.6582 460.583 45.0423 457.622 44.6513 455.181C44.4843 454.139 45.2484 452.604 46.3484 451.77C49.1754 449.628 50.0923 449.837 49.2873 452.441ZM94.0503 465.34C92.8503 467.236 91.8415 467.988 91.4175 467.303C90.3385 465.556 85.9914 465.98 76.3054 468.778C65.1164 472.009 56.5763 476.485 52.7553 481.12C49.9783 484.488 49.4583 484.697 43.5803 484.791C36.1863 484.911 28.4313 487.929 24.2163 492.329C21.7843 494.867 21.3483 496.141 21.3483 500.711V506.1L17.6894 506.718C13.8504 507.366 9.35744 505.714 6.89644 502.749C5.07344 500.552 6.02043 493.678 9.06343 487.032C11.5224 481.661 18.3013 473.205 23.9753 468.431C26.6723 466.161 27.0523 466.094 29.2063 467.506C35.5503 471.663 42.6094 471.557 47.3484 467.233C48.9044 465.814 52.2794 465.155 62.5434 464.267C74.5494 463.229 93.5285 459.861 94.8225 458.539C96.3625 456.965 95.7093 462.721 94.0503 465.34ZM305.16 469.811C306.994 471.717 308.744 476.886 311.437 488.347C312.244 491.785 309.569 492.507 305.348 489.988C303.698 489.004 301.369 488.197 300.173 488.195C296.474 488.188 292.15 478.852 291.698 469.896L291.327 462.547L297.178 465.072C300.395 466.46 303.987 468.593 305.16 469.811ZM83.8865 477.339C79.1595 483.204 74.8535 492.871 74.8445 497.635C74.8385 501.308 71.0453 506.058 66.1343 508.544L61.3484 510.967L61.1164 504.875C60.9564 500.688 60.0593 497.098 58.2473 493.395C55.1513 487.066 55.7613 484.434 61.0783 481.192C65.1093 478.735 66.1993 478.664 64.9863 480.941C64.4733 481.904 63.7404 485.638 63.3564 489.24C62.7844 494.604 62.9474 496.028 64.2534 497.112C66.8594 499.275 68.5613 496.831 69.0383 490.244C69.3473 485.972 70.2794 483.028 72.4204 479.566C75.1534 475.146 75.8633 474.658 81.8613 473.085C85.4293 472.15 88.4595 471.341 88.5945 471.288C88.7295 471.235 86.6115 473.958 83.8865 477.339ZM285.653 481.213C288.953 483.226 293.818 491.713 293.838 495.496C293.846 497.022 293.129 497.253 289.199 496.996C283.45 496.619 281.496 494.301 279.461 485.441C278.041 479.259 278.049 479.191 280.187 479.195C281.375 479.197 283.835 480.105 285.653 481.213ZM176.92 481.613C179.355 482.395 183.036 483.316 185.098 483.658C189.382 484.37 189.378 484.355 187.298 492.384C184.534 503.049 178.928 513.059 171.062 521.37C165.373 527.382 168.802 530.511 176.258 526.112C181.521 523.007 182.256 524.44 178.856 531.176C174.979 538.856 166.985 546.887 162.352 547.756C155.489 549.044 147.385 544.95 144.417 538.695C142.251 534.131 142.694 532.339 148.009 524.191C150.34 520.616 153.942 513.092 156.013 507.47C160.934 494.109 163.141 489.913 168.046 484.592C170.277 482.171 172.19 480.191 172.297 480.191C172.404 480.191 174.484 480.831 176.92 481.613ZM260.29 493.394C263.377 497.001 267.848 506.379 267.848 509.248C267.848 510.675 263.128 509.352 257.382 506.315C252.371 503.667 246.944 497.272 246.881 493.941C246.863 492.978 247.748 491.291 248.848 490.191C249.948 489.091 250.848 487.485 250.848 486.623C250.848 484.469 255.516 487.817 260.29 493.394ZM303.965 495.919C305.574 496.87 307.756 499.457 308.813 501.669C311.042 506.333 313.351 515.021 312.569 515.803C311.765 516.607 306.835 513.652 302.521 509.781C299.365 506.948 298.871 506.016 299.702 504.463C300.256 503.428 300.457 500.693 300.147 498.386C299.516 493.677 299.828 493.475 303.965 495.919ZM277.516 498.778C283 501.251 289.77 511.241 289.826 516.941C289.851 519.48 289.689 519.524 284.848 518.282C282.923 517.789 280.129 517.112 278.639 516.779C275.893 516.165 275.524 515.336 270.212 497.842C269.743 496.298 270.037 496.105 271.999 496.672C273.291 497.045 275.773 497.993 277.516 498.778ZM289.368 526.201C300.774 532.201 314.538 544.953 322.902 557.271C327.378 563.862 327.281 565.652 322.503 564.639C313.486 562.727 293.83 545.928 284.783 532.402C282.069 528.344 279.848 524.611 279.848 524.107C279.848 522.363 283.669 523.204 289.368 526.201ZM189.704 529.774C190.653 540.204 190.2 542.369 184.963 552.442C177.807 566.205 177.897 568.633 185.848 576.269C189.148 579.439 191.848 582.773 191.848 583.68C191.848 585.114 191.472 585.06 188.948 583.262C187.353 582.126 183.167 579.905 179.647 578.325C173.879 575.737 167.848 570.518 167.848 568.114C167.848 566.707 162.665 567.081 159.848 568.691C158.473 569.477 155.098 570.146 152.348 570.178C146.954 570.239 141.405 572.411 135.848 576.634L132.348 579.294L132.023 576.655C131.525 572.611 136.075 566.644 142.362 563.096C152.297 557.489 148.154 553.691 132.102 553.691C127.016 553.691 122.854 553.423 122.852 553.096C122.845 551.953 126.449 549.256 129.885 547.834C135.017 545.71 141.638 546.351 146.348 549.428C151.331 552.684 158.176 554.54 162.331 553.76C170.553 552.218 181.779 540.785 185.58 530.082C187.612 524.362 189.201 524.243 189.704 529.774ZM138.771 528.334C138.133 529.528 137.817 532.807 138.06 535.73L138.495 540.983L135.399 540.895C132.976 540.827 131.981 540.142 130.825 537.749C129.788 535.603 128.081 534.253 125.098 533.222C122.76 532.414 120.848 531.379 120.848 530.923C120.848 529.19 129.5 526.234 134.633 526.213C139.729 526.192 139.877 526.268 138.771 528.334ZM93.9663 549.946C95.4063 550.906 98.4545 552.996 100.74 554.59C103.495 556.512 106.575 557.651 109.873 557.967C114.782 558.439 114.848 558.491 114.848 561.884C114.848 568.436 110.843 571.615 108.107 567.235C107.435 566.159 105.172 564.817 103.079 564.253C100.985 563.689 96.9795 561.271 94.1775 558.88C89.5475 554.927 87.4014 553.728 81.3484 551.712C79.4484 551.08 79.4734 550.977 81.8484 549.654C85.3054 547.729 90.8393 547.862 93.9663 549.946ZM66.4304 553.191C68.5344 553.191 68.2414 558.134 66.0984 558.785C65.1354 559.077 62.0034 560.224 59.1374 561.333C56.0214 562.539 53.0623 563.076 51.7783 562.669C49.7523 562.026 49.8714 561.744 53.9004 557.638C58.0034 553.457 60.8384 552.064 63.6804 552.831C64.4124 553.029 65.6504 553.191 66.4304 553.191ZM84.3484 559.153C88.1044 560.954 94.5174 566.007 93.7134 566.532C93.5124 566.663 90.8192 568.014 87.7282 569.534C82.5602 572.075 81.5064 572.243 74.6394 571.621C65.4264 570.786 61.2815 572.428 57.2615 578.502C54.1745 583.167 53.3003 582.332 54.2993 575.671C55.1163 570.22 58.6483 566.987 66.4863 564.516C69.5583 563.547 73.2594 561.561 74.7104 560.102C77.9514 556.842 79.2604 556.713 84.3484 559.153ZM133.045 562.941C130.907 565.004 128.704 567.531 128.148 568.558C127.231 570.252 126.799 570.303 123.486 569.105C120.007 567.847 119.864 567.616 120.472 564.238C120.823 562.287 121.303 560.353 121.538 559.941C121.774 559.529 125.333 559.191 129.449 559.191H136.932L133.045 562.941ZM145.995 582.279L145.643 587.369L142.745 584.593C141.152 583.066 139.848 581.465 139.848 581.036C139.848 580.339 144.587 577.333 145.848 577.23C146.123 577.208 146.189 579.48 145.995 582.279Z" fill="#FFC4C4"/>
</svg>
