<svg width="426" height="282" viewBox="0 0 426 282" fill="none" xmlns="http://www.w3.org/2000/svg">
<path fill-rule="evenodd" clip-rule="evenodd" d="M377.639 0.842794C366.973 4.00179 360.394 20.7938 366.295 29.7998C368.657 33.4038 374.995 36.2068 380.786 36.2068C383.558 36.2068 385.826 36.3618 385.826 36.5498C385.826 36.7388 384.924 39.5157 383.822 42.7197C379.652 54.8377 371.706 63.7568 360.259 69.1648C353.556 72.3318 351.388 72.9279 334.826 76.1509C329.051 77.2749 323.314 78.4749 322.076 78.8169C320.106 79.3629 319.826 79.0688 319.826 76.4578C319.826 74.8188 320.744 72.3098 321.865 70.8838C326.921 64.4568 329.06 51.9928 326.709 42.6558C325.782 38.9748 325.871 37.6308 327.235 34.7578C329.777 29.3998 331.105 20.3778 330.434 13.0188C329.103 -1.56518 326.873 -2.12731 316.91 9.60769C308.655 19.3307 306.902 20.6458 300.945 21.5828C293.544 22.7478 286.395 26.8258 280.398 33.3028C277.333 36.6128 274.826 39.6737 274.826 40.1057C274.826 40.5367 273.061 41.4187 270.904 42.0647C265.366 43.7247 257.713 49.7777 251.666 57.2837C247.894 61.9647 245.925 63.6329 244.408 63.4339C232.961 61.9349 232.193 61.9959 222.267 65.1929C210.366 69.0249 206.341 68.8529 195.61 64.0479C183.171 58.4779 172.878 59.6907 165.434 67.6057C163.761 69.3837 162.347 70.2129 162.119 69.5489C160.958 66.1699 154.946 58.6187 148.804 52.8247C143.363 47.6917 140.663 45.9247 136.348 44.6697C133.317 43.7887 129.998 43.3349 128.971 43.6609C127.593 44.0979 126.127 43.0597 123.365 39.6887C116.527 31.3447 102.693 24.2068 93.3582 24.2068C91.2742 24.2068 88.7942 23.1688 86.4712 21.3228C77.1462 13.9108 59.3371 7.10879 53.2571 8.63479C46.6301 10.2978 46.4722 17.9448 52.7952 31.0198C56.5202 38.7218 56.6001 39.1009 54.8521 40.6829C53.8511 41.5889 52.5322 44.3178 51.9202 46.7468C49.7882 55.2168 53.5592 64.4838 63.5152 75.2378C68.4892 80.6098 68.7853 81.2039 67.6883 83.6109C65.3583 88.7239 70.3192 99.2257 78.0142 105.471C85.9752 111.932 99.0643 117.207 107.135 117.207H111.08L110.61 122.102C110.096 127.457 106.204 136.176 103.826 137.303C103.001 137.694 99.4012 138.525 95.8262 139.151C87.2282 140.654 81.1843 138.895 74.0643 132.817C68.4023 127.985 64.0913 126.46 60.9083 128.163C57.4123 130.034 56.5432 132.952 57.2732 140.363C58.0752 148.502 57.4803 149.043 49.7603 147.191C44.0523 145.822 37.4413 141.243 34.1753 136.396C32.9793 134.622 31.4532 129.925 30.7842 125.96C29.7822 120.015 28.9941 118.175 26.2971 115.478C18.4831 107.664 5.54116 114.411 1.81716 128.24C-2.32984 143.642 10.9042 160.11 31.0672 164.637C46.8642 168.184 59.1733 167.539 77.9183 162.181C92.1713 158.107 93.1081 158.178 94.6641 163.457C95.3541 165.795 96.1352 168.195 96.4002 168.79C96.6652 169.388 94.9633 170.447 92.6043 171.152C82.8453 174.067 73.8343 180.946 69.7923 188.565C67.6433 192.615 66.7731 193.271 61.0601 195.147C46.5821 199.899 37.8101 206.727 32.4951 217.381C30.9381 220.502 25.0881 228.379 19.4951 234.885C6.91514 249.518 -0.413911 259.715 0.0180892 261.982C0.199089 262.931 1.35017 263.85 2.57717 264.025C4.69617 264.328 20.1563 261.63 42.5093 257.058L52.6912 254.975L55.8052 257.192C57.6272 258.489 61.7092 259.841 65.6392 260.45C74.9852 261.896 85.4661 259.68 97.5691 253.696C106.427 249.317 106.991 249.174 111.069 250.276C119.677 252.601 132.742 249.602 142.427 243.079L146.527 240.317L150.427 244.381C158.369 252.661 171.085 255.666 179.661 251.291C184.152 249 191.198 241.592 193.523 236.717C195.42 232.738 196.414 232.333 197.315 235.171C198.35 238.433 206.652 244.984 212.155 246.883C215.389 247.998 220.135 248.652 224.826 248.628C235.587 248.573 242.524 245.626 250.906 237.548C254.525 234.061 257.788 231.207 258.156 231.207C258.525 231.207 258.826 232.121 258.826 233.239C258.826 242.175 271.366 253.99 282.787 255.817C285.981 256.328 287.251 257.129 288.406 259.362C292.917 268.085 309.886 273.54 322.024 270.169C325.456 269.216 326.056 269.396 330.339 272.665C332.878 274.603 337.289 276.859 340.141 277.677C348.869 280.183 372.303 282.266 374.75 280.754C375.721 280.154 375.951 277.93 375.625 272.304C375.095 263.132 372.734 257.499 363.555 243.499C359.786 237.75 356.627 231.642 355.904 228.707C353.558 219.173 345.569 207.364 338.197 202.531C337.026 201.764 335.084 198.437 333.881 195.139C332.679 191.84 329.702 186.231 327.267 182.674L322.839 176.207H331.176C341.167 176.207 349.807 173.587 354.355 169.179C357.354 166.272 357.612 166.214 364.878 166.799C382.728 168.237 398.808 160.334 398.822 150.115C398.825 147.933 399.498 147.323 403.076 146.253C408.327 144.682 415.957 140.876 421.576 137.024C427.064 133.262 427.192 130.49 422.076 126.23C417.141 122.121 405.645 116.686 397.624 114.671C392.02 113.264 390.961 112.612 389.32 109.567C384.865 101.293 375.916 96.2239 364.408 95.4549C358.725 95.0749 355.625 94.3689 353.964 93.0789L351.602 91.2427L353.982 90.3379C355.291 89.8399 359.695 88.9157 363.769 88.2837C372.648 86.9057 376.308 85.2709 384.656 78.9549C396.324 70.1279 402.531 68.3848 410.48 71.7068C415.331 73.7338 415.504 73.6879 417.316 69.8689C418.57 67.2269 418.671 65.9249 417.799 63.6189C416.489 60.1519 412.509 55.7987 408.224 53.1467L405.122 51.2268L407.724 45.9688C411.186 38.9728 411.313 26.6008 408.008 18.1638C402.857 5.01184 389.426 -2.64821 377.639 0.842794ZM387.89 5.86989C393.187 6.92889 401.29 15.5217 403.232 22.1387C406.437 33.0587 405.466 38.6979 398.258 51.0069C396.348 54.2689 396.348 54.3229 398.267 55.7569C399.335 56.5539 401.213 57.2068 402.44 57.2068C404.83 57.2068 410.246 61.2547 411.839 64.2317C412.732 65.9007 412.519 65.9607 409.083 65.0117C401 62.7797 393.027 65.3449 382.417 73.5899C374.326 79.8779 369.676 81.8979 360.386 83.1609C355.69 83.7989 350.787 85.1758 348.386 86.5308C344.746 88.5848 343.722 88.7247 338.48 87.8867C334.854 87.3067 330.012 87.3058 325.73 87.8858C321.933 88.3998 318.826 88.4679 318.826 88.0369C318.826 85.9379 325.1 83.7887 340 80.7837C363.744 75.9947 375.296 69.4998 383.893 56.1028C387.87 49.9048 391.826 37.5769 391.826 31.3809C391.826 20.5419 381.543 10.0307 375.364 14.5537C373.728 15.7517 373.615 16.2478 374.687 17.5388C375.394 18.3908 377.162 19.2267 378.617 19.3977C380.304 19.5947 382.087 20.9368 383.544 23.1048C386.341 27.2688 386.454 29.8727 383.875 30.6907C381.391 31.4797 373.864 29.5018 371.576 27.4588C367.473 23.7968 370.931 10.9417 377.018 7.23073C380.551 5.07773 382.628 4.81689 387.89 5.86989ZM324.609 19.5589C324.23 26.8139 323.609 29.8208 321.839 32.9688C320.241 35.8128 319.746 37.8777 320.184 39.8667C322.683 51.2237 322.736 52.1318 321.244 57.8928C320.416 61.0908 318.548 65.5068 317.094 67.7068C314.903 71.0208 314.328 73.3358 313.737 81.2068C313.344 86.4318 312.322 92.6238 311.465 94.9678C309.753 99.6508 305.198 106.682 302.029 109.533C300.021 111.341 299.987 111.299 298.795 105.533C297.791 100.673 296.791 98.9049 292.766 94.8709C288.512 90.6089 288.052 89.7419 288.883 87.5559C289.402 86.1929 289.826 83.6019 289.826 81.7979C289.826 79.9949 290.751 75.8618 291.881 72.6138C294.38 65.4338 295.811 58.3319 295.122 56.5359C294.184 54.0919 290.788 55.1058 289.029 58.3548C286.364 63.2798 281.88 68.1059 275.86 72.5279C272.816 74.7639 269.739 77.2939 269.021 78.1499C266.469 81.1949 263.87 87.7598 263.848 91.2158C263.833 93.6758 263.202 95.1158 261.739 96.0298C259.835 97.2178 259.71 97.1489 260.314 95.2459C261.442 91.6899 261.114 80.6169 259.805 78.0999C259.121 76.7839 256.999 73.7739 255.089 71.4109L251.617 67.1157L254.288 63.2608C260.174 54.7688 269.588 47.2068 274.275 47.2068C276.122 47.2068 277.778 45.8328 280.704 41.8718C287.665 32.4488 292.648 29.1288 302.839 27.1248C309.06 25.9018 309.634 25.5288 316.826 18.0418C320.951 13.7468 324.5 10.2277 324.712 10.2197C324.925 10.2127 324.878 14.4149 324.609 19.5589ZM62.9173 15.5427C69.8633 17.6477 78.6481 22.2998 83.1741 26.2678C86.8271 29.4718 88.1231 29.9719 93.9651 30.4339C104.808 31.2909 114.175 36.8018 122.066 46.9658C123.43 48.7218 124.836 49.2118 128.566 49.2288C131.184 49.2408 135.132 50.0707 137.34 51.0737C142.499 53.4177 151.868 63.0169 155.409 69.5879C156.927 72.4029 158.479 74.9318 158.858 75.2068C159.238 75.4818 159.329 79.4088 159.06 83.9348L158.572 92.1619L155.765 90.1629C151.463 87.0999 145.135 85.2068 139.2 85.2068C136.244 85.2068 133.826 84.7929 133.826 84.2879C133.826 82.6429 123.806 72.3527 116.415 66.4077C105.2 57.3857 78.9401 40.0379 77.0481 40.4029C73.5631 41.0739 74.6621 44.2759 80.5281 50.5479C88.8961 59.4929 99.8423 74.3488 106.915 86.3618C110.266 92.0518 113.606 97.1808 114.338 97.7598C115.432 98.6248 115.283 99.9618 113.502 105.26C112.31 108.806 111.24 111.874 111.125 112.079C111.01 112.283 107.858 111.883 104.121 111.19C90.6591 108.692 76.6291 99.1987 73.8201 90.6897C72.7221 87.3617 72.7902 86.4297 74.3382 83.5547L76.1192 80.2478L69.1573 72.9187C65.3293 68.8877 60.9883 63.1659 59.5113 60.2019C55.3893 51.9309 56.2312 44.2068 61.2542 44.2068C65.0142 44.2068 65.0993 41.5128 61.5323 35.3748C57.0613 27.6828 53.8262 19.8717 53.8262 16.7717C53.8262 13.7397 55.9983 13.4457 62.9173 15.5427ZM113.326 71.2459C117.176 74.3739 122.287 79.0618 124.684 81.6648L129.042 86.3968L126.184 88.1587C124.612 89.1277 122.469 90.8847 121.421 92.0637C120.373 93.2427 119.174 94.2068 118.757 94.2068C118.34 94.2068 116.31 91.1698 114.247 87.4568C109.647 79.1778 101.75 67.2158 96.9603 61.2698L93.3863 56.8338L99.8563 61.1958C103.415 63.5948 109.476 68.1179 113.326 71.2459ZM194.258 69.7068C205.471 74.3488 212.75 74.4627 225.685 70.1997C233.335 67.6787 235.468 67.3407 238.881 68.1077C247.565 70.0587 255.826 78.9097 255.826 86.2617C255.826 88.1207 254.856 93.4818 253.671 98.1748C251.101 108.35 244.049 119.207 240.01 119.207C238.737 119.207 236.866 119.65 235.853 120.193C234.325 121.01 233.843 120.696 233.025 118.348C231.31 113.428 225.672 108.054 219.16 105.132C215.748 103.602 211.524 100.98 209.773 99.3059C206.215 95.9069 204.366 96.2079 201.447 100.662C200.533 102.057 196.982 104.6 193.556 106.313C190.129 108.026 185.894 110.503 184.143 111.817C182.392 113.132 180.464 114.207 179.858 114.207C176.308 114.207 165.638 102.605 165.254 98.3279C165.124 96.8859 164.695 93.6128 164.299 91.0528C162.884 81.8908 167.233 71.6769 174.112 68.0059C179.149 65.3179 184.809 65.7958 194.258 69.7068ZM284.272 78.9568C283.268 89.0458 283.376 88.8629 278.092 89.4949C275.471 89.8079 272.467 90.3967 271.417 90.8037C269.703 91.4677 269.577 91.2017 270.179 88.1897C270.548 86.3467 271.632 83.9619 272.588 82.8909C274.052 81.2499 283.783 73.4417 284.585 73.2637C284.727 73.2327 284.586 75.7948 284.272 78.9568ZM149.826 93.5979C152.994 95.1529 156.316 98.3079 161.05 104.257C168.022 113.018 174.413 119.166 176.576 119.192C177.421 119.202 177.826 120.972 177.826 124.661V130.115L172.576 127.671C163.05 123.236 154.32 125.069 149.821 132.448C148.355 134.852 147.832 137.487 147.83 142.489C147.826 150.064 146.124 155.184 142.849 157.478C139.781 159.627 140.514 163.297 144.392 165.202C148.464 167.201 153.826 171.144 153.826 172.139C153.826 172.577 151.82 173.21 149.369 173.546C142.959 174.425 132.955 177.932 128.426 180.888C124.952 183.156 124.127 183.314 120.875 182.34C115.606 180.761 106.871 174.347 103.545 169.615C97.8362 161.493 98.6042 153.041 105.836 144.386C113.342 135.403 115.654 130.009 116.821 118.758C118.023 107.166 120.661 100.492 125.92 95.7407C129.481 92.5237 130.714 91.9518 136.326 90.9148C139.848 90.2648 145.199 91.3279 149.826 93.5979ZM343.407 94.6748C346.127 95.4828 349.839 97.2408 351.658 98.5828C354.432 100.63 356.16 101.035 362.397 101.099C373.787 101.216 381.263 105.62 385.478 114.695C387.135 118.261 387.806 118.753 391.828 119.347C401.306 120.747 419.399 128.989 418.555 131.521C417.855 133.619 402.467 141.149 397.491 141.828C392.232 142.545 390.759 144.268 392.72 147.409C394.53 150.308 391.308 155.083 385.536 158.053C381.843 159.954 378.784 160.586 371.567 160.94C366.484 161.189 360.358 160.936 357.953 160.379C352.554 159.126 350.826 159.72 350.826 162.829C350.826 168.525 336.725 172.3 322.959 170.287C318.48 169.632 312.613 168.442 309.921 167.643L305.027 166.189L306.489 161.448C307.386 158.536 307.83 153.833 307.638 149.255L307.326 141.804L312.826 140.124C324.466 136.57 347.284 134.033 364.493 134.38C373.384 134.56 380.976 134.39 381.363 134.004C381.75 133.617 381.792 132.207 381.456 130.87C381 129.05 379.276 127.782 374.586 125.815C359.78 119.605 338.08 116.53 316.076 117.522C308.789 117.85 302.826 117.94 302.826 117.721C302.826 117.502 305.026 114.809 307.715 111.736C310.404 108.663 313.667 103.739 314.965 100.794C316.942 96.3107 317.895 95.2777 320.826 94.4497C326.212 92.9257 337.912 93.0428 343.407 94.6748ZM288.976 98.8509C292.584 102.308 293.505 105.787 294.627 120.207C295.384 129.947 296.004 132.717 298.674 138.304C301.337 143.878 301.826 146.055 301.826 152.348C301.826 158.973 301.467 160.394 298.576 165.21C291.026 177.79 275.769 182.877 265.479 176.246C263.745 175.128 260.462 173.312 258.183 172.211C252.225 169.331 252.093 167.791 257.568 165.034C264.341 161.624 265.826 158.127 265.826 145.595C265.826 137.799 266.173 135.164 267.326 134.207C269.29 132.577 269.245 129.582 267.244 128.814C266.374 128.48 264.297 128.207 262.628 128.207C260.006 128.207 257.468 126.787 248.936 120.545C248.399 120.153 256.374 109.672 261.292 104.305C269.76 95.0657 282.421 92.5709 288.976 98.8509ZM215.49 109.609C224.589 114.106 227.826 117.843 227.826 123.849C227.826 128.623 226.77 131.394 223.639 134.837C221.706 136.963 221.692 136.964 216.753 135.087C207.747 131.665 197.154 133.204 190.691 138.874C189.253 140.136 188.734 140.031 186.39 138.008C184.02 135.963 183.702 134.925 183.525 128.675C183.264 119.442 184.722 117.288 194.599 112.317C198.849 110.179 203.182 107.481 204.228 106.322C205.501 104.911 206.508 104.528 207.275 105.164C207.904 105.687 211.601 107.687 215.49 109.609ZM23.3123 120.59C24.0593 121.755 24.9861 124.957 25.3711 127.707C26.3381 134.603 28.0102 138.298 32.3252 143.075C37.2032 148.473 41.1862 150.828 48.6912 152.751C53.5292 153.99 55.6232 154.099 58.2122 153.245C62.7922 151.733 63.9721 148.628 63.1851 140.155C62.4061 131.781 63.3783 131.31 69.9813 136.855C76.8923 142.659 83.2593 145.186 91.0023 145.197L97.6773 145.207L96.0023 149.145C94.4483 152.798 93.9632 153.133 89.3262 153.764C86.5762 154.139 79.8262 155.752 74.3262 157.349C62.2782 160.849 48.5442 161.958 37.8262 160.297C19.8222 157.506 6.82619 146.467 6.82619 133.963C6.82619 122.443 18.4523 113.013 23.3123 120.59ZM347.826 124.652C363.096 126.955 363.834 127.783 351.339 128.59C338.286 129.434 313.4 133.523 308.271 135.665C306.242 136.513 304.466 137.207 304.325 137.207C303.822 137.207 301.64 131.317 300.857 127.844L300.06 124.311L304.193 123.933C315.04 122.944 339.132 123.34 347.826 124.652ZM251.326 129.207C255.681 131.957 259.488 134.208 259.785 134.208C260.872 134.211 260.186 154.746 259.028 156.87C258.379 158.06 255.868 159.789 253.446 160.714C249.487 162.226 248.806 162.243 246.685 160.88C242.38 158.113 232.674 155.821 230.641 157.091C228.969 158.134 228.826 157.784 228.826 152.666C228.826 149.609 228.178 145.854 227.385 144.321C226.022 141.685 226.13 141.273 229.385 136.695C231.278 134.033 232.826 131.338 232.826 130.705C232.826 129.38 236.616 125.721 238.826 124.913C241.952 123.77 243.628 124.346 251.326 129.207ZM170.452 132.737C172.171 133.432 176.209 136.385 179.426 139.298L185.275 144.595L184.967 151.275C184.73 156.398 185.13 158.932 186.681 162.143L188.704 166.33L182.693 170.214C175.613 174.79 170.612 176.621 167.395 175.814C166.116 175.493 162.428 172.608 159.198 169.403C155.968 166.198 152.33 162.9 151.112 162.073L148.898 160.569L150.955 156.411C152.303 153.686 153.198 149.403 153.551 143.98C154.138 134.978 154.804 133.551 159.326 131.617C162.423 130.292 165.063 130.558 170.452 132.737ZM214.826 140.411C224.788 144.091 226.357 155.186 218.195 164.221C213.751 169.139 210.042 170.616 204.298 169.755C195.214 168.393 188.146 157.757 190.688 149.274C193.337 140.432 204.144 136.464 214.826 140.411ZM234.666 162.563C236.503 162.909 239.992 164.072 242.42 165.146C248.85 167.99 249.43 170.206 247.326 183.891L245.608 195.074L242.967 194.055C241.369 193.437 236.707 193.3 231.16 193.708C220.217 194.512 215.646 192.999 213.902 187.996C212.728 184.628 213.563 174.207 215.007 174.207C216.709 174.207 225.613 165.136 226.855 162.136C227.948 159.497 228.288 159.307 229.711 160.537C230.599 161.304 232.829 162.216 234.666 162.563ZM197.326 173.685C200.076 175.038 203.558 176.159 205.064 176.176C207.775 176.207 207.801 176.272 207.705 182.715C207.602 189.565 209.004 193.056 213.199 196.399C215.295 198.068 215.243 198.127 209.324 200.899C203.774 203.497 202.505 203.693 192.326 203.514L181.326 203.321L176.6 198.915C170.881 193.584 169.818 191.075 171.116 185.961C171.989 182.524 172.761 181.795 178.211 179.261C181.574 177.697 185.901 175.267 187.826 173.861C189.751 172.455 191.551 171.287 191.826 171.265C192.101 171.243 194.576 172.332 197.326 173.685ZM308.04 172.895C314.56 174.211 326.888 190.107 329.757 200.897C330.428 203.42 331.601 205.318 332.706 205.669C338.858 207.621 350.826 225.518 350.826 232.765C350.826 234.761 351.756 237.164 353.194 238.88C360.907 248.09 369.155 263.621 370.228 270.957L370.85 275.207L363.588 275.172C347.886 275.097 334.223 270.794 330.204 264.661C328.338 261.814 327.127 261.648 323.19 263.701C321.443 264.612 317.597 265.193 313.326 265.191C303.925 265.186 297.066 262.073 293.15 256.033C289.654 250.642 289.095 250.241 285.044 250.222C277.642 250.188 269.727 244.439 264.958 235.635L262.018 230.207H267.021C273.095 230.207 277.807 228.096 283.215 222.952L287.294 219.072L295.81 223.273C307.771 229.173 314.311 233.857 322.069 242.082C325.766 246.001 329.258 249.207 329.83 249.207C330.401 249.207 331.366 248.115 331.974 246.781C333.229 244.027 331.821 241.185 324.099 230.885C321.698 227.683 316.761 220.933 313.126 215.885C302.135 200.617 293.8 191.207 291.269 191.207C289.748 191.207 288.333 190.037 286.884 187.581C285.707 185.587 284.876 183.859 285.035 183.743C285.195 183.626 287.365 182.566 289.856 181.386C292.348 180.206 296.161 177.424 298.33 175.203C300.828 172.644 302.833 171.381 303.8 171.756C304.639 172.081 306.547 172.594 308.04 172.895ZM104.647 179.087C107.22 181.221 110.396 183.518 111.704 184.191C113.966 185.355 113.642 185.623 105.015 189.723C100.028 192.093 92.6583 196.147 88.6373 198.733C71.3913 209.822 49.4011 230.21 50.0171 234.538C50.5391 238.205 54.3933 237.799 60.6663 233.416C71.9493 225.533 85.7192 219.839 101.847 216.386C117.448 213.046 118.242 213.101 121.621 217.765C123.354 220.158 126.888 223.031 130.422 224.918C133.669 226.653 137.792 229.59 139.584 231.445L142.841 234.818L140.084 237.448C135.698 241.631 128.173 244.414 119.826 244.94C113.236 245.356 112.034 245.158 109.923 243.31C106.994 240.746 106.573 240.724 104.491 243.025C102.069 245.701 89.2203 251.876 82.3663 253.658C70.9933 256.614 59.5183 255.157 57.7603 250.534C57.0163 248.576 56.2692 248.098 54.5582 248.482C30.0432 253.986 10.0523 257.766 9.32131 257.035C8.83731 256.551 19.6532 243.117 27.7002 234.207C31.4252 230.082 35.6321 224.165 37.0481 221.059C41.6291 211.008 48.6432 205.539 63.7962 200.201C70.7112 197.766 71.4802 197.203 74.1402 192.639C75.7212 189.926 77.9842 186.652 79.1702 185.362C83.0562 181.135 91.4493 177 99.6473 175.274C99.8233 175.237 102.073 176.953 104.647 179.087ZM161.854 179.457C165.777 181.707 165.777 181.708 165.182 186.804C164.469 192.912 166.57 198.176 170.972 201.311C172.567 202.446 174.77 205.138 175.869 207.291C178.022 211.512 179.24 211.965 182.274 209.671C183.345 208.86 184.92 208.385 185.774 208.615C186.627 208.845 189.072 209.328 191.207 209.69L195.088 210.347L194.407 217.027C193.097 229.878 183.552 244.474 174.731 247.117C171.48 248.091 169.533 248.096 165.55 247.141C160.173 245.851 155.648 241.964 145.527 229.939C142.638 226.507 138.062 222.669 134.027 220.294C122.353 213.423 117.593 201.69 123.103 193.365C127.803 186.263 136.745 182.096 157.628 177.277C157.794 177.238 159.695 178.219 161.854 179.457ZM260.898 180.253C263.747 182.081 268.246 183.781 272.146 184.503C279.719 185.906 281.829 187.94 284.966 196.866C287.383 203.743 286.837 208.222 282.805 214.579C277.593 222.797 273.268 224.686 258.66 225.127C256.8 225.183 253.536 227.465 247.848 232.687C241.654 238.374 238.474 240.531 234.582 241.687C220.762 245.791 206.225 240.885 201.666 230.579C200.17 227.196 199.809 224.415 200.035 218.009L200.326 209.784L203.326 209.163C208.007 208.196 215.396 204.637 217.878 202.155C219.861 200.172 221.387 199.85 230.548 199.484C238.847 199.151 241.45 199.386 243.359 200.637C246.278 202.55 250.196 202.671 251.671 200.894C252.297 200.14 252.504 197.997 252.157 195.862C251.431 191.387 253.691 177.207 255.13 177.207C255.691 177.207 258.287 178.578 260.898 180.253ZM116.126 194.457C115.134 197.335 114.872 200.402 115.315 203.957L115.97 209.207H111.466C105.964 209.207 86.2542 214.186 77.6392 217.753C74.1672 219.191 70.6512 220.64 69.8262 220.974C67.8952 221.757 76.6472 214.135 83.2422 209.291C90.8532 203.701 102.454 196.887 110.326 193.383C114.176 191.669 117.386 190.254 117.459 190.237C117.532 190.221 116.933 192.119 116.126 194.457ZM305.672 215.446C309.606 220.802 312.826 225.363 312.826 225.581C312.826 225.799 307.686 223.266 301.404 219.951C290.516 214.207 290.026 213.812 290.904 211.501C291.411 210.168 291.826 206.63 291.826 203.639V198.201L295.172 201.954C297.012 204.018 301.737 210.09 305.672 215.446Z" fill="#FFC4C4"/>
</svg>
