<svg width="425" height="440" viewBox="0 0 425 440" fill="none" xmlns="http://www.w3.org/2000/svg">
<path fill-rule="evenodd" clip-rule="evenodd" d="M59.6634 2.50403C58.7114 4.59203 58.8894 5.65999 60.7314 8.93799C63.9224 14.616 66.3174 22.081 70.8034 40.332C74.9124 57.051 78.0694 66.486 82.4464 75.124C83.8504 77.894 84.8564 80.296 84.6814 80.463C84.5074 80.63 80.5904 80.112 75.9784 79.312C59.3414 76.425 57.0584 78.019 56.1554 93.157C55.6734 101.237 55.9264 103.808 57.8194 110.039C62.4394 125.249 74.8264 144.619 88.7344 158.383C96.4384 166.008 97.6023 167.582 96.7333 169.206C95.4563 171.591 95.3064 178.395 96.3304 187.512C97.1974 195.244 96.2143 198.444 91.6693 202.688C89.5073 204.707 88.9134 204.807 85.3244 203.758C79.9114 202.176 62.5754 202.206 55.8644 203.809C40.5524 207.465 30.8054 213.076 17.5194 225.882C12.4844 230.736 6.42436 235.687 4.05336 236.886C0.411355 238.726 -0.210645 239.473 0.0533552 241.695C0.304355 243.817 1.33036 244.704 5.36436 246.286C8.11436 247.365 14.9654 251.321 20.5884 255.079C41.8834 269.307 51.9804 272.933 72.3644 273.673C80.0644 273.953 88.7054 273.747 91.5664 273.217L96.7694 272.251L97.4024 275.132C97.7504 276.717 99.6244 280.364 101.568 283.237C105.412 288.92 108.189 295.672 107.462 297.566C107.21 298.222 105.285 299.31 103.184 299.982C97.9874 301.644 93.5994 304.316 85.5734 310.706C72.4684 321.141 64.6764 332.88 59.5054 349.979C56.4654 360.03 52.6224 381.123 53.6454 382.132C54.0414 382.522 64.9394 382.434 77.8644 381.937C95.6954 381.251 103.369 380.541 109.677 378.997C114.25 377.877 118.187 376.961 118.427 376.961C118.668 376.961 118.868 382.024 118.872 388.211C118.879 397.28 119.577 402.757 122.473 416.461C124.449 425.811 126.295 434.924 126.574 436.711C127.403 442.008 130.264 440.922 141.871 430.904C170.849 405.892 178.035 397.754 185.439 381.562C189.125 373.501 190.889 371.574 192.376 373.98C192.722 374.54 195.336 376.192 198.185 377.651C205.682 381.489 217.082 382.013 225.364 378.899C232.642 376.163 243.786 365.652 246.92 358.567L248.939 354.003L253.775 356.704C257.869 358.989 259.019 360.339 261.264 365.493C265.215 374.562 275.466 386.923 284.073 392.997C294.076 400.056 300.892 403.356 312.735 406.875C318.29 408.525 323.751 410.365 324.87 410.964C325.99 411.563 327.376 411.763 327.951 411.407C329.439 410.487 328.123 375.109 326.304 367.142C324.827 360.674 319.731 349.017 315.844 343.211C314.114 340.628 313.975 339.961 315.164 339.961C315.987 339.961 319.227 338.611 322.364 336.961C325.501 335.311 328.197 333.961 328.357 333.961C328.516 333.961 330.821 335.758 333.48 337.955C339.941 343.295 349.751 348.341 358.88 351.022C365.117 352.854 369.945 353.327 387.864 353.863C403.171 354.321 409.743 354.183 410.679 353.383C413.052 351.356 407.121 324.359 402.137 314.504C394.171 298.751 374.269 280.1 359.343 274.4C354.326 272.484 354.08 271.895 356.714 268.115C359.429 264.222 361.864 256.236 361.864 251.229C361.864 248.823 360.527 241.705 358.893 235.412L355.923 223.971L357.5 214.716C358.368 209.626 359.142 205.427 359.221 205.385C359.3 205.343 362.826 204.069 367.056 202.554C380.425 197.768 393.457 188.84 401.612 178.883C404.269 175.638 409.303 167.916 412.798 161.722C416.294 155.528 420.531 148.994 422.214 147.202C424.867 144.376 425.081 143.762 423.819 142.586C423.019 141.84 414.939 139.507 405.864 137.402C376.214 130.524 360.351 131.519 340.032 141.531C334.899 144.06 330.584 145.979 330.444 145.795C330.303 145.611 329.158 143.289 327.9 140.634C325.76 136.121 317.234 127.961 314.658 127.961C314.065 127.961 313.908 127.009 314.286 125.711C319.519 107.734 321.962 90.319 322.027 70.517C322.078 54.943 320.795 47.616 315.852 35.273C314.209 31.168 312.864 27.224 312.864 26.508C312.864 25.792 312.221 24.673 311.436 24.021C309.808 22.669 305.305 24.512 302.791 27.559C302.006 28.51 296.189 33.098 289.864 37.754C283.539 42.41 274.305 50.335 269.344 55.366C261.958 62.855 259.437 66.264 255.432 74.173C251.065 82.797 250.491 84.696 250.074 91.897C249.751 97.481 249.218 99.961 248.344 99.961C246.493 99.961 237.321 108.486 234.822 112.53L232.67 116.011L229.832 111.736C228.271 109.385 225.46 105.978 223.585 104.166C220.258 100.951 220.198 100.747 221.045 95.666C223.57 80.522 216.768 59.468 203.669 41.885C193.747 28.566 175.031 12.29 166.802 9.82397C160.653 7.98197 160.357 8.445 153.778 30.211C151.991 36.124 150.237 40.961 149.881 40.961C149.524 40.961 148.277 39.262 147.11 37.185C144.671 32.846 133.751 22.118 126.243 16.686C119.342 11.692 109.146 6.767 98.8644 3.461C91.5374 1.105 88.3244 0.678014 75.5844 0.364014L60.8034 0L59.6634 2.50403ZM93.1874 7.91602C109.464 12.079 120.572 18.208 133.185 29.987C138.26 34.727 141.493 38.79 143.79 43.316L147.095 49.826L145.508 57.144C144.635 61.168 143.626 66.814 143.266 69.69L142.612 74.92L137.488 70.31C126.573 60.49 101.068 43.582 98.0483 44.164C94.9593 44.759 95.7924 47.448 100.636 52.527C107.588 59.816 114.525 70.708 119.956 82.865C122.56 88.693 124.581 93.572 124.448 93.707C124.314 93.843 121.766 92.661 118.785 91.082C115.803 89.503 109.089 86.963 103.864 85.438C93.2544 82.341 91.4634 80.895 87.2064 71.983C83.2404 63.68 80.1484 54.088 75.7544 36.461C71.6394 19.952 68.2114 9.29297 66.7194 8.37097C61.7814 5.31897 81.6954 4.97702 93.1874 7.91602ZM176.473 22.326C184.253 28.175 196.389 40.899 201.834 48.916C210.646 61.894 215.825 76.706 215.833 88.961C215.839 98.122 215.507 98.628 209.542 98.539C206.694 98.496 202.902 98.834 201.114 99.29C198.197 100.035 197.864 99.899 197.864 97.967C197.864 96.783 196.716 92.3591 195.312 88.1371C189.166 69.6451 173.231 45.455 168.415 47.303C166.195 48.155 166.475 51.039 169.777 61.358C172.639 70.3 176.875 94.983 176.853 102.591C176.847 104.719 176.563 108.149 176.222 110.211L175.602 113.961H167.259H158.915L157.233 110.711C154.545 105.52 147.863 84.028 147.87 80.594C147.885 72.452 151.286 56.717 156.868 38.953C165.092 12.787 164.234 14.584 167.648 16.349C169.188 17.146 173.159 19.835 176.473 22.326ZM311.276 38.884C315.685 49.826 317.201 60.602 316.491 75.961C315.751 91.96 313.911 105.256 310.801 117.073L308.535 125.685L302.962 124.23C297.202 122.726 290.327 118.71 288.512 115.79C287.717 114.511 288.329 112.285 291.123 106.29C294.44 99.174 301.864 70.028 301.864 64.122C301.864 61.082 298.885 60.596 296.103 63.183C288.138 70.591 272.867 94.227 272.865 99.152C272.864 101.767 271.41 102.087 267.314 100.375C265.244 99.511 261.709 98.479 259.457 98.082L255.364 97.3611L255.575 92.237C256 81.917 263.928 67.858 275.497 56.907C278.724 53.853 286.843 47.227 293.539 42.183C300.235 37.139 306.024 32.512 306.402 31.9C307.401 30.284 308.372 31.676 311.276 38.884ZM126.385 68.723C138.732 78.327 141.806 82.778 146.485 97.826C148.475 104.225 150.705 110.638 151.44 112.077C152.737 114.616 152.654 114.745 148.57 116.505C146.257 117.502 144.014 118.504 143.586 118.732C142.847 119.126 129.895 93.043 128.393 88.135C127.275 84.483 121.299 71.989 117.906 66.211C116.211 63.323 115.18 60.961 115.615 60.961C116.051 60.961 120.897 64.454 126.385 68.723ZM183.794 74.961C187.32 81.823 192.864 97.859 192.864 101.196C192.864 102.983 191.537 104.727 188.2 107.327C185.635 109.326 183.16 110.961 182.7 110.961C182.24 110.961 181.864 106.731 181.864 101.56C181.864 93.677 179.737 77.246 177.285 66.185L176.681 63.461L178.825 66.461C180.004 68.111 182.24 71.936 183.794 74.961ZM291.385 86.8661C290.019 93.0441 287.499 101.035 285.786 104.624L282.671 111.151L279.79 108.39C276.453 105.193 276.555 103.787 280.806 94.442C283.378 88.786 292.826 74.59 293.542 75.306C293.722 75.486 292.752 80.6881 291.385 86.8661ZM81.3644 85.984C101.471 89.626 115.404 94.4651 123.458 100.603C125.16 101.9 126.96 102.97 127.458 102.982C127.956 102.993 130.688 107.45 133.529 112.887L138.695 122.771L136.38 124.946C135.107 126.142 132.87 129.784 131.409 133.041C129.947 136.297 128.186 138.961 127.495 138.961C124.685 138.961 105.239 124.784 92.0884 113.147C83.8854 105.888 81.5384 104.937 79.5644 108.072C78.7904 109.302 79.4594 111.193 82.3934 116.072C89.9234 128.589 98.9154 141.575 105.316 149.176L111.812 156.89L107.088 159.125C104.49 160.353 102.014 161.536 101.587 161.752C101.159 161.969 96.9554 158.392 92.2454 153.803C79.7804 141.661 67.4844 122.523 63.4764 109.028C61.8854 103.669 61.3224 90.586 62.4944 86.211C63.2664 83.33 66.4974 83.291 81.3644 85.984ZM261.932 104.557C267.809 106.284 271.851 108.895 278.864 115.493C287.755 123.858 292.709 126.854 302.854 130.006C319.622 135.216 324.7 140.917 325.651 155.6C326.453 167.989 321.984 174.752 307.049 183.755L301.734 186.959L299.191 183.938C295.777 179.881 293.302 178.638 287.364 177.999L282.364 177.461L288.364 174.461C291.976 172.655 294.503 170.713 294.712 169.581C295.31 166.355 292.769 165.963 287.935 168.536C283.138 171.09 280.864 171.573 280.864 170.038C280.864 169.53 279.355 167.137 277.51 164.721C274.849 161.234 274.241 159.618 274.565 156.894C275.395 149.905 276.122 148.368 280.559 144.233C285.247 139.863 285.794 136.961 281.93 136.961C277.286 136.961 268.864 147.964 268.864 154.032C268.864 156.388 268.623 156.471 261.797 156.466C254.768 156.461 254.732 156.447 255.32 153.961C256.646 148.354 256.994 139.307 255.984 136.711C255.306 134.969 254.171 133.961 252.889 133.961C251.031 133.961 250.863 134.601 250.849 141.711C250.828 151.956 250.355 152.538 244.977 148.925C242.588 147.321 239.059 145.713 237.135 145.352L233.637 144.696L234.04 135.477C234.383 127.631 234.914 125.304 237.598 119.859C241.314 112.321 247.061 106.365 252.479 104.433C254.616 103.672 256.395 103.029 256.432 103.005C256.47 102.981 258.945 103.679 261.932 104.557ZM215.207 105.331C218.696 106.789 225.335 113.81 227.148 117.961C227.749 119.336 228.269 125.186 228.302 130.961C228.336 136.736 228.589 142.102 228.864 142.885C229.218 143.893 228.171 144.558 225.286 145.16C222.702 145.699 219.997 147.26 217.902 149.421C214.741 152.683 214.493 152.764 212.205 151.265C210.558 150.186 209.998 149.114 210.408 147.823C211.385 144.744 208.881 135.09 206.349 132.176C204.202 129.706 203.846 129.602 202.394 131.029C200.935 132.464 200.97 132.974 202.81 137.029C205.332 142.589 205.595 148.455 203.282 147.568C202.412 147.234 199.128 146.961 195.983 146.961C190.305 146.961 190.257 146.936 188.937 143.285C187.29 138.73 178.696 129.961 175.88 129.961C171.926 129.961 172.448 132.832 177.209 137.266C179.726 139.609 182.526 143.302 183.433 145.472L185.081 149.416L182.092 151.939C178.602 154.883 174.873 160.702 174.868 163.211C174.866 164.173 174.189 164.961 173.364 164.961C172.539 164.961 171.864 164.364 171.864 163.635C171.864 162.906 170.678 161.219 169.229 159.885C167.78 158.552 165.521 155.067 164.211 152.141C162.481 148.279 161.353 146.911 160.096 147.15C155.983 147.929 157.918 155.536 163.986 162.448C166.679 165.514 166.826 165.961 165.146 165.961C161.835 165.961 154.146 168.992 152.31 171.021C151.344 172.088 150.187 172.961 149.739 172.961C149.291 172.961 146.419 170.629 143.357 167.779C140.295 164.929 136.906 161.978 135.827 161.222C134.144 160.043 133.864 158.661 133.864 151.519C133.864 136.54 138.649 127.669 149.64 122.272C154.916 119.681 156.302 119.456 167.364 119.398C180.854 119.327 182.39 118.825 192.064 111.325C201.504 104.007 208.008 102.323 215.207 105.331ZM121.61 142.215L127.857 145.461L127.86 151.51L127.864 157.559L124.114 157.163C121.085 156.843 119.208 155.583 114.352 150.614C109.089 145.228 99.9714 133.383 94.3254 124.597C92.9864 122.513 95.6004 124.08 103.924 130.351C110.216 135.091 118.175 140.43 121.61 142.215ZM400.216 142.091C408.271 143.945 414.862 145.828 414.863 146.277C414.865 147.729 401.815 169.301 397.681 174.68C390.704 183.756 376.266 193.522 363.156 198.032L357.904 199.84L355.836 195.15C354.699 192.571 351.96 188.614 349.75 186.356L345.731 182.25L348.91 179.575C353.061 176.083 370.327 167.637 378.04 165.327C381.372 164.329 384.328 162.915 384.608 162.186C384.888 161.456 384.048 159.704 382.741 158.292C380.412 155.776 380.161 155.736 370.364 156.309C360.46 156.888 347.603 159.789 336.882 163.862C333.913 164.99 331.412 165.812 331.326 165.687C331.239 165.563 331.372 162.5 331.622 158.881L332.075 152.302L337.22 149.265C344.085 145.213 353.812 141.456 362.364 139.554C372.145 137.378 382.851 138.096 400.216 142.091ZM238.164 151.575C242.295 153.659 246.838 157.876 247.905 160.618C248.88 163.124 254.452 164.773 256.163 163.062C257.919 161.306 265.073 161.791 268.535 163.902C272.615 166.39 277.247 174.178 276.614 177.488C275.839 181.54 277.938 183.32 283.255 183.119C285.825 183.022 289.223 183.613 290.807 184.432C297.195 187.735 300.253 195.471 297.417 201.155C294.547 206.908 295.259 208.327 303.002 212.289C309.461 215.594 311.364 218.862 311.364 226.649C311.364 232.964 311.235 233.301 307.614 236.431C305.552 238.214 303.864 240.151 303.864 240.735C303.864 241.32 305.44 242.772 307.366 243.962C311.782 246.692 312.751 250.159 310.344 254.627C308.341 258.346 301.289 263.489 296.856 264.463C292.33 265.457 291.343 267.343 293.247 271.356C298.611 282.66 291.574 291.347 275.995 292.653C268.658 293.268 266.06 295.169 269.31 297.545C271.888 299.43 271.184 303.514 267.787 306.372C263.676 309.832 261.089 310.351 251.814 309.577L243.975 308.923L243.67 313.642C243.404 317.75 242.95 318.602 240.166 320.223C233.654 324.013 223.879 321.53 218.923 314.827C216.329 311.318 214.523 311.228 210.729 314.421C209.121 315.774 206.151 317.192 204.13 317.571C196.802 318.946 185.478 310.24 183.299 301.557C182.242 297.346 179.289 296.037 171.184 296.187C165.108 296.3 163.463 295.949 160.423 293.891C154.12 289.623 151.436 281.356 153.983 274.051C155.588 269.447 152.561 266.379 145.771 265.726C137.589 264.94 132.864 258.705 132.864 248.695C132.864 243.231 134.006 240.861 139.114 235.722C142.055 232.763 141.35 229.285 137.434 227.427C131.864 224.784 130.373 217.84 133.769 210.362C136.026 205.393 140.38 202.11 145.982 201.154C151.459 200.219 152.629 198.309 150.913 193.109C147.963 184.17 153.012 175.137 162.5 172.379C165.511 171.503 170.257 170.939 173.046 171.124C178.735 171.502 179.153 171.129 180.91 164.1C182.265 158.682 185.733 155.374 192.016 153.509C198.608 151.551 207.142 153.564 210.937 157.972C214.14 161.693 216.394 161.767 218.243 158.211C219.814 155.191 223.518 151.525 225.864 150.667C228.91 149.554 235.056 150.008 238.164 151.575ZM227.244 160.413C226.481 162.402 227.611 163.961 229.816 163.961C231.735 163.961 233.275 161.434 232.308 159.871C231.419 158.431 227.858 158.813 227.244 160.413ZM126.596 163.474C130.249 164.559 133.626 166.742 138.528 171.188L145.364 177.388L145.004 186.424C144.806 191.395 144.581 195.51 144.504 195.57C144.427 195.63 143.126 195.977 141.614 196.339C139.8 196.774 138.864 196.599 138.864 195.824C138.864 192.192 125.394 180.897 122.9 182.439C120.981 183.625 121.844 186.854 124.563 188.664C126.047 189.652 129.15 192.386 131.458 194.738L135.656 199.015L132.626 202.045C129.635 205.036 129.515 205.063 123.379 204.108C119.235 203.463 115.529 203.485 112.263 204.176C107.067 205.275 105.702 206.375 106.607 208.733C107.046 209.878 108.372 210.049 112.875 209.539C116.017 209.184 120.449 209.191 122.725 209.555L126.864 210.217V215.945V221.674L119.647 222.345C112.311 223.026 107.41 225.127 108.147 227.275C108.436 228.119 111.5 228.355 118.769 228.093C128.296 227.75 129.148 227.879 131.416 230.01L133.847 232.294L131.436 235.455C130.11 237.194 128.381 240.832 127.593 243.539L126.161 248.461L118.698 249.076C114.594 249.415 110.197 250.248 108.927 250.927C106.94 251.991 105.868 251.784 101.257 249.451C88.0074 242.747 82.1954 229.136 87.7274 217.765C88.8794 215.398 92.2913 210.636 95.3113 207.184C102.539 198.918 103.565 195.393 101.883 184.584C100.384 174.946 100.85 172.119 104.635 167.911C109.596 162.396 117.552 160.788 126.596 163.474ZM359.229 166.972C353.712 169.728 347.278 173.627 344.93 175.636L340.662 179.29L333.763 177.068C329.969 175.846 326.864 174.653 326.864 174.417C326.864 173.163 349.507 165.167 357.864 163.469C369.413 161.123 369.661 161.761 359.229 166.972ZM190.17 164.606C189.783 165.615 190.261 166.778 191.406 167.615C192.99 168.774 193.49 168.764 194.705 167.548C195.493 166.761 195.865 165.406 195.532 164.539C194.735 162.462 190.975 162.509 190.17 164.606ZM258.629 171.155C257.75 173.767 259.083 175.961 261.547 175.961C263.63 175.961 263.949 175.549 263.68 173.211C263.459 171.286 262.719 170.369 261.216 170.155C260.035 169.986 258.87 170.436 258.629 171.155ZM207.364 172.571C198.859 174.617 185.558 181.465 180.454 186.425C178.066 188.746 173.019 195.316 169.238 201.025C165.457 206.733 159.324 214.53 155.608 218.35C149.113 225.027 148.911 225.384 150.358 227.593C151.186 228.857 151.866 230.469 151.867 231.176C151.869 231.883 153.163 235.632 154.743 239.508C156.322 243.384 159.297 251.484 161.355 257.508C163.412 263.532 166.608 270.743 168.457 273.531C175.252 283.777 191.282 296.877 202.864 301.648C213.362 305.972 231.95 304.231 244.034 297.79C255.996 291.414 269.948 274.613 279.6 254.961C283.386 247.254 287.693 240.008 289.638 238.075C292.028 235.7 292.898 234.058 292.551 232.575C291.532 228.217 280.005 203.027 277.094 198.795C268.798 186.737 253.011 175.722 239.35 172.461C231.732 170.643 215.144 170.699 207.364 172.571ZM233.172 177.035C237.948 177.747 243.405 179.57 249.417 182.461C256.914 186.066 259.702 188.111 265.634 194.356C272.643 201.734 279.678 212.871 276.579 211.682C275.775 211.373 272.117 209.067 268.451 206.558C261.102 201.526 252.306 198.465 247.456 199.252C245.559 199.56 243.536 199.194 242.353 198.329C235.877 193.594 216.654 191.351 209.21 194.461C207.053 195.362 202.485 195.961 197.77 195.961C191.538 195.961 188.737 196.485 184.176 198.502C181.017 199.899 177.629 201.769 176.648 202.656C171.681 207.152 178.402 196.378 183.883 191.059C187.989 187.074 198.515 181.116 205.266 178.955C213.998 176.159 223.11 175.532 233.172 177.035ZM332.793 182.678C345.94 187.084 354.003 197.755 352.452 208.699C350.491 222.546 350.661 228.254 353.294 236.887C356.103 246.097 356.535 254.338 354.508 260.008C350.804 270.366 340.027 279.855 330.981 280.724C326.986 281.108 324.617 280.553 317.74 277.625C313.133 275.664 307.227 273.534 304.614 272.891C299.505 271.635 298.373 269.552 302.268 268.575C303.59 268.243 306.952 266.169 309.738 263.966C312.525 261.763 315.381 259.962 316.085 259.964C316.788 259.965 320.014 261.564 323.253 263.517C329.395 267.221 331.864 267.378 331.864 264.065C331.864 262.746 329.985 260.98 326.114 258.661C322.951 256.766 319.751 255.03 319.003 254.802C318.182 254.552 317.561 252.711 317.437 250.169C317.322 247.787 316.352 244.756 315.21 243.206C314.098 241.696 313.377 239.899 313.609 239.211C314.162 237.573 324.321 237.556 330.404 239.183C334.183 240.194 335.119 240.166 335.825 239.024C336.295 238.264 336.449 237.043 336.168 236.31C335.517 234.614 326.68 231.961 321.682 231.961H317.864V227.481C317.864 225.017 317.133 221.174 316.239 218.94C315.345 216.706 314.782 214.784 314.989 214.67C315.195 214.555 317.161 213.561 319.358 212.461C324.594 209.839 332.088 202.364 331.668 200.183C331.07 197.077 328.049 197.783 323.678 202.051C321.305 204.368 317.511 207.09 315.245 208.101C311.167 209.921 311.086 209.917 306.963 207.7C303.718 205.955 302.914 205.02 303.318 203.461C303.603 202.361 303.843 199.343 303.85 196.755L303.864 192.049L310.662 188.079C314.401 185.895 318.563 183.184 319.912 182.054C322.562 179.834 324.602 179.932 332.793 182.678ZM162.9 182.417C161.401 184.224 162.364 185.961 164.864 185.961C165.899 185.961 167.036 185.491 167.391 184.917C168.054 183.844 166.212 180.961 164.864 180.961C164.449 180.961 163.565 181.616 162.9 182.417ZM284.458 193.575C284.095 194.521 284.215 195.712 284.725 196.222C286.273 197.77 289.364 196.588 289.364 194.447C289.364 191.869 285.385 191.162 284.458 193.575ZM228.645 199.472C232.1 200.286 236.695 201.854 238.856 202.957C241.202 204.154 244.754 204.961 247.675 204.961C254.319 204.961 258.003 206.4 267.228 212.598C271.554 215.504 276.507 218.348 278.235 218.918C280.674 219.723 281.73 220.935 282.951 224.331L284.524 228.706L280.944 227.719C274.529 225.95 267.691 222.947 260.928 218.93C237.337 204.915 203.609 204.592 174.947 218.108C170.227 220.334 164.811 222.41 162.913 222.722L159.462 223.288L163.341 218.554C166.096 215.193 167.758 213.962 169.078 214.307C170.281 214.621 172.6 213.352 175.65 210.71C183.33 204.057 189.96 201.465 199.364 201.438C203.764 201.426 208.489 200.918 209.864 200.309C215.822 197.672 220.185 197.477 228.645 199.472ZM84.5414 209.305C84.8604 209.623 84.1454 211.96 82.9524 214.496C81.7604 217.033 80.5274 220.395 80.2134 221.967C79.6684 224.693 79.3334 224.852 73.0034 225.384C58.3444 226.616 49.1504 228.197 40.4494 230.985C29.4184 234.518 26.9124 236.107 28.4394 238.599C29.3944 240.157 31.5204 240.37 47.4394 240.499C62.2364 240.62 66.8154 241.021 73.6774 242.803C78.2504 243.99 82.9064 244.961 84.0244 244.961C85.1424 244.961 88.1514 246.82 90.7114 249.093C93.2704 251.365 96.7534 253.816 98.4514 254.538L101.537 255.851L98.9514 261.36C96.3804 266.835 96.3314 266.873 90.8644 267.657C79.6724 269.263 63.0574 268.31 53.5424 265.517C42.6374 262.316 39.1094 260.533 25.8644 251.523C20.0894 247.595 13.9254 243.792 12.1674 243.072L8.97036 241.762L18.0464 233.112C33.7724 218.122 40.5864 213.874 55.3644 209.846C60.8394 208.353 64.7164 208.023 73.1634 208.331C79.1024 208.548 84.2224 208.986 84.5414 209.305ZM141.2 211.528C140.869 212.39 141.078 213.575 141.664 214.161C143.219 215.716 145.864 214.351 145.864 211.992C145.864 209.526 142.111 209.153 141.2 211.528ZM213.864 214.435C213.864 214.696 212.516 215.607 210.869 216.458C204.189 219.913 200.296 233.724 203.382 243.016C208.64 258.845 229.556 264.462 241.856 253.349C250.684 245.373 251.154 228.014 242.775 219.369L239.578 216.071L244.306 217.493C246.906 218.276 252.551 220.816 256.85 223.138C263.586 226.776 264.807 227.852 265.682 230.911C267.831 238.433 268.014 242.826 266.44 249.14C265.139 254.357 264.121 256.122 260.614 259.243C253.124 265.909 245.772 268.843 233.715 269.979C218.552 271.408 205.722 269.358 194.364 263.691C189.686 261.358 178.286 252.523 177.614 250.71C177.359 250.023 177.226 244.736 177.319 238.961C177.55 224.544 179.025 221.606 187.309 219.06C192.538 217.453 196.324 216.564 206.364 214.587C209.393 213.99 213.864 213.9 213.864 214.435ZM228.275 221.038C231.261 224.587 231.564 227.53 229.209 230.132C226.97 232.606 221.418 232.515 218.864 229.961C216.188 227.285 216.013 219.33 218.614 218.65C223.297 217.427 225.746 218.032 228.275 221.038ZM241.948 228.714C243.593 233.7 242.667 243.398 240.228 246.724C236.872 251.302 232.249 253.111 224.842 252.744C219.927 252.501 217.495 251.834 214.975 250.04C208.751 245.608 206.293 235.936 209.364 227.961C210.277 225.591 210.738 225.106 210.792 226.461C210.933 230.012 214.79 235.032 218.6 236.624C223.885 238.832 229.444 237.843 233.271 234.015C235.933 231.351 236.354 230.224 236.291 225.932L236.218 220.945L238.512 223.1C239.774 224.285 241.32 226.812 241.948 228.714ZM299.244 224.413C298.475 226.416 299.616 227.961 301.864 227.961C304.165 227.961 305.073 226.669 304.26 224.551C303.497 222.561 299.992 222.465 299.244 224.413ZM172.358 228.211C172.059 229.448 171.488 233.087 171.089 236.297L170.364 242.133L165.198 235.797L160.032 229.461L165.698 227.829C173.23 225.66 172.978 225.646 172.358 228.211ZM184.451 228.274C181.798 230.214 183.053 232.965 186.583 232.946C190.297 232.925 192.138 231.63 191.704 229.341C191.257 226.985 187.058 226.368 184.451 228.274ZM251.822 228.511C249.817 230.928 253.088 233.508 257.614 233.079C259.579 232.893 259.074 229.144 256.93 227.996C254.306 226.592 253.334 226.69 251.822 228.511ZM81.1744 235.068C82.7804 239.158 82.7784 239.172 80.5754 238.574C77.7484 237.807 63.8664 235.31 57.3644 234.399C54.6144 234.014 52.8814 233.51 53.5124 233.28C55.6584 232.499 67.3404 231.215 73.4624 231.088L79.5614 230.961L81.1744 235.068ZM278.672 233.092L280.98 233.956L278.672 237.794C277.403 239.905 275.6 242.718 274.666 244.046C272.981 246.444 272.968 246.422 272.903 240.961C272.866 237.936 272.552 234.397 272.204 233.097C271.53 230.579 271.956 230.578 278.672 233.092ZM188.364 240.904C185.078 241.528 183.592 245.259 186.227 246.27C188.844 247.274 193.344 245.461 193.667 243.271C194.027 240.83 192.453 240.128 188.364 240.904ZM177.736 258.793C189.593 269.681 202.895 274.894 220.864 275.693C235.286 276.334 245.548 274.842 253.364 270.968L259.364 267.994L254.864 271.988C247.688 278.357 241.761 280.078 224.864 280.699C212.21 281.164 209.286 280.959 201.9 279.09C181.244 273.865 172.168 266.161 164.14 247.041C162.888 244.06 161.864 241.461 161.864 241.265C161.864 241.07 164.619 244.184 167.986 248.185C171.353 252.187 175.74 256.96 177.736 258.793ZM250.166 243.617C249.413 245.578 253.11 248.961 256.006 248.961C259.067 248.961 259.515 245.965 256.77 243.855C253.769 241.548 250.998 241.448 250.166 243.617ZM140.455 246.814C139.337 248.623 141.066 251.074 143.241 250.764C146.151 250.349 146.124 246.569 143.208 246.154C142.023 245.985 140.784 246.282 140.455 246.814ZM296.114 251.623C294.617 252.227 294.45 255.587 295.873 256.467C297.598 257.532 300.864 255.919 300.864 254.001C300.864 252.592 298.57 250.553 297.532 251.04C297.44 251.083 296.802 251.346 296.114 251.623ZM129.661 260.186C131.358 263.61 132.66 266.442 132.555 266.478C132.45 266.514 130.451 267.769 128.114 269.267C124.984 271.272 123.864 272.644 123.864 274.475C123.864 276.269 124.404 276.961 125.805 276.961C126.873 276.961 128.056 276.46 128.434 275.848C128.812 275.235 131.143 273.84 133.614 272.748C137.127 271.194 139.251 270.904 143.366 271.418L148.626 272.075L147.721 276.103C147.223 278.319 146.939 280.803 147.09 281.623C147.263 282.563 145.978 283.596 143.612 284.42C138.86 286.075 132.864 290.606 132.864 292.543C132.864 294.593 135.8 295.526 137.75 294.095C138.638 293.444 141.347 291.97 143.772 290.82L148.18 288.728L150 291.094C152.684 294.585 152.283 299.803 148.794 306.784C145.611 313.156 145.634 314.961 148.903 314.961C151.163 314.961 156.84 305.776 156.855 302.094C156.863 300.024 157.208 299.809 159.614 300.376C161.126 300.732 164.285 301.294 166.633 301.625L170.902 302.225L161.893 311.538C156.939 316.659 152.13 322.432 151.208 324.366C149.179 328.62 145.869 329.961 137.394 329.961C129.341 329.961 121.59 326.212 117.532 320.355C114.951 316.629 114.617 315.149 113.925 304.355C113.125 291.894 112.673 290.533 105.33 278.461C100.914 271.201 102.717 261.724 109.341 257.384C112.458 255.341 116.969 254.2 122.47 254.063C126.535 253.962 126.605 254.021 129.661 260.186ZM197.064 255.161C195.064 257.161 195.573 260.961 197.841 260.961C200.062 260.961 203.385 256.612 202.391 255.005C201.521 253.596 198.541 253.684 197.064 255.161ZM242.949 254.908C240.994 256.116 242.003 262.376 244.22 262.797C246.953 263.315 248.154 261.559 247.404 258.143C246.697 254.926 244.961 253.665 242.949 254.908ZM209.273 262.469C208.426 265.841 210.198 267.871 212.642 266.33C215.217 264.705 214.885 260.535 212.149 260.146C210.465 259.907 209.776 260.463 209.273 262.469ZM227.698 263.427C226.713 265.589 226.788 266.313 228.136 267.662C229.503 269.029 230.02 269.077 231.364 267.961C233.435 266.242 232.93 261.585 230.625 261.148C229.531 260.941 228.445 261.786 227.698 263.427ZM194.864 283.117C204.053 286.16 204.912 286.261 221.1 286.187C239.402 286.104 246.242 284.853 253.206 280.315C255.319 278.938 257.251 278.014 257.499 278.263C258.537 279.301 245.778 290.674 240.783 293.164C233.736 296.677 220.118 299.388 213.471 298.601C204.554 297.545 189.267 288.402 179.864 278.501L176.364 274.815L180.864 277.393C183.339 278.811 189.639 281.387 194.864 283.117ZM280.939 277.37C279.078 279.613 280.557 283.146 283.2 282.769C284.867 282.532 285.364 281.775 285.364 279.475C285.364 276.099 282.948 274.95 280.939 277.37ZM360.918 281.596C369.659 286.14 381.173 295.41 387.576 303.061C395.193 312.162 399.571 321.209 402.406 333.704C406.155 350.231 408.193 348.562 385.116 347.859C370.341 347.409 363.978 346.814 359.864 345.498C350.98 342.655 342.694 338.065 334.057 331.2L331.75 329.366L334.458 324.145C336.454 320.299 337.293 316.955 337.647 311.443C337.947 306.763 338.556 303.961 339.274 303.961C341.138 303.961 354.578 310.668 359.499 314.054C362.001 315.775 366.315 319.197 369.085 321.657C373.48 325.561 374.307 325.947 375.569 324.685C379.485 320.769 369.623 305.433 353.588 290.501L344.364 281.912L347.364 279.449C350.818 276.613 351.556 276.73 360.918 281.596ZM314.864 282.625C322.102 285.668 323.773 286.831 326.116 290.463C330.663 297.508 331.864 301.43 331.864 309.233C331.864 321.774 326.039 330.298 315.25 333.545C312.663 334.324 309.38 334.964 307.955 334.967C302.091 334.979 297.66 337.188 291.07 343.386C281.862 352.045 277.165 354.317 268.364 354.37C257.149 354.438 249.746 349.467 243.931 337.961C239.745 329.677 239.382 327.279 242.105 325.879C245.781 323.987 249.864 319.723 249.864 317.774C249.864 316.242 250.721 315.961 255.389 315.961C260.399 315.961 261.004 316.2 261.889 318.526C262.425 319.937 262.864 323.001 262.864 325.335C262.864 330.789 264.944 333.97 267.256 332.051C269.136 330.491 269.378 324.352 267.786 318.619C266.741 314.856 266.804 314.704 270.872 311.222C273.156 309.267 275.44 306.575 275.948 305.241L276.87 302.815L279.409 305.832C280.805 307.492 282.75 311.209 283.73 314.093C285.709 319.913 288.051 322.174 290.042 320.183C291.96 318.265 289.501 310.456 284.9 303.85L280.991 298.239L285.178 297.014C287.48 296.34 290.397 295.128 291.66 294.322C294.578 292.457 297.166 293.267 302.666 297.767C306.47 300.88 307.139 301.115 308.452 299.801C309.269 298.984 309.67 297.674 309.342 296.889C308.795 295.576 303.106 290.748 300.087 289.035C299.078 288.462 299.047 287.208 299.938 283.052C301.01 278.055 301.197 277.826 303.715 278.423C305.172 278.769 310.189 280.66 314.864 282.625ZM160.454 281.815C159.461 283.422 161.007 286.08 162.74 285.746C164.87 285.336 164.844 281.581 162.707 281.169C161.796 280.994 160.782 281.285 160.454 281.815ZM344.992 290.565C352.648 296.829 363.264 307.895 362.423 308.735C362.122 309.036 361.086 308.569 360.12 307.698C357.453 305.293 344.226 299.202 340.055 298.459C336.819 297.882 336.062 297.163 333.916 292.631C332.569 289.787 331.444 287.24 331.416 286.971C331.387 286.701 332.714 286.192 334.364 285.839C336.014 285.486 337.539 285.144 337.753 285.079C337.966 285.014 341.224 287.483 344.992 290.565ZM256.093 299.132C254.449 300.776 254.543 302.45 256.364 303.961C258.367 305.623 261.081 303.475 260.662 300.559C260.314 298.133 257.859 297.366 256.093 299.132ZM178.32 304.641C178.692 306.125 179.838 308.521 180.867 309.965C183.114 313.12 182.363 318.047 178.893 322.92C176.457 326.342 176.782 328.961 179.645 328.961C181.589 328.961 185.27 324.653 186.828 320.555L187.754 318.12L192.559 320.5C195.202 321.809 198.208 323.131 199.24 323.437C202.149 324.302 201.022 332.576 197.337 337.408C195.175 340.242 194.732 341.528 195.498 342.742C197.293 345.589 198.698 345.173 201.813 340.872C205.328 336.02 207.28 329.792 206.503 325.908C206.032 323.549 206.414 323.048 209.665 321.771C211.7 320.972 213.803 320.125 214.341 319.89C214.878 319.654 215.857 321.891 216.516 324.861C217.56 329.559 217.469 331.051 215.819 336.354C214.21 341.524 214.131 342.656 215.297 343.823C216.053 344.579 217.212 344.864 217.872 344.456C220.098 343.08 222.82 335.495 222.842 330.604C222.861 326.376 223.091 325.84 224.614 326.464C225.576 326.859 228.277 327.416 230.614 327.702C233.933 328.107 234.864 328.635 234.864 330.113C234.864 332.139 239.607 342.737 242.473 347.114C244.123 349.635 244.122 349.997 242.448 354.381C238.211 365.473 224.634 375.459 213.877 375.395C204.198 375.336 198.699 372.712 189.538 363.778C180.083 354.557 176.336 352.368 166.503 350.32C158.604 348.675 155.523 346.487 153.814 341.31C151.443 334.124 155.027 326.804 166.955 314.474C172.704 308.531 175.864 304.481 175.864 303.054C175.864 300.165 177.454 301.192 178.32 304.641ZM194.114 303.628C192.449 304.294 192.514 307.613 194.205 308.261C196.194 309.025 198.11 307.475 197.712 305.424C197.334 303.471 196.076 302.843 194.114 303.628ZM109.179 312.711C109.492 316.698 109.372 319.961 108.914 319.961C107.168 319.961 97.5893 329.488 93.3193 335.472C85.2853 346.73 80.8134 360.014 84.1304 362.767C86.0834 364.387 88.2614 363.456 89.9654 360.272C92.0104 356.451 106.86 342.901 114.953 337.471L122.008 332.738L128.182 334.47C132.706 335.739 136.161 336.035 141.11 335.575L147.864 334.947V337.826C147.864 341.434 139.551 354.369 133.06 360.86C122.581 371.339 107.595 375.621 77.7794 376.655L59.8644 377.276V375.101C59.8644 371.31 63.9754 353.775 66.5744 346.482C71.2974 333.226 78.8574 322.839 90.0844 314.177C96.3494 309.344 107.044 303.706 107.973 304.747C108.323 305.14 108.866 308.724 109.179 312.711ZM227.573 308.585C226.414 309.744 226.767 312.762 228.114 313.215C230.661 314.072 232.974 312.733 232.666 310.581C232.367 308.481 228.997 307.161 227.573 308.585ZM115.37 326.967C116.368 328.071 117 329.111 116.775 329.28C116.549 329.448 113.439 331.638 109.864 334.146C106.289 336.654 101.001 340.83 98.1144 343.426C95.2274 346.022 92.8644 347.743 92.8644 347.249C92.8644 343.643 109.011 324.961 112.129 324.961C112.913 324.961 114.371 325.864 115.37 326.967ZM310.699 345.711C319.555 359.532 322.864 371.994 322.864 391.526C322.864 402.478 322.658 404.096 321.331 403.587C320.489 403.263 316.551 402.025 312.581 400.835C299.369 396.875 288.609 390.611 279.682 381.684C274.139 376.14 264.627 362.153 265.472 360.787C265.752 360.333 267.868 359.958 270.173 359.955C272.478 359.952 276.112 359.465 278.248 358.872C282.104 357.801 282.169 357.831 287.55 363.127C290.53 366.061 295.049 371.498 297.592 375.211C303.89 384.403 306.878 384.216 306.853 374.629C306.84 369.374 305 363.288 300.445 353.429C298.475 349.167 296.864 345.562 296.864 345.418C296.864 345.275 298.326 344.221 300.114 343.076C305.209 339.813 307.244 340.319 310.699 345.711ZM149.849 352.297C141.676 364.595 137.816 384.962 141.194 397.961C142.096 401.43 142.881 402.534 144.618 402.781C145.867 402.958 147.033 402.513 147.232 401.781C147.429 401.055 148.123 398.239 148.774 395.522C149.425 392.806 151.337 387.406 153.023 383.522C156.234 376.127 168.514 356.961 170.042 356.961C172.504 356.961 177.785 360.166 181.222 363.748L185.08 367.767L183.07 373.114C180.687 379.453 175.087 389.529 170.409 395.894C166.561 401.13 157.937 409.456 142.62 422.723L131.927 431.985L130.436 426.723C127.456 416.203 124.585 398.254 124.476 389.461C124.31 376.088 124.982 374.094 131.046 369.979C136.233 366.459 143.578 358.396 147.757 351.634C149.01 349.607 150.466 348.215 150.993 348.541C151.539 348.878 151.046 350.495 149.849 352.297ZM297.345 360.223C298.901 363.942 299.992 367.136 299.769 367.321C299.546 367.506 296.712 364.786 293.471 361.276L287.578 354.894L289.885 352.439C292.023 350.163 292.276 350.111 293.353 351.722C293.992 352.679 295.788 356.504 297.345 360.223ZM161.614 354.947C163.614 354.969 163.103 356.36 159.238 361.422C157.244 364.033 153.428 370.285 150.758 375.315C146.163 383.97 145.901 384.265 145.883 380.816C145.873 378.812 146.814 374.087 147.975 370.316C151.626 358.458 154.875 353.459 158.325 354.386C159.446 354.687 160.927 354.94 161.614 354.947Z" fill="#FFC4C4"/>
</svg>
