<svg width="457" height="156" viewBox="0 0 457 156" fill="none" xmlns="http://www.w3.org/2000/svg">
<path fill-rule="evenodd" clip-rule="evenodd" d="M203 1.10612C199.806 2.37612 195.225 6.71298 193.411 10.185C192.635 11.671 192 14.9859 192 17.5519C192 21.9489 191.87 22.1751 189.75 21.4611C188.513 21.0451 185.025 20.5089 182 20.2709C177.453 19.9139 175.894 20.2431 173 22.1711C171.075 23.4541 168.825 25.9521 168 27.7231C167.175 29.4931 166.131 30.9511 165.679 30.9631C165.228 30.9751 161.969 28.923 158.438 26.403C145.922 17.473 132.373 12.2269 119.431 11.3019C112.177 10.7839 109.745 11.141 95.358 14.832C86.556 17.09 76.102 19.24 72.127 19.61C65.57 20.219 64.928 20.4731 65.2 22.3461C65.428 23.9181 67.159 24.9781 72.459 26.7931C84.518 30.9231 88.629 34.65 99.17 51.007C108.216 65.046 114.438 70.8891 124.908 75.1801L129.5 77.0619L119 76.495C113.225 76.184 100.175 74.722 90 73.246C64.252 69.512 43.816 69.46 33 73.102C24.328 76.022 20.343 78.3911 9.68903 86.9621C1.43503 93.6011 0 95.4351 0 99.3361C0 102.617 1.25799 102.894 8.45599 101.198C17.955 98.9599 30.11 100.186 42.416 104.623C66.547 113.323 69.6191 114.217 77.1841 114.735C90.2241 115.629 99.706 112.702 120 101.521C122.475 100.157 124.958 99.0291 125.518 99.0131C126.142 98.9961 126.557 102.96 126.589 109.235C126.618 114.872 126.787 123.985 126.966 129.485C127.232 137.683 126.906 140.601 125.154 145.677C122.171 154.322 123.539 156.838 130.186 154.932C132.001 154.411 135.965 153.98 138.993 153.973C157.06 153.934 174.982 141.459 183.838 122.759C185.993 118.208 188.022 113.696 188.348 112.731C188.903 111.088 189.145 111.103 192.22 112.978C194.15 114.154 197.266 114.979 199.79 114.981C203.933 114.985 211.177 112.126 212.516 109.959C212.908 109.324 214.78 110.36 217.214 112.559C220.959 115.942 221.625 116.179 226.166 115.743C229.632 115.41 232.443 114.287 235.739 111.921C239.025 109.561 242.044 108.353 245.952 107.835C249.004 107.43 252.455 106.811 253.623 106.459C255.435 105.912 255.842 106.327 256.397 109.288C257.834 116.949 270.138 126.437 281.799 128.876C284.714 129.486 292.814 129.993 299.799 130.002C313.169 130.021 324.551 131.806 328.722 134.538C330.064 135.418 331.742 135.914 332.452 135.642C335.283 134.555 335.034 130.032 331.553 119.297C329.641 113.4 328.184 108.468 328.315 108.336C328.447 108.205 330.567 108.561 333.027 109.127C335.487 109.693 343.35 109.956 350.5 109.712C362.068 109.317 365.042 108.814 377.5 105.14C396.327 99.5871 409.224 98.178 421.5 100.331C431.726 102.125 440.886 105.572 448.686 110.561C455.34 114.817 457 114.918 457 111.066C457 104.964 440.117 89.941 425.5 83.037C408.603 75.056 393.66 72.913 360.788 73.755C339.825 74.292 334.207 73.6871 322.123 69.5881C311.947 66.1361 303.287 59.985 308.603 59.985C311.557 59.985 326.444 52.3461 331.796 48.0841C337.766 43.3291 345.26 33.719 348.248 26.985C352.279 17.902 355 10.5591 355 8.76408C355 5.76808 352.251 5.59595 348.938 8.38395C347.237 9.81495 344.643 11.323 343.173 11.735C339.665 12.719 328.269 12.5441 314 11.2861C293.37 9.46705 281.17 12.544 270.708 22.204C266.436 26.148 265.616 26.497 260.286 26.642L254.5 26.799L254.838 22.0241C255.444 13.4511 248.485 4.28293 239.537 1.86393C236.187 0.958933 234.792 1.11708 230.518 2.88908C224.05 5.57008 222.689 5.52503 218.215 2.48503C214.265 -0.198973 207.764 -0.78788 203 1.10612ZM216.307 8.14201C220.644 11.213 225.031 11.5069 230.488 9.09294C236.575 6.40094 237.737 6.44208 242.257 9.51408C246.614 12.4741 249.2 16.953 249.2 21.539C249.2 26.045 248.627 26.8121 239.183 34.9591C231.219 41.8301 230.736 42.088 227.784 41.059C223.493 39.564 217.572 39.719 213.463 41.436L209.991 42.8871L207.862 38.686C206.692 36.375 204.437 32.8369 202.853 30.8229C196.276 22.4649 195.57 14.687 200.921 9.55998C205.92 4.77098 210.899 4.31201 216.307 8.14201ZM333.751 17.474C340.489 17.48 346.001 17.6761 346.001 17.9101C345.997 19.7821 338.184 33.4249 334.967 37.1769C329.756 43.2539 319.34 50.0949 310.461 53.2709C301.828 56.3599 286.148 58.5339 279.594 57.5509L274.765 56.8271L275.215 51.4071C275.462 48.4261 275.993 45.659 276.394 45.258C276.795 44.857 280.808 44.233 285.312 43.873C295.051 43.093 304.373 40.1091 312.241 35.2541C319.782 30.6011 320.797 29.3531 318.726 27.2831C317.257 25.8131 316.56 26.0191 310.312 29.7641C302.044 34.7211 293.731 37.5701 284.809 38.5041L278.119 39.205L276.521 35.382C275.643 33.279 274.245 30.808 273.415 29.891C272.044 28.376 272.344 27.9061 276.703 24.7411C287.264 17.0741 292.622 15.7429 309 16.7179C315.875 17.1279 327.013 17.468 333.751 17.474ZM134.806 20.2279C141.47 22.5959 145.433 24.7631 160.576 34.3261C163.854 36.3961 165.485 38.054 165.18 39.008C164.791 40.229 160.745 45.9939 157.956 49.3009C157.577 49.7499 154.17 48.1201 150.384 45.6781C134.547 35.4641 119.328 29.6401 109.883 30.1781C105.269 30.4411 104.5 30.771 104.5 32.485C104.5 34.193 105.523 34.6411 111.5 35.5531C115.35 36.1411 120.3 37.213 122.5 37.935C132.591 41.247 155.277 54.423 157.022 57.985C157.427 58.81 158.478 61.1689 159.359 63.2279L160.961 66.9711L156.231 69.3329C152.09 71.4009 150.184 71.6811 140.947 71.5751C131.173 71.4621 129.903 71.212 123.749 68.182C115.83 64.284 111.658 59.8169 101.316 44.1669C96.101 36.2739 92.214 31.5919 88.472 28.6969C85.521 26.4139 83.2651 24.3861 83.4601 24.1921C83.6551 23.9971 89.368 22.3041 96.157 20.4291C111.77 16.1181 123.07 16.0589 134.806 20.2279ZM189.236 27.2289C193.23 28.3619 194.659 29.507 198.353 34.529C204.32 42.643 205.255 45.714 202.818 49.195C201.775 50.685 200.399 54.1029 199.761 56.7909C198.656 61.4419 198.309 61.8159 192.55 64.5719C187.468 67.0039 185.24 67.468 178.624 67.476C171.561 67.484 170.593 67.253 169.252 65.235C168.429 63.997 167.18 62.985 166.476 62.985C165.106 62.985 163 57.9711 163 54.7121C163 53.6261 164.756 50.1079 166.902 46.8949C169.617 42.8279 171.019 39.446 171.514 35.768C172.324 29.739 173.287 28.2211 177.5 26.3351C180.614 24.9401 181.369 24.9979 189.236 27.2289ZM267.343 33.0951C271.478 34.9791 272.084 37.8651 270.229 46.8351C268.591 54.7571 268.598 54.903 270.856 60.351C272.666 64.717 272.91 66.2851 272.034 67.9211C270.389 70.9951 266.4 73.2409 261.164 74.0409C257.366 74.6209 255.665 74.3329 252 72.4889C249.525 71.2439 245.138 69.9039 242.25 69.5109C239.362 69.1189 237 68.5991 237 68.3561C237 68.1131 237.656 66.9131 238.458 65.6901C240.252 62.9511 239.087 52.574 236.551 48.703C234.941 46.246 234.99 46.1541 240.618 41.1381C248.797 33.8481 260.961 30.1871 267.343 33.0951ZM229.632 49.5561C232.649 52.7551 233 53.725 233 58.86C233 64.03 232.681 64.8951 229.75 67.6691C225.149 72.0241 222.841 72.985 216.989 72.985C212.668 72.985 211.391 72.5289 208.997 70.1349C205.563 66.7019 204.33 61.1639 205.862 56.0509C207.741 49.7799 213.571 46.0011 221.382 45.9911C225.688 45.9861 226.661 46.4061 229.632 49.5561ZM303.282 65.621C308.069 69.945 318.804 75.041 328.5 77.59C334.537 79.178 339.697 79.438 366 79.484C394.653 79.534 397.042 79.6789 405.442 81.8739C416.37 84.7299 427.087 89.5151 435.028 95.0861C438.313 97.3901 441 99.412 441 99.579C441 99.746 439.537 99.2799 437.75 98.5419C424.381 93.0279 401.552 92.588 383.5 97.497C361.839 103.387 359.24 103.97 351.796 104.606C346.172 105.087 341.45 104.767 334.303 103.422L324.512 101.579L317.006 93.9301C306.669 83.3961 294.389 76.0901 281.694 72.9201C278.183 72.0431 277.038 71.3289 277.444 70.2699C277.75 69.4729 278 67.5251 278 65.9411V63.06L287.25 62.7301C292.337 62.5491 297.12 62.307 297.879 62.193C298.637 62.078 301.069 63.621 303.282 65.621ZM204.341 73.6249C206.029 75.6039 208.772 77.3849 211.096 78.0109L215.01 79.0651L213.317 82.2751C212.21 84.3731 211.473 88.704 211.191 94.776C210.767 103.861 210.686 104.123 207.535 106.526C205.229 108.285 203.047 108.985 199.871 108.985C195.814 108.985 194.963 108.511 189.986 103.471C186.238 99.6761 182.823 97.3139 179.032 95.8959C171.281 92.9959 171 92.6291 171 85.4181C171 76.5911 172.997 74.5181 182.823 73.1481C186.85 72.5871 192.25 71.0669 194.823 69.7709C198.797 67.7679 199.65 67.6299 200.5 68.8539C201.05 69.6459 202.779 71.7929 204.341 73.6249ZM167.381 71.578C168.753 72.104 168.736 72.4581 167.226 74.7631C165.964 76.6891 165.523 79.5631 165.513 85.9211C165.502 92.9031 165.177 94.7259 163.75 95.7919C162.788 96.5099 162 97.905 162 98.892C162 100.992 157.267 107.899 152.168 113.241C148.838 116.73 148.7 117.114 150.231 118.645C151.755 120.168 152.068 120.17 154.358 118.67C158.157 116.181 165.647 105.897 167.035 101.262C168.202 97.3691 168.403 97.201 170.388 98.466C171.55 99.206 174.405 100.37 176.734 101.052C179.063 101.734 181.695 103.096 182.584 104.078C184.074 105.724 184.065 106.28 182.461 111.175C177.685 125.755 167.167 138.91 156 144.272C150.542 146.892 140.816 148.963 133.896 148.977L130.293 148.985L131.655 143.735C132.626 139.993 132.943 133.027 132.759 119.485C132.508 101.072 132.576 100.331 134.956 95.485C138.53 88.209 147.12 80.18 156.5 75.35C165.555 70.687 165.294 70.777 167.381 71.578ZM245.726 76.1571C251.364 77.5901 256.863 82.579 257.111 86.485C257.507 92.726 256.918 95.5751 254.643 98.4181C252.633 100.93 251.374 101.446 245.861 102.017C240.765 102.544 238.256 103.458 233.818 106.405C224.491 112.598 219.112 110.372 217.09 99.485C215.218 89.401 218.988 80.814 227.104 76.682C231.839 74.271 237.658 74.1071 245.726 76.1571ZM86 78.5961C96.507 80.1481 110.186 81.3921 120.233 81.7101L136.966 82.2399L133.899 86.112C130.849 89.964 130.793 89.985 123.664 89.985C119.722 89.985 110.872 91.128 103.998 92.526C87.627 95.855 73.71 95.9979 65.338 92.9259C57.426 90.0219 53.5 89.8669 53.5 92.4569C53.5 93.9429 55.223 95.173 60.5 97.453C67.198 100.347 68.104 100.477 81.5 100.456C92.491 100.439 97.7161 99.933 105.809 98.102C111.479 96.819 116.292 95.9439 116.505 96.1559C117.324 96.9749 101.416 105.085 95.2621 106.986C82.6711 110.875 70.823 109.484 51.726 101.876C38.212 96.4921 30.318 94.804 18.732 94.821L8.96399 94.8351L13.732 90.859C21.31 84.541 29.741 79.8191 36.885 77.8901C46.908 75.1851 64.628 75.4401 86 78.5961ZM276.973 78.4911C280.765 77.6581 293.976 82.8119 301.612 88.1039C314.246 96.8589 321.194 105.868 325.45 119.018C326.853 123.349 328 127.098 328 127.349C328 127.599 325.638 127.175 322.75 126.406C319.862 125.638 313.9 124.98 309.5 124.946C305.1 124.911 296.691 124.512 290.814 124.059C281.36 123.33 279.407 122.839 273.881 119.807C263.176 113.933 258.453 105.143 261.711 97.1571L263.04 93.9001L267.77 97.8341C270.372 99.9981 274.311 102.675 276.525 103.782C283.884 107.464 297.823 109.166 298.657 106.485C299.367 104.201 296.94 102.826 290.623 101.931C283.082 100.863 275.713 97.5001 270.214 92.6171C268.171 90.8031 265.769 89.0541 264.875 88.7311C263.981 88.4081 263.036 86.8711 262.774 85.3141C262.513 83.7581 262.119 81.838 261.899 81.047C261.627 80.066 262.612 79.4131 265 78.9911C266.925 78.6521 269.4 77.8679 270.5 77.2499C272.077 76.3629 272.676 76.4411 273.334 77.6171C273.911 78.6491 275.03 78.9181 276.973 78.4911Z" fill="#FFC4C4"/>
</svg>
