<svg width="303" height="592" viewBox="0 0 303 592" fill="none" xmlns="http://www.w3.org/2000/svg">
<path fill-rule="evenodd" clip-rule="evenodd" d="M79.743 2.37798C67.467 8.83198 58.642 20.9989 55.353 36.0069C55.029 37.4869 55.373 39.398 56.156 40.47C58.062 43.076 60.381 41.0201 61.235 35.9671C62.231 30.0741 67.157 20.5109 71.78 15.4939C76.247 10.6479 87.944 4.02297 88.594 5.97197C88.801 6.59297 87.43 8.74806 85.546 10.7601C78.09 18.7261 68.997 34.1271 66.074 43.7371C65.124 46.8621 64.238 49.579 64.106 49.774C63.974 49.969 62.504 48.5779 60.84 46.6819C56.873 42.1639 46.968 36.919 42.403 36.919C37.319 36.919 36.436 39.0821 38.949 45.3741C40.454 49.1421 41.139 53.963 41.656 64.419C42.159 74.601 42.81 79.291 44.044 81.617C45.684 84.708 50.647 89.069 53.752 90.147C54.801 90.512 55.812 93.9289 57.069 101.361C58.064 107.24 59.509 113.84 60.281 116.028L61.685 120.005L57.387 116.483C49.769 110.241 36.547 106.265 20.027 105.25C7.90699 104.504 1.19202 106.281 0.130022 110.514C-1.32298 116.304 9.65999 135 20.173 144.633C26.38 150.321 40.609 158.966 49.573 162.495C53.315 163.969 53.797 164.486 53.122 166.31C51.539 170.585 52.146 183.223 54.126 187.208C58.653 196.32 69.135 204.841 75.886 204.897C77.358 204.909 78.798 205.62 79.136 206.501C79.997 208.743 79.928 208.919 78.192 208.919C76.593 208.919 73.749 214.482 73.735 217.637C73.729 219.09 72.777 219.454 68.581 219.609C63.052 219.813 60.065 221.711 61.086 224.371C61.603 225.717 62.751 225.871 68.137 225.32L74.5701 224.66L76.598 228.634C79.266 233.864 84.841 238.659 89.207 239.478C93.595 240.301 96.755 244.933 96.045 249.501C95.042 255.949 100.8 269.265 106.76 274.28C111.274 278.078 121.379 282.581 128.493 283.964C134.472 285.127 134.743 285.307 134.743 288.129C134.743 289.751 135.89 293.946 137.293 297.451L139.843 303.825L135.37 309.622C127.122 320.311 125.508 321.682 120.24 322.472C113.415 323.495 104.827 321.656 93.8981 316.83C88.7591 314.561 81.774 312.122 78.376 311.411C74.979 310.7 70.353 309.622 68.097 309.014L63.995 307.91L64.497 299.104C64.89 292.2 64.522 288.266 62.789 280.886C57.914 260.124 61.308 249.572 75.192 242.317C78.756 240.455 80.739 238.783 80.741 237.638C80.75 230.379 64.151 240.242 58.317 250.961C54.042 258.814 53.791 266.479 57.292 282.194L60.089 294.751L58.391 303.39C57.457 308.142 56.956 312.455 57.277 312.974C57.598 313.494 59.297 313.93 61.052 313.943C64.422 313.968 71.566 315.409 72.386 316.229C72.653 316.495 71.3801 318.789 69.5571 321.326C67.7341 323.864 64.872 327.847 63.196 330.179C58.858 336.217 53.362 338.951 44.163 339.646C37.858 340.123 36.354 340.582 35.168 342.393C33.926 344.288 33.952 345.177 35.371 349.341C37.752 356.328 36.709 361.765 30.568 374.396C25.565 384.687 25.243 385.808 25.243 392.936C25.243 399.505 25.679 401.389 28.491 406.971C31.735 413.41 31.738 413.426 30.196 418.419C28.02 425.468 27.992 437.989 30.133 446.309C31.403 451.241 31.716 454.842 31.236 458.977C30.638 464.131 30.784 464.87 32.589 465.836C33.701 466.432 36.459 466.919 38.717 466.919C43.173 466.919 47.322 468.751 56.935 474.965C65.427 480.454 72.31 482.332 81.193 481.584C85.071 481.258 89.195 480.713 90.358 480.373C92.275 479.814 92.518 480.23 92.959 484.82C93.927 494.894 101.548 501.383 115.802 504.272L122.243 505.577L123.099 511.498C127.008 538.527 140.6 559.776 159.263 568.031C167.004 571.455 168.685 569.52 170.216 555.419C170.574 552.119 171.985 542.257 173.35 533.504C175.216 521.546 175.797 514.139 175.686 503.72L175.538 489.852L180.073 485.86L184.608 481.868L187.3 487.866C192.825 500.178 206.327 509.563 238.165 523.223L244.087 525.764L240.165 526.412C226.22 528.718 216.182 531.172 212.031 533.29C205.497 536.624 199.152 541.365 197.164 544.399C195.651 546.708 195.646 547.122 197.101 549.343C200.474 554.491 219.083 561.193 233.798 562.561C241.829 563.307 251.921 561.686 260.743 558.234C268.733 555.106 270.317 553.444 268.275 550.328C266.992 548.369 266.999 548.035 268.338 547.521C269.45 547.094 270.636 548.611 272.764 553.179C276.182 560.518 278.217 572.231 277.352 579.59C276.921 583.259 277.111 585.055 277.99 585.618C278.679 586.058 279.243 587.544 279.243 588.919C279.243 590.776 279.842 591.504 281.572 591.749C288.957 592.795 301.317 567.881 302.47 549.625C302.988 541.418 302.84 540.463 300.243 535.331C295.601 526.158 288.164 521.418 267.743 514.619C249.8 508.646 216.642 494.785 226.743 497.481C228.118 497.847 239.012 498.37 250.952 498.643C268.847 499.051 273.973 498.846 280.122 497.478C284.225 496.565 288.128 495.16 288.796 494.355C290.673 492.094 289.192 484.548 285.502 477.569C279.469 466.157 251.22 439.919 244.966 439.919C243.227 439.919 242.96 438.915 242.354 430.118C241.586 418.97 242.531 413.11 246.867 402.143C248.449 398.141 249.743 393.469 249.743 391.761C249.743 383.993 239.705 375.946 229.993 375.928C227.105 375.923 224.751 375.581 224.761 375.169C224.771 374.757 226.152 372.394 227.83 369.919C229.508 367.444 231.389 363.523 232.01 361.205C232.952 357.687 233.643 356.881 236.191 356.328C249.253 353.488 263.373 341.367 270.451 326.919C272.741 322.244 275.629 314.651 276.869 310.045C279.096 301.779 279.1 301.653 277.184 300.217C275.718 299.118 274.142 298.965 270.743 299.591C268.268 300.046 258.017 300.279 247.962 300.107C222.329 299.67 217.209 301.399 201.622 315.76C195.188 321.687 194.951 321.806 193.278 319.957C192.33 318.91 190.922 318.297 190.149 318.593C187.967 319.431 188.426 315.612 190.904 312.304C197.558 303.422 207.865 294.279 222.743 284.063C232.924 277.072 243.162 266.813 246.2 260.559C249.403 253.964 250.3 245.953 248.804 237.289C247.466 229.541 242.128 217.565 238.488 214.148L236.07 211.877L238.603 206.759C240.1 203.734 241.305 199.298 241.55 195.912L241.964 190.184L250.604 189.67C265.658 188.773 282.561 181.113 289.469 172.056C294.134 165.939 293.806 164.483 286.993 161.055C275.275 155.161 262.899 151.55 254.18 151.482L246.117 151.419L250.562 145.419C257.032 136.685 262.023 125.275 267.405 106.919C270.844 95.1861 271.919 73.8761 269.222 70.8951C266.568 67.9631 262.722 68.468 254.223 72.866C239.88 80.288 227.706 91.815 216.714 108.379L211.009 116.977L208.811 111.102C207.603 107.87 204.848 103.09 202.69 100.478C193.193 88.9851 174.245 77.0801 169.846 79.8421C167.337 81.4171 167.211 98.612 169.605 112.641C170.752 119.364 171.965 125.957 172.301 127.294C172.836 129.426 172.502 129.804 169.577 130.384C163.149 131.657 160.743 133.039 160.743 135.457C160.743 138.357 162.516 139.011 165.837 137.337C172.126 134.166 187.806 134.88 190.789 138.474C191.448 139.269 192.652 139.919 193.465 139.919C194.277 139.919 197.62 141.572 200.894 143.593C205.665 146.538 208.177 147.382 213.545 147.843C220.183 148.414 220.24 148.444 219.944 151.243C219.583 154.648 222.237 164.194 224.55 167.809C225.469 169.244 228.08 172.728 230.354 175.551C235.014 181.337 237.336 188.812 236.3 194.696C235.339 200.156 232.65 208.076 231.896 207.667C223.717 203.236 214.036 201.831 207.243 204.09C204.269 205.08 203.156 206.033 202.905 207.81C202.573 210.158 202.66 210.186 207.905 209.376C210.841 208.923 214.799 208.609 216.7 208.679C231.331 209.215 243.743 226.301 243.743 245.904C243.743 258.386 237.438 266.67 217.049 280.978C197.291 294.842 182.779 310.533 182.752 318.061C182.745 320.056 182.118 320.859 180.185 321.344C176.95 322.156 166.968 320.376 161.459 318.004C156.545 315.888 147.743 306.909 147.743 304.012C147.743 302.915 147.127 301.659 146.373 301.219C144.512 300.132 141.059 293.122 140.244 288.774L139.577 285.223L146.41 284.598C150.168 284.254 154.143 283.714 155.243 283.398C156.679 282.985 157.525 283.454 158.243 285.062C160.024 289.049 171.561 293.641 173.187 291.009C174.347 289.133 172.427 286.964 168.169 285.338C160.854 282.544 160.758 281.445 167.535 278.024C174.808 274.353 182.384 266.97 185.082 260.927C186.188 258.447 187.207 253.79 187.347 250.577C187.512 246.764 188.193 244.079 189.305 242.85C190.969 241.012 191.082 241.026 193.943 243.434C197.165 246.145 207.006 249.416 209.296 248.537C210.092 248.232 210.743 247.104 210.743 246.032C210.743 244.524 209.295 243.6 204.359 241.958C196.465 239.331 194.167 237.186 196.175 234.319C200.831 227.672 202.578 207.705 199.424 197.174C197.673 191.326 197.616 191.39 205.243 190.693C207.429 190.493 208.325 189.843 208.546 188.296C208.95 185.462 206.933 184.85 200.546 185.869C196.21 186.56 195.083 186.435 194.367 185.18C193.885 184.336 191.963 181.954 190.096 179.888L186.702 176.131L189.596 173.775C191.188 172.479 193.898 170.652 195.617 169.716C199.003 167.87 199.722 165.232 197.112 164.23C195.069 163.446 187.233 167.584 184.429 170.928C182.352 173.405 182.265 173.417 177.502 171.928C172.391 170.329 172.396 170.345 174.871 164.183C175.849 161.75 175.887 160.663 175.024 159.8C172.677 157.453 169.605 160.773 167.395 168.045C167.062 169.142 166.127 169.524 164.524 169.217C162.18 168.769 162.148 168.602 162.195 157.091C162.242 145.653 162.174 145.292 158.813 139.093C153.372 129.057 146.714 124.506 134.465 122.452C132.387 122.103 130.952 121.39 131.275 120.868C133.489 117.285 130.59 79.2389 127.69 73.8199C125.672 70.0499 119.744 71.7949 110.073 79.0069C99.057 87.2229 88.631 104.911 85.183 121.234C83.508 129.163 83.275 144.176 84.783 146.994C85.658 148.629 85.41 149.095 83.218 149.928C79.651 151.285 78.708 151.173 79.362 149.471C79.667 148.674 76.994 141.361 73.42 133.221C66.148 116.654 64.245 110.77 62.393 99.1319L61.117 91.1109L64.363 89.563C66.148 88.712 69.4651 85.5029 71.7341 82.4319C76.5701 75.8849 81.709 71.915 88.414 69.543C95.117 67.173 98.013 65.6299 98.495 64.1739C99.191 62.0679 93.188 57.03 88.483 55.772L84.0231 54.5789L86.769 48.4991C92.329 36.1931 94.976 26.015 95.114 16.419C95.206 9.97899 95.645 7.10501 96.655 6.31401C98.582 4.80601 97.357 2.1031 94.204 0.904098C89.984 -0.699902 84.544 -0.146024 79.743 2.37798ZM89.417 20.669C88.698 27.443 84.0241 41.7321 80.0961 49.1641C78.5691 52.0541 77.3021 54.4691 77.2811 54.5301C77.2601 54.5911 75.389 54.924 73.124 55.271L69.0051 55.9009L69.813 51.66C70.971 45.58 73.3661 39.256 76.9061 32.927C80.4711 26.554 88.567 14.919 89.436 14.919C89.762 14.919 89.753 17.507 89.417 20.669ZM53.723 47.9029C55.754 49.5119 58.866 53.5481 60.638 56.8731C64.187 63.5331 64.633 63.7039 72.243 61.3509C75.508 60.3419 78.981 60.0131 82.252 60.4041C90.147 61.3481 90.622 62.33 84.4 64.855C77.839 67.518 72.225 72.132 67.175 79.012C62.433 85.471 59.687 86.6049 54.856 84.0989C48.681 80.8949 47.423 77.434 46.63 61.471C46.246 53.742 45.61 46.397 45.215 45.147C44.542 43.014 44.667 42.939 47.265 43.927C48.786 44.506 51.692 46.2949 53.723 47.9029ZM265.347 77.479C267.617 86.523 260.774 114.015 251.625 132.604C245.851 144.336 230.227 160.572 226.768 158.435C226.087 158.013 225.808 155.045 226.026 150.534C226.365 143.546 226.559 143.064 231.917 135.864C234.965 131.769 239.548 126.482 242.101 124.114C244.654 121.746 246.743 119.207 246.743 118.471C246.743 116.612 243.963 115.731 241.781 116.899C238.813 118.487 228.144 130.63 224.049 137.082L220.243 143.077L214.974 142.568C211.102 142.195 207.651 140.847 201.959 137.485C194.392 133.017 194.125 132.724 190.477 124.898C188.423 120.491 186.743 116.078 186.743 115.093C186.743 112.287 184.256 109.508 182.388 110.225C179.967 111.154 180.336 116.502 183.253 122.768C184.622 125.71 185.743 128.523 185.743 129.018C185.743 129.514 184.216 129.919 182.351 129.919C178.986 129.919 178.946 129.865 177.377 123.169C176.507 119.456 175.333 113.749 174.769 110.485C173.583 103.626 173.384 85.913 174.493 85.931C176.112 85.957 184.385 91.243 190.162 95.941C198.445 102.678 202.653 109.188 205.204 119.212C207.107 126.69 207.51 127.419 209.745 127.419C211.743 127.419 212.885 126.162 215.903 120.64C226.498 101.259 241.5 85.6159 257.243 77.5359C263.527 74.3119 264.551 74.304 265.347 77.479ZM124.478 84.4959C126.141 92.4739 127.128 113.492 126.066 118.286C125.26 121.924 124.824 122.294 118.726 124.52C115.16 125.821 112.131 126.893 111.993 126.902C111.046 126.965 112.036 116.126 113.323 112.334C116.232 103.768 110.871 103.481 107.517 112.023C106.352 114.99 105.832 118.939 105.915 124.171L106.039 131.924L100.807 137.939C97.9291 141.248 94.262 144.633 92.659 145.463L89.743 146.97V135.957C89.743 126.486 90.16 123.641 92.719 115.651C95.834 105.929 100.719 96.9599 106.91 89.5979C110.765 85.0129 120.537 77.8061 122.243 78.2901C122.793 78.4461 123.799 81.2379 124.478 84.4959ZM32.243 112.435C44.393 114.705 50.257 117.496 57.779 124.592C64.062 130.519 68.06 136.691 75.506 151.959C75.651 152.256 73.894 152.999 71.602 153.611L67.435 154.723L60.159 148.378C56.157 144.888 50.357 140.355 47.269 138.305C42.161 134.913 41.514 134.72 40.081 136.152C39.215 137.018 38.798 138.199 39.154 138.775C39.51 139.351 43.951 142.944 49.022 146.758C54.094 150.573 59.068 154.609 60.076 155.727C61.858 157.704 61.852 157.79 59.831 158.872C58.123 159.786 56.411 159.364 50.226 156.506C29.784 147.062 17.929 137.125 10.602 123.293C5.10901 112.923 5.00998 112.189 8.93898 111.025C12.645 109.927 21.769 110.479 32.243 112.435ZM139.576 129.462C150.301 132.647 157.145 142.798 157.096 155.451C157.054 166.591 156.562 167.652 151.249 168.075C148.594 168.286 146.743 168.011 146.743 167.404C146.743 165.292 140.426 158.812 136.899 157.306C131.457 154.983 105.018 153.656 101.993 155.553C97.8 158.184 99.83 160.418 107.784 161.927C110.722 162.484 114.186 163.635 115.482 164.484C117.703 165.939 121.731 171.53 121.739 173.169C121.747 174.713 113.597 173.845 110.004 171.919C103.133 168.236 93.726 169.674 86.996 175.434C81.968 179.738 76.743 189.749 76.743 195.079C76.743 199.4 75.52 199.889 70.808 197.453C62.932 193.38 55.683 180.08 57.292 172.652C58.917 165.146 62.919 162.444 81.357 156.405C93.689 152.365 98.342 149.376 106.162 140.469C115.974 129.292 126.893 125.696 139.576 129.462ZM263.783 158.35C270.199 160.031 283.605 165.381 285.067 166.843C286.472 168.248 279.904 174.297 273.384 177.601C263.358 182.682 249.11 185.487 243.136 183.556C241.935 183.168 240.369 181.194 239.492 178.963L237.956 175.051L242.099 173.334C244.613 172.293 249.193 171.569 253.743 171.495C261.025 171.376 261.243 171.301 261.243 168.896C261.243 166.44 261.166 166.419 252.243 166.465C245.259 166.5 242.183 166.99 238.514 168.649L233.785 170.788L231.764 168.219C230.652 166.805 229.743 165.354 229.743 164.993C229.743 164.056 240.492 158.738 244.16 157.861C249.329 156.625 258.027 156.842 263.783 158.35ZM132.929 161.954C140.807 164.142 144.209 172.328 140.935 181.216C138.613 187.517 138.982 188.919 142.958 188.919C146.789 188.919 152.692 194.781 152.849 198.74C153.267 209.309 152.116 210.724 144.014 209.608L137.785 208.75L134.775 202.584C132.697 198.329 131.325 193.321 130.345 186.419C128.718 174.963 126.779 168.966 123.172 164.238L120.641 160.919L124.942 160.925C127.308 160.928 130.902 161.391 132.929 161.954ZM163.743 174.984C168.968 175.6 175.066 176.898 177.294 177.867C191.35 183.985 198.56 202.556 194.578 222.386C193.392 228.291 188.216 237.419 186.054 237.419C185.401 237.419 183.072 234.644 180.88 231.252C176.411 224.337 169.742 218.62 161.887 214.968C157.453 212.907 156.716 212.191 157.253 210.468C158.922 205.11 158.943 198.732 157.307 194.448C155.821 190.555 150.811 184.846 147.951 183.785C147.382 183.574 147.185 181.191 147.484 178.148C148 172.89 148.009 172.878 151.122 173.371C152.839 173.642 158.518 174.368 163.743 174.984ZM106.69 177.669C112.982 181.211 111.178 187.618 102.212 193.571C99.204 195.568 96.743 197.546 96.743 197.967C96.743 198.388 95.894 198.51 94.856 198.238C93.818 197.967 92.651 198.26 92.262 198.889C89.942 202.642 97.101 209.965 106.147 213.092L111.243 214.854L106.743 214.874C101.2 214.9 93.005 212.792 89.358 210.402C82.159 205.686 80.791 194.228 86.353 185.232C91.713 176.562 99.547 173.648 106.69 177.669ZM125.222 189.781C126.07 195.422 127.695 201.864 128.834 204.097C130.089 206.558 130.544 208.518 129.988 209.074C127.307 211.755 109.796 209.312 102.955 205.303L98.515 202.701L104.536 198.895C111.281 194.629 115.492 189.238 116.384 183.723C116.91 180.471 117.356 179.99 120.112 179.715C121.834 179.543 123.342 179.429 123.462 179.463C123.583 179.497 124.375 184.14 125.222 189.781ZM46.982 196.173C41.348 201.985 39.286 211.497 42.166 218.39C43.453 221.469 43.405 222.159 41.666 225.569C39.125 230.553 39.145 239.323 41.711 246.078C44.971 254.658 52.667 260.886 54.407 256.353C54.778 255.385 53.83 253.571 51.926 251.603C45.458 244.92 43.609 234.027 47.637 226.331C49.638 222.508 49.678 222.007 48.26 218.613C45.209 211.313 47.063 202.96 52.651 198.829C56.648 195.873 56.792 192.919 52.939 192.919C51.088 192.919 49.064 194.025 46.982 196.173ZM95.098 218.82C98.869 219.975 103.819 220.918 106.098 220.918C112.99 220.915 127.151 218.057 128.353 216.426C129.157 215.335 131.377 214.919 136.393 214.919C144.683 214.919 152.747 216.878 160.41 220.752L166.05 223.604L161.283 224.805C154.798 226.438 145.772 231.096 136.571 237.558C126.238 244.816 121.413 246.875 114.743 246.875C109.133 246.875 101.71 244.293 100.174 241.807C99.7251 241.081 99.09 238.897 98.763 236.953C98.173 233.453 98.124 233.422 93.576 233.706C89.87 233.938 88.4071 233.507 85.9841 231.468C80.6131 226.949 78.183 218.702 80.787 213.836C81.806 211.933 81.911 211.945 85.037 214.303C86.8 215.633 91.328 217.666 95.098 218.82ZM202.287 221.664C201.315 224.199 205.189 226.919 209.772 226.919C214.887 226.919 216.743 226.084 216.743 223.781C216.743 221.532 216.112 221.278 208.599 220.506C203.83 220.016 202.851 220.196 202.287 221.664ZM176.482 234.669C180.271 240.853 181.748 245.264 181.721 250.318C181.671 259.635 174.236 268.46 161.243 274.624L153.243 278.419H139.743C126.724 278.419 126.011 278.309 119.743 275.329C116.168 273.629 111.884 271.088 110.222 269.683C106.553 266.578 103.082 259.891 102.165 254.16L101.487 249.917L105.741 251.418C108.08 252.244 111.76 252.919 113.918 252.919C117.34 252.919 117.719 253.14 116.877 254.643C115.81 256.551 116.995 259.556 119.656 261.693C122.95 264.338 131 268.034 132.344 267.519C135.16 266.438 133.758 263.423 129.353 261.087C126.938 259.806 123.717 257.457 122.194 255.868C119.61 253.171 119.553 252.934 121.334 252.314C127.356 250.218 132.187 247.622 138.335 243.177C145.412 238.061 156.889 231.517 160.321 230.641C161.378 230.372 164.792 230.099 167.907 230.035L173.571 229.919L176.482 234.669ZM129.441 250.555C128.004 251.992 128.82 254.89 130.993 256.064C134.223 257.809 143.674 259.883 145.391 259.224C146.193 258.916 146.712 257.738 146.546 256.606C146.307 254.983 144.869 254.196 139.743 252.886C136.168 251.972 132.544 250.917 131.691 250.541C130.837 250.165 129.825 250.171 129.441 250.555ZM81.86 254.643C75.725 257.804 74.027 260.079 76.358 262.014C77.68 263.112 78.6961 262.889 82.7341 260.619C85.3761 259.134 88.6541 257.919 90.0181 257.919C93.5781 257.919 95.269 255.588 93.206 253.525C90.913 251.232 87.904 251.529 81.86 254.643ZM183.41 265.586C180.306 268.689 186.077 273.024 193.638 273.269C197.655 273.4 198.282 273.143 198.552 271.252C198.821 269.362 198.153 268.938 193.319 267.935C190.271 267.302 187.518 266.365 187.201 265.852C186.532 264.769 184.378 264.618 183.41 265.586ZM92.194 270.394C88.852 274.776 88.3111 280.419 91.2341 280.419C92.4901 280.419 93.7811 279.242 94.7341 277.225C95.5641 275.469 97.2781 273.067 98.5441 271.889C100.366 270.192 100.6 269.452 99.671 268.333C97.717 265.978 94.989 266.731 92.194 270.394ZM104.724 283.991C103.089 290.061 103.762 294.35 106.407 294.727C108.875 295.079 109.269 294.147 110.233 285.669C110.877 280.01 110.847 279.919 108.354 279.919C106.237 279.919 105.64 280.588 104.724 283.991ZM271.274 308.669C270.316 313.862 265.541 325 261.721 330.954C256.045 339.798 244.651 348.304 235.598 350.455C233.213 351.021 232.832 350.705 231.736 347.251C231.067 345.143 229.865 342.377 229.065 341.103C227.707 338.94 227.856 338.487 231.329 334.249C233.374 331.753 236.891 328.438 239.145 326.882C241.399 325.326 244.079 323.3 245.1 322.379C246.816 320.832 246.834 320.581 245.328 319.075C243.822 317.57 243.356 317.628 239.18 319.843C236.694 321.162 232.22 324.877 229.236 328.1L223.812 333.958L219.238 330.467C216.722 328.547 212.769 326.46 210.453 325.83C200.593 323.146 200.708 324.078 209.318 316.644C221.102 306.468 224.165 305.584 245.743 306.136C255.368 306.383 264.818 306.269 266.743 305.883C268.668 305.498 270.631 305.123 271.104 305.051C271.578 304.978 271.654 306.607 271.274 308.669ZM155.953 321.552C161.67 325.16 171.015 327.24 178.962 326.671C182.675 326.406 186.35 325.66 187.127 325.015C188.241 324.091 189.318 324.369 192.205 326.329C194.22 327.696 197.979 329.091 200.556 329.428C208.764 330.501 213.991 332.968 219.393 338.318C226.048 344.909 228.482 352.072 226.614 359.565C224.446 368.263 207.29 382.919 199.276 382.919C197.883 382.919 196.743 382.497 196.743 381.982C196.743 381.467 194.726 378.099 192.26 374.497L187.777 367.949L190.236 367.331C193.374 366.544 199.743 359.545 199.743 356.885C199.743 352.969 196.679 353.37 193.03 357.762C191.131 360.048 188.962 361.919 188.21 361.919C187.458 361.919 186.424 362.666 185.913 363.579C185.081 365.067 184.479 364.93 180.114 362.264C177.435 360.627 174.422 358.982 173.419 358.607C171.772 357.991 171.745 357.774 173.142 356.377C175.248 354.271 176.976 347.562 177.122 340.919C177.229 336.067 177.01 335.419 175.267 335.419C173.162 335.419 172.702 336.496 170.776 345.919C170.158 348.944 169.411 352.554 169.117 353.941L168.583 356.464L158.214 356.08C150.701 355.802 146.616 356.115 143.38 357.218L138.913 358.74L134.392 354.407C129.085 349.322 127.343 344.537 128.003 336.853C128.707 328.654 131.872 322.341 140.586 311.756L142.929 308.909L147.524 314.02C150.052 316.832 153.845 320.221 155.953 321.552ZM92.297 322.363C104.065 327.14 113.887 329.239 119.945 328.271L123.727 327.666L122.621 330.838C121.544 333.93 121.887 344.392 123.199 348.435C123.797 350.274 123.188 350.556 116.231 351.663C106.892 353.149 105.317 352.383 101.271 344.386C98.004 337.93 97.0771 337.156 95.0441 339.189C93.2121 341.021 93.724 342.844 98.114 350.135L101.456 355.685L98.35 357.17C96.641 357.986 92.934 360.733 90.112 363.273L84.981 367.891L81.112 365.301C78.984 363.876 76.0311 361.408 74.5491 359.815C71.3871 356.415 70.189 356.217 68.775 358.86C67.894 360.504 68.516 361.569 72.839 365.824C75.645 368.587 78.829 371.129 79.915 371.473C81.021 371.825 81.663 372.686 81.376 373.433C80.402 375.97 75.715 382.919 74.977 382.919C74.57 382.919 71.231 382.06 67.558 381.009C61.884 379.386 60.605 379.302 59.061 380.448C57.449 381.644 57.413 381.959 58.743 383.23C60.36 384.775 69.065 387.919 71.727 387.919C73.078 387.919 73.3461 389.084 73.2991 394.765C73.2651 398.936 73.743 402.213 74.524 403.154C75.586 404.435 75.374 405.507 73.274 409.457C71.555 412.689 70.743 415.794 70.743 419.129V424.042L65.993 423.402C44.581 420.517 30.743 408.612 30.743 393.075C30.743 387.93 31.485 385.628 36.474 375.292C41.756 364.35 42.194 362.91 42.073 356.919C42 353.344 41.784 349.295 41.592 347.922C41.257 345.525 41.512 345.399 48.018 344.752C58.151 343.746 66.673 337.745 71.693 328.081C73.12 325.334 79.666 317.919 80.664 317.919C81.042 317.919 86.277 319.919 92.297 322.363ZM149.088 336.461C148.196 338.788 149.664 348.114 151.326 350.669C152.928 353.132 156.509 353.691 157.311 351.603C157.588 350.88 157.127 348.967 156.285 347.353C155.444 345.739 154.753 343.436 154.749 342.234C154.733 336.608 150.636 332.429 149.088 336.461ZM131.464 359.72L134.64 361.982L132.206 365.569C127.57 372.4 126.448 382.584 129.188 392.951C130.497 397.9 130.479 398.538 128.997 399.669C126.68 401.439 122.057 401.229 110.4 398.823C99.204 396.513 90.594 396.701 84.141 399.397C79.426 401.367 78.453 400.269 79.138 393.754C80.078 384.815 89.285 370.267 97.678 364.459C108.353 357.073 124.554 354.8 131.464 359.72ZM171.212 363.976C178.561 366.747 186.72 374.523 190.263 382.133C194.152 390.487 193.733 397.86 188.699 409.64C186.476 414.846 184.394 420.413 184.074 422.012C183.394 425.416 183.393 425.416 179.732 423.254C176.29 421.22 175.193 416.992 177.66 415.264C180.475 413.293 182.057 406.139 181.925 395.984C181.835 389.12 181.399 386.146 180.323 385.07C179.093 383.841 178.576 383.813 177.26 384.905C175.995 385.955 175.809 387.38 176.333 392.01C177.033 398.196 176.224 407.523 174.786 409.85C174.079 410.994 173.275 410.707 170.577 408.349C167.339 405.517 167.243 405.213 167.243 397.726C167.243 389.76 166.163 387.16 163.31 388.255C162.09 388.723 161.743 390.436 161.743 395.995C161.743 402.39 161.561 403.061 159.993 402.442C157.797 401.575 140.596 399.892 139.684 400.455C138.387 401.257 136.014 397.376 134.831 392.516C133.304 386.245 133.257 376.922 134.73 372.459C136.043 368.48 141.704 363.58 146.782 362.028C152.053 360.417 164.379 361.4 171.212 363.976ZM238.61 384.212C245.066 388.485 245.112 390.031 239.274 406.883C236.56 414.72 235.946 422.695 237.254 433.158C239.634 452.212 213.812 468.654 196.142 459.336C189.445 455.804 189.255 455.51 191.58 452.267C196.418 445.516 196.294 437.953 191.237 431.322C188.158 427.285 188.478 423.773 192.749 414.742C195.174 409.615 195.596 409.201 196.982 410.586C198.367 411.972 199.056 411.966 203.882 410.53C210.833 408.46 217.138 404.823 217.558 402.639C218.034 400.169 214.972 399.36 211.882 401.138C210.43 401.974 206.768 403.451 203.743 404.421C200.718 405.39 197.746 406.575 197.139 407.052C196.406 407.63 196.49 406.17 197.389 402.702C198.134 399.832 198.743 395.606 198.743 393.312C198.743 389.383 198.935 389.106 202.054 388.521C203.874 388.179 207.812 386.347 210.804 384.449C216.097 381.091 216.489 381.005 225.378 381.25C233.403 381.471 235.012 381.831 238.61 384.212ZM112.65 405.072L122.058 407.238L116.853 408.57C108.567 410.691 97.5711 416.298 93.4111 420.524C88.7921 425.216 82.649 437.57 81.979 443.517C81.623 446.678 82.06 448.915 83.618 451.904C84.787 454.146 85.743 456.164 85.743 456.389C85.743 457.537 76.629 453.469 73.675 451.003C70.781 448.587 70.286 447.556 70.376 444.125C70.502 439.349 73.5771 432.586 77.7471 427.914C81.5551 423.649 81.786 419.919 78.243 419.919C75.272 419.919 75.1691 418.779 77.6481 413.32C79.4801 409.286 83.259 405.843 87.888 403.989C91.98 402.35 102.907 402.828 112.65 405.072ZM131.743 405.919C130.918 406.452 129.793 406.888 129.243 406.888C128.693 406.888 128.918 406.452 129.743 405.919C130.568 405.386 131.693 404.95 132.243 404.95C132.793 404.95 132.568 405.386 131.743 405.919ZM161.47 409.047C166.422 411.423 170.737 416.162 170.757 419.246C170.783 423.36 171.919 425.678 174.482 426.846C175.895 427.49 179.406 429.58 182.285 431.491C188.744 435.778 190.519 439.385 188.874 444.876C187.562 449.254 180.537 457.502 175.747 460.288L172.533 462.156L173.388 459.788C173.858 458.485 174.224 454.657 174.2 451.281C174.117 439.339 166.709 428.302 147.243 411.119L141.243 405.823L149.243 406.421C154.127 406.786 158.889 407.808 161.47 409.047ZM133.687 415.669C134.428 417.732 136.706 421.894 138.75 424.919C147.562 437.96 148.226 440.019 148.37 454.748C148.446 462.517 148.937 468.513 149.547 469.123C150.646 470.222 160.934 469.757 163.939 468.472C165.442 467.829 165.509 468.08 164.525 470.685C162.096 477.121 166.506 479.264 169.619 473.161C170.799 470.849 173.184 468.477 175.82 466.996C178.175 465.672 181.782 463.071 183.835 461.217L187.568 457.845L188.215 460.792C188.695 462.976 188.096 465.257 185.906 469.595C182.852 475.645 177.683 480.991 167.007 489.136C163.607 491.73 159.119 496.092 157.034 498.829C152.782 504.41 151.115 505.028 149.78 501.516C148.62 498.466 146.884 497.378 145.456 498.806C143.909 500.353 123.75 500.172 116.163 498.543C104.459 496.03 99.331 491.487 98.105 482.544C97.5 478.129 97.583 477.946 101.166 475.832C103.85 474.248 104.766 473.085 104.546 471.539C104.23 469.327 103.456 469.223 96.914 470.513C95.082 470.874 93.35 471.779 93.064 472.525C92.298 474.522 86.188 475.91 78.243 475.891C70.696 475.874 66.042 474.275 58.497 469.106C51.819 464.532 46.592 462.169 41.446 461.397C36.751 460.693 36.703 460.648 37.294 457.497C37.642 455.644 37.024 450.718 35.818 445.728C34.677 441.008 33.743 435.092 33.743 432.582C33.743 428.408 35.504 417.919 36.205 417.919C36.368 417.919 39.143 419.51 42.372 421.455C49.207 425.572 59.286 428.919 64.848 428.919C69.043 428.919 69.369 429.45 67.582 433.372C66.516 435.713 65.908 435.919 60.051 435.919C55.062 435.919 53.543 436.276 53.049 437.564C52.124 439.976 55.419 441.919 60.434 441.919C64.656 441.919 64.743 441.987 64.743 445.271C64.743 452.995 73.631 459.855 86.921 462.387C90.911 463.147 94.592 463.512 95.1 463.198C95.608 462.884 97.648 462.58 99.634 462.523C102.512 462.44 103.243 462.023 103.243 460.466C103.243 459.031 101.931 458.045 98.292 456.742C87.698 452.952 85.414 446.502 90.677 435.231C94.566 426.901 98.541 422.603 105.743 418.941C109.756 416.9 120.641 412.911 122.175 412.919C122.212 412.92 122.334 415.082 122.445 417.725C122.711 424.039 125.433 430.166 132.673 440.745C135.938 445.516 139.09 450.686 139.676 452.234C141.168 456.172 140.997 470.87 139.423 473.919C138.31 476.076 137.505 476.398 133.554 476.267C127.933 476.08 121.351 473.27 116.442 468.96C113.55 466.42 112.743 464.976 112.743 462.338C112.743 457.456 116.328 455.373 124.389 455.573C128.849 455.683 130.752 455.338 131.131 454.352C132.858 449.85 120.578 448.179 113.243 451.919C108.503 454.335 109.035 454.334 107.751 451.933C104.469 445.802 104.913 434.042 108.7 426.776C111.047 422.273 111.269 420.274 109.493 419.637C105.32 418.141 100.655 427.604 99.967 438.963C99.588 445.218 99.89 447.39 101.736 451.681C102.96 454.527 104.588 457.375 105.353 458.01C106.117 458.645 106.743 460.481 106.743 462.091C106.743 471.082 119.703 480.913 133.781 482.603C137.675 483.07 138.765 482.771 141.467 480.498C145.455 477.142 147.207 469.565 146.473 458.837C145.9 450.442 144.678 447.634 136.723 436.419C129.8 426.661 125.801 415.194 128.41 412.586C130.149 410.847 132.436 412.183 133.687 415.669ZM158.674 429.7C166.623 439 170.555 451.131 167.786 457.815C166.501 460.916 162.619 463.222 156.889 464.287L153.536 464.91L154.233 457.027C155.403 443.812 152.964 435.862 143.336 421.504C140.81 417.737 138.743 414.026 138.743 413.258C138.743 411.471 153.495 423.641 158.674 429.7ZM193.993 422.617C192.04 423.349 192.518 427.728 194.677 428.884C197.123 430.193 206.795 430.23 210.178 428.944C211.84 428.312 212.743 427.207 212.743 425.807C212.743 423.753 212.409 423.672 206.055 424.182C201.504 424.547 198.708 424.308 197.305 423.434C196.171 422.727 194.681 422.36 193.993 422.617ZM199.578 441.627C198.112 441.852 196.668 442.671 196.37 443.448C195.649 445.329 198.527 448.106 200.598 447.528C201.503 447.275 203.668 446.782 205.409 446.433C208.514 445.809 210.301 443.631 209.187 441.829C208.629 440.926 204.693 440.843 199.578 441.627ZM250.743 449.211C258.627 454.498 276.967 473.808 280.515 480.559C282.291 483.936 283.743 487.631 283.743 488.77C283.743 492.383 277.525 493.311 254.243 493.172C236.575 493.066 231.997 492.721 225.39 490.997C216.072 488.566 207.674 484.007 204.254 479.522C202.343 477.017 198.743 469.103 198.743 467.408C198.743 467.266 201.655 467.383 205.214 467.669C210.195 468.069 213.249 467.686 218.471 466.007L225.255 463.825L234.249 468.889C244.175 474.478 251.089 476.919 256.994 476.919C260.423 476.919 260.844 476.661 260.563 474.733C260.301 472.946 259.057 472.256 253.743 470.953C247.746 469.483 230.743 461.328 230.743 459.923C230.743 459.586 232.357 457.761 234.331 455.865C236.304 453.97 238.8 450.708 239.878 448.617C242.151 444.205 243.379 444.272 250.743 449.211ZM202.411 488.002C207.672 493.634 215.249 499.128 223.537 503.32C229.97 506.573 258.581 517.801 268.243 520.864C278.324 524.059 287.125 528.471 291.329 532.435L294.983 535.882L291.869 539.428C288.366 543.418 285.616 548.5 283.758 554.419C282.263 559.178 280.747 561.158 280.733 558.369C280.717 555.166 276.111 546.245 271.132 539.774C263.593 529.978 253.66 523.489 232.243 514.371C219.965 509.144 206.435 501.317 200.533 496.027C192.833 489.125 188.097 477.863 190.784 472.843C191.954 470.657 192.131 470.827 194.793 476.693C196.325 480.068 199.753 485.157 202.411 488.002ZM170.252 511.419C169.917 516.369 168.791 525.819 167.748 532.419C166.706 539.019 165.323 548.804 164.675 554.165L163.497 563.91L158.396 561.165C143.665 553.236 131.195 532.543 129.156 512.644L128.467 505.919H136.086C143.192 505.919 143.734 506.07 144.138 508.169C146.338 519.582 147.331 523.415 149.775 529.919C151.325 534.044 152.744 538.314 152.929 539.408C153.422 542.316 156.575 542.548 157.609 539.752C158.52 537.29 158.492 537.174 153.793 523.621C150.506 514.139 150.021 510.738 151.993 510.994C154.878 511.368 155.849 510.707 158.345 506.669C159.791 504.331 162.834 500.486 165.108 498.124L169.243 493.829L170.051 498.124C170.496 500.486 170.586 506.469 170.252 511.419ZM256.164 533.449C257.958 534.3 260.867 536.483 262.628 538.301L265.831 541.605L248.515 542.2C230.104 542.833 225.374 543.769 225.936 546.672C226.247 548.278 227.892 548.394 246.259 548.112L266.243 547.805L263.743 549.851C262.368 550.976 258.768 552.911 255.743 554.152C250.996 556.099 248.532 556.397 237.743 556.332C227.021 556.268 224.105 555.88 217.243 553.604C212.843 552.144 207.677 549.987 205.762 548.809L202.281 546.668L205.762 543.762C212.466 538.165 220.885 535.245 238.343 532.461C248.036 530.916 251.195 531.091 256.164 533.449ZM297.743 546.229C297.743 554.28 290.774 575.096 286.296 580.419C284.699 582.317 284.643 582.031 285.206 574.817C285.881 566.168 288.426 556.446 291.729 549.893C295.723 541.972 297.743 540.741 297.743 546.229Z" fill="#FFC4C4"/>
</svg>
