<svg width="273" height="277" viewBox="0 0 273 277" fill="none" xmlns="http://www.w3.org/2000/svg">
<path fill-rule="evenodd" clip-rule="evenodd" d="M132.213 2.63239C124.18 11.0104 114.567 22.3484 111.255 27.3524C107.502 33.0234 103.558 43.0104 103.558 46.8424C103.558 48.0394 103.345 49.2324 103.084 49.4934C102.454 50.1234 82.2369 47.7064 76.6739 46.3354C71.0349 44.9474 64.9388 41.8244 61.8648 38.7504C59.8248 36.7094 58.9348 36.4584 56.2488 37.1624C53.2708 37.9434 53.077 38.2614 53.347 41.9254C53.926 49.7804 54.0459 72.0794 53.5579 81.1964L53.0579 90.5404L47.421 89.9094C43.933 89.5194 39.1609 89.8254 34.9029 90.7134C26.1259 92.5434 0.82285 102.398 0.0608499 104.283C-0.72915 106.236 6.34304 120.614 11.407 127.352C18.633 136.966 30.4799 144.861 39.4959 146.07C41.7299 146.37 43.5579 146.755 43.5579 146.927C43.5579 147.098 42.6838 148.726 41.6148 150.545C40.5458 152.364 38.2849 159.027 36.5899 165.352C32.5259 180.519 31.9048 181.92 27.7188 185.371C24.5498 187.983 24.261 188.605 25.107 190.995C26.013 193.556 26.4109 193.694 33.5579 193.919C41.8149 194.179 45.3618 195.409 55.8008 201.636C61.5648 205.074 62.5879 206.079 62.0699 207.798C59.4389 216.526 59.2119 222.271 61.0909 232.497C62.1379 238.192 63.0238 246.333 63.0608 250.587C63.1348 259.201 64.134 261.185 67.492 259.387C68.674 258.755 73.394 257.582 77.981 256.782C89.062 254.847 95.8329 252.422 103.997 247.462C111.704 242.78 112.576 242.609 115.014 245.303C115.985 246.376 120.839 249.637 125.802 252.55C136.027 258.552 141.158 263.865 142.863 270.217C143.676 273.246 144.747 274.853 146.361 275.467C150.399 277.002 151.329 276.472 152.95 271.715C154.802 266.279 157.598 262.404 166.558 252.852C171.835 247.227 176.302 241.806 179.241 237.462C179.386 237.247 181.376 238.761 183.662 240.827C190.452 246.961 197.672 249.728 207.058 249.791C218.137 249.866 229.324 248.791 230.876 247.503C231.841 246.702 232.158 242.614 232.108 231.638C232.033 215.383 231.429 213.183 225.196 206.474C223.159 204.282 222.491 202.938 223.293 202.646C223.972 202.398 229.454 196.256 235.475 188.996C246.172 176.099 251.798 171.352 256.385 171.352C257.515 171.352 258.721 170.898 259.064 170.343C260.404 168.173 258.199 165.279 252.624 161.892C247.721 158.914 238.558 149.121 238.558 146.859C238.558 146.541 240.47 145.446 242.808 144.426C248.617 141.89 254.617 136.477 259.092 129.735C263.326 123.357 272.874 100.246 272.372 97.5934C272.14 96.3694 270.561 95.5924 267.05 94.9744C264.305 94.4924 258.458 92.9894 254.058 91.6364C243.51 88.3924 232.817 87.6654 225.196 89.6754L219.334 91.2214L219.949 88.1454C220.855 83.6184 218.715 68.0964 215.843 58.3564C214.464 53.6794 213.097 46.7764 212.806 43.0174C212.133 34.3154 210.743 33.6464 205.214 39.3664C199.564 45.2114 194.542 47.2004 181.279 48.8454C175.077 49.6154 169.288 50.5184 168.415 50.8534C167.079 51.3664 166.753 50.3084 166.355 44.1574C165.686 33.8124 163.262 29.2114 152.435 17.7264C147.278 12.2554 141.933 6.11539 140.558 4.08139C137.143 -0.969608 135.878 -1.18961 132.213 2.63239ZM136.558 8.29639C136.558 8.81539 141.084 13.9984 146.615 19.8154C158.664 32.4834 160.506 36.0194 160.536 46.5344C160.557 53.9394 160.45 54.2934 157.558 56.3524L154.558 58.4884V50.6114C154.558 42.0724 153.132 38.5344 150.151 39.6784C148.674 40.2454 148.476 41.8694 148.619 52.2594C148.779 63.8544 148.706 64.2914 146.031 67.7984C144.518 69.7834 143.047 71.1744 142.763 70.8904C141.739 69.8664 139.628 51.6694 139.593 43.5714C139.565 36.8304 139.252 35.1724 137.913 34.6584C136.903 34.2704 135.708 34.7644 134.814 35.9404C133.17 38.1024 133.559 51.9534 135.593 63.6334C136.216 67.2094 136.562 71.1964 136.363 72.4944C136.024 74.7034 135.883 74.6304 134.142 71.3524C133.12 69.4274 131.077 66.2774 129.601 64.3524C127.482 61.5894 126.866 59.5894 126.672 54.8524C126.25 44.5614 125.288 40.8524 123.041 40.8524C121.23 40.8524 121.062 41.5244 121.108 48.6024C121.154 55.7444 120.557 57.7784 119.105 55.4284C118.791 54.9214 116.264 53.7514 113.489 52.8294C108.591 51.2024 108.462 51.0604 109.083 48.0034C111.372 36.7304 114.467 31.0224 124.075 20.3524C127.79 16.2274 131.752 11.6144 132.881 10.1024C134.946 7.33639 136.558 6.54439 136.558 8.29639ZM63.1299 46.9914C64.5059 47.8934 68.3929 49.6304 71.7669 50.8524L77.9019 53.0734L77.6519 59.9574C77.5149 63.7434 77.3039 66.9394 77.1839 67.0604C77.0629 67.1804 74.7358 66.5964 72.0108 65.7614C69.2868 64.9264 65.5949 64.4024 63.8079 64.5964L60.5579 64.9504L60.5469 58.9014C60.5409 55.5744 60.2568 51.1654 59.9158 49.1024C59.2198 44.8904 59.5709 44.6594 63.1299 46.9914ZM208.414 52.4324C209.321 56.8244 209.368 58.8764 208.584 59.8214C207.608 60.9974 198.583 63.8684 198.128 63.1474C198.026 62.9854 197.481 60.4774 196.918 57.5754L195.893 52.2974L200.097 50.4384C202.408 49.4154 204.61 48.0784 204.988 47.4654C206.353 45.2574 207.179 46.4564 208.414 52.4324ZM95.5579 54.8354C108.707 56.6434 111.96 57.5874 117.801 61.2914C126.363 66.7214 131.91 76.3914 133.765 89.1194C135.124 98.4434 133.944 108.109 131.526 107.455C126.365 106.06 118.638 106.259 115.528 107.867C112.23 109.573 112.148 109.563 110.319 107.226C104.725 100.082 95.6979 90.3814 93.2559 88.8894C90.3039 87.0864 87.5569 87.4144 87.5599 89.5714C87.5609 90.2754 91.3598 94.7604 95.9998 99.5364C100.641 104.312 105.173 109.641 106.071 111.377C107.581 114.296 107.58 114.839 106.066 118.623C105.072 121.108 104.53 124.886 104.686 128.251C104.923 133.367 104.76 133.832 102.546 134.355C98.856 135.226 85.0079 129.849 77.9239 124.794C63.4349 114.454 57.0769 98.6514 59.0279 77.8284L59.753 70.0944L66.0489 70.5994C69.9959 70.9164 73.882 71.9684 76.462 73.4184C79.542 75.1494 80.8648 75.4454 81.7178 74.5924C82.3448 73.9654 83.0749 68.9304 83.3409 63.4024C83.6079 57.8754 84.103 53.3614 84.442 53.3724C84.781 53.3824 89.7829 54.0414 95.5579 54.8354ZM191.071 56.4134C191.441 58.0964 191.589 62.0334 191.401 65.1634L191.058 70.8524L194.058 70.7294C195.708 70.6624 200.364 69.4244 204.404 67.9794C208.444 66.5344 211.885 65.3524 212.051 65.3524C213.033 65.3524 214.706 83.6624 214.182 88.6754C212.594 103.869 199.731 120.044 180.696 130.781C177.197 132.755 173.372 134.611 172.196 134.906C170.24 135.395 170.045 135.017 169.909 130.463C169.819 127.43 168.905 123.962 167.57 121.587L165.379 117.688L170.465 109.897C175.873 101.612 177.968 96.3034 177.405 92.3084C176.807 88.0764 173.482 89.1644 172.035 94.0664C170.723 98.5094 166.833 105.771 162.995 110.94C160.821 113.869 160.418 114.005 155.19 113.571C150.642 113.194 148.901 113.548 145.237 115.596L140.797 118.077L139.351 114.965C138.286 112.674 138.139 110.795 138.794 107.852C139.284 105.652 139.783 100.702 139.904 96.8524C140.214 86.9394 146.049 75.6294 155.945 65.7564C164.97 56.7524 167.226 55.9204 189.229 53.4824C189.872 53.4104 190.702 54.7294 191.071 56.4134ZM253.058 97.3524C258.418 99.0024 263.424 100.352 264.181 100.352C266.042 100.352 266.092 100.137 261.537 111.786C255.24 127.892 247.077 137.734 237.918 140.263C234.724 141.145 233.955 140.956 230.943 138.553C229.081 137.067 227.558 135.598 227.558 135.287C227.558 134.977 229.111 133.982 231.009 133.077C234.771 131.283 238.113 127.058 237.085 125.396C236.258 124.058 232.868 124.041 232.046 125.371C231.7 125.931 229.16 127.534 226.401 128.932C222.692 130.811 220.587 131.298 218.319 130.8C215.389 130.156 215.676 129.916 224.762 125.399C239.744 117.952 245.447 112.812 242.262 109.628C240.941 108.307 240.184 108.601 235.609 112.217C226.197 119.657 215.763 123.943 202.058 126L198.058 126.601L202.516 121.976C204.968 119.433 207.387 117.352 207.891 117.352C209.745 117.352 221.212 111.838 226.349 108.477C229.624 106.334 231.525 104.417 231.337 103.445C230.806 100.684 227.542 101.079 221.723 104.609C212.907 109.957 212.594 109.898 215.811 103.489C218.291 98.5504 219.224 97.6414 223.349 96.1444C230.954 93.3844 241.572 93.8164 253.058 97.3524ZM50.3958 95.9704C53.1368 96.5184 53.667 97.2214 55.108 102.22C57.449 110.343 62.0718 117.887 68.7188 124.431C74.6748 130.295 74.7499 131.315 69.2259 131.376C66.1909 131.409 56.147 135.672 51.473 138.911C48.075 141.266 46.9309 141.54 42.8079 140.986C35.8429 140.051 26.6079 135.115 20.5999 129.117C15.7909 124.316 6.55792 110.343 6.55792 107.866C6.55792 106.74 25.0769 99.0734 33.0579 96.8954C38.5639 95.3934 45.6268 95.0164 50.3958 95.9704ZM126.419 111.974C130.705 112.831 134.217 116.372 135.497 121.124C136.088 123.321 137.264 125.693 138.11 126.395C139.405 127.47 140.243 127.089 143.428 123.979C147.72 119.788 153.13 117.852 156.699 119.229C160.751 120.793 163.753 124.905 164.285 129.619C164.704 133.342 164.386 134.434 162.196 136.798C159.089 140.15 159.95 142.84 164.446 143.827C169.396 144.915 173.558 151.534 173.558 158.317C173.558 161.829 173.117 162.651 170.308 164.363C166.704 166.56 159.624 167.018 157.778 165.172C155.973 163.367 151.984 165.955 149.141 170.774C146.009 176.086 141.958 179.87 137.34 181.799C125.604 186.701 113.384 179.23 117.844 169.879C119.703 165.98 119.215 163.352 116.633 163.352C115.691 163.352 112.489 162.63 109.517 161.747C100.092 158.948 94.633 151.532 97.157 144.954C97.994 142.774 103.36 139.719 107.711 138.946C112.213 138.147 112.81 136.761 110.962 131.399C109.156 126.157 110.487 120.185 114.395 115.998C118.386 111.721 120.917 110.874 126.419 111.974ZM134.43 130.422C128.564 131.346 126.575 132.43 122.75 136.786C115.808 144.692 115.957 156.983 123.069 163.228C127.383 167.015 133.349 168.68 140.704 168.148C151.125 167.394 157.558 160.278 157.558 149.504C157.558 135.439 148.745 128.168 134.43 130.422ZM209.515 133.953C221.286 137.351 228.401 142.285 234.515 151.289C238.193 156.704 238.291 157.054 236.711 159.115C235.802 160.302 232.921 162.212 230.308 163.359C224.579 165.876 224.121 168.301 228.825 171.208C230.622 172.319 233.144 174.346 234.429 175.714L236.765 178.202L229.621 187.136C219.972 199.204 214.499 202.977 203.257 205.311C198.931 206.209 196.227 206.218 192.034 205.347C186.67 204.234 186.426 204.036 183.621 198.526C182.032 195.405 176.868 188.577 172.146 183.352C167.423 178.127 163.559 173.568 163.559 173.221C163.558 172.874 165.545 172.089 167.973 171.478C170.401 170.866 173.739 169.229 175.391 167.839L178.395 165.311L185.903 167.832C198.065 171.915 211.066 170.898 210.354 165.921C210.118 164.271 209.45 163.913 207.058 164.155C196.88 165.182 190.825 164.308 182.912 160.669C180.304 159.47 179.655 158.486 179.12 154.917C178.765 152.549 177.12 148.476 175.465 145.866C173.81 143.256 172.591 141.047 172.757 140.956C172.922 140.865 175.77 139.533 179.084 137.995C182.399 136.457 186.221 134.361 187.578 133.337C189.603 131.81 191.302 131.557 197.052 131.926C200.905 132.174 206.514 133.086 209.515 133.953ZM88.6348 136.746L94.212 138.608L92.3199 142.23C89.9389 146.787 90.4598 153.376 93.5298 157.528L95.7239 160.496L93.3958 161.105C92.1148 161.44 87.5768 163.46 83.3128 165.595C77.5788 168.465 75.5579 169.989 75.5579 171.445C75.5579 174.665 77.9939 174.665 84.3709 171.446C87.6829 169.775 92.6438 167.551 95.3948 166.506C100.254 164.66 100.551 164.657 105.728 166.416L111.058 168.227L110.73 172.209C110.384 176.403 111.52 179.436 114.775 183.015L116.743 185.177L112.65 190.354C110.4 193.202 108.558 195.927 108.558 196.41C108.558 196.894 107.89 197.033 107.073 196.719C106.256 196.406 104.257 197.269 102.631 198.637C98.7389 201.912 90.9878 203.74 80.7278 203.802C73.9118 203.843 72.166 203.534 71.118 202.102C70.414 201.14 68.8259 200.352 67.5909 200.352C66.3549 200.352 62.218 198.665 58.397 196.602C51.794 193.037 51.479 192.705 52.024 189.877C52.34 188.241 53.7718 185.207 55.2078 183.136C58.6608 178.153 57.476 176.82 48.876 176.017C45.204 175.674 41.805 174.999 41.324 174.518C39.224 172.418 45.7529 152.896 50.2679 147.774C54.0679 143.463 60.761 139.525 66.803 138.044C83.399 133.976 80.8028 134.131 88.6348 136.746ZM148.285 138.625C150.277 140.616 150.989 142.509 151.34 146.741C151.931 153.858 151.166 156.695 147.796 159.887C145.25 162.3 144.509 162.459 137.216 162.155C129.745 161.844 129.23 161.669 126.355 158.451C123.578 155.343 123.371 154.607 123.761 149.227C124.438 139.858 130.383 135.008 140.373 135.673C144.472 135.946 146.282 136.621 148.285 138.625ZM246.766 165.034L249.474 167.074L244.941 170.328L240.409 173.583L237.488 170.785L234.567 167.986L237.235 166.236C238.703 165.273 240.313 163.755 240.812 162.863C241.388 161.834 242.147 161.562 242.889 162.117C243.532 162.599 245.277 163.912 246.766 165.034ZM169.735 189.113C178.79 199.146 180.977 203.842 181.022 213.352C181.053 219.796 180.596 221.827 177.779 227.776C174.646 234.391 166.933 244.79 160.888 250.547C158.172 253.134 157.968 253.174 155.817 251.547C154.584 250.615 152.297 247.377 150.735 244.352C148.493 240.011 147.391 238.852 145.504 238.852C143.479 238.852 143.004 239.49 142.401 243.026C141.747 246.856 139.049 253.352 138.112 253.352C137.894 253.352 133.968 251.051 129.387 248.239C115.398 239.652 110.561 233.914 108.601 223.581C106.879 214.5 111.134 200.646 118.131 192.552L121.259 188.934L129.786 188.875L138.313 188.816L138.778 198.478C139.143 206.05 139.764 209.177 141.651 212.938C144.436 218.49 146.876 220.434 148.73 218.58C149.699 217.611 149.503 216.419 147.796 212.905C144.915 206.975 143.184 196.503 144.002 189.954C144.541 185.637 145.328 184.003 148.197 181.246C150.14 179.379 152.432 176.508 153.292 174.865L154.855 171.877L158.956 176.796C161.212 179.501 166.063 185.044 169.735 189.113ZM46.1229 181.352C48.9269 181.352 48.9779 181.549 47.3409 186.076L46.1238 189.442L40.5909 188.772C37.5479 188.403 34.9248 187.987 34.7608 187.847C34.5978 187.707 35.419 185.762 36.585 183.525C38.512 179.828 38.9318 179.544 41.1968 180.405C42.5668 180.926 44.7839 181.352 46.1229 181.352ZM220.818 210.102C225.409 214.895 226.558 219.213 226.558 231.675V243.063L219.808 243.7C206.005 245.004 201.309 244.568 194.951 241.391C191.692 239.762 187.564 236.922 185.778 235.079C182.739 231.943 182.605 231.515 183.692 228.398L184.853 225.067L186.327 227.96C189.452 234.091 194.274 237.238 196.076 234.322C196.819 233.121 190.245 222.836 187.892 221.519C186.566 220.777 186.443 219.8 187.175 215.809L188.058 210.994L190.665 214.923C196.203 223.27 205.938 231.188 209.148 229.956C210.72 229.353 211.108 225.352 209.595 225.352C208.348 225.352 195.558 213.402 195.558 212.237C195.558 211.75 197.652 211.352 200.211 211.352C204.424 211.352 205.366 211.826 210.152 216.352C215.472 221.384 219.124 222.647 220.205 219.83C220.586 218.836 219.148 216.863 216.063 214.147C211.69 210.298 211.471 209.888 213.138 208.67C215.857 206.682 217.909 207.065 220.818 210.102ZM79.3409 209.859C79.4969 209.983 78.0349 211.675 76.0909 213.619C73.8369 215.873 72.5579 218.105 72.5579 219.783C72.5579 223.129 75.499 224.476 76.994 221.817C77.579 220.776 80.5289 217.5 83.5479 214.536C87.4179 210.739 90.0749 208.984 92.5479 208.591L96.0579 208.034L92.023 212.443C89.803 214.868 85.586 220.831 82.65 225.694C77.797 233.734 77.4548 234.678 78.8848 236.108C81.0418 238.265 82.6059 236.831 87.7989 227.935C91.3999 221.767 102.101 209.457 102.968 210.486C103.138 210.687 102.989 213.342 102.638 216.385C102.159 220.543 101.19 222.928 98.7388 225.977C94.7288 230.968 94.028 235.703 97.233 236.161C98.885 236.397 99.813 235.616 101.097 232.912C102.026 230.954 103.072 229.354 103.422 229.356C103.772 229.358 104.909 231.429 105.95 233.959C108.1 239.187 108.718 238.327 98.713 244.02C92.429 247.596 83.4849 250.44 74.3079 251.781C69.7279 252.45 69.5579 252.385 69.5579 249.987C69.5579 248.619 68.6579 242.933 67.5579 237.352C65.1999 225.391 65.005 216.611 66.991 211.859C68.422 208.434 68.429 208.431 73.741 209.031C76.665 209.362 79.1859 209.734 79.3409 209.859ZM151.066 262.516C148.394 266.658 147.973 266.954 147.301 265.161C146.885 264.051 145.642 261.875 144.539 260.325L142.533 257.508L144.608 253.992L146.682 250.476L150.378 254.164L154.074 257.852L151.066 262.516Z" fill="#FFC4C4"/>
</svg>
