<svg width="465" height="496" viewBox="0 0 465 496" fill="none" xmlns="http://www.w3.org/2000/svg">
<path fill-rule="evenodd" clip-rule="evenodd" d="M416.466 0.444322C403.966 1.93832 396.085 5.66525 377.561 18.8432C368.926 24.9862 366.157 26.4213 361.278 27.2803C353.898 28.5803 347.521 32.0232 339.948 38.7972L334.031 44.0882L329.493 40.8282C320.799 34.5822 306.329 30.9903 304.897 34.7233C304.619 35.4483 306.423 41.2393 308.907 47.5913C314.741 62.5113 316.466 69.3103 316.466 77.3793C316.466 82.0233 315.883 85.0213 314.466 87.6653C313.366 89.7183 312.466 91.8633 312.466 92.4343C312.466 93.0043 309.838 97.8443 306.627 103.188C303.416 108.532 299.615 115.492 298.182 118.654C296.2 123.028 295.069 124.404 293.456 124.404C290.742 124.404 287.669 125.993 284.287 129.145L281.609 131.642L278.621 129.515C270.394 123.656 258.321 127.096 254.469 136.396L253.226 139.397L247.39 133.994C234.062 121.655 218.098 118.557 201.69 125.125C189.813 129.88 182.466 140.454 182.466 152.794C182.466 162.989 188.779 168.4 200.678 168.402C211.491 168.405 224.061 162.376 226.394 156.068C227.043 154.316 227.739 154.657 233.434 159.514C243.842 168.391 244.027 166.752 230.736 183.404L219.164 197.904L211.565 198.622C197.063 199.992 180.143 206.67 167.822 215.887L162.12 220.153L154.904 214.418C146.433 207.687 134.213 199.909 129.559 198.287C126.297 197.149 126.283 197.116 127.122 192.523C128.499 184.985 127.975 169.494 126.103 162.404C122.598 149.13 108.996 126.404 104.556 126.404C102.58 126.404 97.7692 132.306 93.3552 140.146C92.0412 142.48 90.7002 144.392 90.3752 144.396C90.0502 144.401 88.4892 142.042 86.9072 139.154C84.6972 135.121 84.0392 132.629 84.0682 128.404C84.1592 115.576 90.6021 100.239 99.9061 90.7032C103.286 87.2392 106.505 84.4043 107.058 84.4043C107.611 84.4043 108.611 85.9173 109.28 87.7663C109.948 89.6153 112.138 92.8193 114.145 94.8863C122.37 103.355 131.568 103.521 140.853 95.3692C155.566 82.4512 150.768 57.7693 132.479 52.2903L128.814 51.1922L130.209 46.0483C132.916 36.0633 129.611 15.5753 124.662 11.6543C122.947 10.2963 118.5 9.94028 118.411 11.1543C118.381 11.5663 118.244 13.7043 118.106 15.9043C117.705 22.2773 111.556 30.5603 95.4642 46.4043C87.3642 54.3793 78.9121 63.3793 76.6821 66.4043C67.6561 78.6493 60.4901 97.8053 60.4731 109.738L60.4661 114.572L56.7161 111.619C49.7721 106.15 42.7391 103.27 34.8741 102.676C28.3171 102.18 26.9871 102.404 22.0051 104.841C18.9201 106.35 15.23 109.158 13.708 111.154C4.55503 123.154 18.7791 135.479 31.3071 126.404C36.1721 122.88 38.5561 122.679 42.9891 125.418C46.9421 127.861 51.3111 133.14 58.7021 144.404C65.7361 155.124 76.1181 167.319 81.3781 171.041C84.6091 173.328 85.4282 174.53 85.4452 177.014C85.4562 178.725 85.7521 182.213 86.1021 184.764C86.7201 189.271 86.6621 189.404 84.1021 189.404C82.4001 189.404 81.4661 188.861 81.4661 187.871C81.4661 182.582 71.5362 168.998 61.6992 160.829C50.0602 151.163 42.4162 148.055 26.0582 146.337C14.7042 145.146 14.5061 145.251 14.4811 152.472C14.4421 164.105 21.1562 177.235 33.3972 189.466C39.8432 195.906 43.3962 198.618 47.7352 200.408L53.5041 202.788L48.8772 207.037C45.0352 210.564 43.9481 211.097 42.4781 210.18C41.1011 209.319 39.4131 209.599 34.8791 211.44C24.1391 215.798 8.92803 232.409 2.85903 246.404C0.345031 252.203 0.037074 254.09 0.00307402 263.904C-0.030926 274.108 0.174105 275.302 2.83511 280.404C12.0281 298.023 23.8731 308.939 40.7161 315.314C42.3411 315.929 43.4661 317.106 43.4661 318.192C43.4661 320.462 50.0442 331.523 57.0482 341.031C66.8172 354.292 86.4651 376.098 89.7341 377.308C91.6541 378.018 93.7681 374.602 53.1561 436.404C22.5431 482.991 18.4661 489.372 18.4661 490.702C18.4661 492.344 21.6132 495.404 23.3032 495.404C24.2582 495.404 91.3261 447.182 119.966 425.903C131.887 417.046 130.278 417.21 138.107 424.063C147.031 431.874 150.783 434.404 153.446 434.404C156.307 434.404 172.452 421.952 187.883 407.843L200.258 396.529L200.946 401.12C204.044 421.777 225.01 454.394 232.584 450.341C235.718 448.664 239.443 432.063 239.458 419.711L239.466 413.518L252.195 419.671C264.263 425.505 265.313 425.826 272.445 425.864L279.966 425.904L279.663 421.404C278.748 407.809 273.302 385.494 269.005 377.734L266.696 373.563L269.058 372.97C271.768 372.29 281.595 364.725 285.83 360.059C287.405 358.324 290.851 353.648 293.487 349.668C297.351 343.835 298.519 341.022 299.507 335.168C302.681 316.364 292.432 290.176 278.038 280.313C274.242 277.712 274.148 276.981 276.372 267.404C276.947 264.929 277.428 261.317 277.442 259.377C277.462 256.364 278.453 254.871 284.241 249.127C287.967 245.429 291.582 242.404 292.273 242.404C292.965 242.404 293.867 241.495 294.278 240.384C295.007 238.413 295.107 238.427 298.495 240.962C316.338 254.313 342.918 253.506 354.954 239.247C361.457 231.542 363.243 221.808 359.5 214.472C355.228 206.098 343.784 199.657 334.946 200.653C325.972 201.665 320.955 208.424 321.198 219.174C321.302 223.767 321.023 225.259 320.153 224.75C317.091 222.959 307.623 216.187 304.632 213.649L301.299 210.819L306.91 210.688C310.386 210.606 313.745 209.841 315.74 208.676C319.846 206.278 323.466 200.927 323.466 197.256C323.466 194.955 323.906 194.404 325.743 194.404C330.625 194.404 335.466 188.437 335.466 182.422C335.466 178.311 333.161 173.008 330 169.847L327.424 167.271L329.695 164.393C330.944 162.81 332.56 161.49 333.286 161.459C336.885 161.308 349.823 154.769 356.636 149.658C373.987 136.641 386.612 123.525 400.17 104.429C409.199 91.7122 413.942 82.1263 415.643 73.1543C416.346 69.4413 417.288 66.4043 417.735 66.4043C418.181 66.4043 419.918 67.4173 421.593 68.6543C428.623 73.8463 443.866 69.7222 454.534 59.7442C463.252 51.5892 465.857 43.4562 463.465 31.8642C461.677 23.2042 459.579 19.7953 450.812 11.3063C444.83 5.51326 441.778 3.33632 437.966 2.14232C431.292 0.0513206 424.346 -0.496677 416.466 0.444322ZM434.483 7.00231C438.682 8.24931 441.377 10.0593 446.765 15.2523C455.156 23.3403 457.426 27.5373 458.163 36.3303C458.93 45.4843 457.493 49.2652 450.985 55.2132C444.699 60.9582 438.087 64.3062 431.485 65.0882C427.073 65.6112 426.46 65.3943 422.661 61.9613C417.841 57.6063 416.037 52.9012 416.753 46.5472C417.167 42.8822 417.957 41.3572 420.582 39.1662C425.899 34.7272 429.361 35.5152 431.968 41.7552C433.827 46.2032 436.784 46.4583 437.276 42.2123C438.039 35.6323 430.885 29.6682 423.652 30.8542C420.243 31.4132 419.779 31.1812 417.47 27.7602C414.489 23.3442 406.479 16.7953 401.077 14.3563L397.187 12.6003L400.577 10.8203C405.446 8.2643 417.05 5.56326 423.534 5.47826C426.597 5.43726 431.524 6.12331 434.483 7.00231ZM396.141 18.8523C400.22 19.7233 409.358 26.2632 412.797 30.7712C415.865 34.7942 416.028 35.6933 413.992 37.3823C413.182 38.0553 412.23 40.1472 411.876 42.0312L411.233 45.4573L406.1 40.3093C400.622 34.8153 392.696 29.0743 385.63 25.4813L381.294 23.2762L386.073 19.8783C388.946 17.8353 391.274 16.8183 391.909 17.3273C392.491 17.7923 394.395 18.4783 396.141 18.8523ZM125.267 33.4043C125.592 40.2343 125.248 43.1583 123.513 48.2883C122.326 51.7993 121.591 55.2863 121.879 56.0383C122.205 56.8883 123.964 57.4043 126.533 57.4043C135.122 57.4043 141.457 62.8803 143.598 72.1553C144.615 76.5603 144.534 77.9382 143.026 81.8852C138.742 93.1042 129.666 98.1444 121.424 93.8824C117.793 92.0044 112.488 83.0203 112.475 78.7253C112.462 74.3483 114.74 72.4043 119.882 72.4043C124.444 72.4043 126.125 73.6693 128.284 78.7253C130.096 82.9703 133 81.9343 132.85 77.0973C132.491 65.5553 112.377 62.1932 107.892 72.9272C107.066 74.9032 102.423 80.4322 97.5732 85.2132C87.9012 94.7482 84.4501 100.69 80.5871 114.468C76.6941 128.352 78.1282 138.139 85.4032 147.324C88.0472 150.663 88.2561 151.439 87.4571 154.972C86.9691 157.135 86.3001 160.592 85.9721 162.654C85.6441 164.717 84.9712 166.404 84.4762 166.404C82.8512 166.404 69.7741 150.788 63.4141 141.251C54.6541 128.117 50.7871 123.563 45.5931 120.27C39.6201 116.482 36.1161 116.62 29.4661 120.904C23.3871 124.821 21.8911 125.09 18.6891 122.847C14.5911 119.977 16.4262 114.401 22.7152 110.608C27.5192 107.711 32.2681 107.201 38.7421 108.888C45.9891 110.775 51.5772 114.266 58.1782 121.03C65.1722 128.197 66.8841 127.647 66.0051 118.513C65.1851 110 67.5482 96.4503 71.4542 87.2733C76.6782 74.9963 82.7742 66.9812 99.7622 50.0522C110.817 39.0372 117.08 31.9523 119.467 27.7643C123.765 20.2223 124.681 21.1123 125.267 33.4043ZM385.554 32.0152C394.537 37.1972 403.523 44.9502 407.086 50.5942C410.221 55.5592 410.095 56.4013 406.216 56.4203C404.429 56.4283 400.266 57.0922 396.966 57.8952L390.966 59.3563L388.977 56.6302C384.962 51.1282 375.782 42.6973 370.695 39.8403C367.82 38.2253 365.468 36.6052 365.467 36.2392C365.465 35.0462 374.709 27.4043 376.153 27.4043C376.927 27.4043 381.157 29.4792 385.554 32.0152ZM354.848 38.6543C347.168 46.6403 337.673 57.9383 329.943 68.2883L322.976 77.6183L321.708 70.0163C321.011 65.8343 318.834 58.0243 316.872 52.6593C312.017 39.3883 312.021 39.4023 313.599 39.4143C316.554 39.4353 325.184 44.3213 329.217 48.2563C331.555 50.5373 333.684 52.4043 333.949 52.4043C334.213 52.4043 337.322 49.5113 340.857 45.9763C346.612 40.2213 356.371 33.4383 358.932 33.4133C359.463 33.4083 357.625 35.7663 354.848 38.6543ZM372.108 47.5593C376.623 50.6033 384.473 59.0173 384.455 60.7953C384.449 61.4053 381.709 63.5972 378.366 65.6662L372.287 69.4293L367.258 64.9073C364.492 62.4203 359.157 58.9263 355.403 57.1423L348.577 53.9003L354.625 47.1343L360.672 40.3683L364.319 42.5682C366.325 43.7782 369.83 46.0243 372.108 47.5593ZM352.919 62.3823C356.351 64.0193 361.13 67.1093 363.54 69.2483L367.921 73.1363L363.488 77.2702C361.05 79.5442 358.883 81.4043 358.674 81.4043C358.464 81.4043 356.419 80.0593 354.129 78.4153C350.074 75.5043 340.052 71.4043 336.991 71.4043C336.152 71.4043 335.466 71.1453 335.466 70.8293C335.466 69.4073 344.084 59.4043 345.31 59.4043C346.063 59.4043 349.488 60.7443 352.919 62.3823ZM412.073 62.9863C411.739 63.8563 411.466 65.1483 411.466 65.8573C411.466 66.6823 409.399 67.3853 405.716 67.8103C398.794 68.6103 390.686 71.7983 383.942 76.3713C371.013 85.1383 354.694 105.628 348.921 120.342C347.397 124.226 345.868 127.404 345.524 127.404C345.179 127.404 344.121 126.089 343.172 124.483C341.448 121.565 341.454 121.546 347.108 110.733C354.626 96.3542 358.871 90.2422 366.935 82.1872C377.754 71.3792 387.432 65.7913 400.466 62.8243C408.631 60.9653 412.826 61.0243 412.073 62.9863ZM409.005 76.1543C408.632 77.6673 407.162 81.5123 405.739 84.7013C403.748 89.1603 402.784 90.3402 401.559 89.8172C396.731 87.7562 390.507 90.2164 381.264 97.8414C368.633 108.259 359.466 123.777 359.466 134.74C359.466 140.647 358.835 141.497 350.058 147.41C345.274 150.634 345.168 150.657 345.847 148.31C346.23 146.987 346.79 144.329 347.09 142.404C347.391 140.479 348.244 137.554 348.987 135.904C349.729 134.254 351.525 129.754 352.977 125.904C363.193 98.8253 388.798 73.8933 406.824 73.4713C409.45 73.4093 409.628 73.6283 409.005 76.1543ZM341.058 78.4363C347.228 80.5583 354.466 84.8073 354.466 86.3053C354.466 86.7853 353.003 89.3763 351.216 92.0633L347.966 96.9493L341.466 93.6753C337.891 91.8743 332.491 89.7883 329.466 89.0383C326.441 88.2893 323.966 87.4462 323.966 87.1662C323.966 86.8852 325.461 84.3493 327.287 81.5303C331.114 75.6253 332.187 75.3843 341.058 78.4363ZM337.216 97.9832C341.203 99.9252 344.466 101.954 344.466 102.493C344.466 103.032 342.812 106.506 340.789 110.213L337.113 116.953L332.753 114.746C327.21 111.94 319.034 110.908 312.83 112.231C310.169 112.798 307.848 113.119 307.672 112.943C307.335 112.607 314.304 100.909 317.739 96.0452C319.638 93.3552 320.061 93.2234 324.862 93.8194C327.669 94.1684 333.229 96.0412 337.216 97.9832ZM399.466 95.2613C399.466 99.0683 366.605 136.876 364.835 135.106C363.839 134.11 366.711 125.76 370.236 119.404C374.422 111.857 386.115 99.9553 392.573 96.6683C397.215 94.3053 399.466 93.8463 399.466 95.2613ZM328.248 118.957C339.521 123.666 344.093 135.522 339.579 148.339C337.315 154.769 334.991 156.632 334.027 152.79C332.284 145.846 325.889 141.404 317.634 141.404H312.722L312.073 137.346C311.595 134.359 310.289 132.182 307.122 129.096L302.82 124.904L305.802 122.404C307.442 121.029 309.725 119.357 310.875 118.689C313.841 116.966 323.852 117.121 328.248 118.957ZM233.858 131.276C243.028 135.79 247.721 141.544 263.367 167.45C270.738 179.654 279.393 193.179 282.601 197.505C290.32 207.916 302.424 219.907 310.467 225.111C314.041 227.424 318.197 230.265 319.702 231.424C321.514 232.821 323.54 233.427 325.702 233.218C328.629 232.936 328.952 232.595 328.827 229.904C328.75 228.254 328.135 225.002 327.461 222.677C324.875 213.766 329.056 206.387 336.668 206.426C348.069 206.484 358.038 216.943 355.507 226.191C350.705 243.733 328.209 250.37 308.047 240.193C299.274 235.764 290.503 226.323 277.588 207.404C253.053 171.463 244.695 161.104 232.41 151.414C223.556 144.429 220.944 143.326 218.666 145.604C216.654 147.616 217.176 151.404 219.466 151.404C222.408 151.404 221.903 153.859 218.345 156.852C208.588 165.062 193.065 165.331 188.944 157.361C186.973 153.55 187.517 149.305 190.946 141.727C196.882 128.609 217.996 123.467 233.858 131.276ZM302.067 131.948C304.841 133.673 307.782 140.007 307.09 142.766C306.787 143.973 305.271 146.174 303.722 147.659L300.904 150.359L294.935 147.905C291.652 146.556 287.729 145.441 286.216 145.428C283.06 145.4 283.084 145.483 284.634 140.02C287.242 130.824 294.704 127.37 302.067 131.948ZM274.553 133.686C277.315 135.806 278.681 139.444 278.027 142.932C277.545 145.501 276.405 146.836 272.984 148.841C270.552 150.266 267.769 152.775 266.799 154.418C265.829 156.06 264.787 157.404 264.484 157.404C264.181 157.404 262.486 154.984 260.717 152.027L257.501 146.65L259.006 141.582C259.901 138.567 261.569 135.681 263.123 134.459C266.046 132.16 272.037 131.755 274.553 133.686ZM110.394 141.89C115.305 149.414 119.382 158.836 121.539 167.646C122.744 172.571 122.476 190.99 121.168 193.087C120.61 193.982 119.331 193.896 115.92 192.734C109.179 190.437 108.064 187.64 107.895 172.599C107.804 164.448 107.348 159.891 106.544 159.099C103.079 155.684 100.624 169.135 102.505 181.232C103.131 185.262 103.408 188.795 103.119 189.084C102.83 189.373 100.313 189.296 97.5251 188.912C91.2231 188.045 91.1261 187.744 91.6751 170.683C91.9891 160.931 92.5871 156.545 94.1961 152.167C96.6071 145.611 103.144 134.404 104.559 134.404C105.08 134.404 107.706 137.773 110.394 141.89ZM327.216 151.128C329.024 153.526 328.765 155.669 326.216 159.414C323.31 163.684 319.702 166.243 316.071 166.611C313.553 166.866 312.869 166.327 310.804 162.463C309.498 160.021 307.691 157.205 306.788 156.207C305.884 155.209 305.332 154.282 305.56 154.148C305.789 154.014 307.4 152.617 309.14 151.044C310.881 149.471 313.803 147.853 315.635 147.448C319.393 146.617 325.209 148.465 327.216 151.128ZM31.1441 152.481C46.5511 154.602 62.1702 165.432 71.8562 180.711C76.4632 187.979 76.8052 189.928 73.7192 191.334C71.5002 192.345 70.4612 191.987 64.5952 188.19C60.9542 185.833 54.5051 181.092 50.2651 177.654C42.3111 171.207 38.4661 169.81 38.4661 173.368C38.4661 175.59 47.1442 183.179 57.7462 190.229L64.6052 194.79L62.2861 196.548C59.6081 198.577 57.4092 198.27 49.5442 194.77C42.6032 191.681 30.1671 179.181 25.8001 170.904C23.2391 166.05 19.4661 154.795 19.4661 152.01C19.4661 151.143 22.2401 151.255 31.1441 152.481ZM293.466 153.485C302.412 157.535 306.026 162.653 307.059 172.74C307.666 178.665 307.457 179.903 304.991 184.942C301.039 193.02 291.956 199.322 288.806 196.172C287.556 194.922 287.865 194.405 291.181 192.212C296.39 188.764 300.697 180.691 300.697 174.373C300.697 167.944 297.741 163.877 290.74 160.672C282.37 156.84 274.957 158.771 270.945 165.83C270.014 167.467 269.792 167.38 268.445 164.852C267.281 162.669 267.237 161.986 268.237 161.65C268.936 161.415 270.203 159.879 271.053 158.235C272.93 154.606 279.404 151.448 284.966 151.448C287.166 151.448 290.991 152.365 293.466 153.485ZM289.472 166.407C294.282 168.861 295.859 171.592 295.115 176.179C294.1 182.433 286.508 190.784 283.517 188.936C283.078 188.664 280.877 185.394 278.626 181.668C274.625 175.046 274.563 174.807 275.881 170.972C278.217 164.18 282.371 162.784 289.472 166.407ZM323.118 172.433C329.32 174.594 331.81 184.822 326.916 188.029C324.668 189.502 323.731 189.547 318.999 188.412C311.31 186.567 311.106 186.364 312.375 181.792C312.969 179.654 313.457 176.695 313.46 175.217C313.465 172.937 313.958 172.47 316.716 172.127C318.503 171.906 320.011 171.652 320.067 171.564C320.122 171.476 321.495 171.867 323.118 172.433ZM251.723 180.654C254.658 184.641 259.148 190.848 261.702 194.447L266.346 200.99L260.506 207.36L254.666 213.731L250.353 210.039C245.852 206.187 237.794 201.948 230.966 199.841C228.766 199.162 227.084 198.095 227.228 197.47C227.473 196.404 245.524 173.404 246.115 173.404C246.265 173.404 248.788 176.667 251.723 180.654ZM314.985 193.411C317.15 194.234 317.54 194.938 317.279 197.554C316.811 202.266 312.666 204.917 305.872 204.851C302.001 204.813 299.931 204.28 298.698 203.003C297.053 201.299 297.066 201.151 298.945 200.056C300.033 199.423 302.508 197.266 304.445 195.263C308.071 191.513 309.385 191.282 314.985 193.411ZM111.966 197.407C115.816 198.614 123.016 201.542 127.966 203.914C137.562 208.513 156.584 221.888 158.427 225.332C160.031 228.328 162.237 227.903 167.402 223.606C187.13 207.188 213.202 200.148 231.571 206.279C240.529 209.269 244.342 211.819 253.869 221.192C260.499 227.715 263.135 231.226 266.829 238.453C271.225 247.053 271.466 247.949 271.466 255.685C271.466 266.213 269.602 274.693 267.484 273.799C266.649 273.446 260.234 271.182 253.228 268.769C234.63 262.36 217.333 258.554 196.946 256.382C175.639 254.113 126.942 251.992 116.93 252.898C102.628 254.192 75.1121 249.792 64.8211 244.565C52.9451 238.535 47.6982 233.361 45.5012 225.52C44.2502 221.054 45.6692 218.417 53.3462 210.939C60.9392 203.543 67.0451 199.701 75.9661 196.708C82.0741 194.659 84.3681 194.413 93.9661 194.786C101.485 195.077 107.181 195.906 111.966 197.407ZM278.315 218.245C282.816 224.757 287.583 231.104 288.908 232.349L291.317 234.612L284.772 240.758C277.594 247.499 276.466 248.239 276.466 246.209C276.466 243.425 269.603 230.683 264.575 224.133L259.378 217.362L264.172 211.896C266.809 208.889 269.228 206.424 269.549 206.417C269.869 206.41 273.814 211.732 278.315 218.245ZM39.5532 223.05C41.2832 241.082 60.4591 253.618 91.9661 257.311C96.9161 257.891 113.341 258.436 128.466 258.523C178.732 258.81 211.28 262.177 237.966 269.849C273.153 279.966 283.288 287.528 291.122 309.51C294.141 317.979 295.288 330.69 293.594 336.904C291.289 345.359 281.341 357.919 271.25 365.115L266.748 368.326L261.576 360.385C258.329 355.401 254.089 350.551 250.185 347.358C241.533 340.28 224.187 331.955 212.966 329.495C201.605 327.004 171.37 323.677 147.966 322.342C76.3751 318.259 67.5501 317.392 52.1441 312.928C33.7361 307.593 22.8711 300.49 14.0501 288.022C5.75307 276.294 3.39107 268.012 5.44607 257.843C8.05507 244.925 17.7491 230.55 30.8171 220.221C37.4801 214.954 38.8182 215.388 39.5532 223.05ZM57.9371 320.421C71.0171 323.29 96.2121 325.497 131.966 326.905C154.699 327.801 189.567 331.085 205.966 333.876C214.744 335.37 230.709 340.787 232.425 342.854C234 344.753 232.627 347.675 224.334 360.077C218.66 368.562 213.079 374.91 198.53 389.425C181.153 406.763 155.961 428.417 153.195 428.394C151.792 428.383 136.466 415.702 136.466 414.553C136.466 414.137 139.242 411.84 142.634 409.448L148.803 405.097L151.384 408.17C152.804 409.86 154.713 412.292 155.626 413.573C157.234 415.831 157.375 415.851 160.126 414.222C162.729 412.68 162.991 411.986 163.263 405.928C163.655 397.192 161.508 389.162 155.456 376.728C148.127 361.671 143.121 356.236 127.607 346.492C119.361 341.314 113.148 336.61 110.601 333.618L106.589 328.904L103.862 331.592L101.136 334.28L102.914 340.852C103.893 344.466 105.525 348.48 106.541 349.772C108.385 352.117 108.377 352.138 101.11 363.315L93.8331 374.51L86.3922 366.707C71.3782 350.962 59.2301 335.552 51.9631 323.034C49.4691 318.739 49.3621 318.233 51.0511 318.747C52.1041 319.068 55.2031 319.821 57.9371 320.421ZM113.12 344.842C112.472 347.02 110.617 346.275 109.628 343.439L108.563 340.384L110.981 342.144C112.31 343.112 113.273 344.326 113.12 344.842ZM250.089 355.264C253.072 358.212 255.997 361.528 256.589 362.634C257.833 364.957 258.367 365.219 247.667 358.257C243.653 355.645 239.466 353.221 238.362 352.871C237.259 352.521 236.605 351.71 236.91 351.069C237.215 350.428 237.741 349.121 238.079 348.165C238.663 346.512 238.843 346.512 241.679 348.165C243.321 349.121 247.106 352.316 250.089 355.264ZM126.292 352.333C129.962 354.494 134.527 357.583 136.435 359.197L139.903 362.132L113.545 389.228C89.0851 414.373 86.8901 416.368 83.0501 416.944C80.7751 417.285 77.5302 417.416 75.8402 417.234L72.7682 416.904L77.3671 409.857C103.852 369.276 117.88 348.404 118.668 348.404C119.19 348.404 122.621 350.172 126.292 352.333ZM238.731 359.539C245.593 363.04 258.349 372.38 260.879 375.756C264.296 380.316 266.908 386.021 268.882 393.234C271.41 402.471 274.307 420.384 273.367 420.965C271.754 421.962 266.705 420.126 253.216 413.636L239.466 407.02V402.4C239.466 393.148 234.433 378.165 228.801 370.654C225.847 366.714 226.711 366.548 231.984 370.044C237.632 373.787 241.324 377.328 244.092 381.654C246.464 385.362 248.734 386.397 250.001 384.347C252.081 380.982 244.902 371.619 235.716 365.716C229.958 362.016 230.019 362.108 231.501 359.338C232.809 356.894 233.588 356.915 238.731 359.539ZM147.224 372.654C151.09 379.035 155.683 390.099 155.268 392.032C154.848 393.99 88.0271 442.476 87.7071 441.055C87.5651 440.422 88.2401 435.537 89.2071 430.2L90.9661 420.496L116.8 393.95C131.009 379.35 142.951 367.404 143.339 367.404C143.726 367.404 145.475 369.767 147.224 372.654ZM227.964 380.458C234.947 394.062 236.22 416.714 231.297 439.743L230.262 444.583L227.26 441.743C218 432.983 207.972 411.369 205.994 395.904C205.376 391.069 205.483 390.778 209.266 387.092L213.177 383.28L213.815 388.092C214.753 395.17 218.574 406.232 220.312 406.898C221.142 407.217 222.39 406.898 223.085 406.191C224.105 405.152 223.946 403.746 222.261 398.904C221.104 395.579 219.958 389.211 219.692 384.623C219.282 377.554 219.482 376.044 221.054 374.307C222.823 372.352 222.95 372.343 224.261 374.088C225.011 375.087 226.678 377.954 227.964 380.458ZM157.859 400.986C158.193 401.856 158.466 403.509 158.466 404.66C158.466 406.718 158.425 406.714 155.978 404.416C154.077 402.629 153.752 401.764 154.601 400.741C156.068 398.974 157.117 399.052 157.859 400.986ZM84.4952 423.154C84.5112 423.566 83.5301 429.309 82.3151 435.915L80.1062 447.925L54.5361 466.518C40.4731 476.744 28.8331 485.006 28.6701 484.878C28.5061 484.749 33.4902 476.828 39.7452 467.274C45.9992 457.721 55.0061 443.967 59.7591 436.71L68.4001 423.516L73.1832 423.14C82.4822 422.41 84.4662 422.412 84.4952 423.154Z" fill="#FFC4C4"/>
</svg>
