<svg width="264" height="658" viewBox="0 0 264 658" fill="none" xmlns="http://www.w3.org/2000/svg">
<path fill-rule="evenodd" clip-rule="evenodd" d="M127.027 1.63516C124.669 2.81316 122.609 5.09621 120.714 8.63321C119.166 11.5212 117.332 13.8832 116.638 13.8832C114.777 13.8832 111.341 17.8873 109.575 22.1153C107.767 26.4413 107.524 34.9802 109.162 36.6182C110.009 37.4652 109.993 38.9622 109.099 42.5132C108.439 45.1312 108.011 49.6632 108.146 52.5852L108.392 57.8972L103.142 60.5132C95.8638 64.1402 92.5238 69.3123 92.6298 76.7923C92.7148 82.8193 94.6779 87.6962 98.7839 92.0872L101.313 94.7912L99.2548 99.5872C95.1808 109.08 94.1997 122.5 96.6757 134.876C97.1287 137.145 96.7478 137.756 94.2248 138.801C86.7928 141.879 84.1429 148.077 86.4619 156.957C88.3969 164.367 92.3907 171.179 98.0207 176.674L102.741 181.28L100.514 186.332C99.2898 189.11 97.7787 193.768 97.1567 196.682C95.7297 203.374 95.6748 227.357 97.0808 229.984C97.9618 231.631 97.4618 232.725 94.0248 236.668C87.9178 243.675 78.2269 251.63 72.1999 254.583C65.0839 258.07 54.1108 258.83 49.0268 256.189C45.2608 254.233 45.2497 254.173 47.1237 245.789C48.1297 241.289 48.1248 239.306 47.0998 235.645C43.4758 222.7 29.3439 216.162 17.4399 221.925C12.0489 224.535 4.47186 232.622 1.83686 238.579C-1.17814 245.396 -0.406174 256.473 3.59883 263.856C12.5158 280.29 28.5898 289.135 46.2958 287.35C54.2568 286.547 77.1568 280.32 83.0268 277.362C85.5018 276.115 89.9567 273.457 92.9267 271.455C95.8967 269.454 98.5988 267.944 98.9308 268.1C100.001 268.602 110.027 279.554 110.027 280.221C110.027 280.576 102.772 290.623 93.9038 302.548L77.7817 324.23L79.8898 337.307C83.6178 360.419 89.0098 394.629 93.5368 423.883C97.7188 450.905 99.7799 464.139 105.492 500.633C109.437 525.838 115.698 565.783 119.011 586.883C120.694 597.608 122.721 610.658 123.514 615.883C126.932 638.394 129.922 655.904 130.511 656.857C130.86 657.421 131.932 657.883 132.895 657.883C136.543 657.883 138.002 655.464 139.528 646.883C141.291 636.969 152.027 574.195 161.504 518.383C165.146 496.933 169.228 473.083 170.574 465.383C171.921 457.683 175.048 439.458 177.524 424.883C180 410.308 182.926 393.208 184.027 386.883C195.549 320.684 195.269 322.707 193.274 319.943C192.258 318.535 184.997 308.272 177.138 297.136L162.85 276.89L168.024 270.386C170.871 266.809 173.358 263.883 173.552 263.883C173.747 263.883 177.42 266.41 181.716 269.498C192.975 277.591 205.559 282.971 217.807 284.928C230.07 286.887 241.809 282.76 252.548 272.714C260.589 265.192 263.027 260.33 263.026 251.817C263.025 244.686 259.718 236.205 254.551 230.084C248.971 223.473 237.289 219.658 229.251 221.823C220.201 224.26 213.762 233.692 213.613 244.733L213.527 251.084L207.499 250.7C200.74 250.27 195.364 247.868 187.277 241.666L182.027 237.64V226.137C182.027 213.889 178.463 192.561 175.44 186.714L173.904 183.745L180.741 176.548C189.508 167.318 191.485 163.303 191.448 154.805C191.403 144.542 186.459 137.348 177.933 135.139L174.579 134.269L174.852 122.326C175.044 113.887 174.664 108.66 173.556 104.508L171.987 98.6332L176.437 93.8763C183.687 86.1243 184.819 76.7542 179.482 68.6532C176.837 64.6382 170.631 60.8832 166.64 60.8832C164.231 60.8832 164.166 60.6802 163.849 52.1332C163.595 45.2932 163.875 42.9022 165.132 41.1802C167.551 37.8682 169.345 30.3942 168.634 26.5992C167.24 19.1702 158.554 9.69919 154.545 11.2382C153.83 11.5122 151.863 10.0192 150.176 7.91922C144.345 0.663221 134.385 -2.04084 127.027 1.63516ZM140.829 7.28116C146.486 10.2062 149.38 15.9342 148.364 22.1952L147.831 25.4762L139.179 25.4302C134.42 25.4042 129.331 25.7192 127.87 26.1292C125.306 26.8482 125.19 26.7022 124.532 21.9192C123.169 12.0102 126.797 5.88321 134.029 5.88321C136.282 5.88321 139.343 6.51216 140.829 7.28116ZM160.485 22.2212C163.142 26.7552 163.736 31.6902 162.012 34.9102C161.079 36.6552 160.686 36.4692 157.108 32.5872L153.219 28.3682L154.255 23.1252C155.53 16.6772 157.102 16.4492 160.485 22.2212ZM119.027 22.6833C119.027 24.2233 119.56 26.0152 120.21 26.6662C120.861 27.3172 121.199 27.9713 120.96 28.1203C120.722 28.2683 119.083 29.4013 117.317 30.6363C115.552 31.8723 113.807 32.8832 113.44 32.8832C112.3 32.8832 113.986 24.8753 115.665 22.3133C117.77 19.1003 119.027 19.2393 119.027 22.6833ZM146.612 31.9903C152.178 33.6843 157.165 40.6412 158.364 48.3832C159.758 57.3772 156.346 68.2282 154.705 60.0232C153.731 55.1552 149.408 51.0502 143.424 49.3102C134.71 46.7772 127.949 49.0983 122.812 56.3863C119.728 60.7623 119.71 60.7702 116.77 59.2502C113.832 57.7312 113.824 57.6992 114.179 49.8722C114.453 43.8382 115.022 41.3652 116.636 39.2012C122.206 31.7272 135.356 28.5653 146.612 31.9903ZM144.06 55.4002C147.886 57.3792 150.027 61.6713 150.027 67.3653C150.027 72.8343 152 74.1962 155.355 71.0452C156.775 69.7112 158.343 69.1532 159.687 69.5042C161.121 69.8792 162.264 69.3832 163.27 67.9472C164.775 65.7972 165.957 65.8312 170.811 68.1612C175.929 70.6182 178.675 79.8002 175.907 85.1992C175.291 86.4002 173.417 88.8312 171.742 90.6012L168.698 93.8183L164.885 90.3732C158.097 84.2412 155.32 83.5272 138.027 83.4712C121.646 83.4182 115.579 84.5252 108.6 88.8382L105.345 90.8503L103.233 88.6032C100.591 85.7902 98.0268 79.7633 98.0268 76.3653C98.0268 74.9453 98.6579 72.5642 99.4289 71.0732C101.121 67.8002 107.744 63.8832 111.584 63.8832C114.52 63.8832 118.027 66.3512 118.027 68.4162C118.027 69.0882 118.702 70.1982 119.527 70.8832C121.561 72.5712 123.68 70.7622 124.583 66.5642C126.831 56.1212 135.664 51.0582 144.06 55.4002ZM147.994 96.6732C149.308 105.116 148.68 110.868 145.354 120.883C143.423 126.697 141.707 127.773 136.462 126.456C131.328 125.167 125.027 108.195 125.027 95.6532V88.8832H135.905H146.783L147.994 96.6732ZM159.157 93.1512C161.617 95.0282 164.631 98.6962 166.234 101.765C168.884 106.838 169.027 107.793 169.027 120.44V133.77L163.067 136.63L157.107 139.491L155.937 136.667C155.294 135.113 153.442 132.727 151.823 131.365L148.878 128.887L151.586 119.683C154 111.478 154.237 109.363 153.768 100.181C153.479 94.5172 153.609 89.8832 154.057 89.8832C154.505 89.8832 156.8 91.3542 159.157 93.1512ZM119.027 96.2232C119.027 103.283 122.319 116.012 125.954 123.004L128.877 128.625L126.39 129.957C123.626 131.435 118.027 138.549 118.027 140.58C118.027 142.229 118.379 142.307 112.608 139.379C109.902 138.006 106.687 136.883 105.465 136.883C102.477 136.883 101.931 135.109 101.3 123.346C100.466 107.795 104.146 97.9282 112.557 93.1652C118.443 89.8312 119.027 90.1072 119.027 96.2232ZM147.1 134.935C150.326 137.232 152.209 142.107 151.862 147.263C151.436 153.594 155.658 154.603 158.082 148.75C159.814 144.57 165.328 140.526 168.099 141.406C169.29 141.784 171.282 141.549 172.525 140.884C175.801 139.131 181.107 141.902 183.863 146.805C188.53 155.109 185.926 163.703 175.712 173.71L171.295 178.036L168.539 175.482L165.783 172.928L168.502 166.529C171.442 159.612 171.511 156.6 168.743 156.067C167.403 155.809 166.229 157.431 163.837 162.848C161.431 168.295 160.32 169.825 159.109 169.359C158.239 169.024 153.877 168.278 149.416 167.701L141.306 166.652L140.682 158.569C140.045 150.301 138.518 147.097 135.726 148.168C134.544 148.622 134.367 150.439 134.787 157.805L135.304 166.883L132.416 166.979C130.827 167.032 127.052 167.595 124.027 168.229L118.527 169.383L112.649 162.084C106.817 154.844 103.945 153.356 103.206 157.192C102.885 158.857 103.844 160.356 110.467 168.536L113.02 171.689L109.397 173.827C105.904 175.888 105.701 175.901 103.707 174.174C97.3297 168.65 92.0738 159.514 91.3078 152.624C90.9158 149.095 91.2358 148.01 93.2148 146.162C100.011 139.817 115.027 143.136 115.027 150.983C115.027 153.097 118.517 155.293 120.605 154.491C121.433 154.174 122.029 152.574 122.033 150.664C122.047 142.294 126.738 134.943 133.342 132.941C137.636 131.64 143.709 132.52 147.1 134.935ZM143.722 178.15C148.208 188.845 150.027 196.825 150.012 205.738C150.003 210.493 149.666 214.873 149.262 215.471C148.782 216.182 145.334 216.401 139.334 216.102L130.141 215.644L129.084 210.714C127.236 202.098 128.179 191.172 131.994 177.007C133.073 172.999 133.223 172.883 137.316 172.9C141.443 172.917 141.571 173.021 143.722 178.15ZM154.905 174.439C165.632 177.625 170.138 184.519 174.131 203.851C176.131 213.539 177.827 231.883 176.722 231.883C176.389 231.883 173.703 230.196 170.755 228.133C167.806 226.071 163.145 223.333 160.398 222.05L155.402 219.717L155.42 206.55C155.439 193.209 154.623 189.425 148.533 174.633C147.651 172.489 148.275 172.47 154.905 174.439ZM126.548 175.633C123.313 183.798 121.765 206.366 123.937 213.685C124.759 216.453 124.643 217.072 123.222 217.509C119.132 218.767 109.364 223.608 105.947 226.07L102.217 228.758L101.512 221.738C99.6979 203.67 105.439 182.129 113.135 178.13C116.708 176.273 123.276 174.033 125.384 173.953C126.76 173.901 127.062 174.336 126.548 175.633ZM145.433 222.4C156.868 225.379 165.444 230.588 182.527 244.929C185.827 247.699 191.424 251.401 194.964 253.154C200.718 256.003 202.251 256.326 209.41 256.188C216.516 256.052 217.739 256.304 220.254 258.421C225.758 263.052 232.539 263.399 238.697 259.363C241.555 257.491 245.018 252.139 245.023 249.588C245.028 247.142 240.593 242.883 238.041 242.883C234.885 242.883 234.306 245.831 237.056 247.905C239.276 249.579 239.314 249.796 237.789 252.123C235.364 255.825 230.756 257.428 227.007 255.875C219.364 252.709 217.06 245.047 221.14 236.366C224.284 229.677 228.107 226.883 234.115 226.883C243.374 226.883 251.143 232.322 255.114 241.585C259.83 252.588 258.545 258.55 249.509 267.586C238.356 278.739 227.862 281.789 213.479 278.059C197.505 273.916 189.014 269.023 171.403 253.811C156.856 241.246 151.272 238.376 141.527 238.454C125.507 238.582 114.16 243.844 99.5268 257.929C87.9448 269.078 80.9438 272.999 63.5268 278.095C54.2948 280.795 50.8388 281.318 42.0268 281.348C32.3628 281.38 31.0668 281.15 25.7458 278.454C15.4548 273.239 6.56978 261.267 5.35078 250.97C3.90878 238.791 18.0528 223.529 29.0598 225.389C36.4178 226.632 42.0268 233.284 42.0268 240.768C42.0268 251.965 33.4428 259.041 28.0998 252.248C26.9598 250.799 26.0268 248.379 26.0268 246.871C26.0268 243.272 23.6238 241.143 21.5268 242.883C17.8408 245.942 21.1468 255.156 27.2678 258.888C31.1568 261.259 34.1228 261.402 37.9868 259.403C40.6608 258.021 41.1647 258.102 45.6877 260.646C49.8727 263.001 51.6139 263.362 58.5659 263.319C65.4689 263.276 67.5787 262.813 73.4897 260.047C81.0687 256.5 90.0658 249.464 100.027 239.294C107.5 231.664 112.458 228.03 119.527 225.001C129.056 220.917 136.767 220.143 145.433 222.4ZM149.193 244.912L152.858 245.93L145.363 255.907C141.241 261.394 137.623 265.883 137.324 265.883C135.466 265.883 118.027 252.313 118.027 250.867C118.027 249.9 126.979 245.995 131.527 244.978C137.095 243.733 144.844 243.705 149.193 244.912ZM164.334 255.147L169.141 259.435L164.125 266.06C158.351 273.687 141.439 289.267 139.699 288.562C122.081 281.424 118.403 279.261 110.334 271.289L102.141 263.196L107.076 258.335L112.01 253.475L115.269 256.571C120.973 261.992 136.117 272.883 137.949 272.883C139.722 272.883 156.027 252.188 156.027 249.937C156.027 248.376 158.44 249.889 164.334 255.147ZM166.286 291.526C168.353 294.402 169.608 297.024 169.075 297.353C168.542 297.683 161.053 308.099 152.434 320.5C139.686 338.844 136.532 342.8 135.521 341.716C134.837 340.983 127.007 331.503 118.12 320.649L101.961 300.915L108.183 292.649C111.605 288.103 114.5 284.24 114.617 284.065C114.734 283.89 120.371 286.253 127.145 289.315C133.918 292.378 140.193 294.883 141.089 294.883C141.985 294.883 146.275 291.759 150.622 287.941L158.527 280.999L160.527 283.649C161.627 285.106 164.218 288.651 166.286 291.526ZM181.344 312.814L189.068 323.746L185.511 344.564C183.554 356.015 180.639 373.033 179.033 382.383C177.427 391.733 173.805 412.883 170.984 429.383C168.163 445.883 163.893 470.858 161.494 484.883C159.095 498.908 155.076 522.533 152.562 537.383C150.048 552.233 147.662 565.18 147.259 566.154C146.67 567.58 145.384 566.346 140.665 559.819L134.802 551.712L135.917 514.548C136.53 494.107 137.26 468.608 137.539 457.883C138.175 433.481 140.023 368.451 140.428 356.228L140.731 347.074L153.194 329.228C160.049 319.413 167.113 309.246 168.89 306.633C170.668 304.02 172.46 301.883 172.871 301.883C173.283 301.883 177.095 306.802 181.344 312.814ZM105.104 313.633C108.604 317.895 116.769 327.842 123.247 335.737L135.027 350.09L135.011 355.737C135.002 358.842 134.573 372.633 134.058 386.383C133.543 400.133 132.633 430.958 132.036 454.883C131.439 478.808 130.538 510.458 130.034 525.215L129.116 552.048L125.332 557.011C122.162 561.168 121.432 561.682 120.841 560.178C120.453 559.191 117.874 543.758 115.111 525.883C112.347 508.008 107.13 474.483 103.518 451.383C99.9047 428.283 94.7098 394.983 91.9728 377.383C89.2358 359.783 86.2928 341.02 85.4318 335.688C84.5498 330.228 84.2287 325.382 84.6967 324.596C85.6347 323.016 98.3558 305.883 98.5898 305.883C98.6728 305.883 101.605 309.371 105.104 313.633ZM136.676 564.133C145.989 576.702 146.009 576.755 144.543 584.48C143.822 588.277 141.317 602.858 138.976 616.883C135.133 639.907 133.045 648.647 133.017 641.833C133.011 640.486 130.585 624.083 127.625 605.383C123.626 580.119 122.506 570.869 123.267 569.383C124.783 566.422 131.035 558.883 131.974 558.883C132.421 558.883 134.537 561.246 136.676 564.133Z" fill="#FFC4C4"/>
</svg>
