<svg width="366" height="608" viewBox="0 0 366 608" fill="none" xmlns="http://www.w3.org/2000/svg">
<path fill-rule="evenodd" clip-rule="evenodd" d="M185.216 0.893341C184.666 1.62434 181.623 7.34535 178.456 13.6064C171.436 27.4784 164.302 39.1003 157.757 47.3253C155.052 50.7253 152.839 54.4703 152.839 55.6483C152.839 56.8263 153.964 60.0104 155.339 62.7234C156.714 65.4364 157.839 67.8603 157.839 68.1093C157.839 68.3583 156.152 68.0954 154.089 67.5254C151.975 66.9414 145.757 66.7124 139.839 66.9994C123.25 67.8064 110.168 73.3954 100.2 83.9344C93.8469 90.6524 91.6549 95.5864 87.2489 113.079C85.3239 120.724 82.8499 128.742 81.7509 130.896C78.4499 137.367 73.2189 142.385 67.7139 144.365C64.9369 145.364 62.2899 146.88 61.8329 147.734C61.3219 148.688 61.7609 151.535 62.9709 155.12C64.7339 160.342 64.7819 161.128 63.4279 162.625C60.8779 165.442 58.0349 172.882 56.8099 179.944C55.4089 188.021 56.794 200.804 60.02 209.569C62.462 216.202 69.9369 224.146 74.7279 225.199C77.6089 225.831 77.8389 226.194 77.8389 230.092C77.8389 239.539 83.6799 254.858 90.9579 264.496C95.2959 270.242 102.094 275.723 104.882 275.723C107.651 275.723 108.061 272.871 105.568 270.945C94.4269 262.337 83.8389 243.635 83.8389 232.564V229.768L87.7459 233.995C89.8949 236.321 93.9169 239.573 96.6849 241.223L101.716 244.223L102.366 250.723C103.163 258.689 107.133 267.619 112.618 273.784L116.677 278.345L105.1 277.902C87.3109 277.221 73.529 280.401 58.028 288.763C28.2549 304.822 4.05489 342.182 0.325892 377.846C-0.649108 387.172 0.15092 388.274 8.52392 389.132C22.1279 390.526 70.6669 398.919 82.3389 401.896C88.9389 403.579 95.3929 405.189 96.6819 405.474C98.3189 405.836 99.5959 407.384 100.917 410.607C105.116 420.855 112.978 433.531 127.348 453.223C138.566 468.595 156.574 490.503 159.647 492.517C161.957 494.031 161.79 494.122 153.655 495.769C139.826 498.569 128.638 505.226 121.257 515.045C115.575 522.603 112.125 530.014 106.338 547.092C98.7099 569.599 93.3569 576.774 78.6579 584.193C72.5559 587.273 70.2539 588.969 70.0189 590.557C69.7819 592.166 70.2169 592.724 71.7099 592.724C72.8159 592.724 74.0059 593.185 74.3539 593.749C74.7169 594.336 76.9839 594.557 79.6629 594.267C82.2349 593.99 88.9329 593.281 94.5469 592.692C107.393 591.343 116.754 588.764 126.785 583.81C148.681 572.998 162.758 558.661 173.261 536.474C175.279 532.211 177.305 528.724 177.762 528.724C178.22 528.724 179.182 529.432 179.9 530.297C181.633 532.386 188.268 535.724 190.685 535.724C191.744 535.724 193.899 536.396 195.475 537.218C199.243 539.183 200.654 539.113 205.339 536.724C207.497 535.624 210.202 534.724 211.351 534.724C212.499 534.724 216.288 532.429 219.77 529.623C225.094 525.332 226.437 524.678 228.219 525.503C231.33 526.944 239.839 534.698 239.839 536.092C239.839 536.75 241.383 540.199 243.27 543.756C245.156 547.313 248.28 554.59 250.21 559.928C252.141 565.266 255.251 572.016 257.121 574.928C262.554 583.386 273.483 592.955 283.221 597.781C291.402 601.835 292.25 602.035 304.54 602.817C312.102 603.298 320.368 604.488 324.743 605.724C333.023 608.064 334.408 607.591 333.354 602.793C332.79 600.222 331.586 599.12 326.592 596.599C318.98 592.757 310.999 585.275 305.904 577.209C303.746 573.791 298.645 564.041 294.57 555.541C286.076 537.826 280.977 529.852 272.404 520.873C265.962 514.128 261.044 510.803 252.169 507.196L246.684 504.967L256.592 496.436C265.839 488.475 271.112 482.825 276.604 474.995C278.923 471.687 287.431 455.08 290.116 448.621C291.318 445.728 293.083 444.226 299.065 440.999C309.704 435.261 319.838 427.622 326.592 420.251C332.695 413.591 338.434 403.716 337.547 401.403C337.262 400.662 332.599 397.09 327.184 393.466C315.42 385.59 306.376 376.553 293.419 359.723C288.126 352.848 281.239 343.923 278.114 339.889C274.989 335.856 268.682 329.006 264.099 324.667C255.232 316.274 249.963 313.723 241.498 313.723H237.52L245.83 308.728C257.08 301.967 263.788 296.655 271.23 288.618C278.076 281.224 284.211 270.855 283.238 268.321C281.918 264.881 278.989 266.661 275.648 272.934C271.538 280.65 263.892 289 254.393 296.15C242.786 304.885 220.138 317.049 207.924 321.106L197.113 324.697L190.226 322.35C164.249 313.499 138.859 294.666 130.78 278.256C127.834 272.27 127.406 270.324 126.903 260.624L126.339 249.722H130.542C135.707 249.723 139.839 247.957 139.839 245.748C139.839 244.838 137.268 242.323 134.125 240.158C127.682 235.721 122.427 229.262 117.731 220.01C114.621 213.883 114.554 213.478 115.178 204.471C116.337 187.732 119.062 181.145 129.601 169.608C133.427 165.42 137.964 159.948 139.684 157.448C144.582 150.329 147.888 148.814 161.009 147.676C179.099 146.106 184.149 143.839 194.839 132.49L200.339 126.65L210.862 136.937C216.649 142.594 225.335 150.351 230.163 154.175L238.941 161.127L235.374 162.957C230.792 165.308 222.839 172.913 222.839 174.945C222.839 178.353 226.045 177.723 230.896 173.361C235.883 168.878 241.398 165.723 244.248 165.723C245.131 165.723 250.463 168.735 256.097 172.417C261.73 176.098 270.71 181.288 276.051 183.95C285.677 188.747 285.754 188.815 284.695 191.507C283.155 195.421 283.457 206.403 285.264 212.223C287.562 219.621 287.373 220.723 283.807 220.723C279.633 220.723 274.887 222.864 270.478 226.735C261.686 234.454 258.519 246.298 262.852 255.25C266.917 263.647 276.998 267.894 285.339 264.723C287.634 263.851 288.282 264.096 290.432 266.651C297.341 274.862 314.524 274.283 322.484 265.57C324.991 262.826 328.839 255.813 328.839 253.988C328.839 253.262 330.061 252.723 331.704 252.723C338.251 252.723 343.674 243.835 342.474 235.075C341.951 231.258 342.306 229.467 344.463 225.058C348.742 216.314 346.724 207.248 338.313 197.422C335.56 194.206 331.154 184.852 332.092 184.217C332.228 184.125 336.839 180.675 342.339 176.551C347.839 172.427 354.922 167.343 358.079 165.253C362.509 162.32 364.044 160.639 364.804 157.887L365.789 154.322L356.464 145.272C351.335 140.295 345.7 134.085 343.941 131.473C342.182 128.861 340.366 126.723 339.905 126.723C339.443 126.723 338.762 124.694 338.39 122.214C336.584 110.168 328.912 93.6833 316.08 74.2713C305.797 58.7163 295.304 47.7583 285.37 42.2033C275.994 36.9603 253.246 27.2334 243.108 24.1314C238.581 22.7474 234.531 21.0214 234.108 20.2964C232.902 18.2304 220.15 8.91235 214.996 6.33035C210.135 3.89435 203.478 2.13636 195.839 1.27036C193.364 0.990355 190.187 0.491347 188.778 0.161347C187.193 -0.209653 185.836 0.0693413 185.216 0.893341ZM208.14 9.74533C213.341 11.7213 224.816 18.7534 224.83 19.9734C224.835 20.3864 220.902 20.7283 216.089 20.7343C211.277 20.7403 205.685 21.0194 203.663 21.3534C199.998 21.9594 199.979 21.9433 196.913 15.8703C192.546 7.21833 192.718 6.32834 198.588 7.20834C201.199 7.60034 205.498 8.74133 208.14 9.74533ZM188.839 10.8283C188.839 13.4953 199.195 32.4224 207.959 45.7744C218.142 61.2874 242.71 91.4184 256.796 105.67C266.041 115.024 293.533 136.033 307.541 144.448C321.449 152.803 341.27 159.723 351.297 159.723C352.695 159.723 353.822 160.06 353.801 160.473C353.781 160.886 348.506 165.048 342.08 169.723C335.654 174.398 327.584 180.585 324.148 183.473C320.711 186.361 316.925 188.723 315.734 188.723C309.276 188.723 287.669 183.24 279.973 179.648C260.421 170.524 224.099 143.666 208.987 127.161C191.269 107.808 161.28 65.8113 159.313 57.5963C158.828 55.5723 159.359 54.1953 161.624 51.5963C166.635 45.8473 174.6 33.3444 180.938 21.2774C186.4 10.8774 188.839 7.65234 188.839 10.8283ZM238.839 28.8744C246.13 30.8844 260.514 36.3653 262.152 37.7583C262.599 38.1383 260.75 38.7424 258.043 39.1024C252.63 39.8204 240.4 43.8233 228.951 48.6253C224.888 50.3293 220.835 51.7234 219.944 51.7234C219.053 51.7234 217.132 49.8104 215.675 47.4734C214.218 45.1364 210.754 39.6234 207.978 35.2234L202.93 27.2234L209.635 26.5934C219.43 25.6724 230.305 26.5224 238.839 28.8744ZM282.958 47.2954C286.193 49.2604 288.839 51.0494 288.839 51.2704C288.839 51.4914 287.481 52.3744 285.82 53.2334C281.537 55.4474 270.182 66.3923 259.157 78.9303L249.714 89.6704L240.471 78.9464C235.388 73.0494 229.32 65.7933 226.986 62.8233L222.744 57.4234L232.041 53.5794C250.527 45.9374 257.987 44.0073 269.708 43.8333C276.489 43.7323 277.547 44.0084 282.958 47.2954ZM298.287 59.9344C300.28 62.2624 301.647 64.7804 301.346 65.5674C301.045 66.3494 302.025 71.7674 303.523 77.6064C305.855 86.7004 306.253 90.3034 306.293 102.723C306.332 115.083 306.005 118.285 304.076 124.422C302.831 128.382 301.373 131.893 300.836 132.225C300.3 132.556 293.668 128.22 286.1 122.589C268.762 109.689 262.806 104.655 257.784 98.6574L253.789 93.8864L258.658 88.0363C272 72.0043 289.49 55.7234 293.371 55.7234C294.093 55.7234 296.305 57.6184 298.287 59.9344ZM155.237 73.8053C157.11 74.3983 158.575 74.3573 159.379 73.6903C160.312 72.9163 162.46 75.3003 167.981 83.2393C182.018 103.424 186.25 109.256 191.517 115.674L196.811 122.124L194.691 124.381C192.646 126.557 192.441 126.581 188.955 125.039C180.71 121.394 169.497 118.723 162.476 118.733C148.24 118.752 138.498 126.207 127.856 145.223C121.366 156.82 114.204 164.385 105.339 169.008C102.288 170.598 99.0839 171.167 91.8389 171.404L82.3389 171.715L88.3389 169.904C104.929 164.895 112.517 157.937 122.885 138.223C132.835 119.304 139.418 111.508 149.956 106.159C156.861 102.655 167.071 101.694 171.885 104.096C176.022 106.16 177.462 106.147 178.271 104.04C180.087 99.3084 167.989 95.6464 157.414 97.7274C148.359 99.5084 142.131 103.173 133.839 111.602C127.584 117.959 125.192 121.435 119.429 132.539C111.349 148.11 107.469 153.506 101.303 157.748C92.9489 163.495 79.1629 166.647 76.0389 163.523C74.2229 161.707 74.5909 160.724 77.0889 160.713C83.7649 160.684 99.2019 149.078 104.43 140.157C105.904 137.643 107.957 131.034 109.432 124.057C114.327 100.9 120.966 92.4663 138.024 87.7393C146.814 85.3033 152.152 85.2074 160.618 87.3304C167.621 89.0864 170.308 88.2753 168.258 85.0263C166.524 82.2773 159.846 80.6434 150.324 80.6374C131.952 80.6274 116.964 88.7564 109.927 102.55C107.57 107.17 104.267 118.9 103.261 126.223C102.883 128.973 101.541 133.282 100.278 135.799C97.0339 142.263 87.1809 151.077 80.3359 153.638C74.5329 155.809 68.8389 156.387 68.8389 154.805C68.8389 154.3 68.5649 153.172 68.2299 152.299C67.7899 151.152 68.6279 150.291 71.2519 149.195C81.5259 144.902 87.4799 135.49 92.4549 115.676C94.4199 107.852 96.8629 99.5003 97.8849 97.1173C101.649 88.3343 111.975 79.6604 123.42 75.6664C133.764 72.0564 147.22 71.2693 155.237 73.8053ZM315.784 84.1773C322.039 93.8313 327.918 106.001 330.741 115.142C334.036 125.809 333.167 148.745 329.47 148.713C327.833 148.699 318.317 144.171 311.208 140.023L305.076 136.446L307.544 131.057C311.225 123.016 313.101 110.981 312.428 99.7154C311.907 90.9774 310.546 81.1644 309.171 76.2234C308.337 73.2284 309.936 75.1513 315.784 84.1773ZM178.839 127.417C182.964 128.808 186.789 130.374 187.339 130.897C188.745 132.233 182.431 137.264 176.839 139.264C174.364 140.149 167.389 141.292 161.339 141.804C146.877 143.026 141.682 145.454 135.143 154.045C132.557 157.443 127.609 163.312 124.146 167.088C115.869 176.115 112.375 183.536 110.261 196.582C107.859 211.399 108.555 215.92 114.873 226.541C117.713 231.316 121.905 237.185 124.188 239.583C127.867 243.447 128.054 243.861 125.839 243.215C120.667 241.708 113.296 234.478 109.68 227.367C104.723 217.617 102.633 207.855 102.477 193.723C102.401 186.848 102.671 180.042 103.077 178.599C103.6 176.734 105.443 175.15 109.438 173.129C117.018 169.293 124.758 161.306 131.008 150.868C139.052 137.435 141.5 134.134 146.404 130.116C154.794 123.241 164.153 122.462 178.839 127.417ZM350.675 147.626L358.198 155.028L352.768 154.342C349.782 153.965 344.716 153.155 341.51 152.544C336.265 151.543 335.744 151.221 336.304 149.327C336.646 148.17 337.432 144.353 338.051 140.845L339.177 134.467L341.164 137.345C342.257 138.928 346.537 143.554 350.675 147.626ZM146.935 152.964C139.73 155.629 140.266 161.068 147.497 158.658C160.106 154.455 176.179 160.432 182.042 171.506C183.882 174.98 186.516 175.729 187.537 173.068C188.456 170.673 184.11 163.102 179.926 159.811C172.891 154.277 167.974 152.471 158.857 152.076C153.572 151.846 149.047 152.183 146.935 152.964ZM77.3409 176.659C76.9779 178.069 76.4469 185.523 76.1609 193.223C75.7559 204.144 75.9929 208.574 77.2399 213.367C79.2689 221.163 79.3249 220.857 76.0889 219.632C62.4319 214.458 57.0409 183.846 66.9499 167.74L69.0929 164.257L73.5469 169.176C77.2019 173.213 77.8829 174.555 77.3409 176.659ZM97.0089 190.137C96.4759 210.199 101.148 227.883 109.584 237.738C111.604 240.098 112.825 241.833 112.298 241.594C111.77 241.355 110.214 240.642 108.839 240.01C107.464 239.378 105.181 238.617 103.766 238.318C100.052 237.533 92.3789 231.369 88.9979 226.454C81.8359 216.043 79.3759 198.837 82.4939 180.973L83.0619 177.723L90.1999 177.722L97.3389 177.72L97.0089 190.137ZM146.897 185.771C142.491 187.629 134.839 194.094 134.839 195.96C134.839 199.143 137.645 199.045 141.848 195.716C146.53 192.008 153.276 189.723 159.543 189.723H163.93L163.296 193.102C162.137 199.276 167.7 206.723 173.471 206.723C176.924 206.723 179.839 203.875 179.839 200.5C179.839 199.523 180.459 198.723 181.217 198.723C181.974 198.723 183.152 198.05 183.835 197.228C185.792 194.87 182.797 191.329 176.125 188.113C171.116 185.698 168.928 185.284 159.839 185.032C154.064 184.872 148.24 185.205 146.897 185.771ZM328.333 191.698C328.693 193.334 331.03 197.272 333.527 200.448C336.025 203.624 338.691 207.671 339.453 209.441C341.106 213.278 341.254 219.08 339.77 221.852C338.809 223.647 338.016 222.853 331.952 214.027C324.326 202.929 322.644 199.022 323.515 194.424C324.652 188.415 327.285 186.926 328.333 191.698ZM295.285 192.604C292.819 198.589 293.752 203.738 300.747 222.723C303.147 229.236 303.464 239.291 301.424 244.174C299.552 248.654 292.898 255.005 287.336 257.619C276.052 262.923 266.45 257.476 266.682 245.902C266.731 243.457 266.961 241.267 267.194 241.035C267.426 240.802 268.857 241.762 270.374 243.168C272.65 245.277 274.108 245.722 278.735 245.719C289.365 245.712 294.228 240.018 294.105 227.723C294.068 224.005 293.137 218.441 291.931 214.723C288.887 205.343 288.269 198.023 290.141 193.542C291.391 190.551 292.074 189.972 293.814 190.427C295.308 190.817 295.751 191.473 295.285 192.604ZM233.585 192.745C228.207 194.104 220.066 198.419 219.01 200.472C216.83 204.711 220.23 206.005 224.869 202.702C228.909 199.825 235.406 197.723 240.257 197.723C244.353 197.723 244.445 197.8 245.632 202.238C247.685 209.916 254.815 212.59 261.521 208.196C266.676 204.818 265.037 198.511 257.921 194.344C254.184 192.155 239.691 191.203 233.585 192.745ZM307.992 201.223C307.792 210.833 309.621 215.884 318.203 229.422C321.346 234.381 324.179 240.043 324.497 242.003C325.879 250.52 320.027 262.493 313.059 265.404C307.825 267.591 298.462 266.79 295.58 263.908L293.398 261.726L298.557 256.806C310.269 245.635 311.675 234.161 303.773 214.223C300.348 205.578 299.419 200.775 300.284 196.166C300.917 192.793 301.137 192.625 304.555 192.916L308.159 193.223L307.992 201.223ZM317.839 198.763C317.839 202.439 320.724 208.3 326.151 215.646C332.235 223.881 336.84 233.319 336.835 237.546C336.832 241.187 333.705 247.723 331.967 247.723C331.472 247.723 330.76 245.585 330.386 242.973C329.682 238.054 326.215 230.433 322.311 225.223C314.021 214.161 310.046 195.723 315.95 195.723C317.388 195.723 317.839 196.449 317.839 198.763ZM288.839 229.773C288.839 236.855 283.685 241.48 277.156 240.255C273.634 239.594 272.272 237.119 273.261 233.18C274.003 230.223 276.957 228.518 282.839 227.652C285.314 227.288 287.676 226.93 288.089 226.857C288.502 226.783 288.839 228.095 288.839 229.773ZM205.201 234.223C204.408 236.287 205.483 238.723 207.185 238.723C207.96 238.723 209.154 238.048 209.839 237.223C210.832 236.026 210.832 235.42 209.839 234.223C209.154 233.398 207.96 232.723 207.185 232.723C206.41 232.723 205.517 233.398 205.201 234.223ZM188.839 235.664C188.839 238.357 190.731 239.26 192.553 237.437C194.376 235.615 193.473 233.723 190.78 233.723C189.525 233.723 188.839 234.409 188.839 235.664ZM116.076 249.634L120.812 251.223L120.849 258.723C120.87 262.848 121.301 268.01 121.808 270.195C122.314 272.379 122.566 274.329 122.367 274.528C122.168 274.727 120.184 273.068 117.956 270.84C112.806 265.69 109.139 258.464 108.241 251.695C107.583 246.738 107.661 246.447 109.438 247.22C110.484 247.674 113.47 248.761 116.076 249.634ZM177.933 260.812C174.962 262 168.839 268.364 168.839 270.263C168.839 271.032 171.356 273.272 174.433 275.24C177.509 277.208 182.211 280.861 184.88 283.359C188.451 286.698 190.791 288.041 193.727 288.435C199.75 289.243 202.536 288.122 208.476 282.505C211.457 279.686 214.892 276.883 216.109 276.276C219.71 274.481 219.283 272.114 214.493 267.324C211.277 264.109 208.934 262.678 206.177 262.249C204.066 261.921 199.901 261.218 196.922 260.688C190.165 259.484 181.105 259.544 177.933 260.812ZM195.974 266.243C206.978 267.896 208.793 268.504 206.696 269.833C203.34 271.959 197.696 270.865 185.339 265.695C182.335 264.438 184.803 264.565 195.974 266.243ZM190.712 273.792C197.663 276.018 201.259 276.682 203.816 276.212L207.339 275.563L203.893 279.143C201.025 282.122 199.766 282.715 196.393 282.676C192.863 282.635 191.502 281.859 185.86 276.676C182.297 273.402 179.776 270.723 180.257 270.723C180.738 270.723 185.443 272.104 190.712 273.792ZM117.089 284.777C119.152 285.349 120.839 286.053 120.839 286.341C120.839 286.629 119.087 288.97 116.945 291.544C107.57 302.808 103.687 318.678 106.898 332.605C107.454 335.015 107.764 337.131 107.588 337.308C107.412 337.484 103.233 336.014 98.3029 334.04C87.1079 329.56 68.5269 326.294 45.3569 324.735C36.0159 324.106 28.26 323.477 28.119 323.337C27.559 322.776 38.7929 309.932 43.4129 305.851C56.2439 294.518 73.4109 286.27 89.3699 283.771C96.2429 282.695 111.591 283.252 117.089 284.777ZM124.826 306.688C124.206 309.15 121.706 314.163 119.269 317.828C114.34 325.243 114.064 326.207 116.589 327.19C118.715 328.017 123.863 322.504 127.355 315.66C130.253 309.98 132.221 299.516 131.381 294.258L130.745 290.285L138.542 297.829C148.14 307.116 155.606 312.209 171.573 320.362C184.287 326.853 192.088 329.723 197.02 329.723C198.571 329.723 203.889 328.421 208.839 326.829C213.789 325.237 217.839 324.123 217.839 324.354C217.839 324.584 216.327 327.799 214.479 331.498C209.679 341.106 207.072 349.304 205.265 360.471C202.928 374.919 204.647 384.162 209.336 382.363C210.583 381.884 210.743 380.545 210.224 374.954C209.103 362.898 213.496 345.029 220.953 331.309L224.167 325.394L226.434 330.53C232.411 344.072 237.024 365.442 237.055 379.723C237.088 395.262 232.47 409.072 219.5 432.223C215.72 438.971 211.587 448.046 210.058 452.958C208.563 457.762 207.114 461.695 206.839 461.697C206.564 461.699 203.462 456.643 199.945 450.462C188.598 430.519 183.6 423.91 168.908 409.415C161.209 401.821 149.607 389.529 143.125 382.099C118.007 353.31 111.013 339.141 112.034 319.109C112.415 311.636 112.991 309.236 115.656 304.016C117.398 300.603 120.29 296.136 122.082 294.091L125.339 290.372L125.646 296.292C125.815 299.548 125.446 304.226 124.826 306.688ZM251.426 321.765C257.153 324.538 269.115 337.267 282.397 354.723C288.464 362.698 293.771 369.784 294.19 370.469C296.379 374.05 280.809 382.413 264.799 386.256C255.297 388.537 245.998 391.153 243.292 392.308C242.59 392.607 242.38 389.681 242.654 383.41C243.323 368.122 238.941 345.41 232.263 329.542C230.862 326.213 229.94 322.901 230.216 322.183C231.361 319.199 245.547 318.919 251.426 321.765ZM69.0279 332.807C88.1259 335.518 102.027 340.191 109.842 346.527C114.053 349.94 111.597 349.856 102.77 346.283C91.345 341.659 50.4069 335.296 32.5889 335.375C26.1269 335.404 20.8389 335.13 20.8389 334.766C20.8389 333.389 23.4179 330.871 25.3389 330.373C29.0939 329.399 55.3129 330.86 69.0279 332.807ZM54.8389 342.771C62.2639 343.875 73.0639 345.454 78.8389 346.281C91.3549 348.074 95.3189 349.08 102.739 352.345C113.653 357.148 118.765 360.95 124.429 368.473C127.431 372.46 129.681 375.723 129.431 375.723C129.18 375.723 125.007 373.74 120.157 371.317C108.217 365.352 92.2029 360.38 71.5599 356.23C53.6659 352.633 25.9729 348.723 18.3879 348.723H14.0129L15.0849 345.882C15.9039 343.713 17.1259 342.802 20.2479 342.031C27.0259 340.359 40.5529 340.648 54.8389 342.771ZM37.5379 356.251C59.5069 359.096 82.4649 363.813 99.0979 368.9C111.387 372.658 139.099 386.582 143.839 391.381C147.101 394.683 147.169 394.876 144.839 394.21C143.464 393.818 134.914 390.581 125.839 387.017C97.4179 375.854 81.0579 370.441 56.6549 364.125C45.8389 361.325 39.4609 360.336 26.2259 359.403C10.2789 358.279 9.56493 358.14 11.2319 356.473C13.4719 354.233 21.4359 354.166 37.5379 356.251ZM28.3859 365.196C47.6259 366.133 81.9649 375.777 119.339 390.739C126.489 393.601 137.328 397.605 143.425 399.636L154.511 403.328L167.492 416.276C180.964 429.713 188.179 439.828 198.839 460.223C203.353 468.861 202.808 468.506 192.839 456.306C186.414 448.442 172.962 436.464 162.036 428.88C152.677 422.383 125.17 408.87 113.131 404.855C103.543 401.657 89.7719 397.644 80.3389 395.298C72.2009 393.275 13.5559 383.723 9.26892 383.723C6.05192 383.723 5.83892 383.517 5.83892 380.407C5.83892 376.961 7.69694 365.766 8.47894 364.498C8.72494 364.099 10.8189 363.972 13.1329 364.215C15.4459 364.458 22.3099 364.899 28.3859 365.196ZM300.783 378.156C302.641 380.394 295.031 387.302 286.229 391.369C279.289 394.575 263.812 399.052 250.339 401.75C247.039 402.411 243.042 403.617 241.457 404.431L238.575 405.911L239.288 403.069C239.681 401.506 240.077 400.212 240.17 400.193C240.263 400.174 242.435 399.15 244.997 397.917C247.559 396.683 253.859 394.77 258.997 393.665C275.837 390.044 288.547 385.026 295.339 379.317C298.871 376.348 299.221 376.273 300.783 378.156ZM309.693 387.072L312.939 390.421L304.948 397.938C295.074 407.227 287.251 411.184 261.839 419.739C251.664 423.165 239.206 427.894 234.154 430.247L224.969 434.526L230.692 423.42L236.415 412.314L242.219 410.065C245.412 408.829 251.538 407.1 255.833 406.224C279.398 401.418 293.625 395.781 300.975 388.339C303.375 385.908 305.588 383.875 305.893 383.821C306.197 383.767 307.907 385.23 309.693 387.072ZM319.117 395.135C320.748 396.373 320.296 397.039 313.617 403.231C296.668 418.941 287.519 424.23 263.339 432.292C253.989 435.41 243.639 439.315 240.339 440.97C233.188 444.556 221.096 452.756 217.827 456.236C214.356 459.93 213.874 459.302 215.704 453.473C217.889 446.512 218.073 446.279 224.655 442.046C233.598 436.296 244.962 431.344 263.339 425.189C272.689 422.057 283.039 418.369 286.339 416.993C295.303 413.256 304.667 406.754 310.839 399.983C313.864 396.664 316.564 393.912 316.839 393.868C317.114 393.823 318.139 394.394 319.117 395.135ZM330.835 404.088C330.822 408.214 317.425 422.602 307.121 429.557C294.667 437.963 279.956 444.507 260.632 450.236C255.397 451.789 249.533 454.415 245.927 456.823C237.388 462.525 222.327 479.393 220.45 485.355C219.929 487.01 219.086 487.432 216.676 487.243C214.969 487.108 213.243 486.374 212.84 485.611C211.775 483.594 210.782 469.401 211.624 468.224C213.406 465.731 233.497 451.285 240.242 447.647C244.361 445.425 255.631 440.943 265.285 437.686C290.507 429.178 297.617 425.152 315.319 409.356C325.82 399.986 326.075 399.831 328.434 401.377C329.757 402.244 330.837 403.464 330.835 404.088ZM116.339 411.868C119.089 412.908 126.046 416.113 131.799 418.991L142.258 424.223L148.093 437.723C156.459 457.078 167.939 480.333 172.261 486.676C175.413 491.302 175.816 492.479 174.922 494.441L173.868 496.753L171.854 494.739C170.746 493.631 169.438 492.724 168.948 492.724C165.977 492.724 140.279 462.238 125.964 441.733C117.965 430.274 106.839 411.769 106.839 409.923C106.839 408.462 107.907 408.681 116.339 411.868ZM164.944 437.923C180.83 449.893 195.787 466.85 204.683 482.974C206.428 486.136 207.387 488.724 206.814 488.724C206.241 488.724 203.552 487.599 200.839 486.224C195.111 483.321 186.428 482.811 183.28 485.192C182.213 486 180.823 486.675 180.193 486.692C179.095 486.723 175.211 481.189 171.064 473.682C168.393 468.849 152.252 433.787 151.369 430.901C150.668 428.612 150.701 428.601 153.661 430.131C155.313 430.985 160.39 434.492 164.944 437.923ZM283.839 449.271C283.839 450.762 273.096 469.989 269.231 475.415C266.806 478.821 261.604 484.446 257.673 487.915C253.741 491.385 248.007 496.52 244.931 499.326C241.856 502.133 238.338 504.674 237.115 504.975C235.197 505.447 234.801 505.022 234.234 501.873C233.872 499.866 233.216 497.525 232.777 496.67C232.192 495.532 233.899 493.095 239.159 487.558C246.364 479.973 255.163 466.535 257.137 460.104C258.022 457.219 258.851 456.496 262.266 455.634C264.506 455.068 269.939 453.346 274.339 451.808C283.438 448.627 283.839 448.52 283.839 449.271ZM249.229 463.973C243.334 475.505 229.6 491.337 226.517 490.154C224.261 489.288 224.361 488.789 227.832 483.548C231.294 478.322 248.254 460.723 249.829 460.723C250.454 460.723 250.208 462.058 249.229 463.973ZM197.801 491.204C200.494 492.569 202.981 494.144 203.327 494.704C204.238 496.177 208.023 495.899 210.28 494.192C214.829 490.752 224.595 493.895 227.56 499.754C230.486 505.538 227.739 514.587 221.167 520.81C217.733 524.062 217.593 524.105 218.224 521.724C221.505 509.35 221.464 506.724 217.992 506.724C216.472 506.724 215.743 508.075 214.419 513.345C212.135 522.436 209.5 527.202 205.104 530.189C200.345 533.423 198.505 533.381 195.805 529.974C193.938 527.618 193.696 526.331 194.115 520.999C194.481 516.349 194.242 514.472 193.172 513.584C190.445 511.321 188.438 514.938 188.386 522.208C188.36 525.786 188.017 528.716 187.624 528.719C186.194 528.729 179.698 522.352 178.213 519.479C176.002 515.206 176.181 504.999 178.561 499.62C180.915 494.298 186.975 488.724 190.407 488.724C191.781 488.724 195.109 489.839 197.801 491.204ZM169.342 501.29C171.019 501.741 171.289 502.511 171 506.026L170.655 510.224L163.226 512.599C150.461 516.68 137.654 527.207 128.813 540.885C124.588 547.423 123.875 551.929 126.974 552.516C128.099 552.729 129.786 550.705 132.379 546.025C139.645 532.915 156.864 518.878 167.839 517.116C171.15 516.585 171.398 516.748 172.431 520.113C173.462 523.469 173.165 524.354 167.167 535.823C159.31 550.846 152.744 559.211 142.362 567.427C128.116 578.7 110.618 585.73 92.7629 587.352L85.3389 588.026L90.3389 584.047C101.184 575.414 105.019 568.997 112.402 547.136C114.986 539.484 118.001 531.424 119.101 529.224C122.759 521.91 129.134 513.677 133.765 510.29C137.998 507.193 147.635 502.605 152.339 501.448C155.159 500.754 166.942 500.645 169.342 501.29ZM236.252 509.583C236.543 510.055 239.382 510.681 242.561 510.974C259.881 512.571 275.184 527.716 288.789 556.724C297.08 574.402 302.733 583.58 309.877 590.965L316.415 597.724L309.877 597.718C294.107 597.704 283.17 593.508 272.037 583.201C263.354 575.162 259.628 569.419 255.381 557.534C253.551 552.413 251.755 547.492 251.388 546.599C250.8 545.166 251.444 545.21 256.876 546.969C262.466 548.78 263.173 548.818 264.598 547.392C265.891 546.1 265.941 545.551 264.881 544.274C264.173 543.422 262.862 542.714 261.967 542.702C258.341 542.653 251.962 538.647 245.339 532.262C241.489 528.55 236.428 524.191 234.092 522.573L229.845 519.631L231.842 515.718C232.94 513.565 233.839 511.111 233.839 510.264C233.839 508.609 235.381 508.174 236.252 509.583Z" fill="#FFC4C4"/>
</svg>
