<svg width="373" height="616" viewBox="0 0 373 616" fill="none" xmlns="http://www.w3.org/2000/svg">
<path fill-rule="evenodd" clip-rule="evenodd" d="M177.29 1.89946C174.213 4.76646 173.601 7.64046 175.463 10.4825C176.346 11.8305 177.548 12.9335 178.134 12.9335C178.869 12.9335 178.969 16.7225 178.456 25.1835C178.047 31.9215 177.708 37.9475 177.701 38.5755C177.695 39.2035 175.939 40.2415 173.799 40.8825C168.593 42.4425 166.023 45.1905 166.023 49.1985C166.023 52.2045 165.634 52.6024 161.125 54.2034C154.709 56.4824 147.029 61.8015 144.523 65.7025C143.401 67.4505 141.302 69.0995 139.739 69.4615C136.1 70.3055 133.75 74.0284 133.75 78.9494C133.75 83.6774 135.048 85.4514 139.749 87.1514L143.279 88.4274L142.631 112.43C142.274 125.632 141.716 139.668 141.391 143.623L140.799 150.812L135.929 150.235C128.024 149.299 125.999 152.481 130.382 158.951C134.099 164.439 134.444 166.582 132.092 169.573C130.954 171.019 130.023 173.251 130.023 174.533C130.023 177.167 135.496 183.933 137.627 183.933C139.177 183.933 139.321 185.482 138.396 192.229L137.769 196.805L134.809 194.619C128.075 189.645 115.38 193.316 109.037 202.072C106.57 205.479 105.426 208.199 102.491 217.647C102.214 218.537 100.969 218.364 97.8177 216.996C91.5007 214.254 85.8427 213.625 79.3177 214.94C67.6897 217.283 61.1177 224.812 60.2727 236.758C59.6767 245.175 61.1407 250.625 65.5507 256.401C67.4597 258.903 69.0227 261.171 69.0227 261.442C69.0227 261.712 68.0097 261.937 66.7727 261.942C63.3467 261.957 54.6777 267.35 50.8017 271.878C45.0317 278.62 43.5497 287.255 46.6197 296.262C48.6827 302.318 55.3807 309.219 61.0187 311.098C66.3197 312.865 67.3977 316.462 63.1117 318.085C53.8297 321.601 48.9657 335.783 53.8977 344.949L55.7727 348.433L52.9397 351.67C49.5887 355.499 47.7797 361.435 47.7547 368.683C47.7447 371.571 47.5327 373.933 47.2837 373.933C47.0337 373.933 44.8767 372.214 42.4907 370.114C37.2637 365.513 33.3477 362.868 21.5227 355.951C12.4277 350.632 5.02269 344.522 5.02269 342.337C5.02269 340.932 3.04069 340.047 1.27269 340.664C-0.311306 341.216 -0.454347 366.569 1.05565 378.959C3.76465 401.179 15.1937 422.535 33.7367 440.023C40.6247 446.519 52.6607 455.053 56.7727 456.355C58.0097 456.747 59.0227 457.487 59.0227 458C59.0227 459.088 54.7097 459.098 47.1777 458.027C42.7937 457.404 41.4437 457.584 39.6777 459.025L37.5227 460.784L39.7117 465.108C40.9157 467.487 43.7107 473.308 45.9227 478.044C53.4127 494.079 64.0897 503.785 82.3137 511.126C90.2687 514.331 90.9567 514.432 104.581 514.401L118.639 514.369L117.268 518.349C116.513 520.538 116.023 524.378 116.178 526.881L116.46 531.433L108.717 532.138C98.9177 533.03 91.6417 536.236 79.0817 545.198C73.8247 548.95 68.5427 552.265 67.3447 552.566C64.6427 553.245 63.5197 555.879 65.2357 557.513C67.0927 559.28 80.6166 564.472 86.8216 565.799C96.9906 567.975 113.267 566.486 122.024 562.58C123.067 562.114 123.929 562.824 124.852 564.909C125.582 566.559 127.493 568.843 129.097 569.986L132.015 572.063L128.554 576.596C124.655 581.703 121.352 589.788 119.852 597.901C119.296 600.909 117.946 605.123 116.853 607.267C114.544 611.791 115.059 615.933 117.93 615.933C118.958 615.933 122.886 614.564 126.661 612.891C143.268 605.53 147.569 602.947 153.966 596.491L160.409 589.99L163.827 592.597C168.625 596.256 174.355 596.706 180.81 593.929C186.844 591.334 189.918 591.57 198.523 595.291C205.724 598.405 210.304 598.594 215.415 595.988L219.229 594.043L221.876 596.554C227.351 601.746 234.779 604.51 248.446 606.438C253.903 607.207 258.741 607.607 259.196 607.326C260.48 606.532 260.174 603.126 258.533 599.953C257.714 598.368 255.485 592.712 253.581 587.384C251.676 582.055 249.422 576.926 248.571 575.986C246.488 573.684 246.568 573.393 249.957 570.98L252.89 568.891L255.476 571.477C259.245 575.246 265.49 577.68 275.6 579.323C290.676 581.773 298.02 582.104 298.688 580.365C299.518 578.201 284.952 556.954 278.921 551.532C276.164 549.052 271.458 545.825 268.465 544.361C265.472 542.896 263.023 541.571 263.023 541.416C263.023 541.261 264.555 538.857 266.428 536.074C268.301 533.291 270.133 529.243 270.498 527.08C271.157 523.178 271.207 523.141 276.592 522.468C285.778 521.32 299.958 517.076 307.037 513.356C319.852 506.622 332.359 494.255 342.697 478.093C347.315 470.874 346.564 469.293 338.746 469.773C333.434 470.1 324.146 468.686 319.151 466.79C316.92 465.943 317.276 465.522 325.151 459.69C335.59 451.96 348.357 439.32 353.691 431.433C363.328 417.185 367.131 406.43 369.463 386.826C370.339 379.46 371.558 371.123 372.171 368.3C373.404 362.627 372.888 360.933 369.928 360.933C368.551 360.933 367.392 362.24 366.103 365.246C363.634 371.005 356.375 377.216 346.023 382.425C341.348 384.778 334.465 388.753 330.726 391.26L323.93 395.818L322.855 393.125C320.886 388.196 321.61 385.577 327.202 377.385C330.224 372.958 332.958 367.72 333.279 365.744C334.678 357.121 329.809 349.495 320.844 346.271C317.436 345.046 316.132 344.09 316.514 343.097C319.714 334.757 319.59 324.263 316.2 316.6C315.079 314.067 312.041 309.932 309.447 307.411L304.732 302.829L307.766 299.631C312.373 294.774 314.023 290.7 314.023 284.178C314.023 279.402 313.475 277.46 311.047 273.632C308.006 268.836 299.701 262.643 294.591 261.361C292.615 260.865 292.08 260.256 292.569 259.06C295.593 251.669 296.241 248.243 295.781 242.085C294.546 225.544 281.118 211.604 269.507 214.81L266.023 215.772L266.017 211.602C266.005 202.113 261.344 194.347 253.532 190.798C248.485 188.505 236.465 188.304 231.385 190.426C226.956 192.277 226.023 191.745 226.023 187.374C226.023 184.45 226.369 183.933 228.322 183.933C230.018 183.933 230.936 183.062 231.822 180.612C233.637 175.592 233.283 172.102 230.694 169.513L228.365 167.184L230.343 164.469C233.469 160.177 234.966 154.902 233.79 152.321C232.495 149.478 230.874 149.105 223.523 149.959C220.223 150.343 217.298 150.537 217.023 150.391C216.748 150.245 216.649 137.081 216.802 121.139L217.081 92.1514L219.966 90.9565C223.787 89.3745 225.619 84.9174 224.429 80.0994C223.707 77.1804 222.686 76.0265 219.411 74.4335C216.584 73.0585 214.573 71.0794 212.978 68.1004C209.727 62.0304 199.24 53.9335 194.63 53.9335C193.501 53.9335 193.147 52.7184 193.176 48.9454L193.215 43.9574L206.369 44.5704C214.765 44.9614 220.975 44.7854 223.538 44.0834C230.002 42.3114 236.944 37.3664 238.63 33.3324C240.655 28.4844 239.356 27.0285 233.584 27.6795C227.91 28.3195 221.935 26.2635 213.313 20.7045C201.212 12.9025 194.38 11.1584 191.58 15.1564C189.617 17.9574 189.597 20.3355 191.523 21.9335C193.631 23.6835 193.396 26.6754 190.615 33.5134C188.656 38.3274 187.776 39.4335 185.905 39.4335C183.647 39.4335 183.608 39.2555 183.86 29.9335C184.187 17.8555 184.859 14.0164 187.168 11.0484C189.533 8.00844 189.545 3.71545 187.194 1.58845C184.719 -0.651547 179.864 -0.499542 177.29 1.89946ZM206.523 23.2015C215.144 28.5455 223.396 32.6994 226.821 33.4194C229.511 33.9854 229.903 34.3725 228.951 35.5205C226.376 38.6235 218.064 40.0125 206.273 39.3095C200.086 38.9415 195.023 38.3774 195.023 38.0564C195.023 37.7344 196.012 35.0864 197.221 32.1694C199.092 27.6554 199.26 26.2745 198.353 22.8745C197.336 19.0645 197.384 18.9104 199.405 19.4924C200.57 19.8274 203.773 21.4975 206.523 23.2015ZM186.427 46.2395C187.505 47.0275 188.076 48.4814 187.868 49.9054C187.535 52.1824 187.245 52.2564 179.534 52.0264C175.14 51.8964 171.391 51.6355 171.203 51.4465C171.015 51.2585 171.358 50.1765 171.965 49.0415C173.82 45.5755 183.068 43.7835 186.427 46.2395ZM190.763 59.0744C196.428 60.1514 204.411 64.9755 206.908 68.8295L208.461 71.2254L178.992 70.4884C162.784 70.0824 149.338 69.5695 149.112 69.3485C147.582 67.8475 161.061 59.4154 167.479 57.8584C171.017 56.9994 183.2 57.6364 190.763 59.0744ZM199.023 76.9054C215.509 77.8374 219.275 78.9715 218.822 82.8665L218.523 85.4335L195.023 85.1134C156.787 84.5934 139.023 82.7925 139.023 79.4375C139.023 74.8855 138.928 74.9015 162.38 75.5105C174.559 75.8265 191.048 76.4544 199.023 76.9054ZM156.016 112.683C156.012 125.746 155.722 139.471 155.371 143.183L154.734 149.933H150.803H146.872L147.564 131.683C147.945 121.645 148.372 110.733 148.513 107.433C148.653 104.133 148.826 98.6215 148.896 95.1835L149.023 88.9335H152.523H156.023L156.016 112.683ZM170.023 98.9135V107.892L166.023 109.933L162.023 111.974V100.953V89.9335H166.023H170.023V98.9135ZM186.423 91.6835C186.368 92.3715 186.256 95.8585 186.173 99.4335L186.023 105.933H180.384H174.744L175.375 100.683C175.722 97.7965 176.01 94.1725 176.014 92.6315C176.023 89.8795 176.118 89.8345 181.273 90.1315C184.715 90.3295 186.489 90.8645 186.423 91.6835ZM197.355 90.9314C198.194 90.9294 198.435 94.0284 198.211 101.931C198.039 107.982 197.749 112.933 197.566 112.933C197.384 112.933 195.89 111.677 194.247 110.143C191.345 107.431 191.273 107.141 191.718 99.8934C192.282 90.6834 192.621 89.5655 194.613 90.3295C195.479 90.6615 196.712 90.9324 197.355 90.9314ZM211.174 120.933C210.982 137.158 210.705 150.56 210.558 150.716C210.411 150.872 208.422 150.701 206.139 150.336L201.989 149.672L202.534 134.552C202.834 126.237 203.34 112.996 203.658 105.129L204.236 90.8255L207.879 91.1295L211.521 91.4335L211.174 120.933ZM184.872 113.91C185.064 115.273 184.912 120.11 184.533 124.66L183.843 132.933H178.786H173.73L174.376 125.282C174.732 121.074 175.023 116.38 175.023 114.852C175.023 111.921 176.803 111.018 182.023 111.299C183.875 111.398 184.613 112.075 184.872 113.91ZM168.599 131.595C167.961 133.258 163.838 133.348 162.223 131.733C161.563 131.073 161.033 129.386 161.045 127.983C161.075 124.462 164.444 117.357 166.678 116.102C168.391 115.14 168.544 115.611 168.818 122.661C168.98 126.838 168.882 130.858 168.599 131.595ZM196.678 128.433L197.295 132.933H193.659H190.023V127.058C190.023 123.827 190.318 119.709 190.678 117.907L191.334 114.63L193.697 119.282C194.998 121.84 196.339 125.958 196.678 128.433ZM166.105 138.933C167.763 138.933 168.023 139.678 168.023 144.433V149.933H164.523H161.023V143.826C161.023 138.668 161.269 137.813 162.605 138.326C163.475 138.66 165.05 138.933 166.105 138.933ZM195.441 138.54C197.088 139.172 197.525 143.458 196.379 147.737C195.876 149.613 195.184 149.984 192.642 149.737C189.636 149.444 189.512 149.246 189.223 144.259C188.95 139.544 189.128 139.046 191.223 138.645C192.488 138.403 193.599 138.144 193.691 138.069C193.784 137.994 194.571 138.206 195.441 138.54ZM183.023 143.933V148.933H178.523H174.023V143.933V138.933H178.523H183.023V143.933ZM228 156.433C227.992 156.983 226.729 159.432 225.193 161.875L222.401 166.318L207.962 166.549C200.021 166.676 181.477 166.523 166.755 166.209L139.986 165.638L138.005 161.158C136.915 158.695 136.023 156.524 136.023 156.336C136.023 155.705 161.197 155.287 194.769 155.36C216.228 155.407 228.01 155.788 228 156.433ZM222.023 172.741C225.951 173.376 226.563 173.813 226.837 176.172L227.15 178.876L182.837 178.269C156.177 177.903 138.025 177.268 137.273 176.675C136.586 176.132 136.023 175.077 136.023 174.33C136.023 172.841 138.393 172.108 144.523 171.7C152.597 171.162 217.663 172.036 222.023 172.741ZM198.023 184.729C198.023 186.252 208.566 196.172 215.023 200.725C218.598 203.246 221.698 205.436 221.912 205.593C222.398 205.949 226.116 248.139 225.757 249.223C225.338 250.492 211.369 240.435 200.541 231.068C195.051 226.319 181.776 213.787 171.041 203.22L151.523 184.007L174.773 183.97C187.56 183.95 198.023 184.291 198.023 184.729ZM220.398 187.058C220.742 188.777 221.023 191.949 221.023 194.108C221.023 197.283 220.74 197.874 219.539 197.202C216.859 195.702 207.276 187.47 206.129 185.683C205.096 184.073 205.597 183.933 212.39 183.933H219.773L220.398 187.058ZM199.745 237.915C205.121 242.402 213.407 248.629 218.159 251.753L226.799 257.433L227.492 263.694C228.734 274.918 228.327 282.238 226.383 283.659C225.425 284.36 223.982 284.933 223.176 284.933C219.208 284.933 211.023 294.672 211.023 299.393C211.023 300.24 210.528 300.933 209.923 300.933C207.538 300.933 196.866 289.091 193.285 282.47C189.62 275.694 187.922 274.189 181.798 272.282C178.334 271.203 164.623 258.574 150.649 243.591L139.792 231.95L141.935 211.691C143.114 200.549 144.277 190.083 144.52 188.433C144.949 185.522 145.632 186.093 167.467 207.595C179.844 219.784 194.369 233.428 199.745 237.915ZM252.486 196.771C254.152 197.745 256.577 200.092 257.875 201.987C260.074 205.2 260.191 206.06 259.606 214.706C258.878 225.472 259.894 226.907 265.345 222.82C267.675 221.073 269.821 220.437 273.385 220.435C277.918 220.433 278.539 220.755 282.559 225.196C290.639 234.121 292.454 245.582 287.388 255.687C285.094 260.264 283.627 261.855 280.023 263.672C276.295 265.552 274.938 265.773 272.113 264.961C265.2 262.974 261.619 256.737 264.038 250.898C264.894 248.829 265.854 248.058 267.378 248.214C270.314 248.515 270.911 244.478 268.149 243.001C262.141 239.785 255.596 249.92 257.975 258.756C259.103 262.943 264.058 268.258 268.338 269.872C272.966 271.617 278.417 271.097 283.427 268.433C286.013 267.058 289.189 265.933 290.485 265.933C291.781 265.933 295.688 267.846 299.167 270.183C304.235 273.589 305.876 275.369 307.427 279.145C309.135 283.306 309.213 284.36 308.089 288.145C307.292 290.829 305.198 293.991 302.491 296.597C298.46 300.479 297.873 300.725 293.845 300.212C291.468 299.91 288.961 299.219 288.273 298.676C285.797 296.719 283.881 299.805 284.599 304.593C285.13 308.133 284.755 309.96 282.589 314.387C278.473 322.801 271.481 326.21 263.018 323.932C253.972 321.496 248.93 312.544 252.449 305.166C253.97 301.976 253.985 301.467 252.602 300.083C251.218 298.7 250.819 298.776 248.618 300.843C247.253 302.126 245.65 305.317 244.991 308.067C243.583 313.938 239.495 318.43 234.232 319.892C222.865 323.049 216.007 317.931 216.039 306.315C216.063 297.777 218.961 293.081 225.921 290.302C231.934 287.901 232.986 286.729 233.008 282.406C233.03 278.072 235.548 274.933 239.003 274.933C242.18 274.933 247.564 278.911 248.537 281.977C249.252 284.231 252.824 284.614 253.627 282.523C254.465 280.34 251.41 275.33 247.356 272.238C244.5 270.06 242.607 269.439 238.815 269.436C234.748 269.434 233.874 269.102 233.529 267.433C233.301 266.333 231.965 251.933 230.559 235.433C229.154 218.933 227.823 204.044 227.603 202.346C227.268 199.768 227.697 198.966 230.205 197.485C231.857 196.509 234.404 195.324 235.866 194.853C239.667 193.626 248.931 194.695 252.486 196.771ZM132.844 200.433C133.926 201.808 135.309 202.933 135.917 202.933C136.525 202.933 137.023 203.771 137.023 204.795C137.023 206.549 133.888 235.504 130.567 264.433C129.746 271.583 127.703 290.258 126.027 305.933C124.351 321.608 122.335 340.058 121.547 346.933C120.758 353.808 118.917 370.233 117.456 383.433C115.994 396.633 114.638 407.607 114.441 407.819C114.245 408.031 111.359 405.682 108.029 402.599C104.699 399.516 98.7226 395.107 94.7486 392.802C90.7736 390.496 85.3836 387.285 82.7696 385.666C80.1556 384.046 77.4138 382.953 76.6768 383.235C75.7538 383.59 75.1437 386.676 74.7187 393.159C73.8137 406.923 73.5797 407.143 68.2847 399.2C65.8037 395.478 61.7167 390.009 59.2037 387.046C54.4057 381.39 53.9957 379.907 53.7617 367.382C53.6457 361.147 56.4887 354.924 60.2727 353.128C63.6417 351.53 63.7407 349.457 60.6637 344.915C59.3667 343 57.9937 340.443 57.6117 339.232C56.5627 335.898 58.8367 328.965 62.0267 325.775C70.1427 317.659 82.0227 327.417 82.0227 342.199C82.0227 347.703 82.1627 348.052 84.2527 347.753C87.5867 347.275 88.6717 343.06 87.2307 336.19C85.6807 328.798 80.7427 321.59 75.2417 318.69C70.0257 315.94 69.9567 313.435 75.0227 310.711C76.9477 309.676 79.9857 307.284 81.7727 305.396C84.4727 302.543 85.0227 301.182 85.0227 297.352C85.0227 289.045 78.5757 282.632 72.5337 284.929C68.8457 286.331 69.6067 289.164 73.9077 290.043C77.4447 290.767 78.6447 291.949 79.6417 295.69C80.8537 300.238 73.6137 306.922 67.4687 306.929C62.6307 306.935 55.6657 301.894 53.0517 296.492C45.8117 281.536 57.4487 266.187 75.3267 267.112C81.1037 267.411 81.5446 267.281 81.8426 265.183C82.0176 263.946 81.6617 262.933 81.0497 262.933C79.0897 262.933 69.9047 253.621 67.7577 249.458C66.3417 246.711 65.6776 243.519 65.6656 239.403C65.6256 225.661 75.4447 218.12 90.4487 220.37C94.0357 220.908 96.0027 222.015 99.5077 225.471C104.669 230.559 106.721 230.46 107.494 225.086C108.73 216.494 111.238 208.339 113.597 205.247C118.958 198.218 129.106 195.68 132.844 200.433ZM165.201 266.296L173.293 273.742L170.07 275.409C168.031 276.463 166.169 278.61 164.997 281.258C162.947 285.894 161.023 299.076 161.023 308.49C161.023 311.85 160.769 314.854 160.458 315.165C160.147 315.476 154.235 310.151 147.322 303.332C140.408 296.512 134.332 290.933 133.819 290.933C133.307 290.933 133.116 290.145 133.394 289.183C133.673 288.221 134.19 284.283 134.544 280.433C135.266 272.571 137.698 250.746 138.599 244.033L139.191 239.633L148.15 249.242C153.077 254.527 160.75 262.201 165.201 266.296ZM119.822 242.951C107.383 245.14 98.4647 260.466 105.523 267.524C108.436 270.437 108.575 270.933 106.483 270.933C103.244 270.933 96.9147 275.139 94.3717 278.982C92.2977 282.116 91.6167 284.575 91.2527 290.245C90.8187 297.009 90.9706 297.718 93.4936 300.716C98.5916 306.775 102.615 303.358 97.8967 296.976C96.1677 294.638 95.8927 293.285 96.4257 289.734C98.2217 277.754 108.87 272.719 120.326 278.434C124.811 280.671 127.023 280.378 127.023 277.547C127.023 274.885 122.562 272.219 116.447 271.227C113.663 270.775 113.088 270.304 113.548 268.854C113.936 267.631 113.323 266.52 111.657 265.429C110.301 264.54 108.927 263.124 108.603 262.282C107.544 259.521 111.21 253.771 115.951 250.756C119.706 248.368 121.416 247.901 125.523 248.141C130.029 248.404 130.554 248.214 130.838 246.218C131.084 244.49 130.534 243.868 128.338 243.385C126.79 243.044 125.073 242.661 124.523 242.533C123.973 242.404 121.858 242.592 119.822 242.951ZM184.919 279.683C189.877 283.779 192.972 300.487 193.006 323.325L193.023 335.217L179.481 334.7C172.034 334.416 165.805 334.014 165.641 333.808C165.054 333.07 167.011 299.298 168.031 292.587C169.39 283.643 171.223 280.222 175.286 279.049C180.246 277.616 182.605 277.771 184.919 279.683ZM160.023 328.77C160.023 333.188 159.761 333.782 157.568 334.332C154.761 335.037 153.038 339.716 153.029 346.66C153.024 349.96 153.516 351.197 155.273 352.304C157.997 354.02 175.929 355.94 189.198 355.936L198.873 355.933L218.035 375.075L237.197 394.216L237.742 399.501L238.287 404.785L234.405 405.798C223.143 408.739 218.005 409.851 213.023 410.425C208.069 410.996 207.076 410.769 203.023 408.134C196.96 404.193 187.479 395.413 155.367 363.999L128.211 337.433L130.126 319.433C131.178 309.533 132.248 300.505 132.503 299.372C132.892 297.64 135.132 299.432 146.495 310.567L160.023 323.825V328.77ZM204.066 303.97C208.098 307.463 210.084 309.992 210.543 312.22C211.566 317.178 215.789 322.937 219.557 324.512C221.428 325.293 225.223 325.933 227.991 325.933C231.775 325.933 233.023 326.301 233.023 327.418C233.023 328.236 233.688 338.698 234.502 350.668C235.315 362.639 236.166 375.277 236.392 378.754L236.804 385.074L228.271 376.754C223.578 372.177 216.99 365.661 213.631 362.273L207.523 356.113L207.879 347.429C208.095 342.184 207.818 338.328 207.18 337.69C206.6 337.11 204.454 336.363 202.411 336.031L198.697 335.427L198.382 318.12C198.208 308.601 197.805 300.39 197.486 299.873C196.15 297.712 198.609 299.243 204.066 303.97ZM303.476 309.901C309.37 313.956 313.023 321.299 313.023 329.094C313.023 338.99 308.665 348.496 302.711 351.588C300.709 352.628 299.989 353.677 300.211 355.231C300.693 358.601 303.309 358.361 308.394 354.48C310.949 352.529 314.184 350.933 315.581 350.933C321.416 350.933 328.023 356.873 328.023 362.118C328.023 365.699 326.177 369.36 320.442 377.151C316.711 382.218 316.024 383.876 316.027 387.793C316.029 390.659 316.791 393.681 318.02 395.696L320.01 398.96L314.266 405.999L308.523 413.038L307.913 402.736C307.121 389.366 305.363 382.933 302.504 382.933C301.317 382.933 299.415 384.264 298.142 385.986C295.087 390.119 285.854 396.783 275.273 402.493C270.46 405.09 264.384 408.727 261.771 410.574C259.157 412.422 256.83 413.933 256.6 413.933C256.37 413.933 255.898 412.64 255.551 411.059C254.739 407.363 251.449 404.332 247.023 403.203L243.523 402.311L242.811 391.372C242.42 385.356 241.396 369.183 240.536 355.433C239.676 341.683 238.782 329.255 238.549 327.816C238.199 325.65 238.885 324.653 242.523 322.04L246.92 318.883L251.37 323.333C255.41 327.372 260.633 329.898 265.023 329.934C266.797 329.949 270.62 335.318 271.544 339.094C272.585 343.35 268.94 350.298 263.928 353.61C260.532 355.855 258.521 356.433 254.11 356.433C249.628 356.433 248.497 356.768 248.22 358.18C247.79 360.375 251.597 361.933 257.392 361.933C263.075 361.933 270.136 357.401 274.036 351.251C276.438 347.464 277.023 345.442 277.023 340.928C277.023 337.541 276.441 334.546 275.555 333.374C273.459 330.604 273.684 329.235 276.343 328.568C282.199 327.098 289.956 316.012 290.001 309.047L290.023 305.661L294.575 306.285C297.162 306.64 301.005 308.201 303.476 309.901ZM201.374 341.514C202.557 341.968 203.023 343.379 203.023 346.509V350.87L195.273 350.421C191.01 350.174 182.123 349.737 175.523 349.45C159.309 348.745 159.023 348.645 159.023 343.658V339.615L179.374 340.249C190.567 340.597 200.467 341.166 201.374 341.514ZM155.152 371.686C169.656 385.85 185.095 400.7 189.46 404.686L197.398 411.933L189.46 411.917C180.78 411.9 159.19 410.303 154.709 409.347C152.089 408.787 128.765 388.53 124.988 383.534C123.536 381.612 123.551 380.112 125.161 365.933C126.129 357.408 126.944 349.42 126.972 348.183C127 346.946 127.418 345.933 127.902 345.933C128.385 345.933 140.647 357.522 155.152 371.686ZM24.6287 364.415C39.5827 373.138 53.6147 386.965 64.3417 403.547C70.5507 413.145 71.7727 416.859 72.3667 427.933C72.6577 433.369 73.7566 440.213 74.9366 443.933C76.0696 447.508 77.0028 450.571 77.0098 450.74C77.0898 452.639 46.1927 415.559 36.3097 401.894C30.7187 394.163 27.6517 392.131 26.4197 395.34C25.6297 397.4 29.4528 402.956 44.9058 422.207C58.7388 439.439 69.4107 451.82 73.4007 455.265C75.5127 457.089 75.5057 457.095 72.0227 456.528C66.2027 455.579 52.6757 448.16 43.8867 441.096C27.6997 428.085 15.9667 411.479 9.85765 392.933C7.04965 384.41 6.6787 381.855 6.2517 368.09L5.77465 352.748L11.1487 356.217C14.1047 358.125 20.1707 361.814 24.6287 364.415ZM364.618 381.183C364.346 382.971 363.856 386.908 363.529 389.933C360.797 415.26 347.41 435.659 319.783 456.59C309.361 464.485 308.931 464.701 305.283 463.854C303.215 463.374 298.891 462.97 295.675 462.957L289.827 462.933L291.876 459.683C293.164 457.642 294.977 456.247 296.749 455.933C300.754 455.224 314.887 444.957 320.87 438.41C323.652 435.366 328.237 428.78 331.059 423.774C335.629 415.667 336.025 414.507 334.684 413.165C332.259 410.741 330.327 412.376 326.443 420.138C324.435 424.15 321.186 429.41 319.223 431.826C315.897 435.921 300.027 449.27 299.323 448.566C299.149 448.392 300.367 444.948 302.031 440.913C303.695 436.879 305.327 431.885 305.658 429.817C305.988 427.749 306.815 425.843 307.494 425.582C308.174 425.322 309.739 423.156 310.972 420.771C317.394 408.344 328.963 397.712 345.023 389.478C350.798 386.517 357.323 382.739 359.523 381.082C364.647 377.224 365.22 377.235 364.618 381.183ZM135.523 401.507L141.523 407.097L137.023 406.479C134.548 406.14 129.888 405.13 126.668 404.236L120.814 402.611L121.407 399.022C121.734 397.048 122.006 394.158 122.012 392.599L122.023 389.765L125.773 392.841C127.836 394.533 132.223 398.433 135.523 401.507ZM91.6197 397.497C102.742 404.448 110.642 412.128 117.271 422.433C123.733 432.478 128.143 442.873 130.847 454.433C132.874 463.095 133.948 476.341 132.723 477.566C132.398 477.891 130.195 476.592 127.828 474.68C125.46 472.768 121.611 469.958 119.273 468.436C116.935 466.913 115.023 465.072 115.023 464.345C115.023 463.617 113.874 461.329 112.471 459.261C108.651 453.632 104.616 444.687 100.482 432.683C96.9227 422.349 95.4707 420.438 93.2617 423.183C91.4197 425.471 98.7097 447.28 104.856 457.868C107.189 461.887 107.247 462.232 105.476 461.542C104.402 461.123 100.049 459.846 95.8027 458.704C89.0547 456.888 87.7578 456.158 85.5048 452.907C78.0828 442.198 75.7387 422.503 79.4387 401.933C79.6857 400.558 80.1637 397.746 80.5007 395.683C80.8377 393.621 81.4746 391.933 81.9156 391.933C82.3566 391.933 86.7237 394.437 91.6197 397.497ZM302.62 402.654C303.393 411.922 301.834 424.513 298.809 433.433C294.096 447.33 283.895 463.337 279.023 464.481C271.538 466.239 261.893 470.431 257.253 473.944C254.354 476.138 251.767 477.933 251.503 477.933C250.404 477.933 251.136 475.084 252.533 473.925C255.239 471.679 264.611 458.672 271.984 446.927C275.954 440.605 280.174 434.667 281.362 433.731C283.365 432.153 283.403 431.908 281.885 430.378C280.881 429.367 279.48 428.97 278.269 429.355C277.163 429.706 271.436 437.351 265.27 446.708C259.207 455.907 252.04 465.868 249.342 468.843C245.03 473.601 244.108 474.171 241.705 473.568C238.535 472.772 234.69 469.281 235.515 467.947C235.825 467.444 236.967 463.562 238.052 459.32C240.37 450.255 248.463 432.827 253.607 425.819C257.813 420.089 265.143 414.713 280.581 406.035C286.662 402.616 293.637 398.091 296.081 395.979C299.225 393.262 300.732 392.503 301.237 393.383C301.629 394.067 302.252 398.239 302.62 402.654ZM128.213 410.804C128.592 411.15 128.414 414.898 127.817 419.132L126.731 426.831L123.377 421.261C121.309 417.827 120.023 414.378 120.023 412.267C120.023 408.858 120.04 408.845 123.773 409.509C125.836 409.876 127.833 410.459 128.213 410.804ZM248.823 410.133C250.277 411.587 250.431 421.563 249.013 422.439C248.458 422.782 246.177 426.391 243.944 430.459C239.993 437.658 239.8 437.839 236.704 437.251C234.954 436.918 233.45 436.598 233.36 436.539C233.271 436.481 233.046 430.955 232.86 424.259L232.523 412.086L237.523 410.626C243.889 408.767 247.308 408.618 248.823 410.133ZM146.748 413.965C161.364 415.82 159.789 413.967 159.246 428.664C158.987 435.687 158.705 441.521 158.619 441.63C158.428 441.871 133.941 437.111 132.457 436.544C131.71 436.259 131.782 432.882 132.697 425.285C134.219 412.639 134.543 411.535 136.506 412.288C137.313 412.598 141.921 413.352 146.748 413.965ZM227.517 421.183C227.883 425.17 228.034 430.657 227.852 433.375L227.523 438.318L222.353 439.623C216.457 441.111 201.899 442.876 200.773 442.239C200.361 442.006 200.023 436.217 200.023 429.374V416.933L204.273 416.868C206.611 416.832 212.123 416.22 216.523 415.507C220.923 414.794 225.047 414.149 225.688 414.072C226.427 413.984 227.095 416.578 227.517 421.183ZM194.803 422.933C195.001 425.958 194.868 431.696 194.508 435.683L193.852 442.933L181.188 442.919C174.222 442.912 167.623 442.665 166.523 442.37C164.646 441.868 164.54 441.112 164.802 430.134C164.956 423.698 165.235 417.983 165.423 417.433C165.64 416.797 170.986 416.615 180.104 416.933L194.443 417.433L194.803 422.933ZM146.736 445.445C168.924 449.697 204.441 449.408 225.768 444.802C231.402 443.585 236.247 442.824 236.535 443.111C236.822 443.398 235.804 447.477 234.273 452.175L231.489 460.716L228.522 458.351C222.343 453.423 211.51 454.313 202.523 460.487L197.523 463.922L196.023 461.701C190.171 453.037 185.202 449.919 177.305 449.955C170.527 449.986 165.152 452.8 158.477 459.811C152.973 465.591 149.091 467.824 141.887 469.354C139.28 469.908 139.237 469.824 138.075 461.879C137.429 457.46 136.258 451.727 135.473 449.139C133.575 442.885 133.622 442.616 136.486 443.334C137.84 443.674 142.453 444.624 146.736 445.445ZM185.023 457.786C191.721 462.691 194.117 469.435 194.757 485.183C195.204 496.191 195.115 496.933 193.351 496.933C192.315 496.933 190.58 496.315 189.496 495.561C182.628 490.783 172.997 494.194 169.381 502.683C168.404 504.977 167.338 505.929 165.76 505.921C162.295 505.902 146.262 500.459 144.215 498.607C141.182 495.862 137.712 487.847 137.615 483.362C137.496 477.884 139.8 475.361 146.172 473.994C153.024 472.525 155.868 470.869 161.151 465.27C167.934 458.083 169.614 456.778 173.232 455.882C177.549 454.813 181.927 455.52 185.023 457.786ZM224.673 462.705C225.855 463.656 228.008 466.812 229.458 469.719C232.339 475.499 236.058 478.363 241.889 479.296C249.128 480.453 254.088 489.142 251.995 496.998C250.318 503.293 243.141 507.884 230.979 510.442C227.081 511.262 222.982 512.42 221.871 513.014C219.237 514.424 218.518 513.574 218.872 509.464C219.476 502.455 213.913 496.385 205.913 495.324L201.023 494.675L200.979 487.054C200.955 482.863 200.55 477.434 200.079 474.991C199.282 470.863 199.425 470.36 202.109 467.852C208.976 461.438 219.974 458.929 224.673 462.705ZM91.1627 463.515C107.095 466.53 130.881 480.848 132.557 488.433C132.922 490.083 134.25 493.31 135.508 495.605L137.795 499.777L132.997 501.347L128.199 502.916L122.869 499.329C114.39 493.623 85.4537 479.554 83.6337 480.252C82.7477 480.592 82.0227 481.684 82.0227 482.678C82.0227 484.014 85.9817 486.438 97.1827 491.96C112.94 499.727 124.655 506.635 123.696 507.593C122.975 508.315 107.089 509.351 100.082 509.133C87.9957 508.758 71.6437 501.326 61.9907 491.823C57.4107 487.312 54.9316 483.634 51.0456 475.578C48.2836 469.85 46.0227 464.886 46.0227 464.548C46.0227 464.21 50.4107 463.888 55.7727 463.834C61.1347 463.78 67.9977 463.393 71.0227 462.975C79.7597 461.767 82.2827 461.835 91.1627 463.515ZM306.624 469.836C308.218 470.333 314.473 471.747 320.523 472.977C326.573 474.208 332.814 475.503 334.393 475.854L337.262 476.493L331.099 484.672C317.075 503.283 301.375 512.744 278.523 516.354L269.523 517.776L266.023 514.46C264.098 512.637 260.567 510.166 258.176 508.969C255.785 507.773 254.102 506.52 254.436 506.186C254.77 505.852 258.076 505.391 261.783 505.162C271.614 504.553 290.15 499.592 297.344 495.644C302.269 492.941 303.523 491.764 303.523 489.843C303.523 487.906 303.061 487.483 301.168 487.69C299.872 487.831 297.622 488.78 296.168 489.798C292.143 492.616 283.615 495.487 272.331 497.823C257.437 500.906 258.023 501.063 258.023 493.98C258.023 490.706 257.499 486.876 256.858 485.47C255.853 483.266 256.003 482.583 257.942 480.519C260.957 477.31 271.356 472.285 278.624 470.527C285.339 468.902 302.284 468.484 306.624 469.836ZM187.799 501.103C191.029 503.1 191.765 503.18 196.977 502.103C205.336 500.377 207.802 500.621 210.637 503.457C212.932 505.751 213.099 506.473 212.484 511.398L211.807 516.816L215.379 518.309C221.6 520.907 221.772 527.972 215.71 531.887C212.262 534.114 211.912 534.736 212.053 538.391C212.327 545.502 212.141 545.986 208.571 547.477C205.078 548.937 202.725 548.525 198.93 545.789C197.667 544.88 196.713 545.102 194.333 546.862C192.682 548.083 189.571 549.318 187.421 549.606C182.422 550.277 180.282 548.109 179.843 541.931C179.543 537.708 179.253 537.304 175.104 535.313C167.172 531.506 165.691 526.335 171.229 521.783C174.396 519.18 174.449 519 174.176 511.674C173.905 504.399 173.975 504.151 177.037 501.574C180.851 498.366 183.202 498.263 187.799 501.103ZM153.02 508.351C157.146 509.68 162.161 511.041 164.163 511.375C169.261 512.226 170.023 515.44 165.944 518.893C159.716 524.165 161.423 533.823 169.444 538.692C172.791 540.724 173.968 542.066 173.991 543.879C174.028 546.734 169.83 553.174 166.518 555.344C165.254 556.173 162.784 559.065 161.03 561.772C158.097 566.299 157.394 566.783 152.265 567.813C143.047 569.664 136.495 568.759 131.853 564.993C129.683 563.232 129.523 562.386 129.523 552.686C129.523 542.572 129.424 542.113 126.126 536.852C121.756 529.881 121.041 523.942 123.817 517.667C124.927 515.156 127.108 512.276 128.663 511.267C130.218 510.258 132.285 508.645 133.256 507.683C135.805 505.158 143.968 505.434 153.02 508.351ZM184.002 511.719C180.642 515.079 180.023 516.343 180.023 519.847C180.023 531.654 190.45 539.829 199.716 535.286C205.214 532.591 208.023 527.844 208.023 521.25C208.023 512.313 205.277 509.925 193.252 508.405C188.093 507.754 187.897 507.824 184.002 511.719ZM255.523 514.211C259.82 516.518 261.616 518.089 261.851 519.744C262.031 521.015 262.818 522.302 263.601 522.602C266.648 523.772 264.523 529.961 258.508 537.433C253.788 543.295 252.828 545.603 252.517 551.829C252.363 554.911 252.189 558.186 252.13 559.106C251.941 562.064 247.208 566.611 241.512 569.308C231.577 574.012 225.771 572.322 221.603 563.511C220.184 560.511 219.023 557.761 219.023 557.399C219.023 557.038 218.095 555.438 216.961 553.845C215.059 551.174 215.02 550.776 216.461 548.719C217.32 547.492 218.023 544.515 218.023 542.104C218.023 538.61 218.534 537.32 220.543 535.74C225.406 531.915 227.344 525.27 224.92 520.74C223.487 518.062 224.263 517.609 233.888 515.5C238.087 514.58 242.648 513.192 244.023 512.416C247.581 510.407 248.789 510.595 255.523 514.211ZM201.292 517.017C204.516 520.998 201.55 529.261 196.437 530.544C188.909 532.433 182.398 521.596 187.605 515.843C190.283 512.884 198.517 513.59 201.292 517.017ZM121.434 540.01C123.502 542.468 124.023 544.146 124.023 548.355C124.023 554.199 122.847 555.861 116.986 558.296C106.594 562.613 90.0076 562.307 79.6186 557.607L74.7147 555.388L82.6186 549.535C94.2656 540.909 103.591 537.211 114.184 537.018C118.213 536.945 119.196 537.35 121.434 540.01ZM267.108 549.977C269.311 551.101 272.948 553.678 275.191 555.704C279.103 559.238 289.023 572.885 289.023 574.733C289.023 575.223 284.637 575.017 279.276 574.275C269.136 572.872 260.447 569.517 258.423 566.223C257.742 565.117 257.505 561.281 257.801 556.183C258.261 548.263 258.376 547.933 260.691 547.933C262.018 547.933 264.905 548.853 267.108 549.977ZM186.898 555.677C189.101 555.381 192.329 554.428 194.071 553.559C196.319 552.437 197.77 552.262 199.065 552.956C200.07 553.493 203.138 553.933 205.884 553.933H210.876L213.526 559.683C214.984 562.846 216.88 566.881 217.739 568.65C220.15 573.611 219.028 583.927 215.587 588.438C213.24 591.515 212.385 591.933 208.439 591.933C205.63 591.933 202.099 590.992 198.984 589.413C191.677 585.711 186.355 585.25 180.55 587.818C173.907 590.757 169.997 590.576 166.832 587.183C158.83 578.603 160.569 569.124 172.279 557.505L177.523 552.301L180.208 554.257C182.224 555.726 183.893 556.08 186.898 555.677ZM156.023 576.368C156.023 578.257 156.454 580.938 156.982 582.324C157.851 584.611 157.333 585.433 151.425 591.14C147.842 594.601 142.798 598.672 140.216 600.186C135.132 603.168 125.013 607.256 124.352 606.595C123.511 605.754 127.037 591.581 129.337 586.559C130.65 583.69 133.173 579.692 134.943 577.677C138.091 574.092 138.34 574.004 146.342 573.676C150.842 573.491 154.861 573.248 155.273 573.137C155.685 573.025 156.023 574.479 156.023 576.368ZM233.023 577.433C235.498 577.433 238.489 577.08 239.67 576.648C241.439 576.002 242.194 576.474 243.961 579.333C245.679 582.113 252.023 598.965 252.023 600.749C252.023 601.651 241.318 599.794 235.446 597.873C231.675 596.64 228.194 594.661 226.274 592.659C223.284 589.542 223.199 589.205 223.74 582.66C224.267 576.286 224.425 575.932 226.412 576.66C227.573 577.085 230.548 577.433 233.023 577.433Z" fill="#FFC4C4"/>
</svg>
