<svg width="428" height="710" viewBox="0 0 428 710" fill="none" xmlns="http://www.w3.org/2000/svg">
<path fill-rule="evenodd" clip-rule="evenodd" d="M131.099 1.21798C121.055 4.01998 114.521 10.194 111.002 20.206C107.132 31.217 109.312 42.9371 116.582 50.2061C120.154 53.7791 120.623 54.72 119.851 56.774C117.876 62.026 120.848 70.59 126.803 76.809L130.287 80.448L129.133 86.009C127.718 92.824 129.22 101.944 132.56 106.819L134.778 110.056L132.532 113.365C131.297 115.185 129.985 118.863 129.617 121.539C128.921 126.601 130.242 136.201 132.116 139.703C132.981 141.319 132.786 142.253 131.147 144.337C126.579 150.144 124.94 161.502 127.461 169.878L128.823 174.403L125.861 176.152C121.95 178.463 118.122 186.731 118.109 192.895C118.1 197.037 117.76 197.793 115.349 199.027C107.746 202.918 95.9212 201.718 88.9212 196.346C80.5942 189.954 78.4221 184.272 80.3211 173.845C81.6801 166.378 81.157 165.71 73.927 165.686C62.534 165.649 50.1062 182.478 50.0942 197.959C50.0862 207.493 52.54 213.15 59.832 220.413C65.685 226.242 66.0991 226.954 66.0991 231.195C66.0991 236.032 68.1291 241.942 70.8071 244.9C72.3201 246.573 72.3001 246.814 70.5181 248.245C67.4291 250.726 59.4211 254.111 47.0991 258.144C40.7741 260.214 30.956 264.123 25.28 266.831C5.20504 276.411 -0.00799081 285.773 9.18926e-06 312.232C0.00900919 341.991 8.21905 361.013 32.842 388.328C54.161 411.977 55.6632 415.959 57.1052 452.671C57.6122 465.596 58.469 478.25 59.009 480.791C60.653 488.534 63.9661 497.424 67.1111 502.537C68.7551 505.207 70.0991 507.878 70.0991 508.473C70.0991 510.131 71.7672 510.794 74.3032 510.144C75.7412 509.775 78.0941 507.112 80.5991 503.018C92.5871 483.426 97.1102 478.54 109.098 472.241C116.079 468.573 116.285 468.53 118.273 470.328C119.391 471.34 121.497 474.194 122.953 476.67C126.818 483.244 126.549 493.355 122.117 508.171C116.209 527.918 115.125 535.917 117.225 544.257C118.913 550.959 122.486 554.139 131.174 556.67C143.534 560.271 143.797 560.424 144.441 564.389C145.059 568.2 143.733 584.934 141.962 595.671C140.046 607.284 140.482 623.042 143.049 634.95C145.089 644.415 145.726 645.981 148.271 647.793C152.69 650.94 153.707 649.837 154.446 641.096C155.313 630.843 160.321 616.313 170.104 595.671C180.237 574.291 180.563 573.196 180.583 560.498L180.599 549.826L174.71 538.428C167.053 523.608 167.124 521.955 176.284 501.671C183.623 485.42 184.535 482.837 186.107 473.852C187.402 466.445 186.281 459.406 182.518 451.324C181.198 448.49 180.114 445.432 180.109 444.53C180.092 441.747 187.627 439.465 197.099 439.385C217.737 439.209 230.286 447.695 251.628 476.257C270.277 501.214 277.309 507.7 289.527 511.212C300.146 514.265 313.335 511.561 320.475 504.867C323.73 501.817 328.075 493.299 328.089 489.94C328.096 488.322 328.855 487.544 330.849 487.109C340.046 485.101 347.899 477.9 353.706 466.152C356.85 459.79 357.457 457.521 357.522 451.879C357.588 446.109 357.352 445.171 355.836 445.171C354.866 445.171 352.379 447.421 350.309 450.171C346.906 454.69 338.212 461.671 335.986 461.671C335.498 461.671 335.099 458.957 335.099 455.639C335.099 448.863 332.982 442.671 330.664 442.671C329.789 442.671 327.822 445.257 326.096 448.678C324.111 452.61 321.602 455.749 318.831 457.769C312.863 462.119 307.002 464.98 306.06 464.002C305.62 463.545 301.367 455.4 296.61 445.903C286.716 426.151 282.348 420.685 267.879 409.954C259.149 403.478 256.099 399.793 256.099 395.721C256.099 394.007 256.734 393.671 259.973 393.671C269.794 393.671 277.578 399.236 281.041 408.731C283.106 414.396 286.858 418.671 289.765 418.671C292.322 418.671 292.333 415.737 289.786 412.711C288.403 411.067 286.734 408.023 286.077 405.946C283.185 396.796 275.385 390.409 264.38 388.182L259.162 387.125L261.38 384.441C263.461 381.924 263.891 381.814 268.291 382.673C277.163 384.405 288.067 390.455 295.258 397.634C303.718 406.08 304.483 408.616 303.545 425.094L302.85 437.284L306.051 439.977C309.625 442.984 313.429 443.399 318.381 441.321C322.688 439.514 328.492 433.379 330.698 428.301C331.685 426.029 332.626 423.986 332.789 423.76C333.383 422.941 337.363 427.266 339.726 431.297C341.815 434.862 342.055 436.193 341.484 441.048C340.867 446.305 340.96 446.671 342.926 446.671C348.003 446.671 349.081 435.728 344.734 428.312C341.503 422.798 332.93 415.671 329.528 415.671C327.283 415.671 325.614 418.425 326.156 421.235C326.726 424.198 325.695 426.783 322.413 430.618C317.025 436.912 310.245 439.101 308.69 435.048C308.389 434.263 308.638 429.02 309.243 423.396C310.69 409.955 309.426 405.64 300.646 394.06C300.02 393.235 300.287 390.917 301.422 387.316C303.455 380.867 310.133 372.907 316.78 369.012L321.229 366.405L324.414 369.43C328.595 373.401 334.338 376.206 342.471 378.249C348.92 379.869 349.117 380.015 350.294 384.041C350.958 386.313 351.523 391.546 351.55 395.671C351.589 401.712 351.161 403.911 349.349 406.978C344.801 414.674 347.714 416.367 355.914 410.792C366.371 403.682 373.411 394.654 376.002 385.03C376.718 382.372 377.804 380.72 379.049 380.394C380.113 380.116 381.186 380.092 381.435 380.34C382.372 381.278 379.119 391.043 376.601 394.847C373.477 399.568 373.665 402.06 377.177 402.47C383.551 403.214 395.527 390.532 398.708 379.671C400.054 375.077 401.385 373.199 406.791 368.268C413.184 362.436 423.099 349.555 423.099 347.082C423.099 346.38 423.999 345.52 425.099 345.171C428.847 343.981 427.029 338.156 420.26 329.671C414.545 322.507 391.178 298.938 384.523 293.626C377.255 287.824 364.943 281.025 357.579 278.747C352.472 277.167 352.09 276.799 348.62 270.134C344.269 261.777 340.951 258.201 331.463 251.642C317.003 241.646 301.004 234.793 283.599 231.141C273.309 228.983 248.094 228.856 239.967 230.922L234.335 232.353L232.193 227.185C226.887 214.382 212.846 204.431 194.758 200.654C189.559 199.568 183.909 198.903 182.202 199.175C180.495 199.448 177.749 199.885 176.099 200.146L173.099 200.621L173.054 193.896C173.029 190.197 172.427 185.821 171.717 184.171C170.468 181.272 170.598 180.979 175.59 175.44C182.17 168.141 185.241 161.805 189.628 146.477C194.415 129.751 196.099 119.392 196.099 106.671C196.099 80.736 188.366 59.0581 174.919 47.2941L169.956 42.954L172.024 39.562C176.52 32.187 173.718 22.253 164.096 11.457C155.292 1.57899 143.227 -2.16502 131.099 1.21798ZM150.099 7.75301C158.857 11.719 170.19 27.189 168.696 33.141C167.568 37.634 162.26 42.3821 153.677 46.5761C145.895 50.3771 144.693 50.671 136.909 50.671C130.201 50.671 127.63 50.221 124.061 48.421C112.656 42.67 111.693 23.313 122.284 12.721C129.118 5.88703 141.21 3.72701 150.099 7.75301ZM170.688 50.921C173.282 53.259 177.139 57.832 179.257 61.084C183.216 67.16 188.339 81.519 189.538 89.899L190.215 94.6271L184.407 88.868C180.25 84.745 175.389 81.443 167.305 77.248C150.194 68.368 145.474 61.5861 152.073 55.3581C154.28 53.2751 163.775 47.296 165.785 46.724C165.887 46.695 168.093 48.583 170.688 50.921ZM143.264 58.704C142.67 62.657 146.062 69.468 150.624 73.484C153.029 75.601 160.01 79.989 166.136 83.235C180.359 90.772 184.28 94.81 186.017 103.713C186.71 107.265 187.978 110.954 188.834 111.911C191.052 114.39 190.006 123.556 185.701 139.377C180.123 159.874 177.717 165.14 170.465 172.731L167.063 176.292L154.331 176.005C138.377 175.645 136.093 175.044 133.851 170.62C131.468 165.92 131.575 156.422 134.072 150.921C135.133 148.583 136.266 146.671 136.591 146.671C136.915 146.671 138.434 147.598 139.966 148.731C143.493 151.339 155.583 153.587 157.229 151.941C159.152 150.018 157.393 147.813 153.402 147.142C143.809 145.529 139.648 142.625 136.652 135.453C133.845 128.733 134.939 116.714 138.482 115.354C139.327 115.03 143.386 116.17 147.501 117.888C153.748 120.495 155.241 120.798 156.542 119.719C157.398 119.008 158.099 118.011 158.099 117.503C158.099 116.995 154.368 114.864 149.807 112.767C144.902 110.511 140.424 107.658 138.845 105.781C133.153 99.016 132.228 84.222 137.451 83.477C138.769 83.289 139.719 82.331 139.908 80.998C140.146 79.329 139.164 78.208 135.676 76.163C127.778 71.535 123.861 64.744 125.445 58.428C125.983 56.284 126.453 56.179 134.805 56.321C143.301 56.466 143.588 56.547 143.264 58.704ZM74.3721 176.921C73.6941 185.466 75.3841 190.94 80.3721 196.351C86.6831 203.198 92.8651 205.937 103.195 206.463C110.348 206.827 112.575 206.554 116.465 204.833L121.139 202.766L125.369 205.605C135.623 212.489 146.199 213.493 163.099 209.186C168.874 207.715 175.174 206.108 177.099 205.615C182.471 204.239 187.078 204.492 195.386 206.616C206.285 209.404 213.854 213.303 219.695 219.141C225.682 225.123 229.623 234.064 228.623 239.394C228.285 241.196 227.797 242.671 227.54 242.671C227.282 242.671 224.58 240.643 221.537 238.163C204.623 224.387 185.279 221.943 150.474 229.184C130.865 233.264 120.328 232.193 113.326 225.407C111.522 223.658 109.535 220.522 108.911 218.438C106.809 211.423 103.881 211.052 102.124 217.578C100.493 223.636 102.723 231.693 107.651 237.55L110.277 240.671L106.938 240.706C105.102 240.725 100.674 241.414 97.0991 242.236C82.3991 245.616 77.4872 244.994 74.0252 239.318C72.4052 236.661 71.2812 229.671 72.4732 229.671C72.6792 229.671 74.5922 230.283 76.7232 231.031C83.2272 233.314 91.3312 233.953 93.5142 232.357C96.5422 230.142 94.8681 227.671 90.3401 227.671C81.0081 227.671 68.5411 222.138 61.9021 215.05C52.9131 205.454 53.9091 188.929 64.1821 177.23C67.0391 173.976 71.8471 170.857 74.2341 170.71C74.5831 170.689 74.6451 173.484 74.3721 176.921ZM151.453 181.517C166.346 182.387 167.099 183.014 167.099 194.544V202.196L160.349 204.144C150.767 206.91 140.07 206.779 133.447 203.815C127.815 201.294 124.67 198.392 123.837 194.946C123.024 191.583 125.028 185.039 127.781 182.069C129.996 179.68 130.681 179.493 134.915 180.125C137.491 180.51 144.933 181.136 151.453 181.517ZM128.534 237.449C133.962 237.797 139.45 237.142 151.627 234.692C179.02 229.18 195.334 229.662 208.86 236.383C216.273 240.066 225.167 248.828 228.184 255.421C230.663 260.836 231.995 261.706 234.037 259.246C234.964 258.128 234.749 256.728 233.036 252.747C231.26 248.619 231.086 247.391 232.104 246.165C232.791 245.337 233.651 243.199 234.014 241.415C234.6 238.533 235.228 238.025 239.636 236.867C242.366 236.15 249.16 235.3 254.735 234.979C280.888 233.473 308.779 242.002 330.69 258.206C338.11 263.693 340.377 266.284 343.968 273.381C346.589 278.56 346.631 280.708 344.205 285.461C340.248 293.214 334.614 295.477 325.302 293.052C318.447 291.266 314.366 288.847 306.599 281.962C303.299 279.037 298.769 275.75 296.533 274.657C291.719 272.305 285.126 272.089 281.138 274.151C277.47 276.048 274.051 280.382 274.762 282.235C275.492 284.138 278.527 284.065 280.154 282.105C284.07 277.386 289.67 276.908 295.99 280.751L299.301 282.764L294.95 285.678C289.182 289.54 285.908 294.6 285.338 300.536C284.757 306.584 286.578 310.291 292.528 315.166C301.683 322.668 314.364 324.845 323.137 320.421C328.612 317.66 334.099 310.006 334.099 305.129C334.099 302.264 336.14 298.671 337.767 298.671C338.056 298.671 340.343 300.476 342.849 302.682C345.355 304.888 352.046 308.959 357.717 311.729C368.267 316.881 372.099 320.339 372.099 324.707C372.099 326.717 371.72 326.883 368.222 326.414C366.09 326.128 360.651 324.226 356.136 322.188C347.499 318.288 342.736 317.993 340.081 321.193C339.41 322.001 337.104 323.189 334.955 323.832C332.429 324.589 329.639 326.623 327.063 329.587C322.693 334.614 321.791 335.539 317.205 339.7C315.196 341.522 314.099 343.469 314.099 345.211C314.099 347.55 313.803 347.81 311.849 347.185C306.886 345.599 290.592 345.5 283.442 347.012C264.445 351.028 244.089 365.778 237.338 380.418C235.251 384.945 234.693 387.663 234.718 393.171C234.774 405.308 238.049 410.011 255.654 423.234C271.995 435.507 275.644 440.23 286.596 463.277C293.525 477.86 299.696 485.723 305.791 487.734C307.719 488.371 312.177 488.708 315.698 488.484C322.891 488.026 323.382 488.665 320.723 495.028C317.477 502.797 307.364 507.367 295.523 506.417C283.427 505.446 276.361 499.54 258.031 475.081C234.149 443.211 219.997 433.597 197.139 433.715C189.579 433.754 186.307 434.401 179.878 437.132C178.319 437.794 178.213 437.256 178.757 431.426L179.358 424.989L171.479 419.863C156.459 410.091 149.029 404.199 146.643 400.171C142.348 392.917 140.099 383.409 140.099 372.5C140.099 363.327 140.362 361.972 143.421 355.355C149.471 342.269 164.004 327.122 177.122 320.228C191.13 312.867 215.865 308.836 229.599 311.676C238.82 313.582 240.553 313.494 240.895 311.102C241.311 308.193 237.741 306.825 226.773 305.69C203.473 303.279 179.12 309.873 161.956 323.24C156.978 327.118 156.162 327.452 155.023 326.08C151.72 322.099 145.832 320.179 137.099 320.234C125.894 320.304 118.395 323.649 107.992 333.214C98.3652 342.066 93.3041 345.202 83.7971 348.206C75.1771 350.93 69.7842 351.256 62.2222 349.51C56.8862 348.278 54.0991 349.252 54.0991 352.348C54.0991 355.692 73.4311 361.834 90.0991 363.786L99.5991 364.899L101.277 371.75C102.287 375.877 105.154 382.451 108.487 388.285C117.425 403.931 117.779 410.5 110.821 431.595C106.759 443.911 106.432 454.181 109.915 460.083C111.161 462.195 112.049 464.015 111.89 464.128C111.73 464.24 108.566 466.003 104.859 468.045C95.1211 473.409 87.5251 480.952 80.6741 492.063C77.4151 497.347 74.3961 501.671 73.9661 501.671C72.6151 501.671 68.3702 493.409 66.7732 487.671C63.7762 476.904 62.971 469.881 62.135 447.171C61.395 427.08 60.9892 423.278 58.9302 417.111C55.5202 406.896 51.0401 400.132 38.2681 385.915C16.6281 361.827 9.9731 349.425 6.5691 326.847C4.7181 314.562 4.71923 306.835 6.57423 297.14C9.78923 280.335 17.2031 274.386 48.0991 263.817C66.0661 257.671 68.5372 256.609 73.8552 252.743C77.4222 250.151 78.7182 249.746 81.8552 250.247C84.2112 250.623 88.6261 250.071 93.7661 248.758C98.2571 247.61 104.922 246.671 108.576 246.671C114.65 246.671 115.619 246.976 119.881 250.231C122.446 252.189 127.819 255.345 131.821 257.244C135.824 259.144 139.099 261.199 139.099 261.811C139.099 263.871 145.269 275.135 148.705 279.347C156.403 288.784 171.397 295.671 184.244 295.671C193.266 295.671 198.032 293.364 200.55 287.78C205.344 277.149 196.267 263.979 180.575 258.797C175.035 256.967 170.188 256.337 157.025 255.737C140.626 254.988 140.37 254.941 132.717 251.26C125.122 247.607 113.974 238.127 111.277 233.03C110.242 231.072 110.628 231.15 115.779 233.94C120.102 236.281 123.07 237.098 128.534 237.449ZM175.574 263.244C188.426 266.473 196.099 273.733 196.099 282.664C196.099 286.121 192.445 289.328 187.434 290.268C179.186 291.815 163.164 285.789 155.712 278.336C151.409 274.034 145.128 264.37 145.108 262.023C145.095 260.398 167.883 261.311 175.574 263.244ZM364.599 288.147C369.549 290.549 376.524 294.736 380.099 297.452C386.923 302.636 415.611 331.492 414.774 332.329C414.507 332.596 412.205 332.107 409.659 331.243C403.67 329.21 393.891 329.21 389.958 331.244C387.179 332.681 386.762 332.676 385.116 331.186C384.125 330.289 382.032 329.213 380.466 328.794C377.932 328.116 377.652 327.644 377.921 324.512C378.157 321.776 377.476 320.01 374.866 316.588C371.69 312.423 367.873 310.014 355.523 304.381C353.365 303.397 349.819 301.097 347.643 299.27L343.688 295.949L346.328 292.81C347.781 291.084 349.539 288.095 350.236 286.168C351.754 281.971 351.912 281.993 364.599 288.147ZM307.455 290.325C311.229 293.512 321.337 298.434 325.849 299.282C329.804 300.026 330.146 302.699 327.059 308.75C321.998 318.669 308.743 319.991 297.321 311.717C291.704 307.648 289.61 303.513 291.059 299.355C292.422 295.447 297.895 289.671 300.236 289.671C301.196 289.671 302.259 289.221 302.599 288.671C303.495 287.221 303.968 287.382 307.455 290.325ZM304.299 298.871C301.254 301.916 304.999 308.377 308.964 306.919C312.538 305.603 312.949 302.96 310.06 299.86C307.767 297.398 306.064 297.106 304.299 298.871ZM354.951 327.755C358.346 329.451 364.83 331.517 369.361 332.345C380.383 334.359 382.51 335.253 381.496 337.444C381.057 338.394 380.675 341.4 380.648 344.125C380.605 348.427 380.937 349.269 383.168 350.529C386.376 352.339 389.877 351.533 393.535 348.143C396.421 345.468 399.881 345.217 399.22 347.73C399.011 348.523 398.625 351.216 398.362 353.716C397.959 357.551 398.289 358.744 400.477 361.343L403.07 364.425L399.334 366.853C384.861 376.262 359.678 378.245 339.708 371.549C330.99 368.625 327.826 365.821 323.798 357.445C319.471 348.45 318.954 346.249 320.63 343.967C321.858 342.296 322.024 342.367 323.024 344.986C323.615 346.534 324.099 348.028 324.099 348.306C324.099 349.934 330.794 358.124 333.449 359.743C336.708 361.73 343.556 362.359 344.543 360.761C345.593 359.063 343.895 356.671 341.64 356.671C338.113 356.671 332.965 352.583 330.423 347.764C327.175 341.604 327.392 337.546 331.203 333.206C332.91 331.262 334.673 329.671 335.122 329.671C335.571 329.671 336.679 331.9 337.584 334.624C340.231 342.596 348.541 348.705 351.961 345.194C353.482 343.631 353.429 343.391 351.221 341.841C345.952 338.142 343.217 334.817 342.559 331.311C341.2 324.066 345.247 322.906 354.951 327.755ZM150.347 329.396C151.311 330.268 152.099 331.351 152.099 331.803C152.099 332.653 142.77 344.676 142.399 344.304C142.284 344.189 142.637 340.962 143.183 337.133C143.729 333.304 143.927 329.167 143.623 327.94C143.11 325.869 143.268 325.785 145.833 326.76C147.352 327.338 149.384 328.524 150.347 329.396ZM137.026 328.605C138.253 329.381 138.184 331.439 136.526 343.339C135.311 352.063 134.618 362.526 134.651 371.671C134.699 384.874 134.947 386.842 137.424 393.671C138.92 397.796 141.218 402.683 142.53 404.53L144.916 407.89L142.942 413.53C140.298 421.086 138.098 432.676 138.105 439.009C138.112 446.266 139.618 451.039 144.62 459.671C153.121 474.338 152.86 482.872 143.324 502.003C136.626 515.442 135.851 520.345 139.075 528.911C140.263 532.067 143.748 538.142 146.82 542.411C156.085 555.285 157.497 560.17 153.326 564.921C151.176 567.369 150.099 567.102 150.099 564.121C150.099 557.484 145.987 554.327 133.82 551.624C127.629 550.248 123.493 547.089 122.452 542.941C121.203 537.964 122.939 525.855 126.721 513.171C130.198 501.507 130.597 499.041 130.598 489.171C130.599 476.383 129.983 474.791 121.443 465.501C111.751 454.959 111.051 449.839 116.831 431.811C120.166 421.411 120.565 419.04 120.581 409.556C120.599 399.119 120.533 398.818 116.683 391.556C106.155 371.705 106.599 372.933 106.599 363.624C106.599 355.529 106.848 354.514 110.78 346.594C115.805 336.471 121.103 330.021 125.418 328.772C129.612 327.558 135.244 327.477 137.026 328.605ZM407.244 336.673C415.606 339.307 418.58 341.617 417.769 344.848C417.431 346.197 414.836 350.362 412.003 354.104L406.852 360.909L404.954 357.911C403.441 355.521 403.263 354.369 404.078 352.227C405.845 347.58 405.339 342.953 402.876 341.228C399.087 338.573 392.619 339.93 389.154 344.105C387.523 346.07 385.099 346.142 385.099 344.227C385.099 341.879 389.584 337.361 393.221 336.045C398.005 334.315 400.047 334.406 407.244 336.673ZM102.201 352.305L100.201 358.171L92.4002 357.935C88.1092 357.805 83.2491 357.319 81.5991 356.856C78.7741 356.064 79.0951 355.851 87.0991 353.21C91.7741 351.668 97.382 349.361 99.561 348.084C101.74 346.806 103.675 345.914 103.862 346.1C104.048 346.287 103.301 349.079 102.201 352.305ZM308.97 352.659C310.26 353.412 309.971 353.617 307.579 353.641C299.055 353.726 279.283 361.695 269.165 369.123C262.526 373.996 255.319 381.971 253.064 386.939C250.527 392.529 250.528 400.222 253.067 404.387C254.145 406.155 259.206 410.688 264.313 414.461C278.435 424.891 281.669 429.08 293.319 452.024C301.858 468.843 304.489 473.121 309.243 477.921C313.626 482.346 314.489 483.671 312.987 483.671C306.093 483.671 299.89 477.578 293.644 464.671C286.146 449.178 283.032 443.506 278.544 437.171C273.359 429.851 270.427 427.089 257.599 417.438C245.949 408.674 243.746 406.465 241.647 401.439C233.796 382.651 257.832 357.179 288.599 351.68C294.319 350.658 306.551 351.245 308.97 352.659ZM316.724 359.671C319.316 359.671 318.097 361.482 313.815 363.992C307.776 367.531 300.622 375.526 297.384 382.355C295.868 385.554 294.534 388.333 294.42 388.53C294.307 388.728 292.894 387.949 291.281 386.801C286.706 383.543 273.904 377.671 271.377 377.671C267.476 377.671 268.828 375.982 276.614 371.129C288.973 363.426 304.898 358.152 312.474 359.253C314.055 359.483 315.968 359.671 316.724 359.671ZM393.01 379.421C391.605 383.139 385.962 391.867 385.355 391.26C385.087 390.992 385.37 389.333 385.983 387.573C386.597 385.813 387.099 383.127 387.099 381.605C387.099 379.496 387.753 378.599 389.849 377.833C393.949 376.336 394.14 376.432 393.01 379.421ZM371.089 381.921C371.054 386.38 360.84 401.671 357.896 401.671C357.458 401.671 357.099 398.406 357.099 394.414C357.099 390.423 356.68 385.698 356.169 383.914L355.239 380.671H363.169C368.852 380.671 371.096 381.025 371.089 381.921ZM155.099 415.665C157.024 417.127 161.411 420.009 164.848 422.069C171.539 426.079 171.627 426.243 172.507 436.298C172.801 439.668 174.219 445.518 175.656 449.298C177.094 453.078 178.953 457.971 179.787 460.171C182.7 467.853 180.108 479.909 171.619 498.171C161.976 518.917 161.119 524.617 166.191 534.28C174.527 550.16 174.418 549.853 174.882 558.769C175.431 569.317 173.915 575.088 166.955 588.958C161.471 599.886 154.29 617.105 151.643 625.671C150.708 628.696 149.683 631.846 149.363 632.671C148.504 634.89 146.2 622.149 146.146 614.884C146.12 611.425 147.016 601.179 148.136 592.113L150.172 575.631L153.886 572.178C155.928 570.279 157.864 568.713 158.188 568.698C159.277 568.648 161.277 574.125 162.168 579.597C163.163 585.706 164.192 587.233 166.672 586.281C169.29 585.277 167.886 574.775 164.099 567.048C162.449 563.681 161.089 559.631 161.077 558.048C161.045 553.91 158.245 548.353 151.359 538.764C141.262 524.704 140.746 519.603 148.011 505.623C150.712 500.425 153.679 493.246 154.604 489.671C156.838 481.035 156.342 469.623 153.495 464.171C152.346 461.971 149.762 457.101 147.753 453.348C144.406 447.099 144.099 445.842 144.099 438.389C144.099 429.114 148.488 411.211 150.479 412.36C151.095 412.716 153.174 414.203 155.099 415.665ZM329.468 459.421C328.796 464.408 322.014 478.071 320.023 478.451C319.156 478.616 316.456 476.92 314.023 474.682C309.887 470.878 309.722 470.533 311.488 469.392C322.418 462.328 325.433 460.091 326.769 458.051C329.027 454.606 330.047 455.124 329.468 459.421ZM348.241 464.394C343.548 473.592 334.5 481.655 328.859 481.666L326.118 481.671L329.489 475.589C332.268 470.576 333.716 469.099 337.73 467.186C340.408 465.91 344.174 463.744 346.099 462.373C348.024 461.003 349.743 460.015 349.919 460.179C350.095 460.343 349.339 462.24 348.241 464.394ZM93.1211 515.725C89.6731 519.605 82.7441 526.061 77.7251 530.071C72.7061 534.081 66.4621 539.662 63.8491 542.473C59.8821 546.743 59.0991 548.223 59.0991 551.454C59.0991 559.82 69.9021 564.222 79.5991 559.805C88.2181 555.88 94.3351 546.172 99.0261 528.973C100.646 523.032 102.617 516.596 103.406 514.671C105.155 510.399 104.653 508.671 101.661 508.671C100.107 508.671 97.4111 510.897 93.1211 515.725ZM186.766 511.338C185.021 513.082 186.534 519.072 191.037 528.251C200.313 547.158 215.484 559.428 221.444 552.842C226.625 547.118 218.327 532.023 204.506 522.026C200.814 519.356 196.12 515.708 194.075 513.921C190.476 510.776 188.15 509.953 186.766 511.338ZM204.502 529.029C209.641 533.048 217.099 543.262 217.099 546.281C217.099 547.596 216.852 548.671 216.549 548.671C214.63 548.671 209.723 545.046 205.93 540.828C202.041 536.503 195.099 525.182 195.099 523.166C195.099 522.306 199.078 524.787 204.502 529.029ZM92.0852 532.943C89.4742 541.54 86.4452 546.974 81.7022 551.571C78.9242 554.263 77.1811 555.053 73.1611 555.439C67.5281 555.98 65.0991 554.722 65.0991 551.264C65.0991 548.816 71.653 542.158 83.134 532.942C87.279 529.615 91.3122 526.119 92.0982 525.173C94.4522 522.335 94.4482 525.164 92.0852 532.943ZM96.207 576.194C82.505 590.619 76.0991 601.629 76.0991 610.754C76.0991 621.182 88.3161 622.631 95.6101 613.068C99.2021 608.359 102.618 600.327 104.074 593.169C104.745 589.87 106.434 583.687 107.826 579.43C109.887 573.13 110.125 571.407 109.106 570.18C106.535 567.082 103.533 568.481 96.207 576.194ZM99.0781 589.279C95.5151 604.585 90.1391 613.671 84.6441 613.671C82.3591 613.671 82.0991 613.279 82.0991 609.831C82.0991 604.529 86.779 595.61 94.165 586.835C97.542 582.824 100.494 579.732 100.726 579.964C100.958 580.196 100.216 584.388 99.0781 589.279ZM181.766 600.338C179.193 602.91 185.366 616.415 192.99 624.895C197.484 629.893 205.574 634.647 209.599 634.656C213.339 634.663 219.087 632.585 221.815 630.239C224.105 628.269 224.331 627.656 223.247 626.35C222.54 625.497 220.565 624.493 218.858 624.118C216.815 623.669 212.109 619.955 205.077 613.239C199.204 607.63 192.801 602.283 190.848 601.356C187.208 599.629 182.952 599.152 181.766 600.338ZM199.926 616.164C203.046 619.46 207.329 623.623 209.444 625.414C213.147 628.552 213.196 628.671 210.759 628.671C206.979 628.671 203.749 627.18 199.533 623.488C195.92 620.324 188.099 609.361 188.099 607.459C188.099 605.677 194.363 610.287 199.926 616.164ZM127.159 660.322C124.673 663.483 119.545 676.679 117.603 684.916C116.792 688.356 116.122 694.183 116.114 697.865C116.095 706.334 118.538 709.871 124.406 709.871C132.839 709.871 137.353 702.897 137.48 689.671C137.577 679.695 136.434 660.022 135.688 658.815C134.49 656.877 129.123 657.825 127.159 660.322ZM131.918 687.671C132.002 696.909 130.491 701.616 126.793 703.637C124.18 705.065 123.881 705.033 122.458 703.171C119.66 699.51 122.578 683.533 128.355 670.882L130.506 666.171L131.178 673.171C131.548 677.021 131.881 683.546 131.918 687.671Z" fill="#FFC4C4"/>
</svg>
