<svg width="518" height="414" viewBox="0 0 518 414" fill="none" xmlns="http://www.w3.org/2000/svg">
<path fill-rule="evenodd" clip-rule="evenodd" d="M242.823 1.04733C205.594 5.79033 180.987 16.0444 165.549 33.2494C163.486 35.5484 161.253 37.2193 160.586 36.9643C158.599 36.2013 132.167 45.3813 123.767 49.7513C114.396 54.6273 106.85 61.4563 104.082 67.5693C101.644 72.9523 101.411 80.5283 103.555 84.6753C105.059 87.5853 105.012 87.7913 102.073 91.1383C98.24 95.5043 96.298 99.2444 95.88 103.069C95.699 104.719 94.032 107.807 92.176 109.932C86.911 115.958 85.047 121.022 85.022 129.367C85.006 134.685 85.55 137.804 87.026 140.859C88.302 143.5 88.655 145.184 87.98 145.409C87.391 145.605 84.469 147.409 81.488 149.418C75.428 153.499 70.941 159.078 68.897 165.069C68.147 167.269 66.7359 169.969 65.7629 171.069C64.7899 172.169 63.378 173.94 62.624 175.005C61.274 176.913 61.178 176.91 56.019 174.766C49.199 171.932 39.378 164.872 30.432 156.375C26.492 152.631 22.541 149.569 21.653 149.569C15.382 149.569 23.75 169.452 34.443 179.96C37.862 183.32 43.355 187.635 46.65 189.55L52.642 193.031L51.071 195.795C49.111 199.242 45.487 200.015 34.631 199.302C26.006 198.735 14.906 195.333 7.18298 190.89C2.53498 188.216 0 188.389 0 191.379C0 193.711 10.499 203.85 18.5 209.243C26.696 214.768 31.0119 216.834 41.3409 220.178C49.6619 222.872 50.257 222.938 51.459 221.294C52.594 219.741 52.877 219.716 53.998 221.067C57.391 225.155 36.4241 237.01 18.7791 240.98C15.4921 241.72 13.242 245.211 14.952 246.921C16.852 248.821 31.112 248.928 40.188 247.111C44.76 246.195 51.9719 243.955 56.2159 242.132L63.933 238.818L68.619 241.077C72.128 242.768 73.372 243.961 73.571 245.824C74.399 253.588 90.9829 275.569 96.0129 275.569C98.0139 275.569 99.905 273.029 99.766 270.527C99.721 269.725 99.756 267.382 99.842 265.319C99.977 262.118 100.337 261.569 102.3 261.569C105.287 261.569 107 259.788 107 256.682V254.195L109.805 256.882C113.901 260.807 116.662 260.446 117.947 255.819C118.52 253.757 118.993 251.169 118.998 250.069C119.005 248.54 119.501 248.894 121.103 251.569C124.075 256.532 129.097 261.569 131.072 261.569C133.356 261.569 139.356 273.193 141.934 282.614C144.675 292.629 146.071 307.158 145.319 317.819C144.933 323.276 145.069 326.569 145.679 326.569C146.216 326.569 147.174 328.809 147.805 331.547C149.735 339.906 151.64 343.569 154.058 343.569C155.926 343.569 156.155 343.128 155.748 340.319C155.49 338.532 154.514 334.257 153.581 330.819C152.011 325.035 152.004 324.104 153.482 318.333C154.361 314.903 155.826 310.965 156.737 309.583L158.395 307.069L159.183 310.823C160.531 317.25 165.005 324.745 170.868 330.403C178.428 337.697 182.583 340.237 188.25 341.028C192.448 341.615 193 341.977 193 344.149C193 346.242 192.645 346.518 190.608 346.007C189.264 345.669 186.927 346.072 185.277 346.926C182.555 348.333 182.216 348.302 180.679 346.507C178.508 343.971 173.951 344.033 170.632 346.644C168.297 348.48 167.924 348.534 167.376 347.107C167.036 346.22 165.44 344.813 163.829 343.98C160.732 342.379 157.638 342.809 154.882 345.222C153.447 346.479 152.68 346 148.085 340.972C145.237 337.855 142.06 333.647 141.026 331.62C138.313 326.303 136.657 325.142 134.078 326.752C128.59 330.18 134.854 353.662 143.835 363.329C145.644 365.276 146.434 367.318 146.566 370.385C146.701 373.52 147.472 375.452 149.387 377.452C151.773 379.942 151.916 380.511 150.891 383.452C149.274 388.091 150.281 395.896 153.01 399.879C155.888 404.078 160.111 407.007 168.205 410.417C174.229 412.955 175.274 413.069 192.5 413.069C213.162 413.069 216.178 412.369 235 403.209C243.97 398.844 246.752 396.858 254.088 389.584C263.013 380.736 274.025 365.158 282.022 350.069C289.219 336.491 291.145 333.369 298.082 324.049C306.214 313.122 324.94 294.786 332.203 290.638C346.701 282.358 373.186 281.829 389.623 289.491C397.078 292.966 402.079 297.36 411.682 308.872C421.346 320.457 424.839 327.512 426.55 338.902C427.294 343.851 428.564 348.562 429.373 349.371C431.111 351.109 433.78 350.341 434.692 347.842C435.048 346.867 438.166 343.046 441.622 339.351C449.762 330.646 457.904 319.733 462.348 311.569C469.016 299.32 470.889 288.337 473.007 249.069C474.843 215.02 478.687 203.126 494.984 181.069C509.132 161.921 516.609 143.319 517.709 124.534C518.362 113.373 516.856 106.752 511.374 96.6934C500.338 76.4424 475.441 53.5133 447.879 38.2163C438.841 33.2003 418.129 25.8253 382.5 14.9353C359.422 7.88227 338.87 3.05332 325.5 1.54232C309.69 -0.245676 255.514 -0.568671 242.823 1.04733ZM317.5 6.63534C338.385 8.36834 356.975 12.7653 397.46 25.5473C438.532 38.5143 451.917 44.9674 473 61.9683C494.636 79.4153 509.124 99.0544 512.055 114.909C513.439 122.395 511.934 132.581 507.396 146.449C503.42 158.595 500.664 163.671 490.5 177.569C486.377 183.206 481.658 190.172 480.012 193.048C471.976 207.093 468.478 223.403 466.985 253.79C465.397 286.106 463.753 296.165 458.285 307.026C454.633 314.28 446.2 325.984 438.852 333.996L432.5 340.924L431.772 335.134C430.35 323.827 422.796 311.51 408.121 296.574C394.937 283.156 386.17 279.618 363.725 278.658L349.95 278.069L363.527 270.569C380.022 261.457 389.629 254.406 401.302 242.847C417.127 227.174 428.186 210.481 431.926 196.619C434.463 187.218 436.404 163.96 435.519 153.569C434.31 139.38 428.924 124.377 421.787 115.32C418.577 111.246 418.61 111.199 425.5 110.068C438.008 108.014 449.263 97.5974 447.525 89.6834C446.975 87.1774 447.293 86.8844 452.485 85.1194C462.689 81.6504 470.603 72.0283 468.401 65.7683L467.451 63.0693L454.976 63.0133C436.837 62.9323 427.653 59.3573 411.241 45.9873C390.628 29.1963 363.818 28.5534 347.091 44.4474C340.022 51.1634 337.732 56.2924 337.21 66.5724C336.832 74.0384 337.028 75.3794 338.825 77.5724C340.698 79.8584 341.008 79.9354 342.49 78.4794C343.881 77.1134 343.944 76.2314 342.936 72.2294C341.533 66.6584 342.781 60.3883 346.594 53.8443C353.448 42.0793 371.97 35.7882 387.543 39.9362C395.159 41.9642 399.68 44.3923 408.86 51.3833C426.496 64.8163 436.011 68.5693 452.426 68.5693C459.551 68.5693 463 68.9343 463 69.6873C463 70.3013 461.3 72.5043 459.222 74.5823C452.06 81.7453 440.43 83.1654 418.523 79.5524C391.781 75.1434 375.924 76.0634 368.653 82.4474C367.638 83.3394 363.632 84.5194 359.752 85.0694C354.994 85.7434 352.35 86.6234 351.634 87.7714C351.049 88.7074 350.881 89.7834 351.26 90.1634C351.64 90.5424 357.474 90.9264 364.225 91.0154C375.401 91.1644 377.26 91.4664 384.99 94.3914C408.287 103.208 423.112 120.435 428.528 144.982C429.953 151.444 430.166 155.753 429.69 168.482C429.37 177.055 428.411 187.206 427.56 191.04C424.748 203.705 416.477 217.968 403.476 232.569C391.719 245.775 375.846 257.782 356.5 268.103C344.498 274.506 336.333 279.841 325.5 288.357C303.383 305.745 291.109 320.625 277.074 347.069C268.929 362.415 256.54 379.882 248.559 387.271C243.427 392.023 238.833 395.072 231.516 398.586C215.013 406.512 208.738 408.055 193 408.055C175.718 408.055 167.336 405.774 160.482 399.206C156.32 395.218 156 394.548 156 389.812C156 383.89 157.303 382.158 163.051 380.436C166.167 379.502 168.844 379.534 175.59 380.583C182.737 381.695 184.304 381.695 184.991 380.584C186.476 378.18 184.908 376.692 179.663 375.526C175.12 374.516 162.928 374.606 157.641 375.688C154.88 376.254 151.564 371.444 152.404 368.094C152.893 366.148 154.453 364.801 158.285 363.017C164.953 359.912 172.957 359.821 189.389 362.665C197.47 364.063 203.713 364.584 208.152 364.231C218.42 363.414 228.901 357.431 232.654 350.243C233.466 348.688 235.892 341.938 238.045 335.243C240.198 328.547 242.808 321.697 243.843 320.02C245.126 317.942 248.944 315.279 255.818 311.665C272.451 302.92 276.201 297.86 276.824 283.325C277.265 273.038 274.953 263.883 269.375 253.829C262.797 241.972 248.773 229.379 238.827 226.399C236.722 225.768 235 224.874 235 224.411C235 223.335 235.607 223.35 237.764 224.475C238.719 224.974 241.525 225.923 244 226.585C250.741 228.386 261.266 234.936 266.053 240.308C270.933 245.784 281.352 266.88 283.7 276.038C285.486 283.006 285.006 292.597 282.521 299.569C280.314 305.763 274.188 311.655 263.529 317.838C250.445 325.429 245.648 330.538 242.996 339.709C241.826 343.757 239.919 349.211 238.758 351.829C235.793 358.521 226.195 367.353 216.798 372.036C208.754 376.046 206.992 377.99 209.307 380.304C210.48 381.477 211.871 381.062 218.593 377.53C235.561 368.617 242.195 361.141 247.023 345.493C248.747 339.906 251.181 334.319 252.652 332.571C254.077 330.877 259.576 326.944 264.872 323.83C276.392 317.056 283.262 310.885 286.85 304.089C289.338 299.376 289.5 298.244 289.5 285.569V272.069L282.517 257.075C276.372 243.882 274.751 241.288 269.017 235.478C264.143 230.54 260.268 227.774 253.646 224.507C248.776 222.104 245.401 219.951 246.146 219.722C250.502 218.383 265.004 210.697 272.159 205.934C282.078 199.332 286 195.805 286 193.489C286 190.365 283.194 190.643 275.812 194.497C262.422 201.489 240.581 208.369 223.381 211.013C210.879 212.935 210.355 212.935 209.617 211.014C209.003 209.414 209.732 209.013 220.294 205.131C229.962 201.579 276.419 172.195 286.486 163.265C290.861 159.384 291.305 158.642 290.113 157.206C288.182 154.878 287.49 155.059 279.584 159.961C261.818 170.977 234.194 183.102 214.644 188.466C205.214 191.053 202.999 191.12 203.004 188.819C203.006 187.664 204.622 186.428 207.754 185.185C221.581 179.698 232.498 173.052 248 160.683C262.409 149.187 271.468 140.23 270.703 138.237C269.613 135.398 267.25 136.326 257.205 143.532C239.783 156.032 223.234 163.471 199.101 169.65C184.34 173.43 183.706 173.409 182.147 169.099C180.203 163.723 175.999 161.333 167.534 160.789C163.314 160.519 159.477 160.779 158.287 161.416C156.668 162.282 155.923 162.141 154.642 160.726C153.15 159.077 153.279 158.436 156.389 152.008C160.878 142.728 167.543 133.804 182.246 117.382C193.784 104.496 197 101.772 197 104.889C197 106.784 203.692 114.336 206.028 115.078C207.734 115.619 208 116.614 208 122.44C208 130.611 211.329 138.193 216.723 142.307C224.85 148.506 240.23 145.468 249.025 135.926C251.242 133.521 253.475 130.451 253.987 129.102C254.5 127.754 256.782 125.7 259.059 124.539C270.009 118.953 285.859 97.8714 284.808 90.2934C284.536 88.3274 285.256 87.8744 291 86.3874C298.482 84.4514 307.644 84.1034 311.593 85.6044C313.091 86.1744 315.865 87.9994 317.758 89.6614C321.206 92.6894 324.957 93.2424 325.749 90.8384C326.215 89.4214 319.921 83.2494 315.5 80.7874C313.289 79.5574 310.133 79.1344 303.5 79.1794C288.995 79.2794 276.019 84.0443 254.144 97.3053C239.702 106.059 232.698 109.1 223.634 110.548C214.574 111.995 209.248 110.99 205.34 107.097C201.127 102.9 200.186 96.8984 202.489 88.9164C208.074 69.5664 222.955 57.9963 251.812 50.5683C255.422 49.6393 256.074 49.1012 255.812 47.2642C255.543 45.3722 254.948 45.1032 251.5 45.3162C245.976 45.6562 236.095 48.9364 226 53.7804C210.231 61.3474 197.73 77.0984 196.27 91.2404C195.73 96.4754 195.488 96.8853 192.1 98.3003C187.738 100.123 179.356 99.6314 170.03 97.0044C160.58 94.3434 155.777 89.2823 153.595 79.6853C152.116 73.1823 152.107 71.9203 153.5 65.9113C156.591 52.5833 167.751 36.7952 180.905 27.1392C197.118 15.2372 221.422 8.40233 259 5.17733C265.997 4.57633 304.154 5.52734 317.5 6.63534ZM154.037 48.8493C146.572 62.0773 145.094 76.1183 149.982 87.3633C153.997 96.5973 164.269 103.033 177 104.291C180.025 104.59 183.004 105.112 183.619 105.452C184.285 105.819 180.11 111.334 173.309 119.069C162.252 131.646 153.342 144.112 150.431 151.079L149.023 154.45L141.528 150.987C127.966 144.721 122.681 143.443 107.893 142.859L94.285 142.322L92.4041 139.195C89.3771 134.166 89.784 124.288 93.262 118.371C94.781 115.787 96.4651 113.4 97.0031 113.067C97.5421 112.734 99.799 113.92 102.017 115.703C109.316 121.568 120.23 120.682 129.385 113.481C132.059 111.377 141 99.0984 141 97.5304C141 97.0114 141.9 96.0243 143 95.3373C145.357 93.8653 145.64 90.7524 143.492 89.9284C142.662 89.6094 140.344 90.1274 138.339 91.0794C132.706 93.7524 120.43 92.7814 115.078 89.2394C109.763 85.7224 107.665 82.3224 107.675 77.2404C107.699 65.4294 118.957 56.0833 143 47.9163C149.875 45.5803 155.841 43.6474 156.259 43.6194C156.676 43.5924 155.676 45.9453 154.037 48.8493ZM417.5 85.0174C421.9 85.8564 429.213 86.8404 433.75 87.2044C441.975 87.8624 442 87.8734 442 90.6824C442 97.1934 431.735 104 420.078 105.219C414.334 105.819 413.921 105.707 410.359 102.58C402.623 95.7874 390.302 89.4474 379 86.4424L374.5 85.2464L378.5 83.9164C383.602 82.2214 406.18 82.8584 417.5 85.0174ZM276.175 97.7993C272.592 105.002 266.395 112.546 260.637 116.717L256.654 119.602L254.842 112.466C253.845 108.541 253.24 104.99 253.497 104.574C254.845 102.393 277.899 90.1344 278.855 91.0904C279.096 91.3324 277.89 94.3513 276.175 97.7993ZM111.541 93.9604C114.56 96.0754 123.836 98.5694 128.682 98.5694C131.057 98.5694 133 98.9844 133 99.4914C133 99.9994 131.518 102.356 129.707 104.731C125.27 110.548 116.529 115.078 111.546 114.144C107.268 113.341 101 108.153 101 105.416C101 102.968 103.599 97.7644 106.291 94.8194C108.708 92.1764 108.939 92.1384 111.541 93.9604ZM109.032 102.508C106.539 107.167 112.589 110.792 115.393 106.319C116.189 105.049 116.189 104.089 115.393 102.819C113.773 100.235 110.339 100.067 109.032 102.508ZM248.902 111.718C250.454 116.17 250.264 124.158 248.526 127.518C244.874 134.581 231.741 141.55 224.91 140.049C220.955 139.181 215.608 133.543 214.162 128.717C212.848 124.329 212.673 119.605 213.765 117.968C214.169 117.362 217.945 116.612 222.155 116.302C227.71 115.892 232.098 114.781 238.155 112.248C242.745 110.328 246.793 108.715 247.152 108.663C247.511 108.611 248.298 109.986 248.902 111.718ZM226.667 120.236C225.484 121.419 225.958 125.289 227.436 126.516C229.04 127.847 232.479 126.56 233.278 124.33C234.429 121.117 229.092 117.811 226.667 120.236ZM122.733 149.971C138.653 154.254 149.697 161.092 152.009 168.096C153.375 172.237 152.578 176.736 150.077 178.999C148.36 180.553 148.241 180.399 147.744 175.989C147.072 170.029 144.849 167.066 137.129 161.84C128.452 155.966 122.757 154.404 108 153.85C96.134 153.404 88.504 154.338 81.5 157.095C79.949 157.705 80.061 157.429 82 155.863C85.449 153.078 92.226 149.732 96.734 148.59C101.529 147.375 115.927 148.14 122.733 149.971ZM115.5 159.6C123.594 160.746 133.369 165.165 138.49 169.995C144.317 175.49 143.034 181.461 135.151 185.532C132.877 186.707 132.824 186.645 133.495 183.591C135.018 176.656 129.888 171.749 122.552 173.125C113.327 174.856 102.42 186.863 99.918 198.044C97.985 206.685 96.469 205.268 93.08 191.652C91.939 187.065 90.0381 181.749 88.8571 179.838C86.2911 175.686 81.539 172.578 77.75 172.573C74.551 172.568 74.5069 172.423 76.5229 168.525C80.3349 161.153 97.963 157.117 115.5 159.6ZM37.781 170.368C40.685 172.627 46.76 176.327 51.281 178.589C55.801 180.852 59.455 183.123 59.4 183.636C59.345 184.149 59.233 185.683 59.15 187.043L59 189.518L51.859 185.793C44.002 181.696 34.3099 173.021 31.4969 167.569C30.2389 165.131 30.117 164.402 31.095 165.165C31.868 165.767 34.876 168.109 37.781 170.368ZM231.475 165.61C230.002 167.993 217.01 175.328 207.671 179.049L200.842 181.769L198.452 179.524C195.516 176.766 195.916 175.992 200.739 175.102C205.468 174.23 227.987 166.905 230 165.584C231.93 164.317 232.27 164.323 231.475 165.61ZM173.312 167.498C176.106 168.56 178.015 173.038 177.291 176.829C176.536 180.776 173.028 183.382 166.462 184.873C161.718 185.95 160.5 186.62 160.5 188.148C160.5 189.726 161.336 190.123 165.187 190.371C172.213 190.824 179.208 186.748 182.453 180.312C184.816 175.626 192.092 179.32 195.833 187.106C200.803 197.446 197.046 208.955 187.523 212.564C185.886 213.184 180.595 213.578 175.765 213.439C169.961 213.271 166.577 213.592 165.785 214.384C162.154 218.015 175.804 220.775 186.533 218.58C191.657 217.532 193.188 216.651 197.368 212.346C201.093 208.508 202.439 207.653 203.102 208.7C206.059 213.367 201.864 225.758 195.404 231.445C180.105 244.911 145.123 245.941 123.487 233.562C116.242 229.416 108.893 222.596 106.639 217.925C105.616 215.804 104.373 213.279 103.877 212.313C101.987 208.632 106.162 194.486 111.287 187.2C115.325 181.46 125.684 176.631 127.535 179.626C129.103 182.162 126.855 185.52 121.756 188.257C116.372 191.148 114.581 194.087 117.517 195.214C118.433 195.565 120.828 195.045 122.841 194.058C124.853 193.072 128.707 192.111 131.404 191.924C134.101 191.738 137.839 190.681 139.711 189.577C141.583 188.473 143.782 187.569 144.597 187.569C147.347 187.569 153.816 183.636 155.916 180.687C157.431 178.559 158 176.233 158 172.165V166.569H164.435C167.974 166.569 171.969 166.987 173.312 167.498ZM83.516 182.456C84.817 184.443 86.5801 189.124 87.4351 192.859C89.2571 200.818 91.012 204.541 95.625 210.237C101.284 217.226 100.106 224.627 92.1949 231.773C85.1719 238.119 75.945 239.17 68.37 234.489C64.304 231.976 64.175 230.802 67.661 228.022C70.886 225.451 70.235 224.047 64.813 221.878C56.831 218.684 52.145 207.944 55.368 200.231C57.414 195.334 59.619 194.588 62.347 197.869C64.381 200.314 65.853 200.962 68.75 200.687C70.754 200.497 70.199 197.519 67.5 193.98C64.797 190.437 64.368 186.681 66.098 181.718C67.469 177.785 68.416 177.746 69.996 181.558C71.461 185.097 78.63 191.859 80.319 191.296C82.713 190.499 82.1111 187.279 78.9611 184.029C77.0581 182.065 75.97 180.091 76.307 179.213C77.228 176.81 80.905 178.464 83.516 182.456ZM245.836 184.067C244.81 185.092 228.333 194.873 223.535 197.305C216.287 200.977 207.91 203.675 205.817 203.011C204.619 202.631 204 201.46 204 199.573C204 196.891 204.363 196.637 209.75 195.539C216.418 194.18 238.203 187.074 241.949 185.037C244.451 183.676 246.817 183.085 245.836 184.067ZM156.926 200.428C153.929 202.855 154.951 205.569 158.862 205.569C163.027 205.569 164.562 201.475 161.093 199.619C159.642 198.842 158.646 199.035 156.926 200.428ZM132.724 200.703C130.711 201.83 130.454 204.884 132.25 206.331C134.109 207.83 138 206.006 138 203.636C138 201.064 135.03 199.413 132.724 200.703ZM30 204.712C33.575 205.242 39.189 205.54 42.475 205.373L48.45 205.069L49.135 209.769C49.512 212.354 50.112 214.941 50.469 215.519C53.125 219.816 26.061 209.092 21 203.841C19.657 202.448 19.71 202.362 21.5 203.016C22.6 203.418 26.425 204.181 30 204.712ZM78.667 203.236C77.372 204.531 78.0259 206.512 80.1169 207.631C81.7939 208.529 82.554 208.443 83.781 207.217C85.055 205.943 85.101 205.395 84.042 204.119C82.719 202.525 79.849 202.054 78.667 203.236ZM65.363 212.066C65.017 212.967 65.196 214.165 65.761 214.73C67.391 216.36 70.5 215.261 70.5 213.055C70.5 210.512 66.272 209.697 65.363 212.066ZM116.046 212.014C114.406 213.989 115.122 217.977 117.187 218.37C118.14 218.551 119.605 217.575 120.555 216.125C121.911 214.055 121.997 213.27 120.996 212.064C119.429 210.176 117.587 210.157 116.046 212.014ZM250.413 211.556C248.022 213.947 227.368 220.713 218.311 222.072C212.983 222.872 208.443 223.345 208.221 223.123C207.999 222.901 208.113 221.787 208.475 220.647C209.207 218.341 209.73 218.193 222.5 216.667C227.45 216.076 235.55 214.525 240.5 213.221C251.419 210.345 251.666 210.303 250.413 211.556ZM86.701 215.201C86.316 215.587 86 216.984 86 218.305C86 220.225 86.452 220.644 88.25 220.389C89.894 220.155 90.5 219.4 90.5 217.583C90.5 215.169 88.185 213.718 86.701 215.201ZM135.25 217.231C133.209 218.055 133.755 222.356 135.991 223.066C137.086 223.414 138.436 223.417 138.991 223.075C140.37 222.223 140.262 219.231 138.8 217.769C137.521 216.49 137.205 216.442 135.25 217.231ZM117.193 236.569C117.662 236.569 117.379 237.587 116.563 238.832C115.748 240.077 114.571 243.472 113.948 246.378C112.589 252.713 111.027 252.176 108.476 244.498C107.578 241.793 106.249 239.24 105.523 238.825C104.43 238.199 103.338 229.851 103.876 226.235C103.944 225.776 106.777 227.914 110.17 230.985C113.564 234.056 116.725 236.569 117.193 236.569ZM152.362 227.069C151.569 229.133 152.644 231.569 154.346 231.569C156.348 231.569 158.33 228.871 157.643 227.082C156.894 225.128 153.11 225.119 152.362 227.069ZM235.312 231.157C248.867 235.62 262.429 249.307 267.876 264.02C271.436 273.637 271.432 273.569 268.502 273.569C263.074 273.569 259 278.264 259 284.519C259 287.346 258.74 287.569 255.452 287.569C250.077 287.569 245.032 294.33 245.006 301.569C245.002 302.442 244.059 303.09 242.75 303.118C241.513 303.145 239.427 303.532 238.115 303.978L235.73 304.789L236.191 296.929C236.841 285.815 240.383 278.311 248.61 270.615C253.116 266.4 256.299 264.318 259.713 263.354C263.348 262.327 264.5 261.529 264.5 260.036C264.5 258.58 263.716 257.992 261.482 257.773C256.832 257.317 251.681 260 244.737 266.496C233.011 277.465 229.693 287.304 230.192 309.618L230.5 323.358L227.45 327.214C222.251 333.785 209.778 338.623 205.329 335.794C204.685 335.384 203.857 333.849 203.489 332.383C203.121 330.916 201.969 328.946 200.929 328.005C198.388 325.705 196.45 327.356 195.623 332.525C195.002 336.411 194.966 336.438 191.248 335.859C186.375 335.1 183 333.835 183 332.768C183 332.3 184.184 330.827 185.631 329.493C189.292 326.121 193.782 316.287 194.449 310.181C194.756 307.369 195.444 297.644 195.978 288.569C197.39 264.571 201.81 250.566 210.699 241.928C213.965 238.753 215.996 237.608 218.773 237.377C223.156 237.013 224.329 234.351 220.913 232.522C214.92 229.315 204.26 237.552 198.472 249.863C192.952 261.604 191.068 270.963 190.063 291.641C189.039 312.694 187.641 318.462 182.033 324.782C177.31 330.104 175.218 329.184 172.694 320.678C170.431 313.053 170.359 305.583 172.435 294.069C173.597 287.63 173.897 282.082 173.489 274.569C172.966 264.946 173.135 263.485 175.513 257.069C176.939 253.219 178.34 249.169 178.625 248.069C178.989 246.667 181.405 245.215 186.704 243.212C192.548 241.004 195.538 239.104 199.882 234.84C203.941 230.854 206.401 229.233 208.747 228.995C216.497 228.208 228.538 226.363 228.998 225.892C229.274 225.61 229.64 226.295 229.812 227.414C230.036 228.877 231.583 229.93 235.312 231.157ZM59.505 230.7L59.401 234.831L52.203 237.688C48.243 239.259 43.091 240.828 40.752 241.175C36.574 241.795 36.622 241.743 43.5 238.217C47.35 236.243 52.525 232.834 55 230.641C57.475 228.448 59.524 226.635 59.554 226.612C59.584 226.588 59.562 228.428 59.505 230.7ZM76 228.38C76 230.915 78.3 232.775 80.426 231.959C83.189 230.899 81.974 227.124 78.75 226.753C76.585 226.503 76 226.849 76 228.38ZM99.335 242.753C99.682 247.254 99.79 251.113 99.575 251.328C99.36 251.543 97.568 248.963 95.594 245.594L92.004 239.469L94.752 237.051C96.263 235.721 97.7711 234.618 98.1021 234.601C98.4331 234.583 98.988 238.252 99.335 242.753ZM128.23 242.232C130.578 243.146 132.622 243.98 132.771 244.086C132.92 244.191 132.534 246.644 131.913 249.538C130.803 254.717 130.755 254.769 128.874 252.887C127.067 251.081 122.468 240.569 123.484 240.569C123.745 240.569 125.881 241.317 128.23 242.232ZM89.124 245.819C90.314 248.157 92.302 251.419 93.54 253.069C95.61 255.826 95.707 256.526 94.746 261.725L93.7 267.381L89.451 262.403C85.3691 257.621 79 246.88 79 244.778C79 244.222 80.688 243.319 82.75 242.772C84.813 242.224 86.603 241.729 86.73 241.672C86.856 241.616 87.933 243.481 89.124 245.819ZM145.63 248.819C145.299 250.056 145.021 251.632 145.014 252.319C144.991 254.435 143.383 253.705 142.161 251.022C140.465 247.3 140.704 246.569 143.617 246.569C145.842 246.569 146.143 246.905 145.63 248.819ZM167.072 252.861C166.07 255.771 164.704 261.396 164.035 265.361C163.366 269.325 162.641 272.569 162.424 272.569C162.207 272.569 160.717 269.97 159.113 266.794C156.46 261.538 155.39 258.351 153.581 250.319L152.962 247.569H160.927H168.892L167.072 252.861ZM139.379 257.634C140.375 259.319 142.325 261.215 143.712 261.848C145.874 262.833 146.477 262.699 147.927 260.908C149.594 258.848 149.643 258.886 151.279 263.491C153.401 269.467 160.227 280.058 162.524 280.94C163.603 281.354 165.066 280.927 166.288 279.843C168.272 278.081 168.281 278.125 167.62 286.069C166.766 296.338 164.233 309.597 164.096 304.519C163.907 297.523 159.79 296.66 154.742 302.557L151.329 306.545L150.202 296.229C148.805 283.433 145.295 272.09 140.033 263.365C137.815 259.687 136 256.204 136 255.624C136 253.636 137.569 254.57 139.379 257.634ZM272 281.52C272 285.17 269.886 293.342 268.46 295.209C267.251 296.79 266.895 296.851 266.085 295.617C264.509 293.215 263.805 285.213 264.913 282.298C265.727 280.156 266.601 279.569 268.975 279.569C271.308 279.569 272 280.015 272 281.52ZM260.428 297.062C262.702 299.472 263.378 300.829 262.611 301.441C260.577 303.063 252.813 306.715 252.36 306.263C250.879 304.781 250.901 298.369 252.395 296.088C254.624 292.687 256.519 292.916 260.428 297.062ZM244.852 309.456C245.912 310.128 245.704 310.663 243.893 311.932C241.343 313.718 239.348 312.711 240.336 310.136C240.999 308.407 242.774 308.14 244.852 309.456ZM238 318.51C238 319.028 237.55 319.729 237 320.069C236.45 320.409 236 319.985 236 319.128C236 318.271 236.45 317.569 237 317.569C237.55 317.569 238 317.992 238 318.51ZM231.202 338.125C229.702 342.986 229.015 344.007 227.434 343.729C219.156 342.271 218.113 342.365 215.804 344.778C214.537 346.103 213.003 348.057 212.395 349.122C211.383 350.893 211.107 350.7 209.145 346.853C207.965 344.541 207.003 342.518 207.007 342.359C207.011 342.199 209.111 341.972 211.675 341.854C217.274 341.596 225.457 337.789 229.514 333.554C231.139 331.859 232.596 330.856 232.752 331.326C232.909 331.796 232.212 334.856 231.202 338.125ZM151.958 356.197C151.981 357.917 151.344 359.868 150.543 360.533C149.334 361.536 148.513 360.833 145.724 356.406C142.234 350.864 140.637 347.365 139.054 341.791C138.204 338.796 138.719 339.142 145.02 345.791C150.465 351.537 151.925 353.727 151.958 356.197ZM202.902 347.151C204.365 350.529 206.672 353.742 208.799 355.365L212.292 358.029L209.054 358.692C207.273 359.056 204.057 359.118 201.908 358.83L198 358.306V353.062C198 347.207 198.923 341.56 199.875 341.586C200.219 341.595 201.581 344.1 202.902 347.151ZM162.429 350.14C164.657 352.368 164.452 355.569 162.082 355.569C161.027 355.569 159.452 355.842 158.582 356.176C156.71 356.894 156.391 353.576 158.035 350.503C159.29 348.158 160.358 348.07 162.429 350.14ZM224.82 349.437C225.817 350.069 225.371 350.921 222.993 352.921C217.864 357.238 216.577 356.338 218.558 349.819C218.987 348.405 222.824 348.171 224.82 349.437ZM177.285 352.552C177.919 354.976 177.238 355.446 174.228 354.661C172.079 354.101 172.042 353.946 173.546 351.802C175.313 349.284 176.493 349.521 177.285 352.552ZM190.251 354.37C191.629 357.133 191.61 357.165 188.824 356.756C185.896 356.327 185.583 355.819 186.607 353.151C187.501 350.821 188.677 351.214 190.251 354.37Z" fill="#FFC4C4"/>
</svg>
