<svg width="549" height="559" viewBox="0 0 549 559" fill="none" xmlns="http://www.w3.org/2000/svg">
<path fill-rule="evenodd" clip-rule="evenodd" d="M488.541 3.2092C486.405 8.3212 483.865 18.9322 484.522 19.9952C484.85 20.5252 485.96 20.9592 486.989 20.9592C488.472 20.9592 489.461 19.0452 491.763 11.7092C493.703 5.5302 494.35 2.0442 493.711 1.2092C492.048 -0.965795 489.944 -0.151795 488.541 3.2092ZM518.669 6.64023C511.312 18.0942 509.611 21.5022 510.324 23.3612C511.615 26.7252 514.336 24.3752 520.635 14.4592C526.97 4.4872 528.044 0.774221 524.774 0.151221C523.57 -0.0787786 521.724 1.88423 518.669 6.64023ZM530.364 29.2092C524.646 35.3442 520 41.6672 520 43.3122C520 44.3632 520.831 44.9592 522.295 44.9592C525.116 44.9592 538.213 29.6772 537.34 27.4032C536.426 25.0222 533.579 25.7592 530.364 29.2092ZM429.338 33.2092C423.196 40.0822 421.48 44.5272 419.485 58.7362C417.89 70.0892 418.048 69.6782 411.617 79.2462C406.024 87.5682 404.123 93.6582 403.306 105.87C402.84 112.851 402.23 115.729 400.944 117.015C399.296 118.663 397 126.816 397 131.02C397 133.043 389.391 144.959 388.099 144.959C386.578 144.959 373.221 153.525 367 158.489C363.425 161.342 358.413 165.917 355.862 168.655C351.498 173.34 351.079 173.556 348.748 172.335C346.995 171.417 344.787 171.271 341.199 171.838L336.127 172.64L339.392 168.55C348.958 156.564 352.819 143.761 349.852 133.86C348.861 130.553 349 129.318 350.862 124.837C355.433 113.838 354.531 101.921 348.443 92.8752L345.032 87.8052L345.266 75.1322C345.454 64.9422 345.138 61.4192 343.65 57.1512C342.633 54.2312 341.705 49.7122 341.588 47.1092C341.327 41.3132 340.561 39.9592 337.542 39.9592C335.799 39.9592 334.643 41.0442 333.012 44.2092C331.807 46.5472 325.753 53.6342 319.557 59.9592C311.347 68.3412 307.823 72.7112 306.56 76.0782C305.073 80.0452 304.108 81.0342 299.73 83.0782C292.866 86.2832 285.753 93.3902 284.218 98.5752C283.548 100.839 283 105.961 283 109.959V117.226L278.094 122.056C272.391 127.669 269.757 134.396 267.967 147.917C266.973 155.431 265.686 159.959 264.546 159.959C264.334 159.959 261.313 159.228 257.831 158.335C253.366 157.19 249.401 156.888 244.376 157.312L237.251 157.912L236.574 152.804C235.697 146.194 231.083 137.117 226.597 133.178C224.147 131.027 221.235 129.712 217.131 128.905C211.605 127.818 211.084 127.472 209.425 123.793C207.321 119.128 197.084 109.329 192.046 107.158C190.096 106.318 185.35 105.367 181.5 105.045L174.5 104.459L171.958 99.7452C168.256 92.8812 165.554 90.4292 159.093 88.0732C155.926 86.9182 150.57 84.1182 147.192 81.8492C138.769 76.1932 134.791 77.9922 140.56 84.8482C143.619 88.4832 144.996 92.8452 145.012 98.9522C145.018 101.431 145.673 105.897 146.465 108.876C148.2 115.393 147.248 121.141 142.918 130.297C138.028 140.636 138.128 147.972 143.259 155.282C144.87 157.578 145.125 159.073 144.623 163.282C142.872 177.956 142.808 179.848 143.946 183.295C144.648 185.423 147.958 189.754 151.95 193.77C160.685 202.557 161.135 203.96 156.773 208.788C152.488 213.531 148.379 219.606 143.597 228.267C138.92 236.736 135.008 241.253 130.494 243.395C126.249 245.409 125.976 247.927 129.5 252.548C130.875 254.351 132 255.999 132 256.211C132 256.423 126.712 256.566 120.25 256.528C105.806 256.443 102.449 257.119 96.101 261.391C91.215 264.679 90.848 264.758 78.805 265.114C67.519 265.447 65.957 265.734 59.936 268.579C56.059 270.41 50.643 274.233 46.707 277.914C40.785 283.454 39.064 284.452 31.239 286.885C26.396 288.39 19.198 291.322 15.243 293.401C8.06898 297.17 0 304.582 0 307.401C0 309.293 3.08099 310.959 6.58099 310.959C8.07299 310.959 13.522 312.314 18.691 313.969C28.593 317.141 38.365 318.906 46.209 318.939C50.505 318.957 51.556 319.497 58.209 325.097C66.952 332.458 71.925 334.908 78.185 334.937C84.284 334.966 86.467 335.868 92.495 340.851C97.601 345.072 102.661 347.372 109.163 348.424L112.825 349.017L109.892 354.738C108.279 357.885 106.486 363.183 105.907 366.512C104.888 372.38 104.665 372.707 98.62 377.181C95.191 379.719 91.061 383.71 89.443 386.049C86.639 390.1 86.5 390.802 86.5 400.88V411.459L82.775 416.544C73.817 428.772 69.436 444.35 73.838 448.32C75.77 450.061 76.192 450.082 80.415 448.643C82.897 447.797 89.332 444.582 94.714 441.499C108.297 433.719 111.825 432.849 128.607 433.146C145.182 433.44 146.919 432.873 156.384 424.067C163.384 417.555 163.925 417.333 174.616 416.591C183.5 415.975 187.648 414.27 192.606 409.197C197.584 404.104 199.193 403.32 206.5 402.431C215.589 401.325 220.542 398.359 226.631 390.376L229.409 386.734L231.699 389.597C232.959 391.171 233.992 392.868 233.995 393.368C233.998 393.868 232.239 396.61 230.086 399.461C227.933 402.313 225.249 406.367 224.122 408.47C221.658 413.067 219.611 422.274 220.376 425.321C220.811 427.054 219.851 428.446 215.836 431.905C208.065 438.598 201.029 455.184 200.982 466.919C200.968 470.263 200.196 472.591 198.051 475.756C194.396 481.15 192 491.477 192 501.841C192 510.606 193.144 514.959 195.446 514.959C196.268 514.959 199.092 512.933 201.721 510.457C204.349 507.981 211 503.648 216.5 500.826C222 498.005 227.179 495.11 228.008 494.392C228.838 493.674 232.692 492.424 236.572 491.615C246.684 489.507 252.621 486.384 259.814 479.389C265.142 474.207 266.993 473.055 271.67 472.008C279.207 470.322 282.934 468.656 288.251 464.597L292.763 461.153L293.887 469.915C294.505 474.734 295.927 481.328 297.047 484.568C301.136 496.397 305.179 513.657 305.715 521.573C306.44 532.268 304.887 538.334 299.424 546.156C294.471 553.247 294.138 554.777 297.011 557.237C299.594 559.448 300.478 559.405 303.867 556.899C305.479 555.707 309.573 554.394 313.577 553.785C327.788 551.62 330.862 550.798 335.326 547.967C341.924 543.783 345.5 537.942 345.5 531.348C345.5 526.898 345.05 525.621 342.574 523.036C340.965 521.356 338.891 519.742 337.967 519.448C336.664 519.035 336.159 517.248 335.726 511.52C335.046 502.53 332.821 497.254 325.93 488.297C318.835 479.075 314.262 468.975 313.408 460.642C312.418 450.978 314.164 445.751 320.497 439.418C323.313 436.603 326.162 432.982 326.829 431.373L328.041 428.446L336.264 428.819C343.284 429.138 344.799 429.529 346.617 431.491C350.259 435.42 356.7 438.012 365.244 438.987C372.526 439.817 373.739 440.268 376.935 443.33C381.322 447.534 386.255 450.009 396 452.894C400.125 454.116 405.922 456.467 408.882 458.12C413.795 460.863 414.401 460.987 415.849 459.538C417.142 458.245 417.226 457.444 416.302 455.205C415.678 453.695 414.035 449.759 412.65 446.459C411.265 443.159 409.618 436.409 408.99 431.459C408.097 424.419 407.177 421.37 404.764 417.459C402.093 413.13 401.585 411.16 400.974 402.777C400.247 392.789 400.196 392.655 392.803 381.107C391.87 379.649 390.802 375.484 390.43 371.85L389.753 365.244L397.126 365.713C401.715 366.005 407.801 365.562 413.241 364.54C421.366 363.014 422.384 363.015 427.693 364.558C434.726 366.603 445.448 365.936 452.925 362.988C457.406 361.223 459.458 361.052 469.764 361.587C478.426 362.037 483.923 361.772 490.75 360.578C495.838 359.687 501.785 358.959 503.965 358.959C510.513 358.959 511.528 354.462 506.091 349.542C504.94 348.5 502.344 344.68 500.323 341.053C495.846 333.019 486.34 322.867 481.068 320.49C477.825 319.027 477.004 318.033 476.111 314.486C474.833 309.409 467.809 299.56 462.687 295.663C457.732 291.893 451.159 289.008 447.462 288.981C445.085 288.964 442.963 287.533 437.705 282.403C428.673 273.59 420.823 269.903 409.71 269.252C405.194 268.987 399.615 269.209 397.311 269.745C393.919 270.534 393.015 270.441 392.561 269.257C391.519 266.542 391.987 265.994 397.909 263.005C409.754 257.026 420.961 243.798 420.99 235.764C420.999 233.442 421.989 232.548 428.129 229.322C440.755 222.687 449.715 212.486 451.534 202.674C452.034 199.978 453.008 198.489 454.92 197.5C462.059 193.808 472.541 177.534 471.821 171.258C471.54 168.807 471.127 168.495 468.5 168.75C454.997 170.062 447.199 170.003 437.726 168.518C425.702 166.632 422.938 167.012 408.946 172.48C400.887 175.629 399.069 175.963 389.772 176.003C383.843 176.028 377.915 176.613 375.75 177.385C373.688 178.121 372 178.364 372 177.924C372 176.973 380.727 166.227 387.66 158.641C392.334 153.527 392.899 153.215 398.306 152.767C402.152 152.448 404.747 151.628 406.258 150.255C407.746 148.902 410.467 148.026 414.353 147.65C417.93 147.303 420.982 146.38 422.201 145.277C423.925 143.717 426.114 143.471 438.348 143.465L452.5 143.459L459.284 139.709C465.263 136.405 466.88 135.959 472.895 135.959C480.085 135.959 482.954 134.673 490.524 128.059C492.187 126.606 497.245 123.494 501.763 121.143C510.161 116.774 512.525 114.427 511.006 111.969C510.287 110.805 508.994 110.871 502.826 112.388C497.67 113.657 494.541 113.934 492.261 113.325L489.023 112.459L494.377 108.318C503.402 101.339 507.861 93.9032 507.956 85.6742C507.984 83.2612 509.421 79.2072 511.92 74.4902C516.384 66.0642 517.779 58.5642 516.064 52.1992C514.259 45.4942 512.205 44.1992 506.873 46.4062C505.593 46.9352 505.093 46.2682 504.534 43.2872C503.518 37.8742 502.132 35.6912 500.056 36.2342C499.082 36.4892 497.602 36.3162 496.768 35.8492C495.704 35.2542 494.342 35.8712 492.195 37.9232C488.497 41.4572 484.71 42.5161 470.995 43.8521C454.698 45.4391 446.906 48.9052 438.183 58.4492L433.1 64.0102L432.42 60.3862C431.295 54.3862 432.689 46.0042 435.886 39.5542C438.073 35.1412 438.593 33.1733 437.817 32.2383C436.13 30.2063 431.553 30.7302 429.338 33.2092ZM499.5 53.7593C499.5 62.2633 499.119 65.1772 497.642 67.9592C495.793 71.4442 487.193 80.9592 485.892 80.9592C485.517 80.9592 486.1 78.1472 487.187 74.7092C488.742 69.7952 489.052 66.7492 488.636 60.4592C488.344 56.0592 487.805 51.2222 487.437 49.7092C486.936 47.6542 487.138 46.9592 488.235 46.9592C489.042 46.9592 491.457 45.6632 493.601 44.0792C496.063 42.2602 497.869 41.5412 498.5 42.1282C499.05 42.6402 499.5 47.8733 499.5 53.7593ZM482.108 53.2092C485.692 66.0652 481.147 81.0292 472.056 86.3012L468.88 88.1432L469.52 81.8012C469.872 78.3132 470.605 72.8122 471.148 69.5772C472.805 59.7102 469.347 59.1393 464.112 68.4153C460.199 75.3473 454.454 79.2402 444.944 81.4032C441.183 82.2592 437.675 82.9592 437.149 82.9592C436.623 82.9592 436.019 80.5972 435.805 77.7092C435.479 73.2902 435.873 71.7082 438.291 67.7142C445.676 55.5222 457.786 49.5722 476.211 49.0842L480.923 48.9592L482.108 53.2092ZM538.517 51.4182C531.166 53.8742 528.661 56.0202 530.732 58.0912C532.217 59.5762 543.937 56.6402 547.257 53.9522C549.12 52.4432 549.241 51.9552 548.095 50.5742C546.472 48.6182 547.055 48.5662 538.517 51.4182ZM338.034 58.5602C340.04 64.5882 340.168 66.3172 339.517 78.4732C338.829 91.3282 338.876 91.8223 340.899 92.9053C347.026 96.1843 349.785 111.258 346.061 121.118C344.886 124.23 343.266 127.323 342.462 127.99C340.349 129.744 340.667 132.71 343.108 134.017C344.996 135.027 345.176 135.844 344.835 141.868C344.369 150.126 339.961 159.763 333.859 165.865C328.79 170.934 326.69 171.504 318.67 169.991C310.089 168.372 309.631 168.007 311.493 164.274C316.281 154.676 319.494 131.095 317.911 117.166C316.798 107.37 316.626 106.954 313.691 106.974C310.251 106.998 309.466 108.045 308.079 114.459C304.809 129.591 293.642 156.957 287.758 164.262C286.516 165.803 282.8 168.163 279.5 169.507C272.322 172.429 272 172.458 272 170.182C272 169.204 271.307 167.415 270.461 166.206C269.075 164.228 269.075 163.774 270.461 161.659C271.307 160.367 272.677 154.781 273.505 149.246C275.863 133.474 279.045 126.426 284.902 124C288.799 122.385 289.222 121.04 289.049 110.794C288.956 105.31 289.417 100.898 290.303 98.7752C291.866 95.0352 296.777 90.8932 302.629 88.3792C304.758 87.4652 307.089 86.4332 307.808 86.0882C308.527 85.7422 310.202 82.7792 311.53 79.5042C313.482 74.6872 316.002 71.4832 324.705 62.7542C330.623 56.8172 335.549 51.9592 335.651 51.9592C335.753 51.9592 336.825 54.9302 338.034 58.5602ZM510.429 59.1412C510.368 64.7052 509.825 66.5802 506.602 72.3442C503.968 77.0532 502.677 80.7652 502.284 84.7602C501.336 94.3992 497.165 100.257 486.723 106.617C481.643 109.712 480.587 110.011 477.963 109.096C473.032 107.377 463.719 106.701 460.75 107.848C459.005 108.521 458 109.649 458 110.934C458 112.755 458.641 112.959 464.368 112.959C468.688 112.959 473.591 113.892 479.618 115.861C484.503 117.457 489.331 118.92 490.346 119.111C491.74 119.374 490.519 120.798 485.346 124.939C477.941 130.867 475.846 131.374 465.828 129.659C461.403 128.902 461.086 129.002 459.828 131.548C457.616 136.025 451.346 137.838 437.858 137.903L426.217 137.959L425.54 135.209C424.291 130.132 419.934 123.953 414.697 119.829C411.839 117.578 409.155 115.138 408.734 114.407C407.642 112.513 409.711 95.7502 411.66 90.7032C412.561 88.3692 415.101 84.0232 417.305 81.0462C421.673 75.1432 424.942 66.1632 425.102 59.6202C425.201 55.6062 425.234 55.5652 426.045 58.4592C428.433 66.9832 431 79.2722 431 82.1792C431 87.3932 429.382 91.7332 424.838 98.7082C421.46 103.892 420.6 106.126 420.555 109.827C420.508 113.777 420.788 114.459 422.456 114.459C423.878 114.459 424.729 113.367 425.572 110.459C426.209 108.259 428.587 103.534 430.856 99.9592C433.125 96.3842 434.985 92.6982 434.99 91.7682C435.003 89.5252 435.462 89.3062 443.793 87.5692C451.068 86.0532 457.584 83.4262 461.896 80.2732L464.293 78.5212L463.548 83.4902C462.662 89.3962 461.923 90.9232 456.839 97.3592C454.71 100.055 452.254 104.717 451.381 107.721C449.197 115.233 444.187 120.515 435.366 124.605C427.898 128.067 426.135 129.996 428.581 132.027C430.914 133.962 442.164 128.656 448.698 122.538C452.994 118.516 454.595 116.107 456.393 110.959C457.641 107.384 460.387 102.151 462.495 99.3292C465.938 94.7202 466.894 94.0802 471.914 93.0172C479.805 91.3452 487.372 87.3862 493.661 81.6382C500.899 75.0232 503.665 70.0041 505.065 60.9511C506.171 53.7951 507.303 51.5942 509.5 52.3242C510.05 52.5072 510.468 55.5742 510.429 59.1412ZM156.536 93.2693C160.745 94.8993 163.088 96.5111 164.5 98.7481C172.197 110.944 174.42 113.959 175.716 113.959C176.525 113.959 177.423 113.059 177.71 111.959C178.342 109.542 179.991 109.47 187.005 111.553C194.026 113.638 204.474 123.64 205.534 129.289C205.913 131.308 206.51 132.994 206.861 133.036C207.213 133.078 209.502 133.335 211.948 133.605C221.086 134.617 225.74 138.394 229.349 147.729C231.787 154.035 231.552 158.578 228.75 159.329C224.093 160.577 212.368 159.94 207.328 158.165C201.725 156.192 193.242 147.835 185.21 136.377C179.131 127.706 170.512 122.112 165.262 123.429C161.723 124.318 162.575 127.092 167.758 131.556C174.136 137.048 177.489 143.586 181.04 157.453C184.43 170.688 186.04 174.936 189.656 180.172L192.22 183.884L188.674 188.027C186.724 190.305 184.423 193.655 183.562 195.47C182.474 197.763 181.462 198.638 180.248 198.335C178.628 197.931 170.674 199.744 166.84 201.391C165.657 201.899 164.984 201.483 164.494 199.941C164.117 198.752 160.718 194.652 156.94 190.829C148.543 182.332 147.749 179.991 149.648 169.35C151.291 160.143 150.817 156.252 147.449 151.289C143.99 146.191 144.272 141.427 148.614 131.621C153.031 121.646 153.944 113.859 151.615 106.027C150.26 101.471 149.333 90.9592 150.286 90.9592C150.444 90.9592 153.256 91.9983 156.536 93.2693ZM410.783 123.917C414.731 126.777 420 134.238 420 136.968C420 141.826 410.153 144.059 407.91 139.709C407.272 138.472 405.842 136.461 404.732 135.242C403.055 133.4 402.815 132.17 403.312 127.968C404.274 119.847 404.784 119.571 410.783 123.917ZM312.609 131.792C311.423 149.004 306.025 166.959 302.036 166.959C301.054 166.959 298.899 166.689 297.247 166.358L294.244 165.758L299.004 156.108C303.549 146.893 310.066 130.556 311.529 124.709C312.865 119.367 313.278 122.074 312.609 131.792ZM401.926 140.37C402.796 141.418 402.805 141.962 401.961 142.483C401.337 142.869 401.048 144.034 401.319 145.072C401.733 146.654 401.251 146.959 398.342 146.959H394.872L397.12 142.959C399.58 138.583 400.176 138.261 401.926 140.37ZM196.685 159.959C197.683 161.884 199.1 163.93 199.833 164.506C201.542 165.849 200.561 171.508 197.844 175.975L195.867 179.227L193.437 175.652C192.101 173.686 189.868 167.888 188.475 162.768C187.082 157.648 185.314 151.296 184.545 148.653L183.148 143.847L189.009 150.153C192.232 153.621 195.686 158.034 196.685 159.959ZM378.849 160.038C370.106 169.974 364.919 177.114 364.34 180.011C364.04 181.509 362.517 183.679 360.956 184.833L358.117 186.932L356.059 184.041C354.926 182.451 354 180.683 354 180.112C354 177.001 379.819 154.001 383.349 153.967C383.816 153.963 381.791 156.694 378.849 160.038ZM257.421 164.059C259.578 164.658 262.678 166.483 264.31 168.115L267.277 171.083L266.744 181.771C266.395 188.742 265.654 193.502 264.611 195.459C263.732 197.109 263.008 199.584 263.003 200.959C262.994 203.229 262.327 203.623 255.746 205.247C251.761 206.23 245.664 208.355 242.198 209.968C234.555 213.527 224.868 222.799 223.055 228.292C222.245 230.747 221.328 231.915 220.471 231.586C219.74 231.306 217.535 230.775 215.571 230.406C212.444 229.82 212 229.373 212 226.814C212 223.36 208.244 215.591 204.32 210.928C201.823 207.96 191.747 200.708 188.717 199.698C187.235 199.204 189.488 195.682 196.803 187.058C203.324 179.371 205.949 173.949 205.978 168.102C205.997 164.35 206.243 163.845 207.75 164.463C211.283 165.912 222.727 165.995 231 164.63C241.654 162.874 252.322 162.643 257.421 164.059ZM312.767 174.593C320.666 176.366 328.071 177.31 335.428 177.481L346.356 177.734L349.273 183.502C351.302 187.515 355.492 192.509 363.051 199.921C375.25 211.884 378.973 218.032 378.99 226.241C379 231.16 377.066 237.182 375.083 238.408C374.466 238.789 371.268 238.169 367.977 237.03C360.621 234.484 350.236 234.311 343.104 236.615C340.284 237.525 337.785 238.078 337.55 237.843C337.07 237.363 336.758 228.759 336.977 222.028C337.148 216.744 334.538 212.608 330.745 212.152C329.029 211.945 327.993 211.067 327.595 209.482C326.716 205.981 318.899 198.653 314.414 197.126C312.261 196.393 309.108 195.168 307.408 194.404C305.707 193.64 303.007 192.931 301.408 192.828C296.576 192.518 287.321 194.93 283.565 197.479L280.03 199.879L276.847 195.919C275.097 193.741 273.155 191.959 272.531 191.959C270.867 191.959 273.01 179.802 274.96 178.175C278.687 175.066 288.519 172.171 295.767 172.048C298.664 171.999 306.314 173.144 312.767 174.593ZM444 174.976C449.225 175.626 456.088 175.896 459.25 175.574C462.412 175.253 465 175.226 465 175.514C465 175.803 464.097 177.808 462.994 179.971C460.326 185.2 455.443 190.654 450.811 193.578C448.472 195.055 446.802 197.005 446.419 198.71C444.455 207.428 443.581 209.256 438.956 214.317C434.38 219.324 430.55 221.708 417.002 227.981C416.033 228.429 415.462 230.235 415.385 233.096C415.226 238.981 412.258 244.508 406.227 250.149C402.165 253.949 392.579 259.959 390.58 259.959C390.312 259.959 389.164 257.857 388.028 255.289C386.891 252.72 384.39 248.7 382.469 246.355C380.196 243.582 379.365 241.852 380.09 241.404C380.703 241.025 381.818 239.247 382.567 237.452C383.51 235.196 385.637 233.226 389.462 231.067C393.207 228.954 396.044 226.354 398.247 223.018C400.46 219.666 403.418 216.962 407.5 214.561C415.376 209.927 424 202.285 424 199.94C424 196.765 422.079 196.65 415.83 199.455C412.517 200.942 405.462 203.029 400.153 204.092C394.844 205.156 388.3 207.147 385.611 208.517L380.722 211.007L379.225 208.733C378.401 207.482 374.18 202.967 369.845 198.699L361.963 190.938L366.732 187.913C374.851 182.761 383.14 180.733 392.832 181.527C398.165 181.964 401.944 181.82 403.332 181.129C406.941 179.331 413.192 176.821 419 174.837C424.813 172.853 427.05 172.865 444 174.976ZM274.325 201.897C282.441 210.88 290.407 233.965 285.388 233.955C282.351 233.949 277.041 230.188 275.863 227.209C275.113 225.31 275.077 222.602 275.748 218.459L276.72 212.459L272.86 208.863C269.741 205.956 269 204.565 269 201.613C269 199.603 269.398 197.959 269.884 197.959C270.37 197.959 272.368 199.731 274.325 201.897ZM290.566 203.139C288.501 208.051 290.214 211.498 296.478 215.033C304.51 219.567 305.595 221.125 304.027 225.878C302.896 229.304 302.203 229.922 298.425 230.873C296.054 231.471 293.884 231.959 293.602 231.959C293.321 231.959 292.808 230.272 292.462 228.209C291.528 222.637 289.027 215.066 286.362 209.742C285.063 207.148 284 204.779 284 204.478C284 203.836 290.17 199.968 291.202 199.963C291.588 199.961 291.302 201.39 290.566 203.139ZM315.549 204.087C317.49 205.392 320.375 208.546 321.96 211.097L324.844 215.735L322.172 218.245C316.892 223.206 308.68 227.904 310.535 224.902C312.6 221.562 307.073 214.043 299.87 210.393C297.191 209.036 295 207.236 295 206.393C295 205.551 296.913 203.968 299.25 202.877C304.594 200.382 310.713 200.837 315.549 204.087ZM189.968 206.942C195.769 209.902 202.691 217.072 205.042 222.558C206.119 225.07 207 227.454 207 227.856C207 228.258 204.271 228.389 200.936 228.148L194.873 227.709L195.186 232.004C195.49 236.156 195.657 236.35 200.256 237.883C202.872 238.755 206.549 240.695 208.428 242.194L211.844 244.92L211.697 255.689C211.616 261.613 212.16 269.648 212.906 273.546L214.262 280.634L209.189 285.379C201.466 292.603 196.14 296.462 189 300.008C185.425 301.783 181.079 304.29 179.343 305.578C176.587 307.621 175.78 307.778 173.002 306.81C170.639 305.986 167.527 306.013 160.933 306.914C151.076 308.261 147.053 307.78 144.489 304.947C142.574 302.83 142.663 301.3 145.477 287.996C148.206 275.098 146.032 265.871 137.409 253.746L134.056 249.033L139.336 243.746C142.385 240.693 146.99 234.234 150.234 228.459C157.555 215.429 161.654 210.796 169.269 206.944C174.554 204.271 176.278 203.868 180.622 204.29C183.44 204.564 187.645 205.758 189.968 206.942ZM267.363 211.985C269.917 214.691 270.149 215.48 269.556 219.431C269.192 221.862 269.374 225.634 269.961 227.813C271.205 232.433 276.701 237.749 281.155 238.64C283.574 239.124 284.052 239.642 283.649 241.349C283.376 242.509 282.842 246.48 282.463 250.172C281.355 260.98 281.307 260.991 268 253.351C253.831 245.217 236.758 236.568 231.75 234.987C229.651 234.325 228 233.156 228 232.332C228 227.896 235.376 219.883 243.205 215.813C247.062 213.808 260.972 209.148 263.503 209.013C264.055 208.983 265.792 210.321 267.363 211.985ZM400.336 212.187C398.611 213.412 395.711 216.597 393.89 219.265C392.07 221.932 389.437 224.715 388.04 225.448C385.517 226.772 385.493 226.746 384.494 221.62C383.585 216.959 383.682 216.315 385.494 214.973C388.303 212.894 396.918 210.031 400.486 209.992L403.472 209.959L400.336 212.187ZM331.066 225.131C329.899 229.029 329.091 229.641 322.525 231.601C319.982 232.361 319.441 233.141 318.8 236.974C318.296 239.989 317.16 242.235 315.334 243.826C312.925 245.925 312.045 246.107 307.559 245.439C304.776 245.024 299.35 244.409 295.5 244.072L288.5 243.459L291.013 240.901C292.592 239.293 296.862 237.303 302.504 235.543C311.906 232.612 322.282 226.596 327.452 221.079C330.02 218.338 330.523 218.142 331.322 219.57C331.903 220.608 331.809 222.654 331.066 225.131ZM218.562 236.995C233.795 240.901 243.609 245.696 282 267.987C293.343 274.573 303.664 282.492 311.853 290.892C320.938 300.212 326.458 306.834 325.741 307.552C325.443 307.85 322.972 306.965 320.251 305.586C317.53 304.207 311.554 302.122 306.972 300.952C295.747 298.086 293.479 296.744 289.577 290.661C284.119 282.153 283.33 281.708 275.827 282.907C264.67 284.689 260.019 282.33 254.688 272.185C250.464 264.147 248.494 262.065 246.758 263.801C244.025 266.534 234.052 264.19 229.138 259.661C227.824 258.45 224.397 253.834 221.523 249.404C218.648 244.974 214.552 239.911 212.42 238.154C207.855 234.391 208.173 234.331 218.562 236.995ZM334.002 247.959C337.985 263.399 338.812 274.88 336.615 284.218C335.2 290.23 330.666 300.959 329.54 300.959C329.305 300.959 326.737 298.371 323.832 295.209C313.315 283.757 304.31 275.741 294.71 269.284C289.325 265.662 285.142 262.195 285.414 261.579C285.686 260.963 286.484 258.504 287.187 256.114C289.152 249.437 292.326 248.199 301.77 250.425C306.097 251.445 310.526 251.895 312.532 251.519C317.219 250.64 321.54 246.731 323.5 241.598C324.626 238.649 325.987 236.982 327.822 236.301C329.295 235.755 330.563 235.342 330.639 235.384C330.716 235.425 332.229 241.084 334.002 247.959ZM362.725 241.374C371.669 243.755 378.338 248.808 382.007 255.982C382.998 257.92 385.247 264.442 387.005 270.476C390.716 283.214 391.888 285.722 396.534 290.865L399.956 294.653L396.259 297.056C391.285 300.289 387.982 305.619 383.987 316.86C380.384 326.998 374.807 336.252 369.697 340.575C362.085 347.013 349.402 350.403 337.5 349.179C330.628 348.472 330.495 348.404 330.243 345.459C329.807 340.365 328.011 334.724 324.777 328.293L321.677 322.128L324.685 319.121L327.692 316.113L333.327 320.536C336.427 322.969 339.657 324.959 340.506 324.959C341.355 324.959 342.523 323.722 343.101 322.209C344.313 319.042 343.818 317.996 337.64 310.656L333.597 305.852L336.712 300.156C338.425 297.023 340.622 291.759 341.593 288.459C343.88 280.691 343.979 263.793 341.787 255.459C338.586 243.29 338.432 244.301 343.751 242.603C353.097 239.62 355.542 239.461 362.725 241.374ZM225.135 263.152C230.223 268.19 236.997 270.959 244.233 270.959C247.762 270.959 248.238 271.288 249.649 274.709C253.711 284.552 260.169 288.9 270.782 288.937C278.472 288.964 283.392 290.888 285.339 294.63C288.505 300.718 293.456 303.63 305.319 306.381C314.204 308.441 322.132 312.451 321.35 314.488C320.552 316.569 305.978 323.446 298 325.506C280.46 330.035 251.866 322.511 238.47 309.842C232.427 304.127 225.311 293.455 222.139 285.347C219.346 278.212 216.99 266.123 217.052 259.251C217.104 253.522 217.123 253.486 218.751 255.959C219.656 257.334 222.529 260.571 225.135 263.152ZM132.449 262.775C138.135 263.785 140.404 268.016 140.459 277.714L140.5 285.07L122.5 285.336C107.445 285.56 102.38 286.049 91.544 288.325C78.676 291.029 70.899 293.696 69.559 295.864C69.174 296.486 69.71 298.163 70.75 299.59C72.62 302.158 72.771 302.184 85.07 302.043C91.907 301.965 106.5 302.587 117.5 303.424C136.948 304.905 137.551 305.017 139.354 307.481C143.333 312.921 148.458 313.978 163.606 312.484C172.45 311.612 173.509 312.084 172.422 316.413C171.842 318.727 171.314 318.96 166.642 318.967C159.255 318.977 149.196 320.779 144.213 322.983C137.639 325.891 132.858 330.342 128.927 337.213L125.354 343.459L116.445 343.153C106.299 342.805 101.818 341.21 95.082 335.55C88.514 330.03 85.449 328.707 80.977 329.463C75.86 330.327 70.433 327.833 61.635 320.572C57.86 317.456 53.919 314.451 52.878 313.894C51.837 313.336 46.601 312.727 41.243 312.54C32.088 312.22 27.473 311.158 10.114 305.379C6.23201 304.086 19.15 296.329 30.507 293.132C41.528 290.03 43.079 289.2 49.668 282.873C53.524 279.17 58.457 275.701 62.688 273.715C68.83 270.832 70.435 270.515 79 270.488C84.225 270.472 89.96 270.832 91.745 271.287C94.652 272.03 95.09 271.853 95.952 269.585C96.889 267.122 100.915 264.438 105.994 262.893C109.167 261.928 127.223 261.848 132.449 262.775ZM423.831 278.926C427.535 280.914 432.309 284.677 435.331 287.992C439.862 292.96 441.087 293.737 445.253 294.29C454.342 295.497 462.879 301.777 468.522 311.406C471.155 315.899 471.184 316.105 469.374 317.45C466.603 319.508 468.664 322.1 474.516 323.917C482.372 326.357 489.21 333.344 497.755 347.664C501.395 353.763 502.337 353.103 486.549 355.517C477.295 356.932 474.275 357.008 467.049 356.006C458.866 354.871 458.182 354.931 451.075 357.39C442.332 360.415 433.079 360.774 426.962 358.327C423.225 356.832 422.238 356.826 415.191 358.257C401.591 361.019 399.007 361.147 393.275 359.344C389.213 358.067 387.517 356.926 386.365 354.697C385.525 353.073 382.812 349.719 380.338 347.244L375.838 342.744L379.086 338.702C382.418 334.556 389 322.086 389 319.919C389 319.057 389.935 318.938 392.25 319.505C394.037 319.943 402.025 320.348 410 320.407C425.97 320.523 427.732 321.017 441.996 329.377C449.05 333.511 450.05 333.666 452.466 330.996C454.97 328.229 453.985 326.669 447.326 322.86C444.122 321.027 437.384 315.391 432.353 310.336C425.61 303.56 421.603 300.41 417.103 298.344C413.746 296.803 411 295.186 411 294.751C411 294.315 410.509 293.959 409.909 293.959C407.643 293.959 398.24 284.819 396.472 280.897C393.972 275.352 395.062 274.789 407.5 275.198C416.641 275.5 418.044 275.82 423.831 278.926ZM218.692 291.709C225.325 306.161 236.421 317.717 249.795 324.1C260.979 329.438 279.212 333.375 289.5 332.675C295.311 332.279 307.051 329.018 315 325.591C317.869 324.354 325 340.661 325 348.459C325 353.424 322.242 361.405 319.507 364.357C318.128 365.845 317 367.394 317 367.799C317 368.205 314.638 369.949 311.75 371.676C303.47 376.629 294.335 378.816 277.5 379.877C259.625 381.003 252.393 383.1 245.516 389.154C242.984 391.382 240.769 393.037 240.592 392.832C240.415 392.627 239.734 391.428 239.079 390.169C236.721 385.64 226.003 374.124 218.61 368.177C214.463 364.841 206.459 359.523 200.822 356.359C188.439 349.409 182.899 344.495 179.414 337.372C177.119 332.682 176.831 331.017 177.143 324.23C177.622 313.806 179.51 311.23 190.845 305.536C196.203 302.845 202.547 298.506 207.5 294.145C211.9 290.272 215.728 287.07 216.006 287.031C216.284 286.991 217.493 289.097 218.692 291.709ZM138.625 291.251C138.801 291.427 138.471 293.292 137.89 295.396L136.834 299.22L129.667 298.632C125.725 298.309 113.95 297.481 103.5 296.792L84.5 295.539L94 293.722C110.149 290.633 116.111 290.058 127.402 290.501C133.398 290.737 138.448 291.074 138.625 291.251ZM420.345 306.852C422.832 308.564 425.748 311.2 426.824 312.711L428.781 315.459L412.64 315.104C403.657 314.906 395.242 314.238 393.663 313.597L390.826 312.445L394.163 307.536C395.998 304.836 398.987 301.845 400.805 300.889C404.007 299.206 404.294 299.223 409.967 301.446C413.187 302.708 417.858 305.141 420.345 306.852ZM171.673 330.909C172.295 334.182 173.533 338.321 174.424 340.107C175.824 342.913 175.848 343.465 174.597 344.164C173.802 344.61 169.854 347.462 165.825 350.503C152.011 360.931 140.96 373.128 134.912 384.625C131.21 391.663 131.366 394.348 135.501 394.754C138.013 395.001 139.136 394.29 142.4 390.385C147.492 384.294 159.849 376.404 178.827 367.127L194.154 359.635L198.827 361.898C204.389 364.59 213.621 371.124 220.39 377.158L225.28 381.517L223.674 384.623C221.373 389.072 213.521 395.648 209.732 396.298C207.954 396.604 203.904 397.155 200.732 397.524C195.508 398.131 194.592 398.616 191.034 402.657C185.5 408.945 181.066 410.959 172.756 410.959C164.058 410.959 160.302 412.575 153.152 419.396C144.734 427.424 142.132 428.259 128.094 427.434C111.882 426.481 103.749 428.748 88.595 438.442C85.659 440.32 82.074 442.153 80.628 442.516C78.282 443.105 78 442.889 78 440.503C78 436.672 81.624 428.603 87.157 420.111C92.618 411.733 93.609 408.057 92.196 401.432C90.428 393.141 92.972 388.346 103.157 380.773C106.941 377.958 110.229 374.711 110.461 373.557C110.694 372.403 111.159 369.659 111.495 367.459C111.83 365.259 113.19 361.209 114.517 358.459C116.616 354.107 117.808 353.005 123.714 349.959C129.493 346.978 130.829 345.77 132.719 341.817C138.069 330.625 147.887 325.283 163.521 325.059L170.542 324.959L171.673 330.909ZM375.227 349.995C380.775 354.568 384.877 363.844 385.137 372.401C385.276 376.992 384.95 379.476 384.174 379.734C381.774 380.534 383.084 383.689 386.59 385.552C391.964 388.407 395 394.272 395 401.797C395 407.292 394.784 407.959 393 407.959C389.608 407.959 390.689 411.544 395.144 415.073C400.233 419.103 402.608 424.308 403.536 433.459C403.926 437.309 405.079 442.682 406.099 445.399C407.118 448.117 407.794 450.498 407.6 450.692C407.406 450.886 405.729 450.385 403.874 449.579C402.018 448.773 397.161 447.097 393.079 445.856C385.596 443.579 381.717 440.64 375.253 432.343L373.006 429.459L371.039 431.776C369.3 433.823 368.514 434.013 364.286 433.409C357.074 432.379 350.89 428.628 347.702 423.352C345.58 419.837 344.468 418.895 342.734 419.142C341.324 419.343 340.551 420.105 340.639 421.209C340.755 422.669 339.915 422.959 335.567 422.959C324.364 422.959 316.043 417.684 312.559 408.375C310.222 402.131 309.074 400.699 307.09 401.549C301.322 404.019 292.108 398.463 285.181 388.336L283.045 385.213L289.803 384.547C298.317 383.708 311.612 379.152 316.904 375.261L320.954 372.282L325.776 376.93C328.798 379.843 334.16 383.288 340.148 386.162C345.807 388.879 351.231 392.319 353.46 394.603C357.479 398.723 362.25 405.324 363.309 408.232C364.292 410.93 366.841 411.413 369.136 409.336C370.745 407.88 371.088 406.65 370.697 403.738C369.913 397.894 363.547 386.131 357.016 378.459C351.611 372.111 346 360.979 346 356.605C346 355.856 348.654 354.911 352.702 354.217C356.388 353.586 361.9 351.738 364.952 350.11C368.003 348.483 370.735 347.108 371.022 347.055C371.309 347.002 373.202 348.325 375.227 349.995ZM187.892 355.959C187.936 356.234 181.341 359.69 173.236 363.639C165.131 367.587 155.462 372.868 151.75 375.373C148.038 377.878 145 379.453 145 378.873C145 376.916 164.443 358.296 171.898 353.114L179.295 347.972L183.553 351.715C185.895 353.774 187.848 355.684 187.892 355.959ZM339.203 356.315C339.59 356.925 341.106 360.805 342.572 364.935C345.198 372.332 349.229 379.245 352.5 381.959C353.418 382.721 355.578 385.392 357.3 387.895L360.431 392.446L355.923 388.752C353.444 386.721 347.513 383.264 342.744 381.071C337.149 378.499 332.488 375.499 329.608 372.619L325.144 368.155L327.548 362.307C328.871 359.091 329.963 355.857 329.976 355.121C330.005 353.493 338.078 354.537 339.203 356.315ZM276.757 386.97C276.911 387.789 273.402 392.479 268.959 397.393C258.172 409.324 250.349 421.255 241.287 439.601C234.291 453.763 233.831 455.086 234.672 458.64C236.221 465.189 238.537 463.831 246.917 451.459C255.837 438.289 275.809 417.842 286.771 410.656L294.041 405.889L300.173 407.156C305.726 408.303 306.458 408.754 307.919 411.941C310.713 418.029 313.088 420.873 318.086 424.112C320.866 425.913 322.656 427.725 322.282 428.357C317.725 436.036 311.965 440.27 301 443.999C294.153 446.327 293.491 446.79 293.398 449.315C293.263 452.997 286.076 460.28 279.307 463.595C276.321 465.057 271.517 466.374 268.008 466.692C262.681 467.175 261.728 467.584 260.528 469.904C258.467 473.89 250.446 480.874 245.329 483.137C242.842 484.238 235.826 486.017 229.737 487.093C223.648 488.168 218.291 489.279 217.833 489.562C217.375 489.845 217 490.944 217 492.004C217 493.354 215.217 494.83 211.043 496.937C207.767 498.591 203.477 501.357 201.51 503.085C199.542 504.812 197.643 505.935 197.288 505.58C196.324 504.616 198.845 487.266 200.538 483.213C201.348 481.275 203.583 477.949 205.505 475.822C209.368 471.546 209.629 470.726 207.651 469.084C205.745 467.502 207.278 458.599 211.108 449.015C214.282 441.071 217.255 437.175 222.925 433.535C226.342 431.341 226.351 431.317 226.425 423.358C226.493 416.153 226.822 414.851 229.822 409.92C231.648 406.916 234.26 403.168 235.625 401.591C237.946 398.91 238.192 398.839 239.409 400.504C241.076 402.783 243.445 401.884 245.165 398.319C248.096 392.241 256.518 387.777 268.5 385.95C274.944 384.968 276.415 385.15 276.757 386.97ZM282.005 393.709C282.007 394.121 283.625 396.218 285.598 398.367C288.66 401.7 288.953 402.406 287.593 403.167C279.349 407.781 261.18 424.122 251.69 435.459C248.928 438.759 246.859 441.009 247.092 440.459C251.657 429.698 262.434 413.393 272.66 401.777C279.831 393.632 281.992 391.766 282.005 393.709ZM308.188 458.769C308.577 468.205 309.021 470.398 311.677 476.019C313.35 479.561 317.267 485.987 320.38 490.298C328.556 501.621 329.348 503.465 329.429 511.382L329.5 518.305L326.094 519.201C324.221 519.694 320.283 521.635 317.344 523.516L312 526.934V523.854C312 518.386 308.004 500.804 303.729 487.459C299.854 475.367 299.561 473.657 299.532 462.971L299.5 451.483L303 449.769C304.925 448.826 306.78 448.033 307.122 448.007C307.463 447.981 307.944 452.824 308.188 458.769ZM337.811 525.998C342.534 530.398 339.208 539.369 331.218 543.78C328.539 545.259 323.466 546.599 317.237 547.473C311.859 548.228 306.592 549.178 305.531 549.585C303.691 550.292 303.698 550.191 305.68 547.392C306.823 545.779 308.557 542.209 309.534 539.459C311.029 535.254 312.258 533.823 317.264 530.459C320.538 528.259 324.405 525.917 325.858 525.254C330.018 523.357 335.332 523.688 337.811 525.998Z" fill="#FFC4C4"/>
</svg>
