<svg width="582" height="324" viewBox="0 0 582 324" fill="none" xmlns="http://www.w3.org/2000/svg">
<path fill-rule="evenodd" clip-rule="evenodd" d="M83.5341 1.96289C81.2301 4.50789 82.1071 6.59608 86.2061 8.33008C89.8741 9.88208 91.641 11.719 94.806 17.269C99.031 24.679 99.991 30.465 99.738 47C99.467 64.673 100.559 69.5159 106.604 77.4319C108.522 79.9439 109.929 82 109.729 82C109.53 82 106.814 81.5279 103.693 80.9509C93.615 79.0879 77.9899 82.373 64.7159 89.145C62.4559 90.298 56.329 94.1221 51.101 97.6421C45.872 101.163 39.354 104.708 36.616 105.521C30.18 107.433 16.764 107.416 10.275 105.489C4.76502 103.853 0 104.721 0 107.361C0 109.551 12.1361 120.374 17.3311 122.815C19.8921 124.019 24.128 125.55 26.744 126.218C29.36 126.885 32.702 128.4 34.171 129.585C35.641 130.769 40.591 132.802 45.171 134.101C57.014 137.461 73.879 137.341 90.5 133.778C106.559 130.336 115.047 129.622 124.411 130.924C133.3 132.161 141.536 135.211 149.111 140.071L154.322 143.415L147.677 144.642C138.499 146.335 132.911 149.819 134.843 152.642C136.768 155.457 151.387 163.782 158 165.83C171.626 170.05 181.993 174.264 189.368 178.581C196.711 182.88 205.482 190.791 206.516 194.05C207.134 195.997 209.668 197.323 211.09 196.444C212.971 195.282 211.862 191.351 208.438 187.043C200.931 177.599 185.522 168.748 164.955 162.066C151.494 157.692 141.403 152.142 144.616 150.88C147.503 149.747 153.766 149.873 160.162 151.194C163.342 151.851 166.236 152.097 166.592 151.741C169.385 148.949 158.235 138.224 145.859 131.8C131.092 124.133 115.657 123.091 89.623 128.004C78.555 130.093 70.983 130.964 64.623 130.882C50.109 130.693 46.325 129.13 56.5 127.525C58.7 127.178 67.475 124.915 76 122.497C102.883 114.87 113.39 113.637 127.03 116.506C148.893 121.105 173.57 136.218 204 163.644C224.539 182.155 238.218 188.212 279.459 197.054C301.028 201.679 311.839 205.703 322.707 213.153C329.748 217.979 340.883 222.84 348.898 224.584C353.079 225.494 356.81 226.523 357.188 226.87C358.571 228.136 355.696 237.556 352.978 240.664C347.98 246.381 346.389 255.5 350.391 255.5C352.461 255.5 353.582 253.929 354.44 249.827C354.748 248.357 356.174 245.758 357.61 244.052C359.045 242.346 360.983 238.374 361.915 235.225L363.609 229.5L368.37 229.193C372.854 228.903 373.07 229.001 372.066 230.877C371.48 231.972 371 235.331 371 238.34C371 243.08 370.553 244.346 367.654 247.816C364.526 251.559 364.264 252.451 363.63 261.467C362.921 271.55 363.167 273 365.584 273C367.717 273 369.116 268.442 369.324 260.812C369.481 255.058 369.881 253.732 372.19 251.312C375.65 247.685 376.999 244.007 377.004 238.185C377.01 230.775 379.558 227.566 386.554 226.161C389.733 225.522 393.228 225 394.322 225C396.141 225 396.178 225.149 394.754 226.75C393.035 228.685 391.014 235.201 391.006 238.841C391.003 240.129 389.425 243.022 387.5 245.271C384.204 249.122 384 249.779 384 256.545C384 262.216 383.579 264.266 382 266.273C377.319 272.223 381.538 275.714 386.411 269.923C389.69 266.026 390.407 263.127 389.599 257.034C388.985 252.406 389.146 251.953 392.977 247.526C396.436 243.53 397 242.224 397 238.21C397 234.588 397.728 232.473 400.25 228.773C402.037 226.15 404.206 224.003 405.068 224.002C406.689 224 416.896 226.845 418.284 227.685C418.714 227.946 417.959 229.031 416.605 230.096C413.208 232.768 410.306 237.756 409.444 242.402C409.021 244.682 407.324 247.849 405.36 250.023C402.471 253.221 402 254.458 402 258.849C402 262.348 401.165 265.658 399.349 269.362C396.565 275.037 396.723 278.383 399.747 277.824C402.451 277.324 407.496 266.351 407.498 260.965C407.5 257.317 408.14 255.654 410.774 252.465C412.575 250.284 414.315 246.846 414.64 244.824C415.376 240.251 418.132 235.615 421.379 233.487C423.758 231.929 424.052 232.002 428.99 235.4C437.539 241.28 445.182 241.398 455 235.801C466.702 229.13 471.395 227 474.391 226.999C477.494 226.999 477.499 227.009 477.16 231.908C476.713 238.356 478.917 242.851 484.212 246.284C491.637 251.099 502.752 249.648 508.219 243.151L510.845 240.031L515.994 243.496C525.764 250.071 530.657 250.14 540.583 243.845C546.856 239.867 552.875 237.754 555.828 238.494C558.348 239.125 568 245.977 568 247.135C568 248.622 558.573 257.181 554.63 259.274C548.763 262.388 539.116 262.073 520.428 258.158C508.125 255.58 503.072 255.003 492.928 255.017C479.956 255.035 469.692 256.642 463.27 259.658C455.247 263.427 443.993 277.772 444.004 284.217C444.01 287.881 447.603 292.757 451.921 294.96C458.032 298.077 466.456 297.678 480.659 293.598C500.005 288.041 508.524 286.781 511.981 288.967C513.254 289.772 513.171 290.297 511.388 292.702C505.879 300.135 496.776 304.581 480.122 307.975C461.875 311.694 449.183 310.77 419.5 303.562C411.8 301.693 402.575 299.902 399 299.582C389.048 298.693 378.751 296.132 374.414 293.467C370.59 291.118 370.563 291.062 373.25 291.031C375.306 291.008 376 290.504 376 289.035C376 285.989 372.883 284.881 367.334 285.956C356.88 287.982 347.373 292.113 335.5 299.789C315.104 312.976 291.484 318.876 263.638 317.739C249.058 317.143 239.162 314.638 227 308.464C215.978 302.868 215.816 302.573 223.024 301.233C233.593 299.267 240.525 295.276 252 284.548C268.772 268.869 279.98 261.9 293.112 258.988C299.988 257.463 321.053 258.182 325.736 260.102C328.313 261.158 329.225 261.175 330.214 260.186C332.077 258.323 330.018 255.745 325.402 254.16C320.21 252.377 302.812 251.534 296.273 252.748C291.591 253.617 290.985 253.527 290.462 251.882C290.112 250.778 288.206 249.595 285.69 248.918C275.657 246.219 268.898 242.167 261.539 234.442L254.329 226.872L246.069 228.546C240.453 229.684 234.555 230.099 227.644 229.843C218.139 229.492 216.96 229.207 209.489 225.46C201.726 221.566 185.078 210.221 185.026 208.789C184.977 207.443 195.223 205.045 205.489 204.001C217.634 202.766 231.305 203.984 239.271 207.012C245.638 209.432 246.606 209.469 247.43 207.322C248.351 204.923 246.394 203.447 239 200.967C226.151 196.658 200.301 197.233 185.148 202.164C180.515 203.672 177.509 204.06 174.034 203.599C170.478 203.127 168.964 203.338 168.057 204.431C166.038 206.865 168.215 209.011 175.087 211.36C179.183 212.761 184.752 215.98 190.5 220.27C200.996 228.102 211.252 233.439 218.998 235.096C224.299 236.23 237.487 235.924 248.096 234.421L252.693 233.77L259.096 240.171C265.376 246.448 272.756 250.846 281.435 253.486L285.37 254.682L277.935 258.279C268.525 262.831 261.117 268.318 248.436 280.128C235.623 292.06 229.991 295.014 218.806 295.665C203.39 296.563 202.288 299.511 214.34 307.616C223.153 313.542 233.453 318.127 244.825 321.183C250.999 322.843 255.628 323.259 268.5 323.309C297.502 323.424 317.922 317.919 339.036 304.296C343.141 301.647 348.903 298.376 351.841 297.026C356.783 294.756 357.253 294.701 358.14 296.287C359.276 298.315 361.263 298.471 364.056 296.75C365.792 295.681 366.839 295.919 371.293 298.397C376.865 301.497 390.768 305 397.502 305C399.759 305 407.881 306.539 415.553 308.42C445.843 315.848 456.636 317.09 472.733 314.999C490.263 312.722 503.359 307.957 511.298 300.969C516.979 295.968 523.428 284.843 522.588 281.493C521.73 278.076 518.567 277.468 514.408 279.922C509.964 282.544 507 282.629 507 280.135C507 277.55 503.228 273 501.084 273C500.11 273 497.377 275.297 495.01 278.104L490.706 283.207L489.442 280.199C487.277 275.052 481.04 275.083 479.437 280.249C478.383 283.641 474.971 288.1 473.924 287.453C473.416 287.139 473 286.069 473 285.076C473 284.082 472.048 282.059 470.884 280.58C469.263 278.518 468.052 277.962 465.696 278.195C462.89 278.474 462.446 279.04 460.562 284.741C458.218 291.834 456.511 292.602 452.343 288.434C450.302 286.392 449.901 285.244 450.386 282.821C451.148 279.01 457.125 270.769 461.606 267.351C464.834 264.889 465.113 264.844 467.483 266.397C468.852 267.294 470.705 269.147 471.601 270.514C475.144 275.922 481.397 272.49 482.707 264.419C483.562 259.151 485.707 260.294 487.931 267.202C490.081 273.877 495.356 272.953 500.635 264.976C504.791 258.695 507.041 259.594 509.429 268.491C511.073 274.617 515.578 274.621 522.724 268.504C526.698 265.103 526.944 265.027 527.947 266.901C528.526 267.983 529 270.24 529 271.915C529 274.303 529.523 275.093 531.415 275.568C534.45 276.33 539.815 273.846 543.544 269.954C545.227 268.197 547.413 266.996 548.937 266.99C555.578 266.965 571.572 255.094 573.596 248.689C573.976 247.485 575.171 245.878 576.252 245.117C578.644 243.434 581.952 236.423 581.968 233C581.988 228.892 577.517 220.572 573.518 217.275C568.608 213.229 560.429 210.175 551.069 208.894C541.939 207.644 533.372 203.744 518.892 194.243C497.796 180.402 478.69 170.937 463 166.554C452.983 163.755 438.708 161 434.071 160.971L429.5 160.941L425.153 153.061C414.041 132.919 390.181 109.031 371.466 99.3101C363.391 95.1161 351.726 91.433 349.964 92.522C348.115 93.665 349.024 96.441 352.399 99.958C359.483 107.341 364.348 121.317 365.598 137.874L366.264 146.692L361.382 147.364C358.697 147.733 347.5 148.469 336.5 148.998C325.5 149.528 313.35 150.211 309.5 150.517C288.812 152.16 246.769 143.999 226.251 134.357C213.659 128.44 192.21 116.635 187.237 112.885C177.619 105.631 162.193 84.5999 150.199 62.3879C134.572 33.4479 130.688 27.6269 119.535 16.4309C108.55 5.40491 99.006 0 90.521 0C86.613 0 84.8661 0.490891 83.5341 1.96289ZM101.36 9.19189C105.414 11.2989 110.558 15.477 116.5 21.488C125.777 30.873 131.399 39.336 143.08 61.5C149.769 74.193 162.807 94.2221 170.918 104.267C180.239 115.811 188.638 121.808 211.18 133.016C231.688 143.213 242.292 147.034 262 151.328C281.653 155.61 290.428 156.315 315 155.587C333.304 155.045 361.601 153.475 364.798 152.825C365.184 152.747 366.287 153.027 367.25 153.448C372.167 155.6 373.045 150.999 370.965 133.974C369.584 122.668 367.539 114.801 364.019 107.25C362.082 103.096 361.528 101 362.366 101C364.153 101 376.401 108.481 383.5 113.909C391.976 120.39 403.742 132.514 411.492 142.754C418.167 151.574 426.987 167.932 427.015 171.546C427.042 174.952 428.692 176.658 430.722 175.379C431.928 174.618 432.5 173.009 432.5 170.379V166.5L436.5 166.792C443.159 167.277 465.776 173.047 474.605 176.513C484.329 180.331 501.336 189.645 515.353 198.829C530.376 208.672 538.991 212.55 550.019 214.433C565.473 217.071 574.069 222.519 575.592 230.641C576.335 234.6 573.97 241.002 571.766 240.998C571.07 240.996 567.852 239.196 564.615 236.998C556.164 231.257 551.301 231.37 540.476 237.562C536.089 240.071 531.329 242.364 529.897 242.657C526.617 243.33 521.51 240.761 510.572 232.937C500.714 225.886 492.754 222.411 484.255 221.449C474.659 220.364 468.013 221.607 461.34 225.735C443.716 236.639 439.853 236.745 426.672 226.683C416.466 218.892 402.351 216.643 386.855 220.338C375.361 223.079 368.457 223.9 364.879 222.953C363.02 222.461 357.112 220.916 351.748 219.52C340.994 216.722 334.649 213.868 322.193 206.227C309.111 198.202 300.805 195.506 268 188.638C250.102 184.891 245.014 183.165 231.896 176.391C221.676 171.114 215.441 166.586 204 156.136C186.023 139.715 172.145 129.826 154.178 120.636C138.556 112.645 128.269 109.844 114.5 109.832C101.833 109.822 94.275 111.224 72.111 117.698C48.584 124.57 35.544 124.657 20.798 118.042C18.434 116.981 15.4911 115.3 14.2581 114.307C12.0641 112.539 12.2691 112.499 23.7581 112.45C37.7271 112.39 41.604 111.097 54.889 102.066C71.835 90.5449 82.3 86.649 96.5 86.573C105.431 86.526 107.317 86.8501 114.141 89.6111C121.927 92.7601 125 92.6931 125 89.3721C125 88.5311 121.456 84.342 117.125 80.063C105.853 68.927 104.854 65.918 105.188 44.123C105.423 28.783 105.265 27.0551 103.144 21.7361C101.88 18.5661 99.336 13.7281 97.49 10.9861C95.645 8.24408 94.379 6 94.678 6C94.976 6 97.983 7.43589 101.36 9.19189ZM487.418 227.607C488.288 227.941 489 229.143 489 230.278C489 235.068 496.657 238.222 498.836 234.329C499.697 232.79 500.019 232.816 502.919 234.652L506.067 236.645L504.018 239.25C502.891 240.683 500.399 242.373 498.481 243.006C489.378 246.011 479.834 237.827 482.934 229.674C483.985 226.91 484.72 226.572 487.418 227.607ZM438.1 262.486C434.343 266.069 431.387 270.006 429.971 273.309C428.748 276.164 426.454 280.14 424.874 282.144C420.591 287.575 420.972 291.235 426.382 296.645C429.318 299.581 431.298 300.823 432.382 300.407C434.868 299.453 434.312 296.673 431 293.5C427.38 290.032 427.245 288.054 430.37 284.327C431.674 282.772 433.758 279.128 435.002 276.23C436.465 272.82 439.185 269.204 442.706 265.986C446.12 262.866 448.024 260.361 447.813 259.267C447.145 255.799 444.028 256.831 438.1 262.486ZM496 260.566C496 260.877 495.502 262.063 494.893 263.201C494.004 264.861 493.611 264.996 492.908 263.885C491.446 261.576 491.889 260 494 260C495.1 260 496 260.255 496 260.566ZM477.29 264C476.689 266.296 475.9 266.5 474.2 264.8C472.353 262.953 472.764 262 475.406 262C477.32 262 477.706 262.409 477.29 264ZM519 263.965C519 264.495 518.15 265.385 517.11 265.941C515.589 266.755 515.12 266.568 514.704 264.976C514.295 263.412 514.689 263 516.594 263C517.917 263 519 263.434 519 263.965ZM537.5 268C537.16 268.55 536.234 269 535.441 269C534.648 269 534 268.55 534 268C534 267.45 534.927 267 536.059 267C537.191 267 537.84 267.45 537.5 268ZM416.686 271.415C415.209 272.784 414 274.774 414 275.837C414 276.901 413.245 280.108 412.322 282.966C410.939 287.25 410.879 288.307 411.981 288.988C412.717 289.443 413.833 289.617 414.462 289.376C416.406 288.63 419 283.348 419 280.135C419 278.321 419.851 276.285 421.091 275.13C423.414 272.965 423.322 269.686 420.925 269.224C420.071 269.06 418.164 270.046 416.686 271.415ZM501 281.5C501 282.325 500.564 283 500.031 283C499.499 283 499.322 282.325 499.638 281.5C499.955 280.675 500.391 280 500.607 280C500.823 280 501 280.675 501 281.5ZM484.183 286.217C483.466 286.934 483 286.993 483 286.367C483 285.032 484.183 283.849 484.85 284.517C485.134 284.801 484.834 285.566 484.183 286.217ZM468 288.559C468 290.312 467.451 291 466.052 291C464.322 291 464.221 290.664 465.149 288.001C466.339 284.588 468 284.913 468 288.559Z" fill="#FFC4C4"/>
</svg>
