<svg width="378" height="583" viewBox="0 0 378 583" fill="none" xmlns="http://www.w3.org/2000/svg">
<path fill-rule="evenodd" clip-rule="evenodd" d="M143.905 0.524009C136.972 1.68401 131.854 4.16504 128.196 8.13804C124.403 12.257 124.267 12.3109 120.691 11.1319C113.603 8.79593 105.779 13.303 101.406 22.242L98.752 27.667L95.0779 26.11C89.7989 23.872 80.3349 24.1219 77.0319 26.5849C71.7989 30.4879 74.3329 34.784 79.9209 31.483C83.6699 29.268 88.0399 29.4051 93.8899 31.9221C96.5599 33.0711 99.5209 33.8581 100.469 33.6721C101.422 33.4851 103.822 30.199 105.83 26.333C108.571 21.055 110.383 18.841 113.195 17.333C116.784 15.408 117.04 15.399 119.996 17.083C124.615 19.715 126.312 19.263 130.364 14.317C135.898 7.56399 138.753 6.40197 149.905 6.36497C158.307 6.33697 159.99 6.64198 164.468 9.00498C171.171 12.543 176.168 18.25 178.868 25.452C182.056 33.955 181.477 46.731 177.491 55.833C175.926 59.408 174.591 63.66 174.525 65.281C174.411 68.075 174.691 68.2871 179.905 69.3511C186.562 70.7091 189.143 72.0201 191.132 75.0571C193.881 79.2531 194.107 83.021 191.859 87.197C188.309 93.791 191.571 96.3961 196.316 90.7561C198.349 88.3401 198.905 86.601 198.905 82.657C198.905 73.713 194.007 67.0899 185.61 64.6789C183.297 64.0149 181.287 63.3979 181.142 63.3059C180.997 63.2149 182.102 60.034 183.596 56.237C185.953 50.249 186.319 47.874 186.359 38.333C186.4 28.483 186.13 26.745 183.77 21.713C176.51 6.22899 160.537 -2.25999 143.905 0.524009ZM261.168 47.2739C249.965 52.6429 241.549 61.562 239.41 70.333C238.756 73.014 238.595 73.121 237.894 71.333C237.463 70.233 236.608 67.462 235.995 65.176C235.284 62.526 233.553 59.853 231.218 57.803C227.759 54.766 227.218 54.615 221.48 55.084C210.994 55.943 192.228 65.311 194.295 68.656C195.462 70.543 197.52 70.0731 206.215 65.9321C223.544 57.6781 229.35 58.631 231.44 70.072C232.008 73.179 231.809 73.9261 230.264 74.4851C226.916 75.6981 222.905 78.9391 222.905 80.4321C222.905 82.9301 225.68 83.1201 230.2 80.9321C232.585 79.7781 236.171 78.833 238.17 78.833C241.147 78.833 242.285 79.465 244.473 82.333C247.355 86.112 249.598 86.7969 250.593 84.2019C251.316 82.3189 248.31 76.2031 246.279 75.4231C242.635 74.0251 246.559 65.068 253.489 58.968C259.085 54.042 267.588 49.833 271.942 49.833C276.611 49.833 281.457 52.517 285.898 57.562C291.317 63.719 293.979 71.309 294.761 82.833L295.405 92.333H303.55C311.08 92.333 312.025 92.5689 316.05 95.4609C318.966 97.5549 321.511 100.694 323.753 104.961C326.963 111.072 327.085 111.703 326.715 120.382C326.394 127.924 325.892 130.18 323.7 133.919C321.128 138.309 319.679 139.403 313.227 141.824C308.904 143.446 308.605 144.927 311.686 149.461C319.156 160.455 313.055 176.474 300.63 178.49C297.604 178.981 296.858 178.69 295.388 176.448C292.157 171.517 287.683 174.035 290.484 179.209C291.266 180.652 292.568 183.059 293.377 184.556C297.087 191.419 296.186 201.053 291.219 207.632C288.495 211.24 288.738 213.833 291.801 213.833C294.243 213.833 297.266 210.074 299.474 204.292C300.74 200.976 301.048 197.857 300.7 191.85C300.251 184.098 300.309 183.833 302.454 183.833C303.839 183.833 304.87 184.592 305.201 185.856C305.593 187.355 306.464 187.827 308.567 187.679C319.804 186.891 329.283 204.565 327.422 222.833C326.58 231.098 323.744 237.064 318.753 241.075C316.1 243.207 314.914 244.901 315.112 246.275C315.579 249.522 318.144 249.176 322.732 245.249C326.923 241.662 327.026 241.633 329.051 243.465C332.649 246.721 334.106 250.852 334.258 258.233L334.405 265.333L341.405 265.906C352.615 266.823 360.981 271.985 364.357 280.065C366.357 284.852 366.308 286.737 364.01 293.276C361.03 301.752 353.255 311.936 346.268 316.514C343.853 318.097 343.633 318.098 342.749 316.518C341.59 314.447 338.046 314.302 337.281 316.295C336.973 317.099 337.882 320.136 339.302 323.045C342.853 330.318 343.47 336.081 341.514 343.715C339.136 352.998 339.548 355.675 343.145 354.294C346.725 352.921 349.471 333.081 346.986 326.546C346.167 324.392 346.658 323.631 351.495 319.564C359.13 313.145 363.669 307.434 367.552 299.361C370.31 293.626 370.905 291.222 370.905 285.807C370.905 280.264 370.448 278.504 368.01 274.66C363.237 267.133 354.512 261.776 344.79 260.403L340.175 259.751L339.629 253.725C339.101 247.9 338.512 246.645 332.297 238.087C330.924 236.196 330.843 235.136 331.785 231.394C333.201 225.774 333.233 211.459 331.845 204.987C329.691 194.945 320.214 183.645 312.684 182.139L309.762 181.554L313.786 177.444C315.999 175.183 318.507 171.66 319.358 169.615C321.469 164.541 321.283 156.262 318.941 151.103L317.02 146.872L320.413 145.262C331.72 139.897 336.484 117.713 329.427 103.289C324.153 92.51 313.293 84.9849 304.491 86.0129L301.207 86.396L300.026 77.5271C298.104 63.0931 290.894 51.3951 280.752 46.2551C274.194 42.9321 269.745 43.1639 261.168 47.2739ZM54.9019 64.3359C53.7319 65.7469 53.4779 68.2301 54.1259 71.9231C54.2859 72.8341 51.4959 76.1601 47.5889 79.7151L40.7719 85.917L34.984 85.2619C28.614 84.5419 27.1709 85.0449 20.0109 90.4909C17.5949 92.3289 14.6699 93.843 13.5109 93.855C10.0219 93.891 3.17199 97.4959 1.37299 100.242C0.302992 101.875 -0.0849678 103.737 0.314032 105.326C0.842032 107.431 1.52997 107.833 4.60297 107.833C6.61597 107.833 9.69702 108.352 11.45 108.986L14.638 110.138L12.2709 113.625C7.82694 120.174 10.385 132.552 17.96 141.158C21.084 144.708 21.534 145.745 20.639 147.344C20.048 148.4 19.291 150.601 18.957 152.234C18.509 154.426 17.593 155.406 15.463 155.976C11.315 157.085 5.37997 163.301 2.84797 169.188C-1.29903 178.828 2.049 193.569 9.883 200.161C15.12 204.568 18.481 200.601 13.486 195.909C9.97803 192.614 6.56999 184.105 6.62299 178.775C6.67399 173.608 9.42694 167.53 13.3909 163.833C15.3609 161.995 17.175 161.333 20.238 161.333H24.405L24.583 156.597C24.688 153.825 25.6969 150.196 27.0159 147.849L29.2709 143.838L25.149 140.31C22.882 138.369 19.828 134.331 18.363 131.337C16.151 126.816 15.808 125.081 16.341 121.112C16.695 118.484 17.0789 114.87 17.1939 113.083C17.3319 110.958 17.924 109.831 18.905 109.826C19.73 109.823 21.755 108.926 23.405 107.833C25.444 106.482 28.099 105.844 31.695 105.84C37.5 105.832 42.763 103.633 48.127 98.9741C52.779 94.9331 55.2339 93.833 59.5989 93.833C62.3109 93.833 63.779 94.4021 64.644 95.7871C66.114 98.1411 66.772 97.7099 53.887 102.825C42.038 107.528 41.3479 107.99 42.3859 110.516C42.7969 111.515 43.051 115.148 42.95 118.589C42.705 126.953 45.0029 134.332 50.3269 142.271L54.731 148.839L52.0679 149.405C45.9809 150.7 45.484 151.286 43.033 160.055C41.068 167.086 40.729 170.24 41.061 178.437C41.45 188.027 41.6079 188.601 46.2019 197.022C50.6749 205.219 53.4269 207.864 55.8959 206.339C56.4509 205.996 56.9049 204.372 56.9049 202.731C56.9049 200.551 58.1849 198.378 61.6549 194.665C71.9779 183.621 85.0879 176.658 102.803 172.812C114.36 170.303 135.605 167.603 137.944 168.345C140.877 169.276 169.183 162.983 170.655 161.073C172.302 158.935 172.233 158.168 170.253 156.622C161.149 149.515 158.613 143.978 158.441 130.833C158.336 122.799 158.205 122.315 156.061 122.006C153.863 121.689 146.31 124.081 131.009 129.939C126.941 131.496 123.229 132.533 122.759 132.243C121.476 131.45 121.721 128.633 123.569 122.911C124.854 118.932 124.962 117.49 124.044 116.572C123.126 115.654 122.409 115.662 120.894 116.608C119.815 117.282 118.499 117.833 117.969 117.833C117.439 117.833 115.07 119.131 112.705 120.718C103.068 127.183 82.75 137.339 61.174 146.476L57.9429 147.844L58.314 144.652C59.18 137.219 77.5449 126.227 93.6399 123.509C100.195 122.401 101.405 121.896 101.405 120.265C101.405 119.202 101.968 117.973 102.655 117.533C104.488 116.361 104.179 113.391 102.021 111.438C99.2169 108.9 97.683 102.043 98.065 93.7571C98.362 87.3261 98.1789 86.3489 96.6149 86.0329C95.6299 85.8339 89.6819 87.9569 83.3959 90.7519C77.1099 93.5469 71.503 95.833 70.936 95.833C70.369 95.833 69.9049 95.021 69.9049 94.029C69.9049 93.038 68.381 87.699 66.517 82.167C64.484 76.13 63.3339 71.039 63.6409 69.435C64.6029 64.401 58.0309 60.5659 54.9019 64.3359ZM60.456 82.301C62.58 87.385 62.392 87.7 56.774 88.445C52.738 88.98 50.266 90.181 45.186 94.074C38.337 99.324 34.6719 100.833 28.7709 100.833C26.7649 100.833 23.213 101.688 20.878 102.734C17.473 104.258 16.017 104.429 13.519 103.597C8.60899 101.962 8.37198 101.075 12.535 99.9189C14.664 99.3279 16.867 98.8421 17.432 98.8391C17.997 98.8361 20.9199 96.9841 23.9269 94.7241C29.1249 90.8191 29.652 90.6451 34.583 91.2251C41.367 92.0221 44.1679 90.8399 51.0529 84.2729C54.1899 81.2809 57.263 78.833 57.882 78.833C58.501 78.833 59.659 80.394 60.456 82.301ZM155.591 82.865C153.791 84.282 152.235 84.7031 150.457 84.2571C147.071 83.4071 143.86 84.295 141.135 86.833C136.641 91.02 139.553 95.4711 144.329 91.7141C146.369 90.1091 147.74 89.8361 151.166 90.3491C154.733 90.8841 155.766 90.6441 157.333 88.9131C159.433 86.5921 162.992 86.2699 167.842 87.9609C170.528 88.8969 171.355 88.8119 172.706 87.4609C174.133 86.0339 174.153 85.6641 172.869 84.4641C168.796 80.6571 159.493 79.796 155.591 82.865ZM94.6989 110.1C95.7879 112.561 97.1789 114.885 97.7919 115.263C100.001 116.628 98.832 117.833 95.299 117.833C84.572 117.833 71.282 123.819 58.081 134.596L54.0839 137.859L52.0219 134.522C50.8869 132.686 49.447 128.068 48.821 124.259C47.868 118.456 47.931 116.763 49.211 113.816C50.643 110.516 51.718 109.903 66.571 103.924C75.28 100.419 84.4299 96.534 86.9049 95.291L91.4049 93.032L92.0619 99.3291C92.4239 102.792 93.6099 107.639 94.6989 110.1ZM250.836 115.234C248.162 117.051 246.871 117.394 245.529 116.643C242.711 115.065 235.7 115.371 232.11 117.227C226.536 120.109 223.26 127.833 227.611 127.833C228.431 127.833 230.34 126.509 231.851 124.89C235.578 120.901 239.095 120.164 243.953 122.355C247.87 124.121 247.885 124.119 251.695 121.479C256.295 118.291 257.775 118.216 263.042 120.903C271.051 124.989 272.946 119.806 265.02 115.492C258.975 112.202 255.394 112.137 250.836 115.234ZM117.151 134.293C117.754 143.966 121.696 153.927 127.159 159.583C128.885 161.37 129.872 162.836 129.351 162.84C128.831 162.843 122.555 163.723 115.405 164.794C88.5329 168.821 73.7549 175.119 60.1239 188.354L51.8429 196.395L49.1829 190.864C46.8949 186.109 46.527 184.071 46.559 176.333C46.585 170.149 47.1919 165.621 48.5009 161.861C50.1929 156.998 50.8499 156.232 54.4049 154.972C68.9769 149.809 98.4799 136.091 110.405 128.934C113.155 127.284 115.679 125.911 116.014 125.883C116.349 125.856 116.861 129.64 117.151 134.293ZM153.111 136.083C153.61 143.786 156.438 151.642 160.124 155.567C161.291 156.809 162.046 158.026 161.8 158.271C161.555 158.516 157.091 159.575 151.88 160.624C143.892 162.231 142.157 162.318 140.826 161.182C139.958 160.44 138.309 159.833 137.161 159.833C134.053 159.833 127.725 152.008 125.236 145.088L123.067 139.057L131.736 135.767C136.504 133.958 142.43 131.682 144.905 130.71C152.399 127.766 152.581 127.885 153.111 136.083ZM143.279 135.301C141.572 139.75 145.431 153.612 148.654 154.612C150.737 155.258 151.313 151.79 149.93 146.929C149.21 144.401 148.348 140.539 148.014 138.346C147.368 134.117 144.453 132.242 143.279 135.301ZM104.606 138.465C103.395 139.677 103.84 143.806 105.542 147.133C108.33 152.583 112.98 157.833 115.02 157.833C118.404 157.833 118.143 155.254 114.225 149.981C112.137 147.172 109.933 143.401 109.328 141.603C108.27 138.458 106.073 136.998 104.606 138.465ZM88.8759 146.886C87.9839 148.554 88.268 149.777 90.388 153.394C93.175 158.15 97.15 161.418 98.861 160.36C100.555 159.313 100.069 156.915 97.4739 153.512C96.1359 151.759 94.572 149.089 93.998 147.579C92.763 144.33 90.4149 144.012 88.8759 146.886ZM254.405 151.996C249.896 154.916 248.648 155.239 241.693 155.283C233.383 155.337 229.987 156.999 231.284 160.377C231.805 161.735 232.586 161.921 235.17 161.301C239.337 160.302 242.553 160.277 246.908 161.211C250.007 161.876 250.974 161.524 255.306 158.148C259.535 154.853 260.965 154.31 265.804 154.167C268.884 154.075 271.774 153.963 272.225 153.917C272.675 153.871 272.9 152.821 272.725 151.583C272.436 149.549 271.782 149.305 265.905 149.045C260.023 148.785 258.929 149.066 254.405 151.996ZM75.9049 153.193C75.9049 158.513 82.435 167.334 85.502 166.157C87.597 165.353 87.206 162.916 84.389 159.223C83.006 157.409 81.599 154.554 81.264 152.879C80.79 150.51 80.1269 149.833 78.2799 149.833C76.2509 149.833 75.9049 150.323 75.9049 153.193ZM62.3699 156.89C60.6359 159.695 66.743 171.833 69.888 171.833C73.202 171.833 73.1719 169.918 69.7439 162.809C66.5409 156.165 64.0519 154.168 62.3699 156.89ZM54.752 161.083C54.078 162.321 53.3369 167.174 53.1039 171.868C52.7529 178.951 52.9639 180.637 54.3429 181.782C57.4189 184.334 58.6279 181.286 59.1809 169.583C59.6539 159.593 59.5579 158.833 57.8319 158.833C56.8109 158.833 55.425 159.845 54.752 161.083ZM173.95 166.961C168.749 169.641 164.165 171.833 163.762 171.833C163.358 171.833 163.113 170.596 163.217 169.084C163.359 167.011 162.908 166.264 161.386 166.045C159.658 165.796 145.614 171.84 115.405 185.833C111.555 187.616 97.8299 193.909 84.9049 199.817C39.2099 220.703 43.014 218.673 41.972 222.727C40.032 230.273 35.96 256.71 35.41 265.333C33.961 288.032 30.0019 325.765 24.3449 370.791C23.5529 377.094 22.905 382.658 22.905 383.156C22.905 383.655 21.753 383.308 20.346 382.386C17.006 380.198 13.405 380.689 13.405 383.333C13.405 385.338 14.3569 386.026 57.1679 415.008C67.5179 422.015 70.7529 424.698 70.2139 425.829C68.4339 429.565 68.7809 441.872 70.8969 450.035C73.8659 461.488 77.1139 467.021 86.4049 476.458C97.3789 487.604 109.066 493.081 117.012 490.802C119.737 490.021 119.917 490.174 120.936 494.158C121.523 496.454 122.373 499.471 122.824 500.861C123.645 503.385 123.636 503.389 117.026 503.523C113.384 503.596 108.135 503.958 105.36 504.327C100.73 504.943 99.6579 504.653 92.3599 500.807C85.4389 497.161 83.8199 496.687 79.9049 497.158C77.4299 497.456 73.1909 498.685 70.4839 499.889C67.7779 501.093 63.284 502.135 60.497 502.205C56.391 502.309 55.362 502.689 55.07 504.213C54.871 505.247 55.3149 506.478 56.0569 506.948C58.6609 508.598 66.5619 507.832 72.7129 505.333C76.0969 503.958 80.015 502.833 81.42 502.833C82.826 502.833 87.3729 504.633 91.5249 506.833C99.9119 511.276 103.538 511.725 111.63 509.322C115.36 508.214 117.427 508.081 119.376 508.822C120.839 509.378 123.243 509.861 124.72 509.896C126.837 509.946 129.837 512.588 138.905 522.388C145.23 529.224 150.912 534.82 151.533 534.825C152.153 534.829 153.179 534.208 153.812 533.445C155.217 531.752 153.32 529.255 140.729 516.23C131.158 506.329 127.863 500.557 125.871 490.204C124.879 485.044 124.948 483.198 126.308 478.52C127.75 473.56 131.452 468.833 133.896 468.833C134.292 468.833 134.865 472.122 135.169 476.141C136.659 495.848 160.408 537.54 168.397 534.474C170.873 533.524 170.113 530.363 166.824 527.931C163.186 525.242 154.771 512.584 149.141 501.333C143.447 489.956 140.693 480.629 140.452 471.911L140.246 464.489L130.326 457.677C124.869 453.931 112.887 445.813 103.699 439.638C94.5109 433.463 87.1339 428.27 87.3069 428.098C87.4789 427.925 97.022 433.245 108.513 439.919C120.003 446.593 132.216 453.619 135.652 455.533C139.087 457.447 142.154 459.427 142.467 459.933C142.779 460.439 143.483 465.236 144.03 470.593C145.57 485.668 151.581 501.032 161.952 516.402C168.185 525.639 176.638 534.833 178.898 534.833C182.822 534.833 181.961 531.661 176.409 525.664C162.695 510.852 151.805 488.764 149.523 471.134L148.85 465.934L152.514 465.247C157.053 464.395 170.516 465.372 182.296 467.407C195.188 469.635 218.095 478.623 243.405 491.386C273.542 506.583 277.139 507.76 310.48 513.352C340.559 518.396 352.477 519.127 361.203 516.464C368.961 514.097 370.905 512.387 370.905 507.932C370.905 501.592 370.066 501.342 348.501 501.26C328.636 501.185 325.885 500.817 303.405 495.23C285.411 490.758 272.813 485.822 244.905 472.313C229.78 464.991 215.647 458.401 213.499 457.667C211.35 456.933 209.384 455.542 209.13 454.575C208.875 453.608 204.333 449.828 199.036 446.175C186.56 437.572 186.482 437.487 191.905 438.312C213.733 441.636 240.229 451.882 258.752 464.162C270.065 471.662 271.522 470.958 267.448 459.955C266.556 457.548 266.032 455.373 266.282 455.123C266.532 454.873 270.9 457.468 275.989 460.889C285.908 467.559 301.17 481.51 303.521 486.058C305.215 489.334 307.879 489.624 310.425 486.811C312.171 484.881 312.176 484.625 310.529 481.17C308.373 476.649 305.113 454.282 304.249 438.083C303.645 426.754 303.73 425.833 305.379 425.833C306.359 425.833 310.816 422.773 315.283 419.032C324.521 411.297 339.499 399.833 340.366 399.833C340.685 399.833 340.047 401.594 338.95 403.745C331.681 417.993 319.211 462.631 317.306 481.219C316.735 486.8 316.882 487.887 318.282 488.424C320.721 489.36 322.905 487.017 322.908 483.461C322.916 475.227 330.066 445.29 336.927 424.768C341.324 411.613 349.191 395.023 353.408 390.011C358.411 384.067 354.228 380.267 348.549 385.597C346.82 387.22 339.555 392.982 332.405 398.401C325.255 403.82 315.899 411.14 311.613 414.668C307.327 418.196 303.675 420.914 303.497 420.708C303.318 420.502 303.533 415.158 303.975 408.833C305.553 386.224 312.437 364.131 320.911 354.479C324.021 350.937 324.735 348.276 322.753 347.616C320.9 346.998 273.535 363.449 260.501 369.237C257.254 370.679 254.417 371.678 254.196 371.457C253.975 371.236 254.76 366.938 255.941 361.907C257.536 355.113 258.645 352.4 260.247 351.367C263.915 349.002 279.927 342.256 289.905 338.871C299.359 335.664 304.788 332.071 303.45 329.905C303.063 329.28 300.753 327.832 298.315 326.686C289.839 322.701 279.989 308.887 275.247 294.333C273.276 288.283 272.523 283.53 272.156 274.833C271.89 268.508 271.271 262.833 270.78 262.221C270.155 261.44 268.352 261.388 264.729 262.047C260.385 262.836 259.427 262.731 258.671 261.38C258.177 260.497 255.993 258.651 253.818 257.278C248.375 253.842 241.673 244.383 238.485 235.638C236.962 231.459 235.297 223.839 234.595 217.833C233.382 207.451 233.337 207.329 230.601 207.013C225.701 206.447 201.075 215.552 193.281 220.812C190.819 222.474 188.625 223.833 188.406 223.833C187.299 223.833 182.067 217.272 182.686 216.66C184.03 215.33 203.104 210.833 207.399 210.833C210.892 210.833 211.985 210.361 213.366 208.252C214.296 206.833 214.837 205.098 214.568 204.397C214.299 203.696 211.545 201.692 208.449 199.945C199.386 194.83 192.867 182.774 191.503 168.603C191.253 166.002 190.764 163.415 190.418 162.853C189.115 160.745 183.103 162.244 173.95 166.961ZM185.905 170.781C185.905 179.736 194.86 197.953 201.354 202.207C205.066 204.64 204.529 205.493 198.806 206.252C196.002 206.624 190.109 208.065 185.712 209.454C181.315 210.843 177.597 211.834 177.45 211.656C174.457 208.051 168.232 197.52 166.336 192.856C163.177 185.08 162.063 177.846 164.019 177.802C164.781 177.785 169.68 175.57 174.905 172.879C180.13 170.188 184.743 167.952 185.155 167.91C185.567 167.868 185.905 169.16 185.905 170.781ZM157.639 181.66C158.266 185.965 159.981 192.414 161.45 195.99C164.31 202.955 174.032 217.258 180.778 224.428C183.048 226.839 184.905 228.979 184.905 229.183C184.905 229.387 178.718 229.803 171.155 230.109C137.137 231.484 104.772 242.057 88.257 257.19C80.527 264.273 73.531 273.164 70.762 279.424L68.7249 284.028L63.799 277.186C53.356 262.68 46.9049 244.21 46.9049 228.814C46.9049 222.909 43.6029 224.9 83.9049 206.504C99.0299 199.6 121.08 189.465 132.905 183.983C144.73 178.5 154.876 173.973 155.451 173.924C156.027 173.874 157.011 177.355 157.639 181.66ZM176.606 175.465C175.571 176.501 175.754 183.031 176.979 188.744C178.219 194.526 185.124 205.833 187.415 205.833C189.652 205.833 190.443 202.918 188.875 200.451C184.432 193.46 182.653 189.124 181.567 182.639C180.723 177.599 179.878 175.259 178.827 175.056C177.991 174.896 176.992 175.079 176.606 175.465ZM143.572 183.5C141.393 185.679 144.903 202.981 149.251 211.487C152.556 217.954 158.603 224.833 160.983 224.833C164.154 224.833 163.26 221.301 158.516 215.084C153.481 208.488 150.201 200.316 149.274 192.062C148.921 188.911 148.227 185.546 147.733 184.583C146.823 182.81 144.79 182.281 143.572 183.5ZM124.572 193.5C122.573 195.498 125.804 211.876 129.587 218.925C132.233 223.857 139.099 229.833 142.118 229.833C146.019 229.833 145.036 226.911 139.194 221.141C133.058 215.081 131.622 212.004 130.418 202.333C129.378 193.977 128.973 192.833 127.053 192.833C126.055 192.833 124.938 193.133 124.572 193.5ZM28.207 199.823C23.436 201.792 21.6 209.773 24.384 216.437C25.55 219.227 26.345 219.909 28.134 219.655C30.499 219.32 30.702 218.14 29.347 212.601C28.23 208.034 29.507 205.163 32.963 204.471C35.458 203.972 35.986 203.423 35.726 201.594C35.367 199.069 31.972 198.269 28.207 199.823ZM107.606 201.465C106.453 202.619 106.805 207.523 108.536 214.415C109.801 219.451 111.179 222.033 114.675 225.922C117.757 229.351 119.825 230.84 121.216 230.634C124.61 230.131 124.216 228.25 119.634 223.09C115.438 218.366 114.362 215.807 112.169 205.34C111.387 201.602 109.268 199.803 107.606 201.465ZM87.1049 216.05C87.8269 227.292 94.598 239.833 99.945 239.833C102.962 239.833 102.354 236.559 98.4739 231.916C95.2009 227.998 94.439 225.783 92.081 213.333C91.483 210.173 90.831 209.262 88.977 208.995C86.661 208.662 86.6369 208.754 87.1049 216.05ZM228.905 216.768C228.905 222.319 231.547 234.425 234.049 240.333C236.38 245.839 240.862 252.883 244.644 256.983L247.088 259.634L244.247 260.152C242.684 260.436 236.138 261.702 229.701 262.964C223.264 264.226 217.674 264.935 217.278 264.54C216.217 263.478 215.491 236.826 216.525 236.874C217.009 236.897 218.422 239.085 219.664 241.738C222.314 247.394 226.435 252.156 228.178 251.576C230.408 250.833 230.064 248.03 227.215 243.731C225.669 241.399 223.224 235.855 221.78 231.412C219.763 225.205 218.692 223.263 217.157 223.03C214.654 222.651 213.659 225.056 214.933 228.407C216.34 232.108 216.166 232.606 213.637 232.122C210.629 231.547 161.039 251.459 130.405 265.542C123.805 268.576 116.61 271.718 114.416 272.523C112.222 273.329 110.197 274.334 109.916 274.758C108.83 276.394 75.56 292.833 73.335 292.833C73.216 292.833 73.5359 290.921 74.0469 288.583C75.8629 280.273 80.018 273.59 88.841 264.79C95.639 258.008 99.2609 255.307 106.405 251.692C127.306 241.115 150.784 235.75 177.947 235.344C195.698 235.078 199.687 233.565 195.329 228.749C193.867 227.133 194.075 226.818 198.197 224.402C201.793 222.294 211.216 218.459 224.905 213.531C228.257 212.324 228.905 212.848 228.905 216.768ZM70.644 216.959C65.203 220.004 74.6479 250.833 81.0219 250.833C84.2009 250.833 84.214 248.367 81.061 243.199C77.38 237.168 74.9049 228.954 74.9049 222.774C74.9049 217.53 73.369 215.434 70.644 216.959ZM53.757 225.258C51.4 230.432 57.3339 250.623 62.9999 256.705C65.4439 259.328 66.5409 259.381 67.8479 256.94C68.6249 255.487 68.385 254.441 66.816 252.447C63.383 248.083 59.878 238.1 59.122 230.534C58.555 224.861 58.0409 223.288 56.6659 223.024C55.5749 222.815 54.491 223.648 53.757 225.258ZM26.065 229.049L20.7249 234.31L14.3969 233.985C9.01492 233.708 7.91698 233.942 7.05598 235.55C5.50498 238.45 7.13593 240.161 10.7039 239.377C12.3809 239.009 15.61 239.263 17.878 239.943L22.002 241.179L28.488 234.756C32.846 230.44 34.88 227.68 34.689 226.343C34.187 222.827 31.535 223.66 26.065 229.049ZM209.905 246.702C209.905 263.082 214.584 281.333 223.013 297.833C227.283 306.191 229.937 310.009 239.669 321.795L241.932 324.536L225.669 325.118C192.86 326.291 161.632 334.388 130.056 349.909C124.748 352.518 120.315 354.566 120.205 354.459C119.519 353.797 118.748 290.905 119.347 284.551L120.082 276.769L126.743 273.434C137.363 268.116 206.068 239.193 208.655 238.95C209.559 238.865 209.905 241.011 209.905 246.702ZM50.285 266.002C54.82 275.152 65.9119 290.249 69.4689 292.113C72.1249 293.504 72.087 293.535 62.773 297.501C57.62 299.695 51.1549 302.369 48.4049 303.444L43.405 305.397L42.049 315.365C39.934 330.904 42.527 345.841 49.289 357.07L52.5979 362.566L48.6969 368.949C43.3819 377.646 38.905 386.468 38.905 388.245C38.905 389.054 39.35 389.99 39.894 390.326C40.852 390.918 53.7689 386.603 68.6809 380.709C72.6829 379.127 76.1449 377.833 76.3759 377.833C76.7859 377.833 75.1699 382.218 70.2329 394.495C65.6519 405.887 68.503 409.581 77.481 403.887C84.463 399.459 85.3169 399.724 84.5529 406.083C84.2059 408.97 83.918 412.796 83.914 414.583C83.909 416.37 83.429 417.833 82.846 417.833C82.264 417.833 72.702 412.584 61.596 406.168C50.491 399.752 37.89 392.51 33.593 390.074C27.239 386.471 26.047 385.428 27.208 384.489C28.212 383.675 29.594 375.341 31.878 356.333C37.262 311.511 39.264 291.938 40.9 268.1C41.399 260.822 42.133 253.172 42.53 251.1L43.253 247.333L44.952 253.002C45.887 256.12 48.287 261.97 50.285 266.002ZM191.001 252.654C187.597 259.013 187.305 277.082 190.435 287.622C192.246 293.72 198.267 301.833 200.982 301.833C204.248 301.833 204.27 299.171 201.038 295.133C196.13 289.003 194.653 284.3 194.127 273.126C193.758 265.29 194.033 261.738 195.31 257.835C196.224 255.039 196.706 252.32 196.38 251.792C195.386 250.184 192.035 250.722 191.001 252.654ZM8.22993 263.713C-0.812074 270.263 -2.64697 284.389 3.93903 296.746C5.76803 300.176 8.81703 304.263 10.715 305.828L14.1669 308.673L12.1199 312.003C8.01094 318.687 8.38794 325.504 13.1459 330.583C17.7009 335.445 21.313 332.13 17.335 326.739C15.999 324.927 14.905 322.384 14.905 321.087C14.905 317.929 18.9509 311.054 21.1459 310.48C23.9609 309.744 23.297 306.165 20.142 305.065C15.494 303.445 11.139 299.021 8.31403 293.049C1.63503 278.931 8.00692 265.227 20.8969 265.988C25.2899 266.247 27.5069 264.844 26.5689 262.4C26.1039 261.187 24.412 260.833 19.086 260.833C13.091 260.833 11.6929 261.204 8.22993 263.713ZM167.777 263.486C164.689 267.205 165.833 290.659 169.478 298.344C171.367 302.327 175.613 306.833 177.477 306.833C180.329 306.833 180.184 303.749 177.133 299.501C175.466 297.18 173.647 293.493 173.091 291.307C171.488 285.018 170.803 272.695 171.819 268.462C173.275 262.401 171.002 259.603 167.777 263.486ZM253.355 264.652C252.833 265.103 249.03 266.733 244.905 268.275C240.78 269.816 233.747 272.992 229.276 275.331L221.147 279.584L219.957 275.611C219.302 273.426 218.947 271.457 219.169 271.236C219.39 271.015 225.384 269.683 232.488 268.276C239.592 266.869 246.98 265.341 248.905 264.879C253.754 263.716 254.484 263.679 253.355 264.652ZM265.905 272.391C265.905 291.133 274.258 311.958 287.025 325.047C290.666 328.779 293.141 331.838 292.525 331.844C291.909 331.849 285.369 334.282 277.991 337.249C266.99 341.674 264.246 342.438 262.737 341.496C258.792 339.032 254.249 345.482 250.783 358.468C248.125 368.431 247.087 395.048 248.839 408.369C250.165 418.461 253.789 434.989 257.562 448.157C258.953 453.01 259.936 457.112 259.748 457.272C259.559 457.432 255.355 455.329 250.405 452.598C228.911 440.741 200.118 431.994 182.15 431.864C178.73 431.839 176.573 430.91 171.15 427.126C167.44 424.537 156.305 416.753 146.405 409.828C136.505 402.903 126.984 396.399 125.248 395.374C121.43 393.122 121.031 391.483 120.244 374.833L119.653 362.333L125.213 359.001C145.368 346.922 182.215 335.003 209.405 331.768C224.466 329.976 243.958 329.997 247.353 331.809C249.976 333.209 250.241 333.144 252.476 330.546C254.703 327.956 254.839 324.833 252.724 324.833C251.162 324.833 239.982 313.791 235.679 307.999C231.608 302.518 223.905 288.285 223.905 286.244C223.905 284.637 230.201 280.653 238.485 277.017C246.098 273.676 262.63 267.887 264.655 267.854C265.475 267.84 265.905 269.4 265.905 272.391ZM141.124 277.583C140.728 278.546 140.405 285.679 140.405 293.435V307.537L143.911 314.422C147.364 321.203 149.916 323.222 152.178 320.96C152.925 320.213 152.281 318.013 149.996 313.513C146.201 306.036 144.758 296.771 145.761 286.333C146.601 277.606 146.269 275.833 143.8 275.833C142.723 275.833 141.519 276.62 141.124 277.583ZM251.935 280.297C249.57 283.146 252.531 297.463 257.926 309.267C261.488 317.061 265.975 322.404 268.232 321.538C270.667 320.603 270.295 318.354 266.937 313.718C262.611 307.746 257.953 294.849 257.123 286.545C256.371 279.015 254.684 276.984 251.935 280.297ZM318.49 283.068C315.983 284.936 314.446 285.207 307.49 285.007C298.775 284.757 296.499 285.51 297.078 288.453C297.396 290.075 298.406 290.337 304.426 290.361C308.264 290.377 312.549 290.74 313.947 291.168C315.968 291.786 317.268 291.326 320.294 288.922C323.64 286.262 324.629 285.971 328.502 286.501C332.5 287.049 332.905 286.912 332.905 285.004C332.905 280.532 323.576 279.279 318.49 283.068ZM100.798 289.583C96.4959 296.689 78.825 322.765 77.939 323.312C76.83 323.997 74.5699 313.477 75.3129 311.09C76.0739 308.643 74.529 306.563 72.285 307.013C70.621 307.346 70.416 308.317 70.503 315.452C70.567 320.764 71.162 324.642 72.247 326.816C73.822 329.973 73.7969 330.273 71.6919 333.725C64.8649 344.915 56.8269 356.833 56.1049 356.833C54.7229 356.833 49.994 345.763 48.415 338.833C46.671 331.177 46.5919 320.125 48.2349 313.916L49.4049 309.499L69.4049 300.839C80.4049 296.077 92.1049 290.774 95.4049 289.055C98.7049 287.336 101.779 285.908 102.237 285.881C102.694 285.855 102.047 287.521 100.798 289.583ZM107.382 314.904C106.167 327.424 104.028 364.895 103.903 375.833C103.845 380.932 102.502 381.378 97.4569 377.973C94.8969 376.245 91.495 374.155 89.898 373.33L86.9949 371.828L88.503 367.581C89.333 365.244 91.5669 356.358 93.4689 347.833C97.7659 328.569 107.237 297.832 108.49 299.085C108.704 299.299 108.206 306.417 107.382 314.904ZM96.32 315.364C93.855 323.047 90.509 335.408 88.883 342.833C84.97 360.705 82.934 367.512 81.002 369.175C79.433 370.525 50.6729 381.833 48.8069 381.833C48.2829 381.833 48.588 380.413 49.486 378.677C51.84 374.125 100.208 300.816 100.602 301.202C100.711 301.308 98.784 307.681 96.32 315.364ZM113.989 343.583C114.035 355.546 114.397 370.508 114.793 376.833C115.189 383.158 115.438 388.46 115.345 388.614C115.252 388.769 113.728 388.094 111.959 387.114L108.743 385.333L109.342 376.833C109.672 372.158 110.15 362.933 110.404 356.333C111.331 332.315 112.121 321.833 113.004 321.833C113.509 321.833 113.942 331.399 113.989 343.583ZM237.405 341.805C223.186 344.728 211.905 348.004 192.405 354.876C142.326 372.523 122.754 380.663 122.089 384.118C121.428 387.547 125.062 386.909 138.112 381.307C151.792 375.435 197.357 358.823 213.508 353.819C225.043 350.246 244.61 345.838 249.025 345.818C253.309 345.798 255.199 344.607 254.745 342.213C254.25 339.609 248.723 339.479 237.405 341.805ZM349.274 348.313C348.962 349.126 349.682 351.806 350.874 354.268C352.562 357.756 352.895 359.717 352.381 363.147C351.858 366.634 352.045 367.673 353.284 368.148C354.144 368.478 355.583 368.013 356.481 367.114C358.933 364.662 358.063 354.268 355.053 350.04C352.615 346.617 350.202 345.895 349.274 348.313ZM311.905 357.276C311.905 357.519 311.028 359.207 309.956 361.026C307.274 365.576 302.343 380.996 300.191 391.563C297.646 404.062 297.905 441.76 300.668 460.833C301.743 468.258 302.5 474.482 302.349 474.665C302.199 474.847 300.124 473.087 297.74 470.753C291.844 464.983 278.928 455.46 270.242 450.479L263.079 446.371L261.073 439.352C255.124 418.544 250.779 383.308 253.67 379.319C254.96 377.541 264.89 373.283 283.905 366.356C294.08 362.649 303.98 359.013 305.905 358.276C309.507 356.897 311.905 356.497 311.905 357.276ZM228.875 361.889C228.27 363.019 226.65 368.757 225.275 374.639C222.496 386.525 221.137 408.349 222.586 417.833C223.292 422.458 223.782 423.384 225.665 423.653C226.993 423.842 227.933 423.434 227.973 422.653C228.011 421.927 227.989 414.583 227.924 406.333C227.803 390.876 230.137 374 233.515 365.916C234.314 364.003 234.743 361.852 234.468 361.136C233.693 359.116 230.1 359.599 228.875 361.889ZM202.025 370.935C197.55 375.738 195.171 391.235 196.902 404.314C198.269 414.641 199.583 417.554 202.388 416.478C203.878 415.906 204.057 415.041 203.51 411.065C201.64 397.475 201.739 389.403 203.87 381.833C205.032 377.708 206.23 373.384 206.533 372.224C207.319 369.218 204.402 368.383 202.025 370.935ZM285.506 373.083C281.189 379.806 276.885 405.291 276.961 423.682C277.024 438.827 278.209 444.333 281.405 444.333C283.11 444.333 283.371 443.743 283.175 440.333C281.813 416.612 283.719 396.246 288.844 379.78C290.284 375.156 290.526 373.082 289.74 372.134C288.201 370.279 287.156 370.513 285.506 373.083ZM89.34 385.735C91.504 387.969 93.079 389.919 92.84 390.069C92.601 390.219 88.4979 392.234 83.7229 394.546L75.0409 398.751L76.857 393.542C77.855 390.677 79.4449 386.429 80.3899 384.102C82.3839 379.187 83.126 379.323 89.34 385.735ZM176.958 381.269C176.303 382.058 175.068 386.25 174.215 390.584C171.789 402.896 174.761 417.254 179.369 415.485C180.766 414.949 181.004 414.055 180.54 411.073C178.718 399.355 178.683 395.634 180.331 388.852C181.267 385.001 181.753 381.396 181.41 380.841C180.514 379.392 178.343 379.6 176.958 381.269ZM101.231 386.583C103.211 388.095 109.129 392.033 114.381 395.333C125.569 402.363 168.485 432.09 171.403 434.831C172.505 435.866 174.32 437.077 175.437 437.523C177.887 438.5 198.031 452.04 197.631 452.44C197.476 452.596 195.598 452.328 193.458 451.845C191.318 451.362 183.873 450.44 176.913 449.796L164.26 448.625L153.803 438.479C148.052 432.899 133.685 419.379 121.876 408.435C94.1399 382.731 95.275 383.833 96.54 383.833C97.14 383.833 99.25 385.071 101.231 386.583ZM262.828 389.514C260.78 394.857 259.841 409.642 260.963 418.873C262.44 431.021 263.162 433.333 265.477 433.333C267.663 433.333 267.718 432.225 266.443 413.833C265.975 407.084 266.121 401.19 266.853 397.333C268.673 387.744 268.648 387.368 266.157 387.014C264.466 386.774 263.64 387.394 262.828 389.514ZM149.235 392.453C146.6 396.473 146.676 407.457 149.351 409.415C152.221 411.517 153.308 409.749 153.565 402.564C153.687 399.137 153.926 394.995 154.096 393.36C154.517 389.312 151.644 388.776 149.235 392.453ZM104.093 399.518L108.85 404.204L104.628 406.595C102.305 407.911 98.0429 410.335 95.1549 411.983L89.9049 414.98V406.358V397.736L93.1549 396.324C98.0649 394.19 98.9439 394.447 104.093 399.518ZM115.705 410.033C116.365 410.693 116.938 413.506 116.979 416.283C117.101 424.593 118.268 430.036 120.183 431.227C122.916 432.926 123.922 430.292 123.196 423.34L122.569 417.333L126.487 420.734C132.212 425.703 144.905 437.761 144.905 438.23C144.905 438.451 142.638 439.447 139.867 440.444C137.096 441.44 133.965 443.061 132.909 444.044C131.853 445.028 130.766 445.833 130.493 445.833C130.221 445.833 123.564 442.085 115.701 437.503C107.838 432.922 98.777 427.69 95.565 425.878C88.628 421.964 88.3879 422.366 102.374 414.465C113.019 408.451 113.847 408.175 115.705 410.033ZM97.3269 442.093C106.937 448.561 115.031 454.228 115.314 454.686C115.597 455.143 113.398 457.616 110.428 460.18C107.458 462.744 103.138 467.765 100.827 471.338C98.5169 474.91 96.2909 477.833 95.8799 477.833C95.4699 477.833 92.3199 474.824 88.8799 471.147C81.6189 463.386 77.69 455.617 75.465 444.625C73.63 435.559 73.5659 433.856 74.9219 430.288C75.8389 427.876 76.1319 427.746 77.8969 428.972C78.9739 429.721 87.7179 435.625 97.3269 442.093ZM92.9639 444.262C92.0359 445.38 92.2369 447.231 93.8839 452.762C95.7519 459.034 96.2669 459.833 98.4469 459.833C101.39 459.833 101.497 458.704 99.284 450.987C97 443.017 95.4049 441.32 92.9639 444.262ZM153.771 446.195L157.03 449.557L152.718 450.246C150.346 450.624 147.422 451.577 146.221 452.363C144.265 453.643 143.61 453.55 139.937 451.463C136.566 449.548 136.087 448.926 137.245 447.965C138.413 446.997 148.064 443.156 149.959 442.906C150.263 442.866 151.979 444.346 153.771 446.195ZM191.405 457.318C204.744 460.069 215.451 464.261 241.007 476.739C269.184 490.497 276.406 493.5 292.623 498.204C316.895 505.244 337.422 508.123 355.859 507.071C363.544 506.633 365.089 506.784 364.711 507.937C364.075 509.872 357.639 511.865 349.905 512.521C345.056 512.932 337.816 512.144 321.405 509.421C309.305 507.412 296.705 505.337 293.405 504.809C282.068 502.994 270.36 498.436 246.905 486.706C205.183 465.841 185.811 459.846 160.082 459.837C149.838 459.833 148.79 459.666 149.093 458.083C149.301 456.993 150.744 456.073 152.916 455.645C158.696 454.505 182.859 455.555 191.405 457.318ZM125.676 461.547L128.947 463.966L125.586 467.892C122.014 472.065 119.905 477.562 119.905 482.699C119.905 485.655 119.692 485.833 116.155 485.827C111.606 485.821 105.98 484.339 103.434 482.478C101.621 481.152 101.655 480.934 104.408 476.219C107.706 470.571 119.926 457.938 121.405 458.648C121.955 458.912 123.877 460.217 125.676 461.547ZM178.227 495.293C169.288 497.015 161.905 500.187 161.905 502.308C161.905 504.949 164.374 505.079 171.559 502.819C180.28 500.074 196.457 499.094 205.1 500.785C213.719 502.472 224.186 507.485 235.375 515.287C240.54 518.887 245.191 521.833 245.712 521.833C247.277 521.833 248.843 519.35 248.068 518.097C246.666 515.828 230.316 504.651 223.406 501.238C219.555 499.336 213.93 497.106 210.905 496.282C202.981 494.124 186.838 493.636 178.227 495.293ZM255.459 510.083C255.248 510.771 254.831 513.076 254.533 515.207C254.235 517.338 253.184 519.989 252.198 521.098C249.365 524.285 242.854 526.787 237.329 526.811C233.192 526.829 231.82 526.371 229.905 524.333C226.001 520.178 223.435 520.996 220.54 527.319C218.051 532.756 217.993 532.802 214.103 532.427C208.977 531.934 206.567 530.568 203.327 526.32C200.375 522.449 197.508 521.837 195.952 524.746C195.389 525.798 192.785 527.445 190.166 528.406C184.38 530.529 182.436 532.17 183.237 534.255C184.065 536.414 186.379 536.207 193.323 533.353L199.24 530.92L202.551 533.827C204.372 535.426 207.366 537.017 209.205 537.361C211.792 537.847 212.531 538.472 212.476 540.13C212.374 543.19 215.588 543.476 218.589 540.674C219.968 539.386 222.22 536.421 223.595 534.083C224.97 531.745 226.226 529.833 226.386 529.833C226.546 529.833 227.965 530.505 229.541 531.327C235.287 534.324 246.842 532.407 253.461 527.358C255.367 525.904 257.989 522.626 259.286 520.072L261.645 515.43L263.277 518.585C264.174 520.32 265.245 524.074 265.656 526.928C266.615 533.573 268.241 534.693 274.498 533.019C277.07 532.332 279.394 531.989 279.663 532.258C279.933 532.527 279.197 534.368 278.029 536.347C275.191 541.157 275.244 543.833 278.176 543.833C283.393 543.833 287.643 529.141 283.596 525.096C281.911 523.412 281.656 523.434 277.92 525.583C272.51 528.695 270.905 528.516 270.905 524.801C270.905 517.248 264.73 508.833 259.187 508.833C257.347 508.833 255.67 509.396 255.459 510.083ZM96.111 517.348C91.234 520.819 80.1369 523.03 65.9049 523.364C54.2879 523.638 53.383 523.8 53.097 525.66C52.661 528.488 55.691 529.23 66.79 529.012C79.014 528.773 87.713 527.334 95.111 524.328L101.095 521.896L106.25 524.508C112.85 527.854 123.618 531.517 129.396 532.384C133.701 533.029 133.905 532.949 133.905 530.604C133.905 528.344 133.016 527.88 122.764 524.79C116.636 522.944 109.157 519.948 106.143 518.133C103.129 516.318 100.38 514.872 100.034 514.919C99.688 514.966 97.923 516.059 96.111 517.348ZM367.905 523.191C359.135 528.425 350.1 530.576 348.405 527.833C347.296 526.039 343.67 526.775 338.084 529.928C331.809 533.468 329.05 533.362 323.15 529.353C318.661 526.303 315.39 526.175 311.405 528.892C306.667 532.122 297.796 536.489 293.143 537.881C287.63 539.531 286.011 541.368 288.169 543.526C289.625 544.982 290.386 544.889 297.083 542.431C301.11 540.953 306.948 538.189 310.056 536.288C313.164 534.388 316.089 532.839 316.556 532.846C317.023 532.853 320.056 534.203 323.296 535.846C326.536 537.489 329.952 538.833 330.886 538.833C331.821 538.833 335.379 537.437 338.793 535.731C344.356 532.951 345.308 532.757 347.971 533.86C349.659 534.559 352.75 534.849 355.124 534.53C359.309 533.969 371.247 528.421 375.856 524.896C377.948 523.296 378.113 522.788 376.983 521.427C375.166 519.238 374.221 519.421 367.905 523.191ZM125.405 547.049C116.671 551.435 105.973 553.115 91.116 552.434C80.599 551.952 78.7419 552.094 78.2339 553.419C77.2069 556.095 79.5969 557.164 88.1309 557.846C103.708 559.089 116.418 557.229 129.524 551.788C132.476 550.563 132.978 550.716 138.849 554.637C146.293 559.607 149.691 560.653 161.13 561.49C168.708 562.045 169.938 561.911 170.491 560.468C171.718 557.271 169.193 556.092 160.133 555.633C150.649 555.153 146.247 553.472 138.011 547.186C135.595 545.342 133.12 543.879 132.511 543.934C131.903 543.99 128.705 545.392 125.405 547.049ZM258.952 552.277C257.049 554.569 246.026 557.795 236.334 558.897C226.848 559.975 225.253 560.692 226.297 563.412C227.644 566.921 253.067 563.065 260.698 558.194C262.791 556.858 263.798 557.029 272.198 560.142C283.282 564.25 299.311 568.275 301.397 567.474C303.511 566.663 303.275 564.102 300.974 562.87C299.911 562.301 295.974 561.144 292.224 560.297C284.847 558.632 272.05 554.408 267.705 552.203C264.202 550.426 260.461 550.458 258.952 552.277ZM124.905 567.499C122.768 568.46 117.221 569.275 110.66 569.594C99.55 570.133 97.0359 571.127 98.3189 574.469C98.8779 575.925 100.225 576.057 109.181 575.528C114.804 575.197 121.716 574.228 124.54 573.375C129.599 571.847 129.775 571.867 136.54 574.736C153.609 581.977 173.905 585.336 173.905 580.92C173.905 579.155 171.058 578.104 160.405 575.938C154.355 574.707 145.58 572.12 140.905 570.188C130.175 565.753 129.167 565.584 124.905 567.499Z" fill="#FFC4C4"/>
</svg>
