<svg width="308" height="518" viewBox="0 0 308 518" fill="none" xmlns="http://www.w3.org/2000/svg">
<path fill-rule="evenodd" clip-rule="evenodd" d="M1.64752 1.0508C-2.55548 3.4988 1.6196 25.5598 10.3526 47.0518C13.3146 54.3408 13.3995 54.9707 11.4205 54.9707C10.6085 54.9707 9.20149 56.1038 8.29449 57.4888C5.28249 62.0838 8.49244 74.9416 17.2864 93.5046C21.5054 102.411 21.6886 103.144 20.3426 105.725C18.5016 109.255 18.5165 119.509 20.3765 128.286C23.5445 143.241 32.3215 156.266 48.8145 170.494C57.5625 178.039 58.0346 178.648 57.5406 181.736C57.2536 183.532 57.6006 187.245 58.3116 189.987C59.3846 194.122 59.3796 194.786 58.2806 193.874C57.5526 193.269 55.3106 192.728 53.2996 192.671C47.9416 192.519 45.5354 195.82 46.1624 202.46C46.4234 205.216 46.9686 208.258 47.3736 209.221C47.9456 210.577 47.6225 210.971 45.9385 210.971C39.3625 210.971 36.4475 216.358 37.3365 226.868C38.2155 237.256 38.2206 239.724 37.3746 245.19C35.2036 259.219 47.2535 275.217 64.8765 281.703C72.0855 284.356 73.1655 284.471 90.8975 284.471C106.793 284.471 109.86 284.219 112.679 282.679L115.96 280.888L117.407 284.179C118.849 287.46 118.839 287.485 114.384 291.627C107.92 297.635 100.203 300.083 85.7645 300.707C76.5385 301.105 73.0865 300.862 69.0865 299.534C58.8865 296.146 52.6206 289.452 50.3936 279.564C49.5006 275.602 48.8196 274.471 47.3216 274.471C45.6796 274.471 45.3975 275.203 45.3975 279.471C45.3975 282.853 44.8445 285.024 43.6885 286.18C32.7055 297.163 32.2425 331.711 42.7935 352.934C47.0625 361.521 52.1395 368.031 56.8265 370.927C60.6465 373.288 60.6606 373.323 61.1036 380.96C61.7656 392.412 65.7266 400.15 76.1856 410.43C81.6986 415.848 86.8625 419.805 91.8975 422.469C98.9235 426.186 99.9345 426.438 107.898 426.454C112.573 426.463 117.523 426.146 118.898 425.749C121.208 425.083 121.646 425.54 124.673 431.76C130.962 444.685 131.934 450.814 129.769 463.924C127.803 475.828 130.349 483.663 137.82 488.697C141.712 491.32 150.265 491.774 158.775 489.81C164.976 488.379 165.588 488.803 169.939 497.553C175.141 508.015 183.142 513.641 197.02 516.596C209.055 519.159 227.368 517.168 234.452 512.527C235.805 511.641 238.302 508.453 240.001 505.443L243.088 499.971L248.243 499.955C260.613 499.915 269.9 487.925 263.137 480.725C261.055 478.509 261.033 478.26 262.541 473.948C263.657 470.757 263.963 467.294 263.608 461.895C263.172 455.268 263.344 454.173 264.973 453.156C268.07 451.222 270.211 445.847 270.296 439.787C270.375 434.2 270.431 434.094 273.595 433.5C277.269 432.811 282.474 427.175 283.421 422.861C284.213 419.256 285.322 418.484 291.898 416.952C295.905 416.018 298.416 414.657 301.148 411.938C305.963 407.146 306.129 402.755 301.874 392.754L298.848 385.647L300.874 381.809C301.987 379.698 303.91 376.059 305.148 373.721C309.728 365.069 308.241 338.113 302.484 325.425C299.58 319.025 295.016 313.816 289.456 310.558L285.096 308.003L284.645 290.737C284.144 271.542 283.016 265.873 277.417 254.401C273.433 246.237 267.969 239.662 260.796 234.397L255.752 230.694L261.075 227.784C268.375 223.794 272.493 219.546 275.922 212.471C282.638 198.615 282.066 183.383 274.186 166.286C265.986 148.492 261.106 136.291 259.936 130.652C258.512 123.794 255.705 119.975 252.075 119.959C249.814 119.948 248.22 118.278 241.818 109.209C230.75 93.5267 227.657 88.5638 219.401 73.2378C210.379 56.4908 202.63 37.3156 199.815 24.7766C196.763 11.1806 196.526 10.5227 194.578 10.1477C189.763 9.22072 186.669 18.3677 186.733 33.3357C186.853 61.2727 198.899 100.781 216.325 130.391C226.698 148.016 245.187 169.971 249.657 169.971C251.848 169.971 253.898 174.195 253.898 178.71C253.898 181.986 248.881 188.923 246.492 188.95C243.957 188.978 239.135 185.27 229.046 175.532C204.807 152.134 193.022 131.818 186.923 102.922C184.21 90.0686 184.318 79.3247 187.243 70.7407C189.525 64.0467 189.282 61.9707 186.218 61.9707C184.106 61.9707 180.953 69.4488 179.719 77.3828C178.84 83.0378 178.84 87.1178 179.724 94.3098C180.365 99.5208 181.165 104.502 181.501 105.378C181.944 106.532 181.516 106.971 179.953 106.971C174.57 106.971 173.028 125.75 177.061 142.193C179.042 150.272 179.088 151.116 177.606 152.242C171.851 156.614 172.907 172.731 179.937 187.833C181.565 191.333 182.898 194.347 182.898 194.532C182.898 194.717 181.211 194.155 179.148 193.283C177.086 192.411 171.299 191.476 166.29 191.206L157.181 190.713L156.081 185.945C155.128 181.814 155.242 180.632 156.943 177.113C159.185 172.473 164.145 168.14 169.029 166.556C172.625 165.39 174.048 162.35 171.463 161.358C167.771 159.941 162.701 162.119 157.13 167.516C154.051 170.498 151.462 172.833 151.377 172.705C151.292 172.576 149.727 170.221 147.901 167.471C146.076 164.721 138.443 156.396 130.938 148.971C123.433 141.546 114.954 132.321 112.096 128.471C105.873 120.088 99.2346 106.932 98.3106 101.152C97.8106 98.0266 97.1834 96.9707 95.8284 96.9707C93.5504 96.9707 92.8555 98.0946 92.2835 102.705C92.0335 104.723 91.7176 106.484 91.5816 106.62C91.0366 107.165 66.7935 84.6667 57.8235 75.2927C43.0855 59.8907 20.8455 29.1437 11.9605 11.8887C7.75651 3.72369 5.21949 -0.0612509 3.99249 0.000749148C3.66549 0.0177491 2.61052 0.489798 1.64752 1.0508ZM22.4686 39.6028C41.3636 66.8888 57.3935 84.8248 81.1475 105.26C91.6635 114.307 92.8975 115.71 92.8975 118.618C92.8975 123.424 97.6135 137.572 101.607 144.75C103.529 148.204 107.491 154.122 110.411 157.901C117.655 167.276 117.898 167.859 117.898 175.924V183.009L115.148 182.341C110.596 181.236 102.499 177.417 96.2706 173.436C78.0356 161.782 50.5046 134.694 35.4446 113.588C25.8256 100.109 12.8975 71.3427 12.8975 63.4187C12.8975 58.0037 15.9896 61.4458 22.6546 74.2808C35.7476 99.4948 53.2075 124.223 68.0355 138.551C87.3785 157.241 112.859 172.552 111.718 164.8C111.495 163.29 109.556 161.69 105.353 159.546C88.9036 151.16 64.8766 129.446 52.1556 111.471C37.6816 91.0177 25.9915 70.0066 17.1815 48.6096C12.5985 37.4786 6.89752 20.0138 6.89752 17.1038C6.89752 16.2568 8.86342 18.7507 11.2664 22.6487C13.6684 26.5457 18.7096 34.1748 22.4686 39.6028ZM201.744 49.7368C205.32 58.5518 216.221 79.9297 222.125 89.7097C228.247 99.8477 241.883 119.585 245.36 123.336C247.447 125.588 247.54 126.403 247.162 139.091C246.878 148.623 247.173 153.981 248.185 157.721C248.966 160.608 249.232 162.971 248.776 162.971C248.321 162.971 244.761 159.258 240.864 154.721C216.792 126.694 199.889 89.0017 193.437 48.9707C191.851 39.1277 191.385 25.8167 192.585 24.6167C192.963 24.2387 194.698 28.5517 196.441 34.1997C198.183 39.8487 200.569 46.8408 201.744 49.7368ZM30.2105 115.899C41.9635 133.573 68.1546 160.199 88.2586 174.909C96.1746 180.702 109.011 187.007 114.526 187.812C118.906 188.452 119.092 188.624 120.794 193.657C121.758 196.509 123.802 200.739 125.336 203.057C127.633 206.528 127.797 207.137 126.262 206.506C125.237 206.085 123.048 205.384 121.398 204.948C103.02 200.093 77.0676 186.298 59.1656 171.868C44.9746 160.427 35.7085 150.187 31.1185 140.871C28.8425 136.251 26.5234 130.446 25.9634 127.971C25.0164 123.783 24.4615 108.971 25.2505 108.971C25.4455 108.971 27.6775 112.089 30.2105 115.899ZM185.921 120.971C190.166 133.436 196.856 146.382 204.225 156.386C212.04 166.996 236.17 191.021 241.535 193.534C245.414 195.35 245.707 195.784 246.233 200.471C246.542 203.221 247.086 206.651 247.439 208.092C248.023 210.472 247.758 210.775 244.566 211.373C240.904 212.061 234.898 217.733 234.898 220.506C234.898 222.335 233.654 222.33 227.552 220.479C213.845 216.321 196.255 203.244 188.35 191.334C183.647 184.249 179.751 172.334 179.566 164.471C179.346 155.112 180.62 154.615 184.595 162.507C194.394 181.963 211.465 202.459 222.094 207.527C228.602 210.631 231.757 206.631 225.648 203.021C218.742 198.941 214.46 195.198 208.426 187.971C190.29 166.247 180.794 144.813 180.516 124.971C180.411 117.438 181.38 110.08 182.341 111.103C182.532 111.305 184.142 115.746 185.921 120.971ZM107.308 131.364C110.559 135.823 119.793 145.996 127.827 153.971C147.539 173.539 152.127 182.561 152.231 201.971C152.288 212.503 151.365 215.345 142.818 230.971C129.712 254.932 127.218 263.987 128.217 283.971C128.765 294.931 128.716 295.331 127.188 292.483C126.306 290.839 124.204 285.889 122.518 281.483C119.538 273.697 119.453 273.005 119.478 256.971C119.5 243.398 119.882 239.03 121.636 232.344C124.425 221.715 125.859 218.447 130.252 212.712C134.464 207.214 134.632 206.173 131.867 202.658C126.874 196.312 124.565 188.96 123.933 177.394C123.263 165.129 123.633 166.02 113.646 152.55C106.549 142.978 103.246 136.682 100.758 127.981C98.6446 120.593 98.4806 118.621 100.207 121.364C100.862 122.405 104.057 126.905 107.308 131.364ZM256.409 138.971C257.33 141.996 261.451 151.896 265.566 160.971C273.896 179.342 275.372 185.06 274.575 195.872C273.498 210.48 264.888 221.803 251.958 225.618C245.276 227.59 241.54 226.655 241.1 222.9C240.699 219.485 243.483 217.175 249.311 216.086C256.112 214.816 256.662 213.922 254.145 208.241C252.982 205.617 251.763 202.215 251.435 200.681C250.761 197.522 253.197 191.417 257.285 186.027C260.644 181.597 260.577 178.796 256.822 167.074C253.248 155.919 251.796 145.146 252.634 136.006C253.269 129.086 253.437 129.217 256.409 138.971ZM70.6165 187.353C86.9725 197.924 115.406 210.971 122.086 210.971C124.361 210.971 124.354 211.511 122.039 214.817C121.016 216.277 119.405 219.834 118.458 222.721C117.512 225.608 116.393 227.971 115.973 227.971C113.645 227.971 102.399 223.342 94.9605 219.323C79.6015 211.024 68.4385 200.846 64.7635 191.792C63.0985 187.692 62.3515 182.971 63.3665 182.971C63.6245 182.971 66.8865 184.943 70.6165 187.353ZM62.3795 199.568C63.4455 201.547 67.5296 206.159 71.4566 209.818C81.9536 219.6 95.0055 226.951 113.148 233.296C114.255 233.683 114.892 234.931 114.883 236.69C114.854 241.941 113.98 242.332 103.744 241.689C88.0804 240.705 76.0244 235.232 64.8504 224.032C57.8494 217.015 53.0896 209.755 51.8306 204.174C50.7406 199.342 51.5525 197.971 55.5045 197.971C57.3705 197.971 58.8975 197.521 58.8975 196.971C58.8975 194.895 60.5115 196.099 62.3795 199.568ZM169.159 196.908C173.4 197.455 178.138 198.934 181.868 200.875C185.139 202.578 188.604 203.971 189.568 203.971C190.532 203.971 193.251 205.865 195.609 208.179C200.718 213.193 200.964 215.387 197.398 224.163C193.82 232.968 194.051 234.233 200.483 240.976C207.293 248.116 208.267 252.087 205.01 259.451C201.73 266.865 202.17 271.733 206.648 277.577C209.863 281.772 210.469 283.398 210.898 288.962C211.309 294.295 211.732 295.516 213.277 295.81C219.058 296.91 217.978 283.352 211.597 274.721C207.943 269.78 207.769 268.39 210.041 262.318L212.139 256.711L218.044 257.328C227.72 258.34 231.12 260.943 233.898 269.471C236.056 276.095 241 282.971 243.604 282.971C246.25 282.971 246.071 279.914 243.149 275.224C241.52 272.61 239.167 267.877 237.921 264.708C234.473 255.938 230 253 217.766 251.465C213.418 250.92 213.038 250.625 211.512 246.631C210.619 244.291 207.865 240.392 205.393 237.966C202.921 235.54 200.898 232.896 200.898 232.091C200.898 230.897 205.59 218.084 206.342 217.225C206.46 217.089 209.074 218.342 212.15 220.008C218.269 223.322 231.122 227.971 234.165 227.971C235.22 227.971 237.227 228.871 238.625 229.971C240.024 231.071 242.057 231.971 243.143 231.971C246.097 231.971 256.362 237.747 261.595 242.353C274.51 253.722 280.996 274.623 279.348 299.555L278.681 309.64L281.54 311.835C283.112 313.043 286.419 315.5 288.891 317.297C296.625 322.919 300.027 331.024 301.997 348.526C303.449 361.432 302.388 367.756 297.418 375.807C293.177 382.678 292.98 386.22 296.379 394.471C299.351 401.687 299.561 406.061 297.044 408.339C296.024 409.262 292.106 410.872 288.337 411.917C281.365 413.85 279.285 415.505 278.209 419.971C277.877 421.346 276.74 423.709 275.683 425.221C273.225 428.737 269.583 428.811 263.302 425.471C257.65 422.466 256.43 422.405 251.898 424.903C243.949 429.284 244.323 429.275 235.562 425.319C224.322 420.244 217.944 420.14 208.596 424.876C202.344 428.044 201.602 428.199 197.943 427.103C193.599 425.801 191.593 423.603 185.963 413.971C183.664 410.037 180.497 406.287 177.942 404.471C173.976 401.653 173.167 401.474 164.56 401.512C156.151 401.55 154.7 401.866 146.898 405.359C136.936 409.818 131.213 409.947 123.327 405.889C116.539 402.396 114.427 399.132 114.45 392.17C114.473 385.316 116.541 381.704 122.051 378.893C124.679 377.552 125.898 376.261 125.898 374.82C125.898 372.965 125.472 372.778 122.388 373.279C107.642 375.672 103.489 398.912 116.138 408.265C117.93 409.591 120.233 410.971 121.255 411.333C123.026 411.96 123.034 412.12 121.405 414.731C118.716 419.041 116.143 420.813 111.605 421.48C102.441 422.827 87.6755 415.191 77.4485 403.817C69.9375 395.462 67.1626 388.766 66.5496 377.517C66.2316 371.689 65.8084 370.314 63.9334 369.017C54.1034 362.221 48.8585 354.846 44.3445 341.471C41.0595 331.738 39.9026 314.704 41.8546 304.785C43.0936 298.486 46.2766 290.971 47.7066 290.971C48.1286 290.971 50.1325 292.955 52.1595 295.38C55.9255 299.885 66.3184 305.959 70.3074 305.985C74.8594 306.014 76.6076 307.039 76.1536 309.41C75.0866 314.995 86.5875 322.844 99.1475 325.103C111.916 327.399 126.014 322.83 131.604 314.585C133.137 312.322 134.956 310.111 135.645 309.671C137.29 308.622 137.227 305.023 135.415 296.471C133.489 287.374 133.468 269.123 135.377 261.431C136.19 258.153 141.455 246.366 147.079 235.238L157.304 215.005L157.72 205.488C158.195 194.624 157.205 195.367 169.159 196.908ZM53.3736 219.501C64.4576 235.594 83.0315 245.947 103.648 247.522L112.898 248.229V255.021V261.812L109.648 262.612C104.611 263.852 84.8864 263.204 76.8814 261.535C65.2454 259.109 55.3286 251.982 48.0176 240.793C40.8636 229.845 40.1205 219.875 46.1785 216.128C47.9495 215.033 49.4355 214.099 49.4815 214.054C49.5275 214.008 51.2786 216.459 53.3736 219.501ZM63.3975 262.709C73.0195 267.498 78.6435 268.46 97.0665 268.466L113.737 268.471L114.108 271.654C114.434 274.448 114.025 275.093 110.763 276.926C103.213 281.169 78.0835 280.631 65.5955 275.959C53.4325 271.409 43.9394 260.527 43.0794 250.15L42.6155 244.557L50.0064 252.14C54.8214 257.08 59.4885 260.764 63.3975 262.709ZM125.276 301.536L129.156 309.092L126.276 312.123C120.786 317.903 116.444 319.466 105.898 319.457C94.6695 319.447 87.8916 317.004 82.6976 311.095L79.5125 307.471L87.4556 306.748C102.31 305.396 112.852 301.841 117.88 296.489C119.181 295.104 120.506 293.973 120.822 293.975C121.139 293.978 123.143 297.38 125.276 301.536ZM155.318 302.045C150.958 303.312 144.256 310.472 142.439 315.805C141.591 318.292 140.898 323.12 140.898 326.534C140.898 332.012 140.611 332.929 138.457 334.341C134.686 336.812 130.017 344.297 128.914 349.642C128.361 352.319 128.252 356.699 128.67 359.471C129.341 363.929 129.692 364.471 131.91 364.471C134.353 364.471 134.398 364.327 134.398 356.471C134.398 349.232 134.683 348.05 137.398 344.045C139.048 341.611 141.748 338.874 143.398 337.963C146.354 336.331 146.399 336.183 146.457 327.889C146.523 318.307 147.806 315.014 153.381 310.119C156.113 307.72 157.91 306.971 160.932 306.971C164.443 306.971 164.898 306.698 164.898 304.588C164.898 301.213 161.391 300.282 155.318 302.045ZM169.264 314.889C165.398 317.246 163.149 320.356 161.859 325.129C161.315 327.14 159.078 330.956 156.886 333.608C151.752 339.821 150.537 343.695 151.129 351.974C152.014 364.34 159.812 371.894 170.289 370.536C185.953 368.507 187.166 368.577 194.896 371.97C205.321 376.546 211.029 375.237 216.648 366.981C218.588 364.131 218.898 362.378 218.898 354.261C218.898 346.199 219.271 344.058 221.498 339.351C224.94 332.075 224.243 328.053 218.554 322.364C212.081 315.891 201.28 313.272 194.44 316.518C191.345 317.987 190.937 317.936 186.389 315.518C180.51 312.392 173.765 312.144 169.264 314.889ZM184.398 320.971C190.824 324.351 192.674 324.608 195.457 322.503C199.922 319.125 211.365 321.935 215.727 327.48C218.468 330.965 218.454 332.852 215.648 338.19C213.778 341.749 213.437 343.821 213.629 350.471C213.899 359.833 212.731 364.171 209.191 366.955C205.755 369.658 202.667 369.495 196.058 366.261C189.995 363.295 184.537 362.893 171.181 364.427L163.966 365.255L160.957 362.034C157.979 358.846 155.914 353.599 155.904 349.189C155.895 345.679 158.68 339.8 161.956 336.416C163.582 334.735 165.94 330.685 167.195 327.416C169.005 322.701 170.194 321.109 172.938 319.723C177.468 317.434 177.727 317.462 184.398 320.971ZM262.648 324.543C261.136 325.364 259.898 326.491 259.898 327.048C259.898 329.46 254.914 332.971 251.491 332.971C247.274 332.971 243.277 334.654 242.266 336.856C241.858 337.744 241.372 343.646 241.185 349.971C240.998 356.296 240.766 363.171 240.671 365.248C240.537 368.169 241.115 369.642 243.225 371.748C245.885 374.403 246.248 374.471 257.713 374.471C267.225 374.471 269.984 374.805 272.15 376.221C278.239 380.201 286.916 376.697 290.791 368.692C293.556 362.98 293.451 358.224 290.398 350.971C288.498 346.456 287.898 343.27 287.898 337.688C287.898 330.98 287.66 330.118 285.148 327.722C283.636 326.279 281.131 324.62 279.583 324.035C275.538 322.507 265.867 322.797 262.648 324.543ZM277.645 329.51C282.443 331.514 282.95 332.49 282.301 338.471C281.778 343.301 282.382 346.072 286.234 356.471C288.104 361.522 287.41 365.211 283.876 368.995C280.755 372.335 277.613 372.764 273.262 370.443C271.098 369.289 267.807 368.983 259.798 369.191C246.331 369.54 245.369 368.947 246.532 361.023C246.981 357.97 247.359 351.888 247.373 347.508L247.398 339.545L255.398 337.982C263.333 336.432 263.402 336.392 263.898 333.042C264.646 327.988 270.441 326.5 277.645 329.51ZM221.587 368.762C220.696 369.747 219.456 373.009 218.831 376.012C218.207 379.014 215.748 384.778 213.368 388.82C206.611 400.294 206.5 407.934 213.01 413.412C218.077 417.675 222.334 418.391 231.954 416.596C239.359 415.214 240.797 414.589 243.648 411.511C247.294 407.573 247.594 405.568 245.341 400.189C244.484 398.144 243.559 393.546 243.286 389.971C243.014 386.396 242.573 382.022 242.305 380.25C240.978 371.465 226.438 363.402 221.587 368.762ZM233.175 375.722C236.374 378.617 237.194 381.105 237.428 388.63C237.552 392.601 238.467 398.112 239.461 400.877C241.183 405.665 241.186 405.996 239.52 407.836C237.387 410.194 226.333 412.463 221.446 411.546C219.416 411.165 217.101 409.775 215.846 408.184C212.876 404.416 213.712 399.583 218.825 390.977C222.077 385.504 224.898 377.249 224.898 373.21C224.898 372.135 231.389 374.105 233.175 375.722ZM166.41 418.324C168.719 426.098 168.291 432.838 164.898 442.134C161.596 451.18 161.172 456.298 163.301 461.393C165.405 466.428 171.64 472.801 177.335 475.737C181.915 478.098 183.828 478.403 197.402 478.936C212.406 479.525 212.408 479.525 219.065 483.248C226.943 487.653 231.427 487.977 242.898 484.971C251.806 482.636 255.841 482.478 258.417 484.361C263.053 487.751 254.22 494.901 245.338 494.949C240.252 494.977 238.43 496.305 235.072 502.436C231.191 509.518 227.466 511.122 213.466 511.739C200.75 512.301 194.081 511.163 186.578 507.154C180.313 503.805 176.16 498.98 174.636 493.28C173.172 487.808 168.59 483.807 163.675 483.709C161.873 483.673 157.246 484.22 153.394 484.923C147.335 486.031 145.887 485.993 142.666 484.647C140.618 483.792 137.999 481.602 136.848 479.781C134.941 476.768 134.824 475.664 135.542 467.471C137.212 448.403 136.112 441.119 129.847 429.754C127.016 424.619 125.969 417.776 127.662 415.471C128.066 414.921 131.323 414.402 134.898 414.318C139.834 414.202 143.413 413.321 149.771 410.656L158.144 407.146L161.533 410.23C163.687 412.19 165.465 415.141 166.41 418.324ZM174.978 409.379C177.153 410.857 179.805 414.237 181.846 418.129C183.674 421.617 186.224 425.611 187.513 427.004C189.617 429.278 189.748 429.932 188.792 433.393C187.619 437.643 188.279 442.874 190.542 447.25C191.884 449.844 191.831 450.477 189.956 454.35C188.464 457.433 187.898 460.578 187.898 465.787C187.898 471.589 187.602 472.971 186.358 472.971C184.015 472.971 176.746 469.076 173.558 466.111C167.188 460.188 166.44 454.717 170.566 444.244C172.723 438.77 173.25 435.738 173.316 428.434C173.39 420.265 173.101 418.801 170.317 413.184C167.345 407.187 167.312 406.971 169.336 406.971C170.49 406.971 173.028 408.055 174.978 409.379ZM222.898 435.248C222.898 446.114 221.491 448.411 215.262 447.709C208.858 446.987 208.348 446.226 208.733 437.972L209.068 430.797L213.233 428.906C215.524 427.866 218.636 427.005 220.148 426.993L222.898 426.971V435.248ZM236.135 431.72L241.872 434.471L241.885 439.787C241.907 448.889 239.884 450.504 232.608 447.195L228.816 445.471L228.53 437.221C228.341 431.813 228.614 428.97 229.32 428.97C229.913 428.969 232.98 430.206 236.135 431.72ZM261.648 430.96C264.626 432.776 264.898 433.365 264.898 438.006C264.898 447.765 260.038 452.117 253.232 448.452C248.696 446.009 248.23 445.279 247.436 439.366L246.75 434.261L251.074 431.655C256.318 428.495 257.479 428.418 261.648 430.96ZM202.898 437.885C202.898 443.859 201.119 446.494 197.672 445.629C195.062 444.974 193.935 442.629 193.911 437.803C193.887 433.129 194.625 432.392 198.918 432.802L202.898 433.181V437.885ZM237.245 454.291C241.974 454.496 242.636 455.551 242.797 463.156C242.915 468.677 244.269 472.657 247.031 475.606L249.03 477.741L241.713 479.309C230.011 481.817 227.736 481.78 223.183 479.004L219.97 477.044L221.546 473.269C222.716 470.468 223.007 467.3 222.672 460.983C222.116 450.478 223.173 449.051 229.224 452.138C231.352 453.223 234.962 454.193 237.245 454.291ZM201.885 457.406C203.826 466.759 201.64 473.971 196.863 473.971H193.898L193.901 466.221C193.904 460.26 194.363 457.721 195.887 455.221C198.818 450.413 200.565 451.05 201.885 457.406ZM214.207 453.898C216.203 454.657 216.712 455.729 217.25 460.313C217.655 463.753 217.429 467.25 216.648 469.643C215.504 473.146 215.059 473.496 211.398 473.766L207.398 474.062V462.971C207.398 450.686 207.034 451.171 214.207 453.898ZM257.133 457.471C258.214 458.942 258.056 469.426 256.907 472.446C256.062 474.671 255.624 474.894 253.907 473.976C250.255 472.021 248.732 468.322 248.162 460.011L247.613 451.981L252.004 454.226C254.42 455.461 256.729 456.921 257.133 457.471Z" fill="#FFC4C4"/>
</svg>
