<svg width="372" height="469" viewBox="0 0 372 469" fill="none" xmlns="http://www.w3.org/2000/svg">
<path fill-rule="evenodd" clip-rule="evenodd" d="M173.225 1.43843C146.478 4.47043 115.293 12.9985 89.5953 24.3075C69.9053 32.9735 58.1033 41.6444 51.0063 52.6604L47.5824 57.9744L53.9143 64.1604C63.0233 73.0584 75.1833 89.7474 82.9453 104.004C90.8953 118.604 93.6343 125.993 94.4143 134.944L94.9903 141.542L86.6073 146.046C52.5613 164.342 50.1864 165.934 41.4794 176.302C33.2874 186.056 29.3724 194.41 28.8754 203.195C28.3944 211.706 30.0284 219.54 33.2854 224.34C34.6274 226.317 35.7084 228.252 35.6874 228.64C35.6664 229.028 33.8883 230.564 31.7353 232.052C26.4803 235.686 24.6584 239.612 24.0054 248.713C23.7044 252.911 23.0124 256.909 22.4694 257.596C21.8474 258.382 18.8914 258.846 14.5044 258.846C7.99639 258.846 7.33338 259.054 4.64038 261.937C-2.69662 269.791 -1.08566 285.821 7.72534 292.625C14.8823 298.151 24.7033 297.996 34.0803 292.208C41.8573 287.408 46.8283 286.93 59.2143 289.792C68.6843 291.981 68.7244 292.002 68.0264 294.668C65.4384 304.562 70.4993 317.092 78.8243 321.397C82.1893 323.137 88.2044 323.258 94.3594 321.708C99.6054 320.387 101.098 321.305 102.189 326.526C102.747 329.196 102.482 329.904 100.539 330.933C99.2663 331.607 95.0753 334.711 91.2253 337.83C84.1433 343.568 63.0243 358.571 59.0843 360.663C57.5063 361.501 54.6363 361.518 48.1883 360.729C27.5993 358.211 6.72431 365.71 3.76831 376.686C0.95331 387.14 11.4374 398.545 25.5884 400.422L30.7253 401.104V405.793C30.7253 412.818 33.3793 420.458 37.3453 424.847C42.2583 430.286 47.8853 432.227 57.0323 431.64C69.9233 430.813 79.2504 423.883 82.3274 412.846C86.7654 396.933 90.3054 391.763 104.89 379.896C109.656 376.019 113.722 372.846 113.927 372.846C114.132 372.846 114.374 374.697 114.464 376.959C114.554 379.222 115.487 382.809 116.537 384.931C118.383 388.662 118.386 388.843 116.623 390.438C114.108 392.715 112.439 398.266 113.212 401.785C113.626 403.674 116.096 406.684 120.157 410.249C126.019 415.395 126.507 416.15 127.152 421.064C127.98 427.378 129.678 430.253 133.856 432.414C138.489 434.81 143.072 433.537 148.673 428.298C151.269 425.869 154.968 423.225 156.891 422.421C160.009 421.118 160.707 421.135 163.307 422.57C173.701 428.306 175.2 428.845 180.644 428.802C190.866 428.722 197.845 424.772 205.084 414.971C212.494 404.939 217.622 400.578 225.225 397.846C230.092 396.097 233.586 393.995 236.86 390.846C242.624 385.302 244.222 380.264 243.272 370.622L242.608 363.89L251.917 367.265C257.036 369.121 263.925 371.847 267.225 373.322C270.525 374.798 276.067 377.085 279.54 378.405C289.388 382.148 299.845 387.993 300.774 390.274C301.238 391.413 302.321 394.904 303.18 398.029C305.934 408.048 311.712 412.846 321.025 412.846C325.433 412.846 327.183 412.297 330.548 409.859C337.549 404.788 339.172 400.404 339.441 385.846L339.672 373.346L343.652 372.656C349.029 371.724 351.159 370.455 354.335 366.29C357.535 362.095 358.55 354.877 356.72 349.332C352.703 337.158 336.816 331.067 320.302 335.368C317.089 336.205 313.212 337.627 311.686 338.528C309.277 339.951 308.486 339.989 305.661 338.82C301.592 337.134 289.465 329.254 280.073 322.193L272.921 316.816L276.573 310.631C280.944 303.228 285.177 298.812 292.215 294.309C298 290.609 301.75 286.617 303.564 282.229L304.756 279.346L322.491 279.854C339.974 280.355 340.32 280.408 346.933 283.604C355.012 287.509 362.019 287.976 365.963 284.873C374.029 278.528 373.494 263.097 364.932 255.162C362.755 253.145 362.512 252.442 363.504 251.038C368.322 244.219 369.858 235.964 367.725 228.346C366.111 222.58 360.371 216.127 355.346 214.427C348.697 212.178 345.278 213.695 336.683 222.704C328.335 231.454 323.934 233.564 316.612 232.327C313.377 231.78 312.725 231.274 312.725 229.305C312.725 227.452 313.732 226.494 317.371 224.884C323.902 221.995 343.312 202.238 346.881 194.846C352.302 183.618 353.215 167.949 349.335 152.724C344.538 133.9 339.407 126.285 328.005 121.067C320.507 117.635 303.542 114.047 289.9 113.007L281.225 112.346L279.954 104.846C278.197 94.4744 278.771 35.6304 280.742 24.0134L282.156 15.6804L279.698 13.8264C273.781 9.36237 255.306 4.04541 236.225 1.31441C223.612 -0.490589 189.654 -0.424565 173.225 1.43843ZM225.225 5.90841C239.248 7.12541 254.123 9.95343 264.83 13.4384C276.728 17.3114 276.261 16.5194 274.348 29.6054C272.428 42.7444 272.106 83.9694 273.803 99.4904C274.395 104.911 274.958 110.416 275.053 111.723C275.213 113.932 274.62 114.224 266.671 115.849C258.775 117.462 245.426 121.771 233.225 126.645C230.475 127.744 223.05 129.582 216.725 130.73C210.4 131.878 200.5 133.722 194.725 134.827C165.375 140.442 132.948 143.187 110.725 141.937L100.225 141.346L99.6113 133.346C98.8553 123.482 95.2063 113.741 86.7003 98.8814C80.1233 87.3904 67.9063 70.4934 60.3403 62.4234C57.8023 59.7154 55.7253 56.8835 55.7253 56.1305C55.7253 54.0385 64.5563 45.0455 70.7253 40.8545C85.1503 31.0545 112.236 20.2214 139.225 13.4574C167.25 6.43336 199.08 3.63941 225.225 5.90841ZM308.435 121.305C331.299 125.822 336.771 130.261 342.541 148.974C345.786 159.5 346.861 169.686 345.664 178.596C344.081 190.392 341.027 195.691 328.662 208.096C322.769 214.008 317.509 218.846 316.972 218.846C316.413 218.846 315.977 214.903 315.949 209.596C315.893 199.138 313.794 191.713 308.869 184.556C299.462 170.882 285.271 164.893 262.225 164.87C252.073 164.859 250.363 165.153 240.05 168.685C233.903 170.789 224.903 174.796 220.05 177.588C190.552 194.558 119.018 228.472 116.993 226.447C116.761 226.216 119.869 224.124 123.898 221.798C152.117 205.512 177.81 184.863 206.308 155.566C222.276 139.151 227.177 135.534 241.254 129.782C267.254 119.156 285.747 116.823 308.435 121.305ZM198.432 155.216C184.839 168.932 179.465 173.72 177.225 174.111C175.575 174.4 171.075 175.332 167.225 176.183C156.073 178.649 121.267 182.144 115.294 181.398L110.005 180.737L109.446 173.542C108.978 167.536 105.953 156.989 102.361 148.846C101.785 147.539 103.915 147.386 118.962 147.659C145.029 148.13 173.049 145.148 205.725 138.422C217.789 135.939 217.985 135.488 198.432 155.216ZM97.3093 152.009C100.712 158.589 102.903 166.653 103.702 175.532C104.156 180.584 104.824 185.197 105.186 185.782C106.646 188.146 147.761 185.839 167.225 182.302C170.123 181.775 170.056 181.911 165.225 186.288C162.475 188.78 157.149 192.962 153.389 195.582C149.629 198.202 144.004 202.173 140.889 204.405C132.164 210.658 106.341 225.673 98.7714 228.894C79.3274 237.168 64.9303 238.015 51.5693 231.67C39.0963 225.746 34.4003 218.852 34.2883 206.296C34.2333 200.116 34.6804 198.328 37.9114 191.796C43.5654 180.37 54.4333 169.716 67.2253 163.061C72.7253 160.199 80.6003 155.87 84.7253 153.441C88.8503 151.012 93.0013 148.984 93.9493 148.935C94.9283 148.885 96.3813 150.214 97.3093 152.009ZM266.725 170.756C266.725 173.983 251.803 196.91 248.141 199.309C245.059 201.329 243.78 201.258 236.314 198.652C230.169 196.508 229.924 196.498 225.404 198.224C222.484 199.34 219.149 201.805 216.35 204.918C213.018 208.624 211.214 209.847 209.072 209.852C207.506 209.855 204.529 210.328 202.456 210.904C194.73 213.049 187.808 223.846 194.158 223.846C195.739 223.846 196.82 223.122 197.247 221.777C198.315 218.411 203.59 215.854 209.475 215.85C213.409 215.847 215.125 215.369 216.321 213.942C225.251 203.282 228.064 201.792 234.932 204.082L239.225 205.513L239.331 211.429C239.389 214.683 239.957 218.626 240.593 220.191C241.47 222.352 241.464 223.984 240.569 226.974C239.267 231.319 240.337 233.592 243.173 232.504C246.545 231.21 247.604 224.161 245.569 216.551C243.891 210.278 244.96 207.485 250.216 204.404C253.296 202.599 256.246 199.488 259.554 194.556C266.859 183.665 271.725 174.964 271.725 172.792C271.725 170.415 273.372 170.343 281.19 172.379C292.607 175.353 301.897 182.359 306.538 191.497C310.992 200.265 311.697 213.007 308.265 222.731C307.418 225.133 306.725 228.375 306.725 229.937C306.725 231.499 305.038 235.83 302.975 239.562L299.225 246.346L299.131 262.972C299.02 282.627 298.818 283.107 287.492 290.569C280.765 295 278.357 297.705 269.524 310.748C266.153 315.725 262.931 317.875 257.814 318.561C254.351 319.025 252.737 318.457 245.534 314.234C237.542 309.549 236.96 309.372 229.483 309.372C225.216 309.372 221.725 309.06 221.725 308.677C221.725 308.295 223.164 306.958 224.922 305.706C228.368 303.252 229.896 303.142 243.757 304.354C251.727 305.052 252.624 304.931 257.38 302.521C266.872 297.711 276.066 284.213 276.172 274.932C276.217 271.041 275.931 270.346 274.285 270.346C272.797 270.346 271.962 271.631 270.708 275.846C267.474 286.716 261.869 293.975 253.89 297.628C248.771 299.971 248.011 300.06 242.205 298.99C225.917 295.989 220.512 298.585 212.762 313.129C209.033 320.126 206.732 320.886 197.898 318.041C186.914 314.503 176.273 315.619 178.003 320.128C178.464 321.33 180.083 321.691 184.915 321.667C188.863 321.648 193.436 322.425 197.132 323.741C200.38 324.899 204.251 325.846 205.733 325.846C208.389 325.846 208.438 325.967 209.088 334.096C209.45 338.633 210.02 343.583 210.353 345.096C210.861 347.405 210.626 347.846 208.889 347.846C207.75 347.846 205.596 348.403 204.101 349.084C201.93 350.074 201.3 350.07 200.964 349.063C199.839 345.689 190.765 343.684 186.631 345.896C185.092 346.72 184.106 346.504 182.062 344.896C177.404 341.232 170.172 342.433 165.205 347.695L162.348 350.722L159.002 347.784C155.212 344.456 151.253 344.005 146.666 346.376C144.352 347.573 143.243 347.659 141.579 346.768C138.897 345.333 133.062 346.231 130.601 348.458C128.854 350.039 128.599 350.042 126.896 348.501C123.598 345.516 116.116 347.149 113.485 351.429C112.971 352.266 111.501 351.496 108.665 348.904L104.585 345.174L106.155 339.116C109.104 327.735 107.977 320.581 102.606 316.595C100.139 314.764 99.5863 314.733 93.1063 316.064C84.7673 317.777 80.8463 316.967 77.3463 312.808C72.3503 306.87 71.5154 298.988 75.0724 291.346C80.2404 280.245 80.8853 276.771 80.6893 261.114C80.4283 240.316 80.2133 241.137 86.3873 239.342C89.2263 238.517 92.1793 238.083 92.9493 238.378C96.5403 239.756 126.696 230.515 143.725 222.818C154.963 217.738 214.66 187.503 219.762 184.306C229.495 178.208 240.328 173.74 251.225 171.331C258.277 169.772 266.725 169.459 266.725 170.756ZM357.371 221.983C360.824 225.227 362.725 230.138 362.725 235.813C362.725 241.417 361.941 243.425 357.58 248.99C353.915 253.668 353.714 257.846 357.154 257.846C360.233 257.846 362.526 260.142 364.975 265.677C367.323 270.987 366.682 275.98 363.204 279.458C359.983 282.679 357.866 282.486 348.351 278.104L340.225 274.363L322.725 273.854L305.225 273.346L304.384 265.191C303.416 255.795 304.585 248.47 308.03 242.346L310.281 238.346L319.419 237.766C330.315 237.074 331.613 236.384 341.379 226.095C348.123 218.989 348.721 218.595 351.83 219.217C353.645 219.58 356.138 220.824 357.371 221.983ZM46.8253 235.801C53.8693 239.616 62.5514 241.846 70.3584 241.846H76.5724L74.9763 245.046C73.5703 247.864 73.5254 249.57 74.5984 259.359C75.8584 270.838 75.3613 275.995 72.2873 283.351C70.9393 286.578 70.7874 286.648 67.0624 285.753C55.7794 283.041 52.8863 282.682 45.3983 283.062C38.0893 283.432 36.5973 283.866 31.2843 287.161C21.4163 293.281 11.8504 291.856 7.63037 283.636C4.21637 276.986 5.86136 265.853 10.4644 264.452C11.4334 264.157 14.6004 263.943 17.5044 263.977C26.6844 264.084 29.7253 260.54 29.7253 249.731C29.7253 246.348 30.3823 242.477 31.2363 240.825C32.5433 238.297 39.0634 232.846 40.7804 232.846C41.1044 232.846 43.8253 234.176 46.8253 235.801ZM207.392 235.513C207.025 235.879 206.725 236.974 206.725 237.945C206.725 239.729 207.591 240.167 213.462 241.348C217.199 242.1 225.222 249.432 226.842 253.575C227.438 255.099 228.51 259.644 229.224 263.674C230.684 271.908 233.052 275.29 238.39 276.764C242.84 277.993 247.225 276.757 247.225 274.274C247.225 272.75 246.3 272.223 242.815 271.758C237.345 271.028 234.725 268.118 234.725 262.773C234.725 253.122 226.652 240.985 217.457 236.811C213.187 234.873 208.621 234.284 207.392 235.513ZM167.317 246.375C159.722 248.986 156.998 254.357 158.861 263.046C159.827 267.547 159.707 268.274 157.446 271.691C152.185 279.641 153.316 287.001 160.31 290.319C163.648 291.903 165.02 292.001 170.988 291.077C178.943 289.846 181.963 290.49 188.492 294.815C195.075 299.175 199.373 300.287 204.407 298.932C211.275 297.082 217.697 288.155 217.719 280.425C217.722 279.368 216.322 275.625 214.608 272.106C212.11 266.979 211.614 264.941 212.109 261.845C212.926 256.736 211.495 253.301 207.5 250.781C204.542 248.915 203.24 248.776 194.046 249.343C186.142 249.83 183.235 249.646 181.046 248.518C175.529 245.679 171.275 245.015 167.317 246.375ZM110.725 250.846C108.448 252.093 105.189 252.777 101.398 252.804C96.3203 252.841 95.1953 253.222 92.6483 255.769C88.9163 259.501 88.5603 266.095 91.8633 270.294L94.0004 273.011L91.8633 276.815C88.6073 282.608 89.0154 287.336 93.1254 291.446C98.1884 296.509 104.327 296.5 112.725 291.42C115.75 289.589 119.157 287.807 120.296 287.458C123.265 286.55 128.224 281.422 130.239 277.175C132.391 272.64 131.894 260.976 129.338 256.052C125.848 249.328 117.674 247.042 110.725 250.846ZM176.762 252.865C182.235 255.657 188.845 256.377 195.142 254.866C199.534 253.812 200.925 253.832 203.329 254.981C206.059 256.285 206.256 256.797 206.761 263.891C207.14 269.21 207.946 272.468 209.511 275C212.342 279.58 212.319 283.668 209.438 287.948C204.911 294.672 198.195 295.385 191.262 289.875C185.679 285.438 181.724 284.51 171.735 285.291C164.365 285.868 162.741 285.719 161.361 284.339C159.054 282.032 159.326 278.897 162.203 274.664C164.907 270.684 165.319 267.803 164.204 260.665C163.533 256.376 163.704 255.77 166.245 253.415C169.587 250.318 171.566 250.214 176.762 252.865ZM121.686 255.825C124.176 257.158 125.725 262.052 125.725 268.591C125.725 276.627 123.793 279.098 112.925 284.956C102.867 290.378 99.7263 290.714 96.1393 286.751C94.4073 284.838 94.4384 284.582 97.0354 279.286C100.333 272.561 100.342 272.07 97.2253 267.846C94.2293 263.785 94.1253 262.446 96.6153 259.956C98.0693 258.502 99.5103 258.171 102.865 258.517C106.025 258.843 108.188 258.416 110.725 256.964C114.576 254.76 118.863 254.314 121.686 255.825ZM131.931 290.094C126.542 291.839 124.383 295.962 123.706 305.803C123.289 311.878 122.444 315.683 120.783 318.973C117.031 326.401 119.374 330.812 127.899 332.369C131.265 332.984 131.704 332.788 133.128 330.033C135.186 326.054 136.278 325.829 141.935 328.219C147.564 330.597 151.328 329.808 153.591 325.775C155.734 321.958 154.305 316.833 149.3 310.388C146.899 307.296 144.412 303.322 143.774 301.556C141.405 295.006 138.18 289.349 136.725 289.191C135.9 289.102 133.743 289.508 131.931 290.094ZM316.235 289.738C313.411 290.168 312.14 290.896 311.886 292.226C311.347 295.057 312.709 295.391 322.578 294.846C331.774 294.338 334.471 293.232 333.389 290.413C332.923 289.198 331.378 288.878 326.506 288.988C323.052 289.066 318.429 289.403 316.235 289.738ZM137.614 301.499C138.57 304.333 139.998 307.529 140.788 308.602C141.579 309.674 143.688 312.486 145.475 314.849C150.822 321.919 149.289 326.098 142.725 322.346C138.754 320.076 133.994 320.486 131.134 323.346C128.622 325.858 124.725 326.746 124.725 324.806C124.725 324.234 125.7 321.872 126.891 319.556C128.387 316.647 129.198 312.875 129.514 307.346C130.041 298.139 131.021 295.595 133.869 296.035C135.289 296.255 136.385 297.854 137.614 301.499ZM36.2323 305.482C33.7013 308.013 35.9613 309.331 43.0323 309.449C46.4383 309.506 50.4623 309.896 51.9753 310.316C54.4623 311.006 54.7253 310.832 54.7253 308.498C54.7253 304.999 52.1573 303.846 44.3623 303.846C39.6833 303.846 37.4113 304.303 36.2323 305.482ZM311.392 311.513C309.581 313.323 311.396 315.161 318.545 318.755C323.278 321.135 326.869 322.375 327.643 321.897C330.23 320.298 328.145 317.309 322.219 314.124C316.421 311.007 312.776 310.128 311.392 311.513ZM239.84 317.505C242.527 318.967 244.725 320.565 244.725 321.055C244.725 321.544 244.031 323.288 243.182 324.929C237.879 335.184 235.53 350.581 236.995 365.477C237.544 371.049 237.685 377.246 237.309 379.248C236.326 384.487 231.568 389.387 225.118 391.8C213.059 396.312 212.036 397.143 200.451 411.835C190.909 423.936 180.573 426.482 169.284 419.513C160.131 413.863 153.76 414.99 145.272 423.761C142.539 426.586 140.473 427.846 138.579 427.846C135.267 427.846 132.725 424.629 132.725 420.439C132.725 415.427 128.985 409.22 123.658 405.393C117.145 400.715 117.076 398.186 123.296 392.226C125.811 389.817 128.102 387.846 128.389 387.846C128.675 387.846 130.054 388.746 131.452 389.846C134.536 392.272 140.394 392.467 143.561 390.248C145.679 388.765 146.202 388.805 150.863 390.81C156.197 393.105 160.597 392.91 162.778 390.282C164.37 388.364 165.431 388.469 168.452 390.846C171.67 393.377 176.738 393.411 179.903 390.921C181.565 389.614 182.811 389.288 183.787 389.906C187.631 392.338 195.655 388.792 197.18 383.989C197.596 382.677 198.962 382.156 202.459 381.975C208.97 381.638 213.121 378.781 216.166 372.544C219.965 364.763 220.293 359.782 217.66 349.846C216.421 345.171 215.137 337.071 214.807 331.846L214.206 322.346L217.09 319.846C223.795 314.034 231.925 313.197 239.84 317.505ZM276.534 326.669C291.949 338.339 304.501 345.846 308.599 345.846C309.667 345.846 312.84 344.653 315.651 343.195C321.725 340.043 332.75 338.955 339.665 340.825C348.051 343.092 353.694 351.751 351.639 359.196C350.35 363.863 347.582 366.009 341.64 366.949C333.692 368.205 333.353 368.773 334.067 379.639C335.106 395.459 331.922 404.035 323.984 406.801C320.228 408.109 319.45 408.085 316.259 406.564C311.989 404.527 309.181 400.2 307.725 393.411C306.261 386.585 304.748 384.578 298.273 380.873C289.276 375.726 251.946 360.541 245.159 359.268L241.463 358.574L242.12 351.503C242.884 343.29 244.922 334.885 247.752 328.282L249.75 323.623L253.987 324.202C257.594 324.696 262.409 323.629 268.534 320.98C268.704 320.906 272.304 323.466 276.534 326.669ZM40.2253 323.972C32.4793 326.167 30.3313 327.657 31.2953 330.168C32.1083 332.286 32.8203 332.261 40.5643 329.833C44.0513 328.74 48.4523 327.846 50.3453 327.846C54.4683 327.846 56.0423 325.282 53.1963 323.201C50.7923 321.443 48.7123 321.567 40.2253 323.972ZM47.8334 338.216C47.2084 338.969 44.6783 340.356 42.2113 341.298C39.0173 342.518 37.7253 343.573 37.7253 344.96C37.7253 347.818 40.0854 348.256 45.1204 346.333C50.3584 344.332 54.2333 340.611 53.3833 338.397C52.6473 336.479 49.3644 336.371 47.8334 338.216ZM99.6984 341.418C99.1024 342.986 98.8604 345.248 99.1614 346.446C99.8744 349.288 106.238 354.846 108.779 354.846C110.455 354.846 110.649 355.274 110.03 357.596C109.627 359.109 109.324 362.272 109.357 364.625C109.416 368.721 109.142 369.122 102.993 373.954C87.9153 385.803 80.1744 396.226 77.8024 407.871C75.7904 417.748 71.8574 421.964 61.4064 425.447C52.4034 428.447 43.4753 425.206 39.0073 417.316C37.1963 414.119 36.7553 411.779 36.7413 405.296C36.7313 400.389 36.2564 396.777 35.5254 396.046C34.8654 395.386 32.0524 394.842 29.2754 394.836C26.0674 394.83 22.4013 393.966 19.2253 392.469C6.52833 386.481 5.42233 376.612 16.7983 370.809C24.4963 366.881 33.1573 365.593 46.8813 366.334C55.2543 366.786 60.2153 366.654 61.5403 365.945C64.9593 364.115 87.9124 347.776 94.1724 342.715C97.4444 340.071 100.269 338.056 100.45 338.238C100.632 338.42 100.293 339.851 99.6984 341.418ZM179.841 350.486C181.695 352.719 181.536 363.719 179.633 364.924C177.505 366.271 172.081 366.021 168.193 364.397C163.225 362.321 163.314 357.876 168.428 352.638C172.528 348.439 177.383 347.524 179.841 350.486ZM155.802 352.769C158.265 355.232 158.725 356.491 158.725 360.769V365.846H154.659C148.157 365.846 146.725 364.576 146.725 358.811C146.725 355.179 147.262 353.309 148.725 351.846C151.384 349.187 152.345 349.312 155.802 352.769ZM194.772 350.846C196.012 350.846 197.346 353.706 198.129 358.042C199.015 362.957 196.382 364.659 190.578 362.92C186.95 361.833 186.725 361.534 186.725 357.806C186.725 353.402 189.817 349.284 192.384 350.269C193.212 350.586 194.286 350.846 194.772 350.846ZM140.189 354.096C140.465 355.333 140.811 358.596 140.958 361.346L141.225 366.346H136.748H132.271L131.452 361.459C130.729 357.148 130.894 356.295 132.853 354.209C135.745 351.131 139.514 351.073 140.189 354.096ZM124.672 356.596C125.245 358.659 125.716 361.8 125.719 363.577C125.726 367.137 123.564 368.299 118.096 367.674C115.684 367.398 115.176 366.836 114.916 364.16C114.61 360.995 116.988 355.018 119.115 353.611C121.732 351.88 123.649 352.909 124.672 356.596ZM213.335 355.43C214.348 359.466 213.011 367.647 210.737 371.326C208.756 374.533 204.497 376.846 200.576 376.846C199.092 376.846 198.725 376.075 198.725 372.961C198.725 369.921 199.268 368.72 201.225 367.438C203.265 366.101 203.725 364.99 203.725 361.396C203.725 357.828 204.226 356.597 206.36 354.919C209.981 352.07 212.539 352.258 213.335 355.43ZM191.799 368.846C193.879 368.846 193.972 369.165 193.429 374.423C192.031 387.971 183.827 388.711 183.757 375.296C183.722 368.646 184.968 366.371 187.812 367.893C188.792 368.417 190.586 368.846 191.799 368.846ZM173.423 371.581C177.01 372.02 177.708 372.494 178.224 374.842C178.768 377.318 178.478 379.884 177.065 385.096C176.36 387.697 172.392 387.24 169.361 384.21C167.334 382.182 166.725 380.584 166.725 377.291C166.725 374.936 166.422 372.22 166.051 371.254C165.503 369.826 165.737 369.645 167.301 370.283C168.359 370.714 171.114 371.298 173.423 371.581ZM161.03 375.846C162.086 385.18 157.432 389.55 151.449 384.843C149.347 383.19 148.843 381.836 148.564 377.093L148.225 371.346H154.373H160.521L161.03 375.846ZM143.19 375.641C143.959 380.193 142.573 384.322 139.773 385.82C136.189 387.738 134.127 385.627 133.049 378.936L132.084 372.941L136.654 372.574C139.168 372.372 141.523 372.125 141.887 372.026C142.251 371.927 142.838 373.554 143.19 375.641ZM126.725 377.224C126.725 385.016 121.57 385.869 120.152 378.31C119.351 374.037 120.142 372.846 123.784 372.846C126.591 372.846 126.725 373.046 126.725 377.224ZM255.928 396.043C255.266 396.705 254.725 397.553 254.725 397.929C254.725 399.203 271.866 410.846 273.742 410.846C275.954 410.846 276.951 409.546 276.164 407.686C275.466 406.038 261.998 396.359 259.178 395.479C258.052 395.127 256.59 395.381 255.928 396.043ZM241.055 405.429C240.706 406.337 241.253 407.768 242.336 408.783C257.485 422.985 260.082 424.686 261.393 421.269C262.4 418.646 246.813 403.846 243.044 403.846C242.284 403.846 241.389 404.558 241.055 405.429ZM99.7714 419.461C93.4204 424.805 88.8994 433.6 91.6354 435.29C93.2914 436.314 95.1973 434.874 97.9543 430.516C99.4533 428.147 102.251 424.779 104.172 423.031C110.128 417.611 105.973 414.242 99.7714 419.461ZM214.164 427.143C213.891 427.857 215.49 432.386 217.718 437.21C221.211 444.769 222.077 445.935 223.997 445.659C227.004 445.228 226.633 442.703 222.19 433.34C219.525 427.724 218.136 425.846 216.648 425.846C215.556 425.846 214.438 426.43 214.164 427.143ZM117.883 437.624C112.32 445.436 109.496 452.969 111.635 454.29C113.457 455.417 115.397 453.669 117.993 448.563C119.452 445.694 121.408 442.165 122.34 440.722C125.704 435.516 121.476 432.578 117.883 437.624ZM194.392 436.513C192.811 438.093 194.096 441 199.875 448.919C206.293 457.713 207.567 459.019 209.225 458.501C211.867 457.677 210.352 453.651 204.167 445.064C197.991 436.489 196.084 434.821 194.392 436.513ZM142.676 440.026C142.649 440.202 141.99 444.396 141.211 449.346C139.202 462.122 139.255 463.052 141.975 462.666C143.754 462.413 144.488 461.3 145.483 457.346C146.175 454.596 146.85 449.646 146.983 446.346C147.207 440.799 147.055 440.322 144.975 440.026C143.738 439.851 142.703 439.851 142.676 440.026ZM166.488 453.596C166.127 463.247 166.328 466.69 167.318 467.76C169.984 470.645 171.473 467.348 172.221 456.909C173.103 444.578 172.417 440.846 169.266 440.846C167.012 440.846 166.957 441.097 166.488 453.596Z" fill="#FFC4C4"/>
</svg>
