<svg width="443" height="449" viewBox="0 0 443 449" fill="none" xmlns="http://www.w3.org/2000/svg">
<path fill-rule="evenodd" clip-rule="evenodd" d="M429.645 4.35001C421.636 10.371 414.162 18.711 406.855 29.783C401.956 37.204 400.617 38.616 398.956 38.105C397.856 37.767 396.092 37.545 395.036 37.612C392.078 37.8 382.67 44.591 375.334 51.833C369.876 57.221 367.7 60.435 362.963 70.102C357.465 81.321 357.079 81.833 354.112 81.833C349.366 81.833 340.408 91.68 337.319 100.294C335.408 105.622 334.571 106.833 332.8 106.833C328.402 106.833 318.456 121.784 318.456 128.395C318.456 129.213 317.392 130.287 316.092 130.781C312.897 131.996 307.996 138.116 306.595 142.639C305.779 145.275 304.275 147.049 301.344 148.833C295.564 152.351 289.742 160.826 288.296 167.829C287.321 172.551 286.668 173.692 284.467 174.523C282.986 175.082 280.52 177.642 278.885 180.318C277.274 182.955 273.189 187.862 269.807 191.223C263.83 197.161 262.833 199.066 260.982 208.083C260.424 210.803 260.332 210.833 252.519 210.833C248.174 210.833 243.954 211.089 243.14 211.401C242.078 211.808 240.168 209.336 236.38 202.651C222.978 178.997 202.201 135.579 190.851 107.507C185.011 93.062 174.867 58.952 172.519 45.864C170.403 34.067 168.141 27.833 165.978 27.833C162.967 27.833 162.122 32.072 162.187 46.829C162.29 70.156 169.789 113.477 176.677 130.529C178.282 134.503 178.83 137.059 178.21 137.679C177.673 138.216 177.181 146.632 177.101 156.664L176.956 174.685L173.956 172.418C159.136 161.222 153.437 158.493 145.029 158.572C139.102 158.627 139.1 158.626 127.529 149.909C101.856 130.568 70.5382 112.88 61.9062 112.845C55.2652 112.819 54.5213 117.823 60.7063 120.921C66.2793 123.711 86.0103 137.836 100.456 149.378C111.972 158.578 153.837 196.45 173.329 215.301C179.034 220.819 187.035 229.25 191.108 234.037L198.513 242.74L194.682 243.772C192.574 244.34 189.002 246.386 186.744 248.319C182.464 251.982 180.453 252.707 180.46 250.583C180.471 247.393 168.478 232.115 158.327 222.388C120.657 186.291 64.6093 168.317 34.9563 182.823C24.1393 188.115 11.3883 200.516 5.64232 211.333C3.21432 215.904 2.99228 217.277 3.05528 227.333C3.09328 233.383 3.35128 240.808 3.62828 243.833C4.84628 257.126 18.3963 273.697 34.4563 281.534C39.1313 283.815 46.5563 286.45 50.9563 287.39C63.3833 290.043 68.9043 293.481 75.0383 302.387C77.1603 305.468 79.5463 307.833 80.5333 307.833C82.6653 307.833 87.2253 302.601 88.0873 299.167C89.8493 292.145 85.7103 278.523 79.4253 270.663C76.5833 267.108 76.5373 266.883 77.9733 263.445C80.0573 258.458 79.8562 247.309 77.5932 242.333C75.1662 236.998 72.9603 235.17 70.9563 236.833C70.1313 237.518 69.4563 238.675 69.4563 239.406C69.4563 240.136 68.8693 241.093 68.1523 241.533C67.4353 241.973 65.3212 244.489 63.4532 247.125C57.8542 255.025 54.8312 256.333 42.1712 256.333C33.6732 256.333 31.1853 256.015 30.4363 254.833C25.5843 247.169 38.7243 231.127 52.5773 227.804C65.7343 224.648 86.3533 230.342 100.066 240.919C112.084 250.189 137.456 277.236 137.456 280.778C137.456 281.86 136.01 282.81 133.206 283.571C126.933 285.272 119.519 290.355 118.328 293.771C117.494 296.162 116.567 296.805 113.135 297.375C104.242 298.851 89.5283 307.385 87.2483 312.39C86.6243 313.76 84.9533 315.158 83.5353 315.496C68.5793 319.066 45.6152 336.505 43.9422 345.564C43.3282 348.891 42.1282 350.154 33.7132 356.333C22.0472 364.899 11.3023 374.72 7.58128 380.218C3.94928 385.584 -0.67072 397.338 0.0812804 399.298C0.91728 401.477 4.54434 401.213 5.14134 398.93C6.10534 395.242 30.2653 378.503 39.3533 375.226C41.8853 374.313 49.1353 371.181 55.4653 368.265C80.6743 356.653 102.347 351.26 127.956 350.226C139.665 349.753 140.771 349.851 139.089 351.213C138.062 352.044 135.781 354.036 134.02 355.638C132.259 357.241 128.515 359.317 125.7 360.252C112.651 364.586 101.414 379.491 97.9162 397.105C96.4762 404.355 96.4083 406.071 97.5113 407.399C99.0463 409.249 100.666 408.979 108.956 405.491C112.256 404.103 121.827 401.604 130.225 399.938C138.623 398.273 147.51 396.018 149.975 394.928L154.456 392.945V400.159C154.456 408.323 157.183 419.377 161.119 427.172C166.335 437.501 175.359 448.833 178.369 448.833C182.36 448.833 196.482 430.318 202.81 416.79C205.243 411.589 207.771 405.004 208.427 402.158L209.619 396.983L216.288 401.828C226.275 409.085 232.57 410.833 248.713 410.833C260.057 410.833 262.615 411.13 265.954 412.832C268.111 413.932 270.254 415.507 270.715 416.332C271.899 418.448 275.191 418.198 276.421 415.899C278.923 411.224 276.738 399.502 270.908 386.32C269.513 383.165 268.605 380.351 268.89 380.066C269.175 379.781 272.007 380.116 275.182 380.812C278.358 381.507 289.506 382.28 299.956 382.528C317.901 382.955 319.511 382.837 328.956 380.41C335.369 378.762 343.799 375.466 352.456 371.221C365.591 364.782 366.27 364.288 377.567 352.968C389.969 340.541 393.646 334.722 396.97 322.26C399.503 312.767 400.056 296.41 398.076 289.598C394.878 278.596 388.456 275.041 388.456 284.273C388.456 289.913 383.507 303.676 379.083 310.34C372.525 320.217 358.747 328.37 343.46 331.419C328.66 334.371 306.659 332.057 290.685 325.867C276.637 320.425 248.61 304.95 247.709 302.139C247.499 301.482 248.835 299.298 250.679 297.286L254.032 293.628L266.494 299.623C280.332 306.279 291.351 310.08 302.101 311.904C311.309 313.466 335.818 312.586 343.793 310.408C359.76 306.046 373.573 296.258 378.447 285.853C379.74 283.092 381.202 280.833 381.697 280.833C382.191 280.833 384.477 279.56 386.776 278.004C391.507 274.803 398.553 271.833 401.417 271.833C403.914 271.833 404.792 270.31 404.035 267.291C403.667 265.827 402.454 264.62 400.977 264.249C397.802 263.452 397.15 261.161 398.449 255.364C399.907 248.859 402.779 243.581 406.617 240.351C409.427 237.987 410.519 237.681 414.707 238.083C420.598 238.649 425.456 242.662 425.456 246.961C425.456 250.282 426.734 251.231 430.075 250.393C431.855 249.946 433.283 248.255 435.008 244.548C439.717 234.436 437.172 224.095 428.763 219.167C419.245 213.589 409.668 214.253 401.976 221.024C394.748 227.386 390.918 237.032 389.785 251.723L389.179 259.581L386.527 258.059C385.068 257.222 382.686 254.409 381.235 251.809C376.16 242.72 363.905 235.267 352.246 234.178C343.46 233.357 336.16 235.594 329.25 241.224L323.865 245.61L322.174 242.665C320.678 240.057 320.651 239.468 321.94 237.526C325.799 231.715 344.531 217.961 360.997 208.849C367.997 204.975 375.883 200.221 378.522 198.285C385.269 193.332 392.78 184.831 395.848 178.675C399.086 172.177 399.167 167.525 396.334 150.833C393.661 135.079 393.413 114.544 395.816 107.833C396.702 105.358 397.433 101.73 397.441 99.771C397.463 94.529 400.93 82.123 406.648 66.833C414.82 44.979 425.133 25.877 437.133 10.37C440.096 6.54102 442.39 2.71602 442.23 1.87002C442.06 0.970015 440.665 0.208008 438.865 0.032008C436.494 -0.199992 434.383 0.788011 429.645 4.35001ZM421.218 23.55C413.522 35.794 405.998 51.631 399.943 68.333C395.757 79.877 391.506 96.285 391.469 101.039C391.462 101.977 389.7 105.252 387.553 108.316C381.404 117.093 375.914 130.869 372.998 144.833C369.556 161.314 366.545 172.527 364.401 176.846C361.865 181.954 358.641 184.83 344.565 194.54C336.219 200.296 328.007 207.147 320.276 214.801L308.597 226.366L306.276 224.455C301.163 220.244 289.801 215.852 278.213 213.608C269.455 211.911 266.47 210.952 266.469 209.833C266.465 206.257 268.795 200.485 271.436 197.53L274.292 194.333L274.964 197.333C276.752 205.317 277.602 206.953 279.802 206.64C282.122 206.309 282.104 206.516 280.832 194.621C280.296 189.613 280.549 188.351 282.881 184.371C284.343 181.875 285.913 179.833 286.368 179.833C286.823 179.833 287.72 182.5 288.362 185.759C290.986 199.099 294.672 206.017 297.596 203.093C298.523 202.166 298.167 199.864 296.012 192.84C291.048 176.655 292.582 164.72 300.607 157.103L304.01 153.873L306.315 174.103C308.741 195.392 309.831 198.886 313.045 195.673C314.496 194.221 314.453 192.714 312.541 178.209C309.367 154.137 310.005 144.321 315.111 138.652C316.937 136.625 316.962 136.655 317.542 141.469C320.459 165.689 322.794 181.497 323.574 182.311C324.183 182.946 325.114 182.897 326.234 182.17C328.301 180.828 328.264 179.601 325.518 158.833C322.212 133.832 322.749 127.058 328.733 118.217C333.254 111.538 334.213 111.611 333.345 118.565C331.995 129.38 332.478 149.187 334.46 164.266C335.539 172.48 336.805 179.582 337.272 180.049C337.739 180.516 338.872 180.611 339.789 180.259C341.87 179.46 341.92 176.005 340.038 163.076C337.652 146.685 337.265 137.855 338.379 125.15C339.779 109.172 343.021 98.745 348.539 92.476C354.471 85.736 356.645 86.239 354.445 93.84C351.362 104.488 348.405 143.549 349.297 161.833L349.956 175.333H352.456H354.956L355.06 151.333C355.208 117.362 358.416 94.29 365.141 78.833C370.679 66.103 374.742 59.742 380.886 54.182C391.804 44.301 400.354 39.926 395.597 46.653C388.454 56.757 377.45 84.268 373.128 102.833C370.501 114.111 368.327 128.815 369.1 130.066C369.361 130.488 370.459 130.833 371.54 130.833C374.01 130.833 374.979 128.257 375.865 119.333C377.754 100.335 387.722 71.356 398.87 52.456C407.979 37.014 424.918 13.833 427.093 13.833C427.221 13.833 424.577 18.206 421.218 23.55ZM170.813 63.875C174.137 76.48 179.854 94.967 183.156 103.789C194.464 134.009 233.384 213.223 239.005 217.459C240.128 218.305 241.548 218.221 244.727 217.119C252.229 214.519 279.368 218.105 292.547 223.437C304.596 228.311 315.378 239.061 318.922 249.732C321.009 256.015 322.892 256.775 326.312 252.712C334.369 243.143 340.316 239.833 349.456 239.833C359.343 239.833 370.555 245.766 375.549 253.641C377.148 256.162 378.456 258.591 378.456 259.039C378.456 259.487 376.094 258.294 373.206 256.388C370.318 254.483 365.774 252.441 363.106 251.852C353.416 249.71 346.371 252.716 337.289 262.868C329.882 271.148 323.066 274.923 311.248 277.289C296.351 280.273 286.508 278.731 276.304 271.816C273.913 270.195 271.154 268.861 270.175 268.851C269.195 268.841 268.14 268.045 267.831 267.083C266.041 261.513 264.795 259.455 260.492 254.968C251.064 245.135 235.207 240.083 222.214 242.773C209.812 245.341 206.131 244.375 200.991 237.206C194.322 227.905 178.964 212.439 148.636 184.482C116.459 154.82 109.434 148.763 91.9563 135.608C85.3563 130.64 79.7313 126.353 79.4563 126.081C77.7163 124.362 89.9273 131.405 101.57 138.836C122.892 152.446 145.174 170.09 163.918 188.205C173.743 197.7 177.456 199.802 177.456 195.868C177.456 193.165 173.313 188.678 158.739 175.599C151.875 169.439 146.783 164.224 147.423 164.011C149.5 163.318 161.344 169.847 168.741 175.762C172.709 178.934 180.138 185.873 185.249 191.182C190.361 196.49 194.918 200.833 195.377 200.833C195.836 200.833 196.783 200.144 197.483 199.301C198.546 198.02 198.235 197.159 195.586 194.051C185.002 181.628 184.822 181.323 183.548 173.697C182.872 169.647 182.462 161.833 182.637 156.333L182.956 146.333L186.095 152.978C189.419 160.011 204.351 186.833 204.943 186.833C206.562 186.833 208.456 185.329 208.456 184.044C208.456 183.178 205.326 176.813 201.501 169.901C189.563 148.33 180.972 128.186 176.92 112.26C175.65 107.27 173.226 94.402 171.533 83.664C167.673 59.173 167.368 50.817 170.813 63.875ZM390.871 152.333C393.438 165.161 393.179 171.734 389.867 177.818C384.61 187.479 375.497 194.592 351.696 207.615C342.842 212.459 329.285 222.393 322.188 229.236C319.566 231.764 316.995 233.833 316.474 233.833C315.953 233.833 315.018 232.882 314.396 231.721C313.372 229.808 314.339 228.555 324.617 218.471C331.277 211.936 340.236 204.44 346.295 200.333C360.747 190.536 364.112 187.803 367.052 183.477C370.562 178.311 373.675 168.74 376.863 153.312C379.917 138.529 381.576 132.843 385.318 124.333L387.956 118.333L388.613 131.333C388.974 138.483 389.99 147.933 390.871 152.333ZM78.6263 185.369C100.514 189.973 124.727 201.834 144.972 217.868C158.737 228.77 176.402 249.986 173.334 251.93C172.576 252.41 171.281 252.814 170.456 252.827C166.625 252.892 158.536 257.923 153.899 263.126C151.166 266.192 147.164 269.899 145.007 271.363L141.085 274.025L133.609 265.679C104.209 232.86 85.5773 221.534 60.9563 221.518C49.5873 221.511 43.0423 223.884 35.2333 230.844C28.7293 236.641 25.5043 241.427 23.9333 247.613L22.8213 251.993L18.5093 248.663C16.1373 246.831 12.7923 243.374 11.0763 240.979C8.12028 236.853 7.96224 236.164 8.06724 227.831C8.21724 215.983 10.2743 211.869 21.8783 200.213C30.9783 191.072 37.6453 186.7 45.2023 184.919C51.4613 183.444 70.7063 183.703 78.6263 185.369ZM425.219 223.505C429.615 226.788 431.729 230.399 431.729 234.629C431.729 240.744 430.715 241.475 427.093 237.971C418.675 229.823 407.974 229.924 400.69 238.219C396.713 242.749 396.356 240.7 399.839 233.333C402.381 227.956 406.442 223.582 410.456 221.899C414.122 220.362 422.183 221.239 425.219 223.505ZM73.9523 249.811C74.7673 254.634 73.8803 259.278 71.3483 263.451C68.7693 267.701 68.9563 269.087 72.4573 271.676C76.8783 274.944 81.6223 285.036 82.2163 292.433C82.5163 296.163 82.2973 298.813 81.6583 299.208C81.0813 299.565 78.9663 297.852 76.9593 295.402C71.3653 288.575 64.9003 284.981 52.6233 281.875C46.6773 280.371 38.9223 277.608 35.3893 275.736C27.8543 271.743 16.6463 261.133 13.5753 255.086L11.4193 250.84L18.1352 255.344C21.8282 257.821 26.4493 260.331 28.4033 260.921C34.3493 262.716 45.8453 263.175 51.6023 261.847C58.6013 260.232 62.6383 257.503 67.5253 251.083C69.7233 248.196 71.9173 245.833 72.4003 245.833C72.8843 245.833 73.5833 247.623 73.9523 249.811ZM243.507 250.489C248.738 252.428 251.947 254.419 255.391 257.863C260.902 263.375 263.725 268.918 261.404 269.671C260.607 269.93 255.456 272.444 249.956 275.259C225.45 287.798 196.905 310.187 185.591 325.743L180.619 332.578L174.788 330.549C163.095 326.482 143.15 328.508 116.599 336.46C104.745 340.01 87.2053 347.609 85.5843 349.897C84.8293 350.962 83.3983 351.833 82.4023 351.833C79.8053 351.833 66.2313 356.973 55.8553 361.886C50.9613 364.204 44.0673 367.19 40.5353 368.522C34.1663 370.925 22.7223 377.152 16.9563 381.352C11.9313 385.013 11.1123 385.337 12.2843 383.204C15.5623 377.234 39.1452 358.084 54.1202 349.234C76.5882 335.954 113.617 325.834 139.737 325.833C147.546 325.833 149.636 325.528 150.099 324.32C150.419 323.488 150.071 322.074 149.327 321.178C148.16 319.771 146.33 319.632 135.931 320.159C111.034 321.421 80.0593 329.384 59.2693 339.867C54.9433 342.048 51.1022 343.833 50.7342 343.833C49.3462 343.833 57.1933 336.468 63.1163 332.212C66.5043 329.778 72.7212 326.194 76.9322 324.249C97.3702 314.806 146.071 311.006 164.724 317.399C169.838 319.152 172.456 318.809 172.456 316.387C172.456 309.809 140.662 306.775 109.595 310.39C102.247 311.245 96.0513 311.761 95.8273 311.538C95.0763 310.787 106.893 305.03 112.956 303.192C118 301.664 122.383 301.387 140.456 301.453C159.442 301.522 162.891 301.791 169.956 303.751C183.23 307.433 183.456 307.446 183.456 304.555C183.456 302.562 182.631 301.72 179.42 300.435C171.578 297.298 157.556 295.507 140.289 295.439C131.122 295.403 123.841 295.018 124.11 294.584C124.378 294.15 126.893 292.632 129.698 291.21C143.113 284.412 175.913 284.178 188.599 290.791C192.836 292.999 195.456 292.6 195.456 289.746C195.456 287.34 189.607 284.328 180.727 282.163C175.86 280.976 169.608 280.526 158.489 280.561L143.022 280.61L146.216 277.756C151.296 273.217 159.065 271.411 172.956 271.539C185.548 271.655 196.783 274.112 199.459 277.336C201.078 279.287 204.08 279.255 204.839 277.277C205.739 274.931 201.597 271.412 194.893 268.829C189.976 266.934 186.413 266.458 174.149 266.061L159.343 265.582L161.543 263.24C164.865 259.704 172.793 257.433 181.956 257.394C189.172 257.362 190.74 257.73 197.956 261.139C202.356 263.218 207.666 266.29 209.756 267.964C213.737 271.153 216.456 271.183 216.456 268.039C216.456 264.722 209.411 259.737 197.8 254.838C191.289 252.091 191.273 252.075 193.583 250.457C196.695 248.277 207.691 248.206 209.474 250.355C210.194 251.223 212.074 251.793 213.847 251.682C217.68 251.441 221.876 253.571 227.982 258.855C231.698 262.071 232.95 262.668 234.059 261.747C236.334 259.86 235.749 258.682 229.774 253.121L224.091 247.833H230.216C234.381 247.833 238.636 248.683 243.507 250.489ZM366.021 258.723C371.845 261.368 377.456 266.582 377.456 269.347C377.456 273.169 373.951 283.21 371.209 287.246C361.698 301.243 334.714 309.814 309.102 306.975C301.743 306.16 294.388 304.547 287.456 302.231C276.204 298.471 261.41 291.688 259.536 289.43C258.623 288.329 259.738 286.835 265.057 282.034L271.723 276.018L277.84 279.365C286.386 284.041 294.972 285.388 306.208 283.813C323.72 281.359 332.112 277.304 341.275 266.868C349.861 257.09 357.145 254.692 366.021 258.723ZM353.456 261.833C351.146 264.143 350.904 266.696 352.755 269.228C354.621 271.779 359.296 270.954 361.76 267.64C363.656 265.089 363.673 264.813 362.085 262.39C360.041 259.27 356.263 259.026 353.456 261.833ZM388.701 265.958L392.866 268.083L388.411 270.413C385.961 271.694 383.731 272.763 383.456 272.788C383.023 272.827 382.965 269.043 383.338 265.083C383.495 263.422 383.84 263.478 388.701 265.958ZM256.871 282.083C253.556 285.521 247.729 291.933 243.922 296.333C240.114 300.733 232.46 309.058 226.912 314.833C221.344 320.628 215.33 328.021 213.491 331.333C207.449 342.209 202.876 345.666 191.6 347.884C183.919 349.396 171.649 348.748 150.956 345.739C137.298 343.753 134.774 343.661 122.749 344.71C115.485 345.344 108.735 346.11 107.749 346.412C106.763 346.713 107.14 346.27 108.587 345.427C112.13 343.362 129.374 338.608 143.384 335.834C157.822 332.976 168.082 333.403 175.716 337.181C179.243 338.927 181.334 339.434 182.479 338.821C183.391 338.333 186.411 334.648 189.191 330.633C197.549 318.56 212.324 305.605 234.323 291.059C245.102 283.933 259.657 275.917 261.927 275.858C262.461 275.844 260.186 278.646 256.871 282.083ZM391.989 319.164C389.022 331.043 384.184 338.821 373.091 349.547C365.309 357.071 360.874 360.449 353.989 364.1C333.478 374.976 319.012 378.459 298.456 377.472C265.955 375.911 247.533 368.711 223.289 348.094L214.622 340.723L217.789 335.064C220.294 330.587 240.026 308.254 242.535 307.057C242.853 306.905 246.04 308.743 249.617 311.142C256.96 316.066 276.672 326.301 286.456 330.271C308.527 339.224 335.215 340.877 354.085 334.459C363.277 331.333 366.774 329.471 373.822 323.951C381.339 318.063 386.554 310.731 390.12 301.04L392.956 293.333L393.243 303.164C393.431 309.588 392.996 315.132 391.989 319.164ZM220.58 353.329L229.514 360.824L229.839 370.079C230.018 375.169 230.503 380.121 230.917 381.083C231.583 382.632 231.022 382.833 226.031 382.833C222.929 382.833 218.815 382.174 216.887 381.369C211.085 378.944 204.359 373.563 202.448 369.817C200.697 366.385 200.702 366.216 202.635 363.561C203.729 362.061 205.381 360.833 206.307 360.833C209.213 360.833 215.219 365.638 217.593 369.863C219.254 372.819 220.423 373.838 221.904 373.625C225.041 373.174 224.842 370.637 221.246 365.256C218.709 361.46 216.537 359.646 211.758 357.333C206.64 354.856 205.55 353.894 205.508 351.815C205.473 350.114 206.349 348.743 208.206 347.591C209.719 346.653 211.111 345.874 211.301 345.86C211.491 345.845 215.666 349.206 220.58 353.329ZM157.306 352.421C158.164 352.692 156.796 354.52 153.556 357.433C150.23 360.424 148.456 362.818 148.456 364.319C148.456 368.352 151.015 367.836 156.378 362.721C160.358 358.925 162.192 357.839 164.26 358.054C166.441 358.28 167.021 357.876 167.294 355.942C167.627 353.584 167.742 353.56 175.801 354.179C183.076 354.739 192.365 353.949 197.434 352.34C201.762 350.966 200.272 359.114 195.558 362.599C194.012 363.742 190.769 365.206 188.352 365.853C185.934 366.5 183.409 367.477 182.739 368.025C181.046 369.413 176.529 364.124 176.488 360.705C176.47 359.26 175.781 357.518 174.956 356.833C172.764 355.014 170.456 357.282 170.456 361.255C170.456 366.37 165.763 372.531 159.551 375.573L154.145 378.22L145.919 376.526C141.394 375.595 136.794 374.833 135.697 374.833C132.66 374.833 131.174 372.394 131.978 368.731C132.768 365.138 139.745 357.054 143.187 355.745C144.532 355.234 145.456 354.044 145.456 352.823C145.456 350.928 145.873 350.813 150.706 351.379C153.594 351.718 156.564 352.186 157.306 352.421ZM264.209 385.833C268.852 395.539 271.456 402.861 271.456 406.214V408.526L266.206 406.71C262.132 405.3 258.044 404.907 247.956 404.954C232.298 405.028 227.19 403.488 217.762 395.851C214.355 393.091 210.958 390.833 210.212 390.833C209.466 390.833 208.335 390.312 207.698 389.675C205.571 387.548 203.757 390.525 203.179 397.092C202.552 404.22 199.142 413.094 193.394 422.555C188.881 429.984 179.699 441.833 178.455 441.833C176.917 441.833 168.205 429.381 165.405 423.181C161.907 415.433 159.252 402.605 159.593 395.099C159.968 386.833 156.846 382.249 153.547 386.223C151.282 388.952 142.507 391.812 127.162 394.824C118.595 396.505 109.995 398.545 108.053 399.357C103.44 401.284 103.449 401.287 103.496 398.083C103.564 393.34 108.767 382.052 113.456 376.475C117.485 371.682 124.306 365.833 125.866 365.833C126.19 365.833 126.456 368.443 126.456 371.633C126.456 378.086 127.551 379.833 131.594 379.833C133.1 379.833 137.364 380.536 141.069 381.396C144.775 382.255 150.541 382.861 153.882 382.742C161.495 382.472 166.192 384.705 172.745 391.711C177.663 396.968 179.456 400.326 179.456 404.276C179.456 405.548 180.131 407.148 180.956 407.833C182.213 408.876 183.823 407.838 190.878 401.432C198.644 394.383 200.611 391.646 204.056 383.102L204.956 380.87L209.805 384.034C213.913 386.715 216.051 387.331 223.805 388.069C240.289 389.637 243.881 389.553 244.262 387.592C244.48 386.463 243.38 385.13 241.134 383.806C239.228 382.681 237.206 380.54 236.641 379.047C235.416 375.814 234.22 366.402 234.942 365.68C235.222 365.401 241.006 367.908 247.796 371.252L260.142 377.333L264.209 385.833ZM176.821 372.268C177.699 373.607 178.84 376.586 179.357 378.889C180.473 383.855 181.713 385.332 184.022 384.446C185.394 383.92 185.609 382.968 185.136 379.518C184.814 377.167 184.281 374.541 183.952 373.683C183.472 372.434 184.399 372 188.614 371.501C193.13 370.966 194.199 371.182 196.165 373.03C201.142 377.705 197.9 387.871 188.927 395.732C185.389 398.831 184.954 398.976 184.001 397.372C179.607 389.975 176.616 386.397 172.132 383.176C169.285 381.13 166.781 379.328 166.566 379.172C166.352 379.015 167.814 377.2 169.816 375.139C171.818 373.078 173.456 371.041 173.456 370.612C173.456 369.016 175.278 369.913 176.821 372.268Z" fill="#FFC4C4"/>
</svg>
