<svg width="431" height="461" viewBox="0 0 431 461" fill="none" xmlns="http://www.w3.org/2000/svg">
<path fill-rule="evenodd" clip-rule="evenodd" d="M226.391 1.13622C225.992 1.78222 224.341 4.96118 222.722 8.20018C219.281 15.0872 205.866 29.6212 196.118 37.0252C192.478 39.7892 184.646 44.4642 178.713 47.4142C166.33 53.5702 165 54.5082 165 57.0822C165 58.1152 163.252 60.7082 161.115 62.8452C158.933 65.0272 156.213 69.3022 154.912 72.5952C149.313 86.7602 154.063 124.409 163.039 137.015C164.486 139.046 164.842 140.419 164.215 141.541C162.343 144.886 164.121 148.064 169.886 151.675C179.634 157.781 182.43 159.808 188.202 164.953C195.006 171.017 203.921 182.674 206.858 189.347C208.896 193.978 208.917 194.303 207.254 195.565C206.289 196.297 205.199 196.911 204.831 196.928C204.463 196.946 200.188 193.003 195.331 188.167C188.3 181.166 184.665 178.44 177.5 174.796C165.287 168.585 150.948 163.796 142.75 163.19L136 162.691V156.536C136 145.851 131.429 132.302 124.898 123.624C123.174 121.334 119.095 116.975 115.833 113.937L109.903 108.414L112.451 102.847C120.644 84.9512 121.516 54.0892 114.182 41.5322C112.42 38.5152 107.26 36.3002 105.678 37.8822C105.2 38.3602 104.694 43.6362 104.554 49.6062C104.149 66.8702 98.631 83.9682 88.832 98.3232C86.546 101.673 84.529 105.324 84.351 106.437C84.173 107.549 83.7629 109.596 83.4399 110.984C82.9549 113.069 83.562 114.077 86.932 116.785C95.827 123.933 107.879 144.29 115.455 164.96C116.966 169.085 118.608 173.241 119.102 174.196C119.596 175.151 120 176.739 120 177.724C120 180.369 122.691 183.746 126.311 185.643C128.578 186.831 133.313 187.498 142.681 187.951C155.213 188.556 156.222 188.766 163.181 192.215C169.931 195.56 180.114 204.18 178.831 205.462C178.532 205.762 171.81 206.259 163.893 206.567C147.529 207.205 137.609 205.867 126.89 201.579C123.289 200.139 119.392 198.96 118.231 198.96C117.069 198.96 115.84 198.51 115.5 197.96C114.303 196.023 111.729 197.013 104.152 202.324C76.884 221.436 58.3541 230.628 42.3831 232.965C38.0471 233.6 33.707 234.699 32.738 235.409C31.769 236.118 27.785 242.495 23.885 249.579C15.6 264.63 10.75 271.398 4.51404 276.61C2.03104 278.686 0 281.112 0 282.003C0 284.235 4.57595 286.483 8.31995 286.09C20.2659 284.837 41.2691 269.351 49.1851 255.959L52.871 249.724L59.8781 249.443C70.5641 249.013 87.002 242.871 98.338 235.071C103.615 231.441 111.469 222.903 113.912 218.14L115.677 214.701L117.813 218.158C124.907 229.636 154.682 234.869 181.686 229.383C184.468 228.818 184.809 228.975 184.377 230.627C184.028 231.961 181.941 233.075 177.296 234.405C169.769 236.561 156.858 242.588 150.691 246.824C148.265 248.491 145.237 249.682 143.5 249.652C141.85 249.624 136.45 250.898 131.5 252.483C122.931 255.228 121.61 255.367 103.903 255.394L85.3051 255.422L78.903 265.796C68.261 283.04 48.632 302.376 34.374 309.661C29.254 312.277 26.758 314.161 26.36 315.71C26.043 316.947 25.382 317.96 24.892 317.96C23.332 317.96 23.926 321.431 26.358 326.523C34.721 344.037 36.954 362.585 32.397 376.694C30.564 382.369 31.394 384.96 35.045 384.96C37.678 384.96 43.661 377.488 47.454 369.46C52.858 358.024 54.5 350.174 54.5 335.774V323.089L57.905 322.45C65.324 321.058 74.385 315.734 81.58 308.54C88.573 301.546 92.761 294.625 95.543 285.46C96.504 282.297 97.149 281.565 98.629 281.96C99.658 282.235 104.438 282.46 109.25 282.46C114.063 282.46 118 282.591 118 282.752C118 282.912 116.399 287.637 114.442 293.252C110.117 305.662 108.014 318.809 108.006 333.486C107.995 354.372 110.411 366.851 121.555 403.46C127.959 424.498 128.259 425.941 128.399 436.46C128.554 448.073 129.773 451.96 133.262 451.96C134.241 451.96 135.523 450.906 136.11 449.617C137.659 446.218 146.11 441.555 157 438.09C162.225 436.428 173.693 432.774 182.485 429.971C201.956 423.762 210.51 419.744 220.864 411.941C242.641 395.532 260.462 366.122 263.536 341.521L264.229 335.975L267.234 338.504C268.887 339.895 271.536 341.703 273.12 342.522C276.85 344.451 276.809 345.609 272.41 362.597C269.31 374.567 268.885 377.552 269.303 384.46C269.583 389.093 270.643 394.609 271.822 397.566L273.857 402.672L267.679 407.582C260.671 413.15 256.123 419.374 252.962 427.722C251.061 432.741 250.851 434.838 251.288 444.46C251.84 456.628 252.161 457.955 254.98 459.715C257.992 461.597 260 460.227 260 456.291C260 447.101 273.576 430.211 286.541 423.27C297.625 417.337 296.5 421.909 296.5 382.789C296.5 352.743 296.718 347.823 298.246 343.355C299.832 338.715 299.852 337.97 298.46 335.18C297.544 333.344 294.798 330.908 291.626 329.118C282.384 323.902 271.17 311.116 266.423 300.381C265.104 297.399 263.606 294.96 263.095 294.96C262.583 294.96 261.166 290.572 259.947 285.21C258.727 279.848 256.627 273.128 255.279 270.277L252.829 265.094L256.075 261.527C257.861 259.565 259.676 257.96 260.11 257.96C260.544 257.96 262.82 261.653 265.168 266.166C275.563 286.146 289.864 298.022 305.503 299.664L310.507 300.189L310.163 311.324C309.923 319.107 310.304 324.533 311.427 329.347C313.591 338.617 319.358 349.324 324.504 353.625L328.659 357.099L326.88 365.279C324.898 374.393 324.51 389.087 326.07 395.96C327.684 403.067 334.216 415.94 336.215 415.951C338.667 415.964 340.336 412.457 339.035 410.026C336.001 404.357 340.509 387.098 350.116 367.607C353.411 360.921 353.587 359.692 351.5 357.96C350.675 357.275 350 356.064 350 355.268C350 354.472 348.709 351.939 347.132 349.64C335.63 332.877 328.277 306.24 332.021 294.897C333.22 291.265 333.162 290.759 331.354 289.075C328.301 286.231 326.066 285.275 317.155 283C305.95 280.139 299.47 277.103 293.311 271.831C284.857 264.593 271.2 246.96 274.049 246.96C274.688 246.96 277.976 247.671 281.356 248.54C287.606 250.148 292.643 252.627 308.244 261.774C323.3 270.601 332.138 271.7 337.989 265.471C339.287 264.09 340.716 262.96 341.166 262.96C341.615 262.96 344.015 261.409 346.498 259.513C352.243 255.128 371.496 245.735 380.087 243.126C383.709 242.026 390.363 240.804 394.872 240.411C404.25 239.593 404.392 239.461 405.878 230.239C406.897 223.909 412.376 209.676 416.751 201.993C418.171 199.5 421.958 194.235 425.166 190.294C428.375 186.352 431 182.47 431 181.666C431 177.111 423.67 177.067 414.788 181.568C404.574 186.743 388.046 206.793 384.364 218.474L382.635 223.96H378.006C372.217 223.96 359.396 227.193 351.5 230.643C344.614 233.651 334.385 240.305 333.759 242.182C333.463 243.072 332.311 242.673 329.918 240.849C319.224 232.699 303.824 228.809 281.401 228.595L267.302 228.46L266.32 223.692C265.637 220.37 265.667 218.665 266.42 218.072C269.322 215.785 275.651 214.952 289.536 215.03C297.766 215.076 306.731 214.606 309.458 213.986C315.443 212.625 323.777 208.245 325.106 205.763C325.636 204.771 326.961 203.96 328.049 203.96C329.137 203.96 330.809 203.527 331.764 202.998C332.719 202.47 336.933 200.499 341.129 198.62C354.664 192.556 363.782 184.483 372.942 170.451C378.347 162.172 381.461 154.15 380.737 150.367C380.479 149.017 380.659 147.671 381.136 147.376C381.613 147.081 381.728 144.498 381.392 141.635C380.824 136.807 381.122 135.778 385.498 127.445C390.133 118.618 394.963 102.843 394.988 96.4512C395.001 93.0952 391.876 90.3702 389.524 91.6872C387.145 93.0182 370.557 111.192 367.369 115.96C362.031 123.944 359.553 133.045 360.987 139.402C361.775 142.895 361.564 143.729 359.096 146.896C357.568 148.856 353.991 153.935 351.148 158.181C344.551 168.033 332.795 179.548 325.125 183.67C319.58 186.65 318.766 186.817 313.761 186.002C307.047 184.91 298.245 185.576 288.392 187.924L280.811 189.73L281.417 187.095C281.751 185.646 282.308 180.973 282.655 176.71C283.179 170.273 283.579 168.96 285.016 168.96C287.758 168.96 294.783 160.636 295.566 156.457C295.946 154.432 297.785 150.238 299.652 147.138C305.661 137.158 306.061 131.504 301.344 123.222C297.304 116.13 288.055 111.505 285.323 115.21C284.816 115.898 283.844 118.667 283.163 121.365C281.611 127.511 275.289 138.96 273.447 138.96C272.688 138.96 270.478 140.549 268.536 142.491L265.005 146.022L260.252 144.636C255.864 143.356 255.524 143.028 255.809 140.355C256.716 131.868 256.302 129.535 253.371 126.604C251.361 124.594 251.004 123.661 251.852 122.639C254.604 119.323 258.088 107.557 257.797 102.562C257.541 98.1622 257.194 97.4172 255.28 97.1442C251.766 96.6452 240.624 102.537 234.502 108.132C228.036 114.042 225.703 117.928 226.564 121.357C227.037 123.244 226.699 123.921 225.016 124.455C221.236 125.655 219.008 130.727 219.004 138.145C219 145.575 219.949 148.909 222.915 151.875C224.908 153.868 224.907 153.874 221.705 158.856C219.942 161.599 218.167 163.87 217.76 163.902C217.353 163.934 215.623 161.094 213.915 157.591C207.391 144.211 195.999 133.44 187.109 132.248C183.422 131.753 182.982 131.383 182.401 128.284C182.048 126.404 182.037 120.725 182.375 115.663C182.714 110.601 183.281 99.4942 183.636 90.9792C184.402 72.6262 184.115 73.2062 197.438 63.0582C213.338 50.9462 224.262 37.8372 229.064 25.1062C231.627 18.3092 232.78 5.28517 231.095 2.13817C229.824 -0.237831 227.541 -0.723784 226.391 1.13622ZM224.398 21.0402C220.849 33.1022 208.86 47.4342 190.764 61.2462L182.028 67.9142L180.447 64.8582C179.506 63.0382 177.238 61.0732 174.839 59.9992C172.623 59.0072 171.272 57.9102 171.836 57.5612C172.4 57.2132 176.928 54.8922 181.898 52.4042C186.868 49.9162 194.437 45.2622 198.717 42.0622C206.57 36.1922 220.149 22.8162 223.472 17.6792C225.989 13.7872 226.252 14.7412 224.398 21.0402ZM113.107 59.1602C114.886 73.0512 112.29 90.5902 106.888 101.18C104.936 105.005 104.665 105.167 101.17 104.589C99.151 104.255 96.268 103.977 94.762 103.971L92.025 103.96L95.484 98.5522C103.219 86.4612 108.796 70.0152 109.707 56.6102C110.419 46.1472 111.548 46.9942 113.107 59.1602ZM175.655 68.2612C178.568 73.8932 179.104 84.1732 177.509 103.832C176.688 113.959 176.275 124.543 176.591 127.352L177.167 132.46L173.112 134.124L169.056 135.787L167.009 132.475C159.795 120.802 155.636 90.2842 159.491 77.3032C163.14 65.0152 171.546 60.3132 175.655 68.2612ZM386.547 110.084C385.672 113.499 383.126 119.608 380.891 123.658C378.655 127.709 376.522 133.144 376.151 135.737L375.477 140.451L371.488 140.108C369.295 139.92 367.107 139.524 366.627 139.228C365.06 138.262 366.886 128.716 369.725 123.032C372.599 117.278 387.172 100.976 387.789 102.826C387.981 103.402 387.422 106.668 386.547 110.084ZM251.692 107.471C251.379 109.402 250.057 113.33 248.755 116.199L246.388 121.415L238.772 121.487L231.155 121.56L232.495 119.01C234.404 115.377 240.743 109.523 246 106.539C251.867 103.208 252.37 103.291 251.692 107.471ZM105.415 113.008C117.578 120.722 126.674 134.354 129.602 149.256C131.661 159.734 130.752 164.494 126.176 167.197L123.293 168.9L120.493 161.68C113.152 142.75 101.568 122.649 93.597 115.014C91.619 113.118 90 111.206 90 110.764C90 110.322 92.387 109.96 95.304 109.96C99.499 109.96 101.614 110.598 105.415 113.008ZM292.791 121.526C295.588 123.485 299 130.043 299 133.46C299 135.509 295.946 143.116 294.443 144.81C294.272 145.003 292.415 143.811 290.316 142.162C288.217 140.512 285.497 138.865 284.272 138.501L282.044 137.839L284.993 132.314C286.615 129.274 288.23 125.251 288.582 123.374C289.308 119.504 289.674 119.343 292.791 121.526ZM243.806 127.571C245.486 127.907 247.842 129.096 249.041 130.213C250.941 131.983 251.134 132.894 250.545 137.333C250.173 140.133 249.695 142.599 249.481 142.812C249.267 143.026 246.934 143.602 244.296 144.092C241.658 144.582 237.075 146.166 234.111 147.613L228.722 150.243L226.898 147.852C224.78 145.075 223.493 138.118 224.416 134.44C225.906 128.504 234.048 125.62 243.806 127.571ZM189.812 139.111C197.054 142.617 204.201 150.764 209.546 161.605C214.233 171.113 214.294 171.363 214.396 181.485L214.5 191.736L210.898 184.892C203.612 171.047 190.539 157.611 175.75 148.768C172.037 146.548 169 144.344 169 143.869C169 141.906 179.1 137.102 183.434 137.004C184.498 136.98 187.368 137.928 189.812 139.111ZM283.633 144.59C290.759 147.971 292.103 154.495 286.896 160.425C283.27 164.555 281.45 164.89 280.62 161.581C280.291 160.272 277.946 156.892 275.409 154.069C272.871 151.247 271.022 148.345 271.3 147.621C271.782 146.364 277.567 143.031 279.349 142.983C279.816 142.97 281.744 143.694 283.633 144.59ZM373.443 147.183C375.797 150.542 375.34 154.163 371.676 161.192C362.59 178.623 349.47 190.296 332.059 196.439C328.324 197.757 328 197.733 328 196.138C328 195.185 327.328 193.446 326.507 192.274C325.081 190.237 325.25 190.01 330.342 187.136C337.93 182.853 348.685 171.95 355.764 161.363C362.733 150.939 368.036 144.96 370.311 144.96C371.178 144.96 372.587 145.96 373.443 147.183ZM263.643 151.776C273.403 156.76 279.063 168.139 277.159 178.95C275.506 188.333 272.486 194.036 265.508 200.952L259.113 207.29L253.667 201.845C250.672 198.85 245.631 195.089 242.465 193.486C237.52 190.985 235.529 190.566 228.36 190.517L220.013 190.46L220.002 182.96C219.988 174.025 221.97 167.844 226.944 161.31C231.422 155.427 234.416 153.214 241.148 150.812C248.02 148.361 257.773 148.778 263.643 151.776ZM156 172.126C166.157 175.355 176.641 180.237 183.36 184.869C188.478 188.397 198.013 198.375 197.962 200.15C197.942 200.871 196.425 203.212 194.592 205.353L191.26 209.247L181.88 199.808C168.088 185.931 159.047 181.96 141.24 181.96C130.393 181.96 126 180.387 126 176.502C126 171.977 135.021 167.657 142.5 168.601C144.7 168.879 150.775 170.465 156 172.126ZM419.186 188.401C413.234 195.18 405.955 209.528 401.835 222.604L399.646 229.554L394.573 227.007C391.783 225.606 389.315 224.35 389.09 224.216C388.864 224.082 389.214 222.189 389.867 220.009C392.612 210.846 408.426 191.419 416.689 187.059C422.106 184.201 422.628 184.481 419.186 188.401ZM318.629 193.247C322.468 195.258 323.304 197.2 321.774 200.556C318.948 206.758 305.073 210.52 288.508 209.573C278.122 208.979 270.291 209.87 263.5 212.417C262.4 212.83 265.343 209.385 270.04 204.762C279.112 195.834 279.139 195.82 297.5 191.544C301.84 190.533 315.558 191.639 318.629 193.247ZM239.676 198.486C245.483 201.38 254.813 210.686 257.739 216.505C264.49 229.926 262.628 244.943 252.758 256.679L249.21 260.897L244.855 257.114C229.82 244.055 214.979 236.666 197.5 233.538L190.5 232.285L190.658 227.662C191.38 206.62 220.827 189.093 239.676 198.486ZM111.562 207.71C108.872 219.011 99.282 229.196 84.532 236.419C68.792 244.127 56.736 245.679 47 241.253C42.062 239.008 41.948 239.105 52.5 236.588C62.188 234.276 78.818 225.85 96 214.547C103.975 209.3 110.886 204.997 111.358 204.984C111.831 204.971 111.922 206.197 111.562 207.71ZM132.5 209.533C142.364 212.204 154.82 212.98 169.89 211.863C183.326 210.866 184.4 210.917 186.083 212.628C187.652 214.221 187.739 215.005 186.755 218.641L185.624 222.821L177.062 224.393C159.582 227.601 140.726 225.837 128.879 219.885C124.283 217.576 122.961 216.319 121.629 212.99C120.733 210.751 120 208.023 120 206.926C120 205.001 120.128 204.989 123.75 206.556C125.813 207.448 129.75 208.788 132.5 209.533ZM391.841 232.113L396.5 234.279L390.039 235.165C386.486 235.653 380.218 237.18 376.112 238.559C368.284 241.186 348.862 250.498 344.025 253.942L341.199 255.954L339.041 251.815L336.884 247.675L340.192 244.24C345.836 238.379 360.726 232.281 376 229.576C380.354 228.805 387.023 229.873 391.841 232.113ZM305.441 236.432C317.821 239.063 328.569 245.291 332.942 252.366C335.642 256.734 335.581 260.44 332.777 262.403C327.991 265.756 321.92 263.713 303.5 252.554C291.343 245.19 282.691 242.087 273.258 241.71C267.303 241.471 267.016 241.343 267.008 238.91C266.993 234.086 268.314 233.712 283.5 234.249C291.2 234.521 301.073 235.503 305.441 236.432ZM200.5 239.913C216.668 243.831 230.255 251.349 242.73 263.281C249.976 270.21 251.655 273.948 255.776 292.317C258.224 303.229 258.494 306.335 258.443 322.96C258.367 347.683 255.674 357.892 244.199 376.96C235.223 391.877 222.028 405.723 210.108 412.733C205.42 415.491 189.154 422.33 185 423.291L182.5 423.869V414.664C182.5 407.535 182.057 404.558 180.533 401.46C177.642 395.58 169.872 388.489 162.222 384.75C155.906 381.663 154.866 381.466 145 381.491C135.696 381.515 133.828 381.829 128.598 384.253C125.351 385.758 122.628 386.87 122.546 386.724C121.874 385.536 118.71 373.758 117.069 366.337C109.316 331.273 114.274 297.077 130.367 274.62C135.945 266.837 147.842 255.305 155 250.742C165.458 244.076 181.278 238.163 189 238.033C190.925 238 196.1 238.846 200.5 239.913ZM41.286 244.897C47.909 247.715 47.972 248.403 42.323 256.163C35.862 265.037 23.557 274.812 14.594 278.191L9.5 280.111L13.151 276.286C17.382 271.851 23.809 261.959 30.09 250.211C32.515 245.674 34.7381 242.074 35.0291 242.211C35.3191 242.348 38.135 243.557 41.286 244.897ZM271.282 254.955C283.216 272.637 294.41 281.958 309.216 286.543C322.087 290.529 322.054 290.51 318.5 292.001C316.85 292.692 312.8 293.457 309.5 293.7C300.73 294.345 293.591 291.38 285.346 283.667C277.792 276.6 275 272.759 268.631 260.667C263.515 250.953 263.187 249.52 265.75 248.069C267.093 247.309 267.586 247.47 267.871 248.764C268.074 249.691 269.609 252.477 271.282 254.955ZM137 257.764C137 258.206 135.474 260.046 133.61 261.854C131.745 263.661 128.483 267.536 126.36 270.466L122.5 275.793L114.784 276.993C103.233 278.791 97.9731 276.667 94.0861 268.637C90.5411 261.314 90.268 261.479 106.251 261.307C116.896 261.193 122.397 260.651 128 259.167C137.12 256.751 137 256.769 137 257.764ZM192.684 261.409C180.298 265.826 174.715 280.558 179.644 295.819L181.287 300.908L166.619 316.007C158.552 324.311 151.192 332.263 150.265 333.678C148.587 336.239 148.603 336.271 153.839 341.086C156.8 343.809 163.204 347.96 168.497 350.588C176.52 354.57 179.004 355.325 185.458 355.739C191.076 356.1 194.153 355.792 197.429 354.54C204.422 351.87 204.991 350.281 205.06 333.245C205.134 314.876 205.998 309.058 208.961 306.999C219.135 299.926 222.943 293.906 222.978 284.836C223.02 274.085 218.616 266.087 210.599 262.354C204.832 259.669 198.5 259.335 192.684 261.409ZM90.6379 274.112C92.0199 275.64 92.084 276.568 91.082 280.549C87.751 293.779 78.427 306.688 68.174 312.269C59.351 317.071 46.389 319.188 37.137 317.337L34.025 316.715L39.762 313.263C42.918 311.364 47.797 308.04 50.604 305.877C59.33 299.15 75.446 281.786 81.048 273.075L86.4 264.752L87.7111 268.54C88.4321 270.623 89.7489 273.131 90.6379 274.112ZM209 267.712C213.949 270.184 217 276.595 217 284.524C217 292.034 214.684 295.982 207.522 300.681C204.822 302.452 202.294 304.477 201.904 305.181C200.529 307.665 198.902 325.588 199.073 336.355C199.24 346.881 199.164 347.303 196.873 348.56C193.084 350.639 186.718 351.23 181.929 349.947C175.521 348.231 164.124 342.448 159.57 338.6L155.64 335.28L172.018 318.564L188.396 301.848L187.085 298.654C182.586 287.692 182.363 280.799 186.28 273.729C190.142 266.758 201.219 263.825 209 267.712ZM325.64 303.711C325.854 317.136 330.347 332.119 338.385 346.21L342.805 353.96H339.099C331.245 353.96 322.447 345.234 318.569 333.601C315.246 323.631 314.356 308.528 316.631 300.697C317.048 299.262 323.063 295.172 325 295.006C325.275 294.982 325.563 298.9 325.64 303.711ZM273.265 320.746C276.144 324.204 281.088 328.918 284.25 331.222C287.412 333.526 290 335.663 290 335.97C290 336.277 288.611 337.349 286.913 338.352C281.578 341.504 273.818 338.203 268.052 330.329C265.588 326.964 265.171 325.377 264.849 318.147C264.487 310.015 264.518 309.884 266.255 312.147C267.231 313.419 270.386 317.289 273.265 320.746ZM41.209 323.077L47.918 323.248L49.047 328.688C50.933 337.772 47.688 356.866 42.595 366.652L40.093 371.46L40.047 361.668C39.991 349.973 37.882 338.949 33.912 329.605C30.485 321.538 30.507 321.673 32.75 322.366C33.713 322.663 37.519 322.983 41.209 323.077ZM291.689 346.21C290.425 351.098 290.158 395.113 291.334 404.71C291.812 408.615 291.735 410.96 291.127 410.96C290.593 410.96 288.208 409.497 285.828 407.71C275.579 400.013 272.43 384.324 277.446 365.96C278.873 360.735 280.561 353.873 281.197 350.71C282.253 345.459 282.581 344.96 284.985 344.96C286.433 344.96 288.491 344.299 289.559 343.492C292.557 341.224 292.873 341.627 291.689 346.21ZM346.999 360.243C346.999 360.674 345.93 363.149 344.622 365.743C341.438 372.059 336.794 384.013 334.494 391.813C332.811 397.521 332.524 397.928 331.668 395.813C330.014 391.729 330.36 375.055 332.267 366.941L334.034 359.422L340.516 359.441C344.081 359.451 346.998 359.812 346.999 360.243ZM156.333 388.561C171.274 393.774 179.406 406.07 177.348 420.332L176.5 426.204L164 429.963C147.848 434.82 144.106 436.236 139.134 439.375C136.882 440.797 134.866 441.96 134.654 441.96C134.441 441.96 134.022 437.572 133.722 432.21C133.306 424.79 132.182 419.15 129.019 408.61C126.733 400.993 125.113 394.108 125.419 393.309C126.096 391.547 133.484 388.17 139.27 386.977C144.246 385.952 150.524 386.534 156.333 388.561ZM280.558 410.877C282.385 412.481 284.691 414.247 285.682 414.802C286.673 415.356 287.262 415.963 286.992 416.149C286.721 416.336 283.249 418.66 279.275 421.314C271.373 426.591 261.737 436.347 259.225 441.614C256.828 446.64 255.758 445.669 256.42 439.069C257.565 427.671 262.32 418.916 271.16 411.928C273.921 409.745 276.417 407.96 276.708 407.96C276.998 407.96 278.731 409.273 280.558 410.877Z" fill="#FFC4C4"/>
</svg>
