<svg width="454" height="497" viewBox="0 0 454 497" fill="none" xmlns="http://www.w3.org/2000/svg">
<path fill-rule="evenodd" clip-rule="evenodd" d="M232.701 0.83433C232.191 1.48933 231.266 3.53233 230.646 5.37333C229.115 9.92033 221.679 20.1683 216.35 25.0763C209.921 30.9963 202.068 36.5803 192.482 42.0473C168.697 55.6103 161.356 63.6503 157.473 80.3863C154.951 91.2553 158.213 107.025 162.982 107.025C165.395 107.025 165.405 104.634 163.027 96.5253C161.688 91.9613 161.603 89.9193 162.52 84.5253C164.965 70.1383 172.302 60.4083 187.147 51.8673C210.205 38.6003 220.507 30.5873 228.952 19.3533C231.499 15.9653 233.482 14.0673 233.482 15.0193C233.482 15.9493 233.998 22.1503 234.63 28.7983C236.305 46.4493 235.176 51.2763 227.472 59.3723C224.252 62.7563 221.433 65.5253 221.209 65.5253C220.984 65.5253 220.281 63.7983 219.649 61.6883C218.127 56.6083 215.307 54.1013 212.039 54.9213C209.563 55.5433 198.795 67.2153 193.745 74.7503C191.196 78.5553 191.259 81.5253 193.888 81.5253C194.695 81.5253 199.048 77.0093 203.562 71.4893C208.075 65.9693 212.266 61.6163 212.875 61.8163C213.484 62.0163 214.504 64.2593 215.142 66.8023C215.78 69.3453 216.594 71.8983 216.951 72.4753C218.527 75.0243 221.982 73.0693 229.756 65.2293C238.468 56.4433 247.541 49.7143 254.975 46.5283C257.454 45.4653 259.482 44.7553 259.482 44.9483C259.482 45.1423 258.086 48.2863 256.378 51.9363C252.741 59.7083 252.114 64.7743 254.722 65.3103C255.678 65.5073 260.469 62.9863 265.369 59.7083C273.816 54.0583 285.817 48.6323 293.462 47.0053C296.761 46.3043 296.867 46.3633 295.482 48.1453C294.677 49.1793 291.683 52.6023 288.826 55.7513C282.762 62.4383 281.619 65.0903 283.844 67.3153C285.266 68.7373 286.086 68.5523 292.731 65.3103C301.496 61.0343 311.468 57.9513 320.987 56.5753C333.919 54.7073 333.882 54.6523 325.216 62.7753C317.371 70.1293 315.551 73.8463 319.125 75.2183C320.027 75.5643 325.744 74.5983 331.83 73.0723C344.002 70.0183 368.464 68.1283 367.093 70.3483C366.709 70.9683 362.431 74.1903 357.586 77.5083C347.359 84.5133 345.202 86.6313 346.049 88.8393C346.568 90.1933 348.478 90.4233 358.324 90.3233C365.087 90.2533 371.872 90.7363 374.482 91.4713L378.982 92.7393L369.732 97.0643C362.518 100.437 360.482 101.837 360.482 103.422C360.482 105.872 361.947 106.665 370.732 108.973C374.445 109.949 377.482 111.065 377.482 111.453C377.482 111.842 374.894 112.971 371.732 113.963C364.884 116.11 357.208 119.875 352.752 123.271C349.913 125.434 349.136 125.6 346.353 124.629C344.61 124.022 341.789 123.533 340.084 123.542C336.803 123.561 325.287 125.839 322.083 127.104C321.029 127.52 323.586 123.58 327.833 118.245C332.041 112.96 335.482 107.991 335.482 107.203C335.482 103.872 332.865 103.277 325.536 104.944C316.953 106.897 302.152 112.287 297.035 115.324C295.028 116.516 300.602 109.649 304.503 106.125C313.361 98.1223 306.726 95.2983 290.222 100.046C282.98 102.13 270.985 107.262 259.232 113.306C257.668 114.11 258.625 111.303 263.013 102.225C268.061 91.7813 268.068 89.5253 263.051 89.5253C257.534 89.5253 241.361 95.7013 231.22 101.68C228.481 103.295 226.082 104.457 225.888 104.263C225.694 104.069 229.344 99.2113 233.999 93.4683C238.654 87.7243 242.466 82.5183 242.472 81.8973C242.492 79.6463 239.63 78.3343 236.294 79.0663C227.234 81.0563 202.963 95.1463 196.045 102.432C194.43 104.133 192.803 105.525 192.429 105.525C192.056 105.525 191.972 102.411 192.244 98.6053C192.904 89.3843 192.137 86.5253 189.001 86.5253C187.146 86.5253 185.616 87.9103 182.649 92.2753C180.501 95.4373 174.595 101.96 169.527 106.769C160.421 115.409 159.155 117.732 163.225 118.333C164.733 118.556 168.25 115.785 175.914 108.333L186.516 98.0253L186.25 106.993C186.017 114.825 186.201 116.005 187.715 116.313C188.668 116.507 190.468 115.575 191.715 114.243C196.159 109.495 206.008 101.359 212.444 97.1193C219.632 92.3843 228.789 87.5253 230.526 87.5253C231.137 87.5253 229.63 89.8883 227.177 92.7753C216.881 104.893 213.898 112.66 219.045 113.951C221.047 114.454 223.113 113.595 228.479 110.027C232.258 107.515 238.417 104.065 242.166 102.361C249.865 98.8603 259.482 95.3903 259.482 96.1123C259.482 96.3763 258.282 98.9393 256.815 101.808C252.707 109.847 249.5 120.688 250.614 122.77C251.918 125.206 254.413 124.962 257.428 122.102C262.647 117.152 285.099 106.626 293.999 104.956L297.849 104.234L291.865 111.629C285.33 119.705 281.482 125.814 281.482 128.114C281.482 131.019 284.364 130.602 289.06 127.018C295.252 122.291 304.766 117.537 315.877 113.617C324.711 110.501 326.693 110.307 324.758 112.751C310.969 130.161 305.415 137.908 305.87 139.094C306.672 141.183 308.188 140.878 313.617 137.537C320.387 133.372 329.75 130.369 337.881 129.755C345.604 129.173 345.512 128.819 339.666 136.496C333.07 145.159 329.034 157.078 331.893 159.451C334.298 161.447 336.136 160.089 336.82 155.811C339.301 140.3 357.101 123.648 377.036 118.189C384.717 116.086 386.58 115.82 405.996 114.059C423.27 112.491 432.636 110.181 438.81 105.962C440.915 104.524 442.821 103.531 443.045 103.755C443.269 103.979 441.998 106.59 440.218 109.558C435.023 118.222 427.78 123.194 406.194 132.917C384.881 142.517 376.66 147.291 370.392 153.711C362.504 161.79 360.874 169.052 365.492 175.537C368.2 179.341 373.197 180.823 381.694 180.343C387.927 179.991 388.999 179.625 391.162 177.111C392.503 175.552 393.35 173.657 393.042 172.9C392.735 172.144 392.235 170.917 391.932 170.174C391.514 169.145 393.056 168.683 398.401 168.235C402.26 167.911 407.508 166.723 410.062 165.593C414.475 163.641 414.682 163.368 414.295 160.049C413.922 156.853 414.25 156.329 418.195 153.836C424.129 150.085 426.909 144.26 425.982 137.518C425.604 134.772 424.86 132.525 424.329 132.525C422.509 132.525 424.504 130.684 429.117 128.105C431.656 126.686 433.939 125.525 434.189 125.525C434.928 125.525 433.414 138.515 431.87 145.429C429.639 155.417 426.067 160.867 415.49 170.418C400.966 183.533 392.483 192.698 392.482 195.275C392.482 199.335 395.768 197.777 402.993 190.29C406.849 186.294 414.752 178.685 420.555 173.38C429.011 165.651 431.442 163.923 432.794 164.68C437.939 167.559 429.184 184.985 416.575 196.962C412.967 200.389 412.774 201.574 415.434 203.982C417.309 205.679 417.728 205.626 425.979 202.64C430.704 200.93 435.931 198.828 437.594 197.967C447.055 193.075 437.35 203.071 424.918 211.023C419.12 214.732 417.926 217.621 421.417 219.49C423.656 220.688 434.82 220.762 441.732 219.624C447.866 218.614 447.911 219.872 441.958 225.998C436.684 231.424 427.717 235.93 418.474 237.801C412.671 238.976 411.982 239.368 411.982 241.495C411.982 243.591 413.299 244.404 422.982 248.288C429.032 250.715 436.225 253.489 438.966 254.453C443.94 256.201 443.945 256.207 441.466 257.576C439.852 258.467 434.779 259.049 426.982 259.236C420.382 259.394 414.42 259.735 413.732 259.993C413.045 260.251 412.482 262.067 412.482 264.028C412.482 267.1 413.416 268.523 419.232 274.31C422.945 278.003 428.119 282.15 430.732 283.524C433.345 284.897 435.482 286.421 435.482 286.91C435.482 287.399 431.267 287.577 426.098 287.307C420.937 287.037 415.987 287.223 415.098 287.72C411.008 290.009 415.351 299.833 423.558 306.858L427.948 310.615L414.81 310.368C401.507 310.118 398.482 310.8 398.482 314.052C398.482 314.756 401.857 318.665 405.982 322.737C413.684 330.339 415.369 333.335 411.232 332.071C407.766 331.011 389.983 330.183 386.966 330.94C384.527 331.552 384.316 331.977 384.659 335.569C384.866 337.745 384.934 339.525 384.81 339.525C384.686 339.525 383.324 338.352 381.784 336.919C378.308 333.685 368.707 328.821 357.273 324.502C350.113 321.797 348.293 321.437 347.044 322.474C344.973 324.193 346.605 327.088 350.146 327.977C351.64 328.352 357.647 330.666 363.496 333.12C376.025 338.375 383.482 345.019 383.482 350.924C383.482 352.226 382.775 352.15 378.732 350.416C372.857 347.895 347.821 342.181 345.893 342.921C343.647 343.783 344.242 346.488 347.494 350.191C350.115 353.177 357.482 366.377 357.482 368.089C357.482 368.427 356.081 367.524 354.369 366.084C350.29 362.651 331.643 353.525 328.709 353.525C325.582 353.525 324.919 355.918 326.824 360.329C327.702 362.362 328.727 365.809 329.103 367.989L329.785 371.954L327.383 370.403C326.063 369.55 323.811 368.095 322.378 367.169C318.426 364.614 303.413 359.567 299.701 359.545C294.373 359.513 294.414 362.133 299.816 366.911C306.236 372.589 309.32 381.074 306.553 385.446C305.78 386.667 305.324 386.653 303.317 385.351C299.59 382.931 285.795 378.769 275.482 376.953C270.257 376.033 264.509 374.679 262.708 373.943C260.908 373.208 258.77 372.861 257.958 373.173C255.529 374.105 256.281 377.37 259.284 378.923C262.503 380.587 270.482 388.922 270.482 390.619C270.482 391.353 269.503 391.527 267.732 391.108C266.22 390.751 259.807 390.196 253.482 389.874C240.349 389.207 228.182 391.006 218.096 395.104L212.076 397.55L207.285 392.831C204.65 390.236 202.83 387.811 203.239 387.443C203.648 387.074 207.132 385.762 210.982 384.526C214.832 383.29 220.556 380.929 223.701 379.28C230.148 375.898 240.299 366.074 244.773 358.885C247.951 353.779 252.482 341.857 252.482 338.603C252.482 337.525 252.859 336.41 253.319 336.125C254.807 335.206 261.244 342.856 264.173 349.025C266.195 353.286 267.65 355.115 269.189 355.336C271.932 355.73 273.58 353.257 278.57 341.265C280.898 335.67 282.922 332.133 283.699 332.298C284.405 332.448 286.332 334.242 287.982 336.284C289.632 338.327 292.426 341.492 294.19 343.319C296.963 346.191 297.686 346.487 299.52 345.505C301.535 344.427 307.481 333.428 307.482 330.775C307.483 330.088 307.947 329.525 308.515 329.525C310.467 329.525 319.41 334.523 322.827 337.523C329.437 343.327 331.738 340.998 332.31 327.922L332.721 318.525L338.851 318.549C342.223 318.562 346.782 319.06 348.982 319.656C351.182 320.251 354.332 320.803 355.982 320.882C358.431 320.999 359.044 320.588 359.318 318.646C359.504 317.337 358.908 314.31 357.995 311.919C357.082 309.529 356.585 307.167 356.891 306.672C357.807 305.191 366.449 303.255 374.982 302.62C382.261 302.079 383.01 301.826 383.297 299.813C383.895 295.606 375.061 283.571 367.957 278.916L365.301 277.176L368.141 275.652C369.704 274.814 376.382 272.272 382.982 270.004C392.736 266.651 394.982 265.518 394.982 263.952C394.982 261.399 388.433 258.193 377.398 255.344L368.814 253.127L374.398 248.925C383.298 242.228 387.634 237.601 387.288 235.172C386.987 233.063 386.659 233.026 368.732 233.085C358.695 233.118 350.482 232.876 350.482 232.547C350.482 232.219 352.766 229.717 355.557 226.987C361.454 221.221 362.703 219.265 361.871 217.097C361.032 214.909 356.657 215.065 345.982 217.663C323.904 223.037 320.235 224.677 323.344 227.786C324.18 228.622 327.765 228.086 337.226 225.711C344.242 223.95 350.377 222.513 350.859 222.517C351.342 222.522 349.879 224.54 347.609 227.003C343.192 231.795 342.036 236.756 345.065 237.918C345.935 238.252 353.64 238.525 362.187 238.525C380.282 238.525 380.08 238.006 365.896 248.06C358.394 253.378 356.443 255.252 356.681 256.915C356.956 258.839 357.817 259.081 366.482 259.658C371.707 260.006 377.782 260.969 379.982 261.798L383.982 263.304L380.982 264.442C379.332 265.067 376.632 266.076 374.982 266.684C373.332 267.292 368.955 269.142 365.256 270.794C357.222 274.383 355.796 276.865 359.982 279.974C364.333 283.206 375.483 294.095 375.48 295.108C375.478 295.613 371.684 296.76 367.049 297.659C362.414 298.558 356.904 300.133 354.803 301.159C351.407 302.818 350.996 303.414 351.104 306.525C351.171 308.45 351.566 311.061 351.984 312.327C352.688 314.463 352.535 314.576 349.862 313.901C348.278 313.501 343.318 313.14 338.84 313.099C327.596 312.997 326.482 314.052 326.482 324.802V332.769L324.232 331.114C322.994 330.203 319.115 328.056 315.611 326.341C306.971 322.113 304.955 322.843 301.338 331.513C299.856 335.065 298.27 338.084 297.814 338.223C297.357 338.361 295.632 336.634 293.982 334.385C288.723 327.217 281.335 323.533 278.719 326.775C278.164 327.463 276.3 331.567 274.577 335.897C269.969 347.478 270.006 347.436 268.013 343.582C265.291 338.32 258.502 331.525 255.966 331.525C254.143 331.525 253.571 330.798 253.01 327.775C251.156 317.783 241.197 304.948 231.475 300.022C219.787 294.099 210.296 295.815 193.517 306.885C174.988 319.11 170.095 320.452 158.889 316.378C150.696 313.4 139.007 313.394 131.397 316.365C124.712 318.975 115.356 324.546 108.489 330.005C103.563 333.922 103.482 334.074 103.482 339.521C103.482 346.25 101.045 351.268 96.4715 353.953C93.4875 355.705 92.5595 355.774 86.3165 354.703C75.4565 352.841 68.7895 353.23 61.9825 356.122C52.3525 360.213 49.9315 360.723 45.6285 359.564C37.4765 357.369 33.0526 351.178 34.8426 344.471C36.8196 337.063 32.2964 334.8 29.8204 341.959C26.9684 350.205 23.3915 351.323 14.4115 346.775C8.08345 343.569 4.73554 338.639 5.85554 334.175C6.24354 332.63 9.99244 328.14 14.4954 323.829C20.4194 318.157 22.6134 315.343 23.0894 312.809C23.5454 310.376 24.1446 309.565 25.1866 309.965C25.9896 310.273 27.0536 310.525 27.5516 310.525C28.0646 310.525 28.1965 313.672 27.8575 317.775L27.2574 325.025L31.5384 330.775C33.8924 333.938 36.5734 336.525 37.4954 336.525C39.6344 336.525 42.2915 333.579 45.4705 327.683C48.7275 321.643 51.9985 321.014 57.0555 325.455C61.5595 329.409 63.8826 329.325 68.1546 325.053C71.3986 321.809 71.6104 321.203 71.3924 315.803C71.0424 307.156 72.7195 303.384 79.5455 297.471C82.8105 294.642 85.4825 291.765 85.4825 291.079C85.4825 290.393 86.4326 288.75 87.5926 287.428C88.7536 286.106 91.7346 280.809 94.2176 275.656C98.1936 267.407 98.6664 265.723 98.1734 261.563C97.5104 255.968 99.3625 252.244 104.911 248.012C106.89 246.502 110.728 242.218 113.439 238.491C116.149 234.764 119.998 230.472 121.991 228.951C125.794 226.05 129.518 219.904 128.761 217.775C127.932 215.444 124.655 216.51 122.611 219.775C121.492 221.563 119.001 224.265 117.076 225.78C115.151 227.296 111.564 231.356 109.104 234.803C106.644 238.251 102.822 242.525 100.611 244.301C98.4004 246.078 95.7934 248.882 94.8184 250.533C93.2694 253.156 92.6414 253.458 89.8294 252.93C85.9234 252.198 80.3596 253.899 77.9486 256.563C76.9716 257.642 75.0045 258.535 73.5775 258.547C70.3565 258.574 63.4484 261.645 61.6104 263.867C58.9364 267.097 57.4825 265.86 57.4825 260.354C57.4825 255.561 57.7974 254.883 61.7764 251.104C64.7334 248.294 68.7915 245.976 74.8145 243.654C79.6245 241.8 84.5406 239.489 85.7406 238.517C86.9396 237.546 89.0695 233.888 90.4725 230.388C92.7155 224.793 93.3466 224.025 95.6976 224.025C97.1676 224.025 98.9026 223.496 99.5526 222.85C101.659 220.754 96.7094 212.63 88.2874 204.36C81.3494 197.547 78.6794 194.293 81.4134 195.982C81.9254 196.299 84.6425 196.61 87.4515 196.673C92.2875 196.782 92.7945 197.058 97.0555 201.906C99.5295 204.722 103.224 209.604 105.267 212.757C107.31 215.91 109.432 218.654 109.982 218.855C112.552 219.796 117.677 216.202 121.087 211.066C126.584 202.787 126.257 198.544 119.097 185.197C112.982 173.796 112.409 170.627 114.607 160.38C115.683 155.36 115.625 155.048 113.243 153.081C111.875 151.95 109.313 150.24 107.549 149.282C104.932 147.859 104.469 147.123 105.021 145.282C106.349 140.858 112.994 125.53 113.585 125.527C113.915 125.526 114.98 128.463 115.952 132.053C117.996 139.603 120.586 141.968 123.424 138.875C124.358 137.858 126.795 132.703 128.837 127.42C130.88 122.137 133.241 116.962 134.084 115.92C135.483 114.192 135.566 114.741 135.037 122.142C134.57 128.677 134.753 130.504 135.971 131.515C138.114 133.293 139.772 131.667 144.002 123.638C145.918 120.001 148.594 115.675 149.949 114.025L152.41 111.025L152.447 118.841C152.467 123.139 152.056 127.454 151.534 128.43C151.012 129.405 148.087 132.13 145.034 134.486C139.45 138.794 138.129 141.668 140.997 143.274C142.329 144.019 142.265 144.843 140.461 150.073C139.332 153.347 138.536 157.15 138.695 158.525C138.944 160.697 139.54 161.065 143.232 161.332C145.57 161.502 147.482 162.022 147.482 162.489C147.482 162.956 146.133 166.346 144.483 170.022C137.451 185.696 135.397 199.655 140.027 200.318C141.85 200.579 142.186 199.815 143.129 193.268C143.752 188.942 146.097 181.208 148.835 174.442C155.094 158.979 154.901 155.525 147.783 155.525C145.968 155.525 144.482 155.412 144.483 155.275C144.483 155.138 145.406 152.596 146.535 149.627C147.663 146.658 148.46 143.262 148.305 142.08C148.113 140.614 149.498 138.516 152.66 135.478C158.26 130.1 159.124 126.23 157.84 112.315C156.997 103.187 156.935 103.02 154.254 102.711C151.903 102.44 150.868 103.307 146.754 108.991L141.982 115.586L141.464 110.806C141.179 108.176 140.591 105.463 140.156 104.775C138.79 102.617 135.761 103.406 133.053 106.624C130.504 109.654 122.482 125.424 122.482 127.406C122.482 127.957 122.074 128.66 121.574 128.969C121.074 129.278 120.132 126.373 119.481 122.513C118.16 114.684 115.964 112.187 113.003 115.148C111.12 117.03 104.589 129.864 101.985 136.799C100.341 141.176 100.052 141.446 98.5084 140.049C94.0194 135.986 91.8566 139.529 90.8736 152.55L90.1866 161.65L85.9495 157.492C78.5805 150.261 75.0365 153.664 75.8685 167.173C76.4295 176.272 78.1256 181.217 82.6036 186.811L85.6334 190.596L79.1656 189.934C73.1006 189.312 72.6545 189.407 72.0015 191.466C71.0945 194.323 75.1064 200.187 81.8084 205.798C84.5504 208.093 88.0265 211.674 89.5335 213.754L92.2735 217.537L89.4486 220.562C87.8946 222.225 85.8636 225.871 84.9366 228.664C83.3706 233.379 82.8465 233.918 77.6165 236.201C74.5175 237.553 69.7356 239.642 66.9886 240.842C61.1926 243.376 55.0096 248.605 52.8326 252.814C51.8696 254.678 51.4355 257.657 51.6475 260.95C51.9655 265.884 51.7904 266.315 48.1954 269.471C45.7194 271.646 43.2335 272.868 41.0115 273.003C39.1425 273.116 36.4214 273.99 34.9644 274.945C31.8444 276.989 28.5355 283.736 28.5045 288.117C28.4855 290.841 28.0155 291.348 24.5565 292.385C20.1265 293.712 15.4825 298.571 15.4825 301.879C15.4825 303.09 16.1865 305.085 17.0465 306.313C19.4335 309.721 18.0795 312.277 9.48054 320.598C3.39954 326.482 1.39558 329.135 0.489576 332.497C-1.78442 340.944 4.00453 349.335 14.9185 353.411C19.8245 355.243 19.8614 355.291 21.0914 361.322C22.8594 369.987 25.9536 376.387 30.7386 381.275C34.7336 385.356 38.6176 386.733 39.9686 384.548C40.3006 384.011 40.0656 381.691 39.4466 379.392C38.2376 374.903 37.7126 364.962 38.6346 364.039C39.7616 362.913 42.4825 364.792 42.4825 366.698C42.4825 371.185 48.5075 378.525 52.1915 378.525C53.6675 378.525 54.9164 377.666 55.5904 376.188L56.6546 373.851L59.4915 376.688C62.7095 379.906 65.9665 380.357 67.3485 377.775C67.8635 376.813 68.6094 373.859 69.0064 371.213L69.7286 366.4L71.4835 369.213C77.3045 378.543 85.2065 381.543 87.4505 375.275L88.6136 372.025L90.4625 375.525C93.3655 381.022 98.7785 385.682 102.473 385.866L105.681 386.025L106.069 372.025C106.552 354.594 106.898 350.698 108.243 347.436C109.152 345.234 109.793 344.917 112.53 345.319C114.301 345.578 116.543 346.451 117.515 347.258C124.114 352.737 126.408 355.538 127.443 359.38C128.872 364.686 132.85 367.111 135.093 364.044C135.857 362.998 136.493 360.316 136.506 358.084C136.537 353.023 138.084 346.166 140.202 341.702C141.44 339.093 141.558 337.876 140.704 336.509C139.76 334.997 140.043 334.535 142.547 333.498C145.295 332.36 154.836 332.545 156.052 333.761C156.341 334.049 155.142 336.411 153.389 339.008C148.631 346.057 144.744 356.203 143.975 363.577C143.293 370.112 143.28 370.136 138.739 372.545C133.53 375.309 128.074 381.76 124.567 389.303C122.327 394.122 122.074 394.344 121.067 392.366C119.562 389.409 115.935 388.216 114.084 390.067C112.145 392.006 111.074 401.22 111.837 409.405L112.452 416.025H108.233C105.47 416.025 103.371 415.388 102.152 414.179C100.778 412.817 99.2144 412.436 96.1824 412.725C93.1814 413.011 91.5904 412.633 90.2784 411.321C89.2904 410.333 87.1845 409.525 85.5985 409.525C82.1415 409.525 77.1154 404.388 72.4024 396.037C68.8394 389.724 65.1995 387.876 62.7305 391.128C60.7415 393.748 61.7054 407.283 64.4664 415.478C66.1074 420.35 66.3095 422.028 65.3875 423.14C64.6385 424.042 64.4046 426.485 64.7496 429.824C65.2896 435.054 65.2635 435.115 60.3375 440.055C57.6115 442.789 53.9685 447.886 52.2415 451.384C49.6125 456.707 49.0916 458.941 49.0416 465.101C48.9926 471.251 49.3214 472.799 51.0494 474.531C53.7644 477.253 55.2725 476.497 59.4825 470.301L62.9825 465.15L63.6876 472.149C64.8686 483.879 70.4376 493.525 76.0306 493.525C78.2716 493.525 80.4825 489.589 80.4825 485.598C80.4825 484.702 82.1135 480.606 84.1075 476.497L87.7325 469.025L89.0206 475.156C91.0286 484.714 95.6514 492.01 101.673 495.124C105.868 497.293 107.087 495.793 107.773 487.61C108.091 483.81 109.344 478.392 110.557 475.571L112.764 470.442L115.573 475.359C119.974 483.065 128.068 488.697 136.504 489.922C139.711 490.388 141.595 490.164 142.98 489.151C144.903 487.745 144.892 487.601 142.208 479.651C139.722 472.288 138.739 466.525 139.968 466.525C140.235 466.525 142.597 467.838 145.218 469.442C150.316 472.563 159.631 475.924 165.704 476.833C168.357 477.23 170.015 476.907 171.471 475.708L173.514 474.025L171.499 467.028C168.164 455.452 169.301 445.77 175.422 433.644C178.445 427.655 183.7 421.524 185.809 421.526C186.454 421.526 189.51 423.511 192.6 425.936C200.747 432.333 202.768 437.064 203.523 451.525C204.128 463.119 205.355 467.525 207.982 467.525C209.732 467.525 211.009 465.187 211.87 460.41C212.229 458.421 214.264 454.362 216.393 451.389C224.245 440.424 225.792 432.856 222.576 421.133C221.41 416.883 219.32 411.166 217.933 408.428C216.545 405.69 215.657 403.052 215.958 402.566C217.136 400.66 232.556 396.453 241.335 395.643C250.993 394.752 263.998 395.597 268.751 397.425C270.273 398.01 271.949 399.622 272.475 401.007C273.557 403.853 276.557 404.344 278.507 401.995C279.486 400.815 279.514 399.891 278.629 397.948C277.998 396.564 277.482 394.628 277.482 393.647C277.482 392.667 276.395 389.717 275.067 387.094L272.652 382.323L277.317 383.021C283.685 383.974 296.988 388.254 300.832 390.587C302.565 391.64 304.227 393.516 304.526 394.758C305.293 397.94 308.054 398.109 310.03 395.094C312.501 391.322 313.2 377.155 311.156 372.275C309.735 368.884 309.733 368.525 311.143 368.525C312 368.525 315.376 369.95 318.643 371.692C324.738 374.94 329.482 379.526 329.482 382.168C329.482 383.203 330.322 383.561 332.232 383.341C334.824 383.043 334.996 382.71 335.228 377.525C335.364 374.5 335.066 369.775 334.567 367.025C334.067 364.275 333.81 361.872 333.994 361.685C334.178 361.497 337.951 363.228 342.377 365.531C349.805 369.395 352.845 372.055 358.982 380.052C360.329 381.806 361.534 382.446 362.671 382.008C366.937 380.366 365.384 370.236 358.887 357.335C354.902 349.42 354.673 349.552 367.015 352.647C375.908 354.877 384.482 359.453 384.482 361.968C384.482 363.918 387.722 365.613 389.431 364.556C390.361 363.982 390.604 362.469 390.222 359.626C389.916 357.34 390.115 355.252 390.673 354.907C391.264 354.541 391.532 350.557 391.328 345.157L390.982 336.025L398.482 336.333C402.607 336.503 408.812 337.332 412.27 338.176C415.728 339.02 419.215 339.458 420.02 339.149C423.773 337.709 420.484 329.801 412.584 321.268L407.042 315.281L416.012 315.556C431.163 316.02 434.296 315.712 436.46 313.548C439.145 310.863 438.126 308.888 432.607 306.072C427.891 303.665 424.071 300.125 421.055 295.365L419.37 292.704L425.402 293.251C432.848 293.927 439.885 292.099 442.464 288.821C445.126 285.437 444.144 283.885 437.107 280.356C430.507 277.046 421.142 269.627 419.358 266.294C418.298 264.312 418.44 264.262 423.232 264.897C429.714 265.757 441.542 264.045 446.461 261.536C454.304 257.534 454.943 252.385 447.76 251.062C443.278 250.236 425.482 243.372 425.482 242.469C425.482 242.124 427.239 241.315 429.385 240.672C439.367 237.682 453.506 224.143 453.468 217.612C453.438 212.593 452.333 212.023 445.192 213.338C441.65 213.991 436.824 214.525 434.468 214.525H430.182L434.583 211.339C437.003 209.586 441.317 205.819 444.169 202.968C452.736 194.404 455.434 188.39 451.994 185.535C450.779 184.526 449.636 184.859 445.744 187.354C440.564 190.675 426.547 196.924 425.848 196.224C425.61 195.986 427.39 193.367 429.803 190.405C435.061 183.95 438.088 178.248 439.426 172.28C440.708 166.557 439.3 161.218 436.127 159.772L433.775 158.702L436.045 151.863C438.881 143.315 440.61 126.082 438.869 123.702C437.871 122.336 438.257 121.409 441.173 118.182C448.466 110.11 451.763 97.8993 447.653 94.1803C445.682 92.3963 442.482 91.9433 442.482 93.4483C442.482 95.4943 436.935 100.769 432.326 103.104C424.412 107.115 388.216 111.209 384.913 108.467C384.118 107.808 380.663 106.253 377.236 105.012L371.005 102.755L378.993 98.8903C385.661 95.6643 387.032 94.5923 387.286 92.4053C387.544 90.1773 386.998 89.5493 383.63 88.2013C379.361 86.4933 369.688 84.6943 362.553 84.2813L358.122 84.0253L366.824 78.0253C375.417 72.0993 378.015 68.6573 375.666 66.3083C372.922 63.5643 346.29 63.7093 334.055 66.5353C331.815 67.0533 329.655 67.4873 329.254 67.5013C328.854 67.5143 330.653 65.6133 333.25 63.2753C339.777 57.3993 340.504 56.3833 340.226 53.5253C339.991 51.1163 339.692 51.0143 332.031 50.7293C322.436 50.3733 313.085 51.7233 303.022 54.9183L295.523 57.3003L301.025 51.1623C307.287 44.1773 308.085 40.2693 303.36 39.7213C297.295 39.0183 277.856 45.4083 267.517 51.5053C264.699 53.1663 262.181 54.5253 261.921 54.5253C261.661 54.5253 262.603 52.2473 264.014 49.4633C268.221 41.1613 268.582 39.7683 266.952 38.1373C265.012 36.1983 260.49 37.4623 249.982 42.8813C245.582 45.1503 241.598 47.1773 241.128 47.3843C240.657 47.5923 240.554 46.4713 240.899 44.8933C241.62 41.6043 238.909 9.85733 237.44 4.37833C236.398 0.495329 234.23 -1.12667 232.701 0.83433ZM420.347 138.396C420.619 144.363 417.642 148.476 410.891 151.462C405.998 153.627 404.576 155.844 406.305 158.611C406.93 159.613 407.113 160.635 406.712 160.882C404.943 161.973 393.525 163.525 387.267 163.525C378.461 163.525 377.309 165.324 383.037 170.133C385.181 171.933 386.637 173.704 386.272 174.069C385.126 175.215 374.051 174.9 371.725 173.655C364.691 169.891 370.228 159.03 383.534 150.492C388.511 147.298 417.032 133.732 419.054 133.597C419.651 133.557 420.223 135.682 420.347 138.396ZM235.076 138.94C228.659 142.285 222.185 146.961 215.747 152.903C213.968 154.545 212.231 155.606 211.886 155.261C211.54 154.916 211.973 152.535 212.847 149.97C214.513 145.081 213.775 141.525 211.097 141.525C208.7 141.525 201.103 147.671 191.633 157.271L182.285 166.749L183.001 158.15C183.792 148.653 183.209 147.624 177.816 148.977C171.993 150.439 152.482 173.682 152.482 179.157C152.482 182.242 155.146 182.88 156.987 180.237C166.597 166.438 174.782 156.525 176.562 156.525C177.015 156.525 177.123 160.246 176.802 164.793C176.316 171.675 176.489 173.286 177.837 174.405C180.545 176.652 183.653 174.816 190.18 167.113C193.588 163.091 198.61 157.931 201.337 155.647L206.295 151.495L204.889 156.169C202.978 162.519 203.121 165.261 205.428 166.496C207.088 167.384 208.737 166.351 216.678 159.453C225.539 151.756 237.465 143.175 238.234 143.944C238.432 144.142 237.869 147.103 236.982 150.524C233.594 163.6 236.507 165.523 247.838 157.69C255.386 152.472 270.449 144.158 271.127 144.836C271.343 145.052 270.134 148.483 268.442 152.46C263.026 165.186 265.21 167.525 277.586 162.253C287.688 157.948 296.001 155.198 297.447 155.68C298.03 155.874 296.469 158.731 293.98 162.029C290.927 166.072 289.539 168.839 289.718 170.525C290.065 173.799 292.505 174.106 302.848 172.177C307.321 171.342 313.457 170.401 316.482 170.084L321.982 169.509L317.982 172.729C310.836 178.481 304.276 185.405 304.718 186.73C305.619 189.438 308.725 188.572 313.288 184.341C315.87 181.947 321.019 177.773 324.732 175.064C331.919 169.82 333.376 166.609 329.508 164.539C327.464 163.445 309.169 164.687 301.308 166.453C296.933 167.436 296.901 167.565 303.072 159.464C308.304 152.597 309.095 149.358 305.848 148.112C303.811 147.33 287.483 151.715 279.44 155.203C276.136 156.636 273.21 157.587 272.94 157.316C272.669 157.045 273.837 153.854 275.536 150.224C279.279 142.224 279.225 138.169 275.365 137.721C272.168 137.35 258.032 143.92 249.007 149.972C245.418 152.378 242.487 153.825 242.494 153.186C242.5 152.548 243.17 149.55 243.982 146.525C245.924 139.289 245.861 137.798 243.552 136.562C242.024 135.744 240.256 136.241 235.076 138.94ZM100.912 151.452C102.455 153.062 105.037 154.926 106.649 155.594C109.162 156.635 109.502 157.215 109.031 159.666C108.73 161.239 108.23 163.842 107.92 165.451C107.61 167.061 106.286 169.079 104.978 169.936C102.259 171.718 96.9886 182.166 95.9366 187.862L95.2276 191.699L90.3426 186.887C84.6026 181.233 81.4725 173.92 81.5045 166.237L81.5264 161.025L86.9185 166.775C95.5675 175.997 97.1364 174.784 96.6224 159.275C96.4194 153.133 96.6616 148.525 97.1876 148.525C97.6936 148.525 99.3704 149.842 100.912 151.452ZM107.824 181.479C105.935 185.099 106.203 196.261 108.281 200.489C109.217 202.395 111.394 204.903 113.119 206.063L116.256 208.173L114.33 210.599L112.403 213.025L110.693 210.536C109.752 209.167 106.887 205.262 104.327 201.858C101.766 198.454 99.8946 195.447 100.166 195.175C100.438 194.903 101.086 192.733 101.607 190.353C102.129 187.973 103.757 183.624 105.226 180.689C107.287 176.57 108.039 175.762 108.524 177.144C108.869 178.128 108.555 180.079 107.824 181.479ZM221.768 184.474C216.15 187.722 209.513 191.784 207.018 193.5C204.523 195.217 202.482 196.149 202.482 195.573C202.482 194.997 201.591 193.633 200.501 192.543C198.151 190.193 195.43 190.894 189.922 195.267C184.207 199.805 167.73 218.964 165.377 223.806C161.383 232.028 166.045 234.668 170.28 226.582C173.014 221.361 175.784 218.04 187.346 206.125C195.79 197.423 195.993 197.287 196.482 200.018C197.369 204.971 199.782 205.404 205.193 201.58C212.757 196.235 227.667 187.377 228.202 187.911C228.469 188.179 227.19 191.121 225.36 194.45C222.244 200.119 222.139 200.61 223.712 202.183C225.285 203.756 225.856 203.649 232.688 200.497C240.674 196.813 261.723 189.431 262.377 190.086C262.602 190.311 261.142 193.157 259.133 196.411C252.941 206.443 254.565 208.203 266.323 204.202C273.531 201.749 285.311 198.525 287.064 198.525C287.5 198.525 286.694 199.763 285.272 201.275C280.813 206.018 277.647 211.437 278.169 213.434C278.864 216.091 281.439 216.516 289.552 215.312C293.408 214.74 296.818 214.528 297.131 214.841C297.783 215.493 294.846 219.917 289.224 226.751C282.69 234.693 285.604 238.141 298.185 237.356C301.1 237.174 303.484 237.343 303.483 237.731C303.482 238.691 291.041 245.733 285.482 247.921C276.455 251.473 275.959 251.879 276.253 255.469C276.402 257.287 277.463 260.094 278.612 261.707C279.76 263.32 280.504 264.836 280.264 265.076C280.024 265.316 276.264 265.09 271.906 264.574C264.116 263.651 258.88 263.794 257.714 264.96C257.388 265.285 258.305 268.905 259.75 273.003L262.376 280.454L259.18 279.911C248.391 278.08 245.171 277.113 241.376 274.565C239.046 273 236.541 271.949 235.81 272.229C233.461 273.131 234.39 276.353 237.736 278.905C242.07 282.211 245.686 283.525 253.482 284.628C257.057 285.134 262.12 286.307 264.734 287.235C271.807 289.745 272.584 288.318 268.77 279.811C267.096 276.079 265.5 272.34 265.223 271.503C264.785 270.177 266.687 270.013 279.94 270.23C291.823 270.425 295.581 270.169 297.073 269.061C298.602 267.925 298.76 267.282 297.868 265.834C296.814 264.124 296.059 263.888 290.809 263.631C286.004 263.396 279.381 254.525 284.011 254.525C286.51 254.525 299.313 247.821 306.201 242.906C313.287 237.85 315.548 234.514 313.534 232.088C312.521 230.867 310.559 230.705 302.888 231.209C297.715 231.549 293.482 231.554 293.482 231.222C293.482 230.889 295.634 227.737 298.265 224.218C300.895 220.699 304.153 215.738 305.502 213.195C307.715 209.023 307.803 208.418 306.41 207.024C305.032 205.646 304.411 205.639 300.68 206.956C294.422 209.164 286.482 210.446 286.482 209.249C286.482 208.698 288.957 205.428 291.982 201.982C295.007 198.537 297.482 195.24 297.482 194.657C297.482 191.005 289.024 191.569 272.232 196.339C268.519 197.394 265.482 198.102 265.482 197.913C265.482 197.724 266.687 195.114 268.159 192.112C270.399 187.546 270.623 186.4 269.536 185.09C267.498 182.634 263.759 183.19 249.378 188.087C242.01 190.596 235.247 192.884 234.35 193.173C232.916 193.633 232.974 192.967 234.812 187.719C236.577 182.68 236.697 181.488 235.572 180.133C234.839 179.248 233.73 178.535 233.11 178.547C232.489 178.559 227.386 181.227 221.768 184.474ZM116.715 192.606C119.879 198.879 120.336 202.84 117.838 202.348C115.036 201.797 112.472 197.238 111.808 191.626C110.979 184.632 112.885 185.013 116.715 192.606ZM257.482 218.683C256.107 219.251 246.657 220.102 236.482 220.576C216.929 221.486 206.674 223.127 198.169 226.708C188.367 230.835 184.97 233.896 179.072 243.917C173.329 253.675 170.017 257.167 163.098 260.757C159.581 262.583 156.567 262.99 142.364 263.557C128.06 264.128 125.102 264.531 121.135 266.451C114.289 269.765 110.274 273.873 110.662 277.164C111.048 280.427 112.814 281.234 114.643 278.984C121.075 271.072 125.677 269.556 145.118 268.947C158.028 268.543 160.557 268.18 165.172 266.067C171.928 262.974 179.502 255.395 183.325 247.9C184.973 244.669 186.951 241.186 187.722 240.16C189.024 238.427 189.246 238.615 190.854 242.828C193.183 248.924 199.462 255.845 205.243 258.686C209.169 260.615 211.525 261.007 218.982 260.971C225.027 260.942 229.193 260.394 231.672 259.303C237.161 256.885 243.782 250.293 246.458 244.578C247.905 241.49 249.469 239.525 250.483 239.525C253.149 239.525 263.925 229.087 265.993 224.501C267.854 220.374 267.854 220.27 265.994 218.91C263.795 217.302 261.009 217.228 257.482 218.683ZM255.176 229.157C252.532 231.68 250.212 233.582 250.021 233.384C249.83 233.187 249.517 231.45 249.327 229.525C249.001 226.22 249.177 225.991 252.482 225.407C260.083 224.064 260.259 224.308 255.176 229.157ZM230.993 230.582C231.864 235.74 230.094 240.157 226.391 242.072C221.429 244.638 215.165 243.447 212.679 239.467C211.476 237.54 208.392 229.233 208.776 228.953C208.889 228.871 210.894 228.51 213.232 228.152L217.482 227.501V230.878C217.482 232.781 218.387 235.406 219.555 236.89C223.538 241.954 226.943 239.122 224.093 233.116C221.512 227.677 221.915 226.525 226.395 226.525C230.189 226.525 230.328 226.647 230.993 230.582ZM243.859 229.66C245.018 235.457 241.108 244.895 235.338 250.227C231.49 253.783 226.061 255.525 218.83 255.525C207.536 255.525 200.212 250.451 195.647 239.466L193.655 234.673L197.818 232.989C200.108 232.063 202.545 231.082 203.232 230.808C204.062 230.478 204.482 231.302 204.482 233.261C204.482 238.258 208.588 244.655 213.442 247.222C218.92 250.119 222.865 250.133 228.476 247.275C234.554 244.18 237.88 237.954 237.024 231.275L236.413 226.525H239.824C242.845 226.525 243.303 226.882 243.859 229.66ZM91.7835 260.544C92.5615 261.655 92.9925 263.636 92.7425 264.948L92.2865 267.332L88.8084 264.972C86.8964 263.674 84.3816 262.31 83.2196 261.942C81.1756 261.293 81.1684 261.228 82.9864 259.898C85.7574 257.872 90.1365 258.194 91.7835 260.544ZM81.4366 267.502C88.0516 270.841 89.2975 273.048 87.0365 277.421L85.4874 280.417L82.3165 277.52C80.5715 275.927 76.4086 273.184 73.0636 271.425C65.4096 267.398 65.6226 267.627 67.9256 265.943C70.9006 263.767 74.9686 264.237 81.4366 267.502ZM202.78 271.193C202.428 272.111 202.87 274.136 203.764 275.693C204.658 277.251 205.226 278.525 205.028 278.525C204.829 278.525 202.489 277.403 199.825 276.031C191.605 271.799 182.499 270.046 175.745 271.396C165.829 273.378 154.482 279.858 154.482 283.539C154.482 286.876 156.324 286.686 162.996 282.662C175.851 274.909 184.489 274.761 198.976 282.048C205.329 285.243 209.1 286.551 211.521 286.401C213.549 286.274 216.834 287.139 219.453 288.488C225.848 291.782 234.961 292.296 239.232 289.603C245.242 285.814 242.356 281.934 235.83 285.03C232.724 286.504 231.596 286.579 228.088 285.544C221.232 283.521 214.515 279.355 209.982 274.313C205.394 269.21 203.805 268.522 202.78 271.193ZM70.5946 276.393C73.5926 278.085 77.0435 280.399 78.2645 281.536C81.4055 284.463 81.1775 288.833 77.7435 291.535L75.0035 293.689L73.4935 291.399C69.7645 285.744 66.9924 283.565 58.9874 279.998C54.2804 277.901 50.5805 275.699 50.7655 275.105C50.9505 274.511 52.5815 273.273 54.3895 272.354C58.2295 270.401 61.3606 271.181 70.5946 276.393ZM47.8045 280.956C50.1025 282.293 54.4575 284.352 57.4825 285.531C66.9195 289.21 70.6555 294.442 68.5015 300.966C67.8555 302.924 66.9695 304.525 66.5325 304.525C66.0945 304.525 63.5816 303.572 60.9476 302.406C57.1786 300.739 55.0386 300.419 50.9056 300.905C45.7206 301.515 45.5774 301.458 39.5684 296.437C36.2214 293.64 33.4825 291.14 33.4825 290.881C33.4825 287.933 36.1966 281.138 37.8316 279.993C40.7656 277.938 42.9865 278.153 47.8045 280.956ZM37.3736 302.025C42.5346 306.43 42.7944 306.525 49.6634 306.525C62.9134 306.525 70.3474 313.53 64.6124 320.613L62.7425 322.922L59.6185 320.292C55.6515 316.955 53.1564 316.176 48.9554 316.964C45.3174 317.647 41.6265 321.349 39.5235 326.425C38.3015 329.376 38.0925 329.482 36.4385 327.986C33.3445 325.185 32.1276 320.983 33.3736 317.407C35.2206 312.11 34.7096 309.552 31.0826 305.925C28.6786 303.521 26.7746 302.525 24.5826 302.525C20.9336 302.525 20.6084 301.251 23.7054 299.082C27.7114 296.275 31.6256 297.118 37.3736 302.025ZM227.993 304.53C234.773 307.812 239.958 312.997 243.832 320.37C248.308 328.887 248.555 334.023 244.992 344.498C239.201 361.526 227.022 373.365 209.482 379.022C206.457 379.998 202.712 381.438 201.16 382.223C198.968 383.332 198.02 383.386 196.91 382.465C196.125 381.813 195.482 380.935 195.482 380.514C195.482 380.093 201.3 376.258 208.41 371.992C226.865 360.92 231.524 355.945 235.401 343.17C237.868 335.043 237.985 331.577 236.01 324.929C233.665 317.03 225.329 310.525 217.553 310.525C212.148 310.525 204.12 314.373 195.801 320.952C180.042 333.414 174.963 334.618 159.92 329.461C147.788 325.302 144.373 325.68 133.374 332.401C128.685 335.266 122.771 338.236 120.233 338.999C115.499 340.424 110.427 339.857 109.75 337.827C109.309 336.503 116.149 330.81 123.02 326.781C135.601 319.405 145.543 317.861 156.076 321.649C169.275 326.395 177.846 324.414 195.202 312.607C210.093 302.477 219.146 300.247 227.993 304.53ZM224.585 318.795C228.977 321.729 231.479 326.811 231.481 332.8C231.483 337.79 228.702 347.014 225.914 351.27L224.285 353.755L221.441 350.64C217.22 346.019 213.11 346.339 206.941 351.77C204.269 354.122 201.324 355.881 200.337 355.713C198.636 355.425 193.988 356.488 190.232 358.024C188.742 358.633 188.486 358.166 188.506 354.882C188.548 348.35 190.411 342.315 194.533 335.35C196.705 331.679 198.482 327.988 198.482 327.148C198.482 325.504 205.443 320.315 210.733 318.016C215.578 315.91 220.697 316.198 224.585 318.795ZM185.91 340.317C181.241 351.876 181.743 367.185 187.139 377.832C188.541 380.599 193.806 387.174 198.84 392.444C208.453 402.507 213.882 411.234 216.887 421.457C219.721 431.102 218.545 438.499 212.875 446.681L210.067 450.732L208.885 443.716C207.32 434.423 203.316 427.319 196.501 421.74C191.368 417.537 187.976 415.722 170.282 407.71C161.706 403.827 155.462 397.629 152.372 389.932C150.305 384.781 150.001 382.361 149.993 371.025L149.982 358.025L154.268 349.416C159.548 338.809 161.779 336.558 166.312 337.26C168.144 337.543 169.859 338.34 170.124 339.031C170.388 339.721 168.918 344.727 166.857 350.155C159.976 368.276 161.283 377.852 172.578 392.065C177.821 398.663 192.262 411.525 194.426 411.525C194.873 411.525 195.852 410.785 196.603 409.881C197.805 408.432 197.371 407.752 192.974 404.169C176.745 390.946 168.482 378.956 168.482 368.628C168.482 361.555 176.175 337.637 178.482 337.537C179.307 337.502 181.782 336.648 183.982 335.641C186.182 334.634 188.08 333.88 188.198 333.966C188.316 334.052 187.286 336.91 185.91 340.317ZM134.094 341.31C133.302 342.841 132.341 345.766 131.957 347.81C131.574 349.853 131.13 351.525 130.972 351.525C130.813 351.525 129.111 349.953 127.189 348.031L123.695 344.538L128.838 341.643C135.388 337.956 135.843 337.927 134.094 341.31ZM31.5474 356.29C32.7634 358.428 32.9864 360.828 32.5474 367.034L31.9825 375.025L29.7005 369.765C26.2725 361.865 25.3275 355.721 27.3575 354.535C29.6745 353.182 29.8134 353.24 31.5474 356.29ZM218.301 356.026C219.357 358.342 219.141 358.716 215.386 361.086C209.268 364.948 208.646 365.028 207.899 362.051C207.375 359.963 207.835 358.767 210.045 356.46C213.533 352.819 216.763 352.65 218.301 356.026ZM84.6995 360.409C85.0935 360.766 84.6414 363.666 83.6954 366.854L81.9754 372.649L79.2926 369.837C76.5856 366.999 74.4825 362.655 74.4825 359.899C74.4825 358.685 75.3805 358.531 79.2325 359.081C81.8455 359.454 84.3055 360.051 84.6995 360.409ZM99.7086 368.584L98.9825 378.025L96.6595 374.768C95.2405 372.779 94.1234 369.443 93.7884 366.198L93.2396 360.884L96.6114 359.872C98.4654 359.315 100.085 358.923 100.209 359.001C100.333 359.079 100.108 363.391 99.7086 368.584ZM64.0145 366.525L62.7176 372.025L61.0994 368.307C60.2104 366.262 59.4825 364.364 59.4825 364.089C59.4825 363.595 64.8296 360.55 65.1466 360.863C65.2376 360.952 64.7275 363.5 64.0145 366.525ZM202.236 365.525C202.467 368.714 202.084 369.269 197.924 371.775C195.413 373.287 192.992 374.525 192.543 374.525C191.343 374.525 189.25 368.98 189.647 366.854C190.077 364.553 196.169 361.393 199.482 361.753C201.562 361.979 202.025 362.612 202.236 365.525ZM51.9256 367.775C50.9696 370.886 50.5194 371.198 49.4434 369.496C47.9174 367.082 48.3514 365.525 50.5494 365.525C52.2324 365.525 52.4886 365.944 51.9256 367.775ZM146.589 389.525C147.713 393.1 149.692 397.655 150.987 399.647L153.341 403.268L150.814 404.42C149.424 405.053 146.041 407.464 143.298 409.777L138.312 413.982L134.647 411.881C129.914 409.168 124.761 402.121 126.191 400.319C126.755 399.607 127.979 396.693 128.908 393.843C130.88 387.798 136.386 380.171 140.268 378.111C142.916 376.705 143.001 376.748 143.764 379.847C144.194 381.595 145.465 385.95 146.589 389.525ZM75.9256 410.293C79.2166 413.944 79.8825 415.403 79.9525 419.118C80.0155 422.496 79.7066 423.441 78.6666 423.042C77.9136 422.753 76.2294 422.249 74.9244 421.921C72.0834 421.208 68.8934 413.593 67.9864 405.36L67.3985 400.025L69.6905 402.972C70.9515 404.593 73.7566 407.888 75.9256 410.293ZM130.179 415.876L134.535 418.947L130.103 423.379C127.087 426.395 125.144 427.609 124.025 427.18C120.992 426.016 118.158 417.629 117.722 408.525L117.316 400.025L121.569 406.416C123.908 409.93 127.783 414.188 130.179 415.876ZM159.914 408.416C160.217 408.905 159.231 410.095 157.723 411.058C156.216 412.022 149.357 418.524 142.482 425.508C132.424 435.724 128.666 438.848 123.243 441.497C113.98 446.022 110.344 445.236 99.1666 436.29C96.1086 433.842 90.9994 433.442 82.2584 434.966C76.5304 435.965 72.2334 434.469 70.6124 430.91C69.9904 429.547 69.4825 428.227 69.4825 427.978C69.4825 427.05 74.3595 427.57 78.1295 428.9C80.2735 429.657 84.9424 430.606 88.5054 431.01C92.0674 431.414 96.7825 432.538 98.9825 433.509C106.696 436.911 110.723 437.78 116.173 437.217C123.69 436.442 128.41 433.321 139.767 421.619C150.835 410.215 158.088 405.461 159.914 408.416ZM175.454 422.946C166.929 434.237 162.25 450.048 164.237 460.845C164.863 464.244 165.668 468.006 166.027 469.206L166.68 471.387L160.875 469.871C157.682 469.037 153.375 467.49 151.304 466.434C146.568 464.018 140.482 458.729 140.482 457.028C140.482 455.229 137.828 454.395 136.679 455.834C133.908 459.303 133.519 471.058 135.912 478.978C136.735 481.703 137.25 484.092 137.054 484.287C136.4 484.942 129.126 481.49 125.777 478.936C121.857 475.946 118.482 469.793 118.482 465.636C118.482 463.16 116.382 459.525 114.951 459.525C114.738 459.525 113.374 460.762 111.922 462.275C108.078 466.277 103.695 475.98 102.917 482.206C102.506 485.497 101.799 487.481 101.111 487.279C98.4584 486.498 94.3476 475.784 93.7696 468.141C93.2366 461.092 93.0274 460.525 90.9544 460.525C86.8014 460.525 78.8585 471.321 76.0145 480.833C75.3875 482.927 74.4626 484.727 73.9576 484.833C72.4096 485.157 69.5945 476.319 69.5365 470.957C69.5065 468.169 70.1774 463.546 71.0274 460.684C73.8194 451.284 70.4375 451.016 61.1485 459.902L54.4825 466.28L54.4835 463.152C54.4845 458.385 59.6344 448.531 64.8504 443.315L69.5216 438.644L73.2305 440.193C76.3255 441.486 78.0504 441.559 83.6534 440.634C93.1304 439.069 94.0176 439.18 97.6976 442.39C103.261 447.243 109.449 449.899 115.078 449.85C123.768 449.775 130.868 445.145 146.664 429.254C154.193 421.68 161.788 414.88 163.542 414.142C166.415 412.934 167.355 413.049 173.034 415.303L179.337 417.803L175.454 422.946ZM89.4405 416.275C89.4175 416.688 88.5365 418.6 87.4825 420.525L85.5665 424.025L85.5245 419.775C85.4885 416.178 85.7895 415.525 87.4825 415.525C88.5825 415.525 89.4635 415.862 89.4405 416.275ZM100.514 418.525C101.209 418.525 99.0614 425.174 97.9954 426.324C97.2584 427.118 92.4825 425.15 92.4825 424.051C92.4825 421.819 96.6464 417.374 98.1844 417.964C98.9884 418.273 100.037 418.525 100.514 418.525ZM114.482 422.885C114.482 423.634 115.561 425.837 116.881 427.781L119.281 431.315L116.46 431.88C114.909 432.19 111.692 431.882 109.312 431.196C105.698 430.154 104.929 429.491 104.66 427.176C104.483 425.652 104.876 423.756 105.533 422.965C107.098 421.079 114.482 421.014 114.482 422.885Z" fill="#FFC4C4"/>
</svg>
