<svg width="46" height="56" viewBox="0 0 46 56" fill="none" xmlns="http://www.w3.org/2000/svg">
<path d="M25.5456 48.9545C21.6365 48.9394 18.2729 47.9773 15.4548 46.0682C12.6517 44.1591 10.4926 41.3939 8.97746 37.7727C7.47746 34.1515 6.73508 29.7955 6.75023 24.7045C6.75023 19.6288 7.50023 15.303 9.00023 11.7273C10.5154 8.15151 12.6744 5.43182 15.4775 3.56818C18.2956 1.68939 21.6517 0.75 25.5456 0.75C29.4396 0.75 32.7881 1.68939 35.5911 3.56818C38.4093 5.44697 40.576 8.17424 42.0911 11.75C43.6063 15.3106 44.3563 19.6288 44.3411 24.7045C44.3411 29.8106 43.5836 34.1742 42.0684 37.7955C40.5684 41.4167 38.4168 44.1818 35.6138 46.0909C32.8108 48 29.4547 48.9545 25.5456 48.9545ZM25.5456 40.7955C28.2123 40.7955 30.3411 39.4545 31.932 36.7727C33.5229 34.0909 34.3108 30.0682 34.2956 24.7045C34.2956 21.1742 33.932 18.2349 33.2048 15.8864C32.4926 13.5379 31.4775 11.7727 30.1593 10.5909C28.8563 9.4091 27.3184 8.81818 25.5456 8.81818C22.8941 8.81818 20.7729 10.1439 19.182 12.7955C17.5911 15.447 16.7881 19.4167 16.7729 24.7045C16.7729 28.2803 17.129 31.2651 17.8411 33.6591C18.5684 36.0379 19.5911 37.8258 20.9093 39.0227C22.2275 40.2045 23.7729 40.7955 25.5456 40.7955Z" fill="white" stroke="black" stroke-width="1.5" stroke-linejoin="round"/>
<path d="M15.4548 46.0682C18.2729 47.9773 21.6365 48.9394 25.5456 48.9545C28.995 48.9545 32.014 48.2112 34.6022 46.7247C33.2683 48.9457 31.6055 50.7344 29.6138 52.0909C26.8108 54 23.4547 54.9545 19.5456 54.9545C15.6365 54.9394 12.2729 53.9773 9.45476 52.0682C6.65172 50.1591 4.4926 47.3939 2.97746 43.7727C1.47746 40.1515 0.735031 35.7955 0.750229 30.7045C0.750229 25.6288 1.50023 21.303 3.00023 17.7273C4.51537 14.1515 6.67442 11.4318 9.47746 9.56818C9.61369 9.47736 9.75121 9.38873 9.88994 9.30231C10.0484 9.20355 10.2086 9.10767 10.3704 9.01465C9.86662 9.85626 9.4099 10.7605 9.00023 11.7273C7.50023 15.303 6.75023 19.6288 6.75023 24.7045C6.73503 29.7955 7.47746 34.1515 8.97746 37.7727C10.4926 41.3939 12.6517 44.1591 15.4548 46.0682Z" fill="#FF0000" stroke="black" stroke-width="1.5" stroke-linejoin="round"/>
<path d="M10.3704 9.01465C9.86662 9.85626 9.4099 10.7605 9.00023 11.7273C7.50023 15.303 6.75023 19.6288 6.75023 24.7045C6.73503 29.7955 7.47746 34.1515 8.97746 37.7727C10.4926 41.3939 12.6517 44.1591 15.4548 46.0682C18.2729 47.9773 21.6365 48.9394 25.5456 48.9545C28.995 48.9545 32.014 48.2112 34.6022 46.7247" stroke="black" stroke-width="1.5" stroke-linejoin="round"/>
<path d="M31.9321 36.7726C30.6241 38.9775 28.9526 40.276 26.9175 40.6682C27.8479 38.1334 28.3073 34.8121 28.2957 30.7045C28.2957 27.1742 27.9321 24.2348 27.2048 21.8863C26.4927 19.5378 25.4775 17.7726 24.1594 16.5909C22.8563 15.4091 21.3184 14.8181 19.5457 14.8181C19.0692 14.8181 18.6097 14.861 18.1675 14.9466C18.4597 14.1527 18.7979 13.4356 19.1821 12.7954C20.7729 10.1439 22.8942 8.81812 25.5457 8.81812C27.3184 8.81812 28.8563 9.40906 30.1594 10.5909C31.4775 11.7726 32.4927 13.5378 33.2048 15.8863C33.9321 18.2348 34.2957 21.1742 34.2957 24.7045C34.3109 30.0681 33.5229 34.0908 31.9321 36.7726Z" fill="#9C0101" stroke="black" stroke-width="1.5" stroke-linejoin="round"/>
<path fill-rule="evenodd" clip-rule="evenodd" d="M19.5457 14.8181C19.0692 14.8181 18.6097 14.861 18.1675 14.9466C18.4597 14.1527 18.7979 13.4356 19.1821 12.7954C20.7729 10.1439 22.8942 8.81812 25.5457 8.81812C27.3184 8.81812 28.8563 9.40906 30.1594 10.5909C31.4775 11.7726 32.4927 13.5378 33.2048 15.8863C33.9321 18.2348 34.2957 21.1742 34.2957 24.7045C34.3109 30.0681 33.5229 34.0908 31.9321 36.7726C30.6241 38.9775 28.9526 40.276 26.9175 40.6682C27.8479 38.1334 28.3073 34.8121 28.2957 30.7045C28.2957 27.1742 27.9321 24.2348 27.2048 21.8863C26.4927 19.5378 25.4775 17.7726 24.1594 16.5909C22.8563 15.4091 21.3184 14.8181 19.5457 14.8181Z" fill="#9C0101" stroke="black" stroke-width="1.5" stroke-linejoin="round"/>
</svg>
