<svg width="42" height="55" viewBox="0 0 42 55" fill="none" xmlns="http://www.w3.org/2000/svg">
<path d="M12.8849 15.7273H6.75C6.75 12.6818 7.43939 10.0379 8.81818 7.79546C9.34528 6.93819 9.95321 6.1551 10.642 5.4462C11.7548 4.30077 13.0787 3.34901 14.6136 2.59091C17.0985 1.36364 19.9621 0.75 23.2045 0.75C26.5379 0.75 29.4394 1.34091 31.9091 2.52273C34.3939 3.68939 36.3257 5.31061 37.7045 7.38637C39.0833 9.46212 39.7727 11.8409 39.7727 14.5227C39.7727 16.2803 39.4242 18.0152 38.7273 19.7273C38.0455 21.4394 36.8258 23.3409 35.0682 25.4318C33.3106 27.5076 30.8333 30 27.6364 32.9091L20.8409 39.5682V39.8864H40.3864V47.9318H7.20454V40.8409L21.527 27.5794L23.7727 25.5C25.1818 24.1364 26.3636 22.9091 27.3182 21.8182C28.2879 20.7273 29.0227 19.6591 29.5227 18.6136C30.0227 17.553 30.2727 16.4091 30.2727 15.1818C30.2727 13.8182 29.9621 12.6439 29.3409 11.6591C28.7197 10.6591 27.8712 9.89394 26.7954 9.36363C25.7197 8.81818 24.5 8.54546 23.1364 8.54546C21.7121 8.54546 20.4697 8.83333 19.4091 9.40909C18.3485 9.98485 17.5303 10.8106 16.9545 11.8864C16.5308 12.6782 16.2629 13.5808 16.1511 14.5943C16.111 14.9577 16.0909 15.3354 16.0909 15.7273H12.8849Z" fill="white" stroke="#9C0101" stroke-width="1.5" stroke-linejoin="round"/>
<path fill-rule="evenodd" clip-rule="evenodd" d="M6.75 15.7274L0.75 21.7274C0.75 18.6819 1.43939 16.038 2.81818 13.7955C4.03076 11.8234 8.00172 7.4841 10.642 5.44629C9.95321 6.15519 9.34528 6.93828 8.81818 7.79555C7.43939 10.038 6.75 12.6819 6.75 15.7274Z" fill="#9C0101" stroke="#9C0101" stroke-width="1.5" stroke-linejoin="round"/>
<path d="M12.8849 15.7273H6.75L0.75 21.7273H10.0909L16.0909 15.7273H12.8849Z" fill="#9C0101" stroke="#9C0101" stroke-width="1.5" stroke-linejoin="round"/>
<path fill-rule="evenodd" clip-rule="evenodd" d="M21.5271 27.5793C22.3941 26.5712 23.0593 25.5826 23.5228 24.6136C24.0228 23.553 24.2728 22.409 24.2728 21.1818C24.2728 19.8181 23.9622 18.6439 23.3409 17.659C22.7197 16.659 21.8713 15.8939 20.7955 15.3636C19.7197 14.8181 18.5 14.5454 17.1364 14.5454C16.7977 14.5454 16.4693 14.5617 16.1511 14.5943C16.263 13.5808 16.5308 12.6781 16.9546 11.8863C17.5303 10.8106 18.3485 9.9848 19.4091 9.40904C20.4697 8.83329 21.7122 8.54541 23.1364 8.54541C24.5 8.54541 25.7197 8.81813 26.7955 9.36359C27.8713 9.89389 28.7197 10.659 29.3409 11.659C29.9622 12.6439 30.2728 13.8181 30.2728 15.1818C30.2728 16.409 30.0228 17.553 29.5228 18.6136C29.0228 19.659 28.2879 20.7272 27.3182 21.8181C26.3637 22.909 25.1819 24.1363 23.7728 25.5L21.5271 27.5793Z" fill="#9C0101" stroke="#9C0101" stroke-width="1.5" stroke-linejoin="round"/>
<path fill-rule="evenodd" clip-rule="evenodd" d="M7.20459 40.8408V47.9317L1.20459 53.9317V46.8408L7.20459 40.8408Z" fill="#9C0101" stroke="#9C0101" stroke-width="1.5" stroke-linejoin="round"/>
<path fill-rule="evenodd" clip-rule="evenodd" d="M1.20459 53.9319L7.20459 47.9319H40.3864L34.3864 53.9319H1.20459Z" fill="#9C0101" stroke="#9C0101" stroke-width="1.5" stroke-linejoin="round"/>
</svg>
