<svg width="44" height="56" viewBox="0 0 44 56" fill="none" xmlns="http://www.w3.org/2000/svg">
<path d="M8.97614 8.93339C8.96163 8.96212 8.94725 8.9909 8.93298 9.01974C8.82947 9.25 7.715 12.4278 7.68181 14.3864H17.1136C17.1591 13.2045 17.5151 12.1742 18.1818 11.2955C18.8485 10.4167 19.7348 9.74242 20.8409 9.27273C21.947 8.78788 23.1667 8.54546 24.5 8.54546C25.8182 8.54546 26.9697 8.79546 27.9545 9.29546C28.9545 9.79546 29.7273 10.4924 30.2727 11.3864C30.8333 12.2652 31.1136 13.2879 31.1136 14.4545C31.1136 15.6818 30.7955 16.7576 30.1591 17.6818C29.5227 18.5909 28.6288 19.303 27.4773 19.8182C26.759 20.1438 25.9711 20.3665 25.1136 20.4863C24.6144 20.556 24.0917 20.5909 23.5454 20.5909H19.2045V26.4732V27.8182H23.5454C25.303 27.8182 26.8182 28.0909 28.0909 28.6364C28.2708 28.7126 28.4449 28.7929 28.613 28.8774C29.6481 29.3977 30.4589 30.0749 31.0455 30.9091C31.2979 31.2549 31.5047 31.6195 31.6657 32.0031C31.9492 32.6784 32.0909 33.4122 32.0909 34.2045C32.0909 35.4318 31.7651 36.5152 31.1136 37.4545C30.4621 38.3939 29.5606 39.1288 28.4091 39.6591C27.7017 39.9849 26.9286 40.2106 26.0897 40.3362C25.563 40.4151 25.0103 40.4545 24.4318 40.4545C22.9924 40.4545 21.697 40.2197 20.5454 39.75C19.3939 39.2803 18.4697 38.6212 17.7727 37.7727C17.0909 36.9091 16.7197 35.9091 16.6591 34.7727H6.75C6.78707 36.9843 7.31276 38.9843 8.32708 40.7727C8.55666 41.1775 8.81126 41.5714 9.0909 41.9545C10.6212 44.0152 12.7045 45.6364 15.3409 46.8182C17.9924 47.9849 21.0151 48.5682 24.4091 48.5682C27.8939 48.5682 30.9848 47.9773 33.6818 46.7955L35.1792 46.0615C36.9751 45.0795 38.463 43.8655 39.6429 42.4196C39.7733 42.2598 39.8999 42.0972 40.0227 41.9318C41.5682 39.8712 42.3333 37.5152 42.3182 34.8636C42.3333 31.9697 41.4394 29.5606 39.6364 27.6364C38.1697 26.0454 36.1523 24.9591 33.5844 24.3776C33.0221 24.2503 32.4333 24.1471 31.8182 24.0682V23.7045C32.6352 23.5573 33.4039 23.3475 34.1242 23.0751C35.7012 22.4787 37.0462 21.5825 38.1591 20.3864C39.7955 18.6439 40.6061 16.4697 40.5909 13.8636C40.6061 11.4091 39.9394 9.19697 38.5909 7.22727C37.2576 5.24242 35.3864 3.66667 32.9773 2.5C30.5682 1.33333 27.7576 0.75 24.5454 0.75C21.3636 0.75 18.5076 1.33333 15.9773 2.5C14.1587 3.33261 12.6094 4.39889 11.3295 5.69886C10.8392 6.19678 10.3885 6.72898 9.97726 7.29546C9.59614 7.82047 9.26243 8.36645 8.97614 8.93339Z" fill="white"/>
<path d="M25.1136 20.4863C25.9711 20.3665 26.759 20.1438 27.4773 19.8182C28.6288 19.303 29.5227 18.5909 30.1591 17.6818C30.7955 16.7576 31.1136 15.6818 31.1136 14.4545C31.1136 13.2879 30.8333 12.2652 30.2727 11.3864C29.7273 10.4924 28.9545 9.79546 27.9545 9.29546C26.9697 8.79546 25.8182 8.54546 24.5 8.54546C23.1667 8.54546 21.947 8.78788 20.8409 9.27273C19.7348 9.74242 18.8485 10.4167 18.1818 11.2955C17.5151 12.1742 17.1591 13.2045 17.1136 14.3864H7.68181C7.715 12.4278 8.82947 9.25 8.93298 9.01974C8.94725 8.9909 8.96163 8.96212 8.97614 8.93339C9.26243 8.36645 9.59614 7.82047 9.97726 7.29546C10.3885 6.72898 10.8392 6.19678 11.3295 5.69886C12.6094 4.39889 14.1587 3.33261 15.9773 2.5C18.5076 1.33333 21.3636 0.75 24.5454 0.75C27.7576 0.75 30.5682 1.33333 32.9773 2.5C35.3864 3.66667 37.2576 5.24242 38.5909 7.22727C39.9394 9.19697 40.6061 11.4091 40.5909 13.8636C40.6061 16.4697 39.7955 18.6439 38.1591 20.3864C37.0462 21.5825 35.7012 22.4787 34.1242 23.0751C33.4039 23.3475 32.6352 23.5573 31.8182 23.7045V24.0682C32.4333 24.1471 33.0221 24.2503 33.5844 24.3776C36.1523 24.9591 38.1697 26.0454 39.6364 27.6364C41.4394 29.5606 42.3333 31.9697 42.3182 34.8636C42.3333 37.5152 41.5682 39.8712 40.0227 41.9318C39.8999 42.0972 39.7733 42.2598 39.6429 42.4196C38.463 43.8655 36.9751 45.0795 35.1792 46.0615L33.6818 46.7955C30.9848 47.9773 27.8939 48.5682 24.4091 48.5682C21.0151 48.5682 17.9924 47.9849 15.3409 46.8182C12.7045 45.6364 10.6212 44.0152 9.0909 41.9545C8.81126 41.5714 8.55666 41.1775 8.32708 40.7727C7.31276 38.9843 6.78707 36.9843 6.75 34.7727H16.6591C16.7197 35.9091 17.0909 36.9091 17.7727 37.7727C18.4697 38.6212 19.3939 39.2803 20.5454 39.75C21.697 40.2197 22.9924 40.4545 24.4318 40.4545C25.0103 40.4545 25.563 40.4151 26.0897 40.3362M25.1136 20.4863C24.6144 20.556 24.0917 20.5909 23.5454 20.5909H19.2045V26.4732V27.8182H23.5454C25.303 27.8182 26.8182 28.0909 28.0909 28.6364C28.2708 28.7126 28.4449 28.7929 28.613 28.8774C29.6481 29.3977 30.4589 30.0749 31.0455 30.9091C31.2979 31.2549 31.5047 31.6195 31.6657 32.0031C31.9492 32.6784 32.0909 33.4122 32.0909 34.2045C32.0909 35.4318 31.7651 36.5152 31.1136 37.4545C30.4621 38.3939 29.5606 39.1288 28.4091 39.6591C27.7017 39.9849 26.9286 40.2106 26.0897 40.3362M25.1136 20.4863L25.1136 20.4545M26.0897 40.3362C26.0905 40.2925 26.0909 40.2486 26.0909 40.2045" stroke="black" stroke-width="1.5" stroke-linejoin="round"/>
<path d="M3.97722 13.2953C2.49237 15.3408 1.72722 17.7044 1.68176 20.3862L7.68176 14.3862C7.71496 12.4277 8.13202 10.6388 8.93294 9.01961L9.97722 7.29533C10.3884 6.72885 10.8392 6.19665 11.3294 5.69873C9.32942 7.24987 5.16307 11.6618 3.97722 13.2953Z" fill="#FF0000" stroke="black" stroke-width="1.5" stroke-linecap="round" stroke-linejoin="round"/>
<path fill-rule="evenodd" clip-rule="evenodd" d="M17.1136 14.3862L16.8153 14.6845L11.1136 20.3862H1.68176L7.68176 14.3862H17.1136Z" fill="#9C0101" stroke="black" stroke-width="1.5" stroke-linecap="round" stroke-linejoin="round"/>
<path fill-rule="evenodd" clip-rule="evenodd" d="M27.4772 19.8181C26.7589 20.1438 25.971 20.3665 25.1135 20.4863L25.1136 20.4545C25.1136 19.2878 24.8333 18.2651 24.2727 17.3863C23.7272 16.4924 22.9545 15.7954 21.9545 15.2954C20.9696 14.7954 19.8181 14.5454 18.5 14.5454C17.9167 14.5454 17.3551 14.5918 16.8153 14.6846L17.1136 14.3863C17.159 13.2045 17.5151 12.1742 18.1818 11.2954C18.8484 10.4166 19.7348 9.74238 20.8409 9.27268C21.9469 8.78783 23.1666 8.54541 24.5 8.54541C25.8181 8.54541 26.9696 8.79541 27.9545 9.29541C28.9545 9.79541 29.7272 10.4924 30.2727 11.3863C30.8333 12.2651 31.1136 13.2878 31.1136 14.4545C31.1136 15.6818 30.7954 16.7575 30.1591 17.6818C29.5227 18.5909 28.6287 19.303 27.4772 19.8181Z" fill="#9C0101" stroke="black" stroke-width="1.5" stroke-linecap="round" stroke-linejoin="round"/>
<path fill-rule="evenodd" clip-rule="evenodd" d="M19.2045 26.4731V27.8181L13.2045 33.8181V26.5908L19.2045 20.5908V26.4731Z" fill="#FF0000" stroke="black" stroke-width="1.5" stroke-linecap="round" stroke-linejoin="round"/>
<path fill-rule="evenodd" clip-rule="evenodd" d="M28.409 39.6593C27.7016 39.985 26.9285 40.2107 26.0896 40.3364C26.0904 40.2927 26.0909 40.2488 26.0909 40.2047C26.0909 38.9623 25.7424 37.8638 25.0454 36.9093C24.3636 35.9396 23.3787 35.182 22.0908 34.6365C20.8181 34.0911 19.303 33.8184 17.5454 33.8184H13.2045L19.2045 27.8184H23.5454C25.303 27.8184 26.8181 28.0911 28.0908 28.6365C28.2708 28.7128 28.4448 28.7931 28.6129 28.8776C29.648 29.3978 30.4588 30.0751 31.0454 30.9093C31.2979 31.255 31.5046 31.6197 31.6656 32.0032C31.9491 32.6785 32.0909 33.4123 32.0909 34.2047C32.0909 35.432 31.7651 36.5153 31.1136 37.4547C30.4621 38.3941 29.5605 39.129 28.409 39.6593Z" fill="#9C0101" stroke="black" stroke-width="1.5" stroke-linecap="round" stroke-linejoin="round"/>
<path d="M35.1792 46.0615C36.9751 45.0795 38.463 43.8655 39.6429 42.4196C39.2049 43.3918 38.1077 44.7691 37.5773 45.435C37.4659 45.5748 37.3795 45.6832 37.3295 45.75C35.3295 48.25 30.3788 51.6136 27.6818 52.7954C24.9848 53.9773 21.8939 54.5682 18.4091 54.5682C15.0151 54.5682 11.9924 53.9848 9.3409 52.8182C6.70453 51.6363 4.6212 50.0151 3.0909 47.9545C1.57575 45.8788 0.795455 43.4848 0.75 40.7727L6.75 34.7727C6.78707 36.9843 7.31276 38.9843 8.32708 40.7727C8.55666 41.1775 8.81126 41.5714 9.0909 41.9545C10.6212 44.0151 12.7045 45.6363 15.3409 46.8182C17.9924 47.9848 21.0151 48.5682 24.4091 48.5682C27.8939 48.5682 30.9848 47.9773 33.6818 46.7954L35.1792 46.0615Z" fill="#9C0101"/>
<path d="M40.0227 41.9318C39.8999 42.0972 39.7733 42.2598 39.6429 42.4196M39.6429 42.4196C38.463 43.8655 36.9751 45.0795 35.1792 46.0615L33.6818 46.7954C30.9848 47.9773 27.8939 48.5682 24.4091 48.5682C21.0151 48.5682 17.9924 47.9848 15.3409 46.8182C12.7045 45.6363 10.6212 44.0151 9.0909 41.9545C8.81126 41.5714 8.55666 41.1775 8.32708 40.7727C7.31276 38.9843 6.78707 36.9843 6.75 34.7727L0.75 40.7727C0.795455 43.4848 1.57575 45.8788 3.0909 47.9545C4.6212 50.0151 6.70453 51.6363 9.3409 52.8182C11.9924 53.9848 15.0151 54.5682 18.4091 54.5682C21.8939 54.5682 24.9848 53.9773 27.6818 52.7954C30.3788 51.6136 35.3295 48.25 37.3295 45.75C37.3795 45.6832 37.4659 45.5748 37.5773 45.435C38.1077 44.7691 39.2049 43.3918 39.6429 42.4196Z" stroke="black" stroke-width="1.5" stroke-linecap="round" stroke-linejoin="round"/>
</svg>
