<svg width="45" height="55" viewBox="0 0 45 55" fill="none" xmlns="http://www.w3.org/2000/svg">
<path fill-rule="evenodd" clip-rule="evenodd" d="M5.75006 39.1136H28.0909V47.2955H32.5001H37.5001V45.1136V39.1136H38.2728H43.2728V31.2273H37.5001V0.75H25.1819L21.3734 6.75L5.75006 31.3636V39.1136ZM15.6591 30.8636L22.2728 20.6989L23.2728 19.1619L28.2728 11.4773V31.2273H23.2728H22.2728H15.6591V30.8636Z" fill="white"/>
<path d="M22.2728 20.6989L15.6591 30.8636V31.2273H22.2728M22.2728 20.6989L23.2728 19.1619L28.2728 11.4773V31.2273H23.2728H22.2728M22.2728 20.6989V31.2273M5.75006 39.1136H28.0909V47.2955H32.5001H37.5001V45.1136V39.1136H38.2728H43.2728V31.2273H37.5001V0.75H25.1819L21.3734 6.75L5.75006 31.3636V39.1136Z" stroke="#9C0101" stroke-width="1.5" stroke-linejoin="round"/>
<path fill-rule="evenodd" clip-rule="evenodd" d="M21.3734 6.75L5.75006 31.3636L0.750061 37.3636L20.1819 6.75L25.1819 0.75L21.3734 6.75Z" fill="white" stroke="#9C0101" stroke-width="1.5" stroke-linejoin="round"/>
<path fill-rule="evenodd" clip-rule="evenodd" d="M0.750061 45.1135V37.3635L5.75006 31.3635V39.1135L0.750061 45.1135Z" fill="#9C0101" stroke="#9C0101" stroke-width="1.5" stroke-linejoin="round"/>
<path fill-rule="evenodd" clip-rule="evenodd" d="M5.75006 39.1138H28.091L23.091 45.1138H0.750061L5.75006 39.1138Z" fill="#9C0101" stroke="#9C0101" stroke-width="1.5" stroke-linejoin="round"/>
<path fill-rule="evenodd" clip-rule="evenodd" d="M32.5 47.2954H37.5L32.5 53.2954H23.0909L28.0909 47.2954H32.5Z" fill="#9C0101" stroke="#9C0101" stroke-width="1.5" stroke-linejoin="round"/>
<path fill-rule="evenodd" clip-rule="evenodd" d="M28.0909 39.1138V47.2956L23.0909 53.2956V45.1138L28.0909 39.1138Z" fill="#9C0101" stroke="#9C0101" stroke-width="1.5" stroke-linejoin="round"/>
<path fill-rule="evenodd" clip-rule="evenodd" d="M23.2728 19.1619L28.2728 11.4773V31.2273H23.2728H22.2728V20.6989L23.2728 19.1619Z" fill="#9C0101" stroke="#9C0101" stroke-width="1.5" stroke-linejoin="round"/>
</svg>
