<svg width="45" height="55" viewBox="0 0 45 55" fill="none" xmlns="http://www.w3.org/2000/svg">
<path fill-rule="evenodd" clip-rule="evenodd" d="M5.75 39.1136H28.0909V47.2955H32.5H37.5V45.1136V39.1136H38.2727H43.2727V31.2273H37.5V0.75H25.1818L21.3734 6.75L5.75 31.3636V39.1136ZM15.6591 30.8636L22.2727 20.6989L23.2727 19.1619L28.2727 11.4773V31.2273H23.2727H22.2727H15.6591V30.8636Z" fill="white"/>
<path d="M22.2727 20.6989L15.6591 30.8636V31.2273H22.2727M22.2727 20.6989L23.2727 19.1619L28.2727 11.4773V31.2273H23.2727H22.2727M22.2727 20.6989V31.2273M5.75 39.1136H28.0909V47.2955H32.5H37.5V45.1136V39.1136H38.2727H43.2727V31.2273H37.5V0.75H25.1818L21.3734 6.75L5.75 31.3636V39.1136Z" stroke="black" stroke-width="1.5" stroke-linejoin="round"/>
<path fill-rule="evenodd" clip-rule="evenodd" d="M21.3733 6.75L5.75 31.3636L0.75 37.3636L20.1818 6.75L25.1818 0.75L21.3733 6.75Z" fill="white" stroke="black" stroke-width="1.5" stroke-linejoin="round"/>
<path fill-rule="evenodd" clip-rule="evenodd" d="M0.75 45.1135V37.3635L5.75 31.3635V39.1135L0.75 45.1135Z" fill="#FF0000" stroke="black" stroke-width="1.5" stroke-linejoin="round"/>
<path fill-rule="evenodd" clip-rule="evenodd" d="M5.75 39.1138H28.0909L23.0909 45.1138H0.75L5.75 39.1138Z" fill="#9C0101" stroke="black" stroke-width="1.5" stroke-linejoin="round"/>
<path fill-rule="evenodd" clip-rule="evenodd" d="M32.4999 47.2954H37.4999L32.4999 53.2954H23.0908L28.0908 47.2954H32.4999Z" fill="#9C0101" stroke="black" stroke-width="1.5" stroke-linejoin="round"/>
<path fill-rule="evenodd" clip-rule="evenodd" d="M28.0908 39.1138V47.2956L23.0908 53.2956V45.1138L28.0908 39.1138Z" fill="#FF0000" stroke="black" stroke-width="1.5" stroke-linejoin="round"/>
<path fill-rule="evenodd" clip-rule="evenodd" d="M23.2727 19.1619L28.2727 11.4773V31.2273H23.2727H22.2727V20.6989L23.2727 19.1619Z" fill="#9C0101" stroke="black" stroke-width="1.5" stroke-linejoin="round"/>
</svg>
