<svg width="42" height="55" viewBox="0 0 42 55" fill="none" xmlns="http://www.w3.org/2000/svg">
<path fill-rule="evenodd" clip-rule="evenodd" d="M33.4033 45.4581C34.0529 45.0727 34.6635 44.6528 35.2351 44.1984C33.1533 46.7499 29.3031 50.4696 26.6819 51.8635C24.0758 53.2423 21.0455 53.9317 17.5909 53.9317C14.3788 53.9317 11.5152 53.3408 9 52.159C6.5 50.9771 4.51514 49.3484 3.04544 47.2726C1.57574 45.1968 0.810606 42.818 0.75 40.1362L6.75 34.1362C6.79983 36.341 7.32585 38.3411 8.32809 40.1362C8.54492 40.5246 8.78403 40.9034 9.04544 41.2726C10.5151 43.3484 12.5 44.9771 15 46.159C17.5152 47.3408 20.3788 47.9317 23.5909 47.9317C27.0455 47.9317 30.0758 47.2423 32.6819 45.8635C32.8154 45.7925 32.9475 45.7201 33.0781 45.6464C33.0549 45.6884 33.1903 45.6042 33.4033 45.4581Z" fill="#9C0101"/>
<path d="M33.4033 45.4581C34.0529 45.0727 34.6635 44.6528 35.2351 44.1984C33.1533 46.7499 29.3031 50.4696 26.6819 51.8635C24.0758 53.2423 21.0455 53.9317 17.5909 53.9317C14.3788 53.9317 11.5152 53.3408 9 52.159C6.5 50.9771 4.51514 49.3484 3.04544 47.2726C1.57574 45.1968 0.810606 42.818 0.75 40.1362L6.75 34.1362C6.79983 36.341 7.32585 38.3411 8.32809 40.1362C8.54492 40.5246 8.78403 40.9034 9.04544 41.2726C10.5151 43.3484 12.5 44.9771 15 46.159C17.5152 47.3408 20.3788 47.9317 23.5909 47.9317C27.0455 47.9317 30.0758 47.2423 32.6819 45.8635C32.8154 45.7925 32.9475 45.7201 33.0781 45.6464M33.4033 45.4581C33.2959 45.5218 33.1875 45.5846 33.0781 45.6464M33.4033 45.4581C33.1903 45.6042 33.0549 45.6884 33.0781 45.6464M33.4033 45.4581C33.6161 45.3121 33.9063 45.1044 34.1931 44.8991" stroke="#9C0101" stroke-width="1.5" stroke-linejoin="round"/>
<path fill-rule="evenodd" clip-rule="evenodd" d="M11.8723 31.4914L16.5 26.8637C17.2121 25.894 18.2046 25.1288 19.4773 24.5682C20.7652 24.0076 22.0909 23.7273 23.4546 23.7273C25.0152 23.7424 26.4016 24.0985 27.6137 24.7955C28.8258 25.4924 29.7728 26.4621 30.4546 27.7046C31.1516 28.947 31.5001 30.3864 31.5001 32.0227C31.5001 33.6288 31.1591 35.0531 30.4773 36.2955C29.8107 37.5228 28.8788 38.4849 27.6819 39.1818C26.9561 39.6005 26.1618 39.8907 25.2989 40.0523C25.433 39.4115 25.5001 38.735 25.5001 38.0227C25.5001 36.3864 25.1516 34.947 24.4546 33.7046C23.7728 32.4621 22.8258 31.4924 21.6137 30.7955C20.4016 30.0985 19.0152 29.7424 17.4546 29.7273C16.0909 29.7273 14.7652 30.0076 13.4773 30.5682C12.8807 30.831 12.3457 31.1387 11.8723 31.4914Z" fill="#9C0101" stroke="#9C0101" stroke-width="1.5" stroke-linejoin="round"/>
<path fill-rule="evenodd" clip-rule="evenodd" d="M16.5 26.8636L11.8723 31.4913L10.5 32.8636L1.75 31.2954L7.75 25.2954L10.9246 25.8644L11.515 25.9702L16.5 26.8636Z" fill="#9C0101" stroke="#9C0101" stroke-width="1.5" stroke-linejoin="round"/>
<path fill-rule="evenodd" clip-rule="evenodd" d="M32.4091 8.79541H38.4091L32.4091 14.7954H17.4482L18.0681 8.79541H32.4091Z" fill="#9C0101" stroke="#9C0101" stroke-width="1.5" stroke-linejoin="round"/>
<path fill-rule="evenodd" clip-rule="evenodd" d="M1.75 31.2955L3.95453 6.75L9.95453 0.75L9.41564 6.75L7.75 25.2955L1.75 31.2955Z" fill="#9C0101" stroke="#9C0101" stroke-width="1.5" stroke-linejoin="round"/>
<path fill-rule="evenodd" clip-rule="evenodd" d="M35.2351 44.1985C34.6635 44.6529 34.0529 45.0728 33.4033 45.4582C33.2959 45.5219 33.1875 45.5847 33.0781 45.6465C32.9475 45.7202 32.8154 45.7926 32.6819 45.8636C30.0758 47.2424 27.0455 47.9318 23.5909 47.9318C20.3788 47.9318 17.5152 47.3409 15 46.1591C12.5 44.9773 10.5151 43.3485 9.04544 41.2727C8.78403 40.9035 8.54492 40.5247 8.32809 40.1364C7.32585 38.3412 6.79983 36.3412 6.75 34.1364H16.2954C16.4015 35.9394 17.1591 37.4015 18.5682 38.5227C19.9773 39.6439 21.6515 40.2045 23.5909 40.2045C24.1873 40.2045 24.7566 40.1538 25.2989 40.0522C26.1618 39.8907 26.9561 39.6005 27.6819 39.1818C28.8788 38.4848 29.8106 37.5227 30.4773 36.2955C31.1591 35.053 31.5 33.6288 31.5 32.0227C31.5 30.3864 31.1515 28.947 30.4546 27.7045C29.7727 26.4621 28.8258 25.4924 27.6136 24.7955C26.4015 24.0985 25.0151 23.7424 23.4545 23.7273C22.0909 23.7273 20.7651 24.0076 19.4773 24.5682C18.2045 25.1288 17.2121 25.8939 16.5 26.8636L11.515 25.9702L10.9246 25.8644L7.75 25.2955L9.41564 6.75L9.95453 0.75H38.4091V8.79546H32.4091H18.0682L17.4483 14.7955L16.8636 20.4545H17.1364C17.9545 19.303 19.1894 18.3485 20.8409 17.5909C22.4924 16.8333 24.3409 16.4545 26.3864 16.4545C29.1894 16.4545 31.6894 17.1136 33.8864 18.4318C36.0834 19.75 37.8182 21.5606 39.091 23.8636C40.3637 26.1515 40.9925 28.7879 40.9773 31.7727C40.9925 34.9091 40.2652 37.697 38.7955 40.1364C37.8534 41.7065 36.6666 43.0606 35.2351 44.1985Z" fill="white"/>
<path d="M33.4033 45.4582C34.0529 45.0728 34.6635 44.6529 35.2351 44.1985C36.6666 43.0606 37.8534 41.7065 38.7955 40.1364C40.2652 37.697 40.9925 34.9091 40.9773 31.7727C40.9925 28.7879 40.3637 26.1515 39.091 23.8636C37.8182 21.5606 36.0834 19.75 33.8864 18.4318C31.6894 17.1136 29.1894 16.4545 26.3864 16.4545C24.3409 16.4545 22.4924 16.8333 20.8409 17.5909C19.1894 18.3485 17.9545 19.303 17.1364 20.4545H16.8636L17.4483 14.7955L18.0682 8.79546H32.4091H38.4091V0.75H9.95453L9.41564 6.75L7.75 25.2955L10.9246 25.8644L11.515 25.9702L16.5 26.8636C17.2121 25.8939 18.2045 25.1288 19.4773 24.5682C20.7651 24.0076 22.0909 23.7273 23.4545 23.7273C25.0151 23.7424 26.4015 24.0985 27.6136 24.7955C28.8258 25.4924 29.7727 26.4621 30.4546 27.7045C31.1515 28.947 31.5 30.3864 31.5 32.0227C31.5 33.6288 31.1591 35.053 30.4773 36.2955C29.8106 37.5227 28.8788 38.4848 27.6819 39.1818C26.9561 39.6005 26.1618 39.8907 25.2989 40.0522C24.7566 40.1538 24.1873 40.2045 23.5909 40.2045C21.6515 40.2045 19.9773 39.6439 18.5682 38.5227C17.1591 37.4015 16.4015 35.9394 16.2954 34.1364H6.75C6.79983 36.3412 7.32585 38.3412 8.32809 40.1364C8.54492 40.5247 8.78403 40.9035 9.04544 41.2727C10.5151 43.3485 12.5 44.9773 15 46.1591C17.5152 47.3409 20.3788 47.9318 23.5909 47.9318C27.0455 47.9318 30.0758 47.2424 32.6819 45.8636C32.8154 45.7926 32.9475 45.7202 33.0781 45.6465M33.4033 45.4582C33.2959 45.5219 33.1875 45.5847 33.0781 45.6465M33.4033 45.4582C33.1903 45.6043 33.0549 45.6885 33.0781 45.6465M33.4033 45.4582C33.6161 45.3123 33.9063 45.1045 34.1931 44.8992" stroke="#9C0101" stroke-width="1.5" stroke-linejoin="round"/>
</svg>
