<svg width="44" height="56" viewBox="0 0 44 56" fill="none" xmlns="http://www.w3.org/2000/svg">
<path fill-rule="evenodd" clip-rule="evenodd" d="M10.7412 9.06584C11.1068 8.46906 11.4961 7.90166 11.9091 7.36363C13.5758 5.21212 15.5682 3.57576 17.8864 2.45454C20.2046 1.31818 22.8031 0.75 25.6819 0.75C28.7879 0.75 31.5303 1.35606 33.9091 2.56818C36.2879 3.76515 38.197 5.39394 39.6364 7.45454C41.0909 9.51515 41.9697 11.8258 42.2727 14.3864H34.2447H32.5682C32.1894 12.7652 31.3939 11.4924 30.1818 10.5682C28.9697 9.64394 27.4697 9.18182 25.6819 9.18182C22.6516 9.18182 20.3485 10.5 18.7727 13.1364C18.366 13.8234 18.0113 14.5748 17.7085 15.3905C16.8495 17.7048 16.4088 20.5367 16.3864 23.8864H16.7046C17.4015 22.5076 18.3409 21.3333 19.5227 20.3636C20.7197 19.3788 22.0758 18.6288 23.5909 18.1136C24.1438 17.922 24.7077 17.765 25.2824 17.6427C26.2982 17.4263 27.348 17.3182 28.4319 17.3182C28.8262 17.3182 29.2144 17.3315 29.5964 17.3582C31.8853 17.5179 33.9516 18.1561 35.7954 19.2727C35.9118 19.3424 36.0269 19.4135 36.1407 19.486C36.3506 19.6199 36.5561 19.7586 36.757 19.9021C38.4588 21.118 39.8353 22.681 40.8864 24.5909C42.1288 26.8485 42.75 29.4318 42.75 32.3409C42.75 35.4924 42.0151 38.2955 40.5454 40.75C39.1577 43.0918 37.239 44.9508 34.7894 46.3272C34.6714 46.3935 34.5522 46.4587 34.4318 46.5227C31.8257 47.9015 28.7955 48.5833 25.3409 48.5682C22.947 48.553 20.6364 48.1515 18.4091 47.3636C16.197 46.5758 14.2121 45.2955 12.4546 43.5227C10.697 41.75 9.30304 39.4015 8.27274 36.4773C7.25758 33.553 6.75 29.9621 6.75 25.7045C6.76515 21.7955 7.21212 18.303 8.09091 15.2273C8.7613 12.9093 9.64474 10.8555 10.7412 9.06584ZM18 29.4773C17.8471 29.8455 17.7227 30.2233 17.6269 30.6106C17.4666 31.2591 17.3864 31.9344 17.3864 32.6364C17.3864 34.1364 17.7273 35.5076 18.4091 36.75C19.1061 37.9924 20.0455 38.9848 21.2273 39.7273C22.4243 40.4697 23.7803 40.8409 25.2955 40.8409C25.8814 40.8409 26.4436 40.7865 26.9819 40.6778C27.8357 40.5053 28.6296 40.196 29.3637 39.75C30.5606 39.0227 31.5 38.0379 32.1818 36.7955C32.8636 35.553 33.2046 34.1591 33.2046 32.6136C33.2046 31.0682 32.8636 29.6818 32.1818 28.4545C31.5151 27.2273 30.591 26.25 29.4091 25.5227C28.2273 24.7955 26.8788 24.4318 25.3637 24.4318C24.2273 24.4318 23.1743 24.6439 22.2046 25.0682C21.25 25.4924 20.4091 26.0833 19.6819 26.8409C18.9697 27.5985 18.4091 28.4773 18 29.4773Z" fill="white" stroke="#9C0101" stroke-width="1.5" stroke-linejoin="round"/>
<path fill-rule="evenodd" clip-rule="evenodd" d="M11.9091 7.36377C11.4961 7.9018 11.1068 8.4692 10.7412 9.06598C9.64474 10.8556 8.7613 12.9094 8.09091 15.2274C7.21212 18.3032 6.76515 21.7956 6.75 25.7047C6.75 29.9623 7.25758 33.5532 8.27274 36.4774C9.30304 39.4017 10.697 41.7501 12.4546 43.5229C14.2121 45.2956 16.197 46.5759 18.4091 47.3638C20.6364 48.1517 22.947 48.5532 25.3409 48.5683C28.7955 48.5835 31.8257 47.9017 34.4318 46.5229C34.5522 46.4588 34.6714 46.3937 34.7894 46.3274C34.7105 46.4694 34.6291 46.6103 34.5454 46.7501C33.0909 49.2047 31.053 51.1289 28.4318 52.5229C25.8257 53.9017 22.7955 54.5835 19.3409 54.5683C16.947 54.5532 14.6364 54.1517 12.4091 53.3638C10.197 52.5759 8.21214 51.2956 6.45456 49.5229C4.69698 47.7501 3.30304 45.4017 2.27274 42.4774C1.25758 39.5532 0.75 35.9623 0.75 31.7047C0.765152 27.7956 1.21212 24.3032 2.09091 21.2274C2.98485 18.1365 4.2576 15.5153 5.90912 13.3638L11.9091 7.36377Z" fill="#9C0101" stroke="#9C0101" stroke-width="1.5" stroke-linejoin="round"/>
<path fill-rule="evenodd" clip-rule="evenodd" d="M19.3637 30.4319C18.7614 30.4319 18.1825 30.4915 17.627 30.6107C17.7227 30.2234 17.8471 29.8456 18.0001 29.4773C18.4091 28.4773 18.9698 27.5985 19.6819 26.841C20.4091 26.0834 21.25 25.4925 22.2046 25.0682C23.1743 24.644 24.2273 24.4319 25.3637 24.4319C26.8788 24.4319 28.2274 24.7955 29.4092 25.5228C30.591 26.2501 31.5151 27.2273 32.1818 28.4546C32.8636 29.6819 33.2046 31.0682 33.2046 32.6137C33.2046 34.1592 32.8636 35.5531 32.1818 36.7955C31.5 38.0379 30.5607 39.0228 29.3637 39.7501C28.6296 40.1961 27.8357 40.5053 26.982 40.6778C27.1304 40.0228 27.2046 39.3347 27.2046 38.6137C27.2046 37.0682 26.8636 35.6819 26.1818 34.4546C25.5151 33.2273 24.591 32.2501 23.4092 31.5228C22.2274 30.7955 20.8788 30.4319 19.3637 30.4319Z" fill="#9C0101" stroke="#9C0101" stroke-width="1.5" stroke-linejoin="round"/>
<path fill-rule="evenodd" clip-rule="evenodd" d="M19.6818 15.1819C18.9857 15.1819 18.3279 15.2515 17.7085 15.3906C18.0113 14.5749 18.366 13.8235 18.7727 13.1364C20.3485 10.5001 22.6515 9.18188 25.6818 9.18188C27.4697 9.18188 28.9697 9.644 30.1818 10.5682C31.3939 11.4925 32.1894 12.7652 32.5682 14.3864L29.5964 17.3582C29.2144 17.3316 28.8262 17.3182 28.4318 17.3182C27.348 17.3182 26.2982 17.4264 25.2824 17.6427C24.9646 17.2435 24.5977 16.8854 24.1818 16.5682C22.9697 15.644 21.4697 15.1819 19.6818 15.1819Z" fill="#9C0101" stroke="#9C0101" stroke-width="1.5" stroke-linejoin="round"/>
<path fill-rule="evenodd" clip-rule="evenodd" d="M35.7953 19.2726C33.9515 18.1559 31.8852 17.5177 29.5963 17.358L32.5681 14.3862H34.2446H42.2726L36.7569 19.902C36.556 19.7585 36.3505 19.6197 36.1406 19.4859C36.0268 19.4134 35.9117 19.3423 35.7953 19.2726Z" fill="#9C0101" stroke="#9C0101" stroke-width="1.5" stroke-linejoin="round"/>
</svg>
