<svg width="44" height="56" viewBox="0 0 44 56" fill="none" xmlns="http://www.w3.org/2000/svg">
<path d="M24.7955 48.5682C21.2955 48.5682 18.1819 48 15.4546 46.8636C12.7425 45.7121 10.6136 44.1439 9.06818 42.1591C7.52272 40.1742 6.75 37.9242 6.75 35.4091C6.75 33.4697 7.18939 31.6894 8.06818 30.0682C8.96212 28.4318 10.1743 27.0758 11.7046 26C13.2349 24.9091 14.947 24.2121 16.8409 23.9091V23.5909C14.3561 23.0909 12.3409 21.8864 10.7955 19.9773C9.25002 18.053 8.47729 15.8182 8.47729 13.2727C8.47729 10.8636 9.18185 8.7197 10.5909 6.84091C12 4.94697 13.9319 3.46213 16.3864 2.38637C18.8561 1.29546 21.6591 0.75 24.7955 0.75C27.9318 0.75 30.7273 1.29546 33.1818 2.38637C35.6515 3.47728 37.5909 4.96969 39 6.86363C40.4091 8.74242 41.1213 10.8788 41.1364 13.2727C41.1213 15.8333 40.3334 18.0682 38.7728 19.9773C37.2122 21.8864 35.2122 23.0909 32.7728 23.5909V23.9091C34.6364 24.2121 36.3258 24.9091 37.8409 26C39.3712 27.0758 40.5834 28.4318 41.4773 30.0682C42.3864 31.6894 42.8485 33.4697 42.8636 35.4091C42.8485 37.9242 42.0682 40.1742 40.5228 42.1591C38.9773 44.1439 36.8409 45.7121 34.1136 46.8636C31.4015 48 28.2955 48.5682 24.7955 48.5682ZM24.7955 41.3409C26.3561 41.3409 27.7197 41.0606 28.8864 40.5C30.0531 39.9242 30.9621 39.1364 31.6136 38.1364C32.2803 37.1212 32.6136 35.9545 32.6136 34.6364C32.6136 33.2879 32.2728 32.0985 31.5909 31.0682C30.9091 30.0227 29.9848 29.2045 28.8182 28.6136C27.6515 28.0076 26.3106 27.7045 24.7955 27.7045C23.2955 27.7045 21.9546 28.0076 20.7728 28.6136C19.5909 29.2045 18.6591 30.0227 17.9773 31.0682C17.3106 32.0985 16.9773 33.2879 16.9773 34.6364C16.9773 35.9545 17.3031 37.1212 17.9546 38.1364C18.6061 39.1364 19.5228 39.9242 20.7046 40.5C21.8864 41.0606 23.25 41.3409 24.7955 41.3409ZM24.7955 20.5455C26.0985 20.5455 27.2576 20.2803 28.2728 19.75C29.2879 19.2197 30.0834 18.4848 30.6591 17.5455C31.2349 16.6061 31.5228 15.5227 31.5228 14.2955C31.5228 13.0833 31.2349 12.0227 30.6591 11.1136C30.0834 10.1894 29.2955 9.46969 28.2955 8.95454C27.2955 8.42424 26.1288 8.15909 24.7955 8.15909C23.4773 8.15909 22.3106 8.42424 21.2955 8.95454C20.2803 9.46969 19.4849 10.1894 18.9091 11.1136C18.3485 12.0227 18.0682 13.0833 18.0682 14.2955C18.0682 15.5227 18.3561 16.6061 18.9318 17.5455C19.5076 18.4848 20.303 19.2197 21.3182 19.75C22.3333 20.2803 23.4924 20.5455 24.7955 20.5455Z" fill="white" stroke="#9C0101" stroke-width="1.5" stroke-linejoin="round"/>
<path d="M24.8596 20.5454C24.8839 20.5452 24.9081 20.545 24.9322 20.5446C24.9863 20.5438 25.0401 20.5426 25.0936 20.5409C25.2374 20.5363 25.3795 20.5284 25.5197 20.5171C25.5218 20.4438 25.5228 20.3699 25.5228 20.2956C25.5228 19.0834 25.2349 18.0228 24.6592 17.1138C24.0834 16.1895 23.2955 15.4698 22.2955 14.9547C21.2955 14.4244 20.1289 14.1592 18.7955 14.1592C18.7102 14.1592 18.6256 14.1603 18.5416 14.1625C18.3817 14.1667 18.2242 14.175 18.069 14.1873M24.8596 20.5454C24.8416 20.5455 24.8136 20.5456 24.7955 20.5456M24.8596 20.5454L24.7955 20.5456M24.7955 20.5456C23.4925 20.5456 22.3334 20.2804 21.3182 19.7501C20.3031 19.2198 19.5076 18.485 18.9319 17.5456C18.3561 16.6062 18.0682 15.5228 18.0682 14.2956M18.0682 14.2956C18.0682 14.2809 18.0683 14.2663 18.0684 14.2517M18.0682 14.2956L18.0684 14.2517M18.0684 14.2517C18.0685 14.2302 18.0687 14.2087 18.069 14.1873M18.0684 14.2517L18.069 14.1873" stroke="#9C0101" stroke-width="1.5" stroke-linejoin="round"/>
<path d="M24.9322 20.5446C24.9081 20.545 24.8739 20.5452 24.8497 20.5454L24.7955 20.5456C23.4925 20.5456 22.3334 20.2804 21.3182 19.7501C20.3031 19.2198 19.5076 18.485 18.9319 17.5456C18.3561 16.6062 18.0682 15.5228 18.0682 14.2956L18.0684 14.2517L18.069 14.1873C18.2242 14.175 18.3817 14.1667 18.5416 14.1625C18.6256 14.1603 18.7102 14.1592 18.7955 14.1592C20.1289 14.1592 21.2955 14.4244 22.2955 14.9547C23.2955 15.4698 24.0834 16.1895 24.6592 17.1138C25.2349 18.0228 25.5228 19.0834 25.5228 20.2956C25.5228 20.3699 25.5218 20.4438 25.5197 20.5171C25.3795 20.5284 25.2374 20.5363 25.0936 20.5409C25.0401 20.5426 24.9863 20.5438 24.9322 20.5446Z" stroke="#9C0101" stroke-width="1.5" stroke-linejoin="round"/>
<path d="M8.75229 28.9595C8.50665 29.3135 8.27863 29.6831 8.06824 30.0682C8.02179 30.1539 7.97656 30.2401 7.93256 30.3267C7.8439 30.5012 7.76022 30.6775 7.68152 30.8556" stroke="#9C0101" stroke-width="1.5" stroke-linejoin="round"/>
<path d="M26.5924 41.2034C26.0256 41.2952 25.4267 41.341 24.7955 41.341C23.25 41.341 21.8864 41.0607 20.7046 40.5001C19.5228 39.9243 18.6061 39.1364 17.9546 38.1364C17.3031 37.1213 16.9773 35.9546 16.9773 34.6364C16.9773 34.3715 16.9902 34.1127 17.0159 33.8601C17.5819 33.7564 18.175 33.7046 18.7955 33.7046C20.3106 33.7046 21.6515 34.0076 22.8182 34.6137C23.9849 35.2046 24.9091 36.0228 25.5909 37.0682C26.2728 38.0986 26.6136 39.288 26.6136 40.6364C26.6136 40.8286 26.6065 41.0176 26.5924 41.2034Z" stroke="#9C0101" stroke-width="1.5" stroke-linejoin="round"/>
<path d="M24.7955 41.341C25.4267 41.341 26.0256 41.2952 26.5924 41.2034C26.6065 41.0176 26.6136 40.8286 26.6136 40.6364C26.6136 39.288 26.2728 38.0986 25.5909 37.0682C24.9091 36.0228 23.9849 35.2046 22.8182 34.6137C21.6515 34.0076 20.3106 33.7046 18.7955 33.7046C18.175 33.7046 17.5819 33.7564 17.0159 33.8601C16.9902 34.1127 16.9773 34.3715 16.9773 34.6364C16.9773 35.9546 17.3031 37.1213 17.9546 38.1364C18.6061 39.1364 19.5228 39.9243 20.7046 40.5001C21.8864 41.0607 23.25 41.341 24.7955 41.341Z" stroke="#9C0101" stroke-width="1.5" stroke-linejoin="round"/>
<path d="M28.9254 28.6689C28.9413 28.6773 28.9572 28.6857 28.973 28.6941" stroke="#9C0101" stroke-width="1.5" stroke-linejoin="round"/>
<path fill-rule="evenodd" clip-rule="evenodd" d="M18.7954 33.7045C18.175 33.7045 17.5818 33.7563 17.0159 33.86C17.1211 32.8267 17.4416 31.8962 17.9773 31.0682C18.6591 30.0228 19.5909 29.2046 20.7727 28.6137C21.9546 28.0076 23.2954 27.7046 24.7954 27.7046C26.3106 27.7046 27.6515 28.0076 28.8181 28.6137C28.8542 28.6319 28.8899 28.6503 28.9254 28.669L28.9731 28.6942C29.0412 28.7307 29.1086 28.7679 29.1751 28.8059C30.1749 29.3776 30.9802 30.1318 31.5909 31.0682C31.8406 31.4456 32.0446 31.8442 32.2029 32.2642C32.4767 32.991 32.6136 33.7818 32.6136 34.6364C32.6136 35.9546 32.2802 37.1213 31.6136 38.1364C30.9621 39.1364 30.0531 39.9243 28.8864 40.5001C28.1916 40.8339 27.4268 41.0683 26.5924 41.2034C26.6065 41.0176 26.6136 40.8286 26.6136 40.6364C26.6136 39.2879 26.2727 38.0985 25.5909 37.0682C24.9091 36.0227 23.9848 35.2045 22.8181 34.6136C21.6515 34.0076 20.3106 33.7045 18.7954 33.7045Z" fill="#9C0101" stroke="#9C0101" stroke-width="1.5" stroke-linejoin="round"/>
<path fill-rule="evenodd" clip-rule="evenodd" d="M34.1136 46.8636C34.7164 46.6091 35.2904 46.3342 35.8354 46.0389C35.4867 46.7764 35.0491 47.4831 34.5228 48.1591C32.9773 50.1439 30.8409 51.712 28.1136 52.8636C25.4015 53.9999 22.2955 54.5681 18.7955 54.5681C15.2955 54.5681 12.1819 53.9999 9.45459 52.8636C6.74246 51.712 4.61362 50.1439 3.06818 48.1591C1.52274 46.1742 0.75 43.9242 0.75 41.409C0.75 39.4696 1.18939 37.6893 2.06818 36.0681C2.96213 34.4318 4.17429 33.0757 5.70459 31.9999C6.33289 31.5521 6.99185 31.1706 7.68146 30.8555C7.06049 32.2609 6.75 33.7787 6.75 35.409C6.75 37.9242 7.52274 40.1742 9.06818 42.1591C10.6136 44.1439 12.7425 45.712 15.4546 46.8636C18.1819 47.9999 21.2955 48.5681 24.7955 48.5681C28.2955 48.5681 31.4015 47.9999 34.1136 46.8636Z" fill="#9C0101" stroke="#9C0101" stroke-width="1.5" stroke-linejoin="round"/>
<path fill-rule="evenodd" clip-rule="evenodd" d="M8.75229 28.9595C7.20114 28.3138 5.88214 27.3198 4.79547 25.9774C3.25003 24.0532 2.47729 21.8183 2.47729 19.2728C2.47729 16.8638 3.18185 14.7198 4.59094 12.8411C5.80432 11.2101 7.40533 9.88257 9.39395 8.8584C8.78287 10.2149 8.47729 11.6863 8.47729 13.2728C8.47729 15.8183 9.25003 18.0532 10.7955 19.9774C12.3409 21.8865 14.3561 23.0911 16.8409 23.5911V23.9092C14.947 24.2122 13.2349 24.9092 11.7046 26.0001C10.5345 26.8227 9.55038 27.8091 8.75229 28.9595Z" fill="#9C0101" stroke="#9C0101" stroke-width="1.5" stroke-linejoin="round"/>
<path fill-rule="evenodd" clip-rule="evenodd" d="M28.2728 19.7501C27.4497 20.1801 26.532 20.4357 25.5196 20.5171C25.5218 20.4438 25.5229 20.3699 25.5229 20.2956C25.5229 19.0834 25.235 18.0228 24.6592 17.1138C24.0835 16.1895 23.2956 15.4698 22.2956 14.9547C21.2956 14.4244 20.1289 14.1592 18.7956 14.1592C18.7103 14.1592 18.6256 14.1603 18.5416 14.1625C18.3818 14.1667 18.2242 14.175 18.069 14.1873C18.0852 13.0201 18.3653 11.9957 18.9091 11.1138C19.4849 10.1895 20.2804 9.46979 21.2955 8.95465C22.3106 8.42438 23.4773 8.15918 24.7955 8.15918C26.1288 8.15918 27.2955 8.42438 28.2955 8.95465C29.2955 9.46979 30.0834 10.1895 30.6591 11.1138C31.2349 12.0228 31.5228 13.0834 31.5228 14.2956C31.5228 15.5228 31.2349 16.6062 30.6591 17.5456C30.0834 18.485 29.2879 19.2198 28.2728 19.7501Z" fill="#9C0101" stroke="#9C0101" stroke-width="1.5" stroke-linejoin="round"/>
</svg>
