<svg width="44" height="56" viewBox="0 0 44 56" fill="none" xmlns="http://www.w3.org/2000/svg">
<path d="M24.1366 0.750244C26.5305 0.750244 28.8335 1.15176 31.0456 1.95479C33.2729 2.75782 35.2578 4.03812 37.0002 5.7957C38.7578 7.55328 40.1441 9.88661 41.1593 12.7957C42.1896 15.6896 42.7123 19.2427 42.7275 23.4548C42.7275 27.4093 42.2805 30.9396 41.3866 34.0457C40.5078 37.1366 39.2426 39.7654 37.5911 41.9321C35.9396 44.0987 33.9472 45.7502 31.6138 46.8866C29.2805 48.0078 26.6744 48.5684 23.7956 48.5684C20.6896 48.5684 17.9472 47.9699 15.5684 46.773C13.1896 45.5609 11.273 43.9169 9.81841 41.8412C8.37902 39.7502 7.50779 37.4018 7.20476 34.7957H16.9093C17.2881 36.4927 18.0835 37.8109 19.2956 38.7502C20.5078 39.6745 22.0078 40.1366 23.7956 40.1366C26.8259 40.1366 29.129 38.8184 30.7048 36.1821C32.2805 33.5306 33.076 29.9018 33.0911 25.2957H32.7729C32.076 26.6593 31.1366 27.8336 29.9548 28.8184C28.7729 29.7881 27.4169 30.5381 25.8866 31.0684C24.3714 31.5987 22.7578 31.8639 21.0456 31.8639C18.3032 31.8639 15.8563 31.2199 13.7048 29.9321C11.5532 28.6442 9.85625 26.8715 8.61382 24.6139C7.3714 22.3563 6.75023 19.7806 6.75023 16.8866C6.73508 13.7654 7.45475 10.9851 8.90929 8.5457C10.3638 6.10631 12.3942 4.19721 15.0002 2.81843C17.6214 1.42449 20.6669 0.735092 24.1366 0.750244ZM24.2048 8.47752C22.6745 8.47752 21.3108 8.84115 20.1138 9.56843C18.932 10.2957 17.9926 11.273 17.2956 12.5002C16.6138 13.7275 16.2805 15.0987 16.2956 16.6139C16.2956 18.1442 16.629 19.523 17.2956 20.7502C17.9775 21.9624 18.9017 22.9321 20.0684 23.6593C21.2502 24.3715 22.5987 24.7275 24.1138 24.7275C25.2502 24.7275 26.3032 24.5154 27.2729 24.0912C28.2426 23.6669 29.0835 23.0836 29.7956 22.3412C30.5229 21.5836 31.0911 20.7124 31.5002 19.7275C31.9093 18.7427 32.1138 17.6972 32.1138 16.5912C32.0987 15.1215 31.7502 13.773 31.0684 12.5457C30.3866 11.3184 29.4472 10.3336 28.2502 9.59116C27.0533 8.84873 25.7048 8.47752 24.2048 8.47752Z" fill="white" stroke="black" stroke-width="1.5" stroke-linejoin="round"/>
<path fill-rule="evenodd" clip-rule="evenodd" d="M26.918 30.6662C28.0333 30.1803 29.0456 29.5643 29.9547 28.8184C31.1365 27.8335 32.0759 26.6593 32.7729 25.2957C32.7578 29.9017 32.2805 33.5305 30.7047 36.182C29.4914 38.212 27.8469 39.4604 25.7712 39.9273C26.6048 37.6816 26.8866 33.9786 26.918 30.6662Z" fill="#9C0101" stroke="black" stroke-width="1.5" stroke-linejoin="round"/>
<path d="M18.2047 14.4775C17.6076 14.4775 17.0359 14.5329 16.4895 14.6436C16.6539 13.8861 16.9226 13.1716 17.2956 12.5003C17.9926 11.273 18.932 10.2957 20.1138 9.56845C21.3107 8.84118 22.6744 8.47754 24.2047 8.47754C25.7047 8.47754 27.0532 8.84875 28.2502 9.59118C29.4472 10.3336 30.3865 11.3184 31.0684 12.5457C31.7502 13.773 32.0986 15.1215 32.1138 16.5912C32.1138 17.6972 31.9093 18.7427 31.5002 19.7275C31.0911 20.7124 30.5229 21.5836 29.7956 22.3412C29.0835 23.0836 28.2426 23.6669 27.2729 24.0912C26.8285 24.2856 26.3665 24.4355 25.8871 24.5408C26.0382 23.9133 26.1138 23.2634 26.1138 22.5912C26.0986 21.1215 25.7502 19.773 25.0684 18.5457C24.3865 17.3184 23.4472 16.3336 22.2502 15.5912C21.0532 14.8488 19.7047 14.4775 18.2047 14.4775Z" fill="black" stroke="black" stroke-width="1.5" stroke-linejoin="round"/>
<path d="M9.81848 41.8411C9.58331 41.4995 9.36332 41.151 9.15848 40.7957C8.2568 39.2313 7.649 37.5338 7.33509 35.7031C7.28384 35.4041 7.24042 35.1017 7.20483 34.7957L6.71683 35.2837L1.20483 40.7957C1.50786 43.4017 2.37909 45.7502 3.81848 47.8411C5.27303 49.9169 7.18969 51.5608 9.56848 52.7729C11.9473 53.9699 14.6897 54.5684 17.7957 54.5684C20.6745 54.5684 23.2806 54.0078 25.6139 52.8866C27.9472 51.7502 29.9397 50.0987 31.5912 47.932C31.9854 47.4148 32.3576 46.8713 32.7078 46.3015C32.3519 46.5097 31.9872 46.7047 31.6139 46.8866C29.2806 48.0078 26.6745 48.5684 23.7957 48.5684C20.6897 48.5684 17.9473 47.9699 15.5685 46.7729C13.1897 45.5608 11.273 43.9169 9.81848 41.8411Z" stroke="black" stroke-width="1.5" stroke-linejoin="round"/>
<path fill-rule="evenodd" clip-rule="evenodd" d="M18.1247 37.5566C17.5535 36.7873 17.1484 35.867 16.9093 34.7958H7.20476L6.71676 35.2838C5.02714 34.0707 3.65948 32.5141 2.61382 30.614C1.3714 28.3565 0.750234 25.7807 0.750234 22.8868C0.735083 19.7655 1.45475 16.9852 2.90929 14.5458C4.29643 12.2195 6.20724 10.3754 8.64164 9.01367C7.3665 11.339 6.73604 13.9633 6.75023 16.8868C6.75023 19.7807 7.3714 22.3565 8.61382 24.614C9.85625 26.8716 11.5532 28.6443 13.7048 29.9322C15.8563 31.2201 18.3032 31.864 21.0456 31.864C22.7578 31.864 24.3714 31.5989 25.8866 31.0686C26.1463 30.9786 26.6683 30.7691 26.918 30.6664C26.2262 32.0202 24.9935 33.953 23.9548 34.8186C22.7729 35.7883 21.4169 36.5383 19.8866 37.0686C19.3134 37.2692 18.7261 37.4319 18.1247 37.5566Z" fill="black" stroke="black" stroke-width="1.5" stroke-linejoin="round"/>
<path d="M18.2047 14.4775C17.6076 14.4775 17.0359 14.5329 16.4895 14.6436C16.6539 13.8861 16.9226 13.1716 17.2956 12.5003C17.9926 11.273 18.932 10.2957 20.1138 9.56845C21.3107 8.84118 22.6744 8.47754 24.2047 8.47754C25.7047 8.47754 27.0532 8.84875 28.2502 9.59118C29.4472 10.3336 30.3865 11.3184 31.0684 12.5457C31.7502 13.773 32.0986 15.1215 32.1138 16.5912C32.1138 17.6972 31.9093 18.7427 31.5002 19.7275C31.0911 20.7124 30.5229 21.5836 29.7956 22.3412C29.0835 23.0836 28.2426 23.6669 27.2729 24.0912C26.8285 24.2856 26.3665 24.4355 25.8871 24.5408C26.0382 23.9133 26.1138 23.2634 26.1138 22.5912C26.0986 21.1215 25.7502 19.773 25.0684 18.5457C24.3865 17.3184 23.4472 16.3336 22.2502 15.5912C21.0532 14.8488 19.7047 14.4775 18.2047 14.4775Z" fill="#9C0101" stroke="black" stroke-width="1.5" stroke-linejoin="round"/>
<path d="M9.81848 41.8411C9.58331 41.4995 9.36332 41.151 9.15848 40.7957C8.2568 39.2313 7.649 37.5338 7.33509 35.7031C7.28384 35.4041 7.24042 35.1017 7.20483 34.7957L6.71683 35.2837L1.20483 40.7957C1.50786 43.4017 2.37909 45.7502 3.81848 47.8411C5.27303 49.9169 7.18969 51.5608 9.56848 52.7729C11.9473 53.9699 14.6897 54.5684 17.7957 54.5684C20.6745 54.5684 23.2806 54.0078 25.6139 52.8866C27.9472 51.7502 29.9397 50.0987 31.5912 47.932C31.9854 47.4148 32.3576 46.8713 32.7078 46.3015C32.3519 46.5097 31.9872 46.7047 31.6139 46.8866C29.2806 48.0078 26.6745 48.5684 23.7957 48.5684C20.6897 48.5684 17.9473 47.9699 15.5685 46.7729C13.1897 45.5608 11.273 43.9169 9.81848 41.8411Z" fill="#FF0000" stroke="black" stroke-width="1.5" stroke-linejoin="round"/>
<path fill-rule="evenodd" clip-rule="evenodd" d="M18.1247 37.5566C17.5535 36.7873 17.1484 35.867 16.9093 34.7958H7.20476L6.71676 35.2838C5.02714 34.0707 3.65948 32.5141 2.61382 30.614C1.3714 28.3565 0.750234 25.7807 0.750234 22.8868C0.735083 19.7655 1.45475 16.9852 2.90929 14.5458C4.29643 12.2195 6.20724 10.3754 8.64164 9.01367C7.3665 11.339 6.73604 13.9633 6.75023 16.8868C6.75023 19.7807 7.3714 22.3565 8.61382 24.614C9.85625 26.8716 11.5532 28.6443 13.7048 29.9322C15.8563 31.2201 18.3032 31.864 21.0456 31.864C22.7578 31.864 24.3714 31.5989 25.8866 31.0686C26.1463 30.9786 26.6683 30.7691 26.918 30.6664C26.2262 32.0202 24.9935 33.953 23.9548 34.8186C22.7729 35.7883 21.4169 36.5383 19.8866 37.0686C19.3134 37.2692 18.7261 37.4319 18.1247 37.5566Z" fill="#FF0000" stroke="black" stroke-width="1.5" stroke-linejoin="round"/>
</svg>
